<?xml version="1.0" standalone="no"?>
<!DOCTYPE svg PUBLIC "-//W3C//DTD SVG 20010904//EN"
 "http://www.w3.org/TR/2001/REC-SVG-20010904/DTD/svg10.dtd">
<svg version="1.0" xmlns="http://www.w3.org/2000/svg"
 width="460.000000pt" height="460.000000pt" viewBox="0 0 460.000000 460.000000"
 preserveAspectRatio="xMidYMid meet">
<metadata>
Created by potrace 1.14, written by Peter Selinger 2001-2017
</metadata>
<g transform="translate(0.000000,460.000000) scale(0.100000,-0.100000)"
fill="#000000" stroke="none">
<path d="M2606 4103 c-2 -2 -28 -5 -58 -7 -30 -2 -64 -8 -75 -14 -11 -6 -23
-8 -27 -5 -3 3 -6 1 -6 -5 0 -6 -9 -14 -20 -17 -11 -3 -20 -13 -20 -21 0 -8
-4 -14 -10 -14 -5 0 -10 -7 -10 -15 0 -15 -21 -19 -75 -14 -16 1 -49 3 -72 3
-24 0 -43 2 -43 6 0 3 -12 5 -27 4 -16 -1 -28 -3 -28 -4 0 -1 -36 -3 -80 -5
-44 -2 -93 -6 -110 -10 -16 -3 -45 -9 -63 -12 -18 -2 -45 -11 -60 -19 -15 -8
-35 -14 -44 -14 -9 0 -20 -5 -23 -10 -4 -6 -10 -8 -15 -5 -5 3 -11 1 -15 -5
-4 -6 -12 -7 -18 -3 -7 4 -14 8 -17 8 -3 0 -21 12 -40 27 -29 22 -57 34 -102
44 -5 1 -9 2 -10 4 -4 2 -38 9 -70 14 -15 3 -32 7 -38 11 -5 3 -10 1 -10 -5 0
-8 -6 -8 -20 0 -11 6 -20 7 -20 2 0 -4 -10 -8 -22 -8 -13 -1 -39 -4 -58 -8
-19 -4 -43 -8 -52 -9 -10 -1 -18 -4 -18 -8 0 -3 -18 -11 -40 -18 -22 -6 -40
-16 -40 -21 0 -6 -3 -9 -7 -8 -13 3 -63 -25 -63 -34 0 -5 -4 -7 -9 -3 -6 3
-19 -5 -30 -17 -12 -12 -21 -19 -21 -16 0 3 -19 -12 -42 -34 -23 -21 -45 -38
-50 -38 -4 0 -8 -7 -8 -16 0 -8 -5 -12 -10 -9 -6 3 -10 1 -10 -5 0 -7 -15 -27
-34 -45 -19 -18 -32 -36 -29 -39 4 -3 1 -6 -5 -6 -7 0 -12 -7 -12 -15 0 -8 -4
-15 -9 -15 -10 0 -54 -86 -49 -95 2 -4 -5 -11 -15 -16 -9 -6 -15 -14 -12 -20
4 -5 1 -9 -4 -9 -6 0 -10 -3 -10 -7 1 -5 -4 -24 -12 -43 -7 -19 -12 -38 -11
-42 1 -5 -2 -8 -8 -8 -6 0 -9 -3 -8 -7 1 -9 -8 -35 -23 -68 -6 -12 -12 -30
-14 -40 -2 -11 -4 -21 -5 -22 -2 -2 -4 -7 -5 -13 -1 -5 -3 -11 -5 -12 -2 -3
-3 -9 -15 -58 -3 -14 -8 -69 -10 -123 -2 -53 -7 -101 -10 -106 -3 -5 -1 -12 3
-15 5 -3 9 -22 10 -44 3 -71 12 -123 29 -160 9 -21 15 -40 15 -44 -1 -5 3 -8
10 -8 6 0 9 -3 6 -6 -3 -3 5 -17 18 -31 13 -14 21 -29 19 -33 -3 -4 2 -10 10
-14 8 -3 15 -12 15 -21 0 -8 4 -15 8 -15 4 0 19 -18 32 -40 20 -33 41 -48 110
-81 47 -23 95 -42 107 -43 13 0 23 -4 23 -7 0 -8 103 -5 117 4 29 18 20 -19
-25 -107 -27 -52 -53 -105 -57 -118 -4 -13 -8 -25 -9 -28 -5 -13 -20 -97 -21
-117 0 -12 -3 -24 -5 -27 -6 -6 -3 -178 4 -260 10 -108 22 -201 26 -201 4 0
20 -101 25 -149 3 -29 -12 -75 -24 -77 -3 0 -21 -2 -38 -4 -18 -2 -47 -10 -64
-19 -17 -9 -35 -13 -40 -10 -5 3 -9 1 -9 -5 0 -6 -11 -13 -25 -17 -14 -3 -25
-10 -25 -16 0 -5 -4 -7 -9 -3 -5 3 -12 1 -16 -5 -3 -5 -21 -17 -40 -26 -19 -9
-35 -20 -35 -25 0 -5 -4 -9 -10 -9 -15 0 -70 -61 -64 -71 3 -5 1 -9 -3 -9 -12
0 -8 -72 6 -98 6 -11 25 -24 43 -28 34 -7 193 -7 238 0 85 14 106 19 112 30 4
6 8 7 8 2 0 -5 10 3 22 17 47 53 178 57 178 4 0 -25 32 -112 46 -123 8 -6 11
-13 9 -16 -3 -3 1 -11 10 -18 8 -7 15 -16 15 -21 0 -13 122 -128 143 -135 9
-3 17 -10 17 -15 0 -5 3 -8 8 -8 4 1 10 0 15 -1 4 -1 10 -3 15 -5 4 -1 20 -7
35 -13 16 -7 31 -12 33 -12 8 0 96 -39 129 -57 17 -9 39 -21 50 -27 11 -6 24
-17 28 -24 5 -7 12 -10 18 -7 5 4 9 1 9 -4 0 -6 10 -11 23 -11 13 0 27 -4 33
-10 5 -5 35 -11 67 -12 31 -2 57 -7 57 -13 0 -5 4 -4 9 4 6 9 11 10 15 2 4 -6
12 -9 17 -5 6 3 45 7 87 9 42 2 77 4 77 5 0 2 55 10 83 12 6 1 12 5 12 9 0 4
8 8 18 8 38 1 52 5 52 13 0 5 5 6 10 3 6 -3 10 -1 10 5 0 6 4 9 8 6 5 -3 21 6
36 19 16 14 33 22 39 18 6 -3 7 -1 3 5 -4 7 -1 12 8 12 9 0 16 7 16 15 0 7 8
19 18 24 9 6 14 11 10 11 -3 0 0 19 7 43 15 49 13 130 -3 150 -12 14 1 37 21
37 4 0 23 11 41 25 18 14 38 25 44 25 7 0 12 4 12 9 0 13 63 -6 113 -34 23
-12 47 -24 52 -25 6 -1 21 -7 35 -12 123 -48 158 -60 179 -64 14 -3 29 -8 35
-12 6 -4 14 -7 19 -8 4 -1 9 -3 12 -4 7 -3 94 -23 155 -35 8 -2 15 -4 15 -5 0
-2 93 -8 218 -13 33 -1 61 1 64 6 2 4 9 4 15 1 6 -4 14 0 19 7 7 11 9 11 9 1
0 -7 4 -10 10 -7 5 3 20 8 32 10 13 3 24 9 26 15 2 5 11 10 20 10 10 0 29 11
44 25 15 14 32 25 38 25 5 0 10 3 10 8 0 4 18 25 39 47 21 22 42 52 46 65 4
14 12 28 17 31 5 3 10 12 11 20 2 8 6 19 9 25 25 39 24 224 -1 232 -6 2 -11
13 -11 24 0 27 -67 89 -127 118 -26 13 -57 28 -68 33 -41 22 -200 23 -249 3
-19 -8 -37 -12 -40 -8 -3 3 -6 0 -6 -6 0 -7 -3 -11 -7 -10 -5 1 -17 -3 -28 -9
-24 -13 -66 -7 -77 10 -4 6 -8 8 -8 4 0 -9 -22 8 -52 40 -12 12 -24 20 -28 18
-4 -3 -10 4 -13 15 -3 13 1 21 16 26 34 11 94 67 107 101 12 30 21 103 12 103
-4 0 -7 16 -8 35 0 32 -40 126 -56 133 -5 2 -8 9 -8 16 0 14 -60 109 -72 114
-5 2 -8 10 -8 17 0 7 -3 15 -7 17 -10 4 -42 57 -50 81 -3 9 -9 17 -14 17 -5 0
-9 7 -9 15 0 8 -3 15 -8 15 -4 0 -13 14 -20 30 -8 17 -17 28 -22 25 -4 -3 -10
5 -13 16 -4 13 -10 18 -18 13 -8 -4 -10 -3 -5 4 4 7 2 12 -3 12 -6 0 -11 6
-11 14 0 23 -193 226 -215 226 -4 0 -43 36 -87 80 -45 44 -85 80 -90 80 -5 0
-6 5 -3 10 3 6 1 10 -5 10 -6 0 -18 7 -27 15 -17 18 -11 60 11 68 15 6 68 -45
102 -98 29 -45 76 -85 100 -85 11 0 24 -3 28 -7 8 -8 73 -32 106 -39 14 -3 41
-9 60 -13 19 -4 48 -6 63 -5 42 4 155 43 171 60 8 8 18 14 22 14 6 0 47 41 91
94 13 14 20 26 17 26 -3 0 3 12 14 28 20 29 38 71 49 112 8 33 8 250 -1 320
-13 102 -16 122 -22 131 -3 5 -8 21 -10 36 -3 14 -14 51 -25 82 -12 31 -21 62
-22 69 0 6 -4 12 -9 12 -4 0 -8 8 -8 19 0 10 -7 24 -15 31 -8 6 -13 15 -12 18
1 4 -13 28 -31 54 -17 26 -32 52 -32 59 0 7 -3 9 -7 6 -3 -4 -17 9 -30 28 -13
19 -28 35 -33 35 -6 0 -9 3 -8 8 4 10 -28 53 -34 47 -3 -3 -11 8 -18 25 -7 16
-17 30 -22 30 -5 0 -24 15 -42 33 -45 43 -76 68 -76 60 0 -3 -9 4 -19 16 -11
12 -23 23 -28 23 -24 3 -43 11 -43 20 0 5 -4 7 -9 3 -5 -3 -16 1 -24 9 -8 8
-17 12 -21 9 -3 -4 -6 -1 -6 6 0 7 -5 9 -10 6 -6 -4 -16 -2 -23 3 -17 15 -161
35 -171 25z"/>
</g>
</svg>
