<?xml version="1.0" standalone="no"?>
<!DOCTYPE svg PUBLIC "-//W3C//DTD SVG 20010904//EN"
 "http://www.w3.org/TR/2001/REC-SVG-20010904/DTD/svg10.dtd">
<svg version="1.0" xmlns="http://www.w3.org/2000/svg"
 width="500.000000pt" height="500.000000pt" viewBox="0 0 500.000000 500.000000"
 preserveAspectRatio="xMidYMid meet">
<metadata>
Created by potrace 1.11, written by Peter Selinger 2001-2013
</metadata>
<g transform="translate(0.000000,500.000000) scale(0.100000,-0.100000)"
fill="#000000" stroke="none">
<path d="M515 4878 c4 -68 9 -200 10 -293 2 -94 8 -188 13 -210 6 -22 10 -78
10 -125 0 -47 5 -200 10 -340 6 -140 10 -262 10 -270 -1 -58 15 -325 23 -369
5 -30 9 -105 9 -167 0 -121 7 -174 22 -174 10 0 9 43 -8 404 -3 60 -7 112 -9
116 -2 4 1 24 6 46 8 28 8 79 -1 184 -7 80 -13 179 -15 220 -4 138 -25 545
-30 590 -2 25 -7 122 -11 215 -3 94 -8 181 -9 195 -2 14 -4 42 -4 63 -1 27 -5
37 -17 37 -14 0 -15 -14 -9 -122z"/>
<path d="M1225 4776 c1 -123 5 -228 8 -233 3 -4 8 -82 11 -173 4 -91 9 -176
12 -190 3 -16 -5 -43 -21 -73 -14 -26 -28 -67 -31 -90 -3 -23 -9 -51 -14 -62
-10 -26 -39 -140 -46 -185 -3 -19 -7 -108 -8 -196 -2 -89 -5 -166 -8 -170 -5
-11 -2 -315 5 -415 7 -102 14 -134 38 -155 10 -9 19 -23 19 -31 0 -7 4 -13 9
-13 12 0 21 -39 26 -123 3 -40 9 -85 13 -102 l9 -30 7 38 c4 23 3 44 -3 51 -6
7 -9 32 -6 56 4 47 26 71 36 42 4 -9 6 12 6 48 -1 36 3 71 8 79 4 8 10 39 11
69 2 29 10 67 19 84 8 17 15 39 15 49 0 10 4 20 9 23 11 7 2 56 -11 56 -5 0
-6 9 -3 20 3 11 2 20 -3 20 -5 0 -7 12 -4 26 4 20 1 25 -9 22 -8 -3 -13 -13
-12 -23 1 -10 -5 -24 -13 -32 -12 -12 -14 -12 -14 1 0 8 5 27 10 42 9 24 8 31
-15 51 -27 26 -31 39 -13 45 7 3 12 26 13 57 1 48 0 51 -13 35 -13 -18 -14
-17 -7 6 4 14 20 55 36 93 22 52 25 67 14 67 -8 0 -15 -6 -16 -12 0 -7 -14
-24 -31 -37 l-30 -24 13 24 c8 13 17 26 21 29 3 3 8 19 10 35 2 17 7 33 12 36
8 6 16 54 18 107 1 25 79 87 93 74 5 -4 5 -1 1 6 -4 6 -2 12 4 12 6 0 14 8 17
17 7 19 28 46 57 73 10 10 15 23 12 29 -3 5 3 13 14 16 12 4 25 18 30 31 7 18
17 24 40 24 17 0 29 4 26 9 -4 5 4 7 16 3 16 -4 19 -2 13 8 -5 9 -4 11 3 6 6
-4 22 -1 34 5 l23 13 -25 7 c-15 4 -1 6 35 4 33 -1 69 1 80 6 17 6 16 8 -10 9
l-30 2 31 7 c17 5 76 4 130 -1 129 -11 256 -9 270 5 3 3 21 1 40 -5 19 -5 41
-7 47 -5 7 2 28 -4 47 -13 19 -10 51 -19 70 -21 19 -2 43 -9 52 -17 9 -8 21
-11 27 -8 5 4 13 2 16 -4 5 -8 11 -8 20 0 10 8 14 7 17 -2 4 -10 8 -9 21 3 20
21 64 13 78 -13 6 -11 16 -17 24 -15 7 3 24 -1 39 -8 15 -8 26 -10 26 -4 0 6
12 2 28 -9 15 -11 46 -23 69 -27 24 -4 61 -15 82 -26 22 -10 48 -19 57 -19 10
0 14 -3 11 -6 -11 -12 13 -43 28 -38 9 4 22 1 29 -5 12 -10 11 -18 -6 -51 -23
-43 -19 -70 12 -70 17 0 19 -4 14 -27 -4 -16 -12 -31 -18 -35 -8 -6 -7 -10 1
-16 26 -17 83 -108 83 -132 0 -34 17 -50 52 -50 27 0 34 -10 42 -64 1 -10 9
-21 16 -26 12 -7 12 -13 0 -36 -12 -22 -12 -28 -2 -32 8 -2 10 -8 4 -15 -8
-11 -16 -83 -26 -257 -4 -64 -16 -117 -33 -145 -9 -16 -14 -17 -27 -6 -14 12
-44 15 -124 11 -18 -1 -39 3 -46 9 -8 7 -32 7 -75 0 -42 -6 -74 -6 -101 1 -28
8 -45 7 -66 -2 -22 -10 -28 -10 -32 0 -5 16 -15 15 -58 -3 -19 -8 -38 -15 -42
-17 -10 -3 -32 -48 -32 -65 0 -9 -11 -25 -23 -37 -13 -12 -32 -44 -41 -72 -10
-27 -22 -57 -27 -67 -5 -9 -12 -58 -16 -107 -3 -50 -10 -93 -15 -96 -4 -3 -8
-23 -8 -45 0 -22 -5 -49 -11 -60 -7 -15 -7 -24 1 -34 8 -10 8 -14 -2 -18 -10
-3 -9 -12 6 -38 11 -19 28 -51 39 -72 l19 -37 -53 -53 c-39 -38 -59 -51 -77
-48 -33 4 -26 -27 11 -48 20 -11 35 -33 49 -71 18 -50 36 -133 22 -102 -3 6
-9 10 -14 7 -4 -3 -13 10 -21 28 -19 49 -29 59 -45 46 -12 -9 -14 -7 -12 12 3
20 -1 24 -22 21 -29 -4 -70 -45 -70 -72 0 -27 -29 -52 -54 -45 -11 2 -15 2 -8
-1 6 -3 12 -12 12 -20 0 -9 -4 -12 -10 -9 -5 3 -10 -1 -10 -9 0 -9 -4 -16 -9
-16 -24 0 -41 14 -41 33 0 19 -1 19 -21 -4 -15 -18 -22 -20 -28 -10 -7 10 -9
9 -14 -3 -4 -10 -14 -13 -29 -10 -79 18 -160 23 -165 9 -4 -13 98 -35 187 -41
36 -2 88 -8 115 -14 28 -5 93 -12 145 -15 110 -7 130 -11 130 -30 0 -7 15 -17
33 -21 41 -9 129 -5 141 7 6 5 18 9 28 9 10 0 18 5 18 10 0 6 8 10 17 10 9 0
24 7 32 14 21 19 89 23 118 8 18 -10 22 -9 26 6 4 16 5 16 6 0 1 -19 21 -26
21 -8 0 6 7 10 15 10 8 0 15 5 15 10 0 6 9 10 20 10 14 0 20 7 20 23 1 19 2
20 10 5 13 -22 6 -81 -10 -86 -9 -3 -11 2 -7 17 3 11 2 23 -3 26 -4 2 -10 -8
-13 -24 -3 -16 -12 -35 -19 -42 -7 -8 -13 -35 -12 -61 0 -27 -3 -48 -8 -48 -4
0 -8 5 -8 10 0 6 -4 10 -10 10 -5 0 -10 -6 -10 -14 0 -8 -8 -17 -18 -20 -20
-7 -48 -46 -32 -46 5 0 10 -4 10 -9 0 -5 -8 -8 -17 -7 -12 1 -17 -5 -15 -17 3
-15 -2 -16 -24 -11 -18 5 -25 3 -20 -4 3 -6 0 -13 -6 -15 -10 -4 -9 -8 2 -16
12 -8 12 -11 -4 -17 -10 -4 -21 -15 -25 -25 -6 -18 -9 -17 -39 11 -32 28 -59
43 -34 18 20 -20 15 -41 -9 -35 -18 5 -20 2 -16 -19 3 -18 0 -24 -14 -24 -23
0 -24 -8 -2 -32 16 -18 16 -18 -3 -12 -10 4 -24 14 -30 23 -18 23 -34 -17 -30
-73 2 -25 0 -46 -4 -46 -4 0 -12 -19 -17 -42 l-10 -43 1 52 c0 28 4 49 9 46 9
-5 8 6 -2 32 -7 16 -11 9 -25 -37 -9 -31 -16 -61 -16 -68 0 -6 -5 -8 -11 -4
-6 3 -8 18 -5 33 5 19 4 22 -4 11 -13 -19 -13 -60 0 -60 6 0 10 -4 10 -9 0 -6
-9 -8 -20 -6 -12 2 -21 -3 -25 -16 -4 -11 -11 -17 -16 -14 -5 4 -9 -2 -9 -12
0 -15 -2 -16 -10 -3 -9 13 -12 12 -25 -4 -18 -23 -18 -21 -6 22 6 20 6 30 0
27 -5 -4 -9 3 -9 13 0 11 -12 28 -27 37 -23 15 -25 16 -20 1 7 -18 -15 -77
-36 -95 -12 -10 -16 -5 -24 26 l-9 38 -16 -33 c-10 -18 -15 -41 -12 -50 3 -9
-3 -5 -12 11 -10 15 -25 27 -32 27 -8 0 -12 6 -9 14 4 10 0 14 -14 11 -10 -2
-20 2 -21 8 0 7 -2 17 -3 22 -2 6 -3 15 -4 20 -1 6 -6 0 -11 -11 -6 -16 -15
-20 -34 -17 -14 3 -26 9 -26 14 0 5 -5 9 -11 9 -6 0 -9 -6 -6 -13 3 -8 0 -14
-6 -14 -7 0 -21 -4 -31 -9 -13 -5 -17 -4 -12 4 3 6 2 13 -2 16 -5 3 -8 18 -6
33 l3 28 -25 -30 -24 -30 0 29 c0 25 -2 27 -16 15 -15 -12 -16 -11 -10 9 5 13
3 22 -3 22 -6 0 -11 8 -12 18 0 13 -3 11 -10 -6 -5 -13 -13 -20 -19 -17 -5 3
-10 0 -10 -7 -1 -21 -30 65 -30 89 0 12 -6 24 -12 27 -10 5 -10 7 0 12 14 7
16 24 3 24 -5 0 -16 -16 -25 -35 -25 -52 -36 -52 -36 0 0 25 -4 44 -9 41 -4
-3 -11 23 -15 57 -3 34 -11 64 -16 65 -6 2 -10 10 -10 18 0 8 -7 14 -15 14 -8
0 -15 -8 -15 -19 0 -10 -7 -25 -17 -32 -15 -13 -16 -11 -10 16 3 17 4 24 1 17
-8 -17 -24 -5 -24 19 0 10 -4 19 -10 19 -5 0 -10 -4 -10 -8 0 -5 -7 -9 -15 -9
-8 0 -15 9 -15 21 0 18 -2 19 -11 6 -9 -12 -10 -12 -5 3 11 34 -4 67 -30 67
-17 0 -24 6 -24 20 0 11 -4 20 -10 20 -9 0 -14 -14 -11 -32 0 -5 -6 -8 -14 -8
-16 0 -19 16 -17 85 1 32 0 36 -7 20 -8 -17 -10 -14 -10 17 -1 20 -8 44 -17
53 -10 9 -14 26 -11 41 3 18 1 24 -9 20 -10 -4 -12 2 -7 24 4 23 2 30 -10 30
-8 0 -18 -6 -20 -12 -3 -7 -6 -1 -6 14 -1 14 5 28 12 31 9 3 9 7 1 18 -7 8
-12 25 -12 39 0 56 -28 237 -31 198 0 -9 -5 -19 -10 -23 -6 -3 -8 10 -5 32 4
29 3 34 -5 23 -15 -21 -13 -118 4 -165 18 -48 18 -48 5 -40 -16 10 -12 -48 4
-71 8 -12 15 -30 16 -40 0 -10 3 -40 6 -65 6 -45 5 -47 -25 -57 -18 -6 -38 -9
-46 -6 -9 4 -15 0 -15 -9 0 -9 -4 -18 -9 -21 -14 -9 -42 5 -35 16 3 5 -7 3
-22 -5 -16 -8 -58 -20 -94 -26 -36 -7 -85 -23 -109 -37 -24 -13 -47 -22 -51
-19 -7 5 -93 -25 -133 -46 -10 -5 -22 -7 -26 -4 -5 2 -25 -6 -45 -20 -20 -14
-58 -30 -84 -36 -26 -7 -59 -20 -74 -31 -14 -10 -40 -21 -57 -24 -17 -4 -31
-13 -31 -20 0 -15 -34 -36 -44 -27 -3 3 -6 1 -6 -5 0 -7 -9 -12 -20 -12 -11 0
-20 -5 -20 -11 0 -6 -6 -9 -14 -6 -8 3 -22 -3 -32 -14 -10 -11 -42 -33 -71
-50 -49 -28 -58 -39 -53 -64 1 -5 2 -19 4 -30 1 -11 7 -29 13 -41 10 -17 8
-22 -8 -32 -16 -10 -19 -9 -19 3 0 17 -16 20 -25 5 -12 -20 -33 -11 -27 13 5
22 5 22 -16 3 l-21 -19 24 -19 c14 -11 29 -16 35 -13 5 3 10 2 10 -3 0 -8 92
-6 119 4 11 3 12 7 3 16 -22 22 -12 29 34 22 37 -5 51 -3 72 13 28 21 136 64
162 65 8 1 21 9 28 19 7 10 43 40 80 66 37 25 99 70 137 99 39 28 97 66 130
84 33 18 65 36 70 40 6 4 42 20 80 35 39 16 75 32 80 36 15 10 163 59 181 59
21 0 29 -27 13 -46 -11 -13 -9 -14 15 -10 32 6 26 -8 -13 -27 -20 -10 -33 -11
-40 -4 -6 6 -14 5 -24 -5 -8 -7 -35 -22 -61 -33 -30 -13 -46 -25 -46 -37 0
-17 -10 -22 -37 -19 -7 1 -17 -8 -23 -19 -10 -18 -7 -24 12 -21 4 0 5 -6 2
-14 -8 -20 4 -19 52 4 22 11 52 23 67 26 33 9 123 88 132 116 4 12 11 17 15
13 19 -21 12 -64 -23 -136 -31 -64 -42 -78 -67 -83 -16 -3 -34 -13 -40 -20 -6
-8 -32 -22 -56 -31 -55 -21 -51 -30 5 -13 49 14 61 7 36 -21 -11 -12 -24 -35
-31 -53 -6 -18 -15 -41 -19 -51 -6 -14 -5 -17 4 -11 10 6 12 0 6 -24 -8 -35
-9 -51 -24 -206 -6 -60 -13 -123 -16 -140 -9 -47 -20 -568 -14 -625 1 -8 1
-51 -1 -95 l-2 -80 -9 55 c-4 30 -10 95 -12 145 -5 81 -24 166 -33 140 -1 -5
-8 -29 -14 -52 -6 -24 -15 -43 -20 -43 -15 0 -12 69 6 135 24 91 24 103 0 109
-11 3 -34 -1 -50 -9 -39 -20 -39 -19 -31 13 9 37 46 75 59 62 28 -28 52 8 62
95 5 38 3 55 -5 55 -6 0 -11 -5 -11 -11 0 -7 -10 -9 -25 -7 -13 3 -26 0 -28
-6 -3 -7 -9 -7 -18 2 -12 12 -11 16 8 29 16 11 23 25 23 47 0 43 -18 102 -36
121 -9 8 -12 15 -8 15 3 0 1 7 -6 15 -7 8 -9 15 -5 15 5 0 0 9 -10 20 -10 11
-13 20 -7 20 23 0 12 29 -21 57 -26 22 -32 33 -28 51 3 13 11 22 16 20 6 -2
11 15 12 37 1 33 0 36 -7 15 -5 -17 -8 -19 -9 -7 -1 9 -9 17 -18 18 -11 0 -13
3 -6 6 20 8 16 35 -4 30 -10 -3 -31 -8 -46 -11 -16 -4 -38 -15 -49 -25 -10
-10 -33 -22 -50 -25 -17 -3 -28 -9 -25 -12 3 -4 19 -2 35 4 20 7 33 6 45 -3
20 -14 22 -26 5 -22 -8 1 -14 -10 -16 -26 -4 -31 -29 -47 -42 -27 -12 20 -40
-5 -40 -35 0 -18 -4 -22 -21 -18 -16 4 -19 11 -15 29 7 26 -3 31 -22 12 -9 -9
-12 -8 -12 5 0 22 -26 22 -38 1 -6 -11 -11 -13 -16 -5 -4 6 -11 11 -17 11 -14
0 -11 -43 6 -67 8 -12 18 -43 21 -70 4 -26 12 -54 18 -62 13 -17 10 -205 -4
-232 -8 -13 -21 -19 -47 -19 -34 0 -35 1 -28 28 9 36 9 77 1 132 -6 33 -5 41
3 30 8 -11 11 -11 11 -2 0 7 -7 15 -15 18 -8 4 -15 17 -15 29 0 13 -6 30 -13
37 -6 7 -12 33 -12 58 0 25 -6 57 -12 72 -12 24 -11 29 9 42 12 9 17 16 11 16
-7 0 -10 7 -6 16 5 14 1 15 -28 8 -19 -4 -45 -8 -59 -7 -190 8 -357 0 -374
-18 -8 -9 -7 -10 6 -6 11 4 23 -1 30 -11 8 -11 24 -17 41 -16 24 3 27 -1 28
-29 1 -18 1 -36 0 -41 -1 -4 2 -13 7 -20 8 -10 24 -58 26 -79 1 -4 6 -11 12
-15 6 -4 12 -22 13 -39 4 -76 6 -83 22 -83 23 0 32 -41 13 -61 -19 -21 -44
-14 -44 12 0 24 -51 131 -69 145 -9 7 -12 22 -9 42 2 18 2 32 -1 32 -4 0 -12
10 -20 22 -11 18 -11 22 3 30 9 5 15 21 15 36 -1 17 -3 20 -6 10 -10 -40 -43
-13 -43 35 0 12 -4 18 -8 12 -12 -17 -42 -17 -42 0 0 8 -7 15 -15 15 -13 0
-13 -3 -3 -21 10 -17 10 -23 0 -26 -9 -3 -12 -45 -12 -159 0 -134 2 -158 20
-189 11 -19 17 -42 14 -50 -4 -9 -1 -15 8 -15 15 0 17 -33 4 -62 -9 -20 -33
-14 -40 10 -2 10 -3 -37 -2 -103 1 -83 7 -134 18 -165 9 -25 22 -65 29 -90 6
-25 16 -55 21 -67 6 -12 8 -29 5 -37 -3 -8 -2 -18 4 -21 5 -4 7 -11 4 -16 -8
-11 -51 39 -56 65 -2 11 -10 21 -16 24 -10 3 -13 -17 -13 -77 l0 -81 520 0
520 0 0 54 c0 30 5 58 10 61 6 3 10 20 10 37 0 31 22 57 49 58 9 0 11 -6 6
-18 -11 -24 -36 -110 -45 -154 l-7 -38 43 0 c32 0 44 4 47 18 4 16 5 16 6 0 1
-17 103 -18 1921 -18 l1920 0 0 950 c0 679 -3 950 -11 950 -17 0 -327 48 -524
82 -99 16 -223 35 -275 40 -52 5 -108 16 -125 24 -16 7 -61 16 -100 19 -95 7
-201 21 -255 34 -25 6 -62 11 -82 11 -20 0 -39 4 -42 8 -2 4 10 41 29 82 28
65 70 205 70 235 0 6 6 17 14 25 13 13 12 15 -2 18 -15 3 -16 11 -11 55 8 66
18 78 12 14 -3 -26 -2 -49 2 -52 10 -6 20 30 20 75 0 26 3 31 10 20 5 -8 10
-10 10 -4 0 6 -7 17 -16 25 -8 7 -13 21 -11 31 3 10 1 21 -4 24 -18 11 -9 44
14 48 45 10 193 29 217 28 69 -2 172 -12 182 -18 20 -12 222 -22 236 -11 7 5
31 7 54 4 26 -3 55 0 76 9 19 8 43 14 53 14 11 0 19 5 19 10 0 6 -4 10 -10 10
-5 0 -10 7 -10 15 0 17 40 21 56 5 6 -6 31 -7 69 -1 37 5 48 9 28 10 -18 0
-55 6 -83 12 -37 8 -54 8 -65 -1 -10 -8 -28 -7 -73 5 -68 17 -116 20 -107 5 3
-5 22 -12 43 -16 49 -8 102 -26 102 -35 0 -9 -56 -21 -118 -23 -39 -2 -55 2
-62 13 -7 12 -9 12 -10 2 0 -10 -9 -12 -32 -7 -18 4 -51 6 -73 6 -22 0 -60 6
-84 15 -24 8 -47 12 -52 9 -17 -10 -104 -12 -115 -3 -16 13 -55 13 -89 0 -16
-7 -62 -14 -102 -16 -62 -3 -75 0 -83 15 -12 22 -4 30 29 30 14 0 33 5 41 11
11 7 3 9 -32 7 -42 -3 -50 0 -92 40 -46 43 -51 61 -18 63 12 0 10 3 -6 10 -17
6 -22 15 -20 31 2 19 10 24 48 27 l45 4 -45 11 c-43 11 -45 14 -45 48 -1 27 3
34 13 30 11 -4 11 1 -2 20 -16 24 -16 27 0 42 15 16 15 18 -2 31 -18 13 -18
14 7 20 22 5 25 11 21 33 -3 15 -9 32 -14 39 -6 7 -3 15 9 22 16 9 16 12 3 21
-12 8 -12 10 -1 10 10 0 11 3 2 14 -9 11 -9 16 1 23 7 4 13 22 13 38 0 34 -18
31 155 22 36 -2 41 -2 13 0 -29 2 -53 9 -53 15 0 11 39 9 250 -14 113 -12 120
-13 70 -18 -66 -6 -44 -20 31 -20 27 0 49 -3 49 -7 0 -5 37 -8 83 -8 45 0 132
-8 192 -18 61 -9 143 -22 183 -29 54 -8 69 -14 58 -20 -9 -5 -24 -7 -34 -4 -9
3 -24 1 -32 -4 -12 -8 -10 -10 10 -10 14 0 36 -7 48 -16 15 -10 33 -14 50 -10
21 5 23 4 12 -4 -16 -11 -18 -11 150 -10 71 0 73 -1 45 -14 l-30 -13 40 -11
c53 -15 65 -15 65 2 0 8 -10 17 -22 19 l-23 4 23 2 c12 0 22 5 22 10 0 9 -37
18 -165 40 -60 10 -60 10 22 5 46 -2 96 -7 113 -10 l30 -6 0 59 0 59 -99 12
c-54 7 -168 19 -252 27 -170 16 -277 29 -669 81 -343 44 -330 42 -330 61 0 8
6 13 13 10 6 -2 21 -1 32 3 16 6 12 8 -19 14 -28 5 -36 11 -32 22 3 9 6 31 6
51 l0 35 60 -4 c71 -4 66 7 -10 19 -45 7 -55 12 -56 28 -2 37 -16 62 -40 75
-13 7 -29 26 -36 42 -7 15 -16 28 -19 28 -10 0 -32 58 -26 67 3 5 -6 10 -20
11 -29 2 -43 10 -43 22 0 5 7 6 17 3 11 -4 14 -3 9 6 -4 6 -16 9 -26 6 -12 -4
-25 3 -38 20 -11 14 -24 25 -30 25 -5 0 -15 7 -22 15 -10 12 -9 15 5 15 26 0
12 10 -21 16 -16 2 -36 12 -44 22 -8 9 -28 24 -44 32 -67 35 -66 33 -66 82 0
28 5 48 13 51 7 4 6 6 -4 6 -14 1 -29 20 -29 37 0 2 23 4 52 4 63 0 60 6 -7
13 -27 3 -51 6 -52 6 -8 2 -1 41 7 41 6 0 10 5 10 10 0 6 -9 10 -19 10 -20 0
-62 44 -60 64 0 7 3 6 6 -1 2 -7 14 -13 26 -13 20 1 20 2 4 11 -9 6 -26 12
-37 14 -24 5 -82 36 -92 50 -14 19 -8 24 25 20 17 -2 55 -6 83 -10 29 -4 54
-2 58 3 3 5 -24 12 -62 15 -118 10 -198 71 -143 109 13 9 17 18 11 28 -5 9 -2
22 11 39 21 26 13 41 -23 41 -23 0 -23 16 0 40 15 17 34 20 128 22 60 2 135
-1 168 -5 36 -6 56 -5 52 1 -6 9 -114 22 -216 26 -68 2 -150 26 -150 44 0 20
337 8 520 -19 80 -11 192 -23 250 -25 58 -3 125 -6 150 -8 25 -2 113 -9 196
-15 84 -6 164 -15 179 -21 15 -6 64 -10 109 -9 111 2 366 -19 451 -36 92 -20
185 -20 185 -1 0 10 -27 15 -112 20 -62 4 -149 13 -193 21 -44 7 -169 16 -278
19 -109 3 -202 8 -205 10 -16 9 -229 26 -392 31 -168 5 -359 24 -465 46 -27 5
-111 12 -185 15 -74 3 -151 11 -170 18 -19 7 -42 11 -50 8 -12 -3 -12 -2 -3 8
22 23 240 12 578 -29 94 -12 193 -21 220 -20 62 2 206 -7 395 -26 80 -7 222
-17 315 -20 94 -4 215 -15 270 -25 90 -17 192 -25 253 -21 12 0 22 8 22 16 0
12 -16 15 -88 15 -49 0 -128 9 -178 19 -63 14 -151 21 -294 25 -113 4 -257 11
-320 16 -63 6 -225 16 -360 25 -135 8 -285 22 -335 32 -75 15 -146 18 -420 18
l-330 0 -3 -23 c-3 -22 -4 -23 -17 -5 -13 16 -14 15 -15 -20 0 -27 -5 -39 -17
-43 -10 -3 -31 -12 -46 -20 -39 -19 -103 -29 -111 -16 -3 6 -2 13 4 17 5 3 10
17 10 31 0 24 14 32 25 14 3 -5 17 -10 31 -10 13 0 24 -4 24 -9 0 -5 11 -4 25
2 36 17 25 31 -28 39 -56 8 -70 16 -63 34 10 26 -33 15 -66 -16 -22 -22 -41
-30 -66 -30 -34 0 -35 -1 -16 -15 10 -8 31 -15 46 -15 33 0 58 -9 58 -21 0 -5
-7 -9 -15 -9 -9 0 -29 -9 -44 -21 -19 -14 -36 -19 -50 -14 -26 8 -27 22 -3 28
16 4 16 5 -1 6 -22 1 -43 -47 -27 -63 7 -7 10 -6 10 2 0 7 16 12 40 12 22 0
40 -4 40 -9 0 -5 16 -5 37 0 33 7 42 5 68 -19 16 -15 33 -32 37 -38 4 -6 18
-9 31 -7 25 5 43 -19 31 -39 -3 -5 3 -12 14 -15 32 -8 35 -32 6 -43 -33 -13
-94 -13 -94 0 0 6 -10 10 -22 10 -19 0 -20 -2 -8 -11 11 -8 6 -9 -20 -5 -19 4
-39 11 -45 17 -7 8 -4 9 13 4 15 -4 24 -2 28 9 3 9 14 16 23 16 28 0 32 11 13
42 -18 31 -51 44 -79 34 -14 -6 -15 -9 -3 -16 11 -7 11 -11 1 -24 -19 -22 -31
-20 -32 7 -1 20 -2 19 -13 -7 -12 -27 -14 -28 -24 -10 -10 17 -12 16 -17 -12
-5 -23 -16 -35 -43 -47 -57 -24 -84 -30 -130 -31 -34 -1 -42 2 -42 17 0 10 7
20 15 23 17 7 21 44 4 44 -6 0 -13 -9 -16 -20 -3 -11 -11 -20 -18 -20 -10 0
-11 7 -6 28 5 16 4 74 -1 130 -9 88 -8 106 6 127 9 13 16 27 16 30 0 3 -32 5
-71 5 l-71 0 7 -79 c7 -78 6 -79 -17 -84 l-23 -4 23 -8 c20 -7 22 -14 22 -76
0 -51 4 -69 13 -69 8 0 14 -7 14 -15 0 -8 -4 -12 -8 -9 -4 2 -10 -5 -14 -16
-3 -11 -15 -20 -26 -20 -10 0 -19 -7 -19 -15 0 -10 10 -15 30 -15 17 0 30 -4
30 -10 0 -5 -12 -10 -26 -10 -14 0 -23 -4 -20 -9 3 -5 -13 -11 -37 -14 -58 -7
-193 -45 -236 -67 -20 -10 -53 -34 -74 -54 -21 -19 -55 -43 -75 -53 -20 -9
-69 -49 -107 -88 -39 -38 -92 -83 -118 -98 l-48 -28 5 28 c3 15 1 43 -4 63 -5
19 -12 112 -15 205 -3 94 -8 226 -11 295 -4 69 -6 153 -5 188 2 49 -1 62 -13
62 -12 0 -14 -32 -11 -224z m1455 130 c0 -8 -3 -22 -6 -30 -5 -13 -9 -14 -20
-5 -10 8 -14 8 -14 0 0 -6 -7 -11 -15 -11 -23 0 -18 16 13 39 32 24 42 26 42
7z m-75 -66 c3 -5 2 -10 -4 -10 -5 0 -13 5 -16 10 -3 6 -2 10 4 10 5 0 13 -4
16 -10z m65 -54 c0 -9 -11 -13 -32 -12 -40 2 -49 23 -11 28 34 4 43 1 43 -16z
m287 -22 c-3 -3 -12 -4 -19 -1 -8 3 -5 6 6 6 11 1 17 -2 13 -5z m-314 -24 c-3
-11 -9 -17 -15 -14 -5 3 -4 12 3 20 16 19 18 18 12 -6z m-233 -80 c0 -5 10
-10 23 -11 15 -1 11 -4 -13 -10 -19 -4 -44 -6 -54 -2 -14 4 -18 1 -13 -10 4
-12 -4 -16 -38 -19 -25 -2 -51 2 -60 8 -17 12 -21 29 -5 19 6 -4 43 -1 82 7
60 11 67 14 42 19 l-29 7 33 1 c17 0 32 -3 32 -9z m-310 -90 c22 -7 21 -8 -12
-9 -21 -1 -38 4 -38 9 0 11 14 11 50 0z m-72 -32 c-3 -7 -20 -14 -39 -14 -26
-1 -28 -1 -6 3 15 2 27 9 27 14 0 5 5 9 11 9 6 0 9 -6 7 -12z m42 -2 c0 -3 -4
-8 -10 -11 -5 -3 -10 -1 -10 4 0 6 5 11 10 11 6 0 10 -2 10 -4z m-54 -81 c-8
-8 -27 -15 -43 -15 -27 1 -27 1 -9 15 11 8 31 15 44 15 21 0 22 -2 8 -15z
m-97 -79 c-2 -2 -20 -6 -39 -10 -25 -4 -31 -3 -20 4 14 9 69 15 59 6z m1231
-16 c0 -5 -2 -10 -4 -10 -3 0 -8 5 -11 10 -3 6 -1 10 4 10 6 0 11 -4 11 -10z
m20 -50 c0 -5 -2 -10 -4 -10 -3 0 -8 5 -11 10 -3 6 -1 10 4 10 6 0 11 -4 11
-10z m-1282 -57 c-10 -2 -18 -11 -18 -19 0 -11 6 -13 19 -9 11 3 22 1 26 -5 4
-6 -7 -10 -27 -11 -18 0 -45 -2 -59 -3 -19 -1 -25 2 -21 12 4 11 -1 13 -19 7
-19 -6 -21 -5 -12 5 13 14 66 28 103 28 16 0 19 -2 8 -5z m-133 -53 c-11 -5
-31 -9 -45 -9 -19 -1 -22 -3 -11 -10 8 -5 38 -8 65 -5 l51 4 -40 -14 c-47 -17
-115 -20 -115 -6 0 24 41 50 78 49 30 0 33 -2 17 -9z m1755 -250 c0 -5 -2 -10
-4 -10 -3 0 -8 5 -11 10 -3 6 -1 10 4 10 6 0 11 -4 11 -10z m-490 -195 c0 -8
-4 -15 -10 -15 -5 0 -10 7 -10 15 0 8 5 15 10 15 6 0 10 -7 10 -15z m1730
-455 c12 -8 11 -10 -7 -10 -13 0 -23 5 -23 10 0 13 11 13 30 0z m-3525 -200
c3 -5 1 -10 -4 -10 -6 0 -11 5 -11 10 0 6 2 10 4 10 3 0 8 -4 11 -10z m10
-182 c-7 -33 -25 -62 -25 -41 0 15 21 73 27 73 2 0 2 -15 -2 -32z m2403 -196
c4 -24 17 -29 29 -9 9 14 20 -28 22 -83 0 -24 -2 -30 -8 -21 -6 10 -14 -4 -25
-45 -10 -33 -18 -63 -20 -69 -7 -25 -25 38 -31 110 -4 44 -8 82 -11 86 -6 11
20 59 31 56 6 -2 11 -13 13 -25z m-913 -33 c9 -38 6 -41 -33 -33 -36 7 -44 36
-14 53 29 17 40 12 47 -20z m854 -87 c1 -18 10 -69 22 -114 15 -59 19 -89 12
-112 -10 -37 -42 -48 -50 -17 -3 12 -14 22 -24 22 -11 1 -25 2 -31 3 -8 1 -14
20 -15 51 -1 28 -3 59 -4 70 -5 40 1 96 9 91 5 -3 7 7 4 22 -3 20 4 35 24 56
l28 28 12 -34 c7 -18 13 -48 13 -66z m-395 72 c9 -3 16 -10 16 -14 0 -10 -49
0 -56 11 -6 10 17 12 40 3z m-639 -44 c11 -12 21 -16 25 -10 9 14 223 22 278
9 26 -5 50 -15 54 -22 6 -9 8 -9 8 1 0 20 49 -20 50 -40 0 -20 35 -25 46 -7 3
6 15 8 26 6 13 -4 22 1 29 17 14 31 58 47 114 42 26 -3 50 -7 53 -11 3 -3 6
-38 6 -78 1 -57 -2 -71 -13 -69 -17 4 -31 -16 -24 -35 3 -8 13 -11 24 -8 24 8
34 -16 19 -44 -9 -17 -8 -21 5 -21 17 0 19 -22 15 -200 -2 -107 -6 -131 -28
-170 -32 -56 -33 -60 -16 -85 9 -14 12 -25 6 -25 -5 0 -12 -9 -15 -20 -3 -13
-10 -18 -21 -14 -12 5 -16 -1 -16 -24 0 -35 -34 -51 -49 -24 -11 19 -9 20 -50
-32 -30 -37 -31 -38 -31 -13 0 13 -7 27 -15 31 -8 3 -15 1 -15 -5 0 -6 -6 -9
-14 -6 -7 3 -19 0 -25 -6 -8 -8 -11 -6 -11 7 0 14 -6 16 -27 12 -30 -6 -51 15
-110 111 l-27 42 -35 -15 c-42 -18 -91 -5 -133 34 -31 28 -34 43 -16 75 16 30
12 113 -7 140 -13 19 -36 82 -40 112 -1 6 6 17 16 25 13 12 18 37 21 111 5
101 1 116 -40 138 -12 7 -22 17 -21 24 3 27 -2 37 -21 37 -20 0 -26 11 -13 23
10 11 19 8 38 -13z m1005 -380 c0 -5 -5 -10 -11 -10 -5 0 -7 5 -4 10 3 6 8 10
11 10 2 0 4 -4 4 -10z m-58 -57 c-2 -17 2 -34 8 -38 5 -3 8 -11 5 -16 -9 -14
-33 14 -35 42 -4 40 -1 51 13 46 7 -2 11 -16 9 -34z m-932 -13 c0 -5 -7 -10
-16 -10 -8 0 -12 5 -9 10 3 6 10 10 16 10 5 0 9 -4 9 -10z m-5 -40 c-3 -5 -13
-10 -21 -10 -8 0 -12 5 -9 10 3 6 13 10 21 10 8 0 12 -4 9 -10z m915 -10 c0
-5 -5 -10 -11 -10 -5 0 -7 5 -4 10 3 6 8 10 11 10 2 0 4 -4 4 -10z m-2180 -60
c0 -5 -8 -10 -17 -10 -15 0 -16 2 -3 10 19 12 20 12 20 0z m7 -67 c-3 -10 -5
-4 -5 12 0 17 2 24 5 18 2 -7 2 -21 0 -30z m2296 -67 c33 0 62 -6 64 -11 2 -6
-8 -22 -22 -37 -29 -31 -31 -38 -10 -38 8 0 15 7 15 16 0 14 8 16 48 11 60 -7
86 6 57 29 -17 13 -18 16 -5 24 23 15 37 12 43 -10 3 -13 14 -20 30 -20 14 0
27 -4 29 -9 2 -5 32 -12 68 -15 44 -3 55 -2 35 3 -29 8 -28 9 13 10 23 0 42 6
42 11 0 13 37 13 45 0 4 -6 1 -17 -5 -25 -9 -11 -9 -15 -1 -15 6 0 13 0 16 0
3 0 5 3 4 6 -2 13 27 24 64 24 20 0 37 -4 37 -10 0 -5 -13 -7 -29 -4 -37 8
-51 -13 -14 -22 54 -12 77 -20 80 -31 7 -19 -23 -21 -93 -6 -38 8 -118 21
-179 29 -60 8 -127 17 -149 21 -73 11 -29 -14 49 -28 45 -8 71 -17 66 -22 -9
-9 -25 -7 -175 25 -52 10 -59 10 -68 -5 -12 -22 -63 -22 -103 -1 -16 9 -54 18
-83 21 -46 5 -53 9 -49 24 3 11 1 19 -4 19 -5 0 -9 8 -8 18 0 10 3 12 6 5 7
-19 23 -16 24 5 1 16 2 16 6 0 2 -10 8 -18 11 -18 4 0 23 -4 42 -9 22 -5 46
-4 60 2 23 9 21 11 -23 18 -56 9 -68 16 -47 29 8 5 22 4 34 -2 10 -6 46 -11
79 -12z m-343 4 c0 -5 -7 -10 -16 -10 -8 0 -12 5 -9 10 3 6 10 10 16 10 5 0 9
-4 9 -10z m-805 -30 c3 -5 1 -10 -4 -10 -6 0 -11 5 -11 10 0 6 2 10 4 10 3 0
8 -4 11 -10z m348 -4 c4 -10 -1 -12 -16 -9 -17 4 -19 3 -7 -6 8 -5 11 -13 8
-16 -4 -4 -13 -1 -21 6 -10 10 -11 17 -3 26 15 16 33 16 39 -1z m-36 -61 c8
-9 13 -18 11 -21 -3 -2 -13 5 -23 16 -21 23 -11 27 12 5z m-398 -77 c1 -5 -6
-8 -14 -8 -9 0 -18 -7 -21 -15 -4 -8 -10 -15 -16 -15 -5 0 -7 4 -3 9 3 6 -4
15 -15 21 -18 9 -19 14 -9 26 7 9 21 13 31 11 10 -3 21 0 25 6 6 10 20 -13 22
-35z m-167 10 c-7 -7 -12 -8 -12 -2 0 6 3 14 7 17 3 4 9 5 12 2 2 -3 -1 -11
-7 -17z m-741 -298 c5 0 9 -7 9 -15 0 -9 7 -18 15 -21 8 -4 15 -15 15 -25 0
-11 6 -22 14 -25 8 -3 20 -19 26 -35 7 -16 16 -29 20 -29 4 0 11 -11 14 -24 3
-14 20 -40 36 -58 17 -18 30 -35 30 -39 0 -12 38 -49 51 -49 9 0 10 -3 3 -8
-8 -5 -8 -15 1 -35 6 -15 14 -24 18 -21 4 4 7 2 7 -4 0 -7 7 -12 15 -12 8 0
15 -4 15 -10 0 -5 6 -10 13 -10 7 0 18 -14 24 -31 7 -17 21 -33 32 -36 12 -3
21 -10 21 -17 1 -15 46 -66 60 -66 6 0 9 -4 6 -9 -3 -4 3 -16 14 -26 14 -13
28 -16 55 -11 39 8 48 -6 15 -24 -30 -16 -24 -26 19 -38 32 -8 41 -7 45 5 4
10 14 13 30 9 14 -3 28 -2 31 4 10 16 38 12 31 -5 -4 -10 1 -15 14 -15 27 0
25 -29 -2 -40 -13 -5 -18 -9 -11 -9 21 -2 43 11 43 25 0 8 5 14 10 14 6 0 10
-7 10 -15 0 -8 5 -15 10 -15 6 0 10 5 10 12 0 6 2 9 5 6 10 -10 -8 -68 -21
-68 -21 0 -17 -17 6 -23 12 -3 24 1 31 11 9 15 10 15 5 -1 -5 -15 -1 -18 22
-15 20 2 30 11 38 33 11 32 44 47 44 21 0 -8 -4 -18 -10 -21 -21 -13 -9 -33
29 -49 22 -8 44 -22 48 -31 6 -10 16 -13 26 -9 21 8 22 20 1 32 -14 8 -13 12
10 35 15 15 36 27 46 27 11 0 25 9 32 20 7 11 18 20 25 20 7 0 20 8 30 18 18
18 68 23 90 9 8 -5 10 6 7 33 -3 32 0 42 17 51 20 10 21 9 17 -25 -4 -33 -2
-36 21 -36 13 0 33 -7 43 -17 14 -13 18 -13 18 -2 0 8 -10 19 -22 24 -28 12
-32 34 -12 60 13 17 16 18 25 5 8 -11 9 -7 6 17 -2 18 -1 31 1 28 3 -3 12 1
20 8 13 10 15 8 9 -19 -6 -29 -4 -32 23 -36 25 -4 28 -1 27 21 -1 14 -9 31
-17 38 -13 10 -10 14 19 26 21 9 29 17 22 22 -9 5 -7 11 6 20 11 9 22 10 29 4
8 -7 18 2 31 28 40 81 73 115 73 77 0 -10 6 -14 14 -11 19 7 28 -19 16 -43 -6
-11 -15 -29 -20 -40 -9 -17 -7 -20 11 -20 11 0 18 4 14 9 -3 5 -1 12 5 16 5 3
10 -3 10 -15 0 -11 -7 -23 -15 -26 -8 -4 -15 -16 -15 -28 0 -12 -6 -28 -12
-35 -10 -11 -10 -13 0 -7 14 8 18 -39 3 -48 -5 -3 -11 -21 -13 -40 -2 -19 -1
-33 3 -30 12 7 16 -38 6 -68 -5 -16 -13 -28 -18 -28 -5 0 -9 -5 -9 -11 0 -28
-110 -155 -191 -220 -100 -81 -331 -197 -440 -220 -71 -15 -211 -6 -276 19
-28 11 -126 71 -218 133 -149 101 -206 148 -273 226 -10 13 -23 19 -27 15 -5
-4 -5 1 -2 11 5 12 1 17 -14 17 -15 0 -18 4 -11 18 6 11 4 26 -5 42 -13 24
-14 24 -7 -11 3 -22 2 -39 -5 -43 -16 -10 -13 -24 10 -47 l22 -22 -29 7 c-42
11 -57 25 -43 42 14 18 -11 20 -28 3 -8 -8 -16 -8 -30 0 -10 6 -13 11 -6 11
17 0 9 31 -13 47 -16 12 -17 15 -4 23 13 9 13 10 0 10 -11 0 -21 23 -33 78
-10 42 -18 86 -17 97 0 11 -2 63 -4 115 -1 52 -1 67 1 33 7 -115 18 -65 20 90
1 83 4 171 7 195 3 23 2 42 -3 42 -5 0 -5 14 -1 33 5 17 12 43 15 57 6 25 6
25 -11 5 -17 -21 -15 -10 8 37 l13 27 8 -39 c5 -22 12 -40 18 -40z m-80 -117
l-4 -48 -8 35 c-9 36 -5 60 8 60 5 0 6 -21 4 -47z m-26 -159 c6 -266 29 -406
89 -546 22 -52 20 -68 -6 -67 -17 0 -19 2 -8 7 14 6 14 9 -2 24 -16 16 -17 16
-21 0 -3 -10 -5 -5 -6 11 0 15 4 27 9 27 6 0 10 5 10 11 0 5 -4 7 -10 4 -5 -3
-10 3 -10 15 0 12 -4 18 -10 15 -5 -3 -10 -3 -11 2 -1 4 -3 24 -6 43 -3 19 -5
51 -5 70 1 19 -4 40 -10 47 -10 12 -20 164 -22 316 -1 44 -4 56 -15 52 -10 -4
-12 1 -8 17 4 12 2 27 -3 34 -6 6 -7 26 -4 43 4 20 10 28 14 20 5 -8 10 -5 15
10 4 13 9 20 11 18 3 -2 7 -80 9 -173z m1205 40 c0 -8 -4 -12 -10 -9 -5 3 -10
10 -10 16 0 5 5 9 10 9 6 0 10 -7 10 -16z m-13 -46 c-3 -8 -6 -5 -6 6 -1 11 2
17 5 13 3 -3 4 -12 1 -19z m476 -49 c-4 -13 -9 -17 -15 -11 -11 11 -3 32 12
32 4 0 6 -9 3 -21z m-1256 -31 c-3 -7 -5 -2 -5 12 0 14 2 19 5 13 2 -7 2 -19
0 -25z m-1505 -55 c-4 -34 -6 -35 -18 -18 -17 23 -18 42 -1 48 22 9 23 7 19
-30z m198 17 c0 -5 -2 -10 -4 -10 -3 0 -8 5 -11 10 -3 6 -1 10 4 10 6 0 11 -4
11 -10z m1840 0 c0 -5 -5 -10 -11 -10 -5 0 -7 5 -4 10 3 6 8 10 11 10 2 0 4
-4 4 -10z m-1942 -23 c7 0 10 -7 7 -14 -3 -8 -5 -20 -5 -27 0 -21 -52 -10 -70
15 -24 31 -15 43 24 34 17 -4 37 -7 44 -8z m526 -43 c11 -4 16 -19 16 -44 0
-42 17 -100 34 -115 27 -25 37 -54 24 -75 -11 -17 -10 -22 1 -29 15 -10 24
-71 10 -71 -5 0 -6 -7 -3 -15 5 -11 -1 -15 -20 -15 -23 0 -25 3 -17 17 7 13 5
23 -5 34 -9 10 -17 38 -18 63 -2 25 -9 53 -16 61 -7 8 -9 15 -5 15 4 0 -4 16
-19 35 -22 29 -25 41 -20 77 10 71 10 73 38 62z m-524 -34 c0 -5 9 -19 19 -29
11 -11 24 -45 31 -78 6 -32 18 -70 26 -85 l15 -28 -35 0 c-34 0 -35 2 -32 30
2 17 -1 33 -5 36 -5 3 -7 9 -4 14 3 5 1 11 -5 15 -5 3 -10 19 -10 35 0 16 -5
32 -11 35 -6 4 -8 13 -5 21 3 8 1 14 -4 14 -6 0 -10 7 -10 15 0 8 7 15 15 15
8 0 15 -4 15 -10z m1620 -76 c0 -8 -5 -12 -10 -9 -6 4 -8 11 -5 16 9 14 15 11
15 -7z m70 -14 c11 -7 6 -10 -20 -10 -26 0 -31 3 -20 10 8 5 17 10 20 10 3 0
12 -5 20 -10z m-1080 -15 c0 -9 -6 -12 -15 -9 -8 4 -15 10 -15 15 0 5 7 9 15
9 8 0 15 -7 15 -15z m1120 7 c0 -5 -11 -15 -25 -22 -18 -10 -22 -16 -13 -22 8
-4 8 -8 2 -8 -23 0 -24 15 -2 36 24 24 38 30 38 16z m203 -132 c-3 -11 -10
-23 -16 -27 -5 -3 -8 -2 -5 3 3 5 8 17 11 27 9 24 16 22 10 -3z m-1782 -80
c10 0 19 -4 19 -10 0 -15 -36 -12 -49 3 -6 8 -8 17 -4 21 4 4 9 2 11 -3 2 -6
12 -11 23 -11z m-213 -11 c7 -11 10 -29 7 -40 -4 -13 -2 -19 9 -19 9 0 16 -4
16 -10 0 -5 -13 -10 -28 -10 -22 0 -31 7 -43 33 -24 52 10 92 39 46z m1192
-105 c0 -8 -4 -14 -10 -14 -5 0 -10 -8 -10 -17 0 -15 -2 -16 -10 -3 -5 8 -10
11 -10 7 0 -5 -5 -5 -10 -2 -8 5 -7 11 1 21 6 7 15 11 20 8 5 -3 9 2 9 11 0 9
5 13 10 10 6 -3 10 -13 10 -21z m-1172 -22 c4 -24 -7 -29 -26 -10 -18 18 -15
40 6 36 9 -2 18 -13 20 -26z m-215 -73 l-9 -23 -23 23 c-12 12 -20 29 -17 37
3 8 1 14 -4 14 -6 0 -10 5 -10 11 0 6 9 8 20 4 13 -4 20 -2 21 7 0 7 7 -1 16
-19 12 -24 14 -38 6 -54z m1412 62 c3 -5 1 -12 -4 -15 -5 -3 -11 1 -15 9 -6
16 9 21 19 6z m-1176 -52 c-7 -4 -16 -5 -19 -2 -3 3 1 8 8 10 6 3 13 12 13 21
1 14 2 13 6 -2 3 -10 -1 -22 -8 -27z m21 -45 c0 -8 -4 -14 -10 -14 -5 0 -10 9
-10 21 0 11 5 17 10 14 6 -3 10 -13 10 -21z m-222 -56 c-6 -18 -28 -21 -28 -4
0 9 7 16 16 16 9 0 14 -5 12 -12z m592 -208 c0 -5 -5 -10 -11 -10 -5 0 -7 5
-4 10 3 6 8 10 11 10 2 0 4 -4 4 -10z m1160 -130 c0 -5 -4 -10 -10 -10 -5 0
-10 5 -10 10 0 6 5 10 10 10 6 0 10 -4 10 -10z"/>
<path d="M2621 2592 c-18 -6 -13 -22 7 -22 10 0 22 -4 28 -9 5 -4 21 -11 37
-15 20 -5 27 -3 27 9 0 8 1 18 3 23 2 8 -84 20 -102 14z"/>
<path d="M2768 2523 c6 -2 18 -2 25 0 6 3 1 5 -13 5 -14 0 -19 -2 -12 -5z"/>
<path d="M2977 1823 c-4 -3 -7 -13 -7 -21 0 -12 3 -12 15 -2 8 7 15 16 15 21
0 11 -14 12 -23 2z"/>
<path d="M3560 1850 c0 -5 10 -10 23 -10 18 0 19 2 7 10 -19 13 -30 13 -30 0z"/>
<path d="M4145 1830 c3 -5 8 -10 11 -10 2 0 4 5 4 10 0 6 -5 10 -11 10 -5 0
-7 -4 -4 -10z"/>
<path d="M1406 876 c3 -38 9 -77 15 -85 11 -18 3 58 -12 119 -6 26 -7 17 -3
-34z"/>
<path d="M2770 850 c0 -5 5 -10 10 -10 6 0 10 5 10 10 0 6 -4 10 -10 10 -5 0
-10 -4 -10 -10z"/>
<path d="M2051 771 c-10 -6 -10 -10 -1 -16 6 -4 14 -4 17 -1 3 3 12 1 20 -6
10 -8 17 -8 25 0 24 24 -27 44 -61 23z"/>
<path d="M3505 4989 c22 -4 94 -11 160 -14 228 -10 310 -15 420 -25 98 -8 296
-21 531 -34 44 -3 100 -9 125 -15 24 -5 92 -13 152 -17 l107 -7 0 41 c0 49 24
43 -310 67 -245 16 -1262 21 -1185 4z"/>
<path d="M2231 4933 c-9 -10 -24 -13 -42 -9 -16 3 -29 1 -29 -4 0 -15 54 -12
76 4 10 8 17 17 14 19 -3 3 -11 -2 -19 -10z"/>
<path d="M2268 4913 c7 -3 16 -2 19 1 4 3 -2 6 -13 5 -11 0 -14 -3 -6 -6z"/>
<path d="M2145 4863 c-7 -19 11 -33 40 -32 16 1 16 2 -5 9 -14 4 -19 8 -12 9
16 1 15 18 -2 24 -8 3 -17 -1 -21 -10z"/>
<path d="M2240 4829 c0 -5 5 -7 10 -4 6 3 10 8 10 11 0 2 -4 4 -10 4 -5 0 -10
-5 -10 -11z"/>
<path d="M3356 4821 c13 -12 83 -21 89 -12 2 5 -9 11 -26 15 -45 9 -75 8 -63
-3z"/>
<path d="M3837 4804 c-4 -4 -82 -7 -175 -7 -148 1 -158 0 -87 -8 63 -7 311
-15 528 -18 15 0 40 -7 55 -14 32 -17 312 -24 312 -9 0 12 -74 20 -120 12 -19
-3 -73 1 -120 8 -47 7 -123 17 -170 22 -47 4 -114 11 -150 15 -36 4 -68 4 -73
-1z"/>
<path d="M4538 4753 c7 -3 16 -2 19 1 4 3 -2 6 -13 5 -11 0 -14 -3 -6 -6z"/>
<path d="M4608 4743 c17 -2 32 -7 32 -11 0 -4 30 -8 67 -9 51 -1 63 1 49 9
-10 6 -55 12 -100 13 -44 1 -66 1 -48 -2z"/>
<path d="M2267 4724 c-4 -4 -7 -14 -7 -23 0 -11 3 -12 11 -4 6 6 10 16 7 23
-2 6 -7 8 -11 4z"/>
<path d="M4910 4706 c-30 -6 -60 -14 -67 -19 -11 -7 -51 -9 -203 -9 -25 -1
-73 3 -106 7 -34 4 -126 4 -205 0 -121 -6 -148 -10 -168 -26 -31 -25 -19 -37
22 -20 79 33 262 45 377 25 140 -24 440 5 440 43 0 15 -14 15 -90 -1z"/>
<path d="M2196 4684 c-21 -20 -20 -24 5 -24 11 0 17 5 14 10 -3 6 1 10 9 10 9
0 16 5 16 10 0 15 -27 12 -44 -6z"/>
<path d="M2565 4680 c-16 -7 -17 -9 -3 -9 9 -1 20 4 23 9 7 11 7 11 -20 0z"/>
<path d="M1970 4655 c0 -9 6 -12 15 -9 8 4 15 10 15 15 0 5 -7 9 -15 9 -8 0
-15 -7 -15 -15z"/>
<path d="M4913 4610 c-62 -9 -113 -30 -113 -47 0 -20 45 -15 65 7 14 16 31 20
77 20 45 0 58 3 58 15 0 16 -7 17 -87 5z"/>
<path d="M4273 4593 c-57 -4 -74 -23 -21 -23 31 0 133 -24 173 -40 42 -18 229
-49 320 -54 28 -2 61 -8 75 -13 47 -19 155 -53 168 -53 21 0 13 28 -10 35 -13
3 -32 10 -43 14 -42 17 -91 33 -112 38 -13 3 -23 10 -23 15 0 5 -17 6 -37 3
-28 -5 -34 -4 -23 4 25 17 3 24 -34 10 -28 -10 -44 -10 -68 -2 -18 7 -62 13
-98 14 -36 2 -75 9 -87 17 -12 8 -47 15 -78 15 -39 2 -54 6 -50 15 2 6 3 11 2
10 -1 -1 -26 -3 -54 -5z"/>
<path d="M3425 4560 c28 -12 57 -12 50 0 -3 6 -21 10 -38 9 -27 0 -29 -2 -12
-9z"/>
<path d="M3243 4553 c9 -2 23 -2 30 0 6 3 -1 5 -18 5 -16 0 -22 -2 -12 -5z"/>
<path d="M3600 4550 c0 -5 10 -10 23 -10 18 0 19 2 7 10 -19 13 -30 13 -30 0z"/>
<path d="M4880 4535 c0 -10 10 -15 29 -15 17 0 32 -4 35 -9 9 -14 56 -20 56
-7 0 24 -17 33 -67 40 -44 6 -53 4 -53 -9z"/>
<path d="M4115 4520 c-3 -5 -40 -10 -82 -10 -42 0 -74 -3 -70 -6 7 -8 117 -16
172 -14 120 5 265 -6 265 -20 0 -4 15 -10 33 -13 17 -2 64 -12 102 -21 74 -17
218 -22 160 -5 -16 4 -82 17 -145 28 -63 11 -158 31 -210 45 -52 14 -96 26
-98 26 -2 0 0 -6 4 -12 6 -10 4 -10 -7 0 -16 14 -115 16 -124 2z"/>
<path d="M3390 4482 c8 -5 42 -12 75 -16 42 -4 53 -3 38 4 -32 13 -132 24
-113 12z"/>
<path d="M3328 4463 c7 -3 16 -2 19 1 4 3 -2 6 -13 5 -11 0 -14 -3 -6 -6z"/>
<path d="M3660 4460 c-13 -8 -12 -10 3 -10 9 0 17 5 17 10 0 12 -1 12 -20 0z"/>
<path d="M3735 4459 c-17 -8 -16 -9 8 -5 16 2 42 -3 58 -11 16 -8 34 -11 41
-7 9 6 3 11 -17 15 -17 4 -39 10 -50 13 -11 3 -29 1 -40 -5z"/>
<path d="M4010 4443 c-22 -5 -71 -32 -60 -34 16 -3 91 -8 196 -13 74 -3 135
-10 157 -20 20 -8 71 -16 114 -17 43 -2 101 -9 128 -16 32 -9 80 -12 131 -8
74 4 232 -7 297 -21 24 -6 27 -4 27 20 0 16 -6 26 -14 26 -8 0 -22 3 -32 7
-12 4 -15 3 -10 -5 5 -8 0 -12 -13 -12 -12 0 -21 6 -21 14 0 14 -9 15 -160 13
-135 -1 -153 -1 -305 7 -82 4 -154 12 -159 17 -6 5 -18 9 -28 9 -10 0 -18 5
-18 10 0 7 -6 7 -20 0 -13 -7 -26 -7 -38 -1 -9 5 -30 7 -45 4 -15 -3 -42 2
-61 11 -19 9 -36 15 -38 15 -1 -1 -14 -4 -28 -6z m67 -19 c-3 -3 -12 -4 -19
-1 -8 3 -5 6 6 6 11 1 17 -2 13 -5z"/>
<path d="M3876 4429 c6 -11 35 -11 51 -1 8 5 -1 8 -22 9 -19 1 -32 -3 -29 -8z"/>
<path d="M4748 4423 c12 -2 30 -2 40 0 9 3 -1 5 -23 4 -22 0 -30 -2 -17 -4z"/>
<path d="M3208 4403 c7 -3 16 -2 19 1 4 3 -2 6 -13 5 -11 0 -14 -3 -6 -6z"/>
<path d="M3265 4401 c-31 -12 72 -22 123 -12 24 5 60 5 80 1 20 -4 105 -11
187 -15 123 -5 148 -4 137 7 -9 9 -51 14 -135 15 -67 2 -178 5 -247 7 -69 2
-134 1 -145 -3z"/>
<path d="M3846 4354 c-4 -9 -5 -18 -3 -20 5 -5 165 -15 314 -19 67 -2 156 -11
198 -20 42 -10 85 -15 96 -12 12 3 32 2 45 -3 13 -5 76 -12 141 -15 65 -3 168
-10 228 -15 139 -12 135 -13 135 4 0 20 -49 26 -280 36 -113 4 -228 13 -256
18 -28 6 -73 11 -100 13 -27 1 -56 6 -64 10 -8 4 -92 9 -185 12 -94 3 -179 8
-190 10 -11 3 -32 8 -46 12 -20 5 -28 2 -33 -11z"/>
<path d="M3380 4340 c-20 -6 -17 -8 17 -6 24 0 43 4 43 9 0 9 -27 8 -60 -3z"/>
<path d="M3530 4320 c14 -4 61 -9 105 -10 44 0 102 -5 128 -9 27 -5 44 -4 39
1 -11 11 -160 28 -237 27 -45 -1 -54 -3 -35 -9z"/>
<path d="M3388 4283 c6 -2 18 -2 25 0 6 3 1 5 -13 5 -14 0 -19 -2 -12 -5z"/>
<path d="M3875 4274 c30 -12 86 -17 224 -20 101 -2 189 -8 195 -11 20 -13 205
-32 396 -42 102 -5 213 -13 248 -16 39 -5 62 -4 62 2 0 12 -87 22 -305 34
-206 11 -348 25 -391 39 -20 7 -74 10 -134 7 -92 -4 -193 2 -295 17 l-40 6 40
-16z"/>
<path d="M4138 4203 c7 -3 16 -2 19 1 4 3 -2 6 -13 5 -11 0 -14 -3 -6 -6z"/>
<path d="M3295 4170 c-17 -6 -16 -7 8 -12 15 -3 27 -2 27 3 0 13 -14 17 -35 9z"/>
<path d="M4413 4173 c15 -2 37 -2 50 0 12 2 0 4 -28 4 -27 0 -38 -2 -22 -4z"/>
<path d="M4198 4163 c12 -2 32 -2 45 0 12 2 2 4 -23 4 -25 0 -35 -2 -22 -4z"/>
<path d="M4518 4163 c6 -2 18 -2 25 0 6 3 1 5 -13 5 -14 0 -19 -2 -12 -5z"/>
<path d="M4675 4160 l-40 -7 43 -2 c23 0 42 4 42 9 0 6 -1 9 -2 9 -2 -1 -21
-5 -43 -9z"/>
<path d="M4588 4153 c6 -2 18 -2 25 0 6 3 1 5 -13 5 -14 0 -19 -2 -12 -5z"/>
<path d="M4735 4154 c6 -2 55 -8 110 -14 55 -5 112 -11 128 -13 15 -2 27 0 27
3 0 9 -166 30 -226 29 -27 0 -44 -2 -39 -5z"/>
<path d="M4623 4113 c15 -2 39 -2 55 0 15 2 2 4 -28 4 -30 0 -43 -2 -27 -4z"/>
<path d="M4310 4100 c8 -5 24 -10 34 -10 26 0 18 6 -19 14 -22 5 -26 4 -15 -4z"/>
<path d="M3400 4086 c0 -9 40 -13 46 -5 3 5 -6 9 -20 9 -14 0 -26 -2 -26 -4z"/>
<path d="M3470 4080 c0 -5 7 -10 15 -10 8 0 15 5 15 10 0 6 -7 10 -15 10 -8 0
-15 -4 -15 -10z"/>
<path d="M3520 4076 c0 -2 13 -6 29 -8 17 -2 28 -1 25 4 -5 8 -54 12 -54 4z"/>
<path d="M4228 4073 c6 -2 18 -2 25 0 6 3 1 5 -13 5 -14 0 -19 -2 -12 -5z"/>
<path d="M4643 4073 c20 -2 54 -2 75 0 20 2 3 4 -38 4 -41 0 -58 -2 -37 -4z"/>
<path d="M4785 4073 c13 -14 123 -24 130 -12 4 5 -18 9 -49 9 -30 0 -63 3 -73
6 -12 5 -15 4 -8 -3z"/>
<path d="M3601 4066 c2 -2 29 -6 59 -9 37 -4 50 -3 40 3 -14 9 -109 15 -99 6z"/>
<path d="M4408 4053 c6 -2 18 -2 25 0 6 3 1 5 -13 5 -14 0 -19 -2 -12 -5z"/>
<path d="M4945 4050 c-16 -7 -12 -9 18 -9 23 -1 36 3 32 9 -7 12 -23 12 -50 0z"/>
<path d="M3980 4020 c25 -8 107 -13 99 -6 -2 2 -31 6 -64 9 -37 3 -51 2 -35
-3z"/>
<path d="M4850 4020 c8 -5 29 -9 45 -9 29 1 29 1 5 9 -14 4 -34 8 -45 9 -16 1
-17 -1 -5 -9z"/>
<path d="M4358 4013 c7 -3 16 -2 19 1 4 3 -2 6 -13 5 -11 0 -14 -3 -6 -6z"/>
<path d="M4465 4005 c46 -10 72 -12 79 -5 7 7 0 10 -21 10 -16 0 -52 2 -79 5
-40 3 -36 2 21 -10z"/>
<path d="M4128 4003 c6 -2 18 -2 25 0 6 3 1 5 -13 5 -14 0 -19 -2 -12 -5z"/>
<path d="M4968 4003 c6 -2 18 -2 25 0 6 3 1 5 -13 5 -14 0 -19 -2 -12 -5z"/>
<path d="M4608 3993 c6 -2 18 -2 25 0 6 3 1 5 -13 5 -14 0 -19 -2 -12 -5z"/>
<path d="M4765 3985 c61 -7 139 -15 175 -18 59 -6 61 -5 20 4 -72 16 -180 28
-245 27 -49 0 -39 -3 50 -13z"/>
<path d="M4678 3953 c6 -2 18 -2 25 0 6 3 1 5 -13 5 -14 0 -19 -2 -12 -5z"/>
<path d="M4488 3923 c7 -3 16 -2 19 1 4 3 -2 6 -13 5 -11 0 -14 -3 -6 -6z"/>
<path d="M4635 3910 c33 -4 112 -13 175 -20 63 -6 132 -14 153 -16 21 -4 37
-2 37 4 0 17 -213 42 -345 41 l-80 -1 60 -8z"/>
<path d="M4058 3893 c7 -3 16 -2 19 1 4 3 -2 6 -13 5 -11 0 -14 -3 -6 -6z"/>
<path d="M4818 3813 c6 -2 18 -2 25 0 6 3 1 5 -13 5 -14 0 -19 -2 -12 -5z"/>
<path d="M1356 3755 c-3 -8 -12 -15 -21 -15 -16 0 -21 -25 -7 -34 8 -5 52 45
52 59 0 11 -18 4 -24 -10z"/>
<path d="M3673 3753 c9 -2 23 -2 30 0 6 3 -1 5 -18 5 -16 0 -22 -2 -12 -5z"/>
<path d="M2940 3730 c0 -5 5 -10 10 -10 6 0 10 5 10 10 0 6 -4 10 -10 10 -5 0
-10 -4 -10 -10z"/>
<path d="M4491 3736 c2 -2 29 -6 59 -9 36 -4 46 -3 30 3 -25 8 -97 13 -89 6z"/>
<path d="M3908 3723 c6 -2 18 -2 25 0 6 3 1 5 -13 5 -14 0 -19 -2 -12 -5z"/>
<path d="M4635 3720 c-3 -5 1 -10 9 -10 9 0 16 5 16 10 0 6 -4 10 -9 10 -6 0
-13 -4 -16 -10z"/>
<path d="M3958 3713 c6 -2 18 -2 25 0 6 3 1 5 -13 5 -14 0 -19 -2 -12 -5z"/>
<path d="M4313 3713 c9 -2 25 -2 35 0 9 3 1 5 -18 5 -19 0 -27 -2 -17 -5z"/>
<path d="M4693 3713 c15 -2 37 -2 50 0 12 2 0 4 -28 4 -27 0 -38 -2 -22 -4z"/>
<path d="M4085 3699 c22 -4 54 -8 70 -7 22 0 19 3 -15 9 -60 10 -108 9 -55 -2z"/>
<path d="M4968 3703 c6 -2 18 -2 25 0 6 3 1 5 -13 5 -14 0 -19 -2 -12 -5z"/>
<path d="M4458 3693 c7 -3 16 -2 19 1 4 3 -2 6 -13 5 -11 0 -14 -3 -6 -6z"/>
<path d="M3945 3670 c11 -5 27 -9 35 -9 13 -1 13 0 0 9 -8 5 -24 9 -35 9 l-20
0 20 -9z"/>
<path d="M4243 3673 c9 -2 25 -2 35 0 9 3 1 5 -18 5 -19 0 -27 -2 -17 -5z"/>
<path d="M4780 3670 c24 -8 228 -14 219 -6 -2 2 -58 6 -124 9 -69 3 -109 2
-95 -3z"/>
<path d="M4123 3643 c9 -2 23 -2 30 0 6 3 -1 5 -18 5 -16 0 -22 -2 -12 -5z"/>
<path d="M4516 3641 c43 -19 491 -40 480 -22 -3 4 -88 11 -188 14 -101 4 -212
9 -248 12 -45 4 -58 3 -44 -4z"/>
<path d="M4298 3623 c7 -3 16 -2 19 1 4 3 -2 6 -13 5 -11 0 -14 -3 -6 -6z"/>
<path d="M4178 3593 c12 -2 32 -2 45 0 12 2 2 4 -23 4 -25 0 -35 -2 -22 -4z"/>
<path d="M4723 3583 c15 -2 39 -2 55 0 15 2 2 4 -28 4 -30 0 -43 -2 -27 -4z"/>
<path d="M4855 3570 c45 -11 145 -11 145 0 0 6 -35 10 -87 9 -62 -1 -79 -4
-58 -9z"/>
<path d="M4488 3563 c7 -3 16 -2 19 1 4 3 -2 6 -13 5 -11 0 -14 -3 -6 -6z"/>
<path d="M4538 3553 c12 -2 30 -2 40 0 9 3 -1 5 -23 4 -22 0 -30 -2 -17 -4z"/>
<path d="M4618 3543 c7 -3 16 -2 19 1 4 3 -2 6 -13 5 -11 0 -14 -3 -6 -6z"/>
<path d="M4658 3543 c6 -2 18 -2 25 0 6 3 1 5 -13 5 -14 0 -19 -2 -12 -5z"/>
<path d="M4008 3533 c7 -3 16 -2 19 1 4 3 -2 6 -13 5 -11 0 -14 -3 -6 -6z"/>
<path d="M4768 3533 c18 -2 45 -2 60 0 15 2 0 4 -33 4 -33 0 -45 -2 -27 -4z"/>
<path d="M4388 3523 c6 -2 18 -2 25 0 6 3 1 5 -13 5 -14 0 -19 -2 -12 -5z"/>
<path d="M4940 3520 c20 -13 60 -13 60 0 0 6 -17 10 -37 10 -28 0 -34 -3 -23
-10z"/>
<path d="M4133 3513 c9 -2 25 -2 35 0 9 3 1 5 -18 5 -19 0 -27 -2 -17 -5z"/>
<path d="M4748 3488 c5 -5 64 -10 132 -13 92 -3 111 -2 70 4 -76 12 -211 18
-202 9z"/>
<path d="M4338 3483 c12 -2 32 -2 45 0 12 2 2 4 -23 4 -25 0 -35 -2 -22 -4z"/>
<path d="M4488 3473 c7 -3 16 -2 19 1 4 3 -2 6 -13 5 -11 0 -14 -3 -6 -6z"/>
<path d="M4548 3463 c6 -2 18 -2 25 0 6 3 1 5 -13 5 -14 0 -19 -2 -12 -5z"/>
<path d="M4640 3460 c0 -5 12 -10 26 -10 14 0 23 4 19 10 -3 6 -15 10 -26 10
-10 0 -19 -4 -19 -10z"/>
<path d="M3045 3452 c-3 -3 -5 -17 -4 -31 0 -26 0 -26 9 -3 5 12 14 22 20 22
5 0 10 4 10 8 0 9 -27 12 -35 4z"/>
<path d="M4800 3439 c25 -4 63 -7 85 -7 l40 1 -45 8 c-25 4 -63 7 -85 7 l-40
-1 45 -8z"/>
<path d="M4978 3423 c7 -3 16 -2 19 1 4 3 -2 6 -13 5 -11 0 -14 -3 -6 -6z"/>
<path d="M3105 3410 c-3 -5 -1 -10 4 -10 6 0 11 5 11 10 0 6 -2 10 -4 10 -3 0
-8 -4 -11 -10z"/>
<path d="M3890 3406 c0 -2 7 -6 15 -10 8 -3 15 -1 15 4 0 6 -7 10 -15 10 -8 0
-15 -2 -15 -4z"/>
<path d="M3968 3393 c6 -2 18 -2 25 0 6 3 1 5 -13 5 -14 0 -19 -2 -12 -5z"/>
<path d="M4043 3353 c9 -2 23 -2 30 0 6 3 -1 5 -18 5 -16 0 -22 -2 -12 -5z"/>
<path d="M4204 3343 c4 -4 44 -11 89 -16 107 -11 115 -12 123 -20 4 -4 37 -6
73 -6 l66 1 -55 9 c-30 4 -77 13 -105 19 -62 13 -201 22 -191 13z"/>
<path d="M1281 3284 c0 -11 3 -14 6 -6 3 7 2 16 -1 19 -3 4 -6 -2 -5 -13z"/>
<path d="M4560 3280 c0 -5 7 -7 15 -4 8 4 15 8 15 10 0 2 -7 4 -15 4 -8 0 -15
-4 -15 -10z"/>
<path d="M4348 3253 c7 -3 16 -2 19 1 4 3 -2 6 -13 5 -11 0 -14 -3 -6 -6z"/>
<path d="M4423 3233 c9 -2 23 -2 30 0 6 3 -1 5 -18 5 -16 0 -22 -2 -12 -5z"/>
<path d="M4543 3233 c9 -2 25 -2 35 0 9 3 1 5 -18 5 -19 0 -27 -2 -17 -5z"/>
<path d="M4638 3218 c5 -5 16 -8 23 -6 8 3 3 7 -10 11 -17 4 -21 3 -13 -5z"/>
<path d="M4860 3180 c20 -13 40 -13 40 0 0 6 -12 10 -27 10 -22 0 -25 -2 -13
-10z"/>
<path d="M3948 3162 c6 -4 55 -9 107 -10 52 -1 106 -7 120 -12 15 -6 36 -10
48 -9 18 0 17 3 -10 15 -34 15 -287 30 -265 16z"/>
<path d="M4938 3163 c7 -3 16 -2 19 1 4 3 -2 6 -13 5 -11 0 -14 -3 -6 -6z"/>
<path d="M4830 3140 c8 -5 31 -9 50 -9 29 0 31 2 15 9 -11 5 -33 9 -50 9 -23
1 -26 -2 -15 -9z"/>
<path d="M3671 3136 c2 -2 31 -6 64 -10 40 -4 53 -3 40 3 -19 9 -113 15 -104
7z"/>
<path d="M4252 3135 c5 -5 165 -35 183 -34 6 0 -17 9 -50 19 -53 18 -146 28
-133 15z"/>
<path d="M4790 3120 c8 -5 22 -9 30 -9 10 0 8 3 -5 9 -27 12 -43 12 -25 0z"/>
<path d="M4940 3120 c36 -12 60 -12 60 0 0 6 -19 10 -42 9 -37 -1 -39 -2 -18
-9z"/>
<path d="M3837 3113 c18 -2 50 -2 70 0 21 2 7 4 -32 4 -38 0 -55 -2 -38 -4z"/>
<path d="M4030 3101 c30 -5 117 -18 193 -29 76 -12 142 -24 147 -27 6 -3 81
-11 168 -16 197 -12 308 -26 344 -45 15 -8 48 -17 73 -21 37 -5 45 -3 45 10 0
9 -10 19 -22 21 -13 2 -56 12 -96 20 -111 25 -321 48 -378 41 -34 -4 -85 1
-153 15 -101 20 -144 25 -296 34 -69 4 -73 4 -25 -3z"/>
<path d="M4480 3101 c0 -8 9 -11 28 -7 41 9 298 -21 372 -44 76 -23 70 -22 70
-12 0 4 -21 13 -47 19 -27 6 -72 18 -101 27 -71 20 -322 34 -322 17z"/>
<path d="M4875 3101 c10 -17 125 -34 125 -18 0 4 -15 7 -33 7 -17 0 -47 4 -65
9 -18 6 -30 6 -27 2z"/>
<path d="M3676 3068 c3 -4 20 -8 37 -8 18 0 51 -5 73 -10 50 -11 124 -19 264
-26 58 -3 107 -9 108 -15 2 -5 29 -9 60 -9 32 -1 89 -8 127 -16 39 -9 108 -19
155 -23 47 -5 111 -14 142 -20 32 -7 62 -10 67 -7 5 3 44 -3 87 -15 172 -45
204 -48 204 -20 0 15 -10 20 -52 25 -72 10 -88 13 -128 25 -40 13 -328 43
-340 36 -4 -3 -50 4 -101 15 -111 23 -234 37 -379 45 -58 3 -155 11 -217 18
-61 7 -109 9 -107 5z"/>
<path d="M4970 3030 c19 -13 30 -13 30 0 0 6 -10 10 -22 10 -19 0 -20 -2 -8
-10z"/>
<path d="M3702 2988 c3 -7 22 -16 43 -20 21 -5 43 -13 50 -18 7 -6 25 -4 49 4
42 15 30 26 -19 19 -17 -3 -48 2 -69 11 -46 19 -59 20 -54 4z"/>
<path d="M3925 2960 c3 -5 32 -10 63 -10 63 -1 186 -21 265 -43 141 -41 177
-47 257 -46 47 1 126 -3 175 -9 50 -5 97 -6 105 -2 9 5 24 1 41 -10 14 -11 55
-24 90 -29 83 -14 79 -14 79 9 0 17 -7 20 -45 20 -25 0 -62 7 -81 15 -41 17
-237 38 -369 40 -95 1 -155 11 -155 25 0 4 -24 11 -52 15 -29 4 -82 13 -118
21 -77 16 -264 19 -255 4z"/>
<path d="M3650 2921 c20 -11 110 -20 110 -11 0 11 -38 20 -85 20 -27 -1 -35
-3 -25 -9z"/>
<path d="M1810 2909 c-30 -5 -70 -18 -90 -28 -19 -11 -55 -30 -80 -42 l-45
-24 38 -6 c20 -3 40 -8 43 -11 3 -3 -16 -26 -43 -51 -50 -48 -54 -66 -8 -45
23 10 28 10 36 -5 15 -27 67 -22 96 9 l24 27 15 -29 c21 -40 30 -44 101 -44
60 0 62 1 68 29 10 46 29 56 54 30 27 -29 26 -37 -4 -45 -45 -11 -26 -24 35
-24 51 0 60 3 60 18 0 10 -5 23 -12 30 -6 6 -9 15 -5 19 4 3 17 -3 28 -16 16
-17 24 -20 35 -10 36 30 6 80 -62 104 l-38 13 34 7 34 7 -25 14 c-13 7 -18 13
-11 14 13 0 17 39 5 41 -27 3 -66 8 -123 18 -74 12 -84 12 -160 0z m-27 -96
c-7 -2 -19 -2 -25 0 -7 3 -2 5 12 5 14 0 19 -2 13 -5z m367 -98 c11 -13 10
-14 -4 -9 -9 3 -16 10 -16 15 0 13 6 11 20 -6z"/>
<path d="M3920 2910 c0 -5 15 -10 33 -10 24 0 28 3 17 10 -20 13 -50 13 -50 0z"/>
<path d="M4000 2901 c0 -6 21 -13 48 -16 26 -4 63 -11 82 -16 19 -5 53 -9 75
-8 40 1 40 1 10 10 -48 15 -168 39 -192 39 -13 0 -23 -4 -23 -9z"/>
<path d="M3780 2893 c0 -17 24 -33 51 -33 15 0 31 -4 34 -10 3 -5 14 -10 23
-10 9 0 -2 11 -25 24 -51 29 -83 40 -83 29z"/>
<path d="M4289 2835 c25 -8 47 -13 49 -10 9 9 -2 13 -48 19 l-45 5 44 -14z"/>
<path d="M621 2794 c0 -11 3 -14 6 -6 3 7 2 16 -1 19 -3 4 -6 -2 -5 -13z"/>
<path d="M1290 2798 c0 -9 5 -20 10 -23 13 -8 13 5 0 25 -8 13 -10 13 -10 -2z"/>
<path d="M4704 2743 c-6 -20 -10 -21 -74 -16 -65 5 -69 5 -85 -20 -20 -31 -45
-35 -220 -41 -143 -5 -134 -4 -115 -16 8 -5 51 -10 95 -10 103 -1 226 -15 234
-27 8 -14 232 -43 311 -42 36 1 84 -2 108 -6 l43 -7 -2 90 c-1 82 -3 91 -23
100 -15 7 -28 6 -42 -1 -10 -6 -61 -12 -112 -12 -72 0 -95 3 -102 15 -8 13
-11 11 -16 -7z m226 -34 c0 -5 -11 -9 -25 -9 -14 0 -25 -4 -25 -10 0 -5 -7
-10 -15 -10 -8 0 -15 -7 -15 -15 0 -8 -9 -15 -20 -15 -11 0 -20 7 -20 15 0 10
-6 12 -17 8 -17 -6 -17 -6 -1 10 9 10 32 17 52 17 20 0 36 4 36 9 0 10 30 20
43 14 4 -2 7 -8 7 -14z m-307 -26 c-13 -2 -33 -2 -45 0 -13 2 -3 4 22 4 25 0
35 -2 23 -4z m177 -38 c0 -9 -9 -15 -22 -15 -22 1 -23 1 -4 15 25 19 26 19 26
0z"/>
<path d="M2 2305 c-2 -341 8 -599 24 -614 2 -3 12 2 21 11 14 14 14 29 4 130
-11 114 -26 378 -40 693 -7 146 -8 115 -9 -220z"/>
<path d="M3995 2680 c-25 -6 -21 -8 25 -9 30 0 62 4 70 9 18 12 -49 12 -95 0z"/>
<path d="M632 2655 c0 -16 2 -22 5 -12 2 9 2 23 0 30 -3 6 -5 -1 -5 -18z"/>
<path d="M3780 2660 c0 -5 10 -12 23 -14 99 -19 199 -38 232 -45 22 -5 69 -11
105 -15 178 -15 350 -37 395 -50 44 -12 212 -34 315 -41 19 -1 61 -6 93 -10
56 -8 57 -7 57 17 0 24 -3 25 -85 32 -47 4 -90 4 -95 1 -5 -3 -38 -1 -72 6
-35 6 -97 15 -138 19 -41 5 -97 14 -125 20 -27 6 -87 12 -132 15 -45 2 -123 9
-175 14 -51 6 -120 13 -153 17 -33 3 -79 14 -102 25 -45 20 -143 26 -143 9z"/>
<path d="M3750 2602 c0 -5 21 -13 48 -16 26 -4 64 -9 85 -12 20 -3 37 -2 37 4
0 5 -24 12 -52 16 -29 3 -68 9 -85 12 -19 4 -33 2 -33 -4z"/>
<path d="M3936 2570 c15 -15 175 -46 279 -55 105 -8 172 -15 250 -27 39 -5 97
-13 130 -17 33 -5 69 -11 80 -14 11 -4 67 -11 125 -17 58 -5 126 -13 153 -16
38 -5 47 -4 47 9 0 16 -21 21 -185 37 -218 21 -283 29 -360 43 -44 9 -145 21
-225 27 -80 6 -176 18 -213 26 -82 17 -95 18 -81 4z"/>
<path d="M3730 2541 c0 -9 101 -22 109 -15 10 9 -11 16 -58 19 -28 2 -51 0
-51 -4z"/>
<path d="M3890 2520 c0 -5 14 -10 31 -10 17 0 28 4 24 10 -3 6 -17 10 -31 10
-13 0 -24 -4 -24 -10z"/>
<path d="M632 2500 c0 -14 2 -19 5 -12 2 6 2 18 0 25 -3 6 -5 1 -5 -13z"/>
<path d="M1241 2484 c0 -11 3 -14 6 -6 3 7 2 16 -1 19 -3 4 -6 -2 -5 -13z"/>
<path d="M4052 2484 c3 -3 93 -14 199 -25 107 -10 200 -21 209 -24 34 -10 462
-64 513 -65 15 0 27 4 27 9 0 5 -46 14 -102 20 -57 7 -150 18 -208 27 -58 8
-130 17 -160 20 -63 6 -187 19 -311 34 -94 11 -176 13 -167 4z"/>
<path d="M637 2273 c2 -93 7 -229 12 -303 14 -207 14 -231 -3 -249 -8 -9 -16
-27 -18 -41 -2 -20 -10 -26 -40 -31 -30 -5 -37 -2 -41 13 -8 28 -52 39 -174
40 -82 0 -117 -3 -130 -13 -15 -12 -16 -12 -8 1 8 13 7 13 -9 1 -13 -11 -14
-16 -4 -22 14 -9 10 -11 -39 -13 -25 -1 -33 4 -38 22 -4 16 -13 22 -34 22 -30
0 -56 -21 -43 -35 4 -4 -5 -6 -20 -3 -15 3 -32 2 -38 -2 -7 -4 -10 -73 -8
-214 l3 -208 65 60 c102 93 301 214 445 270 28 11 93 41 145 66 52 25 100 46
107 46 7 0 24 5 38 12 24 11 25 13 8 20 -14 7 -13 8 5 4 13 -3 54 2 90 10 37
7 70 14 75 14 4 0 7 5 7 10 0 6 -30 10 -71 10 -54 0 -82 -6 -123 -25 -37 -18
-62 -23 -83 -19 l-31 6 -5 127 c-2 69 -4 149 -4 176 1 28 -2 86 -7 130 -6 67
-14 197 -16 268 0 9 -4 17 -9 17 -4 0 -6 -75 -4 -167z"/>
<path d="M4475 2393 c10 -10 145 -30 255 -39 96 -7 24 13 -90 25 -58 7 -121
14 -140 18 -23 3 -32 2 -25 -4z"/>
<path d="M4545 2350 c3 -5 8 -10 11 -10 2 0 4 5 4 10 0 6 -5 10 -11 10 -5 0
-7 -4 -4 -10z"/>
<path d="M4800 2352 c0 -5 35 -13 78 -17 42 -3 87 -9 100 -12 15 -3 22 -1 22
9 0 11 -18 15 -72 16 -40 1 -85 5 -100 8 -16 3 -28 1 -28 -4z"/>
<path d="M4610 2332 c19 -12 167 -25 156 -15 -4 5 -17 9 -29 9 -12 1 -49 5
-82 8 -38 5 -55 4 -45 -2z"/>
<path d="M4804 2311 c4 -6 19 -11 33 -11 14 0 52 -7 84 -15 60 -16 79 -14 79
8 0 8 -22 13 -63 14 -34 2 -79 6 -101 9 -27 4 -36 3 -32 -5z"/>
<path d="M4472 2294 c9 -9 21 -13 27 -9 16 10 3 25 -22 25 -20 0 -20 -1 -5
-16z"/>
<path d="M1247 2273 c4 -11 3 -14 -5 -9 -7 4 -12 1 -12 -8 0 -8 5 -18 10 -21
6 -3 10 1 10 9 0 9 4 16 10 16 5 0 7 7 4 15 -4 8 -10 15 -15 15 -4 0 -5 -7 -2
-17z"/>
<path d="M4708 2283 c12 -2 30 -2 40 0 9 3 -1 5 -23 4 -22 0 -30 -2 -17 -4z"/>
<path d="M4783 2273 c9 -2 17 -8 17 -12 0 -5 15 -12 33 -16 l32 -7 -28 -8
c-16 -5 -34 -7 -40 -5 -46 14 -77 14 -77 0 0 -9 10 -15 25 -15 18 0 25 -5 25
-19 0 -10 6 -21 13 -24 18 -7 57 10 63 28 4 8 12 15 20 15 8 0 14 6 14 14 0
18 22 26 49 19 16 -4 20 -11 16 -24 -5 -16 -1 -19 24 -19 36 0 42 17 9 23
l-23 4 23 2 c23 1 32 30 10 32 -7 1 -42 3 -78 5 -36 2 -83 5 -105 8 -22 2 -32
2 -22 -1z"/>
<path d="M4520 2261 l-45 -6 42 -13 c45 -13 96 -7 90 12 -4 13 -27 15 -87 7z"/>
<path d="M4450 2170 c0 -5 12 -10 28 -10 21 0 24 2 12 10 -20 13 -40 13 -40 0z"/>
<path d="M4539 2145 c37 -17 81 -21 66 -6 -6 6 -30 13 -55 16 l-45 6 34 -16z"/>
<path d="M4960 2135 c0 -8 9 -15 20 -15 11 0 20 7 20 15 0 8 -9 15 -20 15 -11
0 -20 -7 -20 -15z"/>
<path d="M4690 2130 c0 -5 6 -10 14 -10 8 0 16 -5 18 -12 3 -7 9 -8 18 -3 10
6 9 11 -5 22 -22 15 -45 17 -45 3z"/>
<path d="M4798 2118 c5 -5 16 -8 23 -6 8 3 3 7 -10 11 -17 4 -21 3 -13 -5z"/>
<path d="M4910 2100 c0 -5 20 -10 45 -10 25 0 45 5 45 10 0 6 -20 10 -45 10
-25 0 -45 -4 -45 -10z"/>
<path d="M2112 2088 c3 -7 18 -14 34 -16 28 -3 28 -3 9 12 -24 19 -48 21 -43
4z"/>
<path d="M4775 2050 c-4 -6 5 -10 20 -10 15 0 24 4 20 10 -3 6 -12 10 -20 10
-8 0 -17 -4 -20 -10z"/>
<path d="M4305 2030 c3 -5 14 -10 23 -10 15 0 15 2 2 10 -20 13 -33 13 -25 0z"/>
<path d="M4441 2006 c12 -10 60 -16 54 -6 -3 5 -18 10 -32 10 -15 0 -24 -2
-22 -4z"/>
<path d="M4560 1980 c0 -13 11 -13 30 0 12 8 11 10 -7 10 -13 0 -23 -4 -23
-10z"/>
<path d="M4823 1953 c9 -2 23 -2 30 0 6 3 -1 5 -18 5 -16 0 -22 -2 -12 -5z"/>
<path d="M4880 1939 c0 -5 5 -7 10 -4 6 3 10 8 10 11 0 2 -4 4 -10 4 -5 0 -10
-5 -10 -11z"/>
<path d="M4920 1941 c0 -17 17 -21 42 -12 25 11 25 11 -14 17 -16 3 -28 0 -28
-5z"/>
<path d="M2187 1893 c-4 -3 -7 -11 -7 -17 0 -6 5 -5 12 2 6 6 9 14 7 17 -3 3
-9 2 -12 -2z"/>
<path d="M1450 1691 c0 -12 5 -21 10 -21 6 0 10 6 10 14 0 8 -4 18 -10 21 -5
3 -10 -3 -10 -14z"/>
<path d="M2384 1575 c-10 -7 -24 -11 -31 -8 -20 8 -84 -7 -78 -17 3 -6 -3 -20
-14 -32 -18 -18 -21 -19 -21 -5 0 26 -27 20 -32 -7 -6 -30 8 -46 38 -46 13 0
25 -4 29 -9 3 -6 13 -9 23 -9 26 1 72 -20 72 -33 0 -6 6 -9 14 -6 8 3 17 -1
20 -10 5 -13 9 -13 23 -2 13 11 17 11 20 2 9 -24 23 -13 23 18 0 17 4 28 10
24 10 -6 11 42 2 85 l-5 25 -7 -25 -8 -25 -1 28 c-2 46 -45 76 -77 52z m33
-21 c-3 -3 -12 -4 -19 -1 -8 3 -5 6 6 6 11 1 17 -2 13 -5z"/>
<path d="M2483 1566 c0 -8 4 -13 9 -10 4 3 8 -4 8 -15 0 -12 5 -21 11 -21 17
0 6 54 -12 58 -9 1 -16 -4 -16 -12z"/>
<path d="M1005 1490 c-3 -5 1 -10 9 -10 9 0 16 5 16 10 0 6 -4 10 -9 10 -6 0
-13 -4 -16 -10z"/>
<path d="M960 1450 c0 -5 7 -7 15 -4 8 4 15 8 15 10 0 2 -7 4 -15 4 -8 0 -15
-4 -15 -10z"/>
<path d="M1285 1440 c-18 -20 -18 -21 5 -12 13 5 26 14 28 20 6 19 -13 14 -33
-8z"/>
<path d="M936 1423 c-6 -14 -5 -15 5 -6 7 7 10 15 7 18 -3 3 -9 -2 -12 -12z"/>
<path d="M887 1413 c5 -12 3 -14 -7 -8 -9 5 -11 4 -6 -4 4 -7 -2 -20 -16 -31
-18 -15 -21 -21 -10 -31 10 -11 12 -10 12 4 0 9 5 18 10 18 6 1 16 2 23 3 6 1
11 8 9 16 -2 7 2 16 9 20 14 9 3 30 -16 30 -9 0 -12 -6 -8 -17z"/>
<path d="M1138 1363 c-10 -2 -18 -9 -18 -14 0 -14 16 -11 30 6 7 8 11 14 9 14
-2 -1 -12 -3 -21 -6z"/>
<path d="M2492 1340 c0 -14 2 -19 5 -12 2 6 2 18 0 25 -3 6 -5 1 -5 -13z"/>
<path d="M2525 1341 c-3 -5 -1 -12 5 -16 5 -3 10 1 10 9 0 18 -6 21 -15 7z"/>
<path d="M1110 1320 c-18 -12 -2 -12 25 0 13 6 15 9 5 9 -8 0 -22 -4 -30 -9z"/>
<path d="M870 1291 c-6 -12 -20 -21 -30 -21 -11 0 -20 -4 -20 -9 0 -5 -9 -13
-20 -16 -11 -3 -20 -11 -20 -18 0 -8 3 -8 12 1 7 7 29 12 49 12 34 0 37 3 42
33 6 40 2 45 -13 18z"/>
<path d="M940 1224 c0 -8 5 -12 10 -9 6 3 10 10 10 16 0 5 -4 9 -10 9 -5 0
-10 -7 -10 -16z"/>
<path d="M770 1190 c0 -5 7 -10 15 -10 8 0 15 5 15 10 0 6 -7 10 -15 10 -8 0
-15 -4 -15 -10z"/>
<path d="M1906 1175 c-9 -26 -7 -32 5 -12 6 10 9 21 6 23 -2 3 -7 -2 -11 -11z"/>
<path d="M708 1173 c7 -3 16 -2 19 1 4 3 -2 6 -13 5 -11 0 -14 -3 -6 -6z"/>
<path d="M697 1153 c-4 -3 -7 -11 -7 -17 0 -6 5 -5 12 2 6 6 9 14 7 17 -3 3
-9 2 -12 -2z"/>
<path d="M290 1142 c0 -4 14 -8 30 -7 17 0 30 3 30 7 0 5 -13 8 -30 8 -16 0
-30 -4 -30 -8z"/>
</g>
</svg>
