<?xml version="1.0" encoding="utf-8" standalone="no"?>
<!DOCTYPE svg PUBLIC "-//W3C//DTD SVG 1.1//EN"
  "http://www.w3.org/Graphics/SVG/1.1/DTD/svg11.dtd">
<svg xmlns:xlink="http://www.w3.org/1999/xlink" width="379.8505pt" height="223.297687pt" viewBox="0 0 379.8505 223.297687" xmlns="http://www.w3.org/2000/svg" version="1.1">
 <metadata>
  <rdf:RDF xmlns:dc="http://purl.org/dc/elements/1.1/" xmlns:cc="http://creativecommons.org/ns#" xmlns:rdf="http://www.w3.org/1999/02/22-rdf-syntax-ns#">
   <cc:Work>
    <dc:type rdf:resource="http://purl.org/dc/dcmitype/StillImage"/>
    <dc:date>2023-04-01T04:57:41.111119</dc:date>
    <dc:format>image/svg+xml</dc:format>
    <dc:creator>
     <cc:Agent>
      <dc:title>Matplotlib v3.7.1, https://matplotlib.org/</dc:title>
     </cc:Agent>
    </dc:creator>
   </cc:Work>
  </rdf:RDF>
 </metadata>
 <defs>
  <style type="text/css">*{stroke-linejoin: round; stroke-linecap: butt}</style>
 </defs>
 <g id="figure_1">
  <g id="patch_1">
   <path d="M 0 223.297687 
L 379.8505 223.297687 
L 379.8505 0 
L 0 0 
L 0 223.297687 
z
" style="fill: none"/>
  </g>
  <g id="axes_1">
   <g id="patch_2">
    <path d="M 38.4405 187.538437 
L 292.8105 187.538437 
L 292.8105 20.798437 
L 38.4405 20.798437 
L 38.4405 187.538437 
z
" style="fill: none"/>
   </g>
   <g id="matplotlib.axis_1">
    <g id="xtick_1">
     <g id="line2d_1">
      <defs>
       <path id="mf3aa46a3ef" d="M 0 0 
L 0 4.8 
" style="stroke: #262626"/>
      </defs>
      <g>
       <use xlink:href="#mf3aa46a3ef" x="77.949862" y="187.538437" style="fill: #262626; stroke: #262626"/>
      </g>
     </g>
     <g id="text_1">
      <!-- −0.0075 -->
      <g style="fill: #262626" transform="translate(58.866924 202.525062) scale(0.088 -0.088)">
       <defs>
        <path id="DejaVuSans-2212" d="M 678 2272 
L 4684 2272 
L 4684 1741 
L 678 1741 
L 678 2272 
z
" transform="scale(0.015625)"/>
        <path id="DejaVuSans-30" d="M 2034 4250 
Q 1547 4250 1301 3770 
Q 1056 3291 1056 2328 
Q 1056 1369 1301 889 
Q 1547 409 2034 409 
Q 2525 409 2770 889 
Q 3016 1369 3016 2328 
Q 3016 3291 2770 3770 
Q 2525 4250 2034 4250 
z
M 2034 4750 
Q 2819 4750 3233 4129 
Q 3647 3509 3647 2328 
Q 3647 1150 3233 529 
Q 2819 -91 2034 -91 
Q 1250 -91 836 529 
Q 422 1150 422 2328 
Q 422 3509 836 4129 
Q 1250 4750 2034 4750 
z
" transform="scale(0.015625)"/>
        <path id="DejaVuSans-2e" d="M 684 794 
L 1344 794 
L 1344 0 
L 684 0 
L 684 794 
z
" transform="scale(0.015625)"/>
        <path id="DejaVuSans-37" d="M 525 4666 
L 3525 4666 
L 3525 4397 
L 1831 0 
L 1172 0 
L 2766 4134 
L 525 4134 
L 525 4666 
z
" transform="scale(0.015625)"/>
        <path id="DejaVuSans-35" d="M 691 4666 
L 3169 4666 
L 3169 4134 
L 1269 4134 
L 1269 2991 
Q 1406 3038 1543 3061 
Q 1681 3084 1819 3084 
Q 2600 3084 3056 2656 
Q 3513 2228 3513 1497 
Q 3513 744 3044 326 
Q 2575 -91 1722 -91 
Q 1428 -91 1123 -41 
Q 819 9 494 109 
L 494 744 
Q 775 591 1075 516 
Q 1375 441 1709 441 
Q 2250 441 2565 725 
Q 2881 1009 2881 1497 
Q 2881 1984 2565 2268 
Q 2250 2553 1709 2553 
Q 1456 2553 1204 2497 
Q 953 2441 691 2322 
L 691 4666 
z
" transform="scale(0.015625)"/>
       </defs>
       <use xlink:href="#DejaVuSans-2212"/>
       <use xlink:href="#DejaVuSans-30" x="83.789062"/>
       <use xlink:href="#DejaVuSans-2e" x="147.412109"/>
       <use xlink:href="#DejaVuSans-30" x="179.199219"/>
       <use xlink:href="#DejaVuSans-30" x="242.822266"/>
       <use xlink:href="#DejaVuSans-37" x="306.445312"/>
       <use xlink:href="#DejaVuSans-35" x="370.068359"/>
      </g>
     </g>
    </g>
    <g id="xtick_2">
     <g id="line2d_2">
      <g>
       <use xlink:href="#mf3aa46a3ef" x="139.345198" y="187.538437" style="fill: #262626; stroke: #262626"/>
      </g>
     </g>
     <g id="text_2">
      <!-- −0.0025 -->
      <g style="fill: #262626" transform="translate(120.26226 202.525062) scale(0.088 -0.088)">
       <defs>
        <path id="DejaVuSans-32" d="M 1228 531 
L 3431 531 
L 3431 0 
L 469 0 
L 469 531 
Q 828 903 1448 1529 
Q 2069 2156 2228 2338 
Q 2531 2678 2651 2914 
Q 2772 3150 2772 3378 
Q 2772 3750 2511 3984 
Q 2250 4219 1831 4219 
Q 1534 4219 1204 4116 
Q 875 4013 500 3803 
L 500 4441 
Q 881 4594 1212 4672 
Q 1544 4750 1819 4750 
Q 2544 4750 2975 4387 
Q 3406 4025 3406 3419 
Q 3406 3131 3298 2873 
Q 3191 2616 2906 2266 
Q 2828 2175 2409 1742 
Q 1991 1309 1228 531 
z
" transform="scale(0.015625)"/>
       </defs>
       <use xlink:href="#DejaVuSans-2212"/>
       <use xlink:href="#DejaVuSans-30" x="83.789062"/>
       <use xlink:href="#DejaVuSans-2e" x="147.412109"/>
       <use xlink:href="#DejaVuSans-30" x="179.199219"/>
       <use xlink:href="#DejaVuSans-30" x="242.822266"/>
       <use xlink:href="#DejaVuSans-32" x="306.445312"/>
       <use xlink:href="#DejaVuSans-35" x="370.068359"/>
      </g>
     </g>
    </g>
    <g id="xtick_3">
     <g id="line2d_3">
      <g>
       <use xlink:href="#mf3aa46a3ef" x="200.740533" y="187.538437" style="fill: #262626; stroke: #262626"/>
      </g>
     </g>
     <g id="text_3">
      <!-- 0.0025 -->
      <g style="fill: #262626" transform="translate(185.344658 202.525062) scale(0.088 -0.088)">
       <use xlink:href="#DejaVuSans-30"/>
       <use xlink:href="#DejaVuSans-2e" x="63.623047"/>
       <use xlink:href="#DejaVuSans-30" x="95.410156"/>
       <use xlink:href="#DejaVuSans-30" x="159.033203"/>
       <use xlink:href="#DejaVuSans-32" x="222.65625"/>
       <use xlink:href="#DejaVuSans-35" x="286.279297"/>
      </g>
     </g>
    </g>
    <g id="xtick_4">
     <g id="line2d_4">
      <g>
       <use xlink:href="#mf3aa46a3ef" x="262.135869" y="187.538437" style="fill: #262626; stroke: #262626"/>
      </g>
     </g>
     <g id="text_4">
      <!-- 0.0075 -->
      <g style="fill: #262626" transform="translate(246.739994 202.525062) scale(0.088 -0.088)">
       <use xlink:href="#DejaVuSans-30"/>
       <use xlink:href="#DejaVuSans-2e" x="63.623047"/>
       <use xlink:href="#DejaVuSans-30" x="95.410156"/>
       <use xlink:href="#DejaVuSans-30" x="159.033203"/>
       <use xlink:href="#DejaVuSans-37" x="222.65625"/>
       <use xlink:href="#DejaVuSans-35" x="286.279297"/>
      </g>
     </g>
    </g>
    <g id="text_5">
     <!-- In-context Influence -->
     <g style="fill: #262626" transform="translate(125.693 214.433937) scale(0.08 -0.08)">
      <defs>
       <path id="DejaVuSans-49" d="M 628 4666 
L 1259 4666 
L 1259 0 
L 628 0 
L 628 4666 
z
" transform="scale(0.015625)"/>
       <path id="DejaVuSans-6e" d="M 3513 2113 
L 3513 0 
L 2938 0 
L 2938 2094 
Q 2938 2591 2744 2837 
Q 2550 3084 2163 3084 
Q 1697 3084 1428 2787 
Q 1159 2491 1159 1978 
L 1159 0 
L 581 0 
L 581 3500 
L 1159 3500 
L 1159 2956 
Q 1366 3272 1645 3428 
Q 1925 3584 2291 3584 
Q 2894 3584 3203 3211 
Q 3513 2838 3513 2113 
z
" transform="scale(0.015625)"/>
       <path id="DejaVuSans-2d" d="M 313 2009 
L 1997 2009 
L 1997 1497 
L 313 1497 
L 313 2009 
z
" transform="scale(0.015625)"/>
       <path id="DejaVuSans-63" d="M 3122 3366 
L 3122 2828 
Q 2878 2963 2633 3030 
Q 2388 3097 2138 3097 
Q 1578 3097 1268 2742 
Q 959 2388 959 1747 
Q 959 1106 1268 751 
Q 1578 397 2138 397 
Q 2388 397 2633 464 
Q 2878 531 3122 666 
L 3122 134 
Q 2881 22 2623 -34 
Q 2366 -91 2075 -91 
Q 1284 -91 818 406 
Q 353 903 353 1747 
Q 353 2603 823 3093 
Q 1294 3584 2113 3584 
Q 2378 3584 2631 3529 
Q 2884 3475 3122 3366 
z
" transform="scale(0.015625)"/>
       <path id="DejaVuSans-6f" d="M 1959 3097 
Q 1497 3097 1228 2736 
Q 959 2375 959 1747 
Q 959 1119 1226 758 
Q 1494 397 1959 397 
Q 2419 397 2687 759 
Q 2956 1122 2956 1747 
Q 2956 2369 2687 2733 
Q 2419 3097 1959 3097 
z
M 1959 3584 
Q 2709 3584 3137 3096 
Q 3566 2609 3566 1747 
Q 3566 888 3137 398 
Q 2709 -91 1959 -91 
Q 1206 -91 779 398 
Q 353 888 353 1747 
Q 353 2609 779 3096 
Q 1206 3584 1959 3584 
z
" transform="scale(0.015625)"/>
       <path id="DejaVuSans-74" d="M 1172 4494 
L 1172 3500 
L 2356 3500 
L 2356 3053 
L 1172 3053 
L 1172 1153 
Q 1172 725 1289 603 
Q 1406 481 1766 481 
L 2356 481 
L 2356 0 
L 1766 0 
Q 1100 0 847 248 
Q 594 497 594 1153 
L 594 3053 
L 172 3053 
L 172 3500 
L 594 3500 
L 594 4494 
L 1172 4494 
z
" transform="scale(0.015625)"/>
       <path id="DejaVuSans-65" d="M 3597 1894 
L 3597 1613 
L 953 1613 
Q 991 1019 1311 708 
Q 1631 397 2203 397 
Q 2534 397 2845 478 
Q 3156 559 3463 722 
L 3463 178 
Q 3153 47 2828 -22 
Q 2503 -91 2169 -91 
Q 1331 -91 842 396 
Q 353 884 353 1716 
Q 353 2575 817 3079 
Q 1281 3584 2069 3584 
Q 2775 3584 3186 3129 
Q 3597 2675 3597 1894 
z
M 3022 2063 
Q 3016 2534 2758 2815 
Q 2500 3097 2075 3097 
Q 1594 3097 1305 2825 
Q 1016 2553 972 2059 
L 3022 2063 
z
" transform="scale(0.015625)"/>
       <path id="DejaVuSans-78" d="M 3513 3500 
L 2247 1797 
L 3578 0 
L 2900 0 
L 1881 1375 
L 863 0 
L 184 0 
L 1544 1831 
L 300 3500 
L 978 3500 
L 1906 2253 
L 2834 3500 
L 3513 3500 
z
" transform="scale(0.015625)"/>
       <path id="DejaVuSans-20" transform="scale(0.015625)"/>
       <path id="DejaVuSans-66" d="M 2375 4863 
L 2375 4384 
L 1825 4384 
Q 1516 4384 1395 4259 
Q 1275 4134 1275 3809 
L 1275 3500 
L 2222 3500 
L 2222 3053 
L 1275 3053 
L 1275 0 
L 697 0 
L 697 3053 
L 147 3053 
L 147 3500 
L 697 3500 
L 697 3744 
Q 697 4328 969 4595 
Q 1241 4863 1831 4863 
L 2375 4863 
z
" transform="scale(0.015625)"/>
       <path id="DejaVuSans-6c" d="M 603 4863 
L 1178 4863 
L 1178 0 
L 603 0 
L 603 4863 
z
" transform="scale(0.015625)"/>
       <path id="DejaVuSans-75" d="M 544 1381 
L 544 3500 
L 1119 3500 
L 1119 1403 
Q 1119 906 1312 657 
Q 1506 409 1894 409 
Q 2359 409 2629 706 
Q 2900 1003 2900 1516 
L 2900 3500 
L 3475 3500 
L 3475 0 
L 2900 0 
L 2900 538 
Q 2691 219 2414 64 
Q 2138 -91 1772 -91 
Q 1169 -91 856 284 
Q 544 659 544 1381 
z
M 1991 3584 
L 1991 3584 
z
" transform="scale(0.015625)"/>
      </defs>
      <use xlink:href="#DejaVuSans-49"/>
      <use xlink:href="#DejaVuSans-6e" x="29.492188"/>
      <use xlink:href="#DejaVuSans-2d" x="92.871094"/>
      <use xlink:href="#DejaVuSans-63" x="128.955078"/>
      <use xlink:href="#DejaVuSans-6f" x="183.935547"/>
      <use xlink:href="#DejaVuSans-6e" x="245.117188"/>
      <use xlink:href="#DejaVuSans-74" x="308.496094"/>
      <use xlink:href="#DejaVuSans-65" x="347.705078"/>
      <use xlink:href="#DejaVuSans-78" x="407.478516"/>
      <use xlink:href="#DejaVuSans-74" x="466.658203"/>
      <use xlink:href="#DejaVuSans-20" x="505.867188"/>
      <use xlink:href="#DejaVuSans-49" x="537.654297"/>
      <use xlink:href="#DejaVuSans-6e" x="567.146484"/>
      <use xlink:href="#DejaVuSans-66" x="630.525391"/>
      <use xlink:href="#DejaVuSans-6c" x="665.730469"/>
      <use xlink:href="#DejaVuSans-75" x="693.513672"/>
      <use xlink:href="#DejaVuSans-65" x="756.892578"/>
      <use xlink:href="#DejaVuSans-6e" x="818.416016"/>
      <use xlink:href="#DejaVuSans-63" x="881.794922"/>
      <use xlink:href="#DejaVuSans-65" x="936.775391"/>
     </g>
    </g>
   </g>
   <g id="matplotlib.axis_2">
    <g id="ytick_1">
     <g id="line2d_5">
      <defs>
       <path id="m694f3768aa" d="M 0 0 
L -4.8 0 
" style="stroke: #262626"/>
      </defs>
      <g>
       <use xlink:href="#m694f3768aa" x="38.4405" y="187.538437" style="fill: #262626; stroke: #262626"/>
      </g>
     </g>
     <g id="text_6">
      <!-- 0 -->
      <g style="fill: #262626" transform="translate(24.5415 190.88175) scale(0.088 -0.088)">
       <use xlink:href="#DejaVuSans-30"/>
      </g>
     </g>
    </g>
    <g id="ytick_2">
     <g id="line2d_6">
      <g>
       <use xlink:href="#m694f3768aa" x="38.4405" y="164.839828" style="fill: #262626; stroke: #262626"/>
      </g>
     </g>
     <g id="text_7">
      <!-- 10 -->
      <g style="fill: #262626" transform="translate(18.9425 168.183141) scale(0.088 -0.088)">
       <defs>
        <path id="DejaVuSans-31" d="M 794 531 
L 1825 531 
L 1825 4091 
L 703 3866 
L 703 4441 
L 1819 4666 
L 2450 4666 
L 2450 531 
L 3481 531 
L 3481 0 
L 794 0 
L 794 531 
z
" transform="scale(0.015625)"/>
       </defs>
       <use xlink:href="#DejaVuSans-31"/>
       <use xlink:href="#DejaVuSans-30" x="63.623047"/>
      </g>
     </g>
    </g>
    <g id="ytick_3">
     <g id="line2d_7">
      <g>
       <use xlink:href="#m694f3768aa" x="38.4405" y="142.141219" style="fill: #262626; stroke: #262626"/>
      </g>
     </g>
     <g id="text_8">
      <!-- 20 -->
      <g style="fill: #262626" transform="translate(18.9425 145.484531) scale(0.088 -0.088)">
       <use xlink:href="#DejaVuSans-32"/>
       <use xlink:href="#DejaVuSans-30" x="63.623047"/>
      </g>
     </g>
    </g>
    <g id="ytick_4">
     <g id="line2d_8">
      <g>
       <use xlink:href="#m694f3768aa" x="38.4405" y="119.442609" style="fill: #262626; stroke: #262626"/>
      </g>
     </g>
     <g id="text_9">
      <!-- 30 -->
      <g style="fill: #262626" transform="translate(18.9425 122.785922) scale(0.088 -0.088)">
       <defs>
        <path id="DejaVuSans-33" d="M 2597 2516 
Q 3050 2419 3304 2112 
Q 3559 1806 3559 1356 
Q 3559 666 3084 287 
Q 2609 -91 1734 -91 
Q 1441 -91 1130 -33 
Q 819 25 488 141 
L 488 750 
Q 750 597 1062 519 
Q 1375 441 1716 441 
Q 2309 441 2620 675 
Q 2931 909 2931 1356 
Q 2931 1769 2642 2001 
Q 2353 2234 1838 2234 
L 1294 2234 
L 1294 2753 
L 1863 2753 
Q 2328 2753 2575 2939 
Q 2822 3125 2822 3475 
Q 2822 3834 2567 4026 
Q 2313 4219 1838 4219 
Q 1578 4219 1281 4162 
Q 984 4106 628 3988 
L 628 4550 
Q 988 4650 1302 4700 
Q 1616 4750 1894 4750 
Q 2613 4750 3031 4423 
Q 3450 4097 3450 3541 
Q 3450 3153 3228 2886 
Q 3006 2619 2597 2516 
z
" transform="scale(0.015625)"/>
       </defs>
       <use xlink:href="#DejaVuSans-33"/>
       <use xlink:href="#DejaVuSans-30" x="63.623047"/>
      </g>
     </g>
    </g>
    <g id="ytick_5">
     <g id="line2d_9">
      <g>
       <use xlink:href="#m694f3768aa" x="38.4405" y="96.744" style="fill: #262626; stroke: #262626"/>
      </g>
     </g>
     <g id="text_10">
      <!-- 40 -->
      <g style="fill: #262626" transform="translate(18.9425 100.087312) scale(0.088 -0.088)">
       <defs>
        <path id="DejaVuSans-34" d="M 2419 4116 
L 825 1625 
L 2419 1625 
L 2419 4116 
z
M 2253 4666 
L 3047 4666 
L 3047 1625 
L 3713 1625 
L 3713 1100 
L 3047 1100 
L 3047 0 
L 2419 0 
L 2419 1100 
L 313 1100 
L 313 1709 
L 2253 4666 
z
" transform="scale(0.015625)"/>
       </defs>
       <use xlink:href="#DejaVuSans-34"/>
       <use xlink:href="#DejaVuSans-30" x="63.623047"/>
      </g>
     </g>
    </g>
    <g id="ytick_6">
     <g id="line2d_10">
      <g>
       <use xlink:href="#m694f3768aa" x="38.4405" y="74.04539" style="fill: #262626; stroke: #262626"/>
      </g>
     </g>
     <g id="text_11">
      <!-- 50 -->
      <g style="fill: #262626" transform="translate(18.9425 77.388703) scale(0.088 -0.088)">
       <use xlink:href="#DejaVuSans-35"/>
       <use xlink:href="#DejaVuSans-30" x="63.623047"/>
      </g>
     </g>
    </g>
    <g id="ytick_7">
     <g id="line2d_11">
      <g>
       <use xlink:href="#m694f3768aa" x="38.4405" y="51.346781" style="fill: #262626; stroke: #262626"/>
      </g>
     </g>
     <g id="text_12">
      <!-- 60 -->
      <g style="fill: #262626" transform="translate(18.9425 54.690093) scale(0.088 -0.088)">
       <defs>
        <path id="DejaVuSans-36" d="M 2113 2584 
Q 1688 2584 1439 2293 
Q 1191 2003 1191 1497 
Q 1191 994 1439 701 
Q 1688 409 2113 409 
Q 2538 409 2786 701 
Q 3034 994 3034 1497 
Q 3034 2003 2786 2293 
Q 2538 2584 2113 2584 
z
M 3366 4563 
L 3366 3988 
Q 3128 4100 2886 4159 
Q 2644 4219 2406 4219 
Q 1781 4219 1451 3797 
Q 1122 3375 1075 2522 
Q 1259 2794 1537 2939 
Q 1816 3084 2150 3084 
Q 2853 3084 3261 2657 
Q 3669 2231 3669 1497 
Q 3669 778 3244 343 
Q 2819 -91 2113 -91 
Q 1303 -91 875 529 
Q 447 1150 447 2328 
Q 447 3434 972 4092 
Q 1497 4750 2381 4750 
Q 2619 4750 2861 4703 
Q 3103 4656 3366 4563 
z
" transform="scale(0.015625)"/>
       </defs>
       <use xlink:href="#DejaVuSans-36"/>
       <use xlink:href="#DejaVuSans-30" x="63.623047"/>
      </g>
     </g>
    </g>
    <g id="ytick_8">
     <g id="line2d_12">
      <g>
       <use xlink:href="#m694f3768aa" x="38.4405" y="28.648171" style="fill: #262626; stroke: #262626"/>
      </g>
     </g>
     <g id="text_13">
      <!-- 70 -->
      <g style="fill: #262626" transform="translate(18.9425 31.991484) scale(0.088 -0.088)">
       <use xlink:href="#DejaVuSans-37"/>
       <use xlink:href="#DejaVuSans-30" x="63.623047"/>
      </g>
     </g>
    </g>
    <g id="text_14">
     <!-- Density -->
     <g style="fill: #262626" transform="translate(13.27875 119.375312) rotate(-90) scale(0.08 -0.08)">
      <defs>
       <path id="DejaVuSans-44" d="M 1259 4147 
L 1259 519 
L 2022 519 
Q 2988 519 3436 956 
Q 3884 1394 3884 2338 
Q 3884 3275 3436 3711 
Q 2988 4147 2022 4147 
L 1259 4147 
z
M 628 4666 
L 1925 4666 
Q 3281 4666 3915 4102 
Q 4550 3538 4550 2338 
Q 4550 1131 3912 565 
Q 3275 0 1925 0 
L 628 0 
L 628 4666 
z
" transform="scale(0.015625)"/>
       <path id="DejaVuSans-73" d="M 2834 3397 
L 2834 2853 
Q 2591 2978 2328 3040 
Q 2066 3103 1784 3103 
Q 1356 3103 1142 2972 
Q 928 2841 928 2578 
Q 928 2378 1081 2264 
Q 1234 2150 1697 2047 
L 1894 2003 
Q 2506 1872 2764 1633 
Q 3022 1394 3022 966 
Q 3022 478 2636 193 
Q 2250 -91 1575 -91 
Q 1294 -91 989 -36 
Q 684 19 347 128 
L 347 722 
Q 666 556 975 473 
Q 1284 391 1588 391 
Q 1994 391 2212 530 
Q 2431 669 2431 922 
Q 2431 1156 2273 1281 
Q 2116 1406 1581 1522 
L 1381 1569 
Q 847 1681 609 1914 
Q 372 2147 372 2553 
Q 372 3047 722 3315 
Q 1072 3584 1716 3584 
Q 2034 3584 2315 3537 
Q 2597 3491 2834 3397 
z
" transform="scale(0.015625)"/>
       <path id="DejaVuSans-69" d="M 603 3500 
L 1178 3500 
L 1178 0 
L 603 0 
L 603 3500 
z
M 603 4863 
L 1178 4863 
L 1178 4134 
L 603 4134 
L 603 4863 
z
" transform="scale(0.015625)"/>
       <path id="DejaVuSans-79" d="M 2059 -325 
Q 1816 -950 1584 -1140 
Q 1353 -1331 966 -1331 
L 506 -1331 
L 506 -850 
L 844 -850 
Q 1081 -850 1212 -737 
Q 1344 -625 1503 -206 
L 1606 56 
L 191 3500 
L 800 3500 
L 1894 763 
L 2988 3500 
L 3597 3500 
L 2059 -325 
z
" transform="scale(0.015625)"/>
      </defs>
      <use xlink:href="#DejaVuSans-44"/>
      <use xlink:href="#DejaVuSans-65" x="77.001953"/>
      <use xlink:href="#DejaVuSans-6e" x="138.525391"/>
      <use xlink:href="#DejaVuSans-73" x="201.904297"/>
      <use xlink:href="#DejaVuSans-69" x="254.003906"/>
      <use xlink:href="#DejaVuSans-74" x="281.787109"/>
      <use xlink:href="#DejaVuSans-79" x="320.996094"/>
     </g>
    </g>
   </g>
   <g id="line2d_13">
    <path d="M 59.53741 187.525891 
L 67.336283 187.400145 
L 72.906907 187.096744 
L 82.934029 186.408081 
L 87.390528 186.421241 
L 92.961152 186.469912 
L 95.189401 186.27634 
L 97.41765 185.817281 
L 99.6459 184.988038 
L 100.760025 184.403382 
L 101.874149 183.69094 
L 102.988274 182.842316 
L 105.216523 180.717016 
L 107.444773 178.023718 
L 109.673022 174.81961 
L 111.901272 171.215563 
L 115.243646 165.360588 
L 123.042519 151.080375 
L 126.384893 144.592753 
L 129.727267 137.573319 
L 133.069641 129.865781 
L 136.412015 121.373269 
L 139.754389 112.053495 
L 144.210888 98.692142 
L 147.553262 88.897996 
L 149.781512 83.113193 
L 152.009761 78.294686 
L 153.123886 76.30033 
L 154.238011 74.581768 
L 155.352135 73.118923 
L 156.46626 71.877746 
L 158.694509 69.875097 
L 165.379258 64.550312 
L 168.721632 61.71969 
L 169.835756 60.933551 
L 170.949881 60.301528 
L 172.064006 59.864029 
L 173.178131 59.653485 
L 174.292255 59.692384 
L 175.40638 59.992542 
L 176.520505 60.555556 
L 177.634629 61.374277 
L 178.748754 62.435025 
L 179.862879 63.720249 
L 180.977004 65.211299 
L 183.205253 68.745747 
L 185.433502 72.951532 
L 187.661752 77.824099 
L 189.890001 83.419438 
L 192.118251 89.789789 
L 194.3465 96.904445 
L 197.688874 108.550668 
L 201.031248 120.260278 
L 203.259498 127.356523 
L 205.487747 133.450801 
L 206.601872 136.059706 
L 207.715997 138.372054 
L 208.830121 140.403465 
L 209.944246 142.183479 
L 212.172495 145.162453 
L 218.857244 153.098335 
L 221.085493 156.354899 
L 224.427867 161.850486 
L 228.884366 169.217873 
L 231.112615 172.472034 
L 233.340865 175.304279 
L 235.569114 177.705665 
L 237.797364 179.709394 
L 240.025613 181.361131 
L 242.253862 182.70073 
L 244.482112 183.758155 
L 246.710361 184.559699 
L 248.938611 185.13749 
L 252.280985 185.683985 
L 257.851608 186.19565 
L 273.449354 187.399527 
L 280.134103 187.519737 
L 281.248227 187.525882 
L 281.248227 187.525882 
" clip-path="url(#p53dc5e69a5)" style="fill: none; stroke: #029e73; stroke-width: 2; stroke-linecap: round"/>
   </g>
   <g id="line2d_14">
    <path d="M 78.333024 187.516401 
L 83.750718 187.361371 
L 87.362514 187.005687 
L 90.071361 186.482864 
L 92.780208 185.669669 
L 95.489055 184.546614 
L 98.197902 183.142427 
L 101.809698 180.942534 
L 108.13034 176.911285 
L 110.839187 175.51088 
L 113.548034 174.396606 
L 116.256881 173.331798 
L 118.062779 172.431314 
L 119.868677 171.211046 
L 121.674575 169.559223 
L 123.480473 167.410892 
L 125.286371 164.741133 
L 127.092269 161.540929 
L 128.898167 157.790097 
L 130.704065 153.443519 
L 132.509963 148.440013 
L 134.315861 142.731208 
L 136.121759 136.317157 
L 138.830606 125.55641 
L 143.34535 106.081733 
L 146.957146 90.929477 
L 149.665993 80.444757 
L 153.277789 67.578418 
L 157.792534 52.537559 
L 160.501381 44.094292 
L 162.307279 39.027742 
L 164.113177 34.723191 
L 165.016126 32.944608 
L 165.919075 31.455884 
L 166.822024 30.280056 
L 167.724973 29.432282 
L 168.627922 28.919002 
L 169.530871 28.73784 
L 170.43382 28.878267 
L 171.336769 29.322963 
L 172.239718 30.049747 
L 173.142667 31.03387 
L 174.045616 32.250446 
L 175.851513 35.294243 
L 177.657411 39.057003 
L 179.463309 43.509922 
L 181.269207 48.709376 
L 183.075105 54.748572 
L 184.881003 61.689664 
L 186.686901 69.500219 
L 189.395748 82.446618 
L 193.910493 104.355657 
L 195.716391 112.04774 
L 197.522289 118.671447 
L 199.328187 124.133072 
L 201.134085 128.514832 
L 202.939983 132.043166 
L 204.745881 135.028149 
L 209.260626 142.104899 
L 211.066523 145.325353 
L 213.77537 150.767323 
L 221.901911 168.143889 
L 223.707809 171.284876 
L 225.513707 173.95114 
L 227.319605 176.141748 
L 229.125503 177.907844 
L 230.931401 179.336153 
L 233.640248 181.061375 
L 237.252044 182.984933 
L 240.86384 184.677149 
L 243.572687 185.726551 
L 246.281533 186.510572 
L 248.99038 187.020901 
L 251.699227 187.308505 
L 255.311023 187.474682 
L 258.01987 187.51755 
L 258.01987 187.51755 
" clip-path="url(#p53dc5e69a5)" style="fill: none; stroke: #de8f05; stroke-width: 2; stroke-linecap: round"/>
   </g>
   <g id="line2d_15">
    <path d="M 50.002773 187.52452 
L 56.562752 187.404048 
L 60.936072 187.144721 
L 71.869371 186.262594 
L 75.149361 186.304862 
L 82.802671 186.523448 
L 86.08266 186.296516 
L 89.36265 185.786929 
L 92.64264 184.977165 
L 94.8293 184.247035 
L 98.109289 182.858597 
L 104.669269 179.765981 
L 106.855929 178.98706 
L 110.135919 178.152374 
L 113.415908 177.368297 
L 115.602568 176.543309 
L 116.695898 175.954805 
L 117.789228 175.212484 
L 118.882558 174.291565 
L 119.975888 173.170145 
L 121.069218 171.829751 
L 122.162548 170.255802 
L 123.255878 168.437999 
L 124.349208 166.370656 
L 126.535868 161.489112 
L 128.722527 155.665169 
L 130.909187 149.030672 
L 134.189177 137.994808 
L 141.842487 110.604691 
L 147.309136 90.641564 
L 154.962446 62.180588 
L 157.149105 55.057475 
L 159.335765 48.912736 
L 161.522425 43.859107 
L 162.615755 41.732175 
L 163.709085 39.851797 
L 164.802415 38.198942 
L 165.895745 36.755722 
L 166.989075 35.508798 
L 168.082405 34.452142 
L 169.175735 33.588885 
L 170.269065 32.932161 
L 171.362395 32.504912 
L 172.455724 32.338782 
L 173.549054 32.472201 
L 174.642384 32.947817 
L 175.735714 33.809412 
L 176.829044 35.098434 
L 177.922374 36.850308 
L 179.015704 39.090736 
L 180.109034 41.832235 
L 181.202364 45.071247 
L 182.295694 48.786149 
L 184.482354 57.463747 
L 186.669013 67.339942 
L 192.135663 92.688231 
L 194.322323 101.637967 
L 196.508983 109.667201 
L 199.788973 120.550157 
L 207.442282 144.762612 
L 209.628942 151.120804 
L 211.815602 156.793032 
L 214.002262 161.646854 
L 216.188922 165.677176 
L 218.375581 168.956283 
L 220.562241 171.573687 
L 222.748901 173.608113 
L 224.935561 175.139056 
L 227.122221 176.272879 
L 230.402211 177.542056 
L 234.77553 179.14047 
L 239.14885 181.013822 
L 244.6155 183.382539 
L 248.988819 185.022022 
L 252.268809 186.013153 
L 255.548799 186.733955 
L 258.828789 187.177 
L 262.108778 187.401965 
L 267.575428 187.520508 
L 267.575428 187.520508 
" clip-path="url(#p53dc5e69a5)" style="fill: none; stroke: #0173b2; stroke-width: 2; stroke-linecap: round"/>
   </g>
   <g id="patch_3">
    <path d="M 38.4405 187.538437 
L 38.4405 20.798438 
" style="fill: none; stroke: #000000; stroke-linejoin: miter; stroke-linecap: square"/>
   </g>
   <g id="patch_4">
    <path d="M 292.8105 187.538437 
L 292.8105 20.798438 
" style="fill: none; stroke: #000000; stroke-linejoin: miter; stroke-linecap: square"/>
   </g>
   <g id="patch_5">
    <path d="M 38.4405 187.538437 
L 292.8105 187.538437 
" style="fill: none; stroke: #000000; stroke-linejoin: miter; stroke-linecap: square"/>
   </g>
   <g id="patch_6">
    <path d="M 38.4405 20.798437 
L 292.8105 20.798437 
" style="fill: none; stroke: #000000; stroke-linejoin: miter; stroke-linecap: square"/>
   </g>
   <g id="text_15">
    <!-- Bad -->
    <g style="fill: #ff0000" transform="translate(76.596 145.232187) scale(0.08 -0.08)">
     <defs>
      <path id="DejaVuSans-42" d="M 1259 2228 
L 1259 519 
L 2272 519 
Q 2781 519 3026 730 
Q 3272 941 3272 1375 
Q 3272 1813 3026 2020 
Q 2781 2228 2272 2228 
L 1259 2228 
z
M 1259 4147 
L 1259 2741 
L 2194 2741 
Q 2656 2741 2882 2914 
Q 3109 3088 3109 3444 
Q 3109 3797 2882 3972 
Q 2656 4147 2194 4147 
L 1259 4147 
z
M 628 4666 
L 2241 4666 
Q 2963 4666 3353 4366 
Q 3744 4066 3744 3513 
Q 3744 3084 3544 2831 
Q 3344 2578 2956 2516 
Q 3422 2416 3680 2098 
Q 3938 1781 3938 1306 
Q 3938 681 3513 340 
Q 3088 0 2303 0 
L 628 0 
L 628 4666 
z
" transform="scale(0.015625)"/>
      <path id="DejaVuSans-61" d="M 2194 1759 
Q 1497 1759 1228 1600 
Q 959 1441 959 1056 
Q 959 750 1161 570 
Q 1363 391 1709 391 
Q 2188 391 2477 730 
Q 2766 1069 2766 1631 
L 2766 1759 
L 2194 1759 
z
M 3341 1997 
L 3341 0 
L 2766 0 
L 2766 531 
Q 2569 213 2275 61 
Q 1981 -91 1556 -91 
Q 1019 -91 701 211 
Q 384 513 384 1019 
Q 384 1609 779 1909 
Q 1175 2209 1959 2209 
L 2766 2209 
L 2766 2266 
Q 2766 2663 2505 2880 
Q 2244 3097 1772 3097 
Q 1472 3097 1187 3025 
Q 903 2953 641 2809 
L 641 3341 
Q 956 3463 1253 3523 
Q 1550 3584 1831 3584 
Q 2591 3584 2966 3190 
Q 3341 2797 3341 1997 
z
" transform="scale(0.015625)"/>
      <path id="DejaVuSans-64" d="M 2906 2969 
L 2906 4863 
L 3481 4863 
L 3481 0 
L 2906 0 
L 2906 525 
Q 2725 213 2448 61 
Q 2172 -91 1784 -91 
Q 1150 -91 751 415 
Q 353 922 353 1747 
Q 353 2572 751 3078 
Q 1150 3584 1784 3584 
Q 2172 3584 2448 3432 
Q 2725 3281 2906 2969 
z
M 947 1747 
Q 947 1113 1208 752 
Q 1469 391 1925 391 
Q 2381 391 2643 752 
Q 2906 1113 2906 1747 
Q 2906 2381 2643 2742 
Q 2381 3103 1925 3103 
Q 1469 3103 1208 2742 
Q 947 2381 947 1747 
z
" transform="scale(0.015625)"/>
     </defs>
     <use xlink:href="#DejaVuSans-42"/>
     <use xlink:href="#DejaVuSans-61" x="68.603516"/>
     <use xlink:href="#DejaVuSans-64" x="129.882812"/>
    </g>
    <!-- examples -->
    <g style="fill: #ff0000" transform="translate(76.596 154.190437) scale(0.08 -0.08)">
     <defs>
      <path id="DejaVuSans-6d" d="M 3328 2828 
Q 3544 3216 3844 3400 
Q 4144 3584 4550 3584 
Q 5097 3584 5394 3201 
Q 5691 2819 5691 2113 
L 5691 0 
L 5113 0 
L 5113 2094 
Q 5113 2597 4934 2840 
Q 4756 3084 4391 3084 
Q 3944 3084 3684 2787 
Q 3425 2491 3425 1978 
L 3425 0 
L 2847 0 
L 2847 2094 
Q 2847 2600 2669 2842 
Q 2491 3084 2119 3084 
Q 1678 3084 1418 2786 
Q 1159 2488 1159 1978 
L 1159 0 
L 581 0 
L 581 3500 
L 1159 3500 
L 1159 2956 
Q 1356 3278 1631 3431 
Q 1906 3584 2284 3584 
Q 2666 3584 2933 3390 
Q 3200 3197 3328 2828 
z
" transform="scale(0.015625)"/>
      <path id="DejaVuSans-70" d="M 1159 525 
L 1159 -1331 
L 581 -1331 
L 581 3500 
L 1159 3500 
L 1159 2969 
Q 1341 3281 1617 3432 
Q 1894 3584 2278 3584 
Q 2916 3584 3314 3078 
Q 3713 2572 3713 1747 
Q 3713 922 3314 415 
Q 2916 -91 2278 -91 
Q 1894 -91 1617 61 
Q 1341 213 1159 525 
z
M 3116 1747 
Q 3116 2381 2855 2742 
Q 2594 3103 2138 3103 
Q 1681 3103 1420 2742 
Q 1159 2381 1159 1747 
Q 1159 1113 1420 752 
Q 1681 391 2138 391 
Q 2594 391 2855 752 
Q 3116 1113 3116 1747 
z
" transform="scale(0.015625)"/>
     </defs>
     <use xlink:href="#DejaVuSans-65"/>
     <use xlink:href="#DejaVuSans-78" x="59.773438"/>
     <use xlink:href="#DejaVuSans-61" x="118.953125"/>
     <use xlink:href="#DejaVuSans-6d" x="180.232422"/>
     <use xlink:href="#DejaVuSans-70" x="277.644531"/>
     <use xlink:href="#DejaVuSans-6c" x="341.121094"/>
     <use xlink:href="#DejaVuSans-65" x="368.904297"/>
     <use xlink:href="#DejaVuSans-73" x="430.427734"/>
    </g>
   </g>
   <g id="text_16">
    <!-- Good -->
    <g style="fill: #008000" transform="translate(241.9365 145.232187) scale(0.08 -0.08)">
     <defs>
      <path id="DejaVuSans-47" d="M 3809 666 
L 3809 1919 
L 2778 1919 
L 2778 2438 
L 4434 2438 
L 4434 434 
Q 4069 175 3628 42 
Q 3188 -91 2688 -91 
Q 1594 -91 976 548 
Q 359 1188 359 2328 
Q 359 3472 976 4111 
Q 1594 4750 2688 4750 
Q 3144 4750 3555 4637 
Q 3966 4525 4313 4306 
L 4313 3634 
Q 3963 3931 3569 4081 
Q 3175 4231 2741 4231 
Q 1884 4231 1454 3753 
Q 1025 3275 1025 2328 
Q 1025 1384 1454 906 
Q 1884 428 2741 428 
Q 3075 428 3337 486 
Q 3600 544 3809 666 
z
" transform="scale(0.015625)"/>
     </defs>
     <use xlink:href="#DejaVuSans-47"/>
     <use xlink:href="#DejaVuSans-6f" x="77.490234"/>
     <use xlink:href="#DejaVuSans-6f" x="138.671875"/>
     <use xlink:href="#DejaVuSans-64" x="199.853516"/>
    </g>
    <!-- examples -->
    <g style="fill: #008000" transform="translate(241.9365 154.190437) scale(0.08 -0.08)">
     <use xlink:href="#DejaVuSans-65"/>
     <use xlink:href="#DejaVuSans-78" x="59.773438"/>
     <use xlink:href="#DejaVuSans-61" x="118.953125"/>
     <use xlink:href="#DejaVuSans-6d" x="180.232422"/>
     <use xlink:href="#DejaVuSans-70" x="277.644531"/>
     <use xlink:href="#DejaVuSans-6c" x="341.121094"/>
     <use xlink:href="#DejaVuSans-65" x="368.904297"/>
     <use xlink:href="#DejaVuSans-73" x="430.427734"/>
    </g>
   </g>
   <g id="text_17">
    <!-- Hellaswag -->
    <g style="fill: #262626" transform="translate(140.014563 14.798437) scale(0.1 -0.1)">
     <defs>
      <path id="DejaVuSans-48" d="M 628 4666 
L 1259 4666 
L 1259 2753 
L 3553 2753 
L 3553 4666 
L 4184 4666 
L 4184 0 
L 3553 0 
L 3553 2222 
L 1259 2222 
L 1259 0 
L 628 0 
L 628 4666 
z
" transform="scale(0.015625)"/>
      <path id="DejaVuSans-77" d="M 269 3500 
L 844 3500 
L 1563 769 
L 2278 3500 
L 2956 3500 
L 3675 769 
L 4391 3500 
L 4966 3500 
L 4050 0 
L 3372 0 
L 2619 2869 
L 1863 0 
L 1184 0 
L 269 3500 
z
" transform="scale(0.015625)"/>
      <path id="DejaVuSans-67" d="M 2906 1791 
Q 2906 2416 2648 2759 
Q 2391 3103 1925 3103 
Q 1463 3103 1205 2759 
Q 947 2416 947 1791 
Q 947 1169 1205 825 
Q 1463 481 1925 481 
Q 2391 481 2648 825 
Q 2906 1169 2906 1791 
z
M 3481 434 
Q 3481 -459 3084 -895 
Q 2688 -1331 1869 -1331 
Q 1566 -1331 1297 -1286 
Q 1028 -1241 775 -1147 
L 775 -588 
Q 1028 -725 1275 -790 
Q 1522 -856 1778 -856 
Q 2344 -856 2625 -561 
Q 2906 -266 2906 331 
L 2906 616 
Q 2728 306 2450 153 
Q 2172 0 1784 0 
Q 1141 0 747 490 
Q 353 981 353 1791 
Q 353 2603 747 3093 
Q 1141 3584 1784 3584 
Q 2172 3584 2450 3431 
Q 2728 3278 2906 2969 
L 2906 3500 
L 3481 3500 
L 3481 434 
z
" transform="scale(0.015625)"/>
     </defs>
     <use xlink:href="#DejaVuSans-48"/>
     <use xlink:href="#DejaVuSans-65" x="75.195312"/>
     <use xlink:href="#DejaVuSans-6c" x="136.71875"/>
     <use xlink:href="#DejaVuSans-6c" x="164.501953"/>
     <use xlink:href="#DejaVuSans-61" x="192.285156"/>
     <use xlink:href="#DejaVuSans-73" x="253.564453"/>
     <use xlink:href="#DejaVuSans-77" x="305.664062"/>
     <use xlink:href="#DejaVuSans-61" x="387.451172"/>
     <use xlink:href="#DejaVuSans-67" x="448.730469"/>
    </g>
   </g>
  </g>
  <g id="legend_1">
   <g id="text_18">
    <!-- model -->
    <g style="fill: #262626" transform="translate(324.6575 94.922719) scale(0.096 -0.096)">
     <use xlink:href="#DejaVuSans-6d"/>
     <use xlink:href="#DejaVuSans-6f" x="97.412109"/>
     <use xlink:href="#DejaVuSans-64" x="158.59375"/>
     <use xlink:href="#DejaVuSans-65" x="222.070312"/>
     <use xlink:href="#DejaVuSans-6c" x="283.59375"/>
    </g>
   </g>
   <g id="line2d_16">
    <path d="M 307.278 104.925844 
L 316.078 104.925844 
L 324.878 104.925844 
" style="fill: none; stroke: #0173b2; stroke-width: 2; stroke-linecap: round"/>
   </g>
   <g id="text_19">
    <!-- OPT-6.7B -->
    <g style="fill: #262626" transform="translate(331.918 108.005844) scale(0.088 -0.088)">
     <defs>
      <path id="DejaVuSans-4f" d="M 2522 4238 
Q 1834 4238 1429 3725 
Q 1025 3213 1025 2328 
Q 1025 1447 1429 934 
Q 1834 422 2522 422 
Q 3209 422 3611 934 
Q 4013 1447 4013 2328 
Q 4013 3213 3611 3725 
Q 3209 4238 2522 4238 
z
M 2522 4750 
Q 3503 4750 4090 4092 
Q 4678 3434 4678 2328 
Q 4678 1225 4090 567 
Q 3503 -91 2522 -91 
Q 1538 -91 948 565 
Q 359 1222 359 2328 
Q 359 3434 948 4092 
Q 1538 4750 2522 4750 
z
" transform="scale(0.015625)"/>
      <path id="DejaVuSans-50" d="M 1259 4147 
L 1259 2394 
L 2053 2394 
Q 2494 2394 2734 2622 
Q 2975 2850 2975 3272 
Q 2975 3691 2734 3919 
Q 2494 4147 2053 4147 
L 1259 4147 
z
M 628 4666 
L 2053 4666 
Q 2838 4666 3239 4311 
Q 3641 3956 3641 3272 
Q 3641 2581 3239 2228 
Q 2838 1875 2053 1875 
L 1259 1875 
L 1259 0 
L 628 0 
L 628 4666 
z
" transform="scale(0.015625)"/>
      <path id="DejaVuSans-54" d="M -19 4666 
L 3928 4666 
L 3928 4134 
L 2272 4134 
L 2272 0 
L 1638 0 
L 1638 4134 
L -19 4134 
L -19 4666 
z
" transform="scale(0.015625)"/>
     </defs>
     <use xlink:href="#DejaVuSans-4f"/>
     <use xlink:href="#DejaVuSans-50" x="78.710938"/>
     <use xlink:href="#DejaVuSans-54" x="139.013672"/>
     <use xlink:href="#DejaVuSans-2d" x="190.972656"/>
     <use xlink:href="#DejaVuSans-36" x="227.056641"/>
     <use xlink:href="#DejaVuSans-2e" x="290.679688"/>
     <use xlink:href="#DejaVuSans-37" x="322.466797"/>
     <use xlink:href="#DejaVuSans-42" x="386.089844"/>
    </g>
   </g>
   <g id="line2d_17">
    <path d="M 307.278 117.842594 
L 316.078 117.842594 
L 324.878 117.842594 
" style="fill: none; stroke: #de8f05; stroke-width: 2; stroke-linecap: round"/>
   </g>
   <g id="text_20">
    <!-- OPT-13B -->
    <g style="fill: #262626" transform="translate(331.918 120.922594) scale(0.088 -0.088)">
     <use xlink:href="#DejaVuSans-4f"/>
     <use xlink:href="#DejaVuSans-50" x="78.710938"/>
     <use xlink:href="#DejaVuSans-54" x="139.013672"/>
     <use xlink:href="#DejaVuSans-2d" x="190.972656"/>
     <use xlink:href="#DejaVuSans-31" x="227.056641"/>
     <use xlink:href="#DejaVuSans-33" x="290.679688"/>
     <use xlink:href="#DejaVuSans-42" x="354.302734"/>
    </g>
   </g>
   <g id="line2d_18">
    <path d="M 307.278 130.759344 
L 316.078 130.759344 
L 324.878 130.759344 
" style="fill: none; stroke: #029e73; stroke-width: 2; stroke-linecap: round"/>
   </g>
   <g id="text_21">
    <!-- OPT-30B -->
    <g style="fill: #262626" transform="translate(331.918 133.839344) scale(0.088 -0.088)">
     <use xlink:href="#DejaVuSans-4f"/>
     <use xlink:href="#DejaVuSans-50" x="78.710938"/>
     <use xlink:href="#DejaVuSans-54" x="139.013672"/>
     <use xlink:href="#DejaVuSans-2d" x="190.972656"/>
     <use xlink:href="#DejaVuSans-33" x="227.056641"/>
     <use xlink:href="#DejaVuSans-30" x="290.679688"/>
     <use xlink:href="#DejaVuSans-42" x="354.302734"/>
    </g>
   </g>
  </g>
 </g>
 <defs>
  <clipPath id="p53dc5e69a5">
   <rect x="38.4405" y="20.798437" width="254.37" height="166.74"/>
  </clipPath>
 </defs>
</svg>
