<?xml version="1.0" encoding="utf-8" standalone="no"?>
<!DOCTYPE svg PUBLIC "-//W3C//DTD SVG 1.1//EN"
  "http://www.w3.org/Graphics/SVG/1.1/DTD/svg11.dtd">
<svg xmlns:xlink="http://www.w3.org/1999/xlink" width="361.478187pt" height="220.757149pt" viewBox="0 0 361.478187 220.757149" xmlns="http://www.w3.org/2000/svg" version="1.1">
 <metadata>
  <rdf:RDF xmlns:dc="http://purl.org/dc/elements/1.1/" xmlns:cc="http://creativecommons.org/ns#" xmlns:rdf="http://www.w3.org/1999/02/22-rdf-syntax-ns#">
   <cc:Work>
    <dc:type rdf:resource="http://purl.org/dc/dcmitype/StillImage"/>
    <dc:date>2023-04-01T07:18:13.026361</dc:date>
    <dc:format>image/svg+xml</dc:format>
    <dc:creator>
     <cc:Agent>
      <dc:title>Matplotlib v3.7.1, https://matplotlib.org/</dc:title>
     </cc:Agent>
    </dc:creator>
   </cc:Work>
  </rdf:RDF>
 </metadata>
 <defs>
  <style type="text/css">*{stroke-linejoin: round; stroke-linecap: butt}</style>
 </defs>
 <g id="figure_1">
  <g id="patch_1">
   <path d="M 0 220.757149 
L 361.478187 220.757149 
L 361.478187 0 
L 0 0 
L 0 220.757149 
z
" style="fill: none"/>
  </g>
  <g id="axes_1">
   <g id="patch_2">
    <path d="M 55.178188 184.030086 
L 354.278188 184.030086 
L 354.278188 20.038594 
L 55.178188 20.038594 
L 55.178188 184.030086 
z
" style="fill: none"/>
   </g>
   <g id="matplotlib.axis_1">
    <g id="xtick_1">
     <g id="line2d_1">
      <defs>
       <path id="m148f6a3028" d="M 0 0 
L 0 4.8 
" style="stroke: #262626"/>
      </defs>
      <g>
       <use xlink:href="#m148f6a3028" x="92.565688" y="184.030086" style="fill: #262626; stroke: #262626"/>
      </g>
     </g>
     <g id="text_1">
      <!-- 0 -->
      <g style="fill: #262626" transform="translate(89.766188 199.016711) scale(0.088 -0.088)">
       <defs>
        <path id="DejaVuSans-30" d="M 2034 4250 
Q 1547 4250 1301 3770 
Q 1056 3291 1056 2328 
Q 1056 1369 1301 889 
Q 1547 409 2034 409 
Q 2525 409 2770 889 
Q 3016 1369 3016 2328 
Q 3016 3291 2770 3770 
Q 2525 4250 2034 4250 
z
M 2034 4750 
Q 2819 4750 3233 4129 
Q 3647 3509 3647 2328 
Q 3647 1150 3233 529 
Q 2819 -91 2034 -91 
Q 1250 -91 836 529 
Q 422 1150 422 2328 
Q 422 3509 836 4129 
Q 1250 4750 2034 4750 
z
" transform="scale(0.015625)"/>
       </defs>
       <use xlink:href="#DejaVuSans-30"/>
      </g>
     </g>
    </g>
    <g id="xtick_2">
     <g id="line2d_2">
      <g>
       <use xlink:href="#m148f6a3028" x="167.340688" y="184.030086" style="fill: #262626; stroke: #262626"/>
      </g>
     </g>
     <g id="text_2">
      <!-- 1 -->
      <g style="fill: #262626" transform="translate(164.541188 199.016711) scale(0.088 -0.088)">
       <defs>
        <path id="DejaVuSans-31" d="M 794 531 
L 1825 531 
L 1825 4091 
L 703 3866 
L 703 4441 
L 1819 4666 
L 2450 4666 
L 2450 531 
L 3481 531 
L 3481 0 
L 794 0 
L 794 531 
z
" transform="scale(0.015625)"/>
       </defs>
       <use xlink:href="#DejaVuSans-31"/>
      </g>
     </g>
    </g>
    <g id="xtick_3">
     <g id="line2d_3">
      <g>
       <use xlink:href="#m148f6a3028" x="242.115688" y="184.030086" style="fill: #262626; stroke: #262626"/>
      </g>
     </g>
     <g id="text_3">
      <!-- 2 -->
      <g style="fill: #262626" transform="translate(239.316188 199.016711) scale(0.088 -0.088)">
       <defs>
        <path id="DejaVuSans-32" d="M 1228 531 
L 3431 531 
L 3431 0 
L 469 0 
L 469 531 
Q 828 903 1448 1529 
Q 2069 2156 2228 2338 
Q 2531 2678 2651 2914 
Q 2772 3150 2772 3378 
Q 2772 3750 2511 3984 
Q 2250 4219 1831 4219 
Q 1534 4219 1204 4116 
Q 875 4013 500 3803 
L 500 4441 
Q 881 4594 1212 4672 
Q 1544 4750 1819 4750 
Q 2544 4750 2975 4387 
Q 3406 4025 3406 3419 
Q 3406 3131 3298 2873 
Q 3191 2616 2906 2266 
Q 2828 2175 2409 1742 
Q 1991 1309 1228 531 
z
" transform="scale(0.015625)"/>
       </defs>
       <use xlink:href="#DejaVuSans-32"/>
      </g>
     </g>
    </g>
    <g id="xtick_4">
     <g id="line2d_4">
      <g>
       <use xlink:href="#m148f6a3028" x="316.890688" y="184.030086" style="fill: #262626; stroke: #262626"/>
      </g>
     </g>
     <g id="text_4">
      <!-- 3 -->
      <g style="fill: #262626" transform="translate(314.091187 199.016711) scale(0.088 -0.088)">
       <defs>
        <path id="DejaVuSans-33" d="M 2597 2516 
Q 3050 2419 3304 2112 
Q 3559 1806 3559 1356 
Q 3559 666 3084 287 
Q 2609 -91 1734 -91 
Q 1441 -91 1130 -33 
Q 819 25 488 141 
L 488 750 
Q 750 597 1062 519 
Q 1375 441 1716 441 
Q 2309 441 2620 675 
Q 2931 909 2931 1356 
Q 2931 1769 2642 2001 
Q 2353 2234 1838 2234 
L 1294 2234 
L 1294 2753 
L 1863 2753 
Q 2328 2753 2575 2939 
Q 2822 3125 2822 3475 
Q 2822 3834 2567 4026 
Q 2313 4219 1838 4219 
Q 1578 4219 1281 4162 
Q 984 4106 628 3988 
L 628 4550 
Q 988 4650 1302 4700 
Q 1616 4750 1894 4750 
Q 2613 4750 3031 4423 
Q 3450 4097 3450 3541 
Q 3450 3153 3228 2886 
Q 3006 2619 2597 2516 
z
" transform="scale(0.015625)"/>
       </defs>
       <use xlink:href="#DejaVuSans-33"/>
      </g>
     </g>
    </g>
    <g id="text_5">
     <!-- Position -->
     <g style="fill: #262626" transform="translate(187.210531 211.68543) scale(0.09 -0.09)">
      <defs>
       <path id="DejaVuSans-50" d="M 1259 4147 
L 1259 2394 
L 2053 2394 
Q 2494 2394 2734 2622 
Q 2975 2850 2975 3272 
Q 2975 3691 2734 3919 
Q 2494 4147 2053 4147 
L 1259 4147 
z
M 628 4666 
L 2053 4666 
Q 2838 4666 3239 4311 
Q 3641 3956 3641 3272 
Q 3641 2581 3239 2228 
Q 2838 1875 2053 1875 
L 1259 1875 
L 1259 0 
L 628 0 
L 628 4666 
z
" transform="scale(0.015625)"/>
       <path id="DejaVuSans-6f" d="M 1959 3097 
Q 1497 3097 1228 2736 
Q 959 2375 959 1747 
Q 959 1119 1226 758 
Q 1494 397 1959 397 
Q 2419 397 2687 759 
Q 2956 1122 2956 1747 
Q 2956 2369 2687 2733 
Q 2419 3097 1959 3097 
z
M 1959 3584 
Q 2709 3584 3137 3096 
Q 3566 2609 3566 1747 
Q 3566 888 3137 398 
Q 2709 -91 1959 -91 
Q 1206 -91 779 398 
Q 353 888 353 1747 
Q 353 2609 779 3096 
Q 1206 3584 1959 3584 
z
" transform="scale(0.015625)"/>
       <path id="DejaVuSans-73" d="M 2834 3397 
L 2834 2853 
Q 2591 2978 2328 3040 
Q 2066 3103 1784 3103 
Q 1356 3103 1142 2972 
Q 928 2841 928 2578 
Q 928 2378 1081 2264 
Q 1234 2150 1697 2047 
L 1894 2003 
Q 2506 1872 2764 1633 
Q 3022 1394 3022 966 
Q 3022 478 2636 193 
Q 2250 -91 1575 -91 
Q 1294 -91 989 -36 
Q 684 19 347 128 
L 347 722 
Q 666 556 975 473 
Q 1284 391 1588 391 
Q 1994 391 2212 530 
Q 2431 669 2431 922 
Q 2431 1156 2273 1281 
Q 2116 1406 1581 1522 
L 1381 1569 
Q 847 1681 609 1914 
Q 372 2147 372 2553 
Q 372 3047 722 3315 
Q 1072 3584 1716 3584 
Q 2034 3584 2315 3537 
Q 2597 3491 2834 3397 
z
" transform="scale(0.015625)"/>
       <path id="DejaVuSans-69" d="M 603 3500 
L 1178 3500 
L 1178 0 
L 603 0 
L 603 3500 
z
M 603 4863 
L 1178 4863 
L 1178 4134 
L 603 4134 
L 603 4863 
z
" transform="scale(0.015625)"/>
       <path id="DejaVuSans-74" d="M 1172 4494 
L 1172 3500 
L 2356 3500 
L 2356 3053 
L 1172 3053 
L 1172 1153 
Q 1172 725 1289 603 
Q 1406 481 1766 481 
L 2356 481 
L 2356 0 
L 1766 0 
Q 1100 0 847 248 
Q 594 497 594 1153 
L 594 3053 
L 172 3053 
L 172 3500 
L 594 3500 
L 594 4494 
L 1172 4494 
z
" transform="scale(0.015625)"/>
       <path id="DejaVuSans-6e" d="M 3513 2113 
L 3513 0 
L 2938 0 
L 2938 2094 
Q 2938 2591 2744 2837 
Q 2550 3084 2163 3084 
Q 1697 3084 1428 2787 
Q 1159 2491 1159 1978 
L 1159 0 
L 581 0 
L 581 3500 
L 1159 3500 
L 1159 2956 
Q 1366 3272 1645 3428 
Q 1925 3584 2291 3584 
Q 2894 3584 3203 3211 
Q 3513 2838 3513 2113 
z
" transform="scale(0.015625)"/>
      </defs>
      <use xlink:href="#DejaVuSans-50"/>
      <use xlink:href="#DejaVuSans-6f" x="56.677734"/>
      <use xlink:href="#DejaVuSans-73" x="117.859375"/>
      <use xlink:href="#DejaVuSans-69" x="169.958984"/>
      <use xlink:href="#DejaVuSans-74" x="197.742188"/>
      <use xlink:href="#DejaVuSans-69" x="236.951172"/>
      <use xlink:href="#DejaVuSans-6f" x="264.734375"/>
      <use xlink:href="#DejaVuSans-6e" x="325.916016"/>
     </g>
    </g>
   </g>
   <g id="matplotlib.axis_2">
    <g id="ytick_1">
     <g id="line2d_5">
      <defs>
       <path id="md26399d747" d="M 0 0 
L -4.8 0 
" style="stroke: #262626"/>
      </defs>
      <g>
       <use xlink:href="#md26399d747" x="55.178188" y="168.0993" style="fill: #262626; stroke: #262626"/>
      </g>
     </g>
     <g id="text_6">
      <!-- −0.20 -->
      <g style="fill: #262626" transform="translate(19.910313 171.442612) scale(0.088 -0.088)">
       <defs>
        <path id="DejaVuSans-2212" d="M 678 2272 
L 4684 2272 
L 4684 1741 
L 678 1741 
L 678 2272 
z
" transform="scale(0.015625)"/>
        <path id="DejaVuSans-2e" d="M 684 794 
L 1344 794 
L 1344 0 
L 684 0 
L 684 794 
z
" transform="scale(0.015625)"/>
       </defs>
       <use xlink:href="#DejaVuSans-2212"/>
       <use xlink:href="#DejaVuSans-30" x="83.789062"/>
       <use xlink:href="#DejaVuSans-2e" x="147.412109"/>
       <use xlink:href="#DejaVuSans-32" x="179.199219"/>
       <use xlink:href="#DejaVuSans-30" x="242.822266"/>
      </g>
     </g>
    </g>
    <g id="ytick_2">
     <g id="line2d_6">
      <g>
       <use xlink:href="#md26399d747" x="55.178188" y="147.221935" style="fill: #262626; stroke: #262626"/>
      </g>
     </g>
     <g id="text_7">
      <!-- −0.15 -->
      <g style="fill: #262626" transform="translate(19.910313 150.565247) scale(0.088 -0.088)">
       <defs>
        <path id="DejaVuSans-35" d="M 691 4666 
L 3169 4666 
L 3169 4134 
L 1269 4134 
L 1269 2991 
Q 1406 3038 1543 3061 
Q 1681 3084 1819 3084 
Q 2600 3084 3056 2656 
Q 3513 2228 3513 1497 
Q 3513 744 3044 326 
Q 2575 -91 1722 -91 
Q 1428 -91 1123 -41 
Q 819 9 494 109 
L 494 744 
Q 775 591 1075 516 
Q 1375 441 1709 441 
Q 2250 441 2565 725 
Q 2881 1009 2881 1497 
Q 2881 1984 2565 2268 
Q 2250 2553 1709 2553 
Q 1456 2553 1204 2497 
Q 953 2441 691 2322 
L 691 4666 
z
" transform="scale(0.015625)"/>
       </defs>
       <use xlink:href="#DejaVuSans-2212"/>
       <use xlink:href="#DejaVuSans-30" x="83.789062"/>
       <use xlink:href="#DejaVuSans-2e" x="147.412109"/>
       <use xlink:href="#DejaVuSans-31" x="179.199219"/>
       <use xlink:href="#DejaVuSans-35" x="242.822266"/>
      </g>
     </g>
    </g>
    <g id="ytick_3">
     <g id="line2d_7">
      <g>
       <use xlink:href="#md26399d747" x="55.178188" y="126.34457" style="fill: #262626; stroke: #262626"/>
      </g>
     </g>
     <g id="text_8">
      <!-- −0.10 -->
      <g style="fill: #262626" transform="translate(19.910313 129.687882) scale(0.088 -0.088)">
       <use xlink:href="#DejaVuSans-2212"/>
       <use xlink:href="#DejaVuSans-30" x="83.789062"/>
       <use xlink:href="#DejaVuSans-2e" x="147.412109"/>
       <use xlink:href="#DejaVuSans-31" x="179.199219"/>
       <use xlink:href="#DejaVuSans-30" x="242.822266"/>
      </g>
     </g>
    </g>
    <g id="ytick_4">
     <g id="line2d_8">
      <g>
       <use xlink:href="#md26399d747" x="55.178188" y="105.467205" style="fill: #262626; stroke: #262626"/>
      </g>
     </g>
     <g id="text_9">
      <!-- −0.05 -->
      <g style="fill: #262626" transform="translate(19.910313 108.810518) scale(0.088 -0.088)">
       <use xlink:href="#DejaVuSans-2212"/>
       <use xlink:href="#DejaVuSans-30" x="83.789062"/>
       <use xlink:href="#DejaVuSans-2e" x="147.412109"/>
       <use xlink:href="#DejaVuSans-30" x="179.199219"/>
       <use xlink:href="#DejaVuSans-35" x="242.822266"/>
      </g>
     </g>
    </g>
    <g id="ytick_5">
     <g id="line2d_9">
      <g>
       <use xlink:href="#md26399d747" x="55.178188" y="84.58984" style="fill: #262626; stroke: #262626"/>
      </g>
     </g>
     <g id="text_10">
      <!-- 0.00 -->
      <g style="fill: #262626" transform="translate(27.284438 87.933153) scale(0.088 -0.088)">
       <use xlink:href="#DejaVuSans-30"/>
       <use xlink:href="#DejaVuSans-2e" x="63.623047"/>
       <use xlink:href="#DejaVuSans-30" x="95.410156"/>
       <use xlink:href="#DejaVuSans-30" x="159.033203"/>
      </g>
     </g>
    </g>
    <g id="ytick_6">
     <g id="line2d_10">
      <g>
       <use xlink:href="#md26399d747" x="55.178188" y="63.712475" style="fill: #262626; stroke: #262626"/>
      </g>
     </g>
     <g id="text_11">
      <!-- 0.05 -->
      <g style="fill: #262626" transform="translate(27.284438 67.055788) scale(0.088 -0.088)">
       <use xlink:href="#DejaVuSans-30"/>
       <use xlink:href="#DejaVuSans-2e" x="63.623047"/>
       <use xlink:href="#DejaVuSans-30" x="95.410156"/>
       <use xlink:href="#DejaVuSans-35" x="159.033203"/>
      </g>
     </g>
    </g>
    <g id="ytick_7">
     <g id="line2d_11">
      <g>
       <use xlink:href="#md26399d747" x="55.178188" y="42.83511" style="fill: #262626; stroke: #262626"/>
      </g>
     </g>
     <g id="text_12">
      <!-- 0.10 -->
      <g style="fill: #262626" transform="translate(27.284438 46.178423) scale(0.088 -0.088)">
       <use xlink:href="#DejaVuSans-30"/>
       <use xlink:href="#DejaVuSans-2e" x="63.623047"/>
       <use xlink:href="#DejaVuSans-31" x="95.410156"/>
       <use xlink:href="#DejaVuSans-30" x="159.033203"/>
      </g>
     </g>
    </g>
    <g id="ytick_8">
     <g id="line2d_12">
      <g>
       <use xlink:href="#md26399d747" x="55.178188" y="21.957746" style="fill: #262626; stroke: #262626"/>
      </g>
     </g>
     <g id="text_13">
      <!-- 0.15 -->
      <g style="fill: #262626" transform="translate(27.284438 25.301058) scale(0.088 -0.088)">
       <use xlink:href="#DejaVuSans-30"/>
       <use xlink:href="#DejaVuSans-2e" x="63.623047"/>
       <use xlink:href="#DejaVuSans-31" x="95.410156"/>
       <use xlink:href="#DejaVuSans-35" x="159.033203"/>
      </g>
     </g>
    </g>
    <g id="text_14">
     <!-- Influence -->
     <g style="fill: #262626" transform="translate(14.038594 122.763871) rotate(-90) scale(0.09 -0.09)">
      <defs>
       <path id="DejaVuSans-49" d="M 628 4666 
L 1259 4666 
L 1259 0 
L 628 0 
L 628 4666 
z
" transform="scale(0.015625)"/>
       <path id="DejaVuSans-66" d="M 2375 4863 
L 2375 4384 
L 1825 4384 
Q 1516 4384 1395 4259 
Q 1275 4134 1275 3809 
L 1275 3500 
L 2222 3500 
L 2222 3053 
L 1275 3053 
L 1275 0 
L 697 0 
L 697 3053 
L 147 3053 
L 147 3500 
L 697 3500 
L 697 3744 
Q 697 4328 969 4595 
Q 1241 4863 1831 4863 
L 2375 4863 
z
" transform="scale(0.015625)"/>
       <path id="DejaVuSans-6c" d="M 603 4863 
L 1178 4863 
L 1178 0 
L 603 0 
L 603 4863 
z
" transform="scale(0.015625)"/>
       <path id="DejaVuSans-75" d="M 544 1381 
L 544 3500 
L 1119 3500 
L 1119 1403 
Q 1119 906 1312 657 
Q 1506 409 1894 409 
Q 2359 409 2629 706 
Q 2900 1003 2900 1516 
L 2900 3500 
L 3475 3500 
L 3475 0 
L 2900 0 
L 2900 538 
Q 2691 219 2414 64 
Q 2138 -91 1772 -91 
Q 1169 -91 856 284 
Q 544 659 544 1381 
z
M 1991 3584 
L 1991 3584 
z
" transform="scale(0.015625)"/>
       <path id="DejaVuSans-65" d="M 3597 1894 
L 3597 1613 
L 953 1613 
Q 991 1019 1311 708 
Q 1631 397 2203 397 
Q 2534 397 2845 478 
Q 3156 559 3463 722 
L 3463 178 
Q 3153 47 2828 -22 
Q 2503 -91 2169 -91 
Q 1331 -91 842 396 
Q 353 884 353 1716 
Q 353 2575 817 3079 
Q 1281 3584 2069 3584 
Q 2775 3584 3186 3129 
Q 3597 2675 3597 1894 
z
M 3022 2063 
Q 3016 2534 2758 2815 
Q 2500 3097 2075 3097 
Q 1594 3097 1305 2825 
Q 1016 2553 972 2059 
L 3022 2063 
z
" transform="scale(0.015625)"/>
       <path id="DejaVuSans-63" d="M 3122 3366 
L 3122 2828 
Q 2878 2963 2633 3030 
Q 2388 3097 2138 3097 
Q 1578 3097 1268 2742 
Q 959 2388 959 1747 
Q 959 1106 1268 751 
Q 1578 397 2138 397 
Q 2388 397 2633 464 
Q 2878 531 3122 666 
L 3122 134 
Q 2881 22 2623 -34 
Q 2366 -91 2075 -91 
Q 1284 -91 818 406 
Q 353 903 353 1747 
Q 353 2603 823 3093 
Q 1294 3584 2113 3584 
Q 2378 3584 2631 3529 
Q 2884 3475 3122 3366 
z
" transform="scale(0.015625)"/>
      </defs>
      <use xlink:href="#DejaVuSans-49"/>
      <use xlink:href="#DejaVuSans-6e" x="29.492188"/>
      <use xlink:href="#DejaVuSans-66" x="92.871094"/>
      <use xlink:href="#DejaVuSans-6c" x="128.076172"/>
      <use xlink:href="#DejaVuSans-75" x="155.859375"/>
      <use xlink:href="#DejaVuSans-65" x="219.238281"/>
      <use xlink:href="#DejaVuSans-6e" x="280.761719"/>
      <use xlink:href="#DejaVuSans-63" x="344.140625"/>
      <use xlink:href="#DejaVuSans-65" x="399.121094"/>
     </g>
    </g>
   </g>
   <g id="patch_3">
    <path d="M 62.655688 94.374644 
L 122.475688 94.374644 
L 122.475688 68.124802 
L 62.655688 68.124802 
L 62.655688 94.374644 
z
" clip-path="url(#pb5a904903a)" style="fill: #176d9c; stroke: #303030; stroke-width: 1.2; stroke-linejoin: miter"/>
   </g>
   <g id="patch_4">
    <path d="M 137.430688 93.515227 
L 197.250688 93.515227 
L 197.250688 65.350409 
L 137.430688 65.350409 
L 137.430688 93.515227 
z
" clip-path="url(#pb5a904903a)" style="fill: #c38820; stroke: #303030; stroke-width: 1.2; stroke-linejoin: miter"/>
   </g>
   <g id="patch_5">
    <path d="M 212.205688 94.714631 
L 272.025688 94.714631 
L 272.025688 65.473168 
L 212.205688 65.473168 
L 212.205688 94.714631 
z
" clip-path="url(#pb5a904903a)" style="fill: #158b6a; stroke: #303030; stroke-width: 1.2; stroke-linejoin: miter"/>
   </g>
   <g id="patch_6">
    <path d="M 286.980688 96.06738 
L 346.800688 96.06738 
L 346.800688 59.975949 
L 286.980688 59.975949 
L 286.980688 96.06738 
z
" clip-path="url(#pb5a904903a)" style="fill: #ba611b; stroke: #303030; stroke-width: 1.2; stroke-linejoin: miter"/>
   </g>
   <g id="line2d_13">
    <path d="M 92.565688 94.374644 
L 92.565688 133.05372 
" clip-path="url(#pb5a904903a)" style="fill: none; stroke: #303030; stroke-width: 1.2; stroke-linecap: round"/>
   </g>
   <g id="line2d_14">
    <path d="M 92.565688 68.124802 
L 92.565688 43.975432 
" clip-path="url(#pb5a904903a)" style="fill: none; stroke: #303030; stroke-width: 1.2; stroke-linecap: round"/>
   </g>
   <g id="line2d_15">
    <path d="M 77.610688 133.05372 
L 107.520688 133.05372 
" clip-path="url(#pb5a904903a)" style="fill: none; stroke: #303030; stroke-width: 1.2; stroke-linecap: round"/>
   </g>
   <g id="line2d_16">
    <path d="M 77.610688 43.975432 
L 107.520688 43.975432 
" clip-path="url(#pb5a904903a)" style="fill: none; stroke: #303030; stroke-width: 1.2; stroke-linecap: round"/>
   </g>
   <g id="line2d_17">
    <defs>
     <path id="m2de8fcc884" d="M -0 3.535534 
L 2.12132 0 
L -0 -3.535534 
L -2.12132 -0 
z
" style="stroke: #303030; stroke-linejoin: miter"/>
    </defs>
    <g clip-path="url(#pb5a904903a)">
     <use xlink:href="#m2de8fcc884" x="92.565688" y="155.018796" style="fill: #303030; stroke: #303030; stroke-linejoin: miter"/>
     <use xlink:href="#m2de8fcc884" x="92.565688" y="163.253246" style="fill: #303030; stroke: #303030; stroke-linejoin: miter"/>
     <use xlink:href="#m2de8fcc884" x="92.565688" y="165.069994" style="fill: #303030; stroke: #303030; stroke-linejoin: miter"/>
     <use xlink:href="#m2de8fcc884" x="92.565688" y="138.053431" style="fill: #303030; stroke: #303030; stroke-linejoin: miter"/>
     <use xlink:href="#m2de8fcc884" x="92.565688" y="139.051369" style="fill: #303030; stroke: #303030; stroke-linejoin: miter"/>
     <use xlink:href="#m2de8fcc884" x="92.565688" y="142.420976" style="fill: #303030; stroke: #303030; stroke-linejoin: miter"/>
     <use xlink:href="#m2de8fcc884" x="92.565688" y="167.587804" style="fill: #303030; stroke: #303030; stroke-linejoin: miter"/>
     <use xlink:href="#m2de8fcc884" x="92.565688" y="163.331745" style="fill: #303030; stroke: #303030; stroke-linejoin: miter"/>
     <use xlink:href="#m2de8fcc884" x="92.565688" y="135.187387" style="fill: #303030; stroke: #303030; stroke-linejoin: miter"/>
     <use xlink:href="#m2de8fcc884" x="92.565688" y="159.814744" style="fill: #303030; stroke: #303030; stroke-linejoin: miter"/>
     <use xlink:href="#m2de8fcc884" x="92.565688" y="162.329214" style="fill: #303030; stroke: #303030; stroke-linejoin: miter"/>
     <use xlink:href="#m2de8fcc884" x="92.565688" y="136.40746" style="fill: #303030; stroke: #303030; stroke-linejoin: miter"/>
     <use xlink:href="#m2de8fcc884" x="92.565688" y="136.40746" style="fill: #303030; stroke: #303030; stroke-linejoin: miter"/>
     <use xlink:href="#m2de8fcc884" x="92.565688" y="158.602604" style="fill: #303030; stroke: #303030; stroke-linejoin: miter"/>
     <use xlink:href="#m2de8fcc884" x="92.565688" y="152.558607" style="fill: #303030; stroke: #303030; stroke-linejoin: miter"/>
     <use xlink:href="#m2de8fcc884" x="92.565688" y="160.463195" style="fill: #303030; stroke: #303030; stroke-linejoin: miter"/>
     <use xlink:href="#m2de8fcc884" x="92.565688" y="153.352364" style="fill: #303030; stroke: #303030; stroke-linejoin: miter"/>
     <use xlink:href="#m2de8fcc884" x="92.565688" y="148.898805" style="fill: #303030; stroke: #303030; stroke-linejoin: miter"/>
     <use xlink:href="#m2de8fcc884" x="92.565688" y="158.530368" style="fill: #303030; stroke: #303030; stroke-linejoin: miter"/>
     <use xlink:href="#m2de8fcc884" x="92.565688" y="157.709053" style="fill: #303030; stroke: #303030; stroke-linejoin: miter"/>
     <use xlink:href="#m2de8fcc884" x="92.565688" y="157.739116" style="fill: #303030; stroke: #303030; stroke-linejoin: miter"/>
     <use xlink:href="#m2de8fcc884" x="92.565688" y="156.692743" style="fill: #303030; stroke: #303030; stroke-linejoin: miter"/>
     <use xlink:href="#m2de8fcc884" x="92.565688" y="137.715218" style="fill: #303030; stroke: #303030; stroke-linejoin: miter"/>
     <use xlink:href="#m2de8fcc884" x="92.565688" y="133.800712" style="fill: #303030; stroke: #303030; stroke-linejoin: miter"/>
     <use xlink:href="#m2de8fcc884" x="92.565688" y="135.075066" style="fill: #303030; stroke: #303030; stroke-linejoin: miter"/>
    </g>
   </g>
   <g id="line2d_18">
    <path d="M 167.340688 93.515227 
L 167.340688 131.292505 
" clip-path="url(#pb5a904903a)" style="fill: none; stroke: #303030; stroke-width: 1.2; stroke-linecap: round"/>
   </g>
   <g id="line2d_19">
    <path d="M 167.340688 65.350409 
L 167.340688 35.126352 
" clip-path="url(#pb5a904903a)" style="fill: none; stroke: #303030; stroke-width: 1.2; stroke-linecap: round"/>
   </g>
   <g id="line2d_20">
    <path d="M 152.385688 131.292505 
L 182.295688 131.292505 
" clip-path="url(#pb5a904903a)" style="fill: none; stroke: #303030; stroke-width: 1.2; stroke-linecap: round"/>
   </g>
   <g id="line2d_21">
    <path d="M 152.385688 35.126352 
L 182.295688 35.126352 
" clip-path="url(#pb5a904903a)" style="fill: none; stroke: #303030; stroke-width: 1.2; stroke-linecap: round"/>
   </g>
   <g id="line2d_22">
    <g clip-path="url(#pb5a904903a)">
     <use xlink:href="#m2de8fcc884" x="167.340688" y="169.325219" style="fill: #303030; stroke: #303030; stroke-linejoin: miter"/>
     <use xlink:href="#m2de8fcc884" x="167.340688" y="169.878886" style="fill: #303030; stroke: #303030; stroke-linejoin: miter"/>
     <use xlink:href="#m2de8fcc884" x="167.340688" y="151.526847" style="fill: #303030; stroke: #303030; stroke-linejoin: miter"/>
     <use xlink:href="#m2de8fcc884" x="167.340688" y="176.226858" style="fill: #303030; stroke: #303030; stroke-linejoin: miter"/>
     <use xlink:href="#m2de8fcc884" x="167.340688" y="153.825863" style="fill: #303030; stroke: #303030; stroke-linejoin: miter"/>
     <use xlink:href="#m2de8fcc884" x="167.340688" y="153.42293" style="fill: #303030; stroke: #303030; stroke-linejoin: miter"/>
     <use xlink:href="#m2de8fcc884" x="167.340688" y="136.783252" style="fill: #303030; stroke: #303030; stroke-linejoin: miter"/>
     <use xlink:href="#m2de8fcc884" x="167.340688" y="153.752375" style="fill: #303030; stroke: #303030; stroke-linejoin: miter"/>
     <use xlink:href="#m2de8fcc884" x="167.340688" y="153.57951" style="fill: #303030; stroke: #303030; stroke-linejoin: miter"/>
     <use xlink:href="#m2de8fcc884" x="167.340688" y="172.415904" style="fill: #303030; stroke: #303030; stroke-linejoin: miter"/>
     <use xlink:href="#m2de8fcc884" x="167.340688" y="137.270948" style="fill: #303030; stroke: #303030; stroke-linejoin: miter"/>
     <use xlink:href="#m2de8fcc884" x="167.340688" y="153.457586" style="fill: #303030; stroke: #303030; stroke-linejoin: miter"/>
     <use xlink:href="#m2de8fcc884" x="167.340688" y="154.415022" style="fill: #303030; stroke: #303030; stroke-linejoin: miter"/>
     <use xlink:href="#m2de8fcc884" x="167.340688" y="151.216192" style="fill: #303030; stroke: #303030; stroke-linejoin: miter"/>
     <use xlink:href="#m2de8fcc884" x="167.340688" y="166.810749" style="fill: #303030; stroke: #303030; stroke-linejoin: miter"/>
     <use xlink:href="#m2de8fcc884" x="167.340688" y="142.561689" style="fill: #303030; stroke: #303030; stroke-linejoin: miter"/>
     <use xlink:href="#m2de8fcc884" x="167.340688" y="158.030564" style="fill: #303030; stroke: #303030; stroke-linejoin: miter"/>
     <use xlink:href="#m2de8fcc884" x="167.340688" y="148.731786" style="fill: #303030; stroke: #303030; stroke-linejoin: miter"/>
     <use xlink:href="#m2de8fcc884" x="167.340688" y="142.295294" style="fill: #303030; stroke: #303030; stroke-linejoin: miter"/>
     <use xlink:href="#m2de8fcc884" x="167.340688" y="155.526533" style="fill: #303030; stroke: #303030; stroke-linejoin: miter"/>
     <use xlink:href="#m2de8fcc884" x="167.340688" y="159.683634" style="fill: #303030; stroke: #303030; stroke-linejoin: miter"/>
     <use xlink:href="#m2de8fcc884" x="167.340688" y="138.814202" style="fill: #303030; stroke: #303030; stroke-linejoin: miter"/>
     <use xlink:href="#m2de8fcc884" x="167.340688" y="147.376845" style="fill: #303030; stroke: #303030; stroke-linejoin: miter"/>
     <use xlink:href="#m2de8fcc884" x="167.340688" y="143.741678" style="fill: #303030; stroke: #303030; stroke-linejoin: miter"/>
     <use xlink:href="#m2de8fcc884" x="167.340688" y="145.521265" style="fill: #303030; stroke: #303030; stroke-linejoin: miter"/>
     <use xlink:href="#m2de8fcc884" x="167.340688" y="148.586897" style="fill: #303030; stroke: #303030; stroke-linejoin: miter"/>
     <use xlink:href="#m2de8fcc884" x="167.340688" y="168.880531" style="fill: #303030; stroke: #303030; stroke-linejoin: miter"/>
     <use xlink:href="#m2de8fcc884" x="167.340688" y="162.315852" style="fill: #303030; stroke: #303030; stroke-linejoin: miter"/>
     <use xlink:href="#m2de8fcc884" x="167.340688" y="156.640132" style="fill: #303030; stroke: #303030; stroke-linejoin: miter"/>
     <use xlink:href="#m2de8fcc884" x="167.340688" y="169.999557" style="fill: #303030; stroke: #303030; stroke-linejoin: miter"/>
     <use xlink:href="#m2de8fcc884" x="167.340688" y="143.131224" style="fill: #303030; stroke: #303030; stroke-linejoin: miter"/>
     <use xlink:href="#m2de8fcc884" x="167.340688" y="156.058071" style="fill: #303030; stroke: #303030; stroke-linejoin: miter"/>
     <use xlink:href="#m2de8fcc884" x="167.340688" y="157.163736" style="fill: #303030; stroke: #303030; stroke-linejoin: miter"/>
     <use xlink:href="#m2de8fcc884" x="167.340688" y="153.344431" style="fill: #303030; stroke: #303030; stroke-linejoin: miter"/>
     <use xlink:href="#m2de8fcc884" x="167.340688" y="164.451607" style="fill: #303030; stroke: #303030; stroke-linejoin: miter"/>
     <use xlink:href="#m2de8fcc884" x="167.340688" y="155.141137" style="fill: #303030; stroke: #303030; stroke-linejoin: miter"/>
     <use xlink:href="#m2de8fcc884" x="167.340688" y="143.520378" style="fill: #303030; stroke: #303030; stroke-linejoin: miter"/>
     <use xlink:href="#m2de8fcc884" x="167.340688" y="168.485113" style="fill: #303030; stroke: #303030; stroke-linejoin: miter"/>
     <use xlink:href="#m2de8fcc884" x="167.340688" y="146.025662" style="fill: #303030; stroke: #303030; stroke-linejoin: miter"/>
     <use xlink:href="#m2de8fcc884" x="167.340688" y="153.502264" style="fill: #303030; stroke: #303030; stroke-linejoin: miter"/>
     <use xlink:href="#m2de8fcc884" x="167.340688" y="138.820466" style="fill: #303030; stroke: #303030; stroke-linejoin: miter"/>
     <use xlink:href="#m2de8fcc884" x="167.340688" y="142.731214" style="fill: #303030; stroke: #303030; stroke-linejoin: miter"/>
     <use xlink:href="#m2de8fcc884" x="167.340688" y="143.588438" style="fill: #303030; stroke: #303030; stroke-linejoin: miter"/>
     <use xlink:href="#m2de8fcc884" x="167.340688" y="137.163638" style="fill: #303030; stroke: #303030; stroke-linejoin: miter"/>
     <use xlink:href="#m2de8fcc884" x="167.340688" y="163.70545" style="fill: #303030; stroke: #303030; stroke-linejoin: miter"/>
     <use xlink:href="#m2de8fcc884" x="167.340688" y="157.773355" style="fill: #303030; stroke: #303030; stroke-linejoin: miter"/>
    </g>
   </g>
   <g id="line2d_23">
    <path d="M 242.115688 94.714631 
L 242.115688 137.747787 
" clip-path="url(#pb5a904903a)" style="fill: none; stroke: #303030; stroke-width: 1.2; stroke-linecap: round"/>
   </g>
   <g id="line2d_24">
    <path d="M 242.115688 65.473168 
L 242.115688 32.868674 
" clip-path="url(#pb5a904903a)" style="fill: none; stroke: #303030; stroke-width: 1.2; stroke-linecap: round"/>
   </g>
   <g id="line2d_25">
    <path d="M 227.160688 137.747787 
L 257.070688 137.747787 
" clip-path="url(#pb5a904903a)" style="fill: none; stroke: #303030; stroke-width: 1.2; stroke-linecap: round"/>
   </g>
   <g id="line2d_26">
    <path d="M 227.160688 32.868674 
L 257.070688 32.868674 
" clip-path="url(#pb5a904903a)" style="fill: none; stroke: #303030; stroke-width: 1.2; stroke-linecap: round"/>
   </g>
   <g id="line2d_27">
    <g clip-path="url(#pb5a904903a)">
     <use xlink:href="#m2de8fcc884" x="242.115688" y="152.430837" style="fill: #303030; stroke: #303030; stroke-linejoin: miter"/>
     <use xlink:href="#m2de8fcc884" x="242.115688" y="173.683577" style="fill: #303030; stroke: #303030; stroke-linejoin: miter"/>
     <use xlink:href="#m2de8fcc884" x="242.115688" y="157.999666" style="fill: #303030; stroke: #303030; stroke-linejoin: miter"/>
     <use xlink:href="#m2de8fcc884" x="242.115688" y="154.629641" style="fill: #303030; stroke: #303030; stroke-linejoin: miter"/>
     <use xlink:href="#m2de8fcc884" x="242.115688" y="160.535848" style="fill: #303030; stroke: #303030; stroke-linejoin: miter"/>
     <use xlink:href="#m2de8fcc884" x="242.115688" y="164.379371" style="fill: #303030; stroke: #303030; stroke-linejoin: miter"/>
     <use xlink:href="#m2de8fcc884" x="242.115688" y="162.286206" style="fill: #303030; stroke: #303030; stroke-linejoin: miter"/>
     <use xlink:href="#m2de8fcc884" x="242.115688" y="148.360586" style="fill: #303030; stroke: #303030; stroke-linejoin: miter"/>
     <use xlink:href="#m2de8fcc884" x="242.115688" y="171.137791" style="fill: #303030; stroke: #303030; stroke-linejoin: miter"/>
     <use xlink:href="#m2de8fcc884" x="242.115688" y="146.110006" style="fill: #303030; stroke: #303030; stroke-linejoin: miter"/>
     <use xlink:href="#m2de8fcc884" x="242.115688" y="163.102511" style="fill: #303030; stroke: #303030; stroke-linejoin: miter"/>
     <use xlink:href="#m2de8fcc884" x="242.115688" y="167.669644" style="fill: #303030; stroke: #303030; stroke-linejoin: miter"/>
     <use xlink:href="#m2de8fcc884" x="242.115688" y="142.78299" style="fill: #303030; stroke: #303030; stroke-linejoin: miter"/>
     <use xlink:href="#m2de8fcc884" x="242.115688" y="149.660829" style="fill: #303030; stroke: #303030; stroke-linejoin: miter"/>
     <use xlink:href="#m2de8fcc884" x="242.115688" y="174.821811" style="fill: #303030; stroke: #303030; stroke-linejoin: miter"/>
     <use xlink:href="#m2de8fcc884" x="242.115688" y="139.54658" style="fill: #303030; stroke: #303030; stroke-linejoin: miter"/>
     <use xlink:href="#m2de8fcc884" x="242.115688" y="150.939776" style="fill: #303030; stroke: #303030; stroke-linejoin: miter"/>
     <use xlink:href="#m2de8fcc884" x="242.115688" y="169.91229" style="fill: #303030; stroke: #303030; stroke-linejoin: miter"/>
     <use xlink:href="#m2de8fcc884" x="242.115688" y="141.823466" style="fill: #303030; stroke: #303030; stroke-linejoin: miter"/>
     <use xlink:href="#m2de8fcc884" x="242.115688" y="154.155308" style="fill: #303030; stroke: #303030; stroke-linejoin: miter"/>
     <use xlink:href="#m2de8fcc884" x="242.115688" y="162.240694" style="fill: #303030; stroke: #303030; stroke-linejoin: miter"/>
     <use xlink:href="#m2de8fcc884" x="242.115688" y="165.442446" style="fill: #303030; stroke: #303030; stroke-linejoin: miter"/>
     <use xlink:href="#m2de8fcc884" x="242.115688" y="139.157844" style="fill: #303030; stroke: #303030; stroke-linejoin: miter"/>
     <use xlink:href="#m2de8fcc884" x="242.115688" y="151.003661" style="fill: #303030; stroke: #303030; stroke-linejoin: miter"/>
     <use xlink:href="#m2de8fcc884" x="242.115688" y="160.088237" style="fill: #303030; stroke: #303030; stroke-linejoin: miter"/>
     <use xlink:href="#m2de8fcc884" x="242.115688" y="144.945885" style="fill: #303030; stroke: #303030; stroke-linejoin: miter"/>
     <use xlink:href="#m2de8fcc884" x="242.115688" y="152.998702" style="fill: #303030; stroke: #303030; stroke-linejoin: miter"/>
     <use xlink:href="#m2de8fcc884" x="242.115688" y="165.805295" style="fill: #303030; stroke: #303030; stroke-linejoin: miter"/>
     <use xlink:href="#m2de8fcc884" x="242.115688" y="163.831549" style="fill: #303030; stroke: #303030; stroke-linejoin: miter"/>
     <use xlink:href="#m2de8fcc884" x="242.115688" y="163.99982" style="fill: #303030; stroke: #303030; stroke-linejoin: miter"/>
     <use xlink:href="#m2de8fcc884" x="242.115688" y="147.00314" style="fill: #303030; stroke: #303030; stroke-linejoin: miter"/>
     <use xlink:href="#m2de8fcc884" x="242.115688" y="152.355261" style="fill: #303030; stroke: #303030; stroke-linejoin: miter"/>
     <use xlink:href="#m2de8fcc884" x="242.115688" y="144.68283" style="fill: #303030; stroke: #303030; stroke-linejoin: miter"/>
     <use xlink:href="#m2de8fcc884" x="242.115688" y="157.650179" style="fill: #303030; stroke: #303030; stroke-linejoin: miter"/>
     <use xlink:href="#m2de8fcc884" x="242.115688" y="163.437802" style="fill: #303030; stroke: #303030; stroke-linejoin: miter"/>
     <use xlink:href="#m2de8fcc884" x="242.115688" y="141.448508" style="fill: #303030; stroke: #303030; stroke-linejoin: miter"/>
     <use xlink:href="#m2de8fcc884" x="242.115688" y="145.861566" style="fill: #303030; stroke: #303030; stroke-linejoin: miter"/>
     <use xlink:href="#m2de8fcc884" x="242.115688" y="168.476762" style="fill: #303030; stroke: #303030; stroke-linejoin: miter"/>
    </g>
   </g>
   <g id="line2d_28">
    <path d="M 316.890688 96.06738 
L 316.890688 149.831605 
" clip-path="url(#pb5a904903a)" style="fill: none; stroke: #303030; stroke-width: 1.2; stroke-linecap: round"/>
   </g>
   <g id="line2d_29">
    <path d="M 316.890688 59.975949 
L 316.890688 27.492752 
" clip-path="url(#pb5a904903a)" style="fill: none; stroke: #303030; stroke-width: 1.2; stroke-linecap: round"/>
   </g>
   <g id="line2d_30">
    <path d="M 301.935688 149.831605 
L 331.845688 149.831605 
" clip-path="url(#pb5a904903a)" style="fill: none; stroke: #303030; stroke-width: 1.2; stroke-linecap: round"/>
   </g>
   <g id="line2d_31">
    <path d="M 301.935688 27.492752 
L 331.845688 27.492752 
" clip-path="url(#pb5a904903a)" style="fill: none; stroke: #303030; stroke-width: 1.2; stroke-linecap: round"/>
   </g>
   <g id="line2d_32">
    <g clip-path="url(#pb5a904903a)">
     <use xlink:href="#m2de8fcc884" x="316.890688" y="170.951565" style="fill: #303030; stroke: #303030; stroke-linejoin: miter"/>
     <use xlink:href="#m2de8fcc884" x="316.890688" y="176.575927" style="fill: #303030; stroke: #303030; stroke-linejoin: miter"/>
     <use xlink:href="#m2de8fcc884" x="316.890688" y="169.741931" style="fill: #303030; stroke: #303030; stroke-linejoin: miter"/>
     <use xlink:href="#m2de8fcc884" x="316.890688" y="159.974664" style="fill: #303030; stroke: #303030; stroke-linejoin: miter"/>
     <use xlink:href="#m2de8fcc884" x="316.890688" y="163.831966" style="fill: #303030; stroke: #303030; stroke-linejoin: miter"/>
     <use xlink:href="#m2de8fcc884" x="316.890688" y="165.092124" style="fill: #303030; stroke: #303030; stroke-linejoin: miter"/>
     <use xlink:href="#m2de8fcc884" x="316.890688" y="165.705919" style="fill: #303030; stroke: #303030; stroke-linejoin: miter"/>
     <use xlink:href="#m2de8fcc884" x="316.890688" y="154.760334" style="fill: #303030; stroke: #303030; stroke-linejoin: miter"/>
     <use xlink:href="#m2de8fcc884" x="316.890688" y="163.560143" style="fill: #303030; stroke: #303030; stroke-linejoin: miter"/>
     <use xlink:href="#m2de8fcc884" x="316.890688" y="160.351292" style="fill: #303030; stroke: #303030; stroke-linejoin: miter"/>
     <use xlink:href="#m2de8fcc884" x="316.890688" y="168.486366" style="fill: #303030; stroke: #303030; stroke-linejoin: miter"/>
     <use xlink:href="#m2de8fcc884" x="316.890688" y="175.045199" style="fill: #303030; stroke: #303030; stroke-linejoin: miter"/>
     <use xlink:href="#m2de8fcc884" x="316.890688" y="162.999795" style="fill: #303030; stroke: #303030; stroke-linejoin: miter"/>
     <use xlink:href="#m2de8fcc884" x="316.890688" y="170.584959" style="fill: #303030; stroke: #303030; stroke-linejoin: miter"/>
     <use xlink:href="#m2de8fcc884" x="316.890688" y="157.531178" style="fill: #303030; stroke: #303030; stroke-linejoin: miter"/>
     <use xlink:href="#m2de8fcc884" x="316.890688" y="157.313218" style="fill: #303030; stroke: #303030; stroke-linejoin: miter"/>
     <use xlink:href="#m2de8fcc884" x="316.890688" y="171.313161" style="fill: #303030; stroke: #303030; stroke-linejoin: miter"/>
     <use xlink:href="#m2de8fcc884" x="316.890688" y="166.294243" style="fill: #303030; stroke: #303030; stroke-linejoin: miter"/>
     <use xlink:href="#m2de8fcc884" x="316.890688" y="158.630997" style="fill: #303030; stroke: #303030; stroke-linejoin: miter"/>
     <use xlink:href="#m2de8fcc884" x="316.890688" y="166.211568" style="fill: #303030; stroke: #303030; stroke-linejoin: miter"/>
     <use xlink:href="#m2de8fcc884" x="316.890688" y="151.46004" style="fill: #303030; stroke: #303030; stroke-linejoin: miter"/>
     <use xlink:href="#m2de8fcc884" x="316.890688" y="152.878448" style="fill: #303030; stroke: #303030; stroke-linejoin: miter"/>
     <use xlink:href="#m2de8fcc884" x="316.890688" y="160.537518" style="fill: #303030; stroke: #303030; stroke-linejoin: miter"/>
     <use xlink:href="#m2de8fcc884" x="316.890688" y="175.086536" style="fill: #303030; stroke: #303030; stroke-linejoin: miter"/>
     <use xlink:href="#m2de8fcc884" x="316.890688" y="155.205857" style="fill: #303030; stroke: #303030; stroke-linejoin: miter"/>
     <use xlink:href="#m2de8fcc884" x="316.890688" y="152.868427" style="fill: #303030; stroke: #303030; stroke-linejoin: miter"/>
     <use xlink:href="#m2de8fcc884" x="316.890688" y="164.023621" style="fill: #303030; stroke: #303030; stroke-linejoin: miter"/>
     <use xlink:href="#m2de8fcc884" x="316.890688" y="171.007934" style="fill: #303030; stroke: #303030; stroke-linejoin: miter"/>
     <use xlink:href="#m2de8fcc884" x="316.890688" y="159.429765" style="fill: #303030; stroke: #303030; stroke-linejoin: miter"/>
     <use xlink:href="#m2de8fcc884" x="316.890688" y="167.290928" style="fill: #303030; stroke: #303030; stroke-linejoin: miter"/>
     <use xlink:href="#m2de8fcc884" x="316.890688" y="152.737735" style="fill: #303030; stroke: #303030; stroke-linejoin: miter"/>
     <use xlink:href="#m2de8fcc884" x="316.890688" y="166.943946" style="fill: #303030; stroke: #303030; stroke-linejoin: miter"/>
     <use xlink:href="#m2de8fcc884" x="316.890688" y="169.783686" style="fill: #303030; stroke: #303030; stroke-linejoin: miter"/>
     <use xlink:href="#m2de8fcc884" x="316.890688" y="173.739529" style="fill: #303030; stroke: #303030; stroke-linejoin: miter"/>
     <use xlink:href="#m2de8fcc884" x="316.890688" y="153.591619" style="fill: #303030; stroke: #303030; stroke-linejoin: miter"/>
    </g>
   </g>
   <g id="line2d_33">
    <path d="M 62.655688 81.349673 
L 122.475688 81.349673 
" clip-path="url(#pb5a904903a)" style="fill: none; stroke: #303030; stroke-width: 1.2; stroke-linecap: round"/>
   </g>
   <g id="line2d_34">
    <path d="M 137.430688 80.352361 
L 197.250688 80.352361 
" clip-path="url(#pb5a904903a)" style="fill: none; stroke: #303030; stroke-width: 1.2; stroke-linecap: round"/>
   </g>
   <g id="line2d_35">
    <path d="M 212.205688 79.812473 
L 272.025688 79.812473 
" clip-path="url(#pb5a904903a)" style="fill: none; stroke: #303030; stroke-width: 1.2; stroke-linecap: round"/>
   </g>
   <g id="line2d_36">
    <path d="M 286.980688 80.143588 
L 346.800688 80.143588 
" clip-path="url(#pb5a904903a)" style="fill: none; stroke: #303030; stroke-width: 1.2; stroke-linecap: round"/>
   </g>
   <g id="patch_7">
    <path d="M 55.178188 184.030086 
L 55.178188 20.038594 
" style="fill: none; stroke: #000000; stroke-linejoin: miter; stroke-linecap: square"/>
   </g>
   <g id="patch_8">
    <path d="M 354.278188 184.030086 
L 354.278188 20.038594 
" style="fill: none; stroke: #000000; stroke-linejoin: miter; stroke-linecap: square"/>
   </g>
   <g id="patch_9">
    <path d="M 55.178188 184.030086 
L 354.278188 184.030086 
" style="fill: none; stroke: #000000; stroke-linejoin: miter; stroke-linecap: square"/>
   </g>
   <g id="patch_10">
    <path d="M 55.178188 20.038594 
L 354.278188 20.038594 
" style="fill: none; stroke: #000000; stroke-linejoin: miter; stroke-linecap: square"/>
   </g>
   <g id="text_15">
    <!-- Positional influence distribution -->
    <g style="fill: #262626" transform="translate(134.046547 14.038594) scale(0.09 -0.09)">
     <defs>
      <path id="DejaVuSans-61" d="M 2194 1759 
Q 1497 1759 1228 1600 
Q 959 1441 959 1056 
Q 959 750 1161 570 
Q 1363 391 1709 391 
Q 2188 391 2477 730 
Q 2766 1069 2766 1631 
L 2766 1759 
L 2194 1759 
z
M 3341 1997 
L 3341 0 
L 2766 0 
L 2766 531 
Q 2569 213 2275 61 
Q 1981 -91 1556 -91 
Q 1019 -91 701 211 
Q 384 513 384 1019 
Q 384 1609 779 1909 
Q 1175 2209 1959 2209 
L 2766 2209 
L 2766 2266 
Q 2766 2663 2505 2880 
Q 2244 3097 1772 3097 
Q 1472 3097 1187 3025 
Q 903 2953 641 2809 
L 641 3341 
Q 956 3463 1253 3523 
Q 1550 3584 1831 3584 
Q 2591 3584 2966 3190 
Q 3341 2797 3341 1997 
z
" transform="scale(0.015625)"/>
      <path id="DejaVuSans-20" transform="scale(0.015625)"/>
      <path id="DejaVuSans-64" d="M 2906 2969 
L 2906 4863 
L 3481 4863 
L 3481 0 
L 2906 0 
L 2906 525 
Q 2725 213 2448 61 
Q 2172 -91 1784 -91 
Q 1150 -91 751 415 
Q 353 922 353 1747 
Q 353 2572 751 3078 
Q 1150 3584 1784 3584 
Q 2172 3584 2448 3432 
Q 2725 3281 2906 2969 
z
M 947 1747 
Q 947 1113 1208 752 
Q 1469 391 1925 391 
Q 2381 391 2643 752 
Q 2906 1113 2906 1747 
Q 2906 2381 2643 2742 
Q 2381 3103 1925 3103 
Q 1469 3103 1208 2742 
Q 947 2381 947 1747 
z
" transform="scale(0.015625)"/>
      <path id="DejaVuSans-72" d="M 2631 2963 
Q 2534 3019 2420 3045 
Q 2306 3072 2169 3072 
Q 1681 3072 1420 2755 
Q 1159 2438 1159 1844 
L 1159 0 
L 581 0 
L 581 3500 
L 1159 3500 
L 1159 2956 
Q 1341 3275 1631 3429 
Q 1922 3584 2338 3584 
Q 2397 3584 2469 3576 
Q 2541 3569 2628 3553 
L 2631 2963 
z
" transform="scale(0.015625)"/>
      <path id="DejaVuSans-62" d="M 3116 1747 
Q 3116 2381 2855 2742 
Q 2594 3103 2138 3103 
Q 1681 3103 1420 2742 
Q 1159 2381 1159 1747 
Q 1159 1113 1420 752 
Q 1681 391 2138 391 
Q 2594 391 2855 752 
Q 3116 1113 3116 1747 
z
M 1159 2969 
Q 1341 3281 1617 3432 
Q 1894 3584 2278 3584 
Q 2916 3584 3314 3078 
Q 3713 2572 3713 1747 
Q 3713 922 3314 415 
Q 2916 -91 2278 -91 
Q 1894 -91 1617 61 
Q 1341 213 1159 525 
L 1159 0 
L 581 0 
L 581 4863 
L 1159 4863 
L 1159 2969 
z
" transform="scale(0.015625)"/>
     </defs>
     <use xlink:href="#DejaVuSans-50"/>
     <use xlink:href="#DejaVuSans-6f" x="56.677734"/>
     <use xlink:href="#DejaVuSans-73" x="117.859375"/>
     <use xlink:href="#DejaVuSans-69" x="169.958984"/>
     <use xlink:href="#DejaVuSans-74" x="197.742188"/>
     <use xlink:href="#DejaVuSans-69" x="236.951172"/>
     <use xlink:href="#DejaVuSans-6f" x="264.734375"/>
     <use xlink:href="#DejaVuSans-6e" x="325.916016"/>
     <use xlink:href="#DejaVuSans-61" x="389.294922"/>
     <use xlink:href="#DejaVuSans-6c" x="450.574219"/>
     <use xlink:href="#DejaVuSans-20" x="478.357422"/>
     <use xlink:href="#DejaVuSans-69" x="510.144531"/>
     <use xlink:href="#DejaVuSans-6e" x="537.927734"/>
     <use xlink:href="#DejaVuSans-66" x="601.306641"/>
     <use xlink:href="#DejaVuSans-6c" x="636.511719"/>
     <use xlink:href="#DejaVuSans-75" x="664.294922"/>
     <use xlink:href="#DejaVuSans-65" x="727.673828"/>
     <use xlink:href="#DejaVuSans-6e" x="789.197266"/>
     <use xlink:href="#DejaVuSans-63" x="852.576172"/>
     <use xlink:href="#DejaVuSans-65" x="907.556641"/>
     <use xlink:href="#DejaVuSans-20" x="969.080078"/>
     <use xlink:href="#DejaVuSans-64" x="1000.867188"/>
     <use xlink:href="#DejaVuSans-69" x="1064.34375"/>
     <use xlink:href="#DejaVuSans-73" x="1092.126953"/>
     <use xlink:href="#DejaVuSans-74" x="1144.226562"/>
     <use xlink:href="#DejaVuSans-72" x="1183.435547"/>
     <use xlink:href="#DejaVuSans-69" x="1224.548828"/>
     <use xlink:href="#DejaVuSans-62" x="1252.332031"/>
     <use xlink:href="#DejaVuSans-75" x="1315.808594"/>
     <use xlink:href="#DejaVuSans-74" x="1379.1875"/>
     <use xlink:href="#DejaVuSans-69" x="1418.396484"/>
     <use xlink:href="#DejaVuSans-6f" x="1446.179688"/>
     <use xlink:href="#DejaVuSans-6e" x="1507.361328"/>
    </g>
   </g>
  </g>
 </g>
 <defs>
  <clipPath id="pb5a904903a">
   <rect x="55.178188" y="20.038594" width="299.1" height="163.991492"/>
  </clipPath>
 </defs>
</svg>
