<?xml version="1.0" standalone="no"?>
<!DOCTYPE svg PUBLIC "-//W3C//DTD SVG 20010904//EN"
 "http://www.w3.org/TR/2001/REC-SVG-20010904/DTD/svg10.dtd">
<svg version="1.0" xmlns="http://www.w3.org/2000/svg"
 width="16.000000pt" height="16.000000pt" viewBox="0 0 16.000000 16.000000"
 preserveAspectRatio="xMidYMid meet">
<metadata>
Created by potrace 1.11, written by Peter Selinger 2001-2013
</metadata>
<g transform="translate(0.000000,16.000000) scale(0.000994,-0.000994)"
fill="#000000" stroke="none">
<path d="M6159 16093 l-1455 -3 -2010 -2017 c-1105 -1110 -2164 -2172 -2353
-2362 l-344 -344 6 -3330 7 -3331 1417 -1410 c779 -776 1842 -1836 2362 -2354
l946 -944 1274 6 c701 3 2198 6 3328 6 l2053 0 1613 1618 c887 889 1948 1952
2356 2362 l743 745 -6 3335 -6 3335 -27 24 c-16 13 -901 893 -1967 1955 -1067
1062 -2118 2108 -2335 2324 l-394 392 -1876 -2 c-1032 -2 -2531 -4 -3332 -5z
m6397 -2025 c808 -804 1808 -1800 2223 -2213 l753 -752 6 -3136 5 -3135 -1450
-1454 c-797 -799 -1794 -1798 -2214 -2220 l-764 -767 -3136 -6 -3135 -6 -1405
1398 c-772 769 -1772 1765 -2222 2213 l-819 815 -5 3136 -6 3137 1514 1518
c832 836 1829 1835 2214 2221 l700 703 1850 3 c1017 1 2429 3 3136 5 l1286 2
1469 -1462z"/>
<path d="M7515 15113 l-2520 -2 -2097 -2103 -2097 -2103 6 -2962 6 -2963 1046
-1043 c575 -574 1520 -1516 2099 -2093 l1054 -1049 2961 3 2962 3 2095 2100
2095 2101 -3 2911 c-2 1602 -6 2938 -9 2970 l-6 57 -2094 2088 -2095 2087
-442 0 c-242 0 -1575 -1 -2961 -2z m754 -465 c-67 -130 -253 -423 -399 -634
-94 -135 -250 -344 -256 -344 -3 0 -51 25 -107 54 -128 69 -275 127 -420 167
-61 17 -114 34 -117 38 -3 3 -3 5 -1 4 7 -4 31 19 31 29 0 6 -8 4 -17 -3 -16
-13 -17 -12 -4 4 8 9 16 15 19 12 7 -7 42 25 42 38 0 6 -10 2 -22 -9 l-23 -19
19 23 c11 12 21 20 24 17 7 -7 32 15 32 27 0 6 -7 5 -15 -2 -24 -20 -18 -5 7
16 12 10 18 13 14 7 -17 -30 4 -9 47 47 46 59 56 77 37 65 -16 -10 -11 1 7 16
15 12 16 12 8 -1 -8 -13 -7 -13 8 -1 18 14 24 36 7 26 -16 -10 -11 1 7 16 15
12 16 12 8 -1 -8 -13 -7 -13 8 -1 20 16 23 36 5 25 -9 -5 -9 -2 1 9 16 20 26
23 15 5 -5 -9 -2 -9 9 1 20 16 23 36 5 25 -9 -5 -9 -2 1 9 15 18 26 23 16 7
-3 -5 -4 -10 -1 -10 7 0 174 243 183 265 5 14 3 16 -7 10 -9 -5 -11 -4 -6 4 4
6 11 9 16 6 4 -3 15 6 24 20 23 35 19 45 -5 15 -21 -25 -21 -25 -7 -1 8 13 22
25 32 27 10 1 20 5 24 8 3 3 176 6 384 6 l379 0 -12 -22z m2104 5 c-6 -17 -5
-17 14 0 17 15 42 17 184 17 l165 0 67 -68 67 -67 -182 -175 c-719 -693 -1303
-1467 -1761 -2335 -596 -1127 -940 -2333 -1039 -3635 -17 -229 -17 -1078 0
-1285 46 -550 102 -929 208 -1395 213 -945 588 -1874 1090 -2702 344 -566 740
-1087 1203 -1576 l172 -182 -290 0 -289 0 -85 93 c-378 419 -726 890 -1085
1469 -18 29 -31 44 -28 33 3 -11 13 -105 23 -210 23 -243 25 -931 4 -1192 -8
-94 -17 -176 -20 -181 -3 -5 -73 -11 -156 -13 l-150 -4 2 25 c1 14 7 79 13
145 93 1034 -65 2116 -449 3074 -449 1119 -1172 2076 -2137 2826 -678 529
-1500 935 -2349 1164 -432 116 -1037 213 -1191 192 -218 -31 -647 -66 -947
-77 l-177 -7 0 227 0 226 88 0 c205 0 651 35 972 76 1083 137 2148 462 3134
956 54 27 104 47 110 45 7 -3 38 -47 69 -98 31 -52 81 -133 111 -181 l55 -87
-52 -28 c-104 -56 -496 -243 -642 -306 -485 -208 -1058 -403 -1540 -522 -82
-20 -157 -39 -165 -42 -8 -2 64 -24 160 -49 507 -130 956 -298 1425 -534 697
-352 1309 -799 1851 -1353 263 -268 513 -564 693 -822 76 -109 115 -159 98
-129 -9 16 -63 346 -86 524 -102 785 -105 1651 -11 2430 77 629 226 1283 431
1894 90 268 140 394 191 479 107 182 214 636 219 934 l2 102 86 98 c513 591
1040 1395 1371 2091 l73 152 243 0 c228 0 243 -1 237 -17z m-4290 -10 c-6 -16
-4 -16 15 1 32 27 27 14 -5 -15 -14 -13 -22 -17 -18 -9 5 10 1 8 -13 -4 -24
-21 -31 -46 -7 -26 28 24 15 4 -17 -26 -28 -24 -30 -25 -13 -4 17 21 15 20
-13 -4 -31 -29 -47 -61 -17 -36 33 27 12 2 -32 -40 -48 -45 -48 -45 -13 -5 35
40 35 40 -13 -5 -26 -24 -47 -48 -47 -53 0 -5 7 -4 15 3 39 32 7 -3 -67 -75
l-83 -80 70 75 c45 49 30 36 -43 -35 -61 -60 -112 -114 -112 -119 0 -6 18 8
40 29 22 21 40 37 40 34 0 -2 -28 -31 -62 -64 -35 -33 -52 -48 -39 -32 38 42
10 32 -34 -13 -21 -22 -35 -40 -30 -40 5 0 -11 -20 -35 -45 -24 -24 -47 -42
-52 -39 -4 3 -25 -12 -46 -33 -25 -25 -28 -30 -7 -13 l30 25 -29 -32 c-16 -18
-32 -30 -36 -28 -10 6 -61 -35 -55 -44 2 -5 -7 -19 -22 -32 -14 -13 -23 -18
-19 -11 14 24 -11 11 -40 -20 l-29 -33 30 25 30 25 -24 -27 c-13 -15 -29 -24
-35 -22 -7 3 -21 -6 -32 -18 l-19 -23 25 20 25 20 -18 -22 c-11 -12 -24 -19
-31 -17 -7 3 -19 -3 -27 -13 -13 -17 -13 -17 6 -3 19 14 19 14 6 -2 -7 -10
-18 -15 -23 -12 -5 3 -28 -14 -51 -38 -23 -23 -37 -36 -32 -28 6 9 -1 4 -15
-10 -14 -14 -20 -19 -15 -11 6 8 -5 4 -22 -9 -32 -23 -46 -39 -21 -24 7 4 8 3
4 -5 -4 -6 -11 -9 -16 -6 -4 3 -16 -3 -27 -13 -10 -9 -12 -12 -3 -7 13 9 13 8
2 -7 -8 -9 -19 -15 -25 -13 -7 3 -25 -7 -42 -21 -16 -15 -24 -23 -16 -19 9 6
12 4 7 -4 -4 -6 -12 -8 -18 -5 -6 4 -22 -6 -36 -22 -13 -16 -21 -22 -17 -14 4
8 -3 4 -15 -10 -12 -14 -19 -18 -15 -10 4 8 -3 4 -15 -10 -12 -14 -19 -18 -15
-10 4 8 -3 4 -15 -10 -12 -14 -19 -18 -15 -10 4 8 -3 4 -15 -10 -12 -14 -19
-18 -15 -10 4 8 -3 4 -15 -10 -12 -14 -19 -18 -15 -10 4 8 -1 6 -10 -5 -9 -11
-19 -19 -23 -19 -16 3 -51 -20 -45 -29 3 -6 1 -7 -5 -3 -7 4 -24 -5 -39 -21
-14 -15 -23 -22 -19 -15 12 21 -4 13 -31 -15 -15 -16 -23 -22 -18 -15 6 11 3
12 -14 3 -11 -7 -21 -16 -21 -22 0 -6 -4 -8 -10 -4 -5 3 -18 -2 -28 -12 -10
-10 -25 -19 -33 -21 -8 -2 -19 -10 -25 -17 -6 -8 -14 -12 -17 -8 -4 3 -7 1 -7
-6 0 -7 -4 -9 -10 -6 -5 3 -10 1 -10 -4 0 -6 -3 -10 -8 -9 -12 5 -152 -72
-152 -83 0 -6 -4 -7 -10 -4 -5 3 -10 1 -10 -5 0 -6 -4 -8 -10 -5 -5 3 -10 1
-10 -5 0 -6 -4 -8 -10 -5 -5 3 -10 1 -10 -5 0 -6 -4 -8 -10 -5 -5 3 -10 1 -10
-5 0 -6 -4 -8 -10 -5 -5 3 -10 1 -10 -5 0 -6 -4 -8 -10 -5 -5 3 -10 2 -10 -3
0 -5 -6 -9 -12 -9 -7 -1 -93 -37 -190 -82 -97 -45 -181 -81 -187 -81 -6 0 -11
-4 -11 -8 0 -5 -6 -9 -12 -9 -7 0 -56 -17 -108 -38 -169 -66 -312 -115 -308
-106 2 5 446 455 988 999 l985 990 462 1 c436 1 462 0 456 -16z m1250 -223
c-9 -17 -28 -43 -41 -58 -13 -15 -6 -1 14 31 38 59 58 79 27 27z m-213 -290
c-17 -22 -34 -40 -37 -40 -2 0 10 18 27 40 17 22 34 40 37 40 2 0 -10 -18 -27
-40z m-1980 -424 c0 -2 -8 -10 -17 -17 -16 -13 -17 -12 -4 4 13 16 21 21 21
13z m6915 -346 l220 -220 -25 -23 c-14 -13 -88 -82 -165 -154 -162 -150 -402
-406 -570 -608 -694 -830 -1196 -1815 -1454 -2850 -383 -1537 -261 -3108 354
-4570 360 -856 941 -1706 1593 -2328 l53 -51 -223 -223 -223 -223 -118 118
c-472 467 -925 1064 -1271 1675 -93 164 -309 602 -384 779 -360 849 -565 1752
-612 2697 -59 1180 170 2431 641 3500 373 845 894 1628 1514 2271 142 148 434
430 444 430 3 0 105 -99 226 -220z m-6875 186 c0 -2 -8 -10 -17 -17 -16 -13
-17 -12 -4 4 13 16 21 21 21 13z m-90 -89 c0 -1 -26 -27 -57 -57 l-58 -55 55
58 c50 53 60 62 60 54z m-120 -130 c0 -2 -10 -12 -22 -23 l-23 -19 19 23 c18
21 26 27 26 19z m-40 -51 c0 -2 -8 -10 -17 -17 -16 -13 -17 -12 -4 4 13 16 21
21 21 13z m-45 -59 c-8 -13 -13 -27 -10 -30 3 -4 2 -5 -2 -2 -3 3 -12 -3 -20
-13 -19 -22 -6 4 19 41 23 33 35 37 13 4z m1933 -91 c400 -111 691 -427 768
-833 22 -120 15 -346 -15 -454 -201 -733 -1055 -1036 -1661 -589 -192 142
-334 352 -397 588 -23 84 -26 118 -27 257 -1 102 4 180 12 215 55 226 148 398
293 541 134 133 310 234 487 278 113 29 123 30 292 26 129 -3 170 -7 248 -29z
m-2131 -338 c-3 -8 -6 -5 -6 6 -1 11 2 17 5 13 3 -3 4 -12 1 -19z m-20 -70
c-3 -8 -6 -5 -6 6 -1 11 2 17 5 13 3 -3 4 -12 1 -19z m-10 -40 c-3 -8 -6 -5
-6 6 -1 11 2 17 5 13 3 -3 4 -12 1 -19z m-10 -50 c-3 -7 -5 -2 -5 12 0 14 2
19 5 13 2 -7 2 -19 0 -25z m-10 -55 c-3 -10 -5 -4 -5 12 0 17 2 24 5 18 2 -7
2 -21 0 -30z m-10 -85 c-2 -13 -4 -5 -4 17 -1 22 1 32 4 23 2 -10 2 -28 0 -40z
m-1627 -31 c0 -1 -28 -29 -62 -62 l-63 -60 60 63 c55 58 65 67 65 59z m1617
-269 c-1 -51 -3 -10 -3 92 0 102 2 143 3 93 2 -51 2 -135 0 -185z m8801 -191
l293 -294 -98 -85 c-240 -209 -570 -574 -780 -863 -151 -208 -317 -489 -448
-759 -346 -712 -515 -1452 -515 -2256 1 -796 171 -1537 519 -2255 239 -491
551 -936 942 -1339 l158 -163 -295 -294 -294 -294 -76 75 c-754 744 -1323
1729 -1583 2740 -263 1025 -266 2019 -7 3048 218 865 662 1713 1262 2411 168
196 594 621 622 621 4 0 139 -132 300 -293z m-10788 90 c0 -1 -51 -52 -112
-112 l-113 -110 110 113 c102 104 115 117 115 109z m2011 -67 c5 -3 20 -68 34
-143 27 -145 67 -304 110 -426 14 -41 25 -81 25 -88 0 -15 -205 -116 -470
-230 -794 -343 -1646 -559 -2510 -637 -213 -20 -568 -38 -581 -31 -5 4 -9 61
-9 128 l0 122 223 220 c122 121 258 254 302 295 l80 75 -70 -73 -70 -74 70 7
c728 67 1454 244 2160 525 109 43 309 131 315 139 3 3 11 7 19 9 31 7 251 116
251 124 0 5 5 6 10 3 6 -3 10 -1 10 6 0 7 3 10 6 6 4 -3 23 2 43 13 32 16 37
23 35 52 -1 21 0 24 3 8 3 -14 9 -27 14 -30z m-2516 -440 c-66 -66 -122 -120
-125 -120 -2 0 49 54 115 120 66 66 122 120 125 120 2 0 -49 -54 -115 -120z
m12478 -758 l67 -68 7 -580 6 -581 -70 -99 c-315 -441 -485 -888 -549 -1434
-22 -196 -15 -554 16 -754 76 -501 252 -918 574 -1366 l25 -35 2 -358 3 -358
-197 -197 -196 -196 -37 34 c-73 70 -270 288 -345 382 -185 232 -319 441 -454
708 -280 557 -416 1098 -432 1725 -8 341 18 630 89 965 173 823 637 1612 1277
2172 68 59 128 108 135 108 6 0 42 -31 79 -68z m-12303 -3112 c858 -77 1654
-326 2380 -745 1109 -640 1988 -1656 2455 -2835 207 -523 322 -1003 382 -1590
32 -319 19 -1027 -23 -1267 l-6 -33 -229 0 c-126 0 -229 3 -229 8 0 4 7 57 15
117 36 282 48 750 25 1042 -75 957 -402 1863 -949 2633 -815 1146 -2036 1916
-3409 2150 -264 45 -458 62 -774 67 -253 5 -566 -5 -673 -21 -6 0 -11 83 -13
230 l-2 232 62 7 c212 25 739 28 988 5z m20 -1335 c726 -91 1343 -317 1935
-710 742 -493 1320 -1207 1648 -2035 164 -413 261 -838 298 -1305 22 -278 2
-727 -44 -1006 l-12 -74 -309 -3 -308 -2 6 23 c12 48 46 275 58 387 18 173 15
594 -6 770 -101 840 -433 1560 -1002 2171 -492 528 -1146 912 -1846 1083 -312
77 -573 107 -908 108 -193 0 -446 -16 -565 -35 -6 -1 -10 107 -10 308 l0 310
60 8 c236 30 774 31 1005 2z m-190 -1430 c445 -47 862 -189 1239 -422 513
-317 914 -780 1154 -1333 179 -412 258 -830 244 -1283 -4 -103 -10 -194 -14
-202 -6 -10 -112 90 -378 354 -204 202 -378 376 -388 388 -10 11 -31 70 -47
130 -96 358 -272 669 -532 938 -286 297 -615 493 -1007 601 l-126 34 -140 139
c-77 77 -257 254 -399 395 l-259 255 34 5 c111 19 451 19 619 1z"/>
<path d="M5535 14058 l-40 -43 43 40 c39 36 47 45 39 45 -2 0 -21 -19 -42 -42z"/>
<path d="M5329 13873 c-13 -16 -12 -17 4 -4 9 7 17 15 17 17 0 8 -8 3 -21 -13z"/>
</g>
</svg>
