<?xml version="1.0" standalone="no"?>
<!DOCTYPE svg PUBLIC "-//W3C//DTD SVG 20010904//EN"
 "http://www.w3.org/TR/2001/REC-SVG-20010904/DTD/svg10.dtd">
<svg version="1.0" xmlns="http://www.w3.org/2000/svg"
 width="260.000000pt" height="260.000000pt" viewBox="0 0 260.000000 260.000000"
 preserveAspectRatio="xMidYMid meet">
<metadata>
Created by potrace 1.14, written by Peter Selinger 2001-2017
</metadata>
<g transform="translate(0.000000,260.000000) scale(0.100000,-0.100000)"
fill="#000000" stroke="none">
<path d="M0 1300 l0 -1300 1300 0 1300 0 0 1300 0 1300 -1300 0 -1300 0 0
-1300z m1829 955 c49 -29 73 -67 78 -122 l5 -48 -117 -70 c-64 -39 -135 -81
-158 -95 l-42 -24 -340 -2 c-359 -1 -395 -5 -432 -47 -32 -36 -40 -68 -38
-147 2 -126 45 -170 175 -180 5 0 -496 -302 -541 -325 l-26 -14 2 302 c1 280
3 305 21 337 27 48 90 77 181 84 40 4 84 11 98 18 42 19 65 69 75 162 9 84 25
131 54 155 45 38 79 40 531 38 420 -2 442 -3 474 -22z m98 -366 c71 -141 73
-278 5 -419 -31 -64 -141 -179 -196 -205 -21 -10 -40 -24 -43 -31 -2 -7 26
-70 63 -141 36 -70 94 -180 127 -243 139 -266 174 -317 248 -354 29 -14 68
-26 85 -26 18 0 35 -4 38 -9 3 -4 6 -34 7 -65 2 -41 -2 -61 -12 -67 -8 -5
-198 -9 -422 -9 -454 0 -417 -6 -422 73 -3 56 9 77 44 77 78 0 132 53 133 131
0 45 -22 95 -166 364 -47 87 -86 163 -86 167 0 6 -262 5 -355 -1 -6 -1 -10
-86 -9 -238 2 -279 4 -295 46 -356 19 -26 91 -71 100 -62 2 3 21 0 41 -6 l37
-10 0 -57 c0 -32 -5 -63 -12 -70 -14 -14 -804 -17 -827 -3 -16 10 -19 117 -4
131 4 4 27 10 50 13 59 6 104 36 133 88 25 44 25 46 28 339 3 289 4 295 25
313 12 10 29 21 37 25 13 6 40 22 148 87 104 62 193 115 196 115 1 0 2 -24 1
-52 -1 -83 -6 -80 114 -77 254 6 392 57 465 173 35 54 57 128 58 192 0 42 -11
124 -18 136 -3 5 -1 8 3 8 5 0 69 36 143 80 74 43 140 78 145 76 6 -1 29 -40
52 -87z"/>
</g>
</svg>
