<?xml version="1.0" standalone="no"?>
<!DOCTYPE svg PUBLIC "-//W3C//DTD SVG 20010904//EN"
 "http://www.w3.org/TR/2001/REC-SVG-20010904/DTD/svg10.dtd">
<svg version="1.0" xmlns="http://www.w3.org/2000/svg"
 width="512.000000pt" height="512.000000pt" viewBox="0 0 512.000000 512.000000"
 preserveAspectRatio="xMidYMid meet">
<metadata>
Created by potrace 1.11, written by Peter Selinger 2001-2013
</metadata>
<g transform="translate(0.000000,512.000000) scale(0.100000,-0.100000)"
fill="#000000" stroke="none">
<path d="M2408 5115 c-2 -1 -34 -6 -73 -9 -38 -4 -81 -8 -95 -10 -14 -2 -46
-7 -71 -10 -76 -11 -98 -15 -251 -53 -82 -20 -148 -40 -148 -45 0 -5 -4 -7
-10 -3 -5 3 -17 1 -27 -4 -20 -11 -103 -40 -118 -42 -5 -1 -19 -8 -30 -15 -11
-8 -27 -14 -37 -14 -10 0 -18 -4 -18 -10 0 -5 -4 -10 -10 -10 -5 0 -35 -12
-67 -27 -32 -14 -60 -27 -63 -27 -46 -10 -430 -267 -430 -289 0 -6 -3 -8 -6
-4 -3 3 -25 -11 -47 -31 -90 -81 -162 -149 -193 -182 -17 -19 -45 -49 -60 -66
-105 -113 -293 -372 -300 -413 -2 -8 -7 -17 -12 -20 -11 -7 -44 -69 -40 -75 2
-2 -6 -13 -16 -25 -11 -12 -15 -21 -10 -21 5 0 4 -4 -2 -8 -9 -6 -64 -114 -64
-126 0 -2 -8 -21 -17 -42 -9 -22 -16 -42 -15 -46 1 -5 -3 -8 -10 -8 -6 0 -8
-3 -5 -6 3 -4 2 -15 -4 -26 -6 -11 -12 -27 -14 -36 -2 -9 -9 -30 -16 -47 -7
-16 -13 -34 -14 -40 -1 -5 -3 -13 -5 -17 -1 -5 -4 -12 -5 -18 -1 -5 -3 -11 -5
-12 -2 -3 -5 -19 -13 -60 -3 -15 -8 -31 -10 -36 -3 -4 -8 -27 -12 -51 -3 -24
-11 -54 -16 -68 -5 -14 -7 -28 -5 -30 3 -3 1 -15 -3 -27 -8 -21 -15 -70 -31
-216 -10 -102 -5 -447 9 -545 19 -132 37 -233 45 -255 3 -8 8 -26 10 -40 17
-83 72 -258 87 -275 5 -5 9 -17 9 -27 0 -10 4 -26 10 -36 10 -17 62 -132 64
-142 12 -47 197 -360 218 -368 4 -2 8 -8 8 -13 0 -12 79 -113 91 -117 5 -2 9
-8 9 -13 0 -21 119 -148 302 -321 16 -16 32 -28 34 -28 3 0 15 -10 28 -23 30
-28 52 -46 96 -77 19 -13 38 -29 42 -35 5 -6 8 -6 8 0 0 6 4 5 8 -1 11 -18
279 -186 302 -190 3 0 34 -14 70 -31 36 -17 75 -34 88 -38 12 -3 22 -11 22
-17 0 -5 6 -8 13 -5 6 2 21 -1 32 -7 27 -14 87 -37 105 -40 8 -1 25 -7 36 -14
12 -6 24 -8 28 -5 3 3 6 0 6 -7 0 -7 3 -11 6 -8 3 4 20 2 37 -3 18 -6 43 -12
57 -15 14 -2 36 -9 50 -14 26 -10 169 -38 230 -46 19 -2 44 -6 55 -9 80 -18
460 -26 580 -13 117 14 254 34 285 43 8 2 29 7 45 9 24 5 88 23 210 60 11 3
20 6 90 32 28 10 52 19 55 20 3 0 19 7 35 14 17 7 32 14 35 15 50 17 223 104
308 156 35 22 68 39 72 39 5 0 10 3 12 8 2 4 32 27 68 51 36 24 67 48 68 53 2
4 10 8 17 8 7 0 16 7 19 16 4 9 9 14 12 11 3 -3 14 2 23 11 10 10 53 49 96 87
95 85 175 166 175 178 0 4 5 5 10 2 6 -3 10 -3 10 2 0 4 13 22 28 39 15 17 40
47 55 65 15 19 39 48 53 64 41 50 169 245 209 320 21 39 42 75 46 81 5 6 6 14
2 17 -3 4 -2 7 3 7 10 0 39 63 35 75 -1 3 5 13 14 21 8 9 13 19 10 24 -3 5 -1
10 5 12 5 1 11 12 13 23 2 11 11 36 19 55 15 36 29 73 29 77 0 2 6 18 15 38 8
19 11 35 7 35 -5 0 -3 4 3 8 9 6 18 31 38 112 7 27 26 105 31 125 28 122 48
330 49 510 1 179 -8 357 -18 374 -2 3 -7 29 -10 56 -6 51 -7 59 -27 152 -5 29
-10 54 -9 55 0 2 -8 28 -18 58 -11 30 -20 57 -20 60 -1 6 -3 13 -32 100 -23
70 -85 222 -103 255 -6 11 -12 22 -12 25 -2 8 -60 123 -81 159 -21 37 -115
180 -166 253 -95 135 -308 359 -438 458 -25 19 -47 37 -50 40 -14 14 -123 92
-185 131 -92 59 -142 88 -245 139 -47 23 -98 49 -115 58 -16 9 -32 16 -35 15
-3 -1 -18 4 -35 11 -49 21 -110 40 -117 38 -5 -1 -8 3 -8 8 0 6 -10 10 -23 10
-13 0 -27 4 -32 9 -6 6 -21 12 -35 14 -14 2 -32 6 -40 9 -41 15 -189 50 -225
54 -36 4 -179 25 -205 30 -27 6 -416 14 -422 9z"/>
</g>
</svg>
