<?xml version="1.0" standalone="no"?>
<!DOCTYPE svg PUBLIC "-//W3C//DTD SVG 20010904//EN"
 "http://www.w3.org/TR/2001/REC-SVG-20010904/DTD/svg10.dtd">
<svg version="1.0" xmlns="http://www.w3.org/2000/svg"
 width="512.000000pt" height="512.000000pt" viewBox="0 0 512.000000 512.000000"
 preserveAspectRatio="xMidYMid meet">
<metadata>
Created by potrace 1.14, written by Peter Selinger 2001-2017
</metadata>
<g transform="translate(0.000000,512.000000) scale(0.100000,-0.100000)"
fill="#000000" stroke="none">
<path d="M2168 5035 c-2 -1 -37 -5 -78 -9 -367 -32 -767 -161 -1106 -359 -88
-51 -111 -79 -99 -124 11 -44 20 -50 138 -89 62 -20 124 -42 138 -50 41 -21
84 -77 98 -126 13 -47 12 -54 -19 -178 -7 -25 -10 -78 -7 -118 4 -69 10 -84
119 -305 96 -194 113 -233 99 -239 -9 -3 -38 -14 -65 -23 -63 -23 -120 -75
-154 -139 -22 -43 -26 -64 -26 -131 0 -137 23 -168 276 -369 94 -75 138 -116
143 -135 14 -55 79 -220 121 -305 24 -49 44 -91 44 -92 0 -2 -172 -4 -382 -6
l-383 -3 -65 -31 c-36 -17 -82 -45 -102 -63 -50 -44 -103 -126 -121 -189 -19
-64 -17 -29 -17 -247 l0 -185 -72 -36 c-94 -47 -156 -92 -258 -186 -130 -119
-262 -366 -295 -553 -10 -54 -18 -558 -11 -601 14 -69 -194 -64 2476 -64 2634
0 2461 -4 2476 55 3 14 4 150 1 303 -4 259 -6 283 -31 377 -39 150 -106 283
-201 400 -42 52 -146 154 -173 169 -9 5 -25 17 -34 26 -10 9 -58 38 -108 64
l-90 47 0 172 c-1 217 -4 237 -45 323 -42 86 -101 144 -193 187 l-67 32 -382
3 c-211 2 -383 5 -383 8 0 2 11 25 24 52 53 102 75 153 111 258 21 61 47 117
59 127 12 11 37 31 56 47 253 201 279 225 310 287 49 99 26 249 -50 328 -40
42 -113 81 -166 90 l-40 6 99 272 c54 150 105 305 113 345 67 351 -103 708
-419 882 -54 30 -147 66 -192 74 -11 2 -40 9 -65 15 -39 9 -992 15 -1002 6z"/>
</g>
</svg>
