<?xml version="1.0" standalone="no"?>
<!DOCTYPE svg PUBLIC "-//W3C//DTD SVG 20010904//EN"
 "http://www.w3.org/TR/2001/REC-SVG-20010904/DTD/svg10.dtd">
<svg version="1.0" xmlns="http://www.w3.org/2000/svg"
 width="300.000000pt" height="300.000000pt" viewBox="0 0 300.000000 300.000000"
 preserveAspectRatio="xMidYMid meet">
<metadata>
Created by potrace 1.14, written by Peter Selinger 2001-2017
</metadata>
<g transform="translate(0.000000,300.000000) scale(0.100000,-0.100000)"
fill="#000000" stroke="none">
<path d="M0 2327 l0 -182 118 0 117 0 201 -800 c110 -440 204 -812 207 -828
l7 -27 288 2 287 3 87 330 c156 596 182 694 186 691 3 -3 44 -160 57 -216 1
-9 44 -180 94 -380 50 -201 93 -375 96 -388 2 -12 7 -27 10 -32 4 -6 112 -10
290 -10 l284 0 15 52 c16 59 49 182 96 363 53 204 139 531 159 607 11 40 31
116 45 168 14 52 34 131 46 175 12 44 33 125 47 180 14 55 28 102 30 105 2 2
55 5 116 5 l112 0 3 183 2 182 -400 0 -400 0 2 -182 3 -183 123 0 c77 1 122
-3 122 -10 0 -8 -17 -73 -55 -217 -3 -10 -7 -26 -10 -35 -34 -136 -88 -335
-96 -361 -6 -18 -12 -41 -14 -50 -2 -9 -4 -18 -5 -19 -2 -2 -3 -6 -4 -10 -19
-92 -91 -341 -97 -331 -5 10 -220 861 -244 968 -2 8 -9 35 -15 60 -6 25 -15
61 -20 80 -4 19 -15 64 -24 100 -20 79 -22 87 -31 125 -16 71 3 65 -206 65
-158 0 -189 -2 -189 -14 0 -8 -23 -98 -50 -200 -28 -101 -53 -193 -55 -203 -5
-25 -105 -398 -106 -398 -1 0 -61 -215 -64 -230 -3 -11 -26 -101 -52 -199
l-47 -179 -73 289 c-40 159 -74 300 -77 314 -3 14 -9 41 -15 60 -6 19 -12 46
-15 60 -6 28 -75 309 -80 325 -2 7 39 10 118 10 66 -1 126 0 133 3 9 3 12 51
12 183 l0 179 -535 0 -534 0 0 -183z"/>
</g>
</svg>
