<?xml version="1.0" standalone="no"?>
<!DOCTYPE svg PUBLIC "-//W3C//DTD SVG 20010904//EN"
 "http://www.w3.org/TR/2001/REC-SVG-20010904/DTD/svg10.dtd">
<svg version="1.0" xmlns="http://www.w3.org/2000/svg"
 width="512.000000pt" height="512.000000pt" viewBox="0 0 512.000000 512.000000"
 preserveAspectRatio="xMidYMid meet">
<metadata>
Created by potrace 1.14, written by Peter Selinger 2001-2017
</metadata>
<g transform="translate(0.000000,512.000000) scale(0.100000,-0.100000)"
fill="#000000" stroke="none">
<path d="M4066 4763 c-1 -1 -31 -4 -66 -7 -178 -14 -293 -29 -400 -51 -14 -3
-38 -8 -55 -10 -16 -3 -38 -8 -47 -11 -9 -3 -27 -7 -40 -9 -55 -11 -84 -18
-93 -23 -5 -3 -23 -7 -41 -9 -17 -2 -69 -15 -115 -29 -46 -14 -93 -27 -104
-28 -11 -2 -21 -5 -22 -6 -2 -1 -6 -3 -10 -5 -5 -1 -20 -5 -34 -9 -14 -4 -34
-9 -45 -11 -10 -2 -20 -4 -21 -5 -2 -2 -6 -3 -10 -4 -5 -1 -18 -7 -29 -14 -12
-6 -24 -9 -27 -5 -4 3 -18 -2 -32 -11 -14 -9 -25 -14 -25 -11 0 3 -16 -1 -35
-9 -20 -9 -36 -15 -38 -14 -3 2 -81 -24 -92 -31 -5 -3 -14 -6 -20 -7 -53 -10
-509 -201 -669 -280 -28 -13 -56 -24 -63 -24 -7 0 -13 -5 -13 -10 0 -6 -3 -9
-7 -8 -5 1 -28 -9 -53 -21 -25 -13 -47 -23 -49 -22 -2 2 -7 -1 -10 -6 -3 -4
-45 -28 -93 -52 -49 -24 -88 -48 -88 -53 0 -5 -4 -7 -9 -3 -5 3 -15 -1 -23 -8
-7 -7 -29 -21 -48 -30 -40 -20 -41 -21 -164 -101 -76 -50 -213 -149 -264 -191
-100 -82 -321 -299 -392 -384 -25 -29 -52 -61 -61 -71 -9 -9 -25 -31 -35 -49
-10 -17 -22 -31 -26 -31 -4 0 -8 -6 -8 -14 0 -8 -7 -16 -15 -20 -8 -3 -15 -12
-15 -21 0 -8 -4 -15 -8 -15 -4 0 -21 -21 -38 -47 -16 -25 -33 -51 -39 -57 -5
-6 -17 -25 -26 -41 -67 -123 -83 -151 -92 -156 -5 -4 -6 -12 -3 -18 4 -6 2
-11 -3 -11 -6 0 -11 -4 -11 -9 0 -6 -18 -48 -40 -95 -22 -47 -40 -92 -40 -100
0 -9 -4 -16 -10 -16 -5 0 -7 -7 -4 -15 4 -8 1 -15 -6 -15 -7 0 -10 -7 -6 -15
3 -8 1 -15 -5 -15 -6 0 -7 -5 -3 -11 3 -6 2 -14 -4 -18 -9 -5 -21 -50 -24 -88
-1 -7 -5 -13 -9 -13 -3 0 -10 -21 -14 -46 -3 -25 -8 -56 -11 -67 -18 -90 -27
-183 -26 -277 1 -41 4 -100 7 -130 3 -30 7 -70 7 -87 1 -18 4 -33 7 -33 3 0 7
-17 8 -38 2 -38 9 -87 12 -87 2 0 9 -48 13 -82 1 -7 4 -13 8 -13 4 0 7 -6 8
-12 0 -7 3 -24 7 -38 4 -14 8 -32 9 -40 1 -9 5 -21 10 -28 4 -6 4 -12 -1 -12
-4 0 -3 -4 2 -8 9 -6 33 -61 38 -87 1 -5 5 -12 9 -15 4 -3 9 -15 11 -25 11
-54 166 -335 201 -364 9 -8 16 -18 16 -23 0 -5 6 -15 13 -22 6 -7 28 -33 47
-56 47 -58 143 -154 209 -210 30 -25 59 -50 66 -57 19 -18 215 -143 215 -137
0 3 7 -2 16 -10 8 -9 20 -14 25 -11 5 4 9 1 9 -5 0 -6 5 -8 10 -5 6 3 10 3 10
-2 0 -4 15 -14 33 -22 17 -8 55 -24 82 -37 28 -12 64 -26 80 -30 17 -4 36 -11
43 -17 7 -5 15 -7 19 -4 3 4 12 2 20 -4 12 -10 39 -17 81 -21 6 -1 12 -4 12
-8 0 -5 130 -32 152 -32 4 1 21 -3 38 -8 100 -29 535 -31 660 -4 14 3 36 7 50
9 14 2 25 4 25 5 0 0 16 3 35 5 34 4 75 12 75 15 0 1 9 3 20 5 66 12 94 19
142 33 17 6 34 8 37 4 3 -3 6 -1 6 5 0 5 6 10 13 11 24 1 56 11 79 23 13 7 23
11 23 10 0 -1 14 3 30 9 17 7 37 13 45 15 8 2 16 4 18 5 1 2 5 3 10 5 4 1 23
9 42 17 19 9 38 17 42 17 4 1 28 13 53 26 25 14 45 22 45 18 0 -4 4 -3 8 2 6
9 48 31 180 99 20 10 39 22 40 27 2 5 8 9 14 9 5 0 53 29 105 65 52 36 98 65
102 65 4 0 13 8 22 18 8 9 28 26 43 37 16 11 39 29 51 40 13 11 49 43 81 70
75 65 228 219 279 279 22 27 48 58 59 70 10 11 30 37 45 56 14 19 38 49 53 65
16 17 28 35 28 40 0 6 16 28 35 50 19 22 35 46 35 53 0 6 4 12 8 12 5 0 15 12
23 28 8 15 16 29 19 32 15 15 50 71 50 80 0 5 5 10 10 10 6 0 10 5 10 11 0 14
71 133 82 137 4 2 6 8 2 13 -3 5 0 9 7 9 7 0 9 3 6 7 -4 3 -3 11 2 17 10 11
135 257 136 266 1 3 9 20 18 38 10 17 15 32 11 32 -4 0 -2 6 4 12 6 7 23 45
38 83 15 39 30 75 34 80 4 6 15 35 25 65 10 30 20 60 24 65 3 6 7 18 8 28 2
10 10 32 19 48 8 17 13 33 10 36 -3 3 1 18 8 32 12 22 21 49 42 126 25 90 37
133 40 149 2 10 8 34 14 52 6 19 9 38 5 44 -3 5 -2 10 3 10 5 0 9 6 9 13 0 6
4 26 7 42 6 27 13 68 21 120 2 11 4 20 5 20 3 0 17 87 26 165 3 25 7 51 10 58
16 50 24 485 11 590 -4 28 -10 76 -13 105 -3 28 -8 56 -12 61 -3 5 -6 19 -7
30 -4 29 -24 107 -35 131 -10 25 -22 57 -26 70 -1 6 -17 42 -35 80 -18 39 -33
72 -33 75 -2 15 -58 100 -66 100 -6 0 -10 6 -10 13 0 23 -121 105 -203 137
-43 17 -104 36 -135 41 -31 6 -63 15 -69 21 -9 7 -13 7 -13 1 0 -7 -16 -7 -47
-1 -41 8 -290 17 -297 11z"/>
</g>
</svg>
