<?xml version="1.0" encoding="UTF-8" standalone="no"?>
<!DOCTYPE svg PUBLIC "-//W3C//DTD SVG 1.1//EN"
 "http://www.w3.org/Graphics/SVG/1.1/DTD/svg11.dtd">
<!-- Generated by graphviz version 2.49.3 (20211023.0002)
 -->
<!-- Title: Tree Pages: 1 -->
<svg width="437pt" height="552pt"
 viewBox="0.00 0.00 437.00 552.00" xmlns="http://www.w3.org/2000/svg" xmlns:xlink="http://www.w3.org/1999/xlink">
<g id="graph0" class="graph" transform="scale(1 1) rotate(0) translate(4 548)">
<title>Tree</title>
<polygon fill="white" stroke="transparent" points="-4,4 -4,-548 433,-548 433,4 -4,4"/>
<!-- 0 -->
<g id="node1" class="node">
<title>0</title>
<path fill="#ffffff" stroke="black" d="M196.5,-544C196.5,-544 77.5,-544 77.5,-544 71.5,-544 65.5,-538 65.5,-532 65.5,-532 65.5,-473 65.5,-473 65.5,-467 71.5,-461 77.5,-461 77.5,-461 196.5,-461 196.5,-461 202.5,-461 208.5,-467 208.5,-473 208.5,-473 208.5,-532 208.5,-532 208.5,-538 202.5,-544 196.5,-544"/>
<text text-anchor="start" x="73.5" y="-528.8" font-family="Helvetica,sans-Serif" font-size="14.00">longitude ≤ 126.912</text>
<text text-anchor="start" x="103.5" y="-513.8" font-family="Helvetica,sans-Serif" font-size="14.00">gini = 0.75</text>
<text text-anchor="start" x="93.5" y="-498.8" font-family="Helvetica,sans-Serif" font-size="14.00">samples = 20</text>
<text text-anchor="start" x="81" y="-483.8" font-family="Helvetica,sans-Serif" font-size="14.00">value = [5, 5, 5, 5]</text>
<text text-anchor="start" x="84" y="-468.8" font-family="Helvetica,sans-Serif" font-size="14.00">class = Gangbuk</text>
</g>
<!-- 1 -->
<g id="node2" class="node">
<title>1</title>
<path fill="#d739e5" stroke="black" d="M116,-417.5C116,-417.5 12,-417.5 12,-417.5 6,-417.5 0,-411.5 0,-405.5 0,-405.5 0,-361.5 0,-361.5 0,-355.5 6,-349.5 12,-349.5 12,-349.5 116,-349.5 116,-349.5 122,-349.5 128,-355.5 128,-361.5 128,-361.5 128,-405.5 128,-405.5 128,-411.5 122,-417.5 116,-417.5"/>
<text text-anchor="start" x="35" y="-402.3" font-family="Helvetica,sans-Serif" font-size="14.00">gini = 0.0</text>
<text text-anchor="start" x="24.5" y="-387.3" font-family="Helvetica,sans-Serif" font-size="14.00">samples = 5</text>
<text text-anchor="start" x="8" y="-372.3" font-family="Helvetica,sans-Serif" font-size="14.00">value = [0, 0, 0, 5]</text>
<text text-anchor="start" x="10" y="-357.3" font-family="Helvetica,sans-Serif" font-size="14.00">class = Gangseo</text>
</g>
<!-- 0&#45;&gt;1 -->
<g id="edge1" class="edge">
<title>0&#45;&gt;1</title>
<path fill="none" stroke="black" d="M111.67,-460.91C104.72,-449.76 97.17,-437.66 90.17,-426.44"/>
<polygon fill="black" stroke="black" points="92.96,-424.3 84.69,-417.67 87.02,-428 92.96,-424.3"/>
<text text-anchor="middle" x="79.05" y="-438.32" font-family="Helvetica,sans-Serif" font-size="14.00">True</text>
</g>
<!-- 2 -->
<g id="node3" class="node">
<title>2</title>
<path fill="#ffffff" stroke="black" d="M262,-425C262,-425 158,-425 158,-425 152,-425 146,-419 146,-413 146,-413 146,-354 146,-354 146,-348 152,-342 158,-342 158,-342 262,-342 262,-342 268,-342 274,-348 274,-354 274,-354 274,-413 274,-413 274,-419 268,-425 262,-425"/>
<text text-anchor="start" x="157" y="-409.8" font-family="Helvetica,sans-Serif" font-size="14.00">latitude ≤ 37.525</text>
<text text-anchor="start" x="172.5" y="-394.8" font-family="Helvetica,sans-Serif" font-size="14.00">gini = 0.667</text>
<text text-anchor="start" x="166.5" y="-379.8" font-family="Helvetica,sans-Serif" font-size="14.00">samples = 15</text>
<text text-anchor="start" x="154" y="-364.8" font-family="Helvetica,sans-Serif" font-size="14.00">value = [5, 5, 5, 0]</text>
<text text-anchor="start" x="157" y="-349.8" font-family="Helvetica,sans-Serif" font-size="14.00">class = Gangbuk</text>
</g>
<!-- 0&#45;&gt;2 -->
<g id="edge2" class="edge">
<title>0&#45;&gt;2</title>
<path fill="none" stroke="black" d="M162.33,-460.91C167.82,-452.1 173.69,-442.7 179.36,-433.61"/>
<polygon fill="black" stroke="black" points="182.39,-435.36 184.72,-425.02 176.45,-431.65 182.39,-435.36"/>
<text text-anchor="middle" x="190.36" y="-445.68" font-family="Helvetica,sans-Serif" font-size="14.00">False</text>
</g>
<!-- 3 -->
<g id="node4" class="node">
<title>3</title>
<path fill="#399de5" stroke="black" d="M188,-298.5C188,-298.5 84,-298.5 84,-298.5 78,-298.5 72,-292.5 72,-286.5 72,-286.5 72,-242.5 72,-242.5 72,-236.5 78,-230.5 84,-230.5 84,-230.5 188,-230.5 188,-230.5 194,-230.5 200,-236.5 200,-242.5 200,-242.5 200,-286.5 200,-286.5 200,-292.5 194,-298.5 188,-298.5"/>
<text text-anchor="start" x="107" y="-283.3" font-family="Helvetica,sans-Serif" font-size="14.00">gini = 0.0</text>
<text text-anchor="start" x="96.5" y="-268.3" font-family="Helvetica,sans-Serif" font-size="14.00">samples = 5</text>
<text text-anchor="start" x="80" y="-253.3" font-family="Helvetica,sans-Serif" font-size="14.00">value = [0, 0, 5, 0]</text>
<text text-anchor="start" x="80.5" y="-238.3" font-family="Helvetica,sans-Serif" font-size="14.00">class = Gangnam</text>
</g>
<!-- 2&#45;&gt;3 -->
<g id="edge3" class="edge">
<title>2&#45;&gt;3</title>
<path fill="none" stroke="black" d="M184.33,-341.91C177.28,-330.76 169.62,-318.66 162.53,-307.44"/>
<polygon fill="black" stroke="black" points="165.28,-305.25 156.98,-298.67 159.36,-308.99 165.28,-305.25"/>
</g>
<!-- 4 -->
<g id="node5" class="node">
<title>4</title>
<path fill="#ffffff" stroke="black" d="M340,-306C340,-306 230,-306 230,-306 224,-306 218,-300 218,-294 218,-294 218,-235 218,-235 218,-229 224,-223 230,-223 230,-223 340,-223 340,-223 346,-223 352,-229 352,-235 352,-235 352,-294 352,-294 352,-300 346,-306 340,-306"/>
<text text-anchor="start" x="226" y="-290.8" font-family="Helvetica,sans-Serif" font-size="14.00">longitude ≤ 127.07</text>
<text text-anchor="start" x="256" y="-275.8" font-family="Helvetica,sans-Serif" font-size="14.00">gini = 0.5</text>
<text text-anchor="start" x="241.5" y="-260.8" font-family="Helvetica,sans-Serif" font-size="14.00">samples = 10</text>
<text text-anchor="start" x="229" y="-245.8" font-family="Helvetica,sans-Serif" font-size="14.00">value = [5, 5, 0, 0]</text>
<text text-anchor="start" x="232" y="-230.8" font-family="Helvetica,sans-Serif" font-size="14.00">class = Gangbuk</text>
</g>
<!-- 2&#45;&gt;4 -->
<g id="edge4" class="edge">
<title>2&#45;&gt;4</title>
<path fill="none" stroke="black" d="M236.02,-341.91C241.66,-333.1 247.69,-323.7 253.52,-314.61"/>
<polygon fill="black" stroke="black" points="256.57,-316.33 259.03,-306.02 250.68,-312.55 256.57,-316.33"/>
</g>
<!-- 5 -->
<g id="node6" class="node">
<title>5</title>
<path fill="#efb388" stroke="black" d="M266.5,-187C266.5,-187 147.5,-187 147.5,-187 141.5,-187 135.5,-181 135.5,-175 135.5,-175 135.5,-116 135.5,-116 135.5,-110 141.5,-104 147.5,-104 147.5,-104 266.5,-104 266.5,-104 272.5,-104 278.5,-110 278.5,-116 278.5,-116 278.5,-175 278.5,-175 278.5,-181 272.5,-187 266.5,-187"/>
<text text-anchor="start" x="143.5" y="-171.8" font-family="Helvetica,sans-Serif" font-size="14.00">longitude ≤ 127.044</text>
<text text-anchor="start" x="169.5" y="-156.8" font-family="Helvetica,sans-Serif" font-size="14.00">gini = 0.408</text>
<text text-anchor="start" x="167.5" y="-141.8" font-family="Helvetica,sans-Serif" font-size="14.00">samples = 7</text>
<text text-anchor="start" x="151" y="-126.8" font-family="Helvetica,sans-Serif" font-size="14.00">value = [5, 2, 0, 0]</text>
<text text-anchor="start" x="154" y="-111.8" font-family="Helvetica,sans-Serif" font-size="14.00">class = Gangbuk</text>
</g>
<!-- 4&#45;&gt;5 -->
<g id="edge5" class="edge">
<title>4&#45;&gt;5</title>
<path fill="none" stroke="black" d="M257.94,-222.91C252.07,-214.1 245.8,-204.7 239.74,-195.61"/>
<polygon fill="black" stroke="black" points="242.47,-193.4 234.01,-187.02 236.65,-197.28 242.47,-193.4"/>
</g>
<!-- 8 -->
<g id="node9" class="node">
<title>8</title>
<path fill="#47e539" stroke="black" d="M417,-179.5C417,-179.5 309,-179.5 309,-179.5 303,-179.5 297,-173.5 297,-167.5 297,-167.5 297,-123.5 297,-123.5 297,-117.5 303,-111.5 309,-111.5 309,-111.5 417,-111.5 417,-111.5 423,-111.5 429,-117.5 429,-123.5 429,-123.5 429,-167.5 429,-167.5 429,-173.5 423,-179.5 417,-179.5"/>
<text text-anchor="start" x="334" y="-164.3" font-family="Helvetica,sans-Serif" font-size="14.00">gini = 0.0</text>
<text text-anchor="start" x="323.5" y="-149.3" font-family="Helvetica,sans-Serif" font-size="14.00">samples = 3</text>
<text text-anchor="start" x="307" y="-134.3" font-family="Helvetica,sans-Serif" font-size="14.00">value = [0, 3, 0, 0]</text>
<text text-anchor="start" x="305" y="-119.3" font-family="Helvetica,sans-Serif" font-size="14.00">class = Gangdong</text>
</g>
<!-- 4&#45;&gt;8 -->
<g id="edge8" class="edge">
<title>4&#45;&gt;8</title>
<path fill="none" stroke="black" d="M312.06,-222.91C319.57,-211.65 327.72,-199.42 335.26,-188.11"/>
<polygon fill="black" stroke="black" points="338.25,-189.93 340.89,-179.67 332.43,-186.05 338.25,-189.93"/>
</g>
<!-- 6 -->
<g id="node7" class="node">
<title>6</title>
<path fill="#ffffff" stroke="black" d="M186,-68C186,-68 82,-68 82,-68 76,-68 70,-62 70,-56 70,-56 70,-12 70,-12 70,-6 76,0 82,0 82,0 186,0 186,0 192,0 198,-6 198,-12 198,-12 198,-56 198,-56 198,-62 192,-68 186,-68"/>
<text text-anchor="start" x="105" y="-52.8" font-family="Helvetica,sans-Serif" font-size="14.00">gini = 0.5</text>
<text text-anchor="start" x="94.5" y="-37.8" font-family="Helvetica,sans-Serif" font-size="14.00">samples = 4</text>
<text text-anchor="start" x="78" y="-22.8" font-family="Helvetica,sans-Serif" font-size="14.00">value = [2, 2, 0, 0]</text>
<text text-anchor="start" x="81" y="-7.8" font-family="Helvetica,sans-Serif" font-size="14.00">class = Gangbuk</text>
</g>
<!-- 5&#45;&gt;6 -->
<g id="edge6" class="edge">
<title>5&#45;&gt;6</title>
<path fill="none" stroke="black" d="M179.82,-103.73C173.92,-94.88 167.67,-85.51 161.75,-76.63"/>
<polygon fill="black" stroke="black" points="164.66,-74.68 156.2,-68.3 158.83,-78.56 164.66,-74.68"/>
</g>
<!-- 7 -->
<g id="node8" class="node">
<title>7</title>
<path fill="#e58139" stroke="black" d="M332,-68C332,-68 228,-68 228,-68 222,-68 216,-62 216,-56 216,-56 216,-12 216,-12 216,-6 222,0 228,0 228,0 332,0 332,0 338,0 344,-6 344,-12 344,-12 344,-56 344,-56 344,-62 338,-68 332,-68"/>
<text text-anchor="start" x="251" y="-52.8" font-family="Helvetica,sans-Serif" font-size="14.00">gini = 0.0</text>
<text text-anchor="start" x="240.5" y="-37.8" font-family="Helvetica,sans-Serif" font-size="14.00">samples = 3</text>
<text text-anchor="start" x="224" y="-22.8" font-family="Helvetica,sans-Serif" font-size="14.00">value = [3, 0, 0, 0]</text>
<text text-anchor="start" x="227" y="-7.8" font-family="Helvetica,sans-Serif" font-size="14.00">class = Gangbuk</text>
</g>
<!-- 5&#45;&gt;7 -->
<g id="edge7" class="edge">
<title>5&#45;&gt;7</title>
<path fill="none" stroke="black" d="M234.18,-103.73C240.08,-94.88 246.33,-85.51 252.25,-76.63"/>
<polygon fill="black" stroke="black" points="255.17,-78.56 257.8,-68.3 249.34,-74.68 255.17,-78.56"/>
</g>
</g>
</svg>
