<?xml version="1.0" encoding="UTF-8" standalone="no"?>
<!DOCTYPE svg PUBLIC "-//W3C//DTD SVG 1.1//EN"
 "http://www.w3.org/Graphics/SVG/1.1/DTD/svg11.dtd">
<!-- Generated by graphviz version 2.44.2~dev.20201112.1525 (20201112.1525)
 -->
<!-- Title: Tree Pages: 1 -->
<svg width="1066pt" height="790pt"
 viewBox="0.00 0.00 1066.00 790.00" xmlns="http://www.w3.org/2000/svg" xmlns:xlink="http://www.w3.org/1999/xlink">
<g id="graph0" class="graph" transform="scale(1 1) rotate(0) translate(4 786)">
<title>Tree</title>
<polygon fill="white" stroke="transparent" points="-4,4 -4,-786 1062,-786 1062,4 -4,4"/>
<!-- 0 -->
<g id="node1" class="node">
<title>0</title>
<path fill="#fdf3ed" stroke="black" d="M668.5,-782C668.5,-782 546.5,-782 546.5,-782 540.5,-782 534.5,-776 534.5,-770 534.5,-770 534.5,-711 534.5,-711 534.5,-705 540.5,-699 546.5,-699 546.5,-699 668.5,-699 668.5,-699 674.5,-699 680.5,-705 680.5,-711 680.5,-711 680.5,-770 680.5,-770 680.5,-776 674.5,-782 668.5,-782"/>
<text text-anchor="middle" x="607.5" y="-766.8" font-family="Helvetica,sans-Serif" font-size="14.00">odor_n &lt;= 0.5</text>
<text text-anchor="middle" x="607.5" y="-751.8" font-family="Helvetica,sans-Serif" font-size="14.00">gini = 0.499</text>
<text text-anchor="middle" x="607.5" y="-736.8" font-family="Helvetica,sans-Serif" font-size="14.00">samples = 5686</text>
<text text-anchor="middle" x="607.5" y="-721.8" font-family="Helvetica,sans-Serif" font-size="14.00">value = [2980, 2706]</text>
<text text-anchor="middle" x="607.5" y="-706.8" font-family="Helvetica,sans-Serif" font-size="14.00">class = 독</text>
</g>
<!-- 1 -->
<g id="node2" class="node">
<title>1</title>
<path fill="#63b2eb" stroke="black" d="M568.5,-663C568.5,-663 454.5,-663 454.5,-663 448.5,-663 442.5,-657 442.5,-651 442.5,-651 442.5,-592 442.5,-592 442.5,-586 448.5,-580 454.5,-580 454.5,-580 568.5,-580 568.5,-580 574.5,-580 580.5,-586 580.5,-592 580.5,-592 580.5,-651 580.5,-651 580.5,-657 574.5,-663 568.5,-663"/>
<text text-anchor="middle" x="511.5" y="-647.8" font-family="Helvetica,sans-Serif" font-size="14.00">stalk&#45;root_c &lt;= 0.5</text>
<text text-anchor="middle" x="511.5" y="-632.8" font-family="Helvetica,sans-Serif" font-size="14.00">gini = 0.29</text>
<text text-anchor="middle" x="511.5" y="-617.8" font-family="Helvetica,sans-Serif" font-size="14.00">samples = 3175</text>
<text text-anchor="middle" x="511.5" y="-602.8" font-family="Helvetica,sans-Serif" font-size="14.00">value = [558, 2617]</text>
<text text-anchor="middle" x="511.5" y="-587.8" font-family="Helvetica,sans-Serif" font-size="14.00">class = 식용</text>
</g>
<!-- 0&#45;&gt;1 -->
<g id="edge1" class="edge">
<title>0:&#45;&gt;1:</title>
<path fill="none" stroke="black" d="M574.19,-698.91C566.75,-689.83 558.78,-680.12 551.11,-670.77"/>
<polygon fill="black" stroke="black" points="553.8,-668.53 544.75,-663.02 548.39,-672.97 553.8,-668.53"/>
<text text-anchor="middle" x="542.29" y="-684.2" font-family="Helvetica,sans-Serif" font-size="14.00">True</text>
</g>
<!-- 12 -->
<g id="node13" class="node">
<title>12</title>
<path fill="#e68640" stroke="black" d="M812.5,-663C812.5,-663 658.5,-663 658.5,-663 652.5,-663 646.5,-657 646.5,-651 646.5,-651 646.5,-592 646.5,-592 646.5,-586 652.5,-580 658.5,-580 658.5,-580 812.5,-580 812.5,-580 818.5,-580 824.5,-586 824.5,-592 824.5,-592 824.5,-651 824.5,-651 824.5,-657 818.5,-663 812.5,-663"/>
<text text-anchor="middle" x="735.5" y="-647.8" font-family="Helvetica,sans-Serif" font-size="14.00">spore&#45;print&#45;color_r &lt;= 0.5</text>
<text text-anchor="middle" x="735.5" y="-632.8" font-family="Helvetica,sans-Serif" font-size="14.00">gini = 0.068</text>
<text text-anchor="middle" x="735.5" y="-617.8" font-family="Helvetica,sans-Serif" font-size="14.00">samples = 2511</text>
<text text-anchor="middle" x="735.5" y="-602.8" font-family="Helvetica,sans-Serif" font-size="14.00">value = [2422, 89]</text>
<text text-anchor="middle" x="735.5" y="-587.8" font-family="Helvetica,sans-Serif" font-size="14.00">class = 독</text>
</g>
<!-- 0&#45;&gt;12 -->
<g id="edge12" class="edge">
<title>0:&#45;&gt;12:</title>
<path fill="none" stroke="black" d="M651.91,-698.91C662.14,-689.56 673.1,-679.54 683.61,-669.93"/>
<polygon fill="black" stroke="black" points="686.15,-672.35 691.17,-663.02 681.43,-667.18 686.15,-672.35"/>
<text text-anchor="middle" x="690.05" y="-684.3" font-family="Helvetica,sans-Serif" font-size="14.00">False</text>
</g>
<!-- 2 -->
<g id="node3" class="node">
<title>2</title>
<path fill="#49a5e7" stroke="black" d="M387.5,-544C387.5,-544 273.5,-544 273.5,-544 267.5,-544 261.5,-538 261.5,-532 261.5,-532 261.5,-473 261.5,-473 261.5,-467 267.5,-461 273.5,-461 273.5,-461 387.5,-461 387.5,-461 393.5,-461 399.5,-467 399.5,-473 399.5,-473 399.5,-532 399.5,-532 399.5,-538 393.5,-544 387.5,-544"/>
<text text-anchor="middle" x="330.5" y="-528.8" font-family="Helvetica,sans-Serif" font-size="14.00">stalk&#45;root_r &lt;= 0.5</text>
<text text-anchor="middle" x="330.5" y="-513.8" font-family="Helvetica,sans-Serif" font-size="14.00">gini = 0.142</text>
<text text-anchor="middle" x="330.5" y="-498.8" font-family="Helvetica,sans-Serif" font-size="14.00">samples = 2811</text>
<text text-anchor="middle" x="330.5" y="-483.8" font-family="Helvetica,sans-Serif" font-size="14.00">value = [216, 2595]</text>
<text text-anchor="middle" x="330.5" y="-468.8" font-family="Helvetica,sans-Serif" font-size="14.00">class = 식용</text>
</g>
<!-- 1&#45;&gt;2 -->
<g id="edge2" class="edge">
<title>1:&#45;&gt;2:</title>
<path fill="none" stroke="black" d="M448.7,-579.91C433.54,-570.11 417.23,-559.56 401.71,-549.53"/>
<polygon fill="black" stroke="black" points="403.48,-546.51 393.19,-544.02 399.68,-552.39 403.48,-546.51"/>
</g>
<!-- 9 -->
<g id="node10" class="node">
<title>9</title>
<path fill="#e78946" stroke="black" d="M560.5,-544C560.5,-544 462.5,-544 462.5,-544 456.5,-544 450.5,-538 450.5,-532 450.5,-532 450.5,-473 450.5,-473 450.5,-467 456.5,-461 462.5,-461 462.5,-461 560.5,-461 560.5,-461 566.5,-461 572.5,-467 572.5,-473 572.5,-473 572.5,-532 572.5,-532 572.5,-538 566.5,-544 560.5,-544"/>
<text text-anchor="middle" x="511.5" y="-528.8" font-family="Helvetica,sans-Serif" font-size="14.00">odor_m &lt;= 0.5</text>
<text text-anchor="middle" x="511.5" y="-513.8" font-family="Helvetica,sans-Serif" font-size="14.00">gini = 0.114</text>
<text text-anchor="middle" x="511.5" y="-498.8" font-family="Helvetica,sans-Serif" font-size="14.00">samples = 364</text>
<text text-anchor="middle" x="511.5" y="-483.8" font-family="Helvetica,sans-Serif" font-size="14.00">value = [342, 22]</text>
<text text-anchor="middle" x="511.5" y="-468.8" font-family="Helvetica,sans-Serif" font-size="14.00">class = 독</text>
</g>
<!-- 1&#45;&gt;9 -->
<g id="edge9" class="edge">
<title>1:&#45;&gt;9:</title>
<path fill="none" stroke="black" d="M511.5,-579.91C511.5,-571.65 511.5,-562.86 511.5,-554.3"/>
<polygon fill="black" stroke="black" points="515,-554.02 511.5,-544.02 508,-554.02 515,-554.02"/>
</g>
<!-- 3 -->
<g id="node4" class="node">
<title>3</title>
<path fill="#3ea0e6" stroke="black" d="M243.5,-425C243.5,-425 119.5,-425 119.5,-425 113.5,-425 107.5,-419 107.5,-413 107.5,-413 107.5,-354 107.5,-354 107.5,-348 113.5,-342 119.5,-342 119.5,-342 243.5,-342 243.5,-342 249.5,-342 255.5,-348 255.5,-354 255.5,-354 255.5,-413 255.5,-413 255.5,-419 249.5,-425 243.5,-425"/>
<text text-anchor="middle" x="181.5" y="-409.8" font-family="Helvetica,sans-Serif" font-size="14.00">gill&#45;spacing_c &lt;= 0.5</text>
<text text-anchor="middle" x="181.5" y="-394.8" font-family="Helvetica,sans-Serif" font-size="14.00">gini = 0.05</text>
<text text-anchor="middle" x="181.5" y="-379.8" font-family="Helvetica,sans-Serif" font-size="14.00">samples = 2664</text>
<text text-anchor="middle" x="181.5" y="-364.8" font-family="Helvetica,sans-Serif" font-size="14.00">value = [69, 2595]</text>
<text text-anchor="middle" x="181.5" y="-349.8" font-family="Helvetica,sans-Serif" font-size="14.00">class = 식용</text>
</g>
<!-- 2&#45;&gt;3 -->
<g id="edge3" class="edge">
<title>2:&#45;&gt;3:</title>
<path fill="none" stroke="black" d="M278.81,-460.91C266.67,-451.38 253.64,-441.15 241.19,-431.37"/>
<polygon fill="black" stroke="black" points="243.13,-428.44 233.1,-425.02 238.81,-433.95 243.13,-428.44"/>
</g>
<!-- 8 -->
<g id="node9" class="node">
<title>8</title>
<path fill="#e58139" stroke="black" d="M375,-417.5C375,-417.5 286,-417.5 286,-417.5 280,-417.5 274,-411.5 274,-405.5 274,-405.5 274,-361.5 274,-361.5 274,-355.5 280,-349.5 286,-349.5 286,-349.5 375,-349.5 375,-349.5 381,-349.5 387,-355.5 387,-361.5 387,-361.5 387,-405.5 387,-405.5 387,-411.5 381,-417.5 375,-417.5"/>
<text text-anchor="middle" x="330.5" y="-402.3" font-family="Helvetica,sans-Serif" font-size="14.00">gini = 0.0</text>
<text text-anchor="middle" x="330.5" y="-387.3" font-family="Helvetica,sans-Serif" font-size="14.00">samples = 147</text>
<text text-anchor="middle" x="330.5" y="-372.3" font-family="Helvetica,sans-Serif" font-size="14.00">value = [147, 0]</text>
<text text-anchor="middle" x="330.5" y="-357.3" font-family="Helvetica,sans-Serif" font-size="14.00">class = 독</text>
</g>
<!-- 2&#45;&gt;8 -->
<g id="edge8" class="edge">
<title>2:&#45;&gt;8:</title>
<path fill="none" stroke="black" d="M330.5,-460.91C330.5,-450.2 330.5,-438.62 330.5,-427.78"/>
<polygon fill="black" stroke="black" points="334,-427.67 330.5,-417.67 327,-427.67 334,-427.67"/>
</g>
<!-- 4 -->
<g id="node5" class="node">
<title>4</title>
<path fill="#fdf4ee" stroke="black" d="M158,-306C158,-306 69,-306 69,-306 63,-306 57,-300 57,-294 57,-294 57,-235 57,-235 57,-229 63,-223 69,-223 69,-223 158,-223 158,-223 164,-223 170,-229 170,-235 170,-235 170,-294 170,-294 170,-300 164,-306 158,-306"/>
<text text-anchor="middle" x="113.5" y="-290.8" font-family="Helvetica,sans-Serif" font-size="14.00">odor_c &lt;= 0.5</text>
<text text-anchor="middle" x="113.5" y="-275.8" font-family="Helvetica,sans-Serif" font-size="14.00">gini = 0.499</text>
<text text-anchor="middle" x="113.5" y="-260.8" font-family="Helvetica,sans-Serif" font-size="14.00">samples = 132</text>
<text text-anchor="middle" x="113.5" y="-245.8" font-family="Helvetica,sans-Serif" font-size="14.00">value = [69, 63]</text>
<text text-anchor="middle" x="113.5" y="-230.8" font-family="Helvetica,sans-Serif" font-size="14.00">class = 독</text>
</g>
<!-- 3&#45;&gt;4 -->
<g id="edge4" class="edge">
<title>3:&#45;&gt;4:</title>
<path fill="none" stroke="black" d="M157.91,-341.91C152.84,-333.2 147.44,-323.9 142.21,-314.89"/>
<polygon fill="black" stroke="black" points="145.1,-312.91 137.05,-306.02 139.05,-316.43 145.1,-312.91"/>
</g>
<!-- 7 -->
<g id="node8" class="node">
<title>7</title>
<path fill="#399de5" stroke="black" d="M298.5,-298.5C298.5,-298.5 200.5,-298.5 200.5,-298.5 194.5,-298.5 188.5,-292.5 188.5,-286.5 188.5,-286.5 188.5,-242.5 188.5,-242.5 188.5,-236.5 194.5,-230.5 200.5,-230.5 200.5,-230.5 298.5,-230.5 298.5,-230.5 304.5,-230.5 310.5,-236.5 310.5,-242.5 310.5,-242.5 310.5,-286.5 310.5,-286.5 310.5,-292.5 304.5,-298.5 298.5,-298.5"/>
<text text-anchor="middle" x="249.5" y="-283.3" font-family="Helvetica,sans-Serif" font-size="14.00">gini = 0.0</text>
<text text-anchor="middle" x="249.5" y="-268.3" font-family="Helvetica,sans-Serif" font-size="14.00">samples = 2532</text>
<text text-anchor="middle" x="249.5" y="-253.3" font-family="Helvetica,sans-Serif" font-size="14.00">value = [0, 2532]</text>
<text text-anchor="middle" x="249.5" y="-238.3" font-family="Helvetica,sans-Serif" font-size="14.00">class = 식용</text>
</g>
<!-- 3&#45;&gt;7 -->
<g id="edge7" class="edge">
<title>3:&#45;&gt;7:</title>
<path fill="none" stroke="black" d="M205.09,-341.91C211.57,-330.76 218.6,-318.66 225.13,-307.44"/>
<polygon fill="black" stroke="black" points="228.22,-309.07 230.22,-298.67 222.17,-305.55 228.22,-309.07"/>
</g>
<!-- 5 -->
<g id="node6" class="node">
<title>5</title>
<path fill="#e58139" stroke="black" d="M93,-179.5C93,-179.5 12,-179.5 12,-179.5 6,-179.5 0,-173.5 0,-167.5 0,-167.5 0,-123.5 0,-123.5 0,-117.5 6,-111.5 12,-111.5 12,-111.5 93,-111.5 93,-111.5 99,-111.5 105,-117.5 105,-123.5 105,-123.5 105,-167.5 105,-167.5 105,-173.5 99,-179.5 93,-179.5"/>
<text text-anchor="middle" x="52.5" y="-164.3" font-family="Helvetica,sans-Serif" font-size="14.00">gini = 0.0</text>
<text text-anchor="middle" x="52.5" y="-149.3" font-family="Helvetica,sans-Serif" font-size="14.00">samples = 69</text>
<text text-anchor="middle" x="52.5" y="-134.3" font-family="Helvetica,sans-Serif" font-size="14.00">value = [69, 0]</text>
<text text-anchor="middle" x="52.5" y="-119.3" font-family="Helvetica,sans-Serif" font-size="14.00">class = 독</text>
</g>
<!-- 4&#45;&gt;5 -->
<g id="edge5" class="edge">
<title>4:&#45;&gt;5:</title>
<path fill="none" stroke="black" d="M92.34,-222.91C86.58,-211.87 80.34,-199.9 74.54,-188.77"/>
<polygon fill="black" stroke="black" points="77.52,-186.92 69.79,-179.67 71.31,-190.15 77.52,-186.92"/>
</g>
<!-- 6 -->
<g id="node7" class="node">
<title>6</title>
<path fill="#399de5" stroke="black" d="M216,-179.5C216,-179.5 135,-179.5 135,-179.5 129,-179.5 123,-173.5 123,-167.5 123,-167.5 123,-123.5 123,-123.5 123,-117.5 129,-111.5 135,-111.5 135,-111.5 216,-111.5 216,-111.5 222,-111.5 228,-117.5 228,-123.5 228,-123.5 228,-167.5 228,-167.5 228,-173.5 222,-179.5 216,-179.5"/>
<text text-anchor="middle" x="175.5" y="-164.3" font-family="Helvetica,sans-Serif" font-size="14.00">gini = 0.0</text>
<text text-anchor="middle" x="175.5" y="-149.3" font-family="Helvetica,sans-Serif" font-size="14.00">samples = 63</text>
<text text-anchor="middle" x="175.5" y="-134.3" font-family="Helvetica,sans-Serif" font-size="14.00">value = [0, 63]</text>
<text text-anchor="middle" x="175.5" y="-119.3" font-family="Helvetica,sans-Serif" font-size="14.00">class = 식용</text>
</g>
<!-- 4&#45;&gt;6 -->
<g id="edge6" class="edge">
<title>4:&#45;&gt;6:</title>
<path fill="none" stroke="black" d="M135.01,-222.91C140.86,-211.87 147.2,-199.9 153.1,-188.77"/>
<polygon fill="black" stroke="black" points="156.33,-190.14 157.92,-179.67 150.15,-186.86 156.33,-190.14"/>
</g>
<!-- 10 -->
<g id="node11" class="node">
<title>10</title>
<path fill="#e58139" stroke="black" d="M506,-417.5C506,-417.5 417,-417.5 417,-417.5 411,-417.5 405,-411.5 405,-405.5 405,-405.5 405,-361.5 405,-361.5 405,-355.5 411,-349.5 417,-349.5 417,-349.5 506,-349.5 506,-349.5 512,-349.5 518,-355.5 518,-361.5 518,-361.5 518,-405.5 518,-405.5 518,-411.5 512,-417.5 506,-417.5"/>
<text text-anchor="middle" x="461.5" y="-402.3" font-family="Helvetica,sans-Serif" font-size="14.00">gini = 0.0</text>
<text text-anchor="middle" x="461.5" y="-387.3" font-family="Helvetica,sans-Serif" font-size="14.00">samples = 342</text>
<text text-anchor="middle" x="461.5" y="-372.3" font-family="Helvetica,sans-Serif" font-size="14.00">value = [342, 0]</text>
<text text-anchor="middle" x="461.5" y="-357.3" font-family="Helvetica,sans-Serif" font-size="14.00">class = 독</text>
</g>
<!-- 9&#45;&gt;10 -->
<g id="edge10" class="edge">
<title>9:&#45;&gt;10:</title>
<path fill="none" stroke="black" d="M494.15,-460.91C489.48,-449.98 484.42,-438.14 479.71,-427.11"/>
<polygon fill="black" stroke="black" points="482.82,-425.49 475.67,-417.67 476.39,-428.24 482.82,-425.49"/>
</g>
<!-- 11 -->
<g id="node12" class="node">
<title>11</title>
<path fill="#399de5" stroke="black" d="M629,-417.5C629,-417.5 548,-417.5 548,-417.5 542,-417.5 536,-411.5 536,-405.5 536,-405.5 536,-361.5 536,-361.5 536,-355.5 542,-349.5 548,-349.5 548,-349.5 629,-349.5 629,-349.5 635,-349.5 641,-355.5 641,-361.5 641,-361.5 641,-405.5 641,-405.5 641,-411.5 635,-417.5 629,-417.5"/>
<text text-anchor="middle" x="588.5" y="-402.3" font-family="Helvetica,sans-Serif" font-size="14.00">gini = 0.0</text>
<text text-anchor="middle" x="588.5" y="-387.3" font-family="Helvetica,sans-Serif" font-size="14.00">samples = 22</text>
<text text-anchor="middle" x="588.5" y="-372.3" font-family="Helvetica,sans-Serif" font-size="14.00">value = [0, 22]</text>
<text text-anchor="middle" x="588.5" y="-357.3" font-family="Helvetica,sans-Serif" font-size="14.00">class = 식용</text>
</g>
<!-- 9&#45;&gt;11 -->
<g id="edge11" class="edge">
<title>9:&#45;&gt;11:</title>
<path fill="none" stroke="black" d="M538.21,-460.91C545.62,-449.65 553.67,-437.42 561.12,-426.11"/>
<polygon fill="black" stroke="black" points="564.1,-427.94 566.67,-417.67 558.25,-424.1 564.1,-427.94"/>
</g>
<!-- 13 -->
<g id="node14" class="node">
<title>13</title>
<path fill="#e5833c" stroke="black" d="M836.5,-544C836.5,-544 634.5,-544 634.5,-544 628.5,-544 622.5,-538 622.5,-532 622.5,-532 622.5,-473 622.5,-473 622.5,-467 628.5,-461 634.5,-461 634.5,-461 836.5,-461 836.5,-461 842.5,-461 848.5,-467 848.5,-473 848.5,-473 848.5,-532 848.5,-532 848.5,-538 842.5,-544 836.5,-544"/>
<text text-anchor="middle" x="735.5" y="-528.8" font-family="Helvetica,sans-Serif" font-size="14.00">stalk&#45;surface&#45;below&#45;ring_y &lt;= 0.5</text>
<text text-anchor="middle" x="735.5" y="-513.8" font-family="Helvetica,sans-Serif" font-size="14.00">gini = 0.03</text>
<text text-anchor="middle" x="735.5" y="-498.8" font-family="Helvetica,sans-Serif" font-size="14.00">samples = 2460</text>
<text text-anchor="middle" x="735.5" y="-483.8" font-family="Helvetica,sans-Serif" font-size="14.00">value = [2422, 38]</text>
<text text-anchor="middle" x="735.5" y="-468.8" font-family="Helvetica,sans-Serif" font-size="14.00">class = 독</text>
</g>
<!-- 12&#45;&gt;13 -->
<g id="edge13" class="edge">
<title>12:&#45;&gt;13:</title>
<path fill="none" stroke="black" d="M735.5,-579.91C735.5,-571.65 735.5,-562.86 735.5,-554.3"/>
<polygon fill="black" stroke="black" points="739,-554.02 735.5,-544.02 732,-554.02 739,-554.02"/>
</g>
<!-- 24 -->
<g id="node25" class="node">
<title>24</title>
<path fill="#399de5" stroke="black" d="M960,-536.5C960,-536.5 879,-536.5 879,-536.5 873,-536.5 867,-530.5 867,-524.5 867,-524.5 867,-480.5 867,-480.5 867,-474.5 873,-468.5 879,-468.5 879,-468.5 960,-468.5 960,-468.5 966,-468.5 972,-474.5 972,-480.5 972,-480.5 972,-524.5 972,-524.5 972,-530.5 966,-536.5 960,-536.5"/>
<text text-anchor="middle" x="919.5" y="-521.3" font-family="Helvetica,sans-Serif" font-size="14.00">gini = 0.0</text>
<text text-anchor="middle" x="919.5" y="-506.3" font-family="Helvetica,sans-Serif" font-size="14.00">samples = 51</text>
<text text-anchor="middle" x="919.5" y="-491.3" font-family="Helvetica,sans-Serif" font-size="14.00">value = [0, 51]</text>
<text text-anchor="middle" x="919.5" y="-476.3" font-family="Helvetica,sans-Serif" font-size="14.00">class = 식용</text>
</g>
<!-- 12&#45;&gt;24 -->
<g id="edge24" class="edge">
<title>12:&#45;&gt;24:</title>
<path fill="none" stroke="black" d="M800.86,-579.83C819.22,-568.32 839.18,-555.73 857.5,-544 858.57,-543.32 859.64,-542.63 860.72,-541.93"/>
<polygon fill="black" stroke="black" points="862.62,-544.87 869.13,-536.51 858.83,-538.99 862.62,-544.87"/>
</g>
<!-- 14 -->
<g id="node15" class="node">
<title>14</title>
<path fill="#e5813a" stroke="black" d="M799.5,-425C799.5,-425 671.5,-425 671.5,-425 665.5,-425 659.5,-419 659.5,-413 659.5,-413 659.5,-354 659.5,-354 659.5,-348 665.5,-342 671.5,-342 671.5,-342 799.5,-342 799.5,-342 805.5,-342 811.5,-348 811.5,-354 811.5,-354 811.5,-413 811.5,-413 811.5,-419 805.5,-425 799.5,-425"/>
<text text-anchor="middle" x="735.5" y="-409.8" font-family="Helvetica,sans-Serif" font-size="14.00">cap&#45;surface_g &lt;= 0.5</text>
<text text-anchor="middle" x="735.5" y="-394.8" font-family="Helvetica,sans-Serif" font-size="14.00">gini = 0.006</text>
<text text-anchor="middle" x="735.5" y="-379.8" font-family="Helvetica,sans-Serif" font-size="14.00">samples = 2419</text>
<text text-anchor="middle" x="735.5" y="-364.8" font-family="Helvetica,sans-Serif" font-size="14.00">value = [2412, 7]</text>
<text text-anchor="middle" x="735.5" y="-349.8" font-family="Helvetica,sans-Serif" font-size="14.00">class = 독</text>
</g>
<!-- 13&#45;&gt;14 -->
<g id="edge14" class="edge">
<title>13:&#45;&gt;14:</title>
<path fill="none" stroke="black" d="M735.5,-460.91C735.5,-452.65 735.5,-443.86 735.5,-435.3"/>
<polygon fill="black" stroke="black" points="739,-435.02 735.5,-425.02 732,-435.02 739,-435.02"/>
</g>
<!-- 21 -->
<g id="node22" class="node">
<title>21</title>
<path fill="#79bded" stroke="black" d="M941.5,-425C941.5,-425 841.5,-425 841.5,-425 835.5,-425 829.5,-419 829.5,-413 829.5,-413 829.5,-354 829.5,-354 829.5,-348 835.5,-342 841.5,-342 841.5,-342 941.5,-342 941.5,-342 947.5,-342 953.5,-348 953.5,-354 953.5,-354 953.5,-413 953.5,-413 953.5,-419 947.5,-425 941.5,-425"/>
<text text-anchor="middle" x="891.5" y="-409.8" font-family="Helvetica,sans-Serif" font-size="14.00">gill&#45;size_n &lt;= 0.5</text>
<text text-anchor="middle" x="891.5" y="-394.8" font-family="Helvetica,sans-Serif" font-size="14.00">gini = 0.369</text>
<text text-anchor="middle" x="891.5" y="-379.8" font-family="Helvetica,sans-Serif" font-size="14.00">samples = 41</text>
<text text-anchor="middle" x="891.5" y="-364.8" font-family="Helvetica,sans-Serif" font-size="14.00">value = [10, 31]</text>
<text text-anchor="middle" x="891.5" y="-349.8" font-family="Helvetica,sans-Serif" font-size="14.00">class = 식용</text>
</g>
<!-- 13&#45;&gt;21 -->
<g id="edge21" class="edge">
<title>13:&#45;&gt;21:</title>
<path fill="none" stroke="black" d="M789.62,-460.91C802.45,-451.29 816.23,-440.95 829.38,-431.09"/>
<polygon fill="black" stroke="black" points="831.57,-433.82 837.47,-425.02 827.37,-428.22 831.57,-433.82"/>
</g>
<!-- 15 -->
<g id="node16" class="node">
<title>15</title>
<path fill="#e58139" stroke="black" d="M664,-306C664,-306 563,-306 563,-306 557,-306 551,-300 551,-294 551,-294 551,-235 551,-235 551,-229 557,-223 563,-223 563,-223 664,-223 664,-223 670,-223 676,-229 676,-235 676,-235 676,-294 676,-294 676,-300 670,-306 664,-306"/>
<text text-anchor="middle" x="613.5" y="-290.8" font-family="Helvetica,sans-Serif" font-size="14.00">gill&#45;size_b &lt;= 0.5</text>
<text text-anchor="middle" x="613.5" y="-275.8" font-family="Helvetica,sans-Serif" font-size="14.00">gini = 0.002</text>
<text text-anchor="middle" x="613.5" y="-260.8" font-family="Helvetica,sans-Serif" font-size="14.00">samples = 2415</text>
<text text-anchor="middle" x="613.5" y="-245.8" font-family="Helvetica,sans-Serif" font-size="14.00">value = [2412, 3]</text>
<text text-anchor="middle" x="613.5" y="-230.8" font-family="Helvetica,sans-Serif" font-size="14.00">class = 독</text>
</g>
<!-- 14&#45;&gt;15 -->
<g id="edge15" class="edge">
<title>14:&#45;&gt;15:</title>
<path fill="none" stroke="black" d="M693.17,-341.91C683.52,-332.65 673.18,-322.73 663.25,-313.21"/>
<polygon fill="black" stroke="black" points="665.39,-310.42 655.75,-306.02 660.55,-315.47 665.39,-310.42"/>
</g>
<!-- 20 -->
<g id="node21" class="node">
<title>20</title>
<path fill="#399de5" stroke="black" d="M782.5,-298.5C782.5,-298.5 706.5,-298.5 706.5,-298.5 700.5,-298.5 694.5,-292.5 694.5,-286.5 694.5,-286.5 694.5,-242.5 694.5,-242.5 694.5,-236.5 700.5,-230.5 706.5,-230.5 706.5,-230.5 782.5,-230.5 782.5,-230.5 788.5,-230.5 794.5,-236.5 794.5,-242.5 794.5,-242.5 794.5,-286.5 794.5,-286.5 794.5,-292.5 788.5,-298.5 782.5,-298.5"/>
<text text-anchor="middle" x="744.5" y="-283.3" font-family="Helvetica,sans-Serif" font-size="14.00">gini = 0.0</text>
<text text-anchor="middle" x="744.5" y="-268.3" font-family="Helvetica,sans-Serif" font-size="14.00">samples = 4</text>
<text text-anchor="middle" x="744.5" y="-253.3" font-family="Helvetica,sans-Serif" font-size="14.00">value = [0, 4]</text>
<text text-anchor="middle" x="744.5" y="-238.3" font-family="Helvetica,sans-Serif" font-size="14.00">class = 식용</text>
</g>
<!-- 14&#45;&gt;20 -->
<g id="edge20" class="edge">
<title>14:&#45;&gt;20:</title>
<path fill="none" stroke="black" d="M738.62,-341.91C739.45,-331.2 740.34,-319.62 741.17,-308.78"/>
<polygon fill="black" stroke="black" points="744.67,-308.91 741.95,-298.67 737.69,-308.37 744.67,-308.91"/>
</g>
<!-- 16 -->
<g id="node17" class="node">
<title>16</title>
<path fill="#e6843d" stroke="black" d="M597.5,-187C597.5,-187 479.5,-187 479.5,-187 473.5,-187 467.5,-181 467.5,-175 467.5,-175 467.5,-116 467.5,-116 467.5,-110 473.5,-104 479.5,-104 479.5,-104 597.5,-104 597.5,-104 603.5,-104 609.5,-110 609.5,-116 609.5,-116 609.5,-175 609.5,-175 609.5,-181 603.5,-187 597.5,-187"/>
<text text-anchor="middle" x="538.5" y="-171.8" font-family="Helvetica,sans-Serif" font-size="14.00">population_c &lt;= 0.5</text>
<text text-anchor="middle" x="538.5" y="-156.8" font-family="Helvetica,sans-Serif" font-size="14.00">gini = 0.042</text>
<text text-anchor="middle" x="538.5" y="-141.8" font-family="Helvetica,sans-Serif" font-size="14.00">samples = 139</text>
<text text-anchor="middle" x="538.5" y="-126.8" font-family="Helvetica,sans-Serif" font-size="14.00">value = [136, 3]</text>
<text text-anchor="middle" x="538.5" y="-111.8" font-family="Helvetica,sans-Serif" font-size="14.00">class = 독</text>
</g>
<!-- 15&#45;&gt;16 -->
<g id="edge16" class="edge">
<title>15:&#45;&gt;16:</title>
<path fill="none" stroke="black" d="M587.48,-222.91C581.84,-214.1 575.81,-204.7 569.98,-195.61"/>
<polygon fill="black" stroke="black" points="572.82,-193.55 564.47,-187.02 566.93,-197.33 572.82,-193.55"/>
</g>
<!-- 19 -->
<g id="node20" class="node">
<title>19</title>
<path fill="#e58139" stroke="black" d="M737.5,-179.5C737.5,-179.5 639.5,-179.5 639.5,-179.5 633.5,-179.5 627.5,-173.5 627.5,-167.5 627.5,-167.5 627.5,-123.5 627.5,-123.5 627.5,-117.5 633.5,-111.5 639.5,-111.5 639.5,-111.5 737.5,-111.5 737.5,-111.5 743.5,-111.5 749.5,-117.5 749.5,-123.5 749.5,-123.5 749.5,-167.5 749.5,-167.5 749.5,-173.5 743.5,-179.5 737.5,-179.5"/>
<text text-anchor="middle" x="688.5" y="-164.3" font-family="Helvetica,sans-Serif" font-size="14.00">gini = 0.0</text>
<text text-anchor="middle" x="688.5" y="-149.3" font-family="Helvetica,sans-Serif" font-size="14.00">samples = 2276</text>
<text text-anchor="middle" x="688.5" y="-134.3" font-family="Helvetica,sans-Serif" font-size="14.00">value = [2276, 0]</text>
<text text-anchor="middle" x="688.5" y="-119.3" font-family="Helvetica,sans-Serif" font-size="14.00">class = 독</text>
</g>
<!-- 15&#45;&gt;19 -->
<g id="edge19" class="edge">
<title>15:&#45;&gt;19:</title>
<path fill="none" stroke="black" d="M639.52,-222.91C646.74,-211.65 654.58,-199.42 661.83,-188.11"/>
<polygon fill="black" stroke="black" points="664.79,-189.97 667.24,-179.67 658.9,-186.2 664.79,-189.97"/>
</g>
<!-- 17 -->
<g id="node18" class="node">
<title>17</title>
<path fill="#e58139" stroke="black" d="M521,-68C521,-68 432,-68 432,-68 426,-68 420,-62 420,-56 420,-56 420,-12 420,-12 420,-6 426,0 432,0 432,0 521,0 521,0 527,0 533,-6 533,-12 533,-12 533,-56 533,-56 533,-62 527,-68 521,-68"/>
<text text-anchor="middle" x="476.5" y="-52.8" font-family="Helvetica,sans-Serif" font-size="14.00">gini = 0.0</text>
<text text-anchor="middle" x="476.5" y="-37.8" font-family="Helvetica,sans-Serif" font-size="14.00">samples = 136</text>
<text text-anchor="middle" x="476.5" y="-22.8" font-family="Helvetica,sans-Serif" font-size="14.00">value = [136, 0]</text>
<text text-anchor="middle" x="476.5" y="-7.8" font-family="Helvetica,sans-Serif" font-size="14.00">class = 독</text>
</g>
<!-- 16&#45;&gt;17 -->
<g id="edge17" class="edge">
<title>16:&#45;&gt;17:</title>
<path fill="none" stroke="black" d="M515.41,-103.73C510.51,-95.06 505.32,-85.9 500.38,-77.18"/>
<polygon fill="black" stroke="black" points="503.33,-75.28 495.35,-68.3 497.24,-78.73 503.33,-75.28"/>
</g>
<!-- 18 -->
<g id="node19" class="node">
<title>18</title>
<path fill="#399de5" stroke="black" d="M639.5,-68C639.5,-68 563.5,-68 563.5,-68 557.5,-68 551.5,-62 551.5,-56 551.5,-56 551.5,-12 551.5,-12 551.5,-6 557.5,0 563.5,0 563.5,0 639.5,0 639.5,0 645.5,0 651.5,-6 651.5,-12 651.5,-12 651.5,-56 651.5,-56 651.5,-62 645.5,-68 639.5,-68"/>
<text text-anchor="middle" x="601.5" y="-52.8" font-family="Helvetica,sans-Serif" font-size="14.00">gini = 0.0</text>
<text text-anchor="middle" x="601.5" y="-37.8" font-family="Helvetica,sans-Serif" font-size="14.00">samples = 3</text>
<text text-anchor="middle" x="601.5" y="-22.8" font-family="Helvetica,sans-Serif" font-size="14.00">value = [0, 3]</text>
<text text-anchor="middle" x="601.5" y="-7.8" font-family="Helvetica,sans-Serif" font-size="14.00">class = 식용</text>
</g>
<!-- 16&#45;&gt;18 -->
<g id="edge18" class="edge">
<title>16:&#45;&gt;18:</title>
<path fill="none" stroke="black" d="M561.96,-103.73C566.94,-95.06 572.22,-85.9 577.23,-77.18"/>
<polygon fill="black" stroke="black" points="580.39,-78.71 582.34,-68.3 574.32,-75.22 580.39,-78.71"/>
</g>
<!-- 22 -->
<g id="node23" class="node">
<title>22</title>
<path fill="#e58139" stroke="black" d="M923,-298.5C923,-298.5 842,-298.5 842,-298.5 836,-298.5 830,-292.5 830,-286.5 830,-286.5 830,-242.5 830,-242.5 830,-236.5 836,-230.5 842,-230.5 842,-230.5 923,-230.5 923,-230.5 929,-230.5 935,-236.5 935,-242.5 935,-242.5 935,-286.5 935,-286.5 935,-292.5 929,-298.5 923,-298.5"/>
<text text-anchor="middle" x="882.5" y="-283.3" font-family="Helvetica,sans-Serif" font-size="14.00">gini = 0.0</text>
<text text-anchor="middle" x="882.5" y="-268.3" font-family="Helvetica,sans-Serif" font-size="14.00">samples = 10</text>
<text text-anchor="middle" x="882.5" y="-253.3" font-family="Helvetica,sans-Serif" font-size="14.00">value = [10, 0]</text>
<text text-anchor="middle" x="882.5" y="-238.3" font-family="Helvetica,sans-Serif" font-size="14.00">class = 독</text>
</g>
<!-- 21&#45;&gt;22 -->
<g id="edge22" class="edge">
<title>21:&#45;&gt;22:</title>
<path fill="none" stroke="black" d="M888.38,-341.91C887.55,-331.2 886.66,-319.62 885.83,-308.78"/>
<polygon fill="black" stroke="black" points="889.31,-308.37 885.05,-298.67 882.33,-308.91 889.31,-308.37"/>
</g>
<!-- 23 -->
<g id="node24" class="node">
<title>23</title>
<path fill="#399de5" stroke="black" d="M1046,-298.5C1046,-298.5 965,-298.5 965,-298.5 959,-298.5 953,-292.5 953,-286.5 953,-286.5 953,-242.5 953,-242.5 953,-236.5 959,-230.5 965,-230.5 965,-230.5 1046,-230.5 1046,-230.5 1052,-230.5 1058,-236.5 1058,-242.5 1058,-242.5 1058,-286.5 1058,-286.5 1058,-292.5 1052,-298.5 1046,-298.5"/>
<text text-anchor="middle" x="1005.5" y="-283.3" font-family="Helvetica,sans-Serif" font-size="14.00">gini = 0.0</text>
<text text-anchor="middle" x="1005.5" y="-268.3" font-family="Helvetica,sans-Serif" font-size="14.00">samples = 31</text>
<text text-anchor="middle" x="1005.5" y="-253.3" font-family="Helvetica,sans-Serif" font-size="14.00">value = [0, 31]</text>
<text text-anchor="middle" x="1005.5" y="-238.3" font-family="Helvetica,sans-Serif" font-size="14.00">class = 식용</text>
</g>
<!-- 21&#45;&gt;23 -->
<g id="edge23" class="edge">
<title>21:&#45;&gt;23:</title>
<path fill="none" stroke="black" d="M931.05,-341.91C942.34,-330.32 954.64,-317.7 965.93,-306.11"/>
<polygon fill="black" stroke="black" points="968.71,-308.27 973.18,-298.67 963.7,-303.39 968.71,-308.27"/>
</g>
</g>
</svg>
