<?xml version="1.0" encoding="iso-8859-1"?>
<!-- Generator: Adobe Illustrator 19.0.0, SVG Export Plug-In . SVG Version: 6.00 Build 0)  -->
<svg version="1.1" id="Capa_1" xmlns="http://www.w3.org/2000/svg" xmlns:xlink="http://www.w3.org/1999/xlink" x="0px" y="0px"
	 viewBox="0 0 462.347 462.347" style="enable-background:new 0 0 462.347 462.347;" xml:space="preserve">
<g>
	<path d="M355.293,51.529C322.232,18.401,278.252,0.102,231.456,0c-0.13,0-0.251,0-0.381,0c-48.044,0-92.804,19.643-126.057,55.331
		c-34.716,37.257-52.485,88.005-48.752,139.23c3.372,46.256,19.002,94.2,46.456,142.502c19.9,35.011,45.515,69.505,76.131,102.523
		c13.411,14.464,32.446,22.76,52.224,22.76c0.001,0,0,0,0.001,0c19.765,0,38.787-8.288,52.186-22.738
		c32.92-35.499,59.966-72.564,80.387-110.166c28.479-52.438,42.919-104.231,42.919-153.942
		C406.569,128.689,388.359,84.663,355.293,51.529z M350.47,322.283c-19.824,36.502-46.137,72.544-78.204,107.126
		c-10.727,11.567-25.355,17.938-41.188,17.938c-15.846,0-30.486-6.378-41.224-17.959c-29.832-32.173-54.76-65.729-74.09-99.736
		c-26.345-46.348-41.328-92.165-44.536-136.18c-3.432-47.078,12.885-93.701,44.765-127.915C146.379,32.945,187.237,15,231.077,15
		c0.115,0,0.23,0,0.346,0c42.797,0.093,83.018,16.829,113.253,47.125c30.24,30.302,46.894,70.565,46.894,113.375
		C391.569,222.683,377.741,272.068,350.47,322.283z"/>
	<path d="M215.245,318.254c3.451-0.404,6.173-3.126,6.577-6.577c0.503-4.293,0.747-8.148,0.747-11.785
		c0-55.345-45.026-100.371-100.371-100.371c-3.648,0-7.504,0.244-11.788,0.747c-3.449,0.405-6.17,3.127-6.574,6.577
		c-0.502,4.286-0.746,8.142-0.746,11.785c0,55.345,45.025,100.37,100.37,100.37C207.103,319,210.959,318.756,215.245,318.254z
		 M118.09,218.63c0-1.286,0.037-2.614,0.113-3.996c1.381-0.076,2.708-0.113,3.995-0.113c47.074,0,85.371,38.297,85.371,85.371
		c0,1.285-0.037,2.612-0.113,3.995c-1.383,0.076-2.71,0.113-3.996,0.113C156.387,304,118.09,265.703,118.09,218.63z"/>
	<path d="M351.248,200.268c-4.284-0.503-8.14-0.747-11.788-0.747c-55.345,0-100.37,45.026-100.37,100.371
		c0,3.643,0.244,7.497,0.746,11.785c0.404,3.451,3.126,6.173,6.577,6.577c4.286,0.502,8.142,0.746,11.785,0.746
		c55.345,0,100.371-45.025,100.371-100.37c0-3.638-0.244-7.493-0.747-11.785C357.418,203.395,354.697,200.673,351.248,200.268z
		 M258.198,304c-1.286,0-2.613-0.037-3.995-0.113c-0.076-1.382-0.113-2.709-0.113-3.995c0-47.074,38.297-85.371,85.37-85.371
		c1.287,0,2.614,0.037,3.996,0.113c0.076,1.383,0.113,2.711,0.113,3.996C343.569,265.703,305.272,304,258.198,304z"/>
	<path d="M255.069,392h-48c-4.143,0-7.5,3.357-7.5,7.5s3.357,7.5,7.5,7.5h48c4.143,0,7.5-3.357,7.5-7.5S259.212,392,255.069,392z"/>
	<path d="M370.544,141.709c-7.977-32.879-27.523-62.054-55.039-82.152c-3.345-2.441-8.036-1.712-10.48,1.633
		c-2.443,3.345-1.712,8.037,1.633,10.48c24.656,18.009,42.168,44.139,49.309,73.576c0.833,3.431,3.902,5.733,7.283,5.733
		c0.585,0,1.18-0.069,1.774-0.213C369.049,149.79,371.52,145.734,370.544,141.709z"/>
	<path d="M268.868,52.679c5.141,1.588,10.238,3.524,15.148,5.757c1.007,0.457,2.062,0.674,3.099,0.674
		c2.852,0,5.576-1.635,6.833-4.398c1.714-3.771,0.046-8.218-3.725-9.932c-5.487-2.494-11.184-4.658-16.93-6.433
		c-3.961-1.221-8.157,0.996-9.379,4.953C262.692,47.257,264.91,51.456,268.868,52.679z"/>
	<path d="M151.903,238.316c-3.727-1.81-8.214-0.247-10.019,3.481c-1.806,3.728-0.247,8.214,3.481,10.019
		c10.821,5.24,19.667,14.086,24.907,24.906c1.295,2.676,3.97,4.233,6.756,4.233c1.096,0,2.21-0.242,3.263-0.752
		c3.729-1.806,5.287-6.291,3.481-10.019C177.068,256.339,165.75,245.021,151.903,238.316z"/>
	<path d="M309.755,238.316c-13.847,6.705-25.165,18.022-31.87,31.869c-1.806,3.728-0.247,8.213,3.481,10.019
		c1.053,0.51,2.166,0.752,3.263,0.752c2.785,0,5.461-1.559,6.756-4.233c5.24-10.82,14.086-19.666,24.907-24.906
		c3.729-1.805,5.287-6.291,3.481-10.019C317.97,238.071,313.485,236.511,309.755,238.316z"/>
</g>
<g>
</g>
<g>
</g>
<g>
</g>
<g>
</g>
<g>
</g>
<g>
</g>
<g>
</g>
<g>
</g>
<g>
</g>
<g>
</g>
<g>
</g>
<g>
</g>
<g>
</g>
<g>
</g>
<g>
</g>
</svg>
