<?xml version="1.0" encoding="iso-8859-1"?>
<!-- Generator: Adobe Illustrator 18.1.1, SVG Export Plug-In . SVG Version: 6.00 Build 0)  -->
<svg version="1.1" id="Capa_1" xmlns="http://www.w3.org/2000/svg" xmlns:xlink="http://www.w3.org/1999/xlink" x="0px" y="0px"
	 viewBox="0 0 43.173 43.173" style="enable-background:new 0 0 43.173 43.173;" xml:space="preserve">
<g>
	<g id="b157_small_fish">
		<path d="M41.74,33.164L26.446,22.155c-0.513-0.369-1.094-0.574-1.679-0.631c2.213-5.385,0.542-11.795-4.384-15.34
			C14.622,2.039,6.563,3.35,2.419,9.114c-4.145,5.758-2.831,13.814,2.93,17.961c4.927,3.545,11.534,3.092,15.937-0.717
			c0.241,0.537,0.619,1.023,1.131,1.391l15.297,11.01c1.546,1.113,3.699,0.762,4.81-0.787C43.637,36.428,43.282,34.274,41.74,33.164
			z M22.407,22.162c-0.287,0.209-0.554,0.469-0.772,0.777c-0.221,0.307-0.385,0.639-0.492,0.98
			c-3.699,4.205-10.079,5.002-14.721,1.664c-4.937-3.555-6.062-10.461-2.51-15.398c3.553-4.938,10.46-6.062,15.396-2.508
			C23.948,11.016,25.221,17.317,22.407,22.162z"/>
		<path d="M9.432,11.819c-3.165,1.402-5.242,4.379-5.242,4.379c0.02,0.018,1.571,1.805,2.865,1.332l0.039,0.318
			c-0.161,0.059-0.326,0.086-0.494,0.086c-0.892,0-1.819-0.736-2.301-1.186c0.682,0.85,2.52,2.941,4.908,4.078
			C10.992,17.786,9.711,12.803,9.432,11.819z M7.501,16.487c-0.439,0-0.795-0.355-0.795-0.795c0-0.441,0.355-0.797,0.795-0.797
			s0.796,0.355,0.796,0.797C8.296,16.131,7.941,16.487,7.501,16.487z"/>
		<path d="M12.336,11.161c-0.896,0-1.753,0.197-2.562,0.516c0.272,0.93,1.65,6.051-0.231,9.299c0.873,0.373,1.814,0.611,2.793,0.611
			c3.389,0,6.303-2.828,7.604-4.32l2.568,1.467v-4.719l-2.803,1.203C18.309,13.682,15.534,11.161,12.336,11.161z"/>
	</g>
	<g id="Capa_1_154_">
	</g>
</g>
<g>
</g>
<g>
</g>
<g>
</g>
<g>
</g>
<g>
</g>
<g>
</g>
<g>
</g>
<g>
</g>
<g>
</g>
<g>
</g>
<g>
</g>
<g>
</g>
<g>
</g>
<g>
</g>
<g>
</g>
</svg>
