<?xml version="1.0" encoding="iso-8859-1"?>
<!-- Generator: Adobe Illustrator 18.0.0, SVG Export Plug-In . SVG Version: 6.00 Build 0)  -->
<!DOCTYPE svg PUBLIC "-//W3C//DTD SVG 1.1//EN" "http://www.w3.org/Graphics/SVG/1.1/DTD/svg11.dtd">
<svg version="1.1" id="Capa_1" xmlns="http://www.w3.org/2000/svg" xmlns:xlink="http://www.w3.org/1999/xlink" x="0px" y="0px"
	 viewBox="0 0 495.421 495.421" style="enable-background:new 0 0 495.421 495.421;" xml:space="preserve">
<g>
	<path d="M490.531,188.099c-2.935-1.007-6.174-0.05-8.089,2.393l-85.909,110.192c-3.415,4.382-8.948,6.537-14.407,5.619
		l-93.674-15.672c-4.783-0.8-9.668,0.742-13.123,4.159l-85.609,84.633c-2.459,2.434-5.698,3.954-9.148,4.291l-111.28,10.993
		c-3.629,0.355-7.014,2.022-9.523,4.679L2.414,460.344c-2.43,2.575-3.09,6.347-1.685,9.589c1.404,3.244,4.604,5.339,8.138,5.339
		h468.591c9.924,0,17.963-8.036,17.963-17.957V194.956C495.421,191.861,493.456,189.104,490.531,188.099z"/>
	<path d="M29.334,275.472c4.504,0,8.978-1.782,12.312-5.314l24.096-25.411c3.535,1.03,7.229,1.758,11.093,1.758
		c18.997,0,34.859-13.296,39.018-31.04l38.148-3.762c6.584,13.213,20.086,22.397,35.833,22.397
		c22.116,0,40.138-18.007,40.138-40.141c0-4.952-1.02-9.648-2.669-14.03l34.049-33.384c5.579,2.947,11.833,4.771,18.567,4.771
		c14.987,0,27.945-8.368,34.828-20.584l22.137,3.707c5.129,16.25,20.185,28.15,38.108,28.15c22.136,0,40.143-18.007,40.143-40.143
		c0-6.286-1.585-12.162-4.159-17.462l44.862-57.555c5.743-7.361,4.423-17.983-2.941-23.718c-7.328-5.719-17.956-4.417-23.715,2.938
		l-44.848,56.869c-3.004-0.725-6.108-1.212-9.343-1.212c-14.192,0-26.605,7.443-33.733,18.584l-23.937-4.002
		c-5.794-15.077-20.316-25.855-37.403-25.855c-22.131,0-40.138,18.007-40.138,40.141c0,2.691,0.295,5.316,0.79,7.858l-37.733,37.136
		c-4.089-1.42-8.434-2.352-13.003-2.352c-16.392,0-30.469,9.895-36.708,24l-44.438,4.39c-7.328-9.648-18.817-15.984-31.854-15.984
		c-22.116,0-40.142,18.007-40.142,40.141c0,5.729,1.254,11.157,3.434,16.084l-23.091,24.535c-6.404,6.802-6.073,17.497,0.71,23.895
		C21.015,273.952,25.174,275.472,29.334,275.472z M374.992,107.659c8.153,0,14.792,6.634,14.792,14.787
		c0,8.156-6.639,14.79-14.792,14.79c-8.153,0-14.788-6.634-14.788-14.79C360.204,114.293,366.839,107.659,374.992,107.659z
		 M279.919,96.387c8.153,0,14.793,6.634,14.793,14.787s-6.64,14.79-14.793,14.79c-8.154,0-14.787-6.637-14.787-14.79
		S271.765,96.387,279.919,96.387z M189.835,179.169c8.154,0,14.787,6.637,14.787,14.79c0,8.153-6.633,14.79-14.787,14.79
		c-8.153,0-14.792-6.637-14.792-14.79C175.043,185.806,181.682,179.169,189.835,179.169z M76.835,191.574
		c8.153,0,14.788,6.634,14.788,14.788c0,8.153-6.634,14.789-14.788,14.789c-8.154,0-14.787-6.636-14.787-14.789
		C62.048,198.208,68.681,191.574,76.835,191.574z"/>
</g>
<g>
</g>
<g>
</g>
<g>
</g>
<g>
</g>
<g>
</g>
<g>
</g>
<g>
</g>
<g>
</g>
<g>
</g>
<g>
</g>
<g>
</g>
<g>
</g>
<g>
</g>
<g>
</g>
<g>
</g>
</svg>
