<svg version="1.1" xmlns="http://www.w3.org/2000/svg" xmlns:xlink="http://www.w3.org/1999/xlink" x="0px" y="0px"
	 viewBox="0 0 568 92.92" style="enable-background:new 0 0 568 92.92;" xml:space="preserve">
<style type="text/css">
	.st0{fill:#E6E7E8;}
	.st1{fill:url(#SVGID_1_);}
	.st2{fill:url(#SVGID_2_);}
	.st3{fill:url(#SVGID_3_);}
	.st4{fill:url(#SVGID_4_);}
	.st5{fill:url(#SVGID_5_);}
</style>
<g>
	<g>
		<path class="st0" d="M160.69,50.13c-0.64,16.22-13.42,28.85-29.33,28.85c-16.78,0-29.25-13.58-29.25-29.97
			c0-16.54,13.51-30.13,29.97-30.13c7.43,0,14.7,3.2,20.86,8.95l-4.79,5.91c-4.71-4.08-10.39-6.87-16.06-6.87
			c-12.07,0-21.97,9.91-21.97,22.13c0,12.39,9.35,21.98,21.26,21.98c10.71,0,19.1-7.83,20.78-17.9h-24.29v-7.11h32.84V50.13z"/>
		<path class="st0" d="M188.57,46.22h-4.48c-4.94,0-8.95,4.01-8.95,8.95V78.5h-7.99V38.55h6.55v3.36c2.16-2.16,5.59-3.36,9.43-3.36
			h8.63L188.57,46.22z"/>
		<path class="st0" d="M232.12,78.5h-6.79v-5.03c-5.25,5.13-13.54,7.59-21.93,3.91c-6.22-2.73-10.85-8.4-12.08-15.09
			c-2.38-12.92,7.56-24.38,20.26-24.38c5.35,0,10.15,2.16,13.66,5.67v-5.03h6.87V78.5z M223.94,61.4c1.89-8.12-4.26-15.5-12.28-15.5
			c-6.95,0-12.55,5.67-12.55,12.55c0,7.77,6.83,13.79,14.78,12.43C218.79,70.04,222.82,66.24,223.94,61.4z"/>
		<path class="st0" d="M248.22,36.31v2.24h12.71v7.03h-12.71V78.5h-7.91V36.55c0-8.79,6.31-13.98,14.22-13.98h9.59l-3.2,7.51h-6.39
			C251.02,30.08,248.22,32.87,248.22,36.31z"/>
		<path class="st0" d="M303.28,78.5h-6.79v-5.03c-5.25,5.13-13.54,7.59-21.93,3.91c-6.22-2.73-10.85-8.4-12.08-15.09
			c-2.38-12.92,7.56-24.38,20.26-24.38c5.35,0,10.15,2.16,13.66,5.67v-5.03h6.87V78.5z M295.11,61.4c1.89-8.12-4.26-15.5-12.28-15.5
			c-6.95,0-12.55,5.67-12.55,12.55c0,7.77,6.83,13.79,14.78,12.43C289.96,70.04,293.98,66.24,295.11,61.4z"/>
		<path class="st0" d="M345.96,54.85V78.5h-7.99V54.85c0-4.95-4.08-8.95-8.95-8.95c-5.03,0-9.03,4-9.03,8.95V78.5H312V38.55h6.63
			v3.44c2.88-2.56,6.71-4.07,10.71-4.07C338.61,37.91,345.96,45.5,345.96,54.85z"/>
		<path class="st0" d="M392.95,78.5h-6.79v-5.03c-5.25,5.13-13.54,7.59-21.93,3.91c-6.22-2.73-10.85-8.4-12.08-15.09
			c-2.38-12.92,7.56-24.38,20.26-24.38c5.35,0,10.15,2.16,13.66,5.67v-5.03h6.87V78.5z M384.78,61.4c1.89-8.12-4.26-15.5-12.28-15.5
			c-6.95,0-12.55,5.67-12.55,12.55c0,7.77,6.83,13.79,14.78,12.43C379.63,70.04,383.65,66.24,384.78,61.4z"/>
	</g>
	<g>
		<linearGradient id="SVGID_1_" gradientUnits="userSpaceOnUse" x1="432.5303" y1="105.7252" x2="432.5303" y2="21.6878">
			<stop  offset="0" style="stop-color:#FFF100"/>
			<stop  offset="1" style="stop-color:#F05A28"/>
		</linearGradient>
		<path class="st1" d="M447.6,78.5h-30.14V19.02h8.04v51.36h22.1V78.5z"/>
		<linearGradient id="SVGID_2_" gradientUnits="userSpaceOnUse" x1="469.662" y1="105.7252" x2="469.662" y2="21.6878">
			<stop  offset="0" style="stop-color:#FFF100"/>
			<stop  offset="1" style="stop-color:#F05A28"/>
		</linearGradient>
		<path class="st2" d="M490.36,78.5h-6.83v-5.06c-3.54,3.46-8.44,5.71-13.82,5.71c-11.49,0-20.74-9.32-20.74-20.82
			c0-11.33,9.24-20.66,20.74-20.66c5.39,0,10.21,2.17,13.74,5.71v-5.06h6.91V78.5z M482.48,58.32c0-6.91-5.63-12.62-12.7-12.62
			c-6.99,0-12.62,5.71-12.62,12.62c0,7.07,5.63,12.7,12.62,12.7C476.86,71.02,482.48,65.4,482.48,58.32z"/>
		<linearGradient id="SVGID_3_" gradientUnits="userSpaceOnUse" x1="517.8049" y1="105.7252" x2="517.8049" y2="21.6878">
			<stop  offset="0" style="stop-color:#FFF100"/>
			<stop  offset="1" style="stop-color:#F05A28"/>
		</linearGradient>
		<path class="st3" d="M538.5,58.4c0,11.41-9.32,20.74-20.73,20.74c-5.39,0-10.37-2.25-13.91-5.71v5.06h-6.75V22.24h7.96v20.25
			c3.3-2.97,7.8-4.82,12.7-4.82C529.18,37.67,538.5,46.91,538.5,58.4z M530.3,58.4c0-6.99-5.71-12.62-12.62-12.62
			s-12.62,5.63-12.62,12.62c0,6.91,5.71,12.54,12.62,12.54S530.3,65.32,530.3,58.4z"/>
		<linearGradient id="SVGID_4_" gradientUnits="userSpaceOnUse" x1="554.3748" y1="105.7252" x2="554.3748" y2="21.6878">
			<stop  offset="0" style="stop-color:#FFF100"/>
			<stop  offset="1" style="stop-color:#F05A28"/>
		</linearGradient>
		<path class="st4" d="M565.99,41.2l-3.54,5.87c-1.69-1.04-4.58-2.65-7.8-2.65c-3.05,0-5.79,1.53-5.79,4.02
			c0,2.73,3.13,3.78,7.07,5.22c6.43,2.25,12.06,6.59,12.06,13.18c0,6.67-5.71,12.3-13.9,12.3c-4.98,0-9.97-2.01-13.34-4.1l3.14-6.67
			c2.33,1.37,6.67,3.05,9.97,3.05c4.02,0,5.79-2.41,5.79-4.74c0-2.73-2.49-4.26-8.04-6.43c-4.02-1.61-10.53-4.26-10.53-11.41
			c0-6.67,5.71-11.17,13.34-11.17C558.92,37.67,562.61,39.19,565.99,41.2z"/>
	</g>
	<linearGradient id="SVGID_5_" gradientUnits="userSpaceOnUse" x1="42.7746" y1="113.8217" x2="42.7746" y2="28.9256">
		<stop  offset="0" style="stop-color:#FFF100"/>
		<stop  offset="1" style="stop-color:#F05A28"/>
	</linearGradient>
	<path class="st5" d="M85.43,41c-0.14-1.56-0.41-3.36-0.93-5.35c-0.52-1.98-1.29-4.15-2.4-6.41C80.97,27,79.5,24.66,77.6,22.4
		c-0.74-0.89-1.55-1.76-2.43-2.62c1.31-5.2-1.59-9.7-1.59-9.7c-5-0.31-8.18,1.55-9.36,2.41c-0.2-0.08-0.39-0.17-0.59-0.25
		c-0.85-0.35-1.73-0.67-2.63-0.95c-0.9-0.28-1.82-0.54-2.76-0.77c-0.94-0.22-1.9-0.41-2.87-0.56c-0.17-0.03-0.34-0.05-0.51-0.07
		C52.68,2.91,46.41,0,46.41,0c-6.98,4.43-8.31,10.63-8.31,10.63s-0.03,0.14-0.07,0.37c-0.39,0.11-0.77,0.22-1.16,0.34
		c-0.54,0.16-1.06,0.36-1.6,0.55c-0.53,0.21-1.06,0.41-1.59,0.64c-1.05,0.45-2.1,0.96-3.12,1.53c-0.99,0.56-1.96,1.17-2.91,1.83
		c-0.14-0.06-0.24-0.11-0.24-0.11c-9.67-3.69-18.26,0.75-18.26,0.75c-0.78,10.29,3.86,16.77,4.78,17.94
		c-0.23,0.64-0.44,1.28-0.64,1.93c-0.72,2.33-1.25,4.72-1.58,7.2c-0.05,0.35-0.09,0.71-0.13,1.07C2.65,49.08,0,58.13,0,58.13
		c7.46,8.58,16.15,9.11,16.15,9.11c0.01-0.01,0.02-0.01,0.02-0.02c1.11,1.97,2.39,3.85,3.82,5.6c0.6,0.73,1.24,1.44,1.89,2.12
		c-2.72,7.77,0.38,14.25,0.38,14.25c8.3,0.31,13.76-3.63,14.9-4.54c0.83,0.28,1.66,0.53,2.51,0.75c2.55,0.66,5.16,1.04,7.77,1.16
		c0.65,0.03,1.3,0.04,1.96,0.04l0.32,0l0.21-0.01l0.41-0.01l0.41-0.02l0.01,0.01c3.91,5.58,10.79,6.37,10.79,6.37
		c4.89-5.16,5.17-10.27,5.17-11.38l0,0c0,0,0-0.04,0-0.07c0-0.09,0-0.16,0-0.16s0,0,0,0c0-0.08-0.01-0.15-0.01-0.24
		c1.03-0.72,2.01-1.49,2.93-2.32c1.96-1.77,3.67-3.79,5.09-5.96c0.13-0.2,0.26-0.41,0.39-0.62c5.54,0.32,9.44-3.43,9.44-3.43
		c-0.92-5.77-4.21-8.58-4.89-9.12l0,0c0,0-0.03-0.02-0.07-0.05c-0.04-0.03-0.06-0.05-0.06-0.05c0,0,0,0,0,0
		c-0.04-0.02-0.08-0.05-0.12-0.08c0.03-0.35,0.06-0.69,0.08-1.04c0.04-0.62,0.06-1.24,0.06-1.86l0-0.46l0-0.23l0-0.12
		c0-0.16,0-0.1,0-0.16l-0.02-0.39l-0.03-0.52c-0.01-0.18-0.02-0.34-0.04-0.5c-0.01-0.16-0.03-0.32-0.05-0.48l-0.06-0.48l-0.07-0.48
		c-0.09-0.63-0.22-1.26-0.36-1.89c-0.58-2.49-1.55-4.85-2.83-6.97c-1.28-2.12-2.88-4-4.67-5.58c-1.8-1.59-3.81-2.86-5.92-3.81
		c-2.11-0.95-4.33-1.56-6.54-1.84c-1.1-0.14-2.21-0.2-3.3-0.19l-0.41,0.01l-0.1,0c-0.03,0-0.15,0-0.14,0l-0.17,0.01l-0.4,0.03
		c-0.15,0.01-0.31,0.02-0.45,0.04c-0.56,0.05-1.12,0.13-1.66,0.24c-2.19,0.41-4.26,1.2-6.09,2.29c-1.82,1.09-3.41,2.46-4.7,4
		c-1.29,1.55-2.29,3.26-2.98,5.03c-0.69,1.77-1.07,3.6-1.18,5.38c-0.03,0.44-0.04,0.89-0.03,1.32c0,0.11,0,0.22,0.01,0.33l0.01,0.36
		c0.02,0.21,0.03,0.43,0.05,0.64c0.09,0.9,0.25,1.76,0.49,2.6c0.48,1.66,1.25,3.17,2.21,4.45c0.95,1.28,2.09,2.34,3.3,3.17
		c1.21,0.83,2.5,1.42,3.78,1.79c1.28,0.38,2.55,0.54,3.75,0.54c0.15,0,0.3,0,0.45-0.01c0.08,0,0.16-0.01,0.24-0.01
		c0.08,0,0.16-0.01,0.24-0.01c0.13-0.01,0.25-0.03,0.38-0.04c0.03,0,0.07-0.01,0.11-0.01l0.12-0.02c0.08-0.01,0.15-0.02,0.23-0.03
		c0.16-0.02,0.29-0.05,0.44-0.08c0.14-0.03,0.28-0.05,0.42-0.09c0.28-0.06,0.54-0.14,0.8-0.23c0.52-0.17,1.01-0.38,1.47-0.61
		c0.46-0.24,0.88-0.5,1.27-0.77c0.11-0.08,0.22-0.16,0.33-0.25c0.42-0.33,0.49-0.94,0.15-1.35c-0.29-0.36-0.8-0.45-1.2-0.23
		c-0.1,0.05-0.2,0.11-0.3,0.16c-0.35,0.17-0.71,0.32-1.1,0.45c-0.39,0.12-0.79,0.22-1.21,0.3c-0.21,0.03-0.42,0.06-0.64,0.08
		c-0.11,0.01-0.22,0.02-0.32,0.02c-0.11,0-0.22,0.01-0.32,0.01c-0.1,0-0.21,0-0.31-0.01c-0.13-0.01-0.26-0.01-0.39-0.02
		c0,0-0.07,0-0.01,0l-0.04,0l-0.09-0.01c-0.06-0.01-0.12-0.01-0.17-0.02c-0.12-0.01-0.23-0.03-0.35-0.04
		c-0.94-0.13-1.89-0.4-2.8-0.82c-0.92-0.41-1.8-0.99-2.59-1.7c-0.79-0.71-1.48-1.57-2.02-2.54c-0.54-0.97-0.92-2.04-1.1-3.17
		c-0.09-0.56-0.13-1.15-0.11-1.72c0.01-0.16,0.01-0.31,0.02-0.47c0,0.04,0-0.02,0-0.03l0-0.06l0.01-0.12
		c0.01-0.08,0.01-0.15,0.02-0.23c0.03-0.31,0.08-0.62,0.13-0.93c0.43-2.46,1.66-4.86,3.57-6.68c0.48-0.45,0.99-0.88,1.54-1.25
		c0.55-0.38,1.13-0.71,1.73-0.99c0.61-0.28,1.24-0.51,1.89-0.68c0.65-0.17,1.32-0.29,1.99-0.35c0.34-0.03,0.68-0.04,1.02-0.04
		c0.09,0,0.16,0,0.23,0l0.28,0.01l0.17,0.01c0.07,0,0,0,0.03,0l0.07,0l0.28,0.02c0.73,0.06,1.46,0.16,2.18,0.33
		c1.44,0.32,2.84,0.85,4.15,1.57c2.61,1.45,4.84,3.71,6.2,6.44c0.69,1.36,1.17,2.82,1.41,4.33c0.06,0.38,0.1,0.76,0.13,1.14
		l0.02,0.29l0.01,0.29c0.01,0.1,0.01,0.19,0.01,0.29c0,0.1,0.01,0.2,0,0.27l0,0.25l-0.01,0.28c-0.01,0.19-0.02,0.49-0.03,0.68
		c-0.03,0.42-0.07,0.83-0.12,1.25c-0.05,0.41-0.12,0.82-0.19,1.23c-0.08,0.41-0.17,0.81-0.27,1.21c-0.2,0.8-0.46,1.6-0.77,2.37
		c-0.61,1.55-1.43,3.02-2.41,4.38c-1.97,2.71-4.66,4.92-7.72,6.32c-1.53,0.69-3.15,1.2-4.8,1.47c-0.83,0.14-1.67,0.22-2.51,0.25
		l-0.16,0.01l-0.13,0l-0.27,0l-0.41,0l-0.21,0c0.11,0-0.02,0-0.01,0l-0.08,0c-0.45-0.01-0.9-0.03-1.35-0.07
		c-1.8-0.13-3.57-0.45-5.29-0.95c-1.72-0.5-3.39-1.17-4.97-2.01c-3.16-1.69-5.98-4-8.19-6.79c-1.11-1.39-2.08-2.88-2.88-4.45
		c-0.8-1.57-1.43-3.22-1.9-4.9c-0.46-1.69-0.75-3.41-0.86-5.15l-0.02-0.33l-0.01-0.08l0-0.07l0-0.14l-0.01-0.29l0-0.07l0-0.1l0-0.2
		l-0.01-0.4l0-0.08c0,0.01,0,0.01,0-0.03l0-0.16c0-0.21,0.01-0.42,0.01-0.64c0.03-0.86,0.1-1.74,0.22-2.62
		c0.11-0.88,0.26-1.77,0.44-2.65c0.18-0.88,0.4-1.75,0.64-2.6c0.49-1.71,1.1-3.37,1.83-4.94c1.45-3.14,3.35-5.91,5.64-8.13
		c0.57-0.56,1.16-1.09,1.78-1.58c0.61-0.49,1.25-0.95,1.91-1.38c0.65-0.43,1.33-0.83,2.03-1.19c0.34-0.19,0.7-0.35,1.05-0.52
		c0.18-0.08,0.36-0.16,0.54-0.24c0.18-0.08,0.36-0.16,0.54-0.23c0.72-0.31,1.47-0.56,2.22-0.8c0.19-0.06,0.38-0.11,0.57-0.17
		c0.19-0.06,0.38-0.1,0.57-0.16c0.38-0.11,0.77-0.2,1.15-0.29c0.19-0.05,0.39-0.09,0.58-0.13c0.19-0.04,0.39-0.08,0.58-0.12
		c0.2-0.04,0.39-0.07,0.59-0.11l0.29-0.05l0.29-0.04c0.2-0.03,0.39-0.06,0.59-0.09c0.22-0.04,0.44-0.05,0.66-0.09
		c0.18-0.02,0.48-0.06,0.66-0.08c0.14-0.01,0.28-0.03,0.42-0.04l0.28-0.03l0.14-0.01l0.16-0.01c0.22-0.01,0.44-0.03,0.67-0.04
		l0.33-0.02c0,0,0.12,0,0.02,0l0.07,0l0.14-0.01c0.19-0.01,0.38-0.02,0.57-0.03c0.75-0.02,1.5-0.02,2.25,0
		c1.49,0.06,2.95,0.22,4.37,0.49c2.84,0.53,5.51,1.44,7.93,2.64c2.42,1.18,4.59,2.64,6.47,4.22c0.12,0.1,0.23,0.2,0.35,0.3
		c0.11,0.1,0.23,0.2,0.34,0.3c0.23,0.2,0.45,0.41,0.67,0.61c0.22,0.2,0.43,0.41,0.64,0.62c0.21,0.21,0.42,0.42,0.61,0.63
		c0.8,0.85,1.54,1.7,2.2,2.56c1.34,1.72,2.41,3.46,3.26,5.1c0.05,0.1,0.11,0.2,0.16,0.31c0.05,0.1,0.1,0.2,0.15,0.31
		c0.1,0.2,0.2,0.4,0.29,0.6c0.09,0.2,0.19,0.4,0.27,0.59c0.09,0.2,0.17,0.39,0.25,0.58c0.32,0.77,0.61,1.5,0.84,2.19
		c0.39,1.11,0.68,2.12,0.9,3c0.09,0.35,0.42,0.58,0.78,0.55c0.37-0.03,0.66-0.34,0.67-0.71C85.56,43.36,85.54,42.26,85.43,41z"/>
</g>
</svg>
