<?xml version="1.0" standalone="no"?>
<!DOCTYPE svg PUBLIC "-//W3C//DTD SVG 20010904//EN"
 "http://www.w3.org/TR/2001/REC-SVG-20010904/DTD/svg10.dtd">
<svg version="1.0" xmlns="http://www.w3.org/2000/svg"
 width="500.000000pt" height="500.000000pt" viewBox="0 0 500.000000 500.000000"
 preserveAspectRatio="xMidYMid meet">
<metadata>
Created by potrace 1.14, written by Peter Selinger 2001-2017
</metadata>
<g transform="translate(0.000000,500.000000) scale(0.100000,-0.100000)"
fill="#000000" stroke="none">
<path d="M2170 4632 c-162 -93 -439 -252 -614 -353 -197 -114 -327 -195 -340
-212 -21 -28 -21 -35 -24 -735 -2 -483 0 -719 8 -744 6 -20 23 -47 38 -58 15
-12 164 -101 332 -197 168 -97 437 -251 599 -344 251 -144 300 -169 335 -169
37 0 110 39 581 311 692 398 666 383 695 414 l25 27 3 323 c3 294 1 323 -14
329 -10 4 -56 -16 -125 -55 l-109 -61 0 -161 c0 -174 -8 -223 -43 -262 -19
-21 -820 -491 -946 -555 -32 -16 -55 -21 -82 -17 -26 3 -196 96 -520 284 -419
241 -484 283 -501 313 -17 33 -18 65 -16 612 l3 578 30 30 c17 16 241 152 500
301 420 242 475 271 515 272 42 1 82 -20 495 -257 248 -142 467 -269 487 -282
69 -44 72 -58 78 -344 5 -246 6 -255 25 -257 11 -2 65 23 120 55 l100 58 3
281 2 281 -26 31 c-14 17 -45 42 -68 55 -1135 654 -1162 669 -1206 673 -43 4
-59 -3 -340 -165z"/>
<path d="M2466 4273 c-25 -7 -705 -400 -728 -420 -10 -9 -18 -28 -18 -43 0
-15 8 -37 18 -48 9 -11 175 -110 368 -221 314 -180 355 -201 396 -201 45 0
139 49 516 271 l82 49 -2 -351 -3 -352 -120 -70 c-441 -257 -426 -249 -480
-245 -43 4 -87 26 -305 152 -140 81 -263 156 -272 168 -16 18 -18 45 -18 243
l0 222 -106 62 c-112 64 -123 68 -142 49 -16 -16 -17 -676 -1 -711 8 -17 126
-91 408 -253 375 -217 399 -229 446 -228 47 0 76 15 435 223 212 122 393 231
403 243 16 19 17 57 17 497 0 366 -3 481 -12 494 -22 28 -239 149 -257 142 -9
-3 -135 -75 -280 -158 -323 -186 -301 -182 -472 -83 -65 36 -122 73 -129 81
-23 28 1 52 128 123 144 82 171 87 246 47 26 -14 53 -25 61 -25 19 0 213 113
219 128 11 25 -7 39 -159 125 -147 84 -196 102 -239 90z"/>
<path d="M1107 1639 c-78 -19 -141 -71 -174 -144 -16 -37 -18 -84 -21 -557
l-3 -518 121 0 120 0 0 250 0 250 375 0 375 0 0 -250 0 -250 115 0 115 0 0
523 c0 583 2 565 -71 634 -72 68 -71 68 -514 70 -220 1 -417 -3 -438 -8z m793
-359 l0 -130 -375 0 -375 0 0 130 0 130 375 0 375 0 0 -130z"/>
<path d="M2870 1035 l0 -615 115 0 115 0 2 248 3 247 74 3 75 3 241 -241 c179
-179 249 -243 275 -250 19 -6 99 -10 177 -10 l143 0 0 120 0 120 -123 0 -122
0 -123 123 c-67 67 -122 126 -122 130 0 4 68 7 152 7 174 0 209 10 272 80 56
62 69 123 64 309 -3 135 -7 161 -25 196 -29 55 -69 94 -123 119 -44 20 -61 21
-557 24 l-513 3 0 -616z m980 245 l0 -130 -372 2 -373 3 -3 128 -3 127 376 0
375 0 0 -130z"/>
<path d="M2380 540 l0 -120 120 0 120 0 0 120 0 120 -120 0 -120 0 0 -120z"/>
</g>
</svg>
