<?xml version="1.0" standalone="no"?>
<!DOCTYPE svg PUBLIC "-//W3C//DTD SVG 20010904//EN"
 "http://www.w3.org/TR/2001/REC-SVG-20010904/DTD/svg10.dtd">
<svg version="1.0" xmlns="http://www.w3.org/2000/svg"
 width="829.000000pt" height="829.000000pt" viewBox="0 0 829.000000 829.000000"
 preserveAspectRatio="xMidYMid meet">
<metadata>
Created by potrace 1.14, written by Peter Selinger 2001-2017
</metadata>
<g transform="translate(0.000000,829.000000) scale(0.100000,-0.100000)"
fill="#000000" stroke="none">
<path d="M4255 7258 c-16 -4 -48 -11 -69 -13 -73 -10 -230 -53 -309 -84 -81
-32 -178 -79 -187 -90 -3 -3 -18 -13 -34 -21 -50 -25 -163 -142 -191 -198 -37
-70 -44 -134 -19 -160 48 -49 99 -55 140 -14 36 35 66 72 58 72 -21 0 83 110
124 131 15 8 29 16 32 19 9 10 128 60 189 81 72 23 246 65 316 76 89 14 255 8
324 -11 73 -20 219 -88 249 -117 12 -10 25 -19 30 -19 10 0 182 -166 227 -220
42 -49 106 -138 135 -185 13 -22 28 -41 32 -43 4 -2 8 -8 8 -14 0 -5 9 -23 20
-38 24 -34 213 -405 260 -510 18 -41 44 -100 57 -130 45 -100 51 -114 93 -220
42 -105 114 -313 124 -360 18 -80 93 -357 99 -367 5 -7 6 -13 4 -13 -3 0 -1
-17 4 -37 9 -34 17 -69 23 -98 1 -5 5 -19 9 -30 3 -11 9 -31 11 -45 11 -51 74
-312 120 -497 26 -103 114 -418 167 -598 28 -93 52 -174 54 -180 1 -5 5 -17 8
-25 3 -8 15 -46 27 -85 12 -38 24 -77 27 -85 3 -8 8 -24 10 -35 2 -11 8 -24
13 -29 6 -6 10 -16 10 -24 0 -16 55 -165 103 -282 36 -85 130 -272 158 -312
11 -14 19 -29 19 -32 0 -3 7 -14 14 -23 8 -10 32 -41 53 -69 52 -70 114 -136
154 -164 19 -13 37 -28 40 -32 3 -5 38 -20 78 -34 136 -47 247 -31 350 54 119
96 242 284 254 387 13 100 -71 160 -155 110 -9 -6 -35 -49 -57 -98 -60 -131
-130 -216 -212 -258 -79 -42 -179 8 -275 138 -16 21 -31 40 -35 43 -15 13
-149 256 -155 280 0 3 -8 22 -18 43 -56 125 -64 147 -58 147 4 0 2 4 -3 8 -6
4 -16 23 -22 42 -11 32 -73 206 -86 240 -6 15 -38 122 -92 305 -15 50 -32 106
-37 125 -6 19 -11 37 -11 40 0 3 -7 25 -15 50 -8 25 -17 59 -22 75 -4 17 -28
104 -53 195 -51 186 -97 371 -103 414 -2 15 -7 38 -10 50 -4 11 -9 28 -10 36
-8 41 -18 83 -64 270 -27 111 -28 115 -30 115 -1 0 -3 9 -5 20 -3 20 -50 192
-80 295 -9 30 -18 62 -20 70 -2 8 -4 16 -5 18 -2 1 -3 5 -4 10 -1 4 -5 13 -9
20 -5 6 -6 12 -3 12 3 0 -2 19 -10 43 -9 23 -17 47 -18 52 -4 19 -29 90 -35
100 -3 6 -6 15 -7 20 -3 16 -93 235 -126 305 -31 66 -50 111 -52 120 -3 13
-199 402 -232 460 -20 36 -42 74 -48 85 -84 150 -296 403 -430 514 -126 103
-310 187 -456 207 -71 10 -322 11 -355 2z"/>
<path d="M2087 6334 c-2 -2 -13 -5 -26 -7 -112 -17 -321 -276 -492 -612 -43
-85 -79 -157 -79 -160 0 -3 -6 -20 -13 -38 -12 -27 -38 -101 -42 -117 -1 -3
-4 -12 -8 -20 -10 -26 -59 -204 -61 -225 -2 -11 -6 -29 -9 -40 -6 -20 -16 -79
-22 -125 -1 -14 -6 -50 -10 -80 -4 -30 -9 -73 -11 -95 -5 -52 -5 -354 1 -425
8 -95 21 -206 30 -250 2 -14 7 -41 10 -60 4 -19 10 -53 15 -75 5 -22 11 -53
14 -70 3 -16 8 -40 11 -52 8 -37 14 -65 26 -123 11 -55 53 -223 84 -335 48
-172 80 -294 111 -420 20 -77 39 -156 44 -175 24 -94 70 -311 70 -333 0 -13 3
-27 7 -30 3 -4 7 -17 8 -30 6 -63 15 -145 20 -167 25 -125 25 -443 -1 -608
-22 -139 -197 -467 -352 -657 -48 -59 -92 -138 -88 -158 13 -71 80 -110 138
-81 32 16 145 154 241 295 60 86 175 298 204 374 20 53 52 152 57 176 3 13 7
35 11 49 21 96 22 453 1 605 -12 84 -16 114 -22 147 -3 18 -7 42 -8 53 -2 11
-6 36 -10 55 -4 19 -8 42 -10 50 -2 8 -7 33 -11 55 -5 22 -9 47 -10 55 -1 8
-5 22 -8 30 -3 8 -8 29 -10 45 -5 28 -32 146 -43 190 -3 11 -7 27 -8 35 -2 8
-9 35 -15 60 -7 25 -14 52 -16 60 -2 8 -9 35 -16 60 -7 25 -13 50 -15 55 -1 6
-14 53 -28 105 -15 52 -29 102 -31 110 -2 8 -21 85 -43 170 -79 311 -139 622
-147 762 -2 31 -5 60 -8 65 -7 11 -1 419 7 463 4 19 9 51 13 70 3 19 7 42 8
50 1 14 15 84 21 105 9 34 56 193 61 205 3 8 7 22 9 30 2 8 9 30 17 50 8 19
25 60 37 90 38 93 145 307 161 320 3 3 12 15 18 28 7 13 19 31 27 40 15 17 52
65 89 118 64 91 146 157 162 131 4 -6 8 -14 8 -17 9 -72 22 -97 64 -119 51
-28 123 17 135 83 19 109 -25 208 -107 242 -36 15 -150 28 -160 18z"/>
<path d="M3808 5785 c-2 -2 -41 -6 -88 -9 -47 -3 -85 -6 -85 -6 0 -1 -13 -4
-30 -6 -109 -16 -293 -67 -405 -112 -139 -56 -360 -172 -368 -194 -2 -4 -8 -8
-14 -8 -37 0 -294 -232 -396 -357 -108 -133 -232 -346 -278 -478 -10 -27 -20
-54 -24 -60 -14 -21 -63 -217 -75 -295 -4 -25 -9 -57 -11 -72 -12 -78 -23
-363 -14 -380 0 -2 3 -31 5 -65 5 -83 22 -235 30 -263 2 -8 7 -28 10 -45 9
-53 15 -77 35 -145 17 -57 16 -52 22 -70 8 -21 19 -55 19 -57 0 -2 11 -29 25
-60 13 -32 28 -67 33 -78 62 -152 250 -475 343 -588 75 -92 206 -211 265 -241
81 -41 152 11 144 106 0 9 -22 36 -48 61 -27 25 -73 69 -104 99 -31 29 -77 80
-103 113 -26 33 -51 65 -56 71 -54 69 -185 304 -245 443 -34 78 -103 266 -110
301 -2 8 -8 33 -13 55 -31 115 -34 155 -34 450 -1 339 2 363 58 540 35 109
149 355 166 355 4 0 8 6 8 13 0 6 10 23 21 37 11 14 30 41 43 60 76 115 311
340 406 390 14 7 27 16 30 20 16 23 338 171 403 186 4 1 8 2 10 4 1 1 9 3 17
6 8 2 58 16 110 30 92 26 103 27 390 28 271 1 329 -2 400 -18 47 -11 215 -68
254 -87 22 -11 45 -19 52 -19 7 0 14 -3 16 -7 2 -5 32 -23 68 -42 103 -54 188
-118 285 -216 95 -97 99 -101 187 -210 119 -148 211 -307 273 -471 78 -206
101 -416 81 -734 -7 -118 -9 -131 -37 -249 -35 -149 -134 -412 -162 -432 -5
-3 -8 -9 -8 -13 2 -12 -32 -71 -93 -161 -90 -134 -228 -267 -371 -361 -115
-75 -346 -198 -450 -239 -27 -11 -66 -36 -87 -57 -35 -35 -36 -38 -26 -78 11
-41 50 -81 85 -86 31 -5 137 38 303 123 91 47 167 88 170 91 3 4 25 18 50 31
248 132 479 383 626 681 51 104 146 357 160 425 2 11 9 44 15 74 30 145 41
454 25 681 -6 71 -8 90 -21 150 -3 14 -7 34 -9 46 -28 145 -194 502 -281 600
-5 7 -19 24 -30 40 -11 15 -25 32 -30 38 -6 6 -30 36 -55 66 -74 91 -101 121
-185 205 -98 98 -125 120 -195 165 -230 147 -499 246 -750 275 -58 7 -347 15
-352 10z"/>
<path d="M4300 4303 c-49 -42 -70 -80 -70 -128 0 -54 37 -123 81 -151 114 -72
219 40 184 196 -15 67 -60 110 -121 115 -26 2 -43 -5 -74 -32z"/>
<path d="M3185 4169 c-47 -14 -67 -35 -85 -89 -31 -91 -9 -174 61 -228 30 -24
87 -40 115 -33 25 7 84 56 84 70 0 5 5 11 11 13 16 5 19 126 4 163 -7 17 -30
47 -52 68 -42 40 -85 52 -138 36z"/>
<path d="M4540 3135 c-14 -8 -34 -26 -45 -42 -35 -50 -116 -123 -138 -124 -40
-3 -72 -2 -97 4 -49 10 -115 31 -128 40 -7 5 -15 7 -19 4 -3 -4 -11 -3 -17 2
-36 29 -212 51 -291 37 -109 -21 -335 -113 -335 -137 0 -5 -6 -9 -12 -9 -17 0
-54 -58 -66 -103 -13 -46 0 -107 29 -129 49 -40 132 -15 159 48 14 32 29 47
62 62 56 27 79 35 126 46 9 3 17 5 17 6 0 4 43 10 80 12 61 2 123 -9 218 -41
48 -17 87 -28 87 -25 0 2 15 -2 33 -10 45 -18 207 -16 230 3 10 7 17 10 17 7
0 -11 82 48 127 92 84 82 116 158 88 212 -23 45 -84 67 -125 45z"/>
</g>
</svg>
