<svg id="svg" version="1.1" xmlns="http://www.w3.org/2000/svg" xmlns:xlink="http://www.w3.org/1999/xlink" width="400" height="400" viewBox="0, 0, 400,400"><g id="svgg"><path id="path0" d="M179.697 172.032 C 173.502 173.108,152.957 179.003,150.924 180.287 C 150.510 180.550,151.603 183.932,153.852 189.343 L 154.272 190.354 155.090 189.813 C 159.647 186.802,168.743 181.519,178.289 176.339 C 181.136 174.794,183.939 172.689,183.939 172.095 C 183.939 171.821,181.155 171.779,179.697 172.032 M119.545 194.272 C 113.436 197.585,105.838 202.194,99.773 206.264 C 96.731 208.305,94.242 209.903,94.242 209.816 C 94.242 209.729,94.376 209.407,94.540 209.101 C 94.935 208.363,94.077 208.001,93.441 208.637 C 92.868 209.210,92.535 209.233,93.004 208.668 C 93.273 208.344,93.264 208.249,92.965 208.261 C 91.795 208.309,91.195 208.152,91.382 207.849 C 91.527 207.614,91.397 207.617,90.946 207.859 C 90.522 208.086,90.303 208.096,90.303 207.889 C 90.303 207.717,90.110 207.576,89.874 207.576 C 89.638 207.576,89.392 207.420,89.329 207.229 C 89.265 207.039,88.811 206.848,88.319 206.805 C 87.827 206.762,87.314 206.713,87.179 206.697 C 87.044 206.680,87.010 206.543,87.104 206.392 C 87.197 206.241,86.994 206.190,86.653 206.280 C 86.257 206.383,85.768 206.194,85.304 205.758 C 84.845 205.327,84.386 205.148,84.059 205.273 C 83.745 205.394,83.293 205.242,82.907 204.888 C 82.558 204.566,81.724 204.243,81.054 204.169 C 80.384 204.095,79.498 203.850,79.084 203.624 C 78.671 203.399,78.038 203.207,77.677 203.198 C 77.316 203.189,76.906 203.058,76.768 202.906 C 76.618 202.743,76.689 202.731,76.941 202.877 C 77.231 203.045,77.296 203.010,77.145 202.766 C 77.024 202.569,76.559 202.446,76.114 202.492 C 75.628 202.542,75.330 202.436,75.369 202.226 C 75.406 202.033,75.235 201.799,74.990 201.705 C 74.746 201.611,74.545 201.683,74.545 201.865 C 74.545 202.087,74.401 202.076,74.104 201.829 C 73.861 201.628,73.532 201.544,73.372 201.642 C 73.213 201.741,73.035 201.681,72.978 201.508 C 72.920 201.336,72.465 201.164,71.967 201.128 C 71.424 201.088,70.971 200.842,70.838 200.516 C 70.715 200.216,70.443 199.994,70.232 200.022 C 69.072 200.174,68.160 199.977,68.374 199.621 C 68.528 199.364,68.437 199.376,68.088 199.658 C 67.622 200.037,67.444 199.927,67.540 199.318 C 67.560 199.193,67.212 199.091,66.768 199.091 C 66.323 199.091,66.049 199.181,66.159 199.290 C 66.269 199.400,66.240 199.639,66.096 199.821 C 65.761 200.244,40.000 266.803,40.000 267.245 C 40.000 267.479,44.222 267.576,54.490 267.576 C 75.032 267.576,73.876 267.935,79.843 259.704 C 92.305 242.515,110.126 223.745,126.270 210.808 C 127.968 209.447,129.366 208.148,129.376 207.922 C 129.410 207.152,124.092 192.123,123.788 192.129 C 123.621 192.132,121.712 193.096,119.545 194.272 " stroke="none" fill="#0fa0e2" fill-rule="evenodd"></path><path id="path1" d="M195.152 145.939 L 195.152 167.030 196.182 168.061 C 197.406 169.285,198.067 169.337,203.353 168.623 C 205.259 168.365,208.250 167.960,210.000 167.723 C 211.750 167.486,216.693 166.983,220.985 166.604 L 228.788 165.916 228.788 145.382 L 228.788 124.848 211.970 124.848 L 195.152 124.848 195.152 145.939 " stroke="none" fill="#fbb209" fill-rule="evenodd"></path><path id="path2" d="M95.783 125.264 C 96.095 125.544,97.879 126.363,97.879 126.228 C 97.879 126.053,96.199 125.152,95.874 125.152 C 95.754 125.152,95.713 125.202,95.783 125.264 M83.975 154.791 C 83.955 155.175,83.816 155.414,83.665 155.321 C 83.514 155.227,82.979 156.140,82.476 157.348 C 80.482 162.141,78.245 168.063,78.039 169.091 C 78.022 169.174,77.821 169.583,77.591 170.000 C 77.208 170.695,77.215 170.723,77.678 170.342 C 78.080 170.010,78.273 170.001,78.633 170.300 C 78.880 170.506,79.297 170.592,79.557 170.492 C 79.818 170.392,79.971 170.411,79.896 170.534 C 79.822 170.657,79.951 170.933,80.183 171.148 C 80.416 171.363,80.606 171.449,80.606 171.338 C 80.606 171.228,80.811 171.308,81.061 171.515 C 81.332 171.741,81.515 171.766,81.515 171.579 C 81.515 171.407,81.754 171.306,82.045 171.355 C 82.337 171.404,82.538 171.607,82.492 171.805 C 82.447 172.004,82.540 172.086,82.699 171.987 C 82.858 171.889,83.074 171.947,83.179 172.116 C 83.283 172.286,83.532 172.422,83.730 172.420 C 83.947 172.417,83.909 172.298,83.636 172.121 C 83.386 171.960,83.320 171.825,83.488 171.823 C 83.656 171.820,84.160 172.158,84.608 172.573 C 85.072 173.003,85.502 173.199,85.608 173.028 C 85.710 172.862,85.930 172.727,86.096 172.727 C 86.263 172.727,86.315 172.864,86.212 173.030 C 86.053 173.288,86.901 173.488,87.652 173.369 C 87.777 173.349,87.879 173.478,87.879 173.654 C 87.879 173.831,88.030 173.881,88.216 173.767 C 88.401 173.652,88.640 173.678,88.746 173.825 C 89.201 174.451,90.222 174.808,90.567 174.463 C 90.821 174.209,90.909 174.241,90.909 174.586 C 90.909 174.841,91.080 175.056,91.288 175.062 C 92.035 175.086,92.580 175.311,92.976 175.758 C 93.197 176.008,93.300 176.054,93.204 175.862 C 93.090 175.633,93.241 175.566,93.636 175.670 C 93.970 175.757,94.242 175.937,94.242 176.069 C 94.242 176.202,94.481 176.270,94.773 176.221 C 95.064 176.172,95.266 175.969,95.220 175.771 C 95.174 175.572,95.278 175.497,95.452 175.604 C 95.625 175.712,95.698 175.911,95.614 176.048 C 95.373 176.438,96.760 177.210,97.904 177.322 C 98.473 177.378,99.114 177.589,99.327 177.790 C 99.540 177.991,99.898 178.086,100.121 178.000 C 100.345 177.914,100.613 178.065,100.716 178.335 C 100.820 178.605,101.039 178.743,101.204 178.642 C 101.368 178.540,101.812 178.633,102.191 178.848 C 102.901 179.252,103.064 179.297,104.091 179.364 C 104.596 179.397,104.621 179.452,104.242 179.697 C 103.850 179.951,103.857 179.991,104.295 179.995 C 104.618 179.998,104.927 179.589,105.149 178.864 C 105.340 178.239,105.620 177.455,105.771 177.121 C 106.273 176.013,108.733 168.961,109.101 167.576 C 109.300 166.826,109.538 166.008,109.630 165.758 C 109.924 164.953,109.832 164.392,109.419 164.482 C 109.167 164.537,109.083 164.396,109.196 164.103 C 109.417 163.528,109.262 163.509,108.725 164.045 C 108.382 164.389,108.246 164.380,107.880 163.988 C 107.496 163.576,107.513 163.547,108.023 163.743 C 108.585 163.959,108.586 163.947,108.051 163.356 C 107.634 162.895,107.366 162.818,106.951 163.040 C 106.189 163.448,106.096 163.413,106.263 162.776 C 106.386 162.306,106.264 162.241,105.477 162.356 C 104.965 162.432,104.545 162.614,104.545 162.762 C 104.545 162.909,104.395 163.030,104.210 163.030 C 104.026 163.030,103.958 162.813,104.059 162.548 C 104.355 161.777,104.017 161.562,102.904 161.812 C 102.035 162.009,101.895 161.970,102.046 161.577 C 102.178 161.234,102.092 161.159,101.729 161.298 C 101.049 161.559,100.767 160.997,101.262 160.366 C 101.611 159.919,101.604 159.895,101.212 160.188 C 100.962 160.375,100.518 160.490,100.226 160.442 C 99.933 160.395,99.765 160.471,99.852 160.612 C 99.939 160.752,99.852 160.965,99.658 161.085 C 99.413 161.236,99.352 161.061,99.458 160.509 C 99.541 160.072,99.493 159.787,99.350 159.876 C 99.208 159.964,99.091 160.232,99.091 160.472 C 99.091 160.713,98.810 160.909,98.467 160.909 C 98.124 160.909,97.918 160.787,98.011 160.638 C 98.103 160.489,97.975 160.288,97.726 160.193 C 97.476 160.097,97.273 159.802,97.273 159.537 C 97.273 159.272,97.411 159.141,97.581 159.245 C 97.750 159.350,97.797 159.584,97.685 159.765 C 97.568 159.954,97.622 160.007,97.813 159.889 C 97.996 159.776,98.285 159.926,98.457 160.221 C 98.629 160.516,98.774 160.630,98.779 160.474 C 98.796 159.950,97.515 158.830,97.087 158.995 C 96.853 159.084,96.318 158.932,95.898 158.657 C 95.123 158.149,94.375 158.267,94.730 158.841 C 94.856 159.045,95.012 159.014,95.173 158.753 C 95.369 158.436,95.464 158.460,95.622 158.870 C 95.731 159.156,95.964 159.302,96.139 159.194 C 96.330 159.076,96.367 159.144,96.232 159.362 C 96.076 159.615,95.892 159.631,95.632 159.416 C 95.374 159.201,95.127 159.220,94.831 159.477 C 94.596 159.681,94.502 159.726,94.621 159.576 C 94.740 159.426,94.546 159.051,94.191 158.743 C 93.441 158.093,93.009 158.018,93.142 158.561 C 93.192 158.769,93.177 158.836,93.106 158.710 C 93.036 158.584,92.833 158.571,92.655 158.681 C 92.453 158.806,92.420 158.737,92.568 158.498 C 92.916 157.935,92.142 157.583,91.279 157.911 C 90.602 158.168,90.553 158.131,90.716 157.480 C 90.840 156.990,90.765 156.768,90.477 156.768 C 90.246 156.768,90.128 156.949,90.213 157.172 C 90.422 157.716,90.063 157.682,89.485 157.104 C 89.225 156.844,88.821 156.706,88.586 156.796 C 88.351 156.886,88.082 156.758,87.987 156.512 C 87.893 156.266,87.693 156.140,87.544 156.232 C 87.395 156.324,87.273 156.255,87.273 156.078 C 87.273 155.902,86.779 155.758,86.175 155.758 C 85.234 155.758,85.131 155.693,85.455 155.303 C 85.672 155.041,85.701 154.848,85.524 154.848 C 85.355 154.848,85.129 155.076,85.022 155.354 C 84.800 155.933,84.375 155.612,84.155 154.697 C 84.027 154.162,84.006 154.172,83.975 154.791 M297.477 240.503 C 297.367 240.613,296.901 240.726,296.441 240.755 C 295.982 240.783,293.697 241.049,291.364 241.345 L 287.121 241.883 279.458 249.654 C 270.258 258.982,270.202 259.069,270.050 264.167 L 269.948 267.576 283.289 267.576 C 291.451 267.576,296.700 267.463,296.810 267.286 C 296.909 267.127,297.172 267.066,297.395 267.152 C 297.618 267.237,297.889 267.076,297.998 266.793 C 298.164 266.361,298.122 266.339,297.734 266.661 C 297.405 266.934,297.273 266.944,297.273 266.694 C 297.273 266.502,297.468 266.270,297.706 266.178 C 297.950 266.085,298.129 265.637,298.116 265.154 C 298.099 264.564,297.963 264.345,297.682 264.453 C 297.457 264.540,297.273 264.459,297.273 264.275 C 297.273 264.090,297.489 263.939,297.753 263.939 C 298.016 263.939,298.170 263.769,298.093 263.561 C 298.017 263.352,297.820 263.210,297.656 263.243 C 297.492 263.277,297.200 262.937,297.007 262.486 C 296.683 261.727,296.691 261.710,297.113 262.251 C 297.584 262.853,297.948 262.741,298.063 261.959 C 298.099 261.714,298.004 261.589,297.852 261.683 C 297.700 261.777,297.576 261.653,297.576 261.407 C 297.576 261.161,297.746 260.902,297.955 260.832 C 298.237 260.737,298.247 260.596,297.996 260.277 C 297.488 259.633,297.590 258.819,298.157 258.991 C 298.520 259.102,298.508 259.054,298.106 258.796 C 297.592 258.465,297.320 257.685,297.828 257.999 C 297.967 258.085,298.081 257.970,298.081 257.743 C 298.081 257.507,297.876 257.393,297.601 257.478 C 297.191 257.604,297.195 257.564,297.629 257.205 C 298.101 256.814,298.096 256.759,297.553 256.420 C 297.232 256.219,296.972 255.818,296.974 255.528 C 296.978 255.095,297.029 255.078,297.253 255.433 C 297.404 255.671,297.777 255.901,298.082 255.944 C 298.600 256.017,298.602 255.997,298.117 255.637 C 297.721 255.344,297.681 255.167,297.950 254.899 C 298.197 254.651,298.203 254.545,297.968 254.545 C 297.782 254.545,297.703 254.276,297.790 253.943 C 297.877 253.611,298.090 253.428,298.263 253.535 C 298.452 253.652,298.487 253.582,298.350 253.359 C 298.224 253.156,297.937 253.060,297.712 253.146 C 297.450 253.246,297.364 253.146,297.471 252.865 C 297.564 252.625,297.747 252.494,297.879 252.576 C 298.011 252.657,298.199 252.513,298.298 252.255 C 298.397 251.998,298.359 251.860,298.213 251.950 C 298.067 252.040,297.883 251.775,297.804 251.360 C 297.725 250.945,297.798 250.606,297.968 250.606 C 298.137 250.606,298.020 250.323,297.707 249.978 C 297.394 249.632,297.271 249.393,297.433 249.447 C 297.595 249.501,297.727 249.409,297.727 249.242 C 297.727 249.076,297.630 248.972,297.511 249.012 C 297.392 249.051,297.374 248.877,297.471 248.625 C 297.615 248.248,297.731 248.235,298.124 248.553 C 298.525 248.878,298.556 248.867,298.319 248.485 C 298.163 248.235,298.025 247.348,298.011 246.515 C 297.997 245.682,297.820 244.693,297.618 244.318 C 297.416 243.943,297.324 243.619,297.414 243.598 C 297.503 243.578,297.701 243.544,297.854 243.523 C 298.006 243.502,298.245 243.363,298.384 243.215 C 298.530 243.059,298.289 243.028,297.811 243.143 C 297.166 243.298,297.023 243.245,297.154 242.902 C 297.247 242.660,297.506 242.533,297.730 242.619 C 298.024 242.732,298.088 242.587,297.960 242.098 C 297.828 241.590,297.883 241.482,298.181 241.666 C 298.444 241.829,298.505 241.794,298.362 241.562 C 298.243 241.370,297.915 241.207,297.634 241.201 C 297.260 241.194,297.327 241.073,297.879 240.758 C 298.377 240.473,298.472 240.321,298.157 240.314 C 297.893 240.308,297.587 240.393,297.477 240.503 " stroke="none" fill="#2c47bb" fill-rule="evenodd"></path><path id="path3" d="M91.729 133.285 C 89.946 137.895,88.229 142.348,87.915 143.182 C 87.601 144.015,86.446 147.000,85.347 149.815 C 84.249 152.631,83.443 155.084,83.556 155.267 C 83.676 155.461,83.850 155.285,83.972 154.845 C 84.166 154.150,84.184 154.143,84.212 154.755 C 84.250 155.584,84.791 155.957,85.035 155.322 C 85.135 155.062,85.355 154.848,85.524 154.848 C 85.701 154.848,85.672 155.041,85.455 155.303 C 85.131 155.693,85.234 155.758,86.175 155.758 C 86.779 155.758,87.273 155.902,87.273 156.078 C 87.273 156.255,87.395 156.324,87.544 156.232 C 87.693 156.140,87.893 156.266,87.987 156.512 C 88.082 156.758,88.351 156.886,88.586 156.796 C 88.821 156.706,89.225 156.844,89.485 157.104 C 90.063 157.682,90.422 157.716,90.213 157.172 C 90.128 156.949,90.246 156.768,90.477 156.768 C 90.765 156.768,90.840 156.990,90.716 157.480 C 90.553 158.131,90.602 158.168,91.279 157.911 C 92.142 157.583,92.916 157.935,92.568 158.498 C 92.420 158.737,92.453 158.806,92.655 158.681 C 92.833 158.571,93.036 158.584,93.106 158.710 C 93.177 158.836,93.192 158.769,93.142 158.561 C 93.091 158.352,93.161 158.182,93.296 158.182 C 93.688 158.182,94.853 159.283,94.694 159.503 C 94.615 159.612,94.710 159.568,94.904 159.404 C 95.137 159.207,95.386 159.211,95.632 159.416 C 95.892 159.631,96.076 159.615,96.232 159.362 C 96.367 159.144,96.330 159.076,96.139 159.194 C 95.964 159.302,95.731 159.156,95.622 158.870 C 95.464 158.460,95.369 158.436,95.173 158.753 C 95.012 159.014,94.856 159.045,94.730 158.841 C 94.375 158.267,95.123 158.149,95.898 158.657 C 96.318 158.932,96.853 159.084,97.087 158.995 C 97.515 158.830,98.796 159.950,98.779 160.474 C 98.774 160.630,98.629 160.516,98.457 160.221 C 98.285 159.926,97.996 159.776,97.813 159.889 C 97.622 160.007,97.568 159.954,97.685 159.765 C 97.797 159.584,97.750 159.350,97.581 159.245 C 97.411 159.141,97.273 159.272,97.273 159.537 C 97.273 159.802,97.476 160.097,97.726 160.193 C 97.975 160.288,98.103 160.489,98.011 160.638 C 97.918 160.787,98.124 160.909,98.467 160.909 C 98.810 160.909,99.091 160.713,99.091 160.472 C 99.091 160.232,99.208 159.964,99.350 159.876 C 99.493 159.787,99.541 160.072,99.458 160.509 C 99.352 161.061,99.413 161.236,99.658 161.085 C 99.852 160.965,99.939 160.752,99.852 160.612 C 99.765 160.471,99.933 160.395,100.226 160.442 C 100.518 160.490,100.962 160.375,101.212 160.188 C 101.604 159.895,101.611 159.919,101.262 160.366 C 100.767 160.997,101.049 161.559,101.729 161.298 C 102.092 161.159,102.178 161.234,102.046 161.577 C 101.895 161.970,102.035 162.009,102.904 161.812 C 104.017 161.562,104.355 161.777,104.059 162.548 C 103.958 162.813,104.026 163.030,104.210 163.030 C 104.395 163.030,104.545 162.909,104.545 162.762 C 104.545 162.614,104.965 162.432,105.477 162.356 C 106.264 162.241,106.386 162.306,106.263 162.776 C 106.096 163.413,106.189 163.448,106.951 163.040 C 107.366 162.818,107.634 162.895,108.051 163.356 C 108.586 163.947,108.585 163.959,108.023 163.743 C 107.513 163.547,107.496 163.576,107.880 163.988 C 108.246 164.380,108.382 164.389,108.725 164.045 C 109.262 163.509,109.417 163.528,109.196 164.103 C 109.082 164.400,109.168 164.538,109.433 164.482 C 109.661 164.434,109.811 164.575,109.765 164.795 C 109.719 165.019,109.828 165.106,110.013 164.992 C 110.195 164.879,110.271 164.596,110.182 164.363 C 110.092 164.130,110.122 163.939,110.247 163.939 C 110.373 163.939,110.864 162.644,111.340 161.060 L 112.205 158.181 107.734 145.227 C 102.040 128.731,101.834 128.359,97.069 125.959 L 94.973 124.904 91.729 133.285 " stroke="none" fill="#2c44ac" fill-rule="evenodd"></path><path id="path4" d="M287.879 123.526 C 264.480 126.425,248.137 141.627,244.985 163.425 L 244.775 164.881 254.887 164.691 C 271.279 164.384,272.976 163.805,277.590 156.947 C 283.107 148.747,293.534 145.768,302.094 149.947 C 310.866 154.229,312.266 169.757,305.132 183.645 C 300.573 192.521,299.220 194.023,262.842 230.606 C 241.444 252.125,242.727 250.158,242.727 261.427 L 242.727 267.576 256.338 267.576 L 269.948 267.576 270.050 264.167 C 270.210 258.804,269.616 259.603,285.227 243.739 C 322.575 205.784,326.283 201.796,331.740 193.709 C 349.770 166.993,341.522 135.865,313.822 126.090 C 307.684 123.923,294.882 122.658,287.879 123.526 M96.288 125.300 C 98.983 126.472,101.706 128.921,102.860 131.212 C 103.470 132.422,110.228 151.930,113.096 160.758 C 116.049 169.848,123.654 191.946,123.881 192.099 C 124.194 192.309,129.394 207.292,129.394 207.984 C 129.394 208.596,147.159 260.112,147.792 261.337 C 149.286 264.227,152.786 266.720,156.102 267.258 C 158.003 267.567,184.242 267.724,184.242 267.427 C 184.242 267.097,155.047 191.836,154.265 190.152 C 153.801 189.152,152.773 186.561,151.981 184.394 C 151.188 182.227,146.039 168.774,140.539 154.498 C 129.744 126.478,129.923 126.864,127.143 125.570 L 125.606 124.854 110.455 124.863 C 97.137 124.871,95.422 124.924,96.288 125.300 M222.727 166.540 C 208.013 167.898,206.699 168.099,204.058 169.391 C 199.948 171.402,196.470 175.706,195.479 180.008 C 195.272 180.904,195.164 195.987,195.159 224.470 L 195.152 267.576 211.970 267.576 L 228.788 267.576 228.788 216.818 L 228.788 166.061 227.955 166.097 C 227.496 166.117,225.144 166.317,222.727 166.540 M77.522 170.530 C 77.118 171.006,66.364 198.447,66.364 199.002 C 66.364 199.051,66.636 199.091,66.970 199.091 C 67.303 199.091,67.560 199.193,67.540 199.318 C 67.444 199.927,67.622 200.037,68.088 199.658 C 68.437 199.376,68.528 199.364,68.374 199.621 C 68.160 199.977,69.072 200.174,70.232 200.022 C 70.443 199.994,70.715 200.216,70.838 200.516 C 70.971 200.842,71.424 201.088,71.967 201.128 C 72.465 201.164,72.920 201.336,72.978 201.508 C 73.035 201.681,73.213 201.741,73.372 201.642 C 73.532 201.544,73.861 201.628,74.104 201.829 C 74.401 202.076,74.545 202.087,74.545 201.865 C 74.545 201.683,74.746 201.611,74.990 201.705 C 75.235 201.799,75.406 202.033,75.369 202.226 C 75.330 202.436,75.628 202.542,76.114 202.492 C 76.559 202.446,77.024 202.569,77.145 202.766 C 77.293 203.006,77.235 203.043,76.970 202.879 C 76.700 202.712,76.646 202.752,76.802 203.004 C 76.927 203.207,77.103 203.301,77.191 203.213 C 77.280 203.124,77.624 203.197,77.955 203.374 C 78.412 203.619,78.503 203.608,78.333 203.332 C 78.209 203.132,78.469 203.204,78.911 203.494 C 79.353 203.784,80.291 204.085,80.994 204.162 C 81.697 204.240,82.558 204.566,82.907 204.888 C 83.293 205.242,83.745 205.394,84.059 205.273 C 84.386 205.148,84.845 205.327,85.304 205.758 C 85.768 206.194,86.257 206.383,86.653 206.280 C 86.994 206.190,87.197 206.241,87.104 206.392 C 87.010 206.543,87.044 206.680,87.179 206.697 C 87.314 206.713,87.827 206.762,88.319 206.805 C 88.811 206.848,89.265 207.039,89.329 207.229 C 89.392 207.420,89.638 207.576,89.874 207.576 C 90.110 207.576,90.303 207.717,90.303 207.889 C 90.303 208.096,90.522 208.086,90.946 207.859 C 91.397 207.617,91.527 207.614,91.382 207.849 C 91.195 208.152,91.795 208.309,92.965 208.261 C 93.267 208.249,93.274 208.342,92.998 208.675 C 92.710 209.022,92.738 209.068,93.139 208.914 C 93.413 208.809,93.636 208.601,93.636 208.452 C 93.636 208.304,93.781 208.182,93.957 208.182 C 94.134 208.182,94.195 208.317,94.093 208.481 C 93.989 208.650,94.104 208.706,94.356 208.609 C 94.856 208.417,94.742 208.721,100.568 192.121 C 103.907 182.605,104.675 180.130,104.310 180.045 C 103.925 179.956,103.919 179.896,104.274 179.671 C 104.604 179.462,104.563 179.394,104.091 179.364 C 103.064 179.297,102.901 179.252,102.191 178.848 C 101.812 178.633,101.368 178.540,101.204 178.642 C 101.039 178.743,100.820 178.605,100.716 178.335 C 100.613 178.065,100.345 177.914,100.121 178.000 C 99.898 178.086,99.540 177.991,99.327 177.790 C 99.114 177.589,98.473 177.378,97.904 177.322 C 96.760 177.210,95.373 176.438,95.614 176.048 C 95.698 175.911,95.625 175.712,95.452 175.604 C 95.278 175.497,95.174 175.572,95.220 175.771 C 95.266 175.969,95.064 176.172,94.773 176.221 C 94.481 176.270,94.242 176.202,94.242 176.069 C 94.242 175.937,93.970 175.757,93.636 175.670 C 93.241 175.566,93.090 175.633,93.204 175.862 C 93.300 176.054,93.197 176.008,92.976 175.758 C 92.580 175.311,92.035 175.086,91.288 175.062 C 91.080 175.056,90.909 174.841,90.909 174.586 C 90.909 174.241,90.821 174.209,90.567 174.463 C 90.222 174.808,89.201 174.451,88.746 173.825 C 88.640 173.678,88.401 173.652,88.216 173.767 C 88.030 173.881,87.879 173.831,87.879 173.654 C 87.879 173.478,87.777 173.349,87.652 173.369 C 86.901 173.488,86.053 173.288,86.212 173.030 C 86.315 172.864,86.263 172.727,86.096 172.727 C 85.930 172.727,85.710 172.862,85.608 173.028 C 85.502 173.199,85.072 173.003,84.608 172.573 C 84.160 172.158,83.656 171.820,83.488 171.823 C 83.320 171.825,83.386 171.960,83.636 172.121 C 83.909 172.298,83.947 172.417,83.730 172.420 C 83.532 172.422,83.283 172.286,83.179 172.116 C 83.074 171.947,82.858 171.889,82.699 171.987 C 82.540 172.086,82.447 172.004,82.492 171.805 C 82.538 171.607,82.337 171.404,82.045 171.355 C 81.754 171.306,81.515 171.407,81.515 171.579 C 81.515 171.766,81.332 171.741,81.061 171.515 C 80.811 171.308,80.606 171.228,80.606 171.338 C 80.606 171.449,80.416 171.363,80.183 171.148 C 79.951 170.933,79.815 170.668,79.881 170.559 C 79.947 170.449,79.743 170.427,79.429 170.509 C 79.114 170.592,78.765 170.511,78.653 170.329 C 78.364 169.862,78.041 169.920,77.522 170.530 M305.449 239.789 C 305.369 239.862,303.847 239.998,302.068 240.091 C 299.331 240.234,295.655 241.153,297.634 241.200 C 297.915 241.207,298.243 241.370,298.362 241.562 C 298.505 241.794,298.444 241.829,298.181 241.666 C 297.883 241.482,297.828 241.590,297.960 242.098 C 298.088 242.587,298.024 242.732,297.730 242.619 C 297.506 242.533,297.247 242.660,297.154 242.902 C 297.023 243.245,297.166 243.298,297.811 243.143 C 298.289 243.028,298.530 243.059,298.384 243.215 C 298.245 243.363,298.006 243.502,297.854 243.523 C 297.701 243.544,297.503 243.578,297.414 243.598 C 297.324 243.619,297.416 243.943,297.618 244.318 C 297.820 244.693,297.997 245.682,298.011 246.515 C 298.025 247.348,298.163 248.235,298.319 248.485 C 298.556 248.867,298.525 248.878,298.124 248.553 C 297.731 248.235,297.615 248.248,297.471 248.625 C 297.374 248.877,297.412 249.051,297.556 249.012 C 297.700 248.972,297.798 249.076,297.773 249.242 C 297.748 249.409,297.595 249.501,297.433 249.447 C 297.271 249.393,297.394 249.632,297.707 249.978 C 298.020 250.323,298.137 250.606,297.968 250.606 C 297.798 250.606,297.725 250.945,297.804 251.360 C 297.883 251.775,298.067 252.040,298.213 251.950 C 298.359 251.860,298.397 251.998,298.298 252.255 C 298.199 252.513,298.011 252.657,297.879 252.576 C 297.747 252.494,297.564 252.625,297.471 252.865 C 297.364 253.146,297.450 253.246,297.712 253.146 C 297.937 253.060,298.224 253.156,298.350 253.359 C 298.487 253.582,298.452 253.652,298.263 253.535 C 298.090 253.428,297.877 253.611,297.790 253.943 C 297.703 254.276,297.782 254.545,297.968 254.545 C 298.203 254.545,298.197 254.651,297.950 254.899 C 297.681 255.167,297.721 255.344,298.117 255.637 C 298.602 255.997,298.600 256.017,298.082 255.944 C 297.777 255.901,297.404 255.671,297.253 255.433 C 297.029 255.078,296.978 255.095,296.974 255.528 C 296.972 255.818,297.232 256.219,297.553 256.420 C 298.096 256.759,298.101 256.814,297.629 257.205 C 297.195 257.564,297.191 257.604,297.601 257.478 C 297.876 257.393,298.081 257.507,298.081 257.743 C 298.081 257.970,297.967 258.085,297.828 257.999 C 297.320 257.685,297.592 258.465,298.106 258.796 C 298.508 259.054,298.520 259.102,298.157 258.991 C 297.590 258.819,297.488 259.633,297.996 260.277 C 298.247 260.596,298.237 260.737,297.955 260.832 C 297.746 260.902,297.576 261.161,297.576 261.407 C 297.576 261.653,297.700 261.777,297.852 261.683 C 298.004 261.589,298.099 261.714,298.063 261.959 C 297.948 262.741,297.584 262.853,297.113 262.251 C 296.691 261.710,296.683 261.727,297.007 262.486 C 297.200 262.937,297.492 263.277,297.656 263.243 C 297.820 263.210,298.017 263.352,298.093 263.561 C 298.170 263.769,298.016 263.939,297.753 263.939 C 297.489 263.939,297.273 264.090,297.273 264.275 C 297.273 264.459,297.457 264.540,297.682 264.453 C 297.963 264.345,298.099 264.564,298.116 265.154 C 298.129 265.637,297.950 266.085,297.706 266.178 C 297.468 266.270,297.273 266.502,297.273 266.694 C 297.273 266.944,297.405 266.934,297.734 266.661 C 298.122 266.339,298.164 266.361,297.998 266.793 C 297.889 267.076,297.618 267.237,297.395 267.152 C 297.172 267.066,296.909 267.127,296.810 267.286 C 296.697 267.469,305.148 267.576,319.831 267.576 L 343.030 267.576 343.030 257.478 C 343.030 244.450,342.417 242.700,337.112 240.584 C 335.429 239.913,306.125 239.177,305.449 239.789 " stroke="none" fill="#2c54cb" fill-rule="evenodd"></path></g></svg>