<?xml version="1.0" standalone="no"?>
<!DOCTYPE svg PUBLIC "-//W3C//DTD SVG 20010904//EN"
 "http://www.w3.org/TR/2001/REC-SVG-20010904/DTD/svg10.dtd">
<svg version="1.0" xmlns="http://www.w3.org/2000/svg"
 width="550.000000pt" height="550.000000pt" viewBox="0 0 550.000000 550.000000"
 preserveAspectRatio="xMidYMid meet">
<metadata>
Created by potrace 1.14, written by Peter Selinger 2001-2017
</metadata>
<g transform="translate(0.000000,550.000000) scale(0.100000,-0.100000)"
fill="#000000" stroke="none">
<path d="M2559 5496 c-2 -2 -38 -6 -79 -10 -41 -3 -84 -8 -95 -10 -11 -2 -42
-7 -69 -10 -347 -47 -800 -226 -1101 -434 -75 -52 -149 -106 -155 -112 -3 -3
-30 -25 -60 -50 -489 -397 -840 -993 -954 -1620 -15 -84 -18 -106 -35 -245 -9
-73 -7 -484 3 -545 3 -19 8 -55 11 -80 12 -97 29 -177 79 -385 23 -96 112
-323 183 -467 57 -116 201 -356 233 -388 3 -3 25 -32 50 -65 24 -33 49 -65 55
-71 5 -6 34 -39 64 -73 248 -285 599 -543 948 -696 97 -42 308 -119 357 -130
11 -2 55 -13 96 -24 41 -11 86 -22 100 -24 163 -30 201 -36 300 -44 106 -10
419 -10 520 0 111 10 135 14 295 43 262 47 607 183 869 343 557 338 968 850
1182 1474 24 71 46 139 48 151 2 12 11 48 19 81 9 33 21 87 26 120 6 33 13 71
16 85 5 24 8 46 23 180 14 130 7 529 -12 625 -2 11 -7 43 -10 70 -20 148 -89
400 -159 575 -178 452 -467 840 -858 1152 -49 39 -247 178 -254 178 -3 0 -28
15 -57 34 -173 110 -538 257 -748 301 -149 31 -224 45 -265 50 -27 3 -63 8
-80 10 -34 6 -481 16 -486 11z"/>
</g>
</svg>
