<?xml version="1.0" standalone="no"?>
<!DOCTYPE svg PUBLIC "-//W3C//DTD SVG 20010904//EN"
 "http://www.w3.org/TR/2001/REC-SVG-20010904/DTD/svg10.dtd">
<svg version="1.0" xmlns="http://www.w3.org/2000/svg"
 width="420.000000pt" height="420.000000pt" viewBox="0 0 420.000000 420.000000"
 preserveAspectRatio="xMidYMid meet">
<metadata>
Created by potrace 1.14, written by Peter Selinger 2001-2017
</metadata>
<g transform="translate(0.000000,420.000000) scale(0.100000,-0.100000)"
fill="#000000" stroke="none">
<path d="M1757 3659 c-106 -15 -289 -101 -415 -193 -151 -111 -277 -357 -337
-656 -34 -170 -86 -330 -160 -490 -117 -255 -143 -317 -164 -398 -29 -108 -29
-232 -2 -372 46 -233 39 -340 -40 -564 -69 -196 -80 -245 -80 -350 1 -191 100
-418 243 -552 85 -81 96 -84 271 -84 l155 0 -14 47 c-17 57 -17 128 0 168 l13
30 43 -69 c53 -84 112 -126 177 -126 38 0 49 6 88 44 24 25 47 57 51 71 l6 26
45 -46 c48 -51 111 -84 158 -85 23 0 41 12 85 60 l56 60 43 -44 c24 -25 66
-54 93 -66 62 -26 90 -19 168 45 30 25 58 45 61 45 4 0 14 -11 23 -25 25 -38
56 -64 92 -75 44 -15 96 9 134 62 l28 38 16 -26 c56 -85 174 -83 246 4 l29 35
14 -36 c24 -57 77 -73 137 -42 35 18 34 20 15 -35 -8 -23 -15 -46 -15 -51 0
-5 43 -9 95 -9 113 0 122 4 251 122 242 222 330 499 234 738 -10 25 -25 81
-33 125 -39 205 -58 279 -96 380 -47 124 -48 143 -21 257 43 182 13 388 -100
679 -42 109 -80 228 -95 295 -13 62 -38 168 -55 235 l-31 122 20 48 c53 123
-3 249 -112 249 -32 0 -38 5 -66 54 -57 103 -128 166 -271 244 -163 88 -353
132 -485 110 -39 -6 -108 -5 -201 1 -161 12 -214 12 -297 0z m1036 -383 c36
-15 97 -79 97 -101 0 -21 -216 -21 -244 0 -18 13 -18 15 3 48 20 32 70 66 99
67 7 0 27 -6 45 -14z m341 -75 c58 -51 61 -145 4 -136 -25 4 -198 77 -203 85
-9 14 46 53 92 66 53 14 78 10 107 -15z m-1188 -585 c4 -12 15 -34 26 -49 11
-15 24 -43 29 -61 9 -31 13 -34 62 -40 28 -3 88 -6 132 -6 44 -1 97 -7 117
-14 40 -14 224 -10 234 5 7 11 84 12 84 1 0 -5 45 -21 100 -36 108 -31 168
-63 193 -106 13 -21 20 -90 33 -290 16 -254 16 -264 -2 -319 -10 -31 -18 -62
-17 -68 0 -7 -3 -10 -8 -7 -5 3 -10 -1 -11 -8 0 -7 -2 -17 -3 -23 -2 -5 -3
-16 -4 -23 0 -7 -5 -11 -10 -7 -5 3 -13 -5 -17 -17 -4 -13 -38 -55 -76 -94
l-69 -71 -37 37 c-21 21 -56 43 -79 50 -36 11 -49 11 -88 -4 -52 -20 -79 -54
-97 -119 -10 -40 -9 -57 7 -124 14 -58 16 -78 7 -81 -7 -2 -12 -8 -12 -13 0
-6 6 -7 13 -3 6 4 9 4 5 0 -3 -4 -9 -7 -13 -6 -4 1 -17 -10 -31 -25 -13 -14
-24 -23 -24 -20 0 3 -18 -4 -40 -15 -44 -22 -54 -25 -45 -10 3 6 -1 7 -9 4 -9
-3 -14 -11 -13 -17 1 -7 -14 -13 -37 -14 -21 -1 -44 -7 -52 -13 -22 -19 -166
-13 -233 10 -33 11 -70 20 -81 20 -11 0 -20 5 -20 10 0 6 -12 16 -27 22 -16 7
-46 30 -68 53 -22 22 -65 56 -95 77 -30 20 -68 48 -85 62 -16 14 -33 26 -37
26 -10 0 -98 93 -98 103 0 4 13 33 29 65 48 97 64 158 58 224 -7 80 -40 130
-102 153 -58 23 -108 10 -166 -42 l-40 -36 5 124 c6 154 32 395 47 430 11 28
76 86 100 90 8 1 22 -1 32 -6 35 -15 267 33 267 56 0 13 34 11 103 -7 73 -19
87 -10 94 60 3 25 9 46 14 46 4 0 11 20 14 43 7 47 30 59 41 23z m-201 -53
c12 -11 25 -28 28 -37 6 -14 0 -15 -36 -10 -49 8 -59 19 -45 50 13 27 23 27
53 -3z m-304 -766 c18 -12 40 -35 49 -49 25 -46 4 -56 -125 -59 -60 -1 -111 1
-112 4 -9 22 2 43 43 82 54 53 91 58 145 22z m-284 -73 c24 -14 43 -30 41 -35
-4 -13 -177 -89 -203 -89 -39 0 -48 13 -36 58 24 88 111 117 198 66z m1495
-300 c29 -15 68 -60 68 -78 0 -14 -193 -39 -227 -30 -31 9 -30 44 3 83 41 49
92 57 156 25z m327 -39 c55 -63 53 -123 -5 -117 -57 6 -204 55 -204 68 0 16
55 58 95 72 56 19 81 14 114 -23z"/>
<path d="M1330 2154 c0 -15 45 -97 56 -101 8 -3 12 -8 9 -13 -2 -4 37 4 87 17
81 21 100 22 163 13 83 -12 147 -30 204 -59 22 -12 41 -19 41 -16 0 18 -37 85
-47 85 -6 0 -13 5 -15 10 -2 6 -44 22 -93 35 -98 27 -182 31 -281 14 -52 -9
-68 -8 -94 4 -16 9 -30 14 -30 11z"/>
<path d="M2838 2143 c-22 -11 -40 -12 -94 -2 -90 16 -223 6 -303 -22 -68 -23
-131 -77 -131 -112 0 -16 5 -15 48 7 55 28 141 51 222 60 42 5 76 1 143 -18
48 -13 85 -21 82 -16 -3 4 1 10 9 13 12 5 61 96 54 101 -2 1 -15 -4 -30 -11z"/>
<path d="M1967 1624 c17 -46 178 -62 241 -24 39 24 44 44 6 30 -33 -13 -195
-13 -228 0 -20 7 -24 6 -19 -6z"/>
<path d="M2531 1556 c-22 -27 -112 -57 -213 -72 -57 -8 -129 -23 -161 -34 -58
-19 -60 -19 -115 0 -32 10 -104 26 -162 34 -73 11 -123 25 -165 46 -58 29 -59
29 -30 5 73 -62 205 -119 300 -130 28 -3 65 -8 83 -11 28 -4 119 5 217 22 49
8 187 79 230 117 22 20 37 36 34 37 -4 0 -12 -6 -18 -14z"/>
<path d="M1880 1381 c19 -10 46 -21 60 -25 14 -3 1 5 -29 19 -62 29 -83 33
-31 6z"/>
<path d="M2320 1390 c-8 -5 -10 -10 -5 -10 6 0 17 5 25 10 8 5 11 10 5 10 -5
0 -17 -5 -25 -10z"/>
<path d="M2270 1370 c-8 -5 -10 -10 -5 -10 6 0 17 5 25 10 8 5 11 10 5 10 -5
0 -17 -5 -25 -10z"/>
</g>
</svg>
