<?xml version="1.0" standalone="no"?>
<!DOCTYPE svg PUBLIC "-//W3C//DTD SVG 20010904//EN"
 "http://www.w3.org/TR/2001/REC-SVG-20010904/DTD/svg10.dtd">
<svg version="1.0" xmlns="http://www.w3.org/2000/svg"
 width="420.000000pt" height="420.000000pt" viewBox="0 0 420.000000 420.000000"
 preserveAspectRatio="xMidYMid meet">
<metadata>
Created by potrace 1.14, written by Peter Selinger 2001-2017
</metadata>
<g transform="translate(0.000000,420.000000) scale(0.100000,-0.100000)"
fill="#000000" stroke="none">
<path d="M1750 4194 c-8 -1 -55 -8 -105 -14 -49 -7 -117 -19 -150 -26 -33 -8
-70 -17 -83 -20 -129 -27 -411 -154 -552 -249 -424 -284 -714 -710 -816 -1195
-37 -177 -39 -210 -39 -590 0 -357 3 -410 30 -560 7 -35 18 -80 42 -160 116
-402 361 -755 693 -1001 246 -181 498 -291 810 -350 104 -20 152 -23 485 -25
380 -2 476 4 640 42 601 139 1078 531 1335 1099 35 76 98 269 114 349 15 69
19 94 36 221 4 33 8 211 7 395 0 270 -3 357 -17 450 -36 234 -90 402 -191 601
-43 83 -169 284 -188 299 -3 3 -28 32 -56 65 -169 202 -380 365 -625 483 -123
59 -305 125 -378 137 -20 4 -50 11 -67 15 -16 5 -50 11 -75 14 -25 3 -66 9
-92 14 -42 8 -718 14 -758 6z"/>
</g>
</svg>
