<?xml version="1.0" standalone="no"?>
<!DOCTYPE svg PUBLIC "-//W3C//DTD SVG 20010904//EN"
 "http://www.w3.org/TR/2001/REC-SVG-20010904/DTD/svg10.dtd">
<svg version="1.0" xmlns="http://www.w3.org/2000/svg"
 width="500.000000pt" height="500.000000pt" viewBox="0 0 500.000000 500.000000"
 preserveAspectRatio="xMidYMid meet">
<metadata>
Created by potrace 1.11, written by Peter Selinger 2001-2013
</metadata>
<g transform="translate(0.000000,500.000000) scale(0.100000,-0.100000)"
fill="#000000" stroke="none">
<path d="M0 2500 l0 -2500 2500 0 2500 0 0 2500 0 2500 -2500 0 -2500 0 0
-2500z m1294 1465 c51 -115 97 -219 102 -230 6 -13 10 63 12 213 l2 232 213 0
212 0 194 -443 c248 -565 472 -1071 475 -1075 2 -1 33 64 69 145 36 82 97 218
136 303 38 85 162 360 274 610 l205 455 201 3 201 2 2 -257 3 -258 64 145 c35
80 83 186 106 236 24 50 46 101 50 113 6 21 9 21 208 19 l202 -3 3 -1382 2
-1383 -160 0 -160 0 0 1059 c0 675 4 1106 11 1186 10 120 7 171 -6 109 -20
-94 -78 -243 -194 -504 l-131 -294 0 -778 0 -778 -160 0 -160 0 -2 414 -3 413
-184 -414 -183 -414 -81 3 -81 3 -115 258 c-63 141 -117 257 -120 257 -6 0
-26 -43 -126 -270 -26 -58 -62 -138 -80 -177 l-34 -73 -78 0 -79 0 -183 412
c-101 227 -188 417 -192 422 -5 6 -9 -178 -9 -412 l0 -422 -155 0 -155 0 0
779 0 779 -41 89 c-185 399 -279 640 -279 712 0 11 -5 23 -11 27 -9 5 -10 -1
-4 -22 4 -16 10 -554 12 -1196 l4 -1168 -160 0 -161 0 0 1378 c0 758 3 1382 7
1386 4 3 101 5 215 4 l209 -3 93 -210z m2936 -2980 l0 -155 -1730 0 -1730 0 0
155 0 155 1730 0 1730 0 0 -155z"/>
<path d="M1718 3397 l4 -402 90 -205 c49 -113 137 -312 195 -444 58 -131 120
-279 138 -330 18 -50 37 -90 41 -89 5 1 25 47 46 103 21 56 54 139 73 185 l36
83 -272 609 c-291 652 -298 668 -332 803 l-22 90 3 -403z"/>
<path d="M3280 3770 c0 -54 -90 -277 -343 -846 l-276 -622 53 -123 c29 -68 63
-154 76 -192 12 -37 26 -67 31 -67 4 0 13 17 20 38 25 79 111 286 204 492 54
118 126 279 161 358 l64 142 0 243 c0 217 11 458 25 560 3 22 1 37 -5 37 -5 0
-10 -9 -10 -20z"/>
</g>
</svg>
