<?xml version="1.0" standalone="no"?>
<!DOCTYPE svg PUBLIC "-//W3C//DTD SVG 20010904//EN"
 "http://www.w3.org/TR/2001/REC-SVG-20010904/DTD/svg10.dtd">
<svg version="1.0" xmlns="http://www.w3.org/2000/svg"
 width="400.000000pt" height="400.000000pt" viewBox="0 0 400.000000 400.000000"
 preserveAspectRatio="xMidYMid meet">
<metadata>
Created by potrace 1.11, written by Peter Selinger 2001-2013
</metadata>
<g transform="translate(0.000000,400.000000) scale(0.100000,-0.100000)"
fill="#000000" stroke="none">
<path d="M0 2000 l0 -2000 2000 0 2000 0 0 2000 0 2000 -2000 0 -2000 0 0
-2000z m2350 1503 c190 -108 353 -203 363 -211 16 -14 17 -48 17 -437 l0 -423
118 -66 c64 -36 233 -130 374 -208 l258 -143 0 -431 0 -431 -357 -204 c-196
-112 -362 -205 -369 -207 -7 -2 -102 47 -211 109 -583 330 -596 338 -590 321
2 -7 -39 -52 -48 -52 -5 0 -321 -191 -465 -281 -25 -15 -76 -46 -114 -69 l-68
-40 -44 21 c-24 12 -40 27 -37 32 3 6 1 7 -5 4 -14 -9 -123 54 -115 66 3 6 1
7 -4 4 -11 -7 -51 15 -273 143 -63 37 -139 80 -168 95 -28 15 -52 32 -52 37 0
4 -3 7 -7 6 -5 -1 -18 3 -30 10 l-22 12 -1 425 -1 424 53 27 c29 15 64 34 78
44 14 9 66 39 115 65 91 49 136 73 234 129 30 17 81 46 115 64 34 18 72 41 86
50 14 9 28 15 33 14 4 -1 7 3 7 8 0 6 7 10 15 10 13 0 15 55 15 434 l0 433
363 210 c199 116 369 209 377 206 8 -2 170 -92 360 -200z"/>
<path d="M527 1159 c7 -7 15 -10 18 -7 3 3 -2 9 -12 12 -14 6 -15 5 -6 -5z"/>
<path d="M927 929 c7 -7 15 -10 18 -7 3 3 -2 9 -12 12 -14 6 -15 5 -6 -5z"/>
</g>
</svg>
