<?xml version="1.0" standalone="no"?>
<!DOCTYPE svg PUBLIC "-//W3C//DTD SVG 20010904//EN"
 "http://www.w3.org/TR/2001/REC-SVG-20010904/DTD/svg10.dtd">
<svg version="1.0" xmlns="http://www.w3.org/2000/svg"
 width="453.000000pt" height="453.000000pt" viewBox="0 0 453.000000 453.000000"
 preserveAspectRatio="xMidYMid meet">
<metadata>
Created by potrace 1.11, written by Peter Selinger 2001-2013
</metadata>
<g transform="translate(0.000000,453.000000) scale(0.100000,-0.100000)"
fill="#000000" stroke="none">
<path d="M2096 4019 c-169 -19 -271 -41 -384 -81 -169 -59 -285 -130 -398
-242 -141 -141 -209 -277 -254 -506 -34 -175 -16 -464 38 -595 51 -124 144
-261 223 -329 61 -53 162 -117 254 -161 160 -76 275 -111 635 -190 398 -87
533 -137 603 -221 96 -114 80 -332 -31 -424 -53 -44 -146 -88 -227 -106 -142
-32 -441 -25 -640 16 -235 47 -554 163 -772 280 l-73 39 0 -389 c0 -215 1
-390 3 -390 2 0 37 -12 78 -26 239 -84 533 -157 744 -184 50 -6 104 -13 120
-15 159 -23 641 -23 705 -1 8 3 35 7 60 10 77 7 201 36 295 68 228 77 395 199
510 373 29 44 56 91 60 105 4 14 11 30 15 35 20 29 63 179 75 265 32 220 24
415 -26 584 -82 275 -274 455 -623 581 -85 31 -209 67 -266 79 -14 3 -124 26
-245 51 -121 25 -240 49 -265 55 -324 68 -445 157 -442 325 2 76 6 94 30 141
35 68 106 121 202 153 19 6 38 11 42 12 4 0 22 4 38 9 44 13 179 24 285 24
299 0 625 -74 984 -223 40 -17 75 -31 77 -31 2 0 4 168 4 373 l0 374 -37 11
c-83 24 -326 76 -453 97 -19 3 -42 8 -50 10 -8 2 -42 7 -75 11 -33 3 -62 8
-65 9 -3 2 -43 6 -89 10 -46 4 -93 9 -105 11 -38 9 -490 12 -560 3z"/>
</g>
</svg>
