<?xml version="1.0" standalone="no"?>
<!DOCTYPE svg PUBLIC "-//W3C//DTD SVG 20010904//EN"
 "http://www.w3.org/TR/2001/REC-SVG-20010904/DTD/svg10.dtd">
<svg version="1.0" xmlns="http://www.w3.org/2000/svg"
 width="3000.000000pt" height="3000.000000pt" viewBox="0 0 3000.000000 3000.000000"
 preserveAspectRatio="xMidYMid meet">
<metadata>
Created by potrace 1.11, written by Peter Selinger 2001-2013
</metadata>
<g transform="translate(0.000000,3000.000000) scale(0.100000,-0.100000)"
fill="#000000" stroke="none">
<path d="M24695 27790 c3 -5 10 -10 16 -10 5 0 9 5 9 10 0 6 -7 10 -16 10 -8
0 -12 -4 -9 -10z"/>
<path d="M24590 27705 c-19 -19 -42 -37 -52 -41 -10 -3 -18 -14 -18 -25 0 -10
-6 -19 -12 -19 -17 0 -68 -44 -68 -59 0 -8 -8 -10 -19 -6 -14 4 -31 -9 -67
-50 -27 -30 -54 -55 -61 -55 -7 0 -13 -4 -13 -9 0 -11 -55 -71 -67 -71 -15 -1
-60 -44 -78 -77 -10 -17 -28 -36 -39 -41 -12 -5 -37 -23 -56 -40 -19 -17 -50
-43 -67 -57 -18 -15 -33 -33 -33 -41 0 -7 -8 -18 -18 -23 -10 -5 -31 -28 -47
-50 -15 -23 -34 -41 -41 -41 -8 0 -25 -17 -39 -39 -14 -21 -37 -43 -50 -49
-13 -6 -32 -23 -41 -37 -25 -39 -71 -85 -83 -85 -6 0 -11 -4 -11 -9 0 -6 -26
-37 -58 -69 -32 -33 -64 -73 -71 -90 -12 -29 -145 -162 -162 -162 -5 0 -9 -6
-9 -14 0 -28 -53 -76 -84 -76 -16 0 -45 -4 -65 -10 -20 -5 -52 -12 -72 -15
-81 -12 -119 -85 -124 -238 -2 -76 -3 -80 -39 -114 -20 -20 -48 -56 -62 -79
-14 -24 -33 -46 -43 -49 -10 -3 -24 -18 -32 -33 -7 -15 -22 -36 -32 -47 -51
-57 -70 -83 -87 -120 -10 -22 -41 -60 -69 -84 -29 -26 -58 -63 -70 -90 -20
-47 -55 -91 -71 -91 -6 0 -10 -6 -10 -14 0 -8 -8 -17 -18 -20 -10 -4 -26 -22
-35 -41 -9 -19 -21 -35 -27 -35 -5 0 -10 -8 -10 -19 0 -10 -9 -21 -20 -24 -11
-3 -23 -13 -26 -24 -3 -10 -10 -27 -17 -38 -6 -11 -17 -32 -24 -47 -8 -15 -36
-46 -64 -69 -33 -27 -52 -52 -56 -72 -3 -17 -14 -32 -24 -34 -10 -3 -28 -24
-39 -47 -12 -22 -32 -50 -44 -61 -28 -26 -56 -70 -56 -88 0 -8 -9 -17 -19 -20
-11 -3 -22 -17 -26 -35 -3 -16 -15 -38 -25 -47 -10 -9 -16 -23 -14 -30 3 -7
-4 -15 -16 -18 -12 -3 -19 -10 -16 -16 4 -6 -7 -17 -23 -26 -17 -8 -34 -21
-38 -28 -4 -7 -43 -21 -86 -32 -82 -20 -111 -41 -124 -93 -3 -14 -11 -36 -18
-49 -8 -14 -10 -50 -7 -97 4 -64 1 -79 -17 -109 -12 -19 -32 -42 -45 -51 -13
-8 -27 -29 -31 -46 -4 -17 -13 -34 -21 -37 -8 -3 -14 -16 -14 -29 0 -16 -8
-28 -25 -36 -13 -6 -28 -23 -34 -37 -5 -14 -28 -46 -51 -71 -23 -25 -51 -61
-61 -80 -11 -19 -33 -53 -50 -75 -16 -22 -35 -52 -40 -67 -6 -16 -15 -28 -20
-28 -5 0 -9 -5 -9 -11 0 -18 -62 -109 -75 -109 -6 0 -17 -16 -25 -35 -7 -19
-26 -47 -42 -61 -15 -15 -35 -49 -43 -75 -9 -27 -27 -57 -39 -67 -13 -10 -31
-32 -39 -49 -9 -17 -20 -33 -24 -35 -12 -5 -53 -66 -53 -79 0 -6 -10 -25 -22
-42 -13 -18 -21 -34 -18 -36 3 -2 -4 -9 -15 -15 -27 -15 -44 -38 -45 -57 0 -9
-16 -29 -36 -44 -19 -15 -33 -32 -31 -38 5 -14 -23 -67 -35 -67 -4 0 -14 -16
-22 -35 -13 -30 -20 -35 -48 -35 -39 0 -106 -29 -130 -56 -20 -22 -50 -89 -53
-119 -1 -11 -3 -56 -4 -101 -1 -65 -5 -85 -21 -104 -11 -13 -20 -30 -20 -39 0
-9 -18 -33 -39 -54 -24 -24 -37 -45 -34 -55 2 -11 -7 -26 -26 -40 -19 -14 -32
-34 -37 -57 -3 -20 -12 -35 -20 -35 -8 0 -17 -13 -20 -30 -4 -16 -11 -30 -15
-30 -5 0 -17 -16 -26 -35 -9 -19 -20 -35 -25 -35 -4 0 -8 -11 -8 -25 0 -14 -4
-25 -10 -25 -5 0 -10 -8 -10 -18 0 -10 -9 -25 -20 -35 -11 -9 -20 -22 -20 -29
-1 -7 -15 -22 -32 -33 -20 -12 -35 -31 -39 -50 -3 -16 -16 -47 -28 -67 -13
-21 -20 -42 -17 -47 4 -5 0 -13 -8 -18 -20 -11 -72 -84 -81 -114 -4 -13 -11
-29 -16 -35 -5 -6 -20 -32 -34 -58 -14 -26 -34 -56 -45 -68 -11 -12 -23 -31
-26 -42 -18 -62 -86 -183 -111 -199 -7 -4 -16 -26 -19 -47 -4 -22 -10 -40 -15
-40 -5 0 -9 -7 -9 -17 0 -9 -11 -31 -25 -49 -14 -18 -25 -37 -25 -41 0 -5 -8
-18 -17 -29 -10 -10 -29 -36 -43 -56 -22 -34 -29 -38 -68 -38 -33 0 -48 -6
-63 -22 -10 -13 -18 -28 -19 -34 0 -6 -9 -23 -21 -37 -27 -35 -31 -55 -33
-162 -1 -61 -6 -101 -18 -125 -9 -19 -20 -51 -23 -70 -4 -19 -17 -48 -29 -65
-11 -16 -19 -38 -18 -47 2 -10 -2 -18 -7 -18 -20 0 -46 -36 -59 -80 -15 -53
-32 -90 -49 -108 -7 -7 -13 -18 -13 -23 0 -11 -15 -31 -42 -57 -10 -9 -20 -35
-24 -59 -3 -24 -12 -50 -19 -57 -8 -7 -25 -42 -40 -77 -14 -35 -30 -72 -36
-82 -5 -10 -7 -22 -4 -27 3 -5 0 -12 -7 -17 -18 -11 -38 -49 -38 -72 0 -10 -7
-24 -15 -31 -8 -7 -15 -21 -15 -31 0 -10 -18 -46 -39 -81 -22 -35 -43 -81 -47
-103 -4 -22 -10 -42 -14 -45 -13 -10 -60 -123 -60 -145 0 -28 -55 -105 -75
-105 -8 0 -21 13 -29 29 -15 28 -293 299 -406 396 -103 88 -241 175 -278 175
-24 0 -30 -14 -38 -85 -7 -57 6 -93 55 -147 l24 -27 -22 -93 c-28 -116 -41
-232 -31 -267 11 -41 46 -105 75 -139 45 -54 114 -51 265 13 46 19 67 22 117
18 54 -5 67 -2 108 21 49 27 75 33 75 17 0 -5 24 -42 54 -82 84 -117 83 -113
35 -149 -23 -16 -58 -32 -78 -35 -71 -11 -120 -44 -148 -99 -66 -133 -95 -149
-258 -148 -181 1 -203 -9 -345 -153 -76 -77 -103 -194 -85 -375 6 -67 15 -109
45 -230 5 -19 14 -72 21 -118 7 -51 19 -92 30 -107 19 -23 45 -128 35 -143 -2
-4 5 -46 16 -92 16 -69 18 -102 13 -175 -7 -89 -13 -202 -14 -281 -1 -30 -14
-61 -51 -123 -27 -45 -53 -94 -56 -109 -3 -15 -12 -45 -20 -67 -11 -29 -13
-69 -10 -150 8 -177 14 -220 35 -256 11 -19 25 -54 31 -79 7 -25 27 -79 46
-120 26 -56 44 -81 72 -99 40 -26 93 -43 132 -43 185 4 192 3 211 -14 31 -28
24 -65 -22 -109 -45 -45 -84 -113 -94 -167 -8 -41 14 -151 44 -219 24 -56 86
-114 162 -150 49 -24 67 -40 97 -87 20 -32 56 -73 79 -92 24 -21 50 -55 63
-85 26 -58 70 -104 120 -123 20 -8 91 -16 161 -19 121 -5 128 -4 160 18 55 40
69 52 147 122 41 37 79 67 83 67 25 0 73 164 84 282 6 57 11 71 32 88 32 25
38 25 63 -2 12 -13 29 -32 40 -43 10 -11 22 -32 25 -47 4 -14 15 -34 26 -44
24 -21 24 -37 0 -106 -18 -52 -21 -114 -7 -137 4 -5 -5 -22 -18 -36 -14 -15
-22 -33 -19 -41 3 -8 -1 -14 -11 -14 -26 0 -32 -54 -11 -104 6 -13 4 -21 -3
-24 -7 -2 -12 -12 -12 -22 0 -10 -4 -21 -9 -24 -7 -5 -22 -58 -25 -91 -1 -5
-9 -22 -20 -38 -10 -15 -20 -48 -21 -75 -1 -26 -7 -57 -13 -67 -15 -28 -35
-133 -27 -145 3 -5 -1 -10 -11 -10 -13 0 -16 -7 -11 -36 4 -25 1 -40 -11 -52
-41 -43 -44 -49 -30 -72 11 -18 11 -22 -4 -31 -10 -6 -18 -15 -18 -21 0 -6 -7
-20 -16 -30 -13 -14 -14 -21 -5 -32 10 -11 9 -19 -1 -35 -7 -12 -16 -21 -20
-21 -5 0 -8 -11 -8 -25 0 -14 -7 -28 -15 -31 -8 -4 -15 -11 -15 -18 0 -6 -9
-20 -21 -29 -11 -10 -18 -21 -14 -25 3 -4 11 1 16 11 13 23 29 12 29 -19 0
-17 -8 -27 -24 -34 -13 -4 -26 -20 -30 -33 -3 -14 -19 -38 -34 -54 -16 -15
-32 -39 -35 -53 -4 -14 -20 -39 -36 -56 -22 -24 -28 -37 -23 -59 4 -25 2 -27
-17 -22 -17 4 -21 1 -21 -19 0 -14 -7 -27 -15 -30 -8 -4 -15 -12 -15 -18 0
-26 -26 -66 -42 -66 -10 0 -18 -7 -18 -15 0 -8 -9 -24 -20 -35 -11 -11 -20
-27 -20 -35 0 -9 -6 -18 -14 -21 -8 -3 -18 -18 -21 -34 -3 -16 -13 -34 -21
-41 -8 -6 -14 -17 -14 -24 0 -8 -10 -22 -23 -32 -13 -10 -32 -42 -42 -70 -10
-29 -24 -53 -31 -53 -7 0 -26 -11 -42 -25 -22 -18 -28 -31 -24 -50 3 -17 0
-25 -9 -25 -20 -1 -129 -104 -129 -122 0 -9 -8 -18 -19 -21 -11 -3 -23 -21
-32 -51 -7 -25 -17 -46 -21 -46 -11 0 -48 -38 -48 -48 0 -5 -11 -18 -25 -30
-14 -12 -25 -26 -25 -32 0 -27 -66 -111 -122 -155 -46 -36 -62 -55 -60 -70 3
-16 1 -17 -7 -5 -9 13 -11 13 -11 -2 0 -11 -8 -18 -19 -18 -21 0 -71 -43 -71
-62 0 -8 -14 -22 -31 -32 -17 -10 -28 -20 -25 -24 7 -6 -70 -42 -90 -42 -8 0
-14 -4 -14 -10 0 -5 -6 -10 -14 -10 -16 0 -116 -95 -131 -125 -12 -24 -52 -28
-46 -5 25 102 25 101 -4 200 -27 96 -35 214 -38 625 -3 342 -6 407 -20 447
-10 25 -15 52 -12 60 3 8 -5 23 -18 35 -14 11 -33 35 -43 52 -10 17 -30 35
-44 40 -15 5 -32 22 -39 39 -8 18 -28 39 -49 50 -21 10 -53 27 -72 37 -19 10
-44 23 -55 28 -11 6 -87 14 -170 18 -118 7 -167 5 -230 -7 -80 -15 -232 -70
-291 -105 -33 -20 -221 -101 -292 -126 -40 -14 -46 -14 -100 5 -31 12 -77 24
-102 27 -67 10 -179 34 -228 51 -23 8 -62 14 -85 14 -23 0 -82 10 -130 22 -86
22 -89 23 -146 88 -83 94 -85 98 -72 189 13 84 27 136 64 232 54 142 62 179
61 301 0 109 -2 119 -27 157 -51 77 -139 101 -393 106 -105 2 -142 6 -188 24
-31 11 -68 21 -82 21 -14 0 -49 7 -77 16 -52 15 -64 27 -181 169 -13 17 -43
53 -67 80 -23 28 -51 69 -61 92 -22 49 -64 92 -127 130 l-45 26 -210 -2 c-519
-4 -764 -1 -792 9 -15 6 -38 9 -49 6 -12 -3 -58 -1 -104 4 -84 9 -132 5 -261
-27 -36 -9 -74 -22 -85 -28 -11 -7 -40 -16 -65 -20 -25 -4 -67 -13 -95 -20
-62 -17 -132 -14 -165 6 -40 25 -204 25 -261 1 -24 -11 -50 -26 -57 -35 -7 -8
-27 -21 -45 -28 -78 -32 -125 -104 -141 -216 -7 -50 -37 -111 -69 -141 -12
-11 -50 -40 -84 -64 -110 -77 -209 -156 -236 -188 -26 -30 -35 -48 -73 -140
-10 -25 -26 -56 -36 -69 -12 -15 -18 -41 -18 -75 0 -28 -7 -108 -15 -177 -12
-107 -18 -135 -46 -185 -17 -32 -45 -86 -61 -119 -16 -33 -44 -89 -63 -125
-53 -104 -75 -189 -81 -319 -3 -73 0 -135 7 -166 17 -72 75 -203 107 -240 15
-18 37 -50 50 -71 13 -22 44 -61 70 -89 55 -59 82 -105 82 -142 0 -14 18 -59
40 -99 49 -89 50 -101 9 -102 -26 -1 -30 3 -26 18 6 25 -13 40 -38 29 -28 -11
-35 -11 -35 1 0 6 7 10 15 10 8 0 15 6 15 13 0 16 -64 80 -72 71 -12 -11 -48
7 -48 24 -1 28 -25 53 -38 40 -9 -9 -15 -9 -24 0 -9 9 -9 15 0 24 9 9 6 17
-13 34 -13 12 -34 25 -45 29 -12 4 -19 12 -17 18 5 14 -30 67 -44 67 -5 0 -9
-8 -7 -17 4 -23 -31 -19 -49 5 -15 19 -17 52 -3 52 6 0 10 -9 10 -19 0 -25 18
-37 33 -22 8 8 5 16 -11 31 -12 12 -22 25 -22 31 0 11 -49 33 -67 30 -8 -1
-10 4 -7 14 4 10 0 15 -12 15 -11 0 -32 19 -49 45 -16 25 -37 44 -45 42 -10
-1 -16 8 -18 31 -3 27 -7 32 -21 27 -21 -6 -34 16 -25 40 4 9 -11 31 -39 58
-32 30 -47 53 -52 80 -4 21 -13 41 -20 44 -7 2 -16 16 -20 30 -6 25 -6 25 -27
7 -20 -19 -20 -19 -17 11 3 25 0 31 -18 33 -19 3 -21 8 -16 38 3 21 2 34 -5
34 -24 0 -63 21 -57 30 5 8 11 8 19 1 23 -19 26 1 5 31 -17 23 -24 26 -35 17
-8 -7 -14 -7 -14 -1 0 5 -8 9 -17 8 -12 -1 -18 6 -18 19 0 15 6 19 25 17 l24
-3 -29 31 c-16 16 -34 29 -39 29 -27 -3 -47 2 -41 10 3 6 -9 26 -26 45 -20 23
-29 42 -25 54 3 10 -1 27 -9 38 -8 10 -15 14 -15 7 0 -31 -17 -8 -33 47 -10
34 -24 60 -31 60 -8 0 -16 16 -19 38 -4 20 -16 45 -27 55 -13 11 -19 25 -15
36 8 27 -4 50 -36 67 -19 10 -29 22 -29 38 0 13 -19 43 -45 72 -24 27 -43 54
-40 61 2 6 -3 14 -10 17 -8 3 -12 12 -9 20 3 9 -3 17 -15 21 -24 7 -43 38 -47
77 -5 36 -32 78 -51 78 -10 0 -13 6 -9 16 4 11 -5 26 -28 46 -23 19 -32 35
-29 47 3 10 0 22 -6 25 -6 4 -11 16 -11 27 0 10 -6 19 -14 19 -15 0 -46 52
-46 77 0 8 -5 11 -12 7 -8 -5 -9 -2 -5 9 3 9 1 20 -6 24 -17 11 -37 49 -37 72
0 10 -8 29 -17 42 -27 37 -43 67 -43 83 0 7 -9 25 -21 40 -11 14 -25 42 -30
61 -5 19 -16 40 -23 47 -7 8 -18 30 -25 50 -12 36 -40 56 -61 43 -5 -3 -10 0
-10 7 0 7 -12 1 -25 -15 -13 -15 -22 -34 -19 -42 4 -8 2 -15 -4 -15 -14 0 -32
48 -42 111 -11 70 -27 160 -52 284 -11 55 -24 149 -29 209 -4 59 -13 130 -18
157 -13 60 -6 83 23 74 11 -4 37 -10 56 -14 34 -7 80 -28 90 -40 3 -3 19 -13
35 -21 21 -10 40 -35 62 -80 35 -72 105 -157 140 -171 12 -4 51 -9 87 -11 60
-2 67 0 127 41 60 39 67 42 112 36 26 -4 66 -16 89 -27 50 -24 139 -53 189
-62 27 -5 53 0 95 17 206 84 243 77 350 -66 48 -64 114 -123 158 -142 16 -7
39 -28 50 -47 55 -90 70 -109 104 -130 33 -20 50 -23 146 -23 l109 0 61 67
c51 57 125 118 141 118 3 0 27 14 54 31 67 41 98 49 219 55 113 6 184 -9 218
-47 45 -50 100 -54 123 -10 6 11 11 53 11 94 0 70 -3 79 -61 195 -83 168 -114
190 -279 199 -120 6 -152 13 -280 63 -25 10 -63 25 -85 33 -22 9 -80 18 -130
21 -80 6 -117 13 -240 45 -87 23 -160 74 -181 127 -18 48 -15 57 41 123 59 71
68 100 63 198 -4 73 -1 94 18 142 16 38 24 76 24 120 0 63 -1 65 -42 104 -81
75 -105 86 -173 77 -105 -13 -191 -93 -169 -156 4 -10 26 -39 49 -64 43 -45
71 -108 66 -145 -1 -11 -11 -39 -21 -62 -16 -36 -28 -47 -76 -69 -81 -37 -153
-43 -197 -15 -19 11 -39 21 -45 21 -26 0 -147 142 -158 187 -4 14 -13 38 -20
52 -8 14 -14 33 -14 42 0 8 -5 20 -10 25 -17 17 -30 175 -29 345 l1 157 35 78
c63 141 83 203 83 258 0 109 51 259 107 314 12 12 26 34 29 49 14 53 -76 93
-139 62 -12 -6 -52 -43 -89 -82 -37 -40 -67 -67 -68 -62 0 6 15 35 34 65 41
65 186 352 186 368 0 6 13 26 28 44 15 18 35 45 45 60 21 33 171 162 217 186
19 10 44 23 55 29 11 5 51 25 88 44 92 46 133 81 157 136 27 61 25 81 -10 161
-31 66 -31 69 -31 234 0 92 3 178 6 192 3 14 7 38 10 52 3 14 24 45 47 70 32
35 47 44 74 44 18 0 36 -4 39 -10 3 -5 15 -10 26 -10 11 0 32 -12 47 -27 19
-19 36 -27 60 -26 40 1 68 24 94 80 28 60 81 118 101 110 9 -3 21 -25 28 -47
17 -57 -1 -215 -42 -375 -25 -97 -31 -143 -32 -240 -2 -131 6 -164 62 -269 17
-31 31 -61 31 -67 0 -6 6 -17 14 -25 8 -7 23 -24 33 -37 10 -13 38 -33 63 -45
45 -22 46 -22 100 -5 48 16 58 24 80 65 33 62 74 93 140 108 75 17 82 21 103
63 16 32 17 42 7 73 -10 29 -10 45 0 75 15 44 8 113 -13 137 -8 9 -18 28 -22
42 -4 14 -18 36 -30 50 -29 31 -105 178 -105 203 0 10 -5 28 -12 40 -6 12 -16
65 -23 118 -14 117 3 264 35 309 11 15 24 38 29 52 17 44 122 200 186 275 57
67 115 119 167 149 10 6 29 21 41 32 12 12 45 30 72 42 28 11 68 29 90 40 22
10 69 31 105 46 36 15 80 40 98 55 18 16 39 29 47 29 33 0 81 100 127 269 23
84 23 84 73 110 54 28 150 97 177 127 9 11 29 46 44 78 21 47 25 68 22 113 -5
53 -4 56 26 74 60 37 132 53 361 79 39 4 106 12 150 18 259 36 571 51 760 37
110 -9 172 -16 205 -25 19 -6 62 -10 95 -10 33 0 78 -7 100 -15 22 -8 55 -14
74 -15 35 0 46 -3 161 -40 88 -28 125 -39 190 -55 59 -14 130 -36 170 -53 90
-37 132 -53 135 -50 2 2 -1 25 -7 51 -8 38 -15 50 -36 59 -15 5 -40 16 -57 23
-16 8 -41 17 -55 21 -14 3 -44 15 -67 25 -23 11 -72 26 -108 34 -36 9 -82 24
-103 35 -21 11 -58 24 -82 29 -440 91 -797 126 -1100 110 -243 -13 -319 -19
-364 -28 -93 -21 -163 -33 -176 -30 -16 4 -202 -37 -235 -51 -30 -13 -143 -40
-168 -40 -12 0 -42 -11 -66 -25 -23 -14 -52 -25 -63 -25 -29 0 -99 -21 -123
-37 -11 -7 -32 -13 -48 -13 -15 0 -44 -8 -65 -19 -20 -10 -68 -28 -107 -41
-38 -13 -91 -33 -117 -46 -26 -13 -53 -24 -60 -24 -7 0 -24 -6 -38 -14 -136
-75 -255 -136 -287 -146 -21 -7 -49 -22 -63 -35 -14 -12 -60 -41 -103 -64
-157 -85 -448 -278 -581 -386 -34 -27 -81 -65 -106 -84 -25 -19 -58 -49 -73
-68 -16 -18 -53 -49 -83 -69 -83 -55 -335 -298 -483 -465 -220 -249 -243 -278
-356 -429 -11 -14 -43 -61 -71 -103 -29 -42 -61 -89 -73 -104 -33 -43 -89
-130 -139 -218 -25 -44 -51 -87 -58 -95 -16 -20 -152 -277 -160 -304 -4 -12
-25 -59 -49 -106 -23 -47 -45 -96 -49 -110 -5 -14 -23 -56 -41 -95 -19 -38
-43 -97 -54 -130 -10 -33 -38 -113 -61 -179 -23 -65 -43 -126 -45 -135 -2 -9
-13 -50 -24 -91 -62 -218 -95 -357 -112 -460 -37 -229 -62 -411 -65 -470 -1
-25 -5 -88 -9 -140 -8 -104 -9 -596 -2 -700 11 -154 37 -412 43 -421 3 -5 9
-44 14 -87 5 -42 14 -99 19 -127 5 -27 17 -88 25 -135 9 -47 30 -139 47 -205
17 -66 34 -138 39 -160 9 -41 31 -117 49 -170 19 -55 82 -250 91 -280 12 -43
29 -91 56 -158 13 -32 24 -64 24 -70 0 -7 18 -48 40 -92 22 -44 40 -89 40
-100 0 -18 27 -80 66 -157 8 -14 14 -36 14 -48 0 -12 7 -28 15 -37 12 -11 14
-26 9 -59 -6 -39 -4 -45 17 -52 16 -6 19 -11 10 -17 -9 -5 -10 -10 -3 -14 6
-3 12 -19 14 -33 2 -15 19 -41 37 -57 22 -20 31 -35 27 -46 -3 -9 0 -26 8 -36
8 -11 12 -28 9 -38 -2 -10 9 -40 25 -67 16 -27 32 -61 36 -76 4 -19 13 -28 26
-28 18 0 20 -7 20 -59 0 -50 3 -59 20 -64 12 -3 20 -14 20 -25 0 -12 5 -24 10
-27 6 -4 8 -10 5 -15 -3 -5 4 -15 16 -23 14 -10 20 -23 17 -42 -3 -31 -8 -34
-88 -60 -102 -33 -157 -64 -164 -93 -31 -126 -36 -196 -21 -299 6 -41 -8 -86
-40 -123 -7 -8 -20 -37 -29 -63 -9 -27 -23 -61 -31 -77 -8 -15 -12 -30 -8 -33
3 -4 -6 -20 -21 -37 -14 -17 -26 -42 -26 -56 0 -13 -4 -24 -9 -24 -15 0 -71
-108 -71 -136 0 -14 -11 -39 -25 -56 -14 -16 -25 -36 -25 -44 0 -8 -4 -14 -9
-14 -5 0 -12 -19 -16 -42 -4 -24 -12 -52 -19 -63 -7 -11 -18 -40 -26 -65 -8
-25 -19 -49 -26 -55 -14 -13 -54 -112 -54 -135 0 -9 -9 -25 -21 -36 -31 -28
-59 -90 -46 -103 8 -8 8 -11 0 -11 -6 0 -13 -14 -17 -31 -3 -17 -15 -43 -26
-59 -11 -15 -20 -36 -20 -45 0 -9 -11 -31 -25 -49 -14 -18 -25 -38 -25 -43 0
-6 -7 -16 -15 -23 -8 -7 -15 -23 -15 -36 0 -24 -43 -145 -61 -174 -5 -8 -12
-22 -15 -31 -4 -12 -23 -19 -65 -23 -52 -6 -64 -12 -114 -57 -30 -28 -55 -55
-55 -60 0 -6 -9 -22 -21 -38 -33 -45 -39 -92 -22 -189 15 -89 48 -152 79 -152
23 0 17 -52 -11 -90 -14 -19 -25 -42 -25 -51 0 -10 -4 -19 -8 -21 -12 -5 -52
-121 -52 -151 0 -14 -6 -38 -14 -54 -24 -48 -34 -76 -50 -133 -13 -49 -62
-192 -85 -245 -4 -11 -14 -38 -20 -60 -7 -22 -18 -53 -26 -70 -7 -16 -21 -57
-30 -90 -9 -33 -27 -83 -40 -111 -36 -77 -75 -199 -75 -234 0 -17 -8 -47 -19
-68 -10 -20 -21 -50 -25 -67 -4 -16 -25 -67 -47 -112 -22 -46 -43 -105 -46
-133 -3 -27 -9 -50 -13 -50 -4 0 -13 -21 -19 -46 -7 -25 -19 -57 -27 -70 -9
-13 -14 -30 -11 -38 3 -7 0 -19 -6 -25 -9 -9 -8 -14 3 -22 13 -8 12 -11 -4
-24 -10 -7 -16 -20 -14 -27 3 -7 -1 -18 -8 -25 -7 -7 -11 -24 -10 -38 2 -14 0
-25 -5 -25 -4 0 -9 -21 -11 -47 l-3 -47 -96 -2 c-98 -3 -179 -26 -179 -51 0
-6 -8 -18 -19 -25 -24 -17 -53 -74 -59 -118 -3 -19 -6 -82 -6 -140 0 -97 2
-109 29 -158 31 -57 63 -96 84 -103 10 -4 8 -13 -8 -39 -24 -40 -21 -34 -51
-125 -13 -38 -31 -80 -41 -92 -9 -13 -20 -38 -23 -57 -4 -20 -13 -48 -21 -63
-8 -15 -15 -40 -15 -54 0 -14 -3 -29 -7 -33 -8 -8 -13 -32 -14 -66 -1 -14 -16
-58 -35 -98 -19 -40 -34 -83 -34 -95 0 -12 -6 -31 -14 -42 -7 -11 -16 -33 -19
-50 -8 -46 -31 -120 -72 -230 -20 -55 -41 -116 -45 -135 -11 -46 -46 -152 -72
-215 -11 -27 -24 -70 -28 -95 -15 -81 -41 -174 -61 -217 -10 -24 -19 -50 -19
-58 0 -9 -7 -32 -15 -52 -9 -20 -25 -81 -36 -136 -11 -55 -28 -118 -38 -141
-10 -22 -25 -71 -35 -109 -10 -37 -22 -70 -27 -73 -5 -3 -9 -21 -9 -40 0 -28
5 -36 26 -44 34 -13 32 -14 49 22 9 18 23 47 33 63 9 17 22 55 29 85 6 30 19
78 28 105 9 28 23 73 32 100 9 28 20 55 24 61 5 6 12 33 15 60 3 27 14 68 25
91 10 24 19 49 19 56 0 7 9 30 20 52 11 22 20 49 20 60 0 11 6 29 14 40 7 11
16 37 19 58 3 21 13 52 22 70 9 17 18 49 21 70 2 22 16 58 29 82 14 23 25 49
25 59 0 9 4 24 9 34 5 9 35 85 66 167 31 83 63 164 71 180 7 17 23 57 34 89
11 33 27 70 34 82 8 11 18 39 22 60 4 21 21 68 39 104 17 36 34 81 37 100 3
20 27 84 52 143 25 59 46 115 46 123 0 8 7 28 15 44 15 29 19 30 83 30 68 1
83 6 140 49 33 25 84 121 97 179 4 19 7 70 7 114 1 68 -4 89 -28 141 -16 34
-37 68 -46 75 -22 16 -24 78 -5 107 7 11 22 43 32 70 10 28 21 55 25 60 4 6
10 29 14 51 3 23 13 54 21 70 8 16 15 37 15 46 0 9 5 20 10 23 6 3 10 15 10
26 0 10 4 19 9 19 5 0 12 19 16 42 4 23 11 49 16 58 4 8 18 50 30 93 12 43 26
80 31 83 4 3 8 18 8 33 0 15 7 36 15 47 8 10 15 26 15 34 0 9 9 33 20 55 11
22 20 49 20 61 0 12 11 46 25 76 14 29 28 70 31 91 4 20 11 40 15 43 5 3 9 13
9 23 0 10 8 40 19 67 10 27 26 74 36 104 10 30 23 61 28 68 6 7 14 38 18 68 4
29 21 82 38 117 17 35 31 72 31 83 0 11 8 35 19 54 10 19 23 51 29 70 73 239
96 302 116 315 11 7 62 19 111 26 50 7 95 16 100 21 62 49 78 65 90 95 8 20
15 45 15 57 0 12 5 27 11 33 14 14 15 124 1 149 -5 11 -12 35 -16 54 -4 21
-23 53 -50 82 -32 35 -45 58 -49 90 -3 25 -2 36 3 28 6 -10 10 -6 15 16 10 43
35 97 55 116 10 9 21 34 24 55 4 21 15 49 24 63 28 43 72 141 72 161 0 20 37
100 50 109 4 3 13 23 20 45 7 22 29 72 50 110 21 39 43 95 51 125 7 30 21 69
31 85 9 17 25 45 34 63 9 17 20 32 25 32 4 0 11 16 15 35 3 20 22 66 42 103
19 37 56 109 83 161 27 52 56 102 64 111 9 9 13 25 9 34 -3 9 -1 16 5 16 6 0
11 6 11 14 0 8 7 21 14 29 15 15 50 12 125 -12 29 -9 46 -7 104 14 38 13 70
25 72 27 15 16 54 124 60 166 8 62 24 64 43 6 10 -33 21 -45 57 -62 49 -24 55
-36 25 -52 -19 -10 -19 -11 1 -44 11 -19 31 -37 44 -40 13 -3 33 -22 45 -41
12 -19 26 -35 32 -35 13 0 47 -41 48 -57 0 -7 -7 -13 -15 -13 -25 0 -17 -15
15 -27 22 -8 30 -8 30 0 0 6 7 2 15 -10 8 -12 12 -29 9 -38 -4 -11 12 -34 55
-75 33 -33 64 -60 69 -60 19 0 82 -53 82 -69 0 -10 9 -21 20 -24 11 -3 24 -16
30 -29 10 -25 44 -68 54 -68 6 0 38 -24 71 -55 36 -33 83 -65 96 -65 19 0 71
-60 65 -76 -5 -13 18 -20 47 -15 5 1 11 -8 14 -19 4 -16 8 -18 19 -9 11 9 14
6 14 -19 0 -26 5 -33 34 -43 28 -10 33 -17 30 -35 -3 -16 5 -34 26 -56 16 -18
30 -27 30 -20 0 6 9 12 20 12 11 0 17 -5 15 -12 -3 -7 2 -31 9 -53 12 -34 18
-40 40 -37 18 2 38 -7 63 -27 39 -32 66 -41 57 -18 -3 8 2 20 11 27 15 12 19
11 36 -10 16 -22 23 -41 21 -61 -1 -3 17 -11 38 -18 22 -6 45 -19 52 -29 7 -9
25 -23 40 -31 22 -11 30 -12 43 -1 23 19 69 -13 56 -39 -9 -15 -6 -17 20 -13
16 2 29 0 29 -6 0 -17 71 -53 91 -47 13 4 36 -12 85 -60 36 -37 69 -64 72 -60
3 3 0 11 -6 17 -18 18 -14 38 7 38 11 0 22 -9 26 -20 3 -11 9 -19 13 -19 15 2
52 -14 52 -22 0 -5 7 -9 16 -9 13 0 14 -3 5 -13 -13 -16 -5 -27 20 -27 12 0
16 5 13 15 -4 8 -1 15 5 15 6 0 11 -8 11 -19 0 -13 10 -20 36 -24 20 -3 45
-13 54 -22 10 -9 38 -19 62 -22 24 -3 50 -11 58 -18 31 -26 105 -55 142 -55
27 0 41 -6 50 -20 8 -12 24 -20 40 -20 16 0 28 -5 28 -11 0 -7 15 -10 39 -7
21 2 43 -2 49 -9 17 -17 99 -28 116 -14 10 9 16 7 26 -4 9 -11 22 -14 43 -9
26 5 28 4 22 -15 -5 -16 -3 -20 9 -15 10 4 15 0 15 -13 1 -10 1 -25 2 -33 0
-8 -1 -57 -4 -108 -5 -87 -4 -94 19 -121 13 -16 24 -33 25 -37 2 -22 73 -67
124 -79 58 -13 85 -29 85 -51 0 -7 6 -19 13 -26 21 -24 38 -59 32 -68 -3 -5 6
-27 20 -47 14 -21 25 -47 25 -58 0 -30 40 -147 56 -166 8 -8 14 -22 14 -31 0
-8 9 -23 20 -33 11 -10 22 -37 26 -64 4 -25 11 -52 16 -58 20 -26 66 -121 73
-152 4 -18 23 -48 42 -66 23 -22 36 -44 38 -64 2 -28 36 -71 55 -71 5 0 11
-12 14 -27 14 -58 29 -82 57 -92 16 -6 34 -22 41 -38 7 -15 18 -32 25 -36 7
-4 13 -16 13 -26 0 -10 24 -39 53 -64 28 -25 62 -55 74 -67 11 -12 37 -26 57
-31 23 -6 36 -16 36 -27 0 -18 51 -52 78 -52 10 0 23 -9 30 -20 8 -13 23 -20
42 -20 16 0 64 -16 106 -35 43 -20 85 -33 95 -30 10 4 27 2 37 -4 38 -21 152
-38 200 -30 26 3 61 5 77 2 17 -3 66 2 109 10 46 9 88 12 100 7 66 -25 136
-40 190 -40 51 0 70 5 107 28 46 30 92 89 103 132 34 134 43 156 72 168 13 7
24 17 24 24 0 7 30 49 66 93 36 44 74 98 84 121 11 22 33 56 50 74 16 17 30
38 30 45 0 7 7 18 15 25 9 8 13 21 9 32 -4 14 3 27 25 45 25 21 28 28 18 44
-10 16 -6 23 26 51 21 19 37 43 37 55 0 19 11 45 71 165 5 10 9 24 9 32 0 7 7
19 15 26 14 11 45 102 51 148 1 13 9 34 18 47 9 13 16 29 16 35 0 6 7 18 15
26 8 9 16 30 16 47 1 37 2 41 13 82 15 56 37 119 45 130 14 18 33 79 37 120 2
22 8 41 14 43 5 2 10 25 10 51 0 51 12 67 93 121 20 14 37 29 37 33 0 5 18 6
39 2 33 -5 42 -3 60 16 12 13 21 29 21 37 0 7 8 12 18 11 9 -2 35 5 56 14 22
10 44 15 50 13 7 -3 6 -5 -1 -5 -7 -1 -13 -5 -13 -10 0 -15 32 -22 46 -10 7 6
22 8 33 4 14 -4 27 1 41 18 14 16 28 23 41 20 15 -4 18 -2 13 12 -6 14 -3 16
14 11 14 -5 23 -2 29 9 5 9 33 20 64 26 99 18 109 21 109 30 0 5 12 14 27 20
22 8 30 7 39 -5 6 -9 14 -13 17 -9 12 11 8 23 -8 23 -8 0 -15 4 -15 8 0 5 21
8 47 8 29 -1 48 4 50 12 3 6 10 12 16 12 6 0 18 7 28 16 12 11 23 13 35 6 10
-6 31 -6 55 1 32 8 39 14 39 33 0 28 17 31 35 8 9 -14 16 -14 33 -5 12 6 22
18 22 26 0 9 10 15 23 16 12 0 16 3 10 6 -22 8 -14 23 12 23 18 0 28 7 35 25
5 14 16 25 25 25 8 0 15 7 15 16 0 12 7 15 26 11 20 -3 28 1 37 20 6 13 16 22
24 19 7 -3 13 -2 13 3 0 5 16 16 35 25 19 9 35 23 35 31 0 9 10 15 24 15 19 0
23 4 19 21 -5 17 -2 19 18 14 19 -4 36 6 83 50 67 62 99 85 120 85 8 0 22 7
31 16 11 12 25 14 50 10 27 -5 34 -4 30 6 -7 18 55 88 78 88 9 0 17 7 17 15 0
8 7 15 15 15 8 0 15 6 15 13 0 16 58 77 74 77 15 0 50 37 59 63 4 9 12 17 19
17 16 1 68 81 68 104 0 10 5 14 10 11 6 -4 15 7 21 24 6 17 18 31 26 31 8 0
11 5 8 10 -3 6 0 10 9 10 8 0 16 -6 19 -12 2 -7 8 -10 12 -6 4 4 3 14 -4 21
-14 18 21 52 44 43 9 -3 14 -2 11 2 -5 8 16 33 68 81 14 13 26 29 26 36 0 7 7
15 15 19 8 3 15 15 15 26 0 11 5 20 10 20 6 0 10 9 10 21 0 11 20 44 45 72 45
52 53 67 35 67 -19 0 -10 19 11 22 11 2 28 16 37 33 9 16 25 36 35 45 10 8 19
26 21 40 1 14 6 26 11 27 4 0 12 8 17 17 5 9 18 16 30 16 14 0 18 5 14 16 -4
11 1 18 14 21 19 5 24 14 21 41 -1 6 5 12 13 12 10 0 13 6 10 15 -4 8 -3 23 1
33 6 16 7 16 18 1 10 -14 13 -10 13 23 1 21 8 46 16 56 9 9 21 34 29 55 7 20
19 37 27 37 7 0 10 5 7 10 -7 12 34 100 47 100 4 0 8 7 8 15 0 8 22 38 50 66
27 29 47 56 44 60 -6 11 11 44 48 91 24 30 27 41 19 57 -7 12 -7 22 -2 25 5 4
12 0 14 -6 3 -8 6 -6 6 4 2 39 36 90 69 104 25 10 33 19 29 31 -13 46 -12 48
11 46 27 -3 28 10 4 34 -23 22 -35 53 -22 53 19 0 50 40 50 64 0 14 11 37 25
52 14 15 25 30 25 35 0 4 5 20 12 36 6 15 10 32 9 37 -1 4 6 14 15 20 10 8 18
29 19 56 2 27 8 46 19 52 9 5 16 22 16 38 0 17 5 30 10 30 6 0 10 7 10 15 0 8
11 31 25 51 14 21 23 45 20 54 -3 11 1 20 10 24 15 5 22 36 8 36 -5 0 -14 4
-22 9 -12 8 -12 12 -2 25 7 8 13 31 14 50 1 20 6 36 10 36 5 0 7 6 4 13 -2 6
-1 19 4 28 5 9 11 36 14 60 3 24 10 57 15 74 11 36 35 140 60 255 33 153 41
194 47 240 3 25 9 50 14 56 5 6 11 60 14 120 3 60 12 163 20 229 8 66 17 181
19 256 2 79 10 153 17 174 12 32 12 38 -2 46 -17 9 -15 53 3 76 6 7 5 20 -2
33 -6 12 -9 26 -7 33 2 7 0 22 -4 35 -7 17 -5 28 7 39 9 9 11 18 6 22 -5 3
-13 35 -16 71 -4 36 -14 82 -23 103 -14 33 -14 39 -1 55 8 9 18 34 21 55 6 41
-15 126 -35 138 -9 6 -9 13 -1 31 17 36 10 122 -10 126 -21 4 -23 22 -2 22 22
0 18 38 -6 50 -15 9 -19 18 -15 35 4 14 1 25 -7 28 -16 6 -57 88 -57 113 0 11
-7 29 -15 42 -9 12 -15 27 -14 34 2 19 -12 58 -21 58 -4 0 -13 24 -20 53 -7
28 -22 68 -34 87 -13 19 -31 60 -40 90 -10 30 -31 84 -47 120 -47 109 -86 204
-94 230 -4 14 -18 38 -31 53 -13 16 -24 37 -24 47 0 15 -111 251 -141 300 -5
8 -23 43 -39 76 -17 34 -37 67 -45 74 -8 7 -15 21 -15 32 0 24 -19 60 -36 71
-7 4 -18 25 -24 46 -5 21 -21 55 -35 76 -14 20 -39 62 -56 93 -42 81 -69 125
-110 185 -20 28 -71 104 -113 167 -42 63 -87 130 -100 148 -20 27 -23 38 -16
64 5 17 7 34 4 39 -7 11 36 100 52 106 7 2 16 18 19 34 4 16 11 31 16 34 5 4
9 15 9 25 0 10 5 20 12 22 10 4 30 62 44 128 7 32 25 71 42 88 6 7 12 19 12
26 0 7 9 21 20 31 11 10 20 26 20 36 0 10 6 24 13 31 8 7 17 31 21 51 4 21 17
48 29 60 24 24 44 70 57 133 12 56 30 94 62 126 14 15 29 41 33 57 4 17 11 33
16 36 5 4 9 14 9 24 0 10 9 26 20 36 11 10 20 25 20 34 0 15 17 51 73 155 15
27 27 54 27 61 0 6 11 22 25 35 14 13 25 32 25 42 0 10 4 18 10 18 5 0 13 15
18 33 7 27 19 38 76 67 65 33 70 38 94 95 18 44 25 82 27 143 2 45 8 88 13 95
6 7 20 38 32 70 12 31 26 57 31 57 5 0 9 7 9 15 0 9 7 18 15 21 8 4 15 12 15
20 0 8 5 14 10 14 6 0 10 9 10 20 0 11 5 20 10 20 6 0 10 5 10 10 0 22 45 107
72 134 15 17 28 39 28 51 0 11 9 36 20 55 11 19 25 47 31 63 6 15 15 27 20 27
4 0 14 18 20 41 7 23 19 43 26 46 7 3 13 14 13 24 0 10 14 34 30 52 17 19 30
39 30 44 0 5 9 19 21 31 11 13 27 38 35 58 8 19 21 37 29 40 13 5 36 54 39 81
0 6 11 20 24 31 12 11 22 27 22 36 0 9 4 16 10 16 5 0 12 11 16 25 3 13 12 29
20 36 8 6 14 23 14 38 0 18 9 31 29 43 17 9 38 35 49 60 10 23 29 52 41 62 11
11 21 26 21 35 1 20 31 70 93 150 26 35 47 67 47 71 0 9 48 27 91 35 45 8 68
28 105 87 35 57 36 63 32 129 -3 38 -11 76 -18 84 -10 13 -10 19 4 33 9 10 16
24 16 30 0 7 7 12 15 12 17 0 40 38 36 63 -1 9 3 17 8 17 6 0 11 5 11 11 0 7
10 22 23 33 12 12 27 29 32 38 6 8 34 49 63 91 28 42 52 81 52 86 0 6 8 18 18
28 22 21 102 139 102 150 0 5 14 21 30 37 17 16 30 35 30 43 0 7 8 13 17 13
13 0 14 3 6 11 -12 12 11 64 43 100 8 8 14 20 14 25 0 6 12 19 28 31 15 11 34
33 42 49 8 16 19 35 24 43 6 7 11 20 13 29 1 9 7 18 12 20 6 2 11 10 11 18 0
8 9 14 20 14 18 0 40 32 44 65 3 19 29 65 38 65 4 0 8 6 8 13 0 7 19 35 43 62
23 26 60 69 82 94 22 25 51 67 64 94 21 44 25 47 61 47 21 0 51 5 65 10 32 12
105 71 105 85 0 6 9 28 21 49 15 29 20 57 20 109 0 56 5 79 25 116 14 25 34
53 45 63 10 9 19 21 19 27 0 6 19 32 43 59 24 26 49 64 57 83 8 19 36 59 62
90 26 30 48 63 48 72 0 9 9 26 20 37 11 11 20 23 20 27 0 3 22 32 48 62 26 31
59 80 73 108 13 29 29 53 36 53 6 0 15 9 18 20 3 11 15 25 26 30 10 6 19 20
19 31 0 12 12 25 33 35 20 10 39 31 51 57 11 23 30 50 42 60 13 10 35 41 49
70 31 61 71 119 90 130 21 11 75 93 75 112 0 8 7 18 15 21 8 3 17 14 20 25 4
10 14 19 23 19 15 1 62 60 62 79 0 4 18 25 40 46 22 21 40 43 40 48 0 21 35
39 90 47 32 5 65 12 72 16 32 19 78 72 83 96 4 15 11 30 16 33 5 4 9 41 9 84
0 72 2 80 30 111 16 18 33 43 36 54 4 12 21 35 38 53 17 17 45 48 61 68 17 20
36 43 42 50 7 8 18 24 23 37 23 49 49 82 157 194 18 19 35 45 39 59 3 13 15
27 26 30 10 4 23 18 28 31 5 13 14 24 19 24 5 0 12 11 15 25 4 14 13 25 21 25
8 0 21 13 29 29 9 16 30 41 47 56 18 14 39 39 48 55 15 27 106 133 163 190 15
15 28 33 30 41 2 8 31 42 66 77 34 35 62 67 62 71 0 4 21 31 48 59 101 109
121 133 124 150 2 9 11 16 20 16 20 -2 73 70 63 85 -10 17 -19 13 -55 -24z
m-14425 -14005 c3 -5 2 -10 -4 -10 -5 0 -13 5 -16 10 -3 6 -2 10 4 10 5 0 13
-4 16 -10z m9297 -585 c0 -5 -5 -11 -11 -13 -6 -2 -11 4 -11 13 0 9 5 15 11
13 6 -2 11 -8 11 -13z m-8882 -100 c0 -8 -4 -15 -9 -15 -5 0 -11 7 -15 15 -3
9 0 15 9 15 8 0 15 -7 15 -15z m57 -60 c9 -25 -4 -29 -17 -6 -7 15 -7 21 0 21
6 0 13 -7 17 -15z m80 -157 c-3 -8 -6 -5 -6 6 -1 11 2 17 5 13 3 -3 4 -12 1
-19z m573 -598 c0 -5 -7 -10 -15 -10 -8 0 -15 5 -15 10 0 6 7 10 15 10 8 0 15
-4 15 -10z m26 -28 c-22 -5 -30 3 -21 18 5 8 11 7 22 -2 15 -12 14 -13 -1 -16z
m164 -102 c0 -5 14 -25 30 -43 34 -39 36 -47 15 -47 -8 0 -26 20 -40 43 -28
48 -30 57 -15 57 6 0 10 -4 10 -10z m480 -420 c7 -14 7 -20 0 -20 -5 0 -10 4
-10 8 0 5 -12 13 -27 19 l-28 11 27 1 c18 1 31 -6 38 -19z m-1030 -60 c8 -5
11 -10 5 -10 -5 0 -17 5 -25 10 -8 5 -10 10 -5 10 6 0 17 -5 25 -10z m1634
-172 c61 -10 162 -55 184 -81 13 -15 28 -77 19 -77 -13 0 -77 34 -77 41 0 3
-11 7 -24 7 -22 0 -23 -2 -10 -15 32 -32 4 -54 -34 -26 -15 11 -48 26 -74 33
-34 10 -48 20 -50 34 -2 11 -12 25 -23 31 -59 30 -105 60 -105 67 0 9 100 2
194 -14z m184 -186 c2 -7 -3 -12 -12 -12 -9 0 -16 7 -16 16 0 17 22 14 28 -4z
m-1293 -142 c3 -5 1 -10 -4 -10 -6 0 -11 5 -11 10 0 6 2 10 4 10 3 0 8 -4 11
-10z m5805 -375 c0 -8 -7 -15 -15 -15 -8 0 -15 7 -15 15 0 8 7 15 15 15 8 0
15 -7 15 -15z m-815 -295 c3 -5 1 -10 -4 -10 -6 0 -11 5 -11 10 0 6 2 10 4 10
3 0 8 -4 11 -10z m-510 -167 c-9 -51 -26 -107 -35 -113 -4 -3 -10 -30 -14 -60
-4 -30 -11 -59 -16 -64 -6 -6 -10 -22 -10 -37 0 -14 -11 -38 -25 -53 -15 -16
-25 -39 -25 -57 0 -16 -7 -41 -16 -54 -9 -13 -13 -29 -9 -35 4 -6 -1 -22 -10
-36 -9 -14 -19 -44 -21 -67 -5 -43 -45 -107 -67 -107 -7 0 -4 -5 6 -11 24 -14
22 -23 -18 -65 -28 -29 -35 -45 -35 -76 0 -31 -4 -41 -20 -45 -11 -3 -20 -14
-20 -24 0 -10 -4 -21 -10 -24 -5 -3 -10 -15 -10 -26 0 -10 -4 -19 -10 -19 -5
0 -12 -16 -16 -35 -3 -19 -10 -35 -14 -35 -5 0 -11 -8 -14 -18 -3 -10 -22 -35
-41 -55 -19 -20 -35 -42 -35 -47 0 -6 -24 -39 -52 -74 -29 -34 -58 -71 -63
-81 -10 -16 -14 -16 -35 -4 -30 16 -221 17 -262 1 -51 -21 -108 -87 -108 -127
0 -7 -9 -20 -20 -30 -13 -12 -20 -33 -22 -69 -3 -44 -6 -51 -24 -52 -12 -1
-26 -4 -31 -7 -6 -4 -23 -2 -39 3 -16 5 -76 14 -133 20 -103 11 -127 19 -167
53 -12 10 -36 19 -53 19 -17 1 -31 5 -31 10 0 4 -5 8 -11 8 -7 0 -27 16 -46
35 -19 19 -40 35 -48 35 -8 0 -15 6 -15 13 0 7 -15 21 -34 29 -18 9 -47 35
-62 57 -16 22 -33 41 -39 41 -5 0 -27 26 -47 58 -41 64 -73 106 -104 136 -21
22 -64 99 -64 117 0 6 -8 23 -19 37 -10 15 -26 50 -35 77 -10 28 -23 59 -31
71 -7 11 -18 39 -25 62 -6 23 -20 46 -30 52 -13 7 -20 21 -20 38 0 15 -11 44
-25 64 -14 20 -25 42 -25 47 0 6 -4 11 -10 11 -5 0 -10 20 -10 45 0 49 -14 89
-42 121 -24 27 -34 88 -20 117 12 26 25 74 27 102 5 66 4 65 33 63 15 -1 34
-8 43 -15 14 -12 17 -12 22 2 9 22 26 18 37 -9 8 -22 13 -24 57 -20 26 2 54 7
61 9 8 3 22 -1 33 -8 19 -14 79 -11 79 4 0 4 16 5 35 2 24 -4 41 -1 53 9 9 9
32 18 51 22 27 5 39 2 58 -16 20 -19 26 -20 47 -9 17 10 29 10 44 2 25 -13 72
-15 72 -2 0 16 28 20 66 10 27 -8 43 -8 60 2 30 16 175 5 206 -15 32 -20 175
-19 183 2 4 10 13 12 33 7 15 -4 32 -8 37 -8 24 0 88 14 105 23 23 12 220 10
220 -2 0 -4 -5 -8 -11 -8 -5 0 -7 -5 -4 -10 9 -15 73 -9 80 8 3 9 15 11 40 6
24 -4 35 -2 35 5 0 7 4 10 9 7 5 -3 23 1 40 10 18 9 39 13 48 9 10 -3 32 2 50
12 32 17 33 17 47 -2 12 -16 17 -18 27 -7 10 9 10 12 1 12 -7 0 -12 5 -12 11
0 7 10 9 27 5 17 -5 29 -3 34 6 11 17 106 37 148 30 24 -4 32 -2 27 6 -5 8 2
12 19 12 24 0 26 -2 20 -37z m-2230 -33 c-3 -5 -11 -10 -16 -10 -6 0 -7 5 -4
10 3 6 11 10 16 10 6 0 7 -4 4 -10z m135 -10 c0 -5 -4 -10 -10 -10 -5 0 -10 5
-10 10 0 6 5 10 10 10 6 0 10 -4 10 -10z m1600 -10 c0 -5 -4 -10 -10 -10 -5 0
-10 5 -10 10 0 6 5 10 10 10 6 0 10 -4 10 -10z m-1450 -25 c0 -8 -4 -15 -10
-15 -5 0 -10 7 -10 15 0 8 5 15 10 15 6 0 10 -7 10 -15z"/>
<path d="M12580 11321 c0 -25 6 -27 13 -6 4 8 2 17 -3 20 -6 4 -10 -3 -10 -14z"/>
<path d="M6517 26257 c-25 -19 -68 -109 -61 -127 14 -31 -11 -182 -37 -229 -4
-9 -15 -38 -23 -66 -34 -113 -108 -309 -125 -332 -11 -13 -22 -37 -26 -52 -4
-21 -17 -33 -46 -47 -60 -26 -79 -83 -41 -117 49 -45 139 9 218 128 30 46 54
89 54 95 0 7 10 34 21 59 12 25 26 56 32 69 22 48 29 21 22 -85 -3 -60 -7
-169 -9 -243 -1 -74 -7 -156 -13 -183 -6 -26 -7 -49 -3 -52 4 -2 8 -74 9 -158
l2 -154 -26 -17 c-14 -9 -42 -16 -63 -16 -158 3 -304 -1 -326 -10 -36 -13 -63
-74 -44 -98 7 -10 13 -19 15 -21 3 -6 234 -32 336 -38 94 -5 97 -6 94 -28 -1
-13 -7 -29 -13 -36 -28 -37 -55 -189 -33 -189 10 0 7 -103 -3 -111 -5 -3 -13
-31 -20 -63 -9 -48 -9 -59 3 -67 8 -5 10 -9 6 -9 -4 0 -3 -9 3 -20 8 -16 8
-20 -4 -20 -12 0 -14 -14 -12 -67 2 -66 -7 -93 -33 -93 -6 0 -11 -15 -11 -32
-1 -18 -3 -66 -7 -105 -3 -46 -2 -73 5 -73 5 0 12 -7 16 -15 3 -8 0 -14 -7
-12 -7 1 -11 -4 -9 -11 1 -7 -5 -29 -15 -49 -12 -27 -14 -38 -5 -41 7 -2 12
-10 12 -18 0 -8 5 -14 10 -14 6 0 10 -4 10 -10 0 -5 -6 -10 -14 -10 -23 0 -27
-16 -13 -52 12 -29 11 -36 -6 -65 -23 -39 -20 -79 6 -75 25 4 21 -14 -5 -22
-13 -4 -43 -9 -68 -12 -61 -5 -88 -12 -135 -34 -22 -10 -52 -23 -67 -29 -64
-25 -20 -51 141 -85 69 -14 126 -28 128 -30 2 -2 -5 -29 -16 -60 -13 -38 -18
-74 -16 -114 2 -31 -1 -62 -7 -69 -8 -10 -16 -155 -20 -333 0 -8 2 -50 4 -93
3 -50 0 -83 -7 -95 -8 -11 -10 -35 -5 -70 4 -36 3 -58 -6 -70 -7 -10 -9 -21
-3 -28 5 -6 4 -26 -2 -49 -6 -21 -9 -69 -7 -106 2 -37 1 -66 -2 -64 -3 2 -6
-5 -6 -16 0 -10 4 -19 8 -19 7 0 1 -127 -7 -140 -2 -4 -1 -29 4 -56 4 -27 4
-61 0 -76 -5 -20 -3 -28 9 -33 13 -5 13 -7 -3 -19 -14 -10 -17 -22 -13 -52 3
-21 0 -59 -7 -84 l-11 -45 -67 -10 c-36 -5 -72 -16 -78 -22 -22 -22 5 -58 79
-107 69 -46 70 -46 62 -81 -4 -19 -4 -35 0 -35 4 0 7 -27 7 -60 -1 -33 -5 -60
-9 -60 -5 0 -6 -14 -3 -31 3 -17 1 -37 -6 -45 -8 -10 -8 -22 -1 -44 6 -16 7
-30 2 -30 -4 0 -6 -9 -3 -20 3 -11 0 -34 -7 -50 -9 -21 -9 -34 -2 -43 13 -15
-3 -154 -20 -174 -7 -9 -7 -13 0 -13 13 0 22 -48 9 -53 -5 -1 -11 -18 -13 -36
-4 -32 -3 -33 26 -28 35 7 39 -4 9 -24 -35 -24 -66 -228 -35 -229 6 0 3 -5 -6
-11 -10 -6 -18 -22 -18 -37 0 -15 -7 -40 -15 -56 -18 -35 -18 -36 0 -36 17 0
21 -26 4 -32 -8 -3 -6 -15 4 -41 12 -27 13 -37 4 -37 -7 0 -13 -16 -14 -35 -1
-19 -8 -48 -16 -64 -9 -19 -11 -33 -5 -39 5 -5 13 -25 17 -44 14 -59 0 -67
-129 -73 -62 -3 -115 -7 -118 -10 -11 -10 47 -66 94 -89 28 -14 55 -26 59 -26
5 0 26 -8 46 -17 36 -17 39 -21 39 -60 0 -24 -5 -43 -12 -46 -10 -3 -10 -7 -1
-17 9 -10 9 -17 0 -31 -9 -14 -9 -26 1 -51 10 -26 9 -35 -3 -48 -9 -10 -13
-24 -9 -35 4 -10 1 -20 -6 -25 -11 -7 -11 -14 -2 -35 10 -22 9 -31 -4 -54 -13
-22 -14 -34 -5 -66 6 -23 7 -43 2 -48 -5 -5 -5 -22 0 -40 12 -43 11 -50 -5
-44 -25 10 -28 -7 -4 -25 19 -14 20 -20 9 -27 -10 -7 -12 -21 -7 -58 5 -42 3
-54 -15 -76 -11 -15 -16 -27 -10 -27 6 0 11 -7 11 -15 0 -8 5 -15 11 -15 7 0
9 -11 6 -30 -4 -19 -2 -30 4 -30 7 0 8 -7 4 -17 -15 -41 -22 -107 -14 -141 8
-36 -6 -92 -23 -92 -4 0 -2 -12 5 -27 9 -21 9 -27 0 -30 -10 -4 -9 -11 2 -33
23 -44 19 -75 -10 -88 -27 -13 -36 -62 -11 -62 7 0 19 -7 26 -15 11 -13 10
-18 -3 -28 -21 -17 -33 -59 -14 -51 7 2 20 -2 27 -10 10 -13 9 -17 -4 -22 -12
-5 -14 -10 -6 -20 8 -9 8 -19 0 -34 -9 -17 -9 -33 0 -68 7 -28 8 -48 2 -50
-10 -3 -4 -50 8 -57 8 -5 -12 -113 -24 -134 -4 -6 -3 -17 2 -24 10 -13 31
-101 30 -132 0 -38 -7 -49 -23 -35 -12 10 -15 9 -15 -4 0 -9 11 -22 25 -28 30
-14 31 -22 5 -41 -21 -14 -21 -14 2 -20 21 -6 21 -7 4 -26 -10 -10 -16 -28
-15 -38 2 -10 0 -24 -5 -32 -5 -8 -4 -16 3 -20 7 -5 8 -17 2 -39 -8 -25 -7
-32 4 -32 11 0 12 -7 4 -32 -6 -18 -15 -41 -20 -51 -8 -14 -6 -22 7 -31 21
-16 12 -51 -11 -42 -20 7 -20 -28 1 -48 11 -11 12 -16 3 -16 -7 0 -4 -6 7 -14
18 -14 18 -15 2 -21 -10 -4 -16 -11 -13 -15 3 -4 5 -30 6 -56 1 -27 6 -55 12
-61 5 -7 6 -20 3 -29 -4 -9 -1 -23 5 -30 9 -11 8 -18 -1 -29 -6 -8 -9 -19 -5
-24 3 -6 -1 -23 -8 -38 -15 -29 -9 -64 13 -78 8 -5 7 -14 -5 -31 -18 -27 -29
-100 -18 -117 8 -13 9 -22 16 -128 2 -36 7 -71 11 -78 4 -6 2 -18 -4 -26 -7
-8 -8 -15 -3 -15 11 0 13 -15 12 -80 -1 -75 -3 -94 -17 -117 -13 -24 -10 -27
21 -23 13 1 17 -4 13 -22 -6 -34 -18 -62 -30 -70 -6 -4 -6 -19 1 -45 6 -21 11
-58 12 -82 0 -24 6 -50 11 -57 8 -8 8 -14 0 -19 -7 -5 -9 -20 -5 -41 3 -19 2
-34 -3 -34 -14 0 -8 -182 7 -208 7 -14 9 -28 4 -35 -5 -7 -10 -27 -12 -45 -2
-27 1 -35 19 -39 21 -6 21 -6 -7 -29 -27 -22 -27 -23 -5 -24 13 0 22 -6 22
-15 0 -8 -4 -15 -9 -15 -11 0 -1 -43 12 -51 5 -4 3 -15 -5 -28 -11 -19 -11
-23 5 -32 20 -11 23 -30 5 -27 -12 3 -16 -17 -18 -72 -1 -29 13 -85 22 -91 5
-3 2 -13 -7 -22 -9 -9 -14 -21 -11 -26 4 -5 -1 -16 -9 -24 -13 -14 -13 -19 1
-52 15 -36 11 -99 -7 -111 -5 -3 -2 -15 6 -27 21 -31 19 -40 -10 -35 -20 4
-23 3 -14 -8 6 -8 20 -14 30 -14 11 0 19 -5 19 -10 0 -13 -41 -30 -54 -22 -5
3 -6 -11 -2 -31 4 -20 2 -38 -3 -41 -6 -4 -5 -23 4 -51 8 -28 11 -70 8 -110
-2 -36 -1 -71 4 -78 5 -7 8 -23 7 -37 -1 -14 5 -61 13 -104 8 -44 12 -90 8
-103 -3 -13 -1 -23 5 -23 5 0 10 -4 10 -10 0 -5 -7 -10 -15 -10 -18 0 -18 -5
-4 -31 5 -11 14 -17 19 -14 16 10 23 -17 8 -32 -12 -11 -13 -24 -6 -58 6 -29
6 -50 -1 -64 -14 -26 -14 -31 4 -31 17 0 20 -25 5 -35 -16 -10 -12 -35 6 -35
8 0 12 -5 9 -10 -4 -6 -15 -8 -25 -5 -16 5 -18 1 -15 -27 11 -90 13 -137 6
-175 -7 -38 -6 -42 13 -45 11 -2 22 -12 24 -22 3 -15 0 -18 -18 -13 -17 4 -20
2 -14 -11 4 -9 6 -26 5 -37 -1 -11 -1 -37 -1 -57 0 -28 -3 -36 -13 -32 -8 3
-17 -1 -20 -9 -3 -8 -22 -18 -42 -21 -23 -5 -54 -23 -81 -48 -37 -34 -44 -46
-44 -79 0 -35 3 -40 36 -54 20 -8 48 -15 63 -15 48 0 71 -11 70 -34 0 -11 5
-43 11 -71 13 -60 21 -206 12 -220 -12 -18 -13 -55 -3 -90 5 -18 6 -36 3 -39
-3 -4 -5 -33 -5 -66 1 -47 -2 -60 -14 -60 -11 0 -14 -7 -11 -25 3 -13 0 -26
-6 -28 -8 -3 -8 -8 1 -18 7 -9 9 -28 3 -57 -4 -23 -4 -45 0 -47 4 -3 5 -25 3
-50 -4 -34 -2 -46 9 -50 16 -6 13 -50 -4 -72 -5 -7 -7 -16 -4 -22 3 -5 1 -11
-5 -13 -6 -2 -11 -15 -10 -28 0 -14 0 -53 0 -88 0 -35 5 -70 11 -77 9 -11 7
-23 -11 -55 -18 -31 -20 -43 -11 -52 17 -17 15 -36 -5 -41 -17 -4 -17 -5 -1
-6 14 -1 16 -8 12 -33 -9 -59 -27 -123 -37 -135 -5 -7 -6 -25 -2 -40 4 -16 9
-63 11 -106 2 -43 6 -82 9 -87 9 -15 -25 -27 -110 -39 -96 -14 -215 -48 -215
-61 0 -5 -16 -24 -35 -41 -30 -27 -35 -39 -35 -76 0 -54 12 -60 76 -38 45 15
143 28 224 29 31 1 35 -2 32 -23 -1 -13 3 -30 9 -37 6 -8 9 -29 6 -47 -2 -17
-2 -53 2 -79 5 -26 4 -51 -1 -56 -6 -6 -5 -17 3 -29 7 -13 9 -28 4 -39 -5 -11
-7 -23 -6 -27 1 -4 -5 -15 -14 -23 -8 -9 -15 -22 -15 -30 0 -21 20 -7 20 14 1
15 2 15 10 1 6 -11 4 -32 -8 -65 -18 -49 -16 -107 3 -108 12 -1 11 -11 -6 -53
-11 -28 -11 -34 5 -52 15 -17 16 -25 6 -55 -6 -19 -17 -40 -25 -46 -12 -10
-11 -18 5 -56 15 -33 17 -51 10 -69 -5 -14 -7 -38 -4 -54 5 -23 2 -32 -15 -43
-21 -13 -20 -13 7 -36 25 -21 25 -23 5 -17 -18 5 -23 2 -23 -14 0 -11 8 -25
18 -31 16 -9 16 -11 0 -20 -24 -15 -37 -73 -34 -157 2 -49 -1 -73 -8 -73 -6 0
-3 -7 7 -14 9 -7 17 -18 17 -25 0 -6 7 -11 15 -11 21 0 19 -13 -6 -28 -16 -11
-18 -16 -9 -28 10 -11 9 -19 -4 -39 -9 -13 -16 -33 -16 -45 0 -11 -6 -20 -14
-20 -14 0 -26 -29 -26 -67 0 -17 -9 -25 -40 -34 -22 -7 -45 -18 -51 -26 -6 -7
-17 -13 -23 -13 -7 0 -22 -10 -33 -22 -12 -13 -32 -32 -46 -44 -18 -15 -27
-35 -32 -73 -8 -59 2 -79 31 -63 20 10 69 16 116 13 25 -1 27 -3 21 -33 -3
-18 -11 -37 -17 -41 -7 -6 -5 -7 5 -4 23 8 36 -22 33 -78 -2 -27 2 -53 8 -56
6 -4 1 -16 -13 -30 -13 -13 -23 -30 -21 -37 3 -14 -21 -42 -37 -42 -16 0 -13
-17 4 -24 19 -7 19 -56 0 -82 -8 -10 -15 -30 -15 -44 0 -15 -6 -32 -12 -39
-11 -10 -10 -11 3 -6 10 4 20 1 24 -5 12 -19 -13 -37 -47 -33 -30 4 -31 3 -15
-10 24 -20 25 -142 1 -169 -14 -14 -14 -20 -4 -33 8 -9 10 -27 6 -50 -5 -23
-3 -35 4 -35 7 0 9 -8 5 -21 -4 -12 -8 -42 -10 -67 -1 -26 -8 -68 -14 -94 -14
-53 -2 -92 24 -82 11 5 13 2 9 -10 -3 -9 -12 -16 -20 -16 -8 0 -14 -9 -14 -19
0 -11 -4 -23 -10 -26 -6 -3 -10 -18 -10 -31 0 -19 8 -29 30 -37 17 -6 30 -16
29 -22 -2 -27 -18 -50 -35 -50 -15 0 -18 -6 -15 -30 7 -67 3 -175 -8 -189 -9
-11 -6 -15 16 -21 l27 -6 -35 -33 c-30 -27 -34 -35 -26 -54 8 -17 6 -26 -6
-40 -22 -24 -21 -34 3 -74 20 -34 26 -68 12 -68 -11 0 -2 -63 10 -71 5 -3 4
-18 -2 -34 -12 -31 -5 -98 13 -127 9 -13 8 -21 -1 -30 -6 -6 -12 -27 -12 -45
0 -31 1 -32 31 -26 25 5 31 3 27 -8 -3 -8 -18 -14 -33 -14 -16 -1 -30 -6 -33
-13 -2 -7 4 -12 13 -12 12 0 15 -6 10 -20 -5 -14 -2 -20 9 -20 21 0 21 -26 0
-34 -14 -5 -14 -9 -3 -22 10 -13 10 -17 -2 -25 -11 -7 -9 -9 9 -9 12 0 22 -3
22 -8 0 -11 -40 -33 -49 -27 -5 3 -7 -3 -4 -14 3 -10 0 -22 -5 -25 -17 -10 10
-56 29 -51 15 5 28 -18 29 -47 0 -14 -31 -8 -36 7 -13 32 -21 13 -21 -44 0
-54 3 -60 29 -75 29 -18 38 -46 15 -46 -7 0 -18 5 -25 12 -8 8 -12 9 -12 1 0
-23 12 -43 26 -43 13 0 20 -21 14 -45 -1 -5 -4 -48 -6 -95 -2 -47 -6 -101 -9
-121 -6 -45 20 -103 42 -94 13 4 14 0 8 -27 -11 -45 -6 -200 7 -216 8 -9 8
-16 0 -24 -24 -24 -7 -98 23 -98 7 0 17 9 20 20 4 11 11 18 16 15 12 -8 11
-48 -3 -82 -6 -15 -10 -34 -9 -40 1 -7 -3 -13 -9 -13 -17 0 -1 -90 23 -124 13
-18 21 -46 21 -75 1 -25 5 -52 9 -59 5 -7 5 -21 2 -32 -5 -14 0 -26 15 -38 22
-18 22 -19 5 -51 -12 -25 -14 -36 -5 -41 13 -8 3 -107 -11 -116 -5 -3 -7 -10
-3 -15 3 -5 10 -7 15 -4 15 10 42 -24 36 -45 -3 -10 0 -21 7 -24 7 -3 8 -7 1
-13 -12 -9 -14 -157 -3 -169 4 -4 3 -13 -3 -21 -9 -10 -7 -19 5 -38 18 -27 23
-140 6 -150 -15 -9 -12 -25 5 -25 9 0 12 -6 8 -17 -4 -11 -3 -14 5 -9 20 12
26 -22 9 -48 -9 -13 -13 -33 -10 -45 3 -11 1 -21 -5 -21 -9 0 -22 -50 -23 -92
0 -26 -17 -22 -22 4 l-4 23 -2 -22 c-1 -16 -6 -21 -17 -16 -8 3 -25 -3 -37
-15 -12 -11 -40 -22 -62 -25 -53 -7 -128 -29 -137 -41 -3 -5 -21 -10 -40 -11
-46 -3 -113 -30 -113 -47 0 -8 -12 -13 -30 -13 -17 0 -31 -4 -32 -9 -1 -5 -5
-12 -10 -15 -4 -3 -13 -15 -19 -25 -14 -25 -34 -32 -34 -12 0 9 -4 16 -10 16
-5 0 -10 -7 -10 -16 0 -13 -7 -15 -30 -11 -16 4 -32 2 -35 -2 -3 -5 -25 -9
-49 -9 -27 1 -54 -6 -72 -18 -53 -36 -149 -76 -188 -79 -16 -2 -31 -7 -35 -13
-3 -6 -23 -13 -44 -17 -21 -4 -41 -14 -44 -21 -3 -8 -9 -11 -14 -8 -5 3 -7 10
-4 15 10 15 -66 10 -107 -8 -21 -9 -38 -20 -38 -25 0 -4 -15 -8 -32 -8 -125 1
-190 -6 -201 -21 -7 -9 -19 -18 -27 -22 -12 -4 -11 -6 3 -6 25 -1 16 -25 -10
-29 -26 -4 -37 -56 -16 -74 7 -6 11 -13 8 -16 -3 -3 2 -14 12 -24 14 -16 14
-18 0 -18 -8 0 -18 6 -20 13 -3 6 -6 2 -6 -9 -1 -26 -67 -64 -111 -64 -16 0
-31 -4 -34 -9 -3 -4 -28 -11 -56 -14 -27 -3 -69 -15 -93 -25 -38 -17 -44 -25
-60 -74 -9 -30 -17 -66 -17 -79 1 -24 64 -267 71 -272 2 -2 48 -17 102 -34
106 -34 118 -33 222 12 49 21 182 65 197 65 8 0 29 11 48 25 19 14 47 25 66
25 17 0 37 7 44 15 7 8 27 15 45 15 18 0 49 11 69 25 20 14 43 25 50 25 6 0
21 7 32 15 10 8 36 15 56 15 20 0 40 5 43 10 3 6 15 10 26 10 10 0 38 9 62 19
23 11 53 23 67 26 14 4 34 16 46 26 20 18 79 35 159 46 22 3 47 11 55 18 31
27 117 58 170 63 30 2 62 10 70 17 8 7 31 16 50 19 38 8 77 24 100 42 22 17
99 24 126 12 27 -13 29 -20 12 -48 -9 -15 -10 -23 -2 -28 7 -5 9 -27 4 -67 -4
-33 -5 -66 -2 -73 2 -6 0 -12 -6 -12 -6 0 -8 -16 -5 -40 4 -29 1 -46 -10 -58
-17 -19 -18 -127 -1 -153 5 -8 9 -49 9 -91 0 -72 -1 -77 -19 -72 -15 5 -18 3
-13 -11 4 -9 7 -18 7 -20 0 -2 10 -1 21 2 20 6 21 3 14 -23 -12 -44 -12 -117
0 -136 5 -10 20 -18 32 -18 29 0 40 -20 20 -35 -10 -7 -17 -15 -17 -18 0 -13
44 -47 61 -47 9 0 22 -7 29 -15 8 -9 8 -15 2 -15 -20 0 -17 -35 6 -59 17 -19
22 -33 18 -52 -4 -19 0 -29 11 -33 14 -6 14 -8 -3 -20 -17 -13 -17 -17 -4 -41
15 -28 83 -69 103 -62 7 2 31 -11 55 -29 53 -40 92 -50 129 -32 20 10 27 20
26 36 -2 12 1 21 5 21 25 -4 32 4 30 39 0 20 4 47 10 60 30 57 31 61 22 67
-15 9 -12 51 5 65 13 11 12 15 -5 37 -26 33 -25 53 2 53 19 0 20 2 7 18 -8 9
-14 33 -13 52 1 19 4 90 7 158 2 68 9 128 15 134 8 8 6 18 -5 34 -8 13 -12 24
-8 24 4 0 3 6 -2 13 -12 16 -8 60 6 65 6 2 11 17 11 32 0 16 5 32 11 36 6 3 9
19 5 34 -3 16 -1 42 4 60 10 36 4 60 -16 60 -20 0 -17 13 7 38 15 17 19 30 14
52 -4 17 -11 30 -16 30 -5 0 -9 9 -9 20 0 11 6 20 14 20 11 0 12 8 3 41 -7 30
-7 47 1 60 9 14 8 20 -5 27 -10 6 -14 17 -10 31 3 11 1 21 -4 21 -14 0 -11 44
7 78 12 25 22 32 43 32 16 0 48 11 72 23 44 24 89 38 122 38 9 0 17 4 17 8 0
4 37 18 83 31 45 13 94 29 109 37 15 7 38 13 51 13 22 0 130 40 172 63 11 7
36 12 55 13 37 2 64 7 120 23 72 20 196 59 223 70 16 6 42 11 58 11 16 0 37 4
47 8 9 5 32 16 50 25 19 9 41 17 50 17 20 0 145 28 187 42 17 5 57 15 90 22
33 7 72 20 86 29 14 10 33 15 41 12 8 -3 39 3 69 14 30 12 64 21 77 21 21 0
102 28 144 51 10 5 26 9 37 9 23 0 31 -37 18 -87 -9 -36 -12 -235 -4 -303 6
-59 35 -128 58 -140 45 -25 62 -13 102 69 20 43 37 92 37 109 0 17 4 42 10 57
5 14 12 72 15 128 2 56 10 127 17 157 6 30 12 58 12 62 2 17 57 46 111 57 33
7 75 19 93 27 18 8 45 14 60 14 15 1 38 7 52 15 14 8 35 14 48 15 12 0 42 10
65 22 23 12 65 25 92 29 96 15 170 31 183 42 7 5 29 13 50 18 85 18 178 42
199 51 11 6 25 8 31 4 5 -3 34 8 63 24 43 24 66 30 116 30 34 0 65 5 68 10 3
6 17 10 31 10 43 0 94 27 94 49 0 12 7 21 15 21 8 0 15 6 15 13 0 11 22 20
125 55 51 17 127 33 133 27 11 -11 17 -232 8 -341 -8 -110 -8 -114 15 -143 13
-16 29 -30 35 -30 6 -1 32 -13 58 -27 43 -24 49 -25 89 -12 28 9 43 20 46 33
2 11 8 23 13 26 15 9 14 269 -1 297 -10 18 -50 215 -51 247 0 13 91 55 120 55
32 0 160 30 198 46 18 8 50 14 72 14 21 0 42 5 46 11 3 6 15 9 25 6 10 -3 22
-1 25 5 8 12 56 32 72 29 8 -1 19 2 25 7 13 10 101 33 114 30 5 0 21 4 38 11
16 7 37 10 47 8 9 -3 25 1 36 9 14 10 28 11 51 4 24 -7 31 -6 31 6 0 8 5 14
10 14 6 0 10 -4 10 -10 0 -5 7 -10 16 -10 13 0 14 3 5 13 -6 8 -8 17 -4 20 10
10 35 8 29 -2 -3 -5 1 -12 10 -15 24 -9 28 -7 15 8 -18 21 5 31 35 16 19 -11
32 -11 65 -1 30 9 44 9 54 1 8 -7 20 -8 27 -4 7 5 31 9 52 10 24 1 45 9 52 19
7 9 18 14 24 10 6 -4 18 1 25 11 8 11 15 15 16 9 3 -27 -4 -71 -16 -89 -17
-28 -29 -113 -16 -120 6 -4 8 -13 5 -20 -3 -7 2 -21 11 -30 13 -13 30 -15 88
-10 41 3 78 11 86 19 30 30 55 125 67 258 5 58 8 68 22 62 14 -5 15 -4 5 6
-19 19 -16 31 7 24 10 -3 30 1 43 10 13 8 31 13 40 10 8 -4 18 -2 22 4 3 6 21
11 40 11 19 0 36 4 40 9 3 6 25 13 50 17 34 5 49 13 63 36 17 26 20 27 32 13
11 -14 14 -14 25 2 10 14 16 15 27 5 12 -10 20 -7 42 13 21 19 36 24 61 22 20
-3 43 2 55 10 12 8 28 12 36 9 10 -4 13 -2 8 6 -5 8 0 9 16 5 30 -8 63 10 56
29 -5 12 1 14 30 8 27 -5 38 -2 48 11 10 13 27 18 69 18 32 0 57 4 57 8 0 5
12 9 26 9 14 0 35 6 47 13 12 6 51 13 87 13 78 2 190 27 205 46 23 30 74 57
114 60 24 2 41 8 41 16 0 6 5 12 10 12 6 0 10 -6 11 -12 0 -7 4 -4 9 7 7 15 9
16 9 4 1 -9 8 -23 17 -30 14 -11 15 -26 10 -85 -7 -76 4 -118 33 -129 106 -44
151 -46 151 -10 0 8 4 15 8 15 4 0 12 30 18 67 9 59 7 75 -13 137 -27 83 -27
80 -8 72 8 -3 15 -2 15 3 0 5 18 7 40 6 22 -1 40 2 40 6 0 5 9 9 20 9 11 0 20
-4 20 -10 0 -19 29 -10 32 11 3 18 19 31 80 61 10 4 31 8 47 8 17 0 34 6 38
13 4 7 25 21 46 32 20 11 35 25 33 31 -3 7 3 10 15 7 10 -3 19 -12 19 -19 0
-8 5 -14 10 -14 6 0 10 6 10 13 0 10 15 13 58 10 31 -2 63 -5 70 -8 21 -8 62
6 62 21 0 28 175 85 240 78 41 -4 51 1 68 40 10 23 17 27 39 23 28 -5 59 8 80
33 9 11 12 11 13 2 0 -8 15 -11 51 -8 27 2 53 7 56 10 4 3 14 6 22 6 13 0 16
-10 16 -43 0 -24 -5 -50 -11 -58 -19 -23 -24 -101 -11 -149 17 -61 24 -70 56
-70 16 0 34 -7 41 -15 27 -32 175 13 154 47 -3 4 2 16 11 25 10 9 15 26 12 40
-2 13 -1 26 4 28 8 6 4 143 -6 225 -5 37 -2 49 15 67 17 19 24 21 47 12 30
-11 123 -2 123 12 0 5 9 9 19 9 11 0 34 8 53 17 18 9 41 21 52 26 13 6 21 5
27 -5 8 -12 13 -4 10 15 0 4 12 7 27 7 16 0 39 10 52 22 14 13 35 24 48 25 26
2 72 29 72 41 0 5 13 7 29 4 16 -2 32 1 35 7 4 6 14 11 22 11 9 0 25 10 36 22
11 13 17 18 14 12 -9 -18 40 -23 70 -8 14 8 30 12 34 9 5 -3 30 0 57 5 26 6
60 12 76 12 20 1 27 6 27 21 0 18 5 19 45 14 38 -6 46 -4 55 13 9 17 18 19 60
15 45 -4 51 -2 66 20 9 14 22 25 29 25 16 0 35 -103 35 -191 0 -64 0 -65 44
-102 50 -42 62 -44 92 -19 51 43 66 103 47 184 -8 35 -21 90 -29 123 -15 66
-9 81 36 87 14 2 30 10 36 18 11 13 57 27 158 49 21 5 41 13 45 19 3 6 17 10
31 10 24 0 51 8 190 58 36 13 75 24 87 24 12 0 25 5 28 10 4 6 14 10 23 9 17
-2 35 3 82 23 69 30 218 78 242 78 15 0 43 8 63 17 19 9 37 15 39 12 2 -2 -1
-49 -9 -104 -14 -112 -12 -226 4 -268 6 -15 21 -32 33 -37 13 -6 30 -15 39
-21 24 -17 67 -3 100 34 26 27 29 37 23 67 -4 19 -8 112 -9 207 l-3 172 67 22
c36 12 70 25 75 30 6 5 25 9 43 9 18 0 59 14 90 30 31 17 63 28 71 25 8 -3 33
3 56 14 23 11 59 22 81 25 66 8 236 54 261 71 13 8 38 15 55 15 33 0 198 54
234 76 23 15 133 44 164 44 32 0 35 -23 12 -96 -37 -119 -30 -144 51 -158 29
-5 41 -2 62 16 31 27 62 110 70 193 13 116 7 112 266 176 25 6 50 14 55 19 11
8 85 25 98 21 5 -1 24 8 42 19 32 20 124 47 251 75 34 7 116 32 183 54 67 23
134 41 149 41 15 0 41 9 57 20 17 11 40 20 53 20 13 0 37 7 54 16 17 9 45 17
62 19 17 1 45 6 62 10 l30 7 0 -64 c0 -86 9 -115 44 -133 56 -29 104 14 100
90 -1 16 -2 58 -1 92 l1 62 58 17 c31 9 95 30 142 46 47 16 101 32 120 35 19
3 40 9 45 13 14 10 106 37 130 38 24 1 174 49 189 61 6 5 25 11 41 14 100 20
124 26 165 45 52 25 76 27 87 9 4 -6 6 -55 5 -107 -1 -52 2 -102 7 -110 10
-15 58 -18 101 -7 17 4 30 17 37 39 17 45 19 188 5 215 -17 30 -16 33 16 33
15 0 65 14 112 31 101 36 168 57 230 70 25 6 59 15 75 20 17 6 37 12 45 14 8
2 35 10 60 19 25 8 76 22 114 30 38 9 82 23 98 31 17 8 46 17 67 21 20 3 59
14 86 24 28 10 70 24 95 30 25 7 55 16 67 21 18 6 26 4 38 -14 8 -12 15 -27
15 -33 0 -37 40 -101 74 -119 l36 -20 22 22 c29 29 37 121 14 154 -27 40 -21
56 26 62 23 3 45 13 50 21 6 10 23 16 44 16 19 0 45 5 57 12 20 11 88 27 127
30 8 0 26 8 40 17 36 24 78 41 101 41 22 0 208 58 224 70 6 4 26 10 45 13 19
3 46 8 59 13 23 7 24 6 17 -35 -14 -89 21 -151 78 -137 26 6 49 63 61 151 8
65 15 75 56 85 19 4 50 14 69 21 19 6 51 17 70 24 19 7 62 19 95 28 33 8 74
20 90 26 17 6 64 20 105 32 41 11 109 32 150 45 41 13 137 40 213 59 76 19
146 39 155 44 9 5 37 13 62 19 25 6 53 14 63 17 22 9 23 -16 2 -49 -22 -34
-30 -110 -15 -147 7 -17 30 -41 51 -55 36 -22 40 -23 74 -8 21 8 46 24 58 35
11 10 28 19 37 19 9 0 58 42 110 92 52 51 112 107 133 125 21 18 54 51 73 75
20 24 52 53 72 65 41 25 71 60 72 82 0 8 9 34 21 58 11 23 18 51 15 61 -6 19
-85 75 -121 86 -21 6 -110 -36 -184 -88 -37 -26 -50 -29 -114 -29 -87 1 -249
50 -395 119 -51 24 -94 44 -96 44 -3 0 -12 -7 -20 -16 -24 -23 -19 -57 12 -86
34 -32 202 -128 223 -128 22 0 73 -41 62 -50 -4 -4 -39 -15 -78 -24 -189 -46
-207 -52 -375 -107 -30 -10 -79 -21 -108 -23 -29 -3 -71 -14 -93 -25 -25 -13
-58 -21 -90 -21 -35 0 -51 -4 -55 -15 -4 -10 -13 -13 -25 -10 -10 3 -26 2 -36
-4 -34 -18 -170 -52 -185 -46 -8 3 -21 -1 -28 -10 -7 -8 -23 -15 -36 -15 -14
0 -33 -5 -44 -12 -27 -17 -30 -9 -18 38 26 94 -24 102 -82 12 -22 -33 -40 -64
-40 -68 0 -4 -13 -10 -30 -13 -18 -4 -30 -13 -30 -22 0 -9 -9 -15 -25 -15 -14
0 -25 -4 -25 -9 0 -15 -39 -20 -50 -6 -8 9 -20 11 -40 5 -16 -4 -31 -5 -35 -2
-4 4 -11 -1 -16 -11 -6 -10 -22 -17 -39 -17 -16 0 -32 -5 -36 -11 -3 -6 -17
-8 -31 -5 -13 4 -29 3 -36 -1 -31 -19 -116 -42 -158 -43 -28 0 -51 -6 -59 -14
-6 -8 -26 -16 -43 -18 -18 -2 -31 -8 -30 -14 1 -6 -18 -10 -46 -11 -26 0 -62
-7 -79 -16 -19 -9 -34 -12 -38 -6 -7 12 -34 -8 -34 -25 0 -6 -15 -12 -34 -13
-27 -2 -37 3 -50 22 -9 14 -14 30 -10 36 3 6 3 21 0 35 -5 18 -13 24 -35 24
-34 0 -49 -15 -57 -61 -11 -56 -31 -82 -61 -74 -15 3 -29 2 -32 -4 -4 -6 -51
-13 -105 -15 -90 -5 -101 -8 -136 -36 -21 -16 -45 -30 -53 -30 -9 0 -19 -5
-22 -10 -4 -6 -14 -10 -23 -9 -10 1 -21 0 -27 -1 -23 -6 -90 -4 -96 3 -5 7
-81 -3 -174 -23 -27 -6 -60 -11 -73 -12 -13 0 -28 -8 -34 -17 -7 -11 -19 -16
-33 -13 -13 2 -26 -1 -29 -7 -4 -6 -24 -11 -46 -11 -23 0 -40 -5 -43 -14 -5
-12 -16 -13 -84 -7 -21 2 -27 60 -7 82 22 24 16 30 -21 20 -23 -6 -34 -17 -46
-51 -11 -28 -25 -47 -40 -53 -13 -5 -44 -19 -69 -30 -25 -12 -49 -20 -54 -19
-5 2 -17 -4 -26 -13 -18 -16 -84 -27 -164 -27 -22 0 -46 -6 -53 -14 -17 -17
-33 -18 -33 -2 0 6 -9 3 -21 -8 -11 -10 -37 -19 -56 -20 -21 0 -41 -8 -48 -17
-7 -9 -15 -14 -18 -10 -13 12 -57 12 -70 -1 -7 -7 -44 -16 -82 -20 -39 -4 -81
-14 -93 -22 -13 -9 -26 -13 -29 -10 -4 3 -13 0 -20 -6 -8 -7 -36 -14 -61 -16
-26 -2 -48 -8 -50 -12 -2 -5 -19 -12 -38 -16 -19 -3 -34 -10 -34 -15 0 -5 -11
-9 -24 -9 -18 0 -25 6 -28 22 -6 41 -35 32 -73 -21 -32 -44 -41 -51 -71 -51
-19 0 -34 -4 -34 -10 0 -5 -13 -10 -29 -10 -16 0 -42 -7 -57 -15 -16 -8 -46
-15 -66 -15 -21 0 -38 -5 -38 -11 0 -5 -4 -8 -9 -5 -4 3 -22 1 -39 -4 -20 -5
-34 -5 -38 1 -11 19 -129 -8 -189 -43 -16 -10 -42 -18 -57 -18 -15 0 -34 -8
-44 -17 -15 -16 -17 -16 -29 0 -15 21 -26 22 -18 2 4 -13 -1 -15 -34 -9 -32 5
-41 3 -46 -10 -4 -11 -19 -16 -42 -16 -29 0 -37 -5 -45 -25 -8 -22 -12 -24
-36 -15 -20 8 -32 7 -50 -5 -19 -12 -28 -13 -42 -4 -15 9 -23 7 -47 -15 -25
-23 -29 -24 -39 -10 -11 14 -16 13 -51 -7 -22 -13 -42 -27 -45 -31 -3 -4 -17
-9 -30 -10 -21 -3 -25 1 -25 24 0 31 -27 64 -44 54 -6 -4 -18 -21 -27 -39 -18
-34 -52 -66 -72 -67 -7 0 -25 -8 -39 -17 -19 -13 -28 -14 -31 -5 -3 9 -8 8
-19 -4 -9 -8 -22 -13 -30 -10 -7 3 -16 -1 -19 -9 -4 -9 -19 -15 -35 -15 -21 0
-29 -5 -29 -17 0 -16 -12 -18 -111 -17 -81 1 -112 -2 -116 -12 -3 -8 -16 -11
-39 -7 -22 4 -40 1 -52 -9 -30 -25 -76 -41 -126 -44 -27 -2 -53 -9 -57 -16 -4
-7 -20 -13 -36 -14 -15 -1 -30 -3 -33 -4 -3 -2 -9 -4 -15 -5 -16 -3 -48 -16
-67 -26 -10 -5 -18 -6 -18 -1 0 4 -12 8 -27 7 -16 0 -31 4 -34 8 -4 5 -22 2
-40 -8 -63 -33 -70 -36 -79 -30 -6 4 -10 -3 -10 -14 0 -12 -4 -21 -10 -21 -5
0 -10 7 -10 15 0 11 -9 8 -36 -10 -20 -14 -43 -25 -51 -25 -7 0 -21 -4 -31 -9
-52 -26 -71 -33 -81 -27 -6 4 -11 2 -11 -3 0 -6 -6 -11 -14 -11 -12 0 -13 6
-4 33 5 17 12 40 15 49 8 25 -34 42 -70 29 -20 -8 -37 -30 -60 -78 -21 -42
-39 -67 -47 -65 -13 3 -35 -5 -83 -30 -10 -5 -27 -6 -38 -3 -15 5 -22 1 -26
-14 -3 -12 -10 -21 -17 -22 -6 -1 -33 -2 -59 -3 -34 -1 -53 -7 -62 -19 -9 -12
-20 -17 -33 -13 -13 4 -22 1 -25 -9 -4 -8 -13 -12 -21 -9 -8 3 -19 -3 -26 -15
-13 -25 -23 -26 -44 -5 -14 14 -19 14 -46 -2 -21 -13 -33 -15 -41 -7 -12 12
-84 -1 -108 -20 -11 -9 -15 -9 -18 0 -4 10 -9 10 -26 0 -12 -7 -25 -16 -28
-20 -9 -12 -100 -57 -117 -57 -7 0 -25 -9 -39 -20 -14 -11 -34 -20 -44 -20 -9
0 -19 -5 -21 -12 -3 -7 -9 -8 -18 -3 -22 14 -50 13 -50 -1 0 -14 -38 -26 -46
-13 -8 14 -24 11 -24 -5 0 -9 -8 -12 -25 -8 -14 2 -25 0 -25 -4 0 -16 -61 -37
-72 -26 -14 14 -78 3 -107 -20 -13 -10 -32 -18 -42 -18 -11 0 -19 -5 -19 -11
0 -8 -5 -8 -15 1 -13 10 -15 9 -15 -9 0 -12 -6 -21 -16 -21 -8 0 -12 5 -9 10
3 6 1 10 -4 10 -6 0 -11 -4 -11 -9 0 -4 -11 -6 -24 -4 -20 4 -25 0 -28 -18 -2
-18 -9 -24 -28 -24 -40 -1 -68 -14 -75 -36 -7 -22 -21 -25 -28 -6 -4 10 -7 10
-18 0 -7 -7 -28 -13 -46 -13 -18 0 -33 -5 -33 -10 0 -6 -6 -10 -12 -9 -30 4
-59 -2 -54 -10 4 -6 -5 -6 -21 -2 -17 5 -43 3 -67 -6 -21 -7 -46 -13 -56 -13
-9 0 -31 -7 -49 -16 -17 -9 -38 -13 -46 -10 -22 8 -145 -51 -139 -68 7 -18
-44 -26 -100 -15 -29 5 -45 3 -56 -6 -8 -7 -34 -16 -57 -20 -40 -6 -43 -5 -49
20 -7 30 -78 80 -97 69 -31 -18 -59 -52 -81 -100 -29 -62 -45 -73 -128 -79
-35 -3 -64 -9 -66 -15 -2 -5 -12 -10 -23 -10 -11 0 -22 -7 -25 -15 -4 -8 -9
-13 -13 -11 -4 3 -25 0 -47 -5 -21 -6 -45 -11 -51 -11 -7 -1 -13 -6 -13 -11 0
-6 -3 -8 -6 -4 -4 3 -19 0 -35 -9 -16 -8 -32 -15 -36 -15 -16 -1 -16 -9 0 -9
9 0 17 -7 17 -15 0 -17 -16 -20 -25 -4 -4 6 -13 8 -20 5 -7 -2 -15 4 -18 15
-3 10 -11 17 -19 15 -7 -2 -25 -7 -39 -10 -15 -3 -29 -15 -32 -26 -7 -25 -27
-26 -27 -1 0 14 -5 18 -20 14 -11 -3 -20 -9 -20 -14 0 -5 -9 -9 -20 -9 -11 0
-20 -4 -20 -10 0 -5 -15 -10 -33 -10 -18 0 -43 -8 -57 -17 -14 -10 -43 -17
-73 -17 -45 0 -48 -1 -43 -22 6 -21 3 -22 -28 -18 -19 2 -37 0 -41 -6 -3 -5
-12 -7 -20 -3 -9 3 -22 0 -30 -7 -7 -6 -49 -13 -92 -15 -43 -1 -96 -10 -119
-19 -23 -10 -45 -16 -50 -15 -5 1 -22 -4 -39 -11 -36 -16 -32 -15 -70 -24 -49
-13 -94 -36 -104 -54 -6 -9 -11 -13 -11 -8 0 5 -7 3 -15 -4 -13 -11 -15 -8
-15 14 0 15 9 45 20 66 l20 40 -20 20 c-34 34 -72 2 -110 -92 -14 -34 -30 -57
-39 -58 -9 -1 -34 -2 -56 -3 -22 -1 -46 -8 -53 -15 -7 -6 -21 -12 -31 -12 -10
0 -50 -16 -90 -35 -39 -19 -79 -35 -88 -35 -40 0 -152 -47 -160 -67 -7 -18
-23 -16 -23 3 0 8 -4 13 -10 9 -5 -3 -7 -12 -3 -20 3 -9 -1 -15 -10 -15 -8 0
-18 7 -21 16 -5 12 -14 15 -39 10 -30 -6 -119 -14 -213 -19 -22 -1 -47 -7 -55
-13 -8 -6 -24 -15 -36 -18 -13 -4 -30 -15 -40 -24 -12 -12 -32 -17 -72 -16
-35 1 -59 -3 -66 -11 -5 -8 -32 -15 -60 -17 -33 -2 -54 -9 -63 -20 -8 -11 -26
-18 -47 -18 -32 0 -51 -11 -90 -48 -16 -15 -61 -16 -70 -2 -4 6 5 31 20 55 31
54 22 85 -24 85 -31 0 -45 -12 -56 -50 -4 -14 -12 -31 -18 -39 -6 -7 -18 -34
-27 -59 -11 -32 -22 -46 -35 -47 -63 -5 -95 -17 -95 -34 0 -26 -36 -33 -69
-13 -31 17 -66 10 -57 -13 3 -8 1 -17 -4 -20 -6 -4 -10 0 -10 8 0 8 -7 21 -16
28 -15 12 -16 11 -10 -9 5 -15 3 -22 -6 -23 -7 0 -4 -4 7 -9 16 -7 17 -9 3 -9
-9 -1 -26 10 -36 24 -12 15 -23 21 -27 15 -3 -5 -14 -10 -25 -10 -10 0 -20 -7
-23 -14 -3 -8 -25 -20 -49 -26 -24 -6 -47 -17 -53 -24 -20 -24 -125 -44 -125
-24 0 12 -17 10 -32 -4 -7 -7 -38 -15 -68 -17 -30 -2 -64 -8 -75 -14 -17 -9
-83 -14 -214 -17 -18 -1 -40 -8 -48 -16 -8 -8 -26 -14 -39 -14 -14 0 -22 -4
-19 -10 3 -6 1 -10 -4 -10 -6 0 -11 5 -11 11 0 8 -15 9 -47 5 -75 -11 -115
-26 -109 -41 8 -23 -33 -30 -49 -8 -8 10 -15 13 -15 7 0 -13 -50 -14 -50 -1 0
17 -25 5 -56 -27 -24 -24 -40 -33 -63 -32 -17 1 -31 3 -31 6 0 11 -100 -3
-111 -16 -6 -8 -24 -14 -39 -14 -15 0 -33 -7 -40 -15 -9 -11 -15 -13 -20 -5
-5 8 -17 6 -41 -8 -19 -10 -52 -22 -74 -25 -84 -14 -100 -18 -103 -28 -2 -5
-9 -9 -17 -9 -7 0 -18 -7 -25 -15 -7 -9 -21 -13 -31 -10 -11 4 -19 2 -19 -4 0
-17 -27 -13 -34 4 -7 18 -26 20 -26 3 0 -9 -16 -13 -46 -14 -26 -1 -49 -7 -54
-14 -4 -7 -15 -10 -24 -7 -11 4 -18 -1 -22 -18 -7 -27 -23 -32 -42 -13 -10 10
-15 10 -22 -2 -6 -9 -21 -14 -43 -12 -19 2 -38 -1 -41 -6 -6 -10 -55 -4 -72 9
-6 5 -19 -3 -33 -22 -21 -28 -24 -29 -40 -15 -25 23 -58 20 -108 -9 -23 -14
-43 -22 -43 -17 0 5 -11 7 -23 5 -16 -3 -29 -16 -37 -38 -12 -29 -16 -32 -37
-24 -18 7 -23 5 -23 -8 0 -9 -3 -14 -6 -10 -4 3 -19 0 -35 -9 -29 -15 -46 -15
-42 -1 4 11 -25 8 -32 -3 -4 -6 -16 -8 -28 -5 -17 5 -19 4 -7 -4 12 -9 12 -11
-3 -17 -9 -3 -24 -1 -32 6 -11 10 -18 9 -30 -4 -20 -19 -27 -20 -43 -4 -9 9
-17 9 -36 -1 -13 -8 -29 -10 -35 -7 -6 4 -11 2 -11 -4 0 -7 -7 -10 -15 -6 -8
3 -19 -3 -24 -13 -12 -22 -79 -35 -98 -20 -19 16 -58 3 -71 -23 -37 -73 -64
-97 -98 -90 -19 3 -25 1 -20 -7 5 -7 -2 -11 -19 -11 -14 0 -28 -6 -31 -14 -3
-9 -19 -14 -41 -13 -23 1 -40 -5 -48 -16 -7 -9 -19 -17 -27 -17 -9 0 -27 -10
-42 -21 -25 -19 -44 -24 -126 -32 -14 -1 -31 -12 -38 -25 -10 -18 -17 -20 -31
-12 -15 8 -20 5 -24 -11 -4 -16 -11 -18 -31 -13 -20 5 -26 2 -26 -10 0 -9 -6
-16 -12 -15 -7 1 -26 -3 -43 -10 -16 -7 -41 -15 -55 -17 -32 -6 -80 -27 -80
-35 0 -4 -9 -9 -20 -12 -11 -3 -20 -1 -20 4 0 19 -28 8 -45 -17 -16 -25 -25
-27 -69 -8 -15 5 -17 4 -11 -6 6 -10 2 -11 -18 -6 -14 3 -28 2 -31 -2 -3 -5
-19 -9 -36 -10 -17 0 -38 -6 -46 -13 -8 -7 -41 -12 -74 -12 -58 1 -59 0 -45
-20 17 -24 1 -55 -19 -37 -8 6 -25 6 -50 -1 -21 -6 -47 -8 -58 -6 -14 4 -18 1
-14 -8 6 -17 -18 -27 -48 -19 -16 4 -31 -3 -54 -24 -17 -16 -36 -29 -44 -29
-76 -4 -128 -28 -128 -60 0 -20 -30 -16 -30 5 -1 16 -2 16 -13 0 -7 -9 -20
-16 -29 -15 -9 1 -17 -2 -18 -8 -1 -5 -11 -20 -22 -32 -15 -16 -26 -20 -36
-14 -9 5 -26 5 -38 1 -12 -5 -50 -12 -83 -16 -49 -5 -61 -10 -61 -24 0 -10 -7
-20 -15 -24 -10 -3 -15 1 -15 11 0 13 -3 14 -12 5 -7 -7 -31 -12 -54 -12 -30
0 -44 -5 -48 -16 -4 -9 -9 -14 -13 -10 -3 3 -13 0 -22 -8 -40 -36 -106 19 -82
69 17 36 20 54 10 57 -6 2 -14 20 -18 40 -6 26 -5 35 3 32 15 -6 13 131 -2
149 -7 8 -9 17 -5 21 4 3 7 23 8 44 1 20 5 57 8 82 5 30 4 39 -2 25 -7 -15 -9
-5 -8 37 0 31 4 55 8 52 4 -2 5 5 2 16 -4 16 -2 19 11 14 12 -5 16 0 16 21 0
18 -6 29 -20 32 -24 6 -25 21 -5 47 19 25 19 50 2 43 -8 -3 -14 2 -14 11 -1
28 17 92 26 92 13 0 4 191 -8 203 -25 25 -12 57 35 85 25 15 66 41 92 59 26
18 70 46 98 62 111 64 127 150 29 151 -30 0 -210 -75 -240 -100 -9 -7 -18 -10
-22 -6 -3 3 -7 50 -8 104 -2 54 -8 109 -14 121 -8 14 -9 34 -5 54 4 18 9 39
11 47 8 34 12 144 6 154 -4 6 -8 42 -10 79 -2 66 -2 68 30 88 23 15 25 19 10
14 -16 -4 -23 -2 -24 7 0 7 -3 42 -5 78 -3 36 -5 101 -4 145 2 140 3 369 1
390 -1 11 0 70 2 130 1 61 0 131 -3 156 l-6 46 47 18 c74 26 319 152 346 176
26 25 28 37 11 74 -8 18 -19 25 -39 25 -29 0 -169 -42 -201 -60 -10 -6 -26
-10 -35 -10 -10 0 -37 -7 -61 -15 -24 -9 -47 -13 -51 -10 -14 8 -2 117 14 135
10 11 11 20 5 26 -13 13 -13 64 1 161 9 65 9 89 -1 113 -7 16 -16 30 -21 30
-14 0 -11 17 7 34 8 9 11 16 5 16 -14 0 -14 53 0 67 8 8 6 20 -6 42 -20 39
-12 154 15 215 13 29 16 46 9 70 -13 44 -11 56 7 56 10 0 14 6 11 15 -4 8 -2
17 3 20 6 4 10 17 10 30 0 13 5 27 10 30 16 10 12 45 -5 39 -9 -4 -16 3 -21
20 -3 14 -10 26 -15 26 -16 0 -10 29 9 39 9 6 11 11 5 11 -15 0 -18 40 -3 40
6 0 10 15 10 34 0 38 14 52 45 48 19 -3 19 -2 1 12 -17 14 -17 17 -2 62 9 28
12 53 7 63 -10 19 -21 101 -14 101 2 0 14 -5 25 -11 16 -9 19 -8 12 3 -5 7
-10 22 -11 33 -2 10 -8 22 -14 26 -6 3 0 13 14 22 25 16 42 64 25 69 -18 6 11
57 56 99 31 27 50 55 57 82 10 38 9 41 -18 63 -17 15 -42 23 -64 24 -35 0 -37
1 -42 43 -4 32 -2 47 12 62 15 17 17 32 12 92 -4 46 -2 74 4 76 6 2 5 10 -3
20 -13 15 -10 40 14 115 4 12 3 13 -3 4 -16 -22 -42 -3 -40 29 2 25 5 29 23
25 14 -4 24 0 28 10 8 21 8 24 -5 24 -5 0 -7 -4 -4 -10 3 -5 -1 -10 -9 -10
-12 0 -16 10 -16 34 0 26 -5 36 -20 41 -28 9 -25 19 9 32 36 13 44 52 20 103
-17 34 -15 60 2 60 5 0 9 24 9 54 0 30 4 57 10 61 13 8 3 321 -12 362 -7 18
-16 33 -20 33 -5 0 -4 8 1 18 12 23 11 161 -2 186 -8 15 -6 18 7 13 11 -5 16
-1 16 14 0 12 4 17 11 13 14 -9 30 16 23 37 -6 21 21 49 46 49 10 0 22 5 25
10 4 6 30 22 58 37 29 14 55 31 59 37 16 23 7 56 -18 73 -25 16 -29 16 -94 -6
-71 -25 -95 -22 -87 10 3 12 -2 23 -14 29 -23 13 -25 48 -4 56 9 4 15 19 15
35 0 17 6 32 15 35 17 7 21 74 4 74 -5 0 -8 -4 -5 -9 7 -11 -3 -41 -14 -41 -4
0 -7 14 -6 31 1 16 -2 33 -6 35 -5 3 -6 14 -3 24 3 10 0 28 -6 39 -10 16 -10
23 1 36 7 9 15 28 16 42 2 14 9 30 15 34 16 9 23 115 9 124 -5 3 -10 -2 -10
-11 0 -28 -13 -7 -17 27 -2 21 1 29 9 26 7 -2 12 -10 11 -16 -2 -6 1 -11 6
-11 17 0 19 24 5 59 -18 44 -18 178 1 211 19 33 19 68 0 86 -8 9 -16 31 -16
50 -1 19 -2 49 -4 67 -1 17 4 42 12 54 17 29 16 47 -3 84 -14 28 -14 32 1 48
14 17 14 19 0 31 -11 9 -14 22 -10 37 3 13 1 32 -5 43 -8 15 -6 21 7 29 17 9
16 11 -1 30 -15 17 -17 24 -8 33 14 14 28 3 35 -27 3 -11 5 -4 6 18 1 41 -1
42 -31 26 -34 -18 -44 4 -18 45 12 20 27 36 33 36 7 0 4 5 -6 11 -19 11 -15
47 9 84 18 27 8 64 -15 58 -26 -7 -33 22 -10 43 10 9 19 13 19 9 0 -4 8 -1 18
7 9 8 30 18 46 22 17 4 43 17 60 29 21 15 56 25 116 32 85 10 85 10 88 40 2
20 -5 40 -20 57 -21 25 -30 28 -88 28 -73 1 -94 -2 -161 -21 -41 -11 -50 -11
-73 4 -32 22 -33 35 -2 47 19 7 22 14 18 35 -2 15 -16 39 -29 53 -21 23 -22
28 -9 38 9 6 16 18 16 27 0 9 5 19 11 22 6 4 9 19 8 33 -2 15 1 33 5 41 6 10
2 20 -12 32 -12 9 -22 26 -22 37 0 11 -7 22 -15 26 -20 7 -19 25 3 33 9 4 20
11 24 17 10 14 10 71 1 80 -4 4 -8 23 -9 43 0 21 -8 41 -17 48 -22 16 -21 37
1 56 25 21 18 109 -9 116 -10 3 -19 13 -19 22 0 9 -5 22 -11 28 -9 9 -8 18 4
36 14 21 14 27 2 44 -16 23 -11 35 11 26 21 -8 17 3 -8 27 -22 21 -22 22 -5
35 13 9 17 20 12 34 -4 12 -2 21 4 21 16 0 13 52 -4 88 -15 29 -14 34 5 71 25
50 25 54 -1 46 -18 -6 -20 -5 -10 14 12 22 0 61 -19 61 -6 0 -10 7 -10 15 0 8
7 15 16 15 12 0 14 3 6 13 -7 8 -6 27 2 62 10 39 20 54 49 72 21 13 37 27 37
32 0 5 24 21 53 35 60 28 117 81 117 107 0 21 -26 49 -45 49 -17 0 -104 -33
-163 -63 -26 -13 -46 -17 -51 -11 -12 11 -17 65 -9 79 3 6 2 32 -3 59 -8 42
-6 51 9 62 15 13 15 14 -8 11 -20 -2 -24 2 -22 18 5 42 13 131 13 145 -2 49
-7 77 -18 88 -15 15 -17 32 -5 32 4 0 6 16 4 35 -3 25 0 35 9 35 11 0 11 2 1
9 -10 6 -10 10 3 21 17 14 20 46 5 55 -5 3 -7 11 -5 18 14 46 14 77 0 77 -18
0 -21 55 -4 66 8 5 6 10 -5 16 -21 12 -21 44 2 57 16 9 16 10 0 16 -19 7 -25
35 -9 35 11 0 4 101 -10 144 -6 19 -5 33 2 42 8 10 8 22 0 45 -7 20 -7 37 -1
49 5 9 6 20 3 24 -18 18 -17 110 1 139 18 26 63 37 162 37 68 0 84 7 84 36 0
16 -9 28 -27 38 -22 11 -143 24 -241 26 -8 0 -11 10 -8 28 2 15 5 30 5 34 1 4
11 16 23 28 l22 20 -22 15 c-13 9 -19 22 -15 31 4 10 -2 17 -15 21 -18 4 -21
13 -20 52 0 25 4 51 8 56 14 19 14 120 -1 146 -5 10 -7 36 -3 57 4 25 2 42 -5
46 -17 11 -14 39 4 32 11 -4 15 1 15 18 0 12 -3 26 -7 30 -9 9 -14 194 -5 200
9 5 8 185 -1 248 -5 39 -4 49 11 57 12 7 13 10 3 11 -10 0 -12 8 -8 29 3 15 0
48 -7 72 -18 62 -14 268 5 283 8 6 13 20 11 32 -3 19 4 22 60 29 35 4 83 7
108 6 82 -2 125 32 100 78 -19 36 -39 42 -195 55 -53 5 -85 14 -86 25 -5 60
-13 262 -12 311 1 36 2 103 2 150 0 237 2 534 4 695 l2 180 25 7 c91 28 199
48 255 48 74 0 88 18 35 45 -45 23 -105 28 -210 16 -54 -6 -98 -7 -103 -2 -14
14 -8 129 8 180 4 13 2 21 -6 21 -7 0 -9 10 -6 30 4 16 2 32 -3 35 -6 4 -7 12
-3 18 4 7 8 100 9 207 2 107 3 220 4 250 0 30 1 118 2 195 0 77 1 201 2 275 1
74 -1 162 -5 195 -3 33 -4 65 0 70 3 6 6 19 6 30 0 19 8 20 124 23 105 2 129
6 158 23 18 11 33 25 33 29 0 34 -172 100 -261 100 -58 0 -62 8 -54 101 9 101
9 110 1 224 -9 130 -15 1344 -6 1374 6 23 17 29 115 53 59 15 112 31 117 36 5
5 8 22 6 38 l-3 29 -119 0 -119 0 -1 282 c-1 155 -4 284 -8 288 -3 4 -2 21 3
38 5 18 12 109 15 202 3 94 9 187 13 207 5 21 5 40 -1 46 -6 6 -4 28 6 61 9
30 11 53 5 56 -5 4 -5 13 1 25 5 10 10 32 10 48 0 47 29 118 53 130 12 5 37
23 55 38 34 29 44 35 111 72 77 42 47 60 -89 52 -110 -6 -105 -8 -107 25 -1
17 -2 67 -3 112 -1 46 -6 85 -11 88 -5 3 -8 70 -8 148 1 123 -11 240 -26 255
-2 3 0 13 6 23 7 14 6 25 -5 41 -15 22 -14 47 5 98 7 19 5 36 -6 63 -17 41
-20 127 -5 127 6 0 10 -6 10 -14 0 -43 216 -236 264 -236 21 0 21 38 1 149
-19 111 -28 137 -85 256 -27 55 -58 120 -69 145 -25 55 -79 152 -91 164 -6 6
-24 11 -40 12 -17 1 -41 5 -54 8 -12 3 -30 0 -39 -7z m-420 -7923 c-9 -9 -28
6 -21 18 4 6 10 6 17 -1 6 -6 8 -13 4 -17z m673 -6034 c0 -5 -5 -10 -11 -10
-5 0 -7 5 -4 10 3 6 8 10 11 10 2 0 4 -4 4 -10z m-20 -390 c0 -5 -4 -10 -10
-10 -5 0 -10 5 -10 10 0 6 5 10 10 10 6 0 10 -4 10 -10z m-686 -515 c3 -8 1
-15 -4 -15 -6 0 -10 7 -10 15 0 8 2 15 4 15 2 0 6 -7 10 -15z m-24 -424 c0 -5
-7 -12 -16 -15 -14 -5 -15 -4 -4 9 14 17 20 19 20 6z m17790 -1711 c0 -5 -4
-10 -10 -10 -5 0 -10 5 -10 10 0 6 5 10 10 10 6 0 10 -4 10 -10z m-1100 -291
c0 -5 -7 -9 -15 -9 -15 0 -20 12 -9 23 8 8 24 -1 24 -14z m-79 -42 c-13 -13
-15 1 -4 30 7 17 8 17 11 -1 2 -10 -1 -23 -7 -29z m-16860 -480 c-13 -13 -26
-3 -16 12 3 6 11 8 17 5 6 -4 6 -10 -1 -17z m13801 -334 c-6 -3 -10 -9 -7 -14
4 -5 -1 -6 -10 -3 -14 6 -14 8 2 19 10 8 20 11 23 8 3 -3 -1 -8 -8 -10z m-922
-117 c0 -3 -4 -8 -10 -11 -5 -3 -10 -1 -10 4 0 6 5 11 10 11 6 0 10 -2 10 -4z
m-1540 -436 c0 -5 -2 -10 -4 -10 -3 0 -8 5 -11 10 -3 6 -1 10 4 10 6 0 11 -4
11 -10z m-11370 -460 c0 -5 -4 -10 -10 -10 -5 0 -10 5 -10 10 0 6 5 10 10 10
6 0 10 -4 10 -10z m10 -550 c0 -5 -4 -10 -10 -10 -5 0 -10 5 -10 10 0 6 5 10
10 10 6 0 10 -4 10 -10z m9120 -180 c0 -5 -4 -10 -10 -10 -5 0 -10 5 -10 10 0
6 5 10 10 10 6 0 10 -4 10 -10z m-1946 -575 c-4 -8 -8 -15 -10 -15 -2 0 -4 7
-4 15 0 8 4 15 10 15 5 0 7 -7 4 -15z m-7129 -15 c3 -5 1 -10 -4 -10 -6 0 -11
5 -11 10 0 6 2 10 4 10 3 0 8 -4 11 -10z m915 -1210 c0 -5 -2 -10 -4 -10 -3 0
-8 5 -11 10 -3 6 -1 10 4 10 6 0 11 -4 11 -10z m-1340 -500 c0 -5 -2 -10 -4
-10 -3 0 -8 5 -11 10 -3 6 -1 10 4 10 6 0 11 -4 11 -10z m640 -780 c0 -11 -4
-20 -10 -20 -5 0 -10 9 -10 20 0 11 5 20 10 20 6 0 10 -9 10 -20z"/>
<path d="M18519 25146 c-2 -3 -27 -7 -54 -9 -78 -7 -237 -37 -274 -53 -18 -8
-42 -14 -51 -14 -19 0 -91 -79 -128 -141 -12 -19 -30 -44 -42 -54 -11 -10 -20
-26 -20 -36 0 -9 -30 -54 -67 -99 -38 -45 -75 -94 -83 -109 -8 -14 -23 -35
-32 -46 -10 -11 -28 -34 -40 -52 -68 -94 -130 -173 -137 -173 -4 0 -18 -18
-30 -41 -13 -22 -32 -50 -42 -62 -76 -86 -99 -116 -99 -125 0 -6 -14 -26 -31
-44 -17 -18 -46 -55 -64 -83 -18 -27 -57 -77 -87 -110 -30 -33 -62 -73 -71
-90 -9 -16 -44 -65 -79 -107 -76 -93 -112 -140 -158 -208 -19 -28 -54 -78 -77
-110 -24 -32 -43 -61 -43 -64 0 -3 -21 -36 -47 -73 -26 -37 -58 -90 -71 -117
-13 -27 -46 -75 -73 -106 -27 -31 -49 -60 -49 -65 0 -12 -66 -109 -84 -124 -9
-8 -16 -18 -16 -24 0 -11 -60 -102 -132 -201 -21 -28 -45 -67 -54 -86 -9 -19
-29 -49 -44 -67 -16 -17 -45 -62 -66 -100 -20 -37 -47 -79 -58 -93 -31 -36
-56 -85 -56 -108 0 -12 -4 -23 -9 -26 -13 -8 -106 -186 -114 -217 -4 -14 -20
-43 -37 -64 -16 -21 -30 -45 -30 -54 0 -9 -9 -31 -20 -49 -11 -18 -20 -40 -20
-49 0 -9 -13 -38 -30 -64 -16 -27 -32 -60 -36 -74 -3 -14 -10 -27 -14 -30 -21
-13 -124 -244 -154 -347 -39 -128 -37 -160 5 -171 31 -8 54 6 353 223 38 27
77 50 87 50 10 0 24 9 31 19 7 10 32 29 55 41 23 12 47 28 53 35 7 8 40 28 75
44 35 17 66 35 69 40 4 5 30 21 59 35 28 13 63 36 76 50 14 14 30 26 37 26 7
0 22 12 33 28 12 15 29 37 39 50 9 12 27 35 40 49 12 14 22 29 22 34 0 4 21
33 48 65 26 32 52 68 57 80 6 12 38 53 72 90 34 38 78 94 98 124 21 30 55 73
76 95 22 23 39 44 39 47 0 16 79 119 151 196 8 9 23 31 34 47 10 17 42 57 70
90 29 33 78 98 110 145 32 47 71 101 87 120 93 111 144 175 167 209 14 22 45
63 68 92 77 98 88 113 101 139 7 14 22 34 32 45 41 42 112 134 170 217 33 47
68 92 78 100 10 7 31 33 46 57 16 24 48 68 72 98 24 29 44 57 44 61 0 4 18 26
39 50 21 24 65 79 97 124 33 44 77 103 99 130 22 28 51 67 64 87 13 19 30 41
37 48 6 7 34 42 60 78 26 36 51 65 56 65 4 0 14 15 21 33 8 17 24 41 36 51 11
11 21 24 21 31 0 6 11 21 24 34 26 24 49 91 40 114 -7 19 -40 28 -68 17 -24
-9 -62 -50 -100 -107 -40 -59 -97 -137 -105 -143 -16 -12 -80 -98 -96 -130
-20 -38 -76 -110 -87 -110 -17 0 8 80 41 130 20 30 42 66 49 80 14 26 51 70
133 157 52 54 60 83 38 140 -7 20 -7 29 1 31 8 3 7 8 -1 18 -7 8 -9 17 -5 21
8 8 -24 43 -40 43 -7 0 -15 6 -17 13 -4 9 -8 9 -15 -2 -16 -23 -21 2 -9 58 8
40 7 56 -1 59 -6 2 -9 9 -6 16 18 46 -105 44 -159 -4 -18 -15 -44 -30 -59 -34
-15 -3 -30 -15 -33 -26 -3 -11 -11 -20 -16 -20 -6 0 -17 -16 -25 -36 -8 -19
-28 -49 -44 -64 -17 -16 -30 -33 -30 -38 0 -5 -7 -15 -15 -22 -8 -7 -27 -34
-42 -61 -14 -27 -30 -49 -35 -49 -4 0 -8 -6 -8 -14 0 -8 -13 -22 -28 -31 -15
-9 -34 -30 -40 -45 -7 -15 -24 -41 -38 -56 -13 -16 -28 -33 -33 -39 -4 -5 -19
-19 -32 -31 -32 -28 -61 -63 -77 -93 -23 -44 -86 -121 -98 -121 -15 0 -74 -78
-74 -97 0 -7 -11 -19 -25 -25 -14 -6 -25 -17 -25 -23 0 -7 -18 -31 -40 -54
-22 -22 -40 -47 -40 -54 0 -7 -25 -40 -55 -72 -30 -33 -55 -66 -55 -72 0 -7
-8 -13 -17 -13 -17 -1 -40 -27 -80 -94 -10 -16 -35 -49 -56 -74 -22 -25 -49
-62 -62 -82 -13 -21 -46 -54 -74 -74 -27 -20 -52 -45 -55 -54 -4 -10 -31 -45
-61 -77 -30 -33 -58 -70 -61 -82 -3 -13 -12 -23 -20 -23 -8 0 -14 -3 -14 -7 0
-7 -54 -71 -100 -118 -11 -12 -20 -26 -20 -32 0 -12 -30 -26 -38 -18 -9 9 23
64 93 160 88 121 115 163 115 175 0 6 15 26 33 45 40 43 45 49 87 110 19 28
57 75 85 105 29 30 69 82 91 115 21 33 59 80 82 105 24 25 51 59 60 77 10 17
32 49 49 70 92 108 193 239 193 250 0 7 9 17 20 23 11 6 31 28 44 48 13 21 35
48 50 62 15 14 34 39 43 55 9 17 31 48 49 71 19 23 34 45 34 50 0 5 24 36 54
69 29 33 60 74 69 90 13 25 181 193 253 253 31 26 80 40 186 53 127 16 224 1
271 -41 30 -27 31 -30 19 -62 -6 -19 -12 -43 -12 -54 0 -48 62 -60 100 -19 20
22 24 35 23 84 -2 52 -6 63 -40 101 -21 23 -49 48 -63 55 -34 17 -231 51 -241
41z m-1537 -2838 c-7 -7 -12 -8 -12 -2 0 14 12 26 19 19 2 -3 -1 -11 -7 -17z
m-22 -35 c0 -5 -7 -17 -15 -27 -15 -20 -15 -20 -15 0 0 12 3 24 7 27 9 9 23 9
23 0z m-140 -163 c0 -5 -5 -10 -11 -10 -5 0 -7 5 -4 10 3 6 8 10 11 10 2 0 4
-4 4 -10z m-708 -107 c30 -27 22 -47 -49 -122 -111 -116 -110 -90 3 106 22 38
22 38 46 16z m570 -85 c-6 -6 -15 -8 -19 -4 -4 4 -1 11 7 16 19 12 27 3 12
-12z m-382 -88 c13 -9 12 -12 -4 -25 -28 -21 -34 -19 -28 10 5 27 10 30 32 15z
m-169 -108 c-25 -47 0 -110 34 -82 8 6 23 9 35 5 14 -4 35 3 67 24 55 37 69
38 76 9 6 -23 -16 -68 -33 -68 -5 0 -33 -24 -63 -52 -34 -33 -87 -70 -141 -97
-48 -24 -90 -50 -93 -58 -3 -7 -25 -27 -49 -44 l-44 -30 -33 26 c-24 18 -46
25 -76 25 -49 0 -49 -2 -1 110 15 36 35 87 45 113 20 53 31 65 48 48 20 -20
63 -12 105 19 23 17 42 35 42 40 0 5 11 12 25 16 13 3 30 12 36 20 18 21 34 1
20 -24z"/>
<path d="M6681 15874 c0 -11 3 -14 6 -6 3 7 2 16 -1 19 -3 4 -6 -2 -5 -13z"/>
<path d="M6712 15100 c0 -14 2 -19 5 -12 2 6 2 18 0 25 -3 6 -5 1 -5 -13z"/>
<path d="M6060 14715 c0 -9 6 -12 15 -9 8 4 15 7 15 9 0 2 -7 5 -15 9 -9 3
-15 0 -15 -9z"/>
<path d="M11620 10940 c-13 -8 -12 -10 3 -10 9 0 17 5 17 10 0 12 -1 12 -20 0z"/>
<path d="M16540 10430 c0 -5 4 -10 9 -10 6 0 13 5 16 10 3 6 -1 10 -9 10 -9 0
-16 -4 -16 -10z"/>
<path d="M6731 10250 c0 -8 4 -24 9 -35 5 -13 9 -14 9 -5 0 8 -4 24 -9 35 -5
13 -9 14 -9 5z"/>
<path d="M6637 8854 c6 -17 8 -17 21 -1 8 10 6 13 -8 14 -13 1 -17 -3 -13 -13z"/>
<path d="M14390 6809 c0 -5 5 -7 10 -4 6 3 10 8 10 11 0 2 -4 4 -10 4 -5 0
-10 -5 -10 -11z"/>
</g>
</svg>
