<svg version="1" xmlns="http://www.w3.org/2000/svg" width="780" height="780" viewBox="0 0 585.000000 585.000000"><path d="M296.5 7.5c-4.1 1.4-9.4 2.4-12.8 2.5-3.2 0-8.8.6-12.5 1.4-3.7.8-9.8 1.7-13.5 2.1-8.8.7-21.1 3.7-27.3 6.5-2.7 1.2-7.5 3-10.6 4-6.5 2-15.4 7.3-16.8 10-.5.9-3.5 2.7-6.7 3.9-5.4 2-17.3 10.4-21.8 15.5-1.1 1.2-3.6 3.4-5.6 4.8-9.4 6.9-19.1 19.5-22.6 29.1-1.4 4-4.1 9.6-6.1 12.6-1.9 3-4.4 7.7-5.5 10.5-2.3 6-3.5 21-1.8 22 .6.4 1.1 3.7 1.1 7.9 0 4 .7 10.8 1.5 15.2 2.6 14.1 2.8 16.1 1.6 21.4-1.3 6.2.1 13.1 3.6 17.4 3.2 3.9 4.6 10.2 3.9 16.7-.9 7.2-.9 6.5-.7 28.7.2 17 .4 19.4 1.9 20.2.9.4 2.4.6 3.2.4 1.2-.4 1.3-.3.1.5-2.2 1.5-.6 4 3.3 5.1 2 .5 4.7 1.8 6.1 3 3.9 3 12.7 4.5 21 3.6 3.8-.4 9-.9 11.5-1.1 2.5-.1 7.3-.6 10.8-.9 7.2-.8 8.5-2 10.7-10.4.7-2.8 2.3-6.7 3.6-8.8 1.9-3 2.3-5.1 2.3-12l.1-8.3-6.4-5.8c-7-6.2-15.2-11.6-19.1-12.4-1.4-.3-3.8-1.1-5.5-1.6-11.3-4-34.5-7.2-37-5.2-2.5 2.1-2.9-1.3-1.6-12.9 1.2-10.8 3.8-27.4 4-25.6.1.5.6.3 1.2-.5.8-1.2.9-.9.5 1.3-.4 1.5-.1 3.7.6 5 1.1 2 1.3 1.9 1.9-2.6.4-2.7 1-5.2 1.4-5.5.3-.3 2.1 0 3.9.6 6.5 2.4 9.6-1.6 9.5-12.3-.1-4.4.4-7.2 1.4-8.3.8-.9 1.7-2.9 2.1-4.3.3-1.5 2.5-4.9 4.8-7.5 2.4-2.7 4.8-5.8 5.4-6.9.6-1.1 2-2 3-2.1 2.4-.1 7.4-2.5 7.4-3.5 0-.9 5.8-3.9 7.6-3.9.7 0 1.7.7 2.2 1.6.7 1.3 2.7 1.7 8.3 1.8 10 .3 16.7-1.2 18.6-4.1 2-3 2.7-2.9 8.6 1.3 4.1 3 5.4 3.4 7.2 2.6 2.7-1.2 12.4-.7 13.9.8.5.5 3.5 1 6.7 1 4.3 0 6.5.6 9.1 2.4 2 1.3 5.5 2.7 7.9 3.1 2.4.4 8.9 1.8 14.4 3.2 5.5 1.5 13.4 2.9 17.5 3.3 7.1.6 18.2 4.3 21.9 7.2.9.7 3.7 2.4 6.3 3.7 3.6 1.8 5.2 3.4 6.8 6.8 1.9 4.1 2.3 4.4 5 3.8 3.1-.7 6.1.5 9.8 3.8 1.6 1.5 3.5 2.1 6.4 2 2.3-.1 5 .3 6.1.8 1.5.9 2.4.6 4.8-1.7 2.7-2.6 2.9-2.6 5.3-1 3.3 2.1 4.3 2 4.9-.5.5-1.9.7-2 3.5-.5 1.9 1 3.5 2.9 4.2 5 .6 1.9 1.8 4 2.6 4.6.7.7 1.4 2.8 1.4 4.7 0 3-.3 3.4-2 2.8-1.9-.6-2-.3-1.5 3.7.4 2.4.8 5.3 1.1 6.5.2 1.2 0 2.5-.6 2.8-1.7 1-1.1 4.4 1.5 9 1.4 2.4 3.4 6.5 4.3 9.2 1 2.6 3.1 7.3 4.6 10.3 2.6 5 2.8 6.1 2.3 12.8-.3 4.5-1.2 8-2.1 9.1-.8.9-1.6 2.5-1.6 3.6-.5 5.9-.3 17.3.4 27 .4 6 .9 14.5 1 18.9.2 7.4.4 8 3.2 10.2 1.6 1.3 3.7 2.4 4.6 2.4 2.4 0 6.7-4.9 7.3-8.5.3-1.6.9-5 1.3-7.5.6-3.3 1.2-4.5 2.5-4.4 1 .1 2-1.1 2.8-3.3.8-2.6 1.5-3.3 2.8-2.8 3 1.2 3.5 1 4.4-2 1.6-5.1 2.3-6 5.8-7.1 14.5-4.9 17.7-5.7 21.9-5.9 6-.2 7-.9 7-5.1 0-5.7 5.2-24.7 11.5-42.3 2.7-7.4 2.7-8.1 2.5-29.9 0-4.9.1-5.2 2.5-5.2 2.7 0 3.2-1.8 1.4-5.1-.8-1.6-.7-2.9.5-5.4.9-1.8 1.6-4.2 1.6-5.2s.5-2.4 1.1-3c.8-.8.8-2.6-.1-6.5-.7-2.9-1.4-7.3-1.6-9.7-.2-2.3-1.1-5.4-2.1-6.8-3.5-4.9-6.3-9.8-6.3-11.2 0-.8-1.7-3.5-3.8-6-2.1-2.5-4.7-6-5.7-7.6-3.3-5.2-8.7-11.5-9.9-11.5-1.5 0-7.9-8.8-10.5-14.2-1.1-2.4-3.6-6.3-5.5-8.8-2-2.5-6.1-8.2-9.1-12.7C439.2 55.5 431.7 48 429 48c-.7 0-5.4-3.1-10.4-6.8-5-3.8-12.3-8.9-16.2-11.4-4-2.5-7.5-5.1-7.8-5.7-.4-.6-1.8-1.1-3-1.1-1.3 0-4.2-.7-6.5-1.5-3.9-1.3-4.3-1.3-5.9.5-2.3 2.7-4.8 2.5-6.8-.6-1.5-2.2-2.2-2.4-5.6-1.9-2.7.5-4.6.2-6.3-.9-1.3-.9-3.3-1.6-4.3-1.6s-3.3-1.1-5.1-2.4c-2.1-1.6-5.4-2.7-9-3.2-3.1-.3-6.9-1.2-8.6-2-10.9-4.9-25.9-5.7-37-1.9zM184.9 257.9c3.1 2-.3 3.1-9.5 3.1-6 0-9.3-.4-8.9-1 .3-.5 2-.8 3.8-.6 1.8.2 4.8-.2 6.7-.9 4.4-1.6 6.1-1.7 7.9-.6zm4.1-.5c0 .3-.4.8-1 1.1-.5.3-1 .1-1-.4 0-.6.5-1.1 1-1.1.6 0 1 .2 1 .4zM39.5 52.8c-4.3 1.4-6.6 4.1-10.7 12.8l-4.3 8.9.3 19.7c.2 22.2 1.5 29.1 6.1 34.8 2.3 2.8 3.8 3.7 8 4.3 4.4.7 5.7.5 9.3-1.5 2.7-1.4 4.9-3.7 6-5.8 2.9-6.1 6.3-26.6 6.3-38V77.5l-5.3-10.8c-6.4-12.9-9.7-15.8-15.7-13.9z"/><path d="M165 168.7c0 .4.4 1.4.9 2.2 1.1 1.7 4.5.7 3.9-1.2-.5-1.3-4.8-2.3-4.8-1zM299.5 216c-5.3 1-23.2 3-27.1 3-1.7 0-4.2.8-5.5 1.9-1.3 1-3.4 2.1-4.6 2.5-3.4 1.1-3.2 7.8.2 11 1.4 1.3 2.5 3 2.5 3.8 0 .8.6 2.3 1.4 3.3 1.2 1.6 1.1 2.1-.6 3.5-2.6 2.1-4.6 7.8-3.8 11 .7 2.8 3.7 3.5 3.2.7-.4-2.1 1.1-2.2 4.3-.1 2 1.3 2.2 2 1.5 3.9-.7 1.8-.4 3 1 4.8 1.9 2.5 1.9 2.5 0 3-2.9.7-3.6 3.5-1.4 5.2 1.1.7 6.6 2.5 12.4 3.9 24.1 5.8 27.7 6.4 32 5.6 11-2 3.8-7.3-11.5-8.4-4.2-.3-6.8-2-6.3-4.2.2-1.4 1.3-2 4.3-2.2 2.2-.2 5.5-1 7.3-1.8 1.8-.8 4.2-1.2 5.3-.9 1.1.4 4.9.1 8.4-.6 5.2-1 7.7-1 13.5 0 5.9 1.1 7.7 1.1 9.6 0 3.2-1.7 3-3.4-.8-6.9-3.4-3-12.8-8.4-13.5-7.6-.2.2 1 1.8 2.8 3.5 1.7 1.8 2.9 3.4 2.7 3.6-.6.6-7.1-1.5-7.8-2.5-.3-.3-1.2-1-2-1.3-.8-.4-2.8-1.6-4.5-2.6-1.6-1.1-4.2-2-5.7-2-1.5-.1-3-.6-3.3-1.1-.3-.6-2-1-3.6-1-1.8 0-2.8-.4-2.4-1 .3-.6 2.4-1 4.5-1s4.2.4 4.5 1c.3.5 1.9 1 3.5 1s3.2.4 3.5 1c.3.5 1.6 1 2.8 1 1.7-.1 1.2-.5-1.8-2-2.2-1.1-4.7-1.9-5.7-2-.9 0-1.8-.4-2-.9-.5-1.6-19.7-4-23.2-3-4.4 1.3-13.4 1.1-14.2-.3-.8-1.3 2.1-3.7 5.6-4.4 1.4-.3 4.1-1 6-1.5 4.1-1.2 29.8-1.9 32-.9 3.3 1.6 8.8 3 11.7 3 1.7 0 3.6.7 4.3 1.5 1.9 2.3 7.7 1.9 9-.6 2.7-5-1.3-10.6-11.5-15.8-5.1-2.6-7.5-3.2-16-3.7-5.5-.3-11.3-1.3-12.9-2-1.6-.8-3.2-1.4-3.5-1.3-.3.1-2.4.5-4.6.9zm-1.5 39.9c.5 1.1 1 2.9 1 4.1 0 1.8-.5 2.1-3.2 1.8-3.8-.4-5-3.5-2.3-6.2 2.1-2.1 3.2-2 4.5.3zM468.7 270.7c-1.4 1.7-1.3 2 .8 4.7 1.6 2 3.4 3 5.4 3.2 2.9.2 3 0 2.4-3-.7-3.7-3-6.6-5.3-6.6-.9 0-2.4.8-3.3 1.7zM446.1 292.6c-2.7 3.4-2.7 7-.1 7.7 1 .3 3.2 2.6 4.7 5.1 3.3 5.4 4.9 6 3.8 1.3-.4-1.7-.9-5-.9-7.3-.1-4-2.8-9.4-4.6-9.4-.4 0-1.8 1.2-2.9 2.6zM188 303.8c-1.4.9-4.8 3.7-7.6 6.2s-6.4 5.2-8 6c-1.6.8-4.4 2.9-6.3 4.6-1.8 1.8-4.8 4-6.6 4.9-1.7 1-3.6 2.7-4.1 3.9-.8 1.7-1.6 2-5.6 1.8l-4.8-.4v3.5c0 2.6-.5 3.6-2 4-1.1.3-2.4 1.6-2.9 2.9l-1 2.3v-2.3c-.1-1.3-.5-2.1-1-1.7-1.1.6-5.1-4.2-5.1-6.1 0-.8-.6-1.4-1.4-1.4-.8 0-1.7-.8-2.1-1.8-.6-1.6-.7-1.6-1.6 0-.9 1.7 0 15.9 2.1 31.8 1.4 10.6 4.5 23.3 7.9 31.8 1.2 2.9 2.1 6.3 2.1 7.5 0 4.5 7.5 22.2 12.1 28.9 1.1 1.4 1.9 3.1 1.9 3.7 0 .5 1 2.6 2.3 4.5 1.2 1.9 4.6 7.2 7.4 11.8 2.9 4.6 7.3 10.2 9.7 12.6 8.3 8 10.3 16.6 6.5 27.3-1.2 3.5-2.6 6.9-3 7.5-.5.6-2 4-3.3 7.6-1.4 3.5-3.4 8.2-4.5 10.4-4.2 8.1-3.5 33.3 1.3 44.9.7 1.7 1.6 7.3 2 12.4.4 5.2 1 10 1.3 10.7.4 1.1 5.9 1.4 28.9 1.4h28.3l1.6-3.1c2.3-4.4 1.7-12.3-1-12.7-3.3-.6-5.4-3.2-7-8.5-.8-2.8-2.1-6-2.9-7.2-2.4-3.6-6.6-15-6.6-17.8 0-4.3 5.5-8.6 10.8-8.7 3.9 0 4.3-.2 4-2.3-.4-2.6-4.8-3.8-4.8-1.3 0 3-3.6 1.6-8.9-3.4-5.1-4.8-5.3-5.1-4.6-9.1l.7-4.1 2.8 3c1.5 1.7 3 3.7 3.3 4.5.9 2.3 11.3 7.7 15.1 7.7 2.8 0 3.5.4 4 2.5.4 1.4 1.2 2.5 1.9 2.5 2.1 0 5.7-3.9 5.7-6 0-1.1.7-2 1.5-2 2.5 0 1.8-3.8-.7-4.2-4.9-.7-6.1-10-1.5-11.3 1.2-.4 3-.9 3.9-1.1 1.2-.4 1.7.2 2 2.3.4 3.4 3.6 4.2 7 1.9 1.2-.9 3.4-1.6 4.9-1.6 1.5 0 2.9-.7 3.3-1.5.7-1.9 2.6-2 2.6-.1 0 .8 1 1.8 2.2 2.2 1.3.4 3.4 1.5 4.9 2.6 2.5 1.9 2.6 1.9 6.2-.2 2-1.2 3.9-3 4.2-3.9.5-1.5 1.3-1.8 4.9-1.4 2.4.3 5.3 0 6.5-.7 2.8-1.4 4.2-.3 1.8 1.4-2.1 1.6-2.1 2.2-.2 3 1.7.6 11.5-4 11.5-5.5 0-.5.6-.9 1.3-.9.7 0 2.9-.8 5-1.9 2-1 5.2-2.2 7.1-2.5 2.3-.5 3.6-1.3 4-2.9.9-3.5.7-9.7-.4-9.7-.5 0-1 .4-1 1 0 2-4.1 1-4.9-1.2-.7-2-1.5-2.2-14.5-2.6-11.1-.3-14.1-.1-16 1.2-1.8 1.2-4.2 1.4-10.2 1-14.6-1-17.8-1.5-20.1-3.6-1.7-1.6-2.5-1.8-4.1-.9-2.6 1.4-7.6 1.4-12.4 0-3.9-1-4.7-2.6-2.6-4.7.9-.9.9-1.5 0-2.4-.8-.8-1.4-.5-2.1 1.4-1 2.7-2.9 3.8-6.7 3.8-1.5 0-2.4-.6-2.4-1.5 0-.8-1.6-3.2-3.5-5.3-4.4-5-9.4-6.5-18.1-5.6-5.8.6-6.9.5-8.1-1.1-1-1.5-1.6-1.6-2.5-.7-1.9 1.9-4.9 1.4-7-1.4-1.1-1.4-2.8-2.3-3.7-2.2-1.1.3-3.2-2-6.6-7.2-4.9-7.3-7.2-13.3-8.4-21.7-.3-2.3-1.6-5.3-2.9-6.8-1.9-2.1-2.6-2.4-4.3-1.5-1.8 1-2.6.4-7.1-4.4-2.7-3-6.3-7.9-7.9-10.8-4.7-8.6-10.9-21.6-10.9-22.8 0-.7-.6-2.6-1.4-4.3-.8-1.8-2.1-7.3-3.1-12.4-1.6-8.9-1.4-13.3.6-13.3.6 0 .7-1.4.4-3.4-.6-3-.4-3.4 1.8-4 1.4-.3 3.3-.3 4.1 0 .9.3 2.3.1 3-.5 2.4-2 2.8.5 1 5.9-2.7 8.4-.3 19.1 6.1 26.8 1.2 1.5 2.8 4.4 3.6 6.6 1.8 5 3.4 5.5 6.8 2.2 1.5-1.4 3.1-2.6 3.5-2.6 1.2 0 10.4 9.8 11.1 11.9.6 1.9 6.1 4.8 7.1 3.8.3-.3-.2-1.6-1.1-3-1.5-2.3-1.5-2.5.6-3 2.4-.6 4.9.1 4.9 1.4 0 .5.9 1.8 1.9 2.8 2.5 2.5 3.3 15.7 1.1 17.1-1.6 1-4 .2-4-1.2 0-.6-.8-.8-1.8-.6-1.1.3-3-.1-4.3-.8-4.2-2.3-5.2-1.8-4.4 2.3.7 3.9 3.9 8.3 6 8.3.7 0 1.7 1.1 2.3 2.5.6 1.4 1.6 2.5 2.2 2.5.6 0 2.9 1.2 5.2 2.7 8.1 5.4 9.3 6 10.8 5.3 2.4-1.2 9.2-2.3 12.3-2.1 1.5.2 3.3-.2 4-.7.7-.5 2.8-1.3 4.7-1.7 4.1-.9 5.2-2.2 3.9-4.6-1.1-2.1.5-3.5 2.4-2.2.7.4 0-.3-1.7-1.7-2-1.7-4.2-2.5-7.2-2.6-2.3-.1-4.8-.7-5.6-1.3-.7-.6-2.6-2.1-4.1-3.2-1.6-1.2-2.6-2.7-2.3-3.5.8-2.1-3-2.7-5.7-.9-2.4 1.5-2.6 1.5-4.6-1.1-2.6-3.3-2.6-5-.2-9.1 1.5-2.4 2.8-3.2 5.3-3.5 3.8-.4 4.6-3.1 1-3.6-1.3-.2-2.8-1.4-3.4-2.7-.7-1.6-2.1-2.5-4.7-2.8-10.8-1.5-13.1-3.6-11.7-10.8 1-5.4 2.1-6.6 4.6-5.1 1.3.8 3.4 1 5.7.6 3-.6 3.9-.3 5.2 1.5l1.7 2.2 2.7-2.1c3.3-2.6 8-2.2 12 1 3.1 2.4 3.1 2.4 6.4.2 1.5-.9 4.3-2.2 6.2-2.8l3.6-1.1-2.5-1c-1.4-.6-6.3-1.9-11-2.8-4.7-1-10.2-2.3-12.3-3.1-2-.8-4.6-1.4-5.7-1.4-2.5 0-2.6-1.6-.1-3 1.4-.7 2.8-.7 4.7 0 2 .8 3.6.8 5.5 0 2-.9 3.3-.9 4.8-.1 1.3.7 2.7.8 3.8.2 1-.5 3.7-1.7 6-2.6 4-1.7 5.1-3.1 6.8-9.3 1-3.4 4.2-4.6 12.9-4.3 6.7.1 7.7-.1 7.2-1.4-.3-1 .1-1.5 1.2-1.5 2.5 0 11.9-9.4 16.3-16.3 1-1.5 9.8 4.2 11.4 7.3.8 1.6 1.8 3 2.2 3.2.5.1 2.5 2.6 4.5 5.4 2 2.7 8 8.7 13.2 13.2 9.4 8.2 11.3 11 12.1 17.8.1 1.4.7 3 1.4 3.7 1.6 1.6 1.4 5.2-.5 6.8-1.4 1.2-2.1.9-4.8-2.4-3.2-3.8-8.7-5.9-10-3.8-.9 1.4-22.3 1.5-29.6.1-2.9-.6-5.5-.8-5.7-.6-.3.2.5 1.4 1.6 2.5 1.2 1.2 2.1 2.8 2.1 3.6 0 1.9 1.1 1.9 3.6 0 2.7-2.1 5.7-1.8 7.2.6.7 1.1 1.9 1.8 2.7 1.5.8-.3 1.7-.1 2 .4.4.6-.4 1.4-1.7 1.9-1.3.5-3.2 1.8-4.2 3-2.3 2.5-4.4 2.7-7.3.6-2-1.4-2.3-1.3-4.2 1.4-1.2 1.6-2.1 3.2-2.1 3.5 0 1.2 10 .6 13.2-.8 1.8-.8 6.5-2.4 10.3-3.6 3.9-1.2 7.4-2.6 8-3.1 1.8-1.7 4.4-.9 5.7 1.8.7 1.4 1.9 2.9 2.7 3.1 1.1.4 1.3-.3.8-2.9-.3-1.9-.3-2.8 0-2.2.8 2 4.1 1.5 5.3-.8 1.5-2.7 3.1-2 4.5 2 1 3.2 1.1 3.2 2.9 1.2 1-1.1 2.4-3.7 3.2-5.8 3.4-9.5.4-18-10.5-30.1-3.9-4.2-9.2-10.1-11.8-13-7.4-8.2-7.4-8.2-8.1-8.2-.4 0-3.4-2.5-6.7-5.5-5.1-4.6-6.6-5.5-9.8-5.5-3.9 0-6 1.6-10 7.4-2.4 3.5-9.2 5.3-25.2 6.6-7.1.6-14.3 1.7-16 2.4-9.6 4.5-11.4 4.9-14.4 3.7-1.6-.7-3.9-2.3-5.1-3.6-1.3-1.3-3.5-2.7-4.9-3-1.7-.3-3.4-1.8-4.5-4-1-1.9-3.6-4.6-5.8-6.1-5.8-4-6.9-5.9-5.6-9.7.6-1.8 2.9-5.1 5-7.5 2.1-2.3 3.6-4.7 3.3-5.2-.7-1.2-.4-1.3-3.5.8zM152 336c-2.1 1.3-3 1.2-2.7-.3.3-1.8 2.1-2.7 3.2-1.6.6.6.5 1.3-.5 1.9zm28-1.3c0 .5-.5 1.5-1 2.3-.8 1.2-1 1.1-1-.8 0-1.2.5-2.2 1-2.2.6 0 1 .3 1 .7zm1 11.8c0 3.2-.4 4.5-1.4 4.5-2 0-2.4-1.9-1.3-5.7 1.5-4.7 2.7-4.1 2.7 1.2zm-9.4 4.2c-1 1-1.9-.5-1-1.8.6-1.1.8-1.1 1.2 0 .2.7.1 1.5-.2 1.8zm13.4 6.7c2.2 2.7-.5 4.6-5.9 4.4-3.9-.3-4.6-.6-4.9-2.5-.3-1.7.4-2.6 3-3.6 3.4-1.5 5.5-1 7.8 1.7zM234.5 505c1 1.6-4.1 6-6.9 6-3 0-5.2-3.2-3.3-4.8.7-.6 2.8-1.2 4.7-1.5 1.9-.2 3.8-.5 4.2-.5.4-.1 1 .2 1.3.8zm4.3 11.2c-.4 4.1-2.8 5-2.8 1 0-1.6.3-3.2.7-3.5 1.5-1.6 2.4-.5 2.1 2.5zM441.6 330.7c-1.1 1.1-.6 2.3.9 2.3.8 0 1.5-.4 1.5-.9 0-1.3-1.6-2.2-2.4-1.4zM433.2 368.3c-1.6 1.9-2.3 6.1-1.3 7.7 1.4 2 2.8.4 3.6-4.1.7-3.9-.5-5.8-2.3-3.6z"/><path d="M236 372.6c0 .5 1.2 1.8 2.7 2.8 2.3 1.7 2.6 1.8 3.5.2.5-.9 1.6-1.6 2.4-1.6 1.4 0 2.2.3 8.2 3.3 4.2 2.1 4.9 2.1 7.7-.1l2.4-1.9-6.7-1.1c-10.5-1.8-20.2-2.5-20.2-1.6zM306.5 373c-.3.5.1 1 .9 1 .9 0 1.6-.5 1.6-1 0-.6-.4-1-.9-1-.6 0-1.3.4-1.6 1zM253.4 392.5c-.4.8-1.4 1.5-2.3 1.5-1.4 0-1.4.2-.1 1 1.8 1.2 10 1.3 10 .2 0-.8-5.2-4.2-6.4-4.2-.4 0-.9.7-1.2 1.5zM216.5 396c-1.8 2-1.7 2 1.9 2 3.4 0 3.6-.2 2.6-2-.6-1.1-1.4-2-1.9-2-.4 0-1.6.9-2.6 2zM240 395.6c0 1.1.5 1.4 1.6 1 .9-.3 2.7-.6 4-.6 1.3 0 2.4-.5 2.4-1 0-.6-1.8-1-4-1-3 0-4 .4-4 1.6zM226.8 397.7c.6.2 1.8.2 2.5 0 .6-.3.1-.5-1.3-.5-1.4 0-1.9.2-1.2.5zM346.6 493.2c-1.9 1.1-2 1.7-.1 4.2 1.4 1.9 1.5 1.9 3.5.1 1.1-1 2-2.4 2-3 0-1.7-3.3-2.5-5.4-1.3zM333.1 509.2c-.5 1.5-1.5 2.9-2 3.3-.6.3-1.1 1-1.1 1.6 0 1.8 1.9.8 4.1-2.2 1.5-2.2 1.8-3.4 1.1-4.1-.8-.8-1.4-.4-2.1 1.4zM306.6 532.6c-.4 1-.1 1.4.6 1.2 1.5-.5 2.3-2.8 1-2.8-.5 0-1.3.7-1.6 1.6zM249.8 538.5c-.8 1.9-.8 3.1.1 5.2 1 2.2 1 2.8-.4 3.6-1.5.8-1.5 1 .1 2.8.9 1 2.3 1.9 3.1 1.9.7 0 1.3.4 1.3.9s1 1.2 2.3 1.6c2.1.6 2.1.7-.7 1.9-4.5 2-2 2.4 8.9 1.5 17.4-1.4 21.2-2.2 23.3-4.9 3.8-4.8 6.7-7.6 10.4-9.8 3.3-2 5.4-4.9 4.5-5.9-.7-.6-5.7 1.6-5.7 2.5 0 .5-1.8 1.2-4 1.6-2.3.3-4.9 1.1-5.9 1.7-1.3.9-2.4.8-4.7-.3-6.6-3.4-22.1-1.6-23.8 2.7-.8 2.2-2.8 1.8-5.9-1.4-2.1-2.2-2.4-3-1.4-3.4.8-.3 1.7-1.5 2-2.6.8-3-2.1-2.7-3.5.4zm23.5 7.2c-.7.2-1.9.2-2.5 0-.7-.3-.2-.5 1.2-.5s1.9.2 1.3.5zM294 560.5c0 .8.9 1.9 2 2.5 2.3 1.2 2.5.7 1-2.1-1.3-2.2-3-2.5-3-.4zM149.8 572.2c-4.3 1.1-10 6.1-11.6 10L137 585h12.4c13.8 0 13.6.1 13.6-7.1 0-3.6-.3-4.1-3.5-5.5-3.9-1.6-4.5-1.6-9.7-.2zM302.1 572.6c0 1.1.3 1.4.6.6.3-.7.2-1.6-.1-1.9-.3-.4-.6.2-.5 1.3zM302 577.9c0 1.2.5 2.1 1 2.1.6 0 1-.6 1-1.4 0-.8-.4-1.8-1-2.1-.5-.3-1 .3-1 1.4z"/></svg>