<?xml version="1.0" standalone="no"?>
<!DOCTYPE svg PUBLIC "-//W3C//DTD SVG 20010904//EN"
 "http://www.w3.org/TR/2001/REC-SVG-20010904/DTD/svg10.dtd">
<svg version="1.0" xmlns="http://www.w3.org/2000/svg"
 width="2089.000000pt" height="2089.000000pt" viewBox="0 0 2089.000000 2089.000000"
 preserveAspectRatio="xMidYMid meet">
<metadata>
Created by potrace 1.14, written by Peter Selinger 2001-2017
</metadata>
<g transform="translate(0.000000,2089.000000) scale(0.100000,-0.100000)"
fill="#000000" stroke="none">
<path d="M4805 20846 c-33 -23 -233 -159 -445 -301 -212 -142 -459 -309 -550
-370 -481 -325 -578 -390 -720 -485 -85 -56 -159 -106 -164 -110 -8 -8 40 -81
178 -272 39 -54 103 -142 141 -196 l70 -99 260 175 c143 97 348 235 455 307
107 72 328 221 490 330 264 177 590 398 708 477 l43 29 -34 47 c-19 26 -47 66
-63 88 -43 61 -147 207 -156 219 -5 6 -38 51 -73 102 -36 51 -69 94 -73 96 -4
3 -34 -14 -67 -37z"/>
<path d="M16996 20572 c-27 -43 -68 -106 -91 -142 -204 -314 -215 -334 -203
-346 7 -6 51 -38 98 -69 206 -140 235 -160 238 -167 2 -5 8 -8 13 -8 5 0 40
-22 79 -50 39 -27 72 -50 75 -50 3 0 11 -5 18 -11 12 -11 108 -76 507 -347
118 -80 231 -157 251 -171 20 -14 45 -32 55 -39 11 -7 131 -89 269 -182 137
-94 252 -170 256 -170 7 0 363 510 357 514 -1 1 -34 25 -73 53 -38 27 -95 67
-125 88 -30 21 -116 81 -190 134 -74 52 -158 111 -187 130 -28 20 -122 86
-207 146 -200 140 -556 391 -576 405 -13 9 -101 71 -425 298 -38 27 -75 52
-80 55 -6 3 -32 -29 -59 -71z"/>
<path d="M7278 20594 c-2 -1 -21 -5 -43 -8 -135 -16 -351 -91 -554 -190 -113
-55 -444 -249 -759 -443 -56 -34 -107 -63 -112 -63 -6 0 -10 -4 -10 -9 0 -5
-8 -11 -17 -14 -10 -4 -61 -33 -113 -66 -52 -33 -149 -93 -215 -133 -66 -40
-124 -76 -130 -81 -9 -7 -389 -242 -495 -307 -25 -15 -247 -154 -494 -309
-246 -154 -452 -281 -456 -281 -5 0 -10 -3 -12 -8 -1 -4 -93 -63 -203 -132
-110 -68 -236 -147 -280 -175 -44 -29 -271 -173 -505 -320 -234 -148 -528
-334 -654 -414 l-229 -146 -578 -1735 c-318 -953 -577 -1735 -576 -1736 1 -1
36 -5 77 -8 41 -4 86 -8 100 -10 14 -3 65 -7 114 -11 50 -4 97 -8 105 -10 9
-1 51 -6 93 -10 43 -3 90 -8 105 -10 16 -2 60 -6 98 -9 39 -4 86 -9 105 -11
19 -3 62 -7 95 -10 78 -6 144 -12 225 -21 101 -10 110 -11 195 -18 44 -4 91
-9 105 -11 14 -2 57 -6 95 -10 39 -3 86 -8 105 -10 19 -2 62 -7 95 -10 33 -3
85 -7 115 -10 30 -3 75 -8 100 -10 25 -3 72 -7 105 -10 33 -3 83 -8 110 -11
48 -5 71 -7 195 -19 30 -3 75 -8 100 -10 25 -2 72 -7 105 -10 33 -3 76 -7 95
-10 33 -3 103 -10 215 -21 28 -2 93 -8 145 -14 52 -5 124 -12 160 -15 36 -4
81 -8 100 -10 19 -2 67 -7 105 -10 39 -4 81 -8 95 -10 14 -2 61 -7 105 -10 44
-4 83 -9 88 -12 7 -4 67 30 272 156 61 37 180 111 265 163 195 120 288 177
497 307 93 58 231 144 308 191 77 48 204 127 282 176 178 111 202 126 310 193
49 30 111 68 138 86 28 18 167 106 310 195 399 251 919 581 1250 795 155 100
804 532 885 588 52 37 103 72 114 79 39 27 221 162 226 167 3 3 27 23 53 44
323 260 450 675 347 1132 -17 73 -49 164 -68 192 -11 15 -53 80 -93 143 -75
116 -511 770 -565 846 -16 23 -56 79 -88 125 -65 92 -286 398 -298 414 -5 6
-45 57 -89 115 -176 230 -283 356 -403 475 -127 126 -169 160 -281 224 -162
93 -300 130 -476 129 -60 0 -110 -2 -111 -4z"/>
<path d="M14285 20463 c-91 -14 -216 -55 -260 -86 -39 -27 -231 -204 -319
-293 -226 -231 -453 -497 -648 -763 -77 -105 -358 -517 -358 -525 0 -3 -26
-47 -58 -98 -32 -51 -61 -100 -65 -108 -4 -8 -13 -24 -20 -35 -19 -32 -87
-153 -135 -240 -73 -135 -238 -478 -250 -520 -10 -38 -36 -176 -50 -275 -10
-63 -9 -356 1 -407 35 -187 128 -319 347 -493 81 -64 134 -112 230 -204 230
-222 733 -557 1820 -1214 41 -25 89 -53 105 -62 17 -10 152 -88 300 -175 149
-86 288 -167 310 -179 22 -13 112 -63 200 -113 160 -90 191 -107 360 -200 220
-121 297 -163 535 -288 212 -111 771 -385 786 -385 2 0 37 -15 76 -33 40 -18
105 -46 143 -61 39 -16 84 -34 100 -41 40 -17 237 -83 267 -89 13 -3 52 -12
87 -20 36 -8 104 -13 155 -12 103 2 145 19 248 98 31 23 82 59 114 78 32 19
120 96 194 170 196 195 313 330 550 639 194 252 466 664 602 911 194 351 296
580 362 809 25 87 26 97 26 383 0 285 -1 295 -25 362 -47 134 -155 283 -260
358 -22 16 -58 46 -80 67 -123 115 -477 382 -831 627 -185 127 -678 455 -751
499 -27 17 -223 142 -518 331 -189 121 -862 532 -1170 714 -104 62 -229 137
-278 166 -48 30 -89 54 -91 54 -2 0 -66 37 -142 81 -153 90 -255 148 -414 237
-30 16 -75 42 -100 56 -104 59 -296 148 -411 189 -246 89 -487 121 -684 90z"/>
<path d="M10503 16016 l4 -324 -335 -1 c-184 0 -338 -3 -341 -6 -3 -4 -6 -32
-7 -63 -1 -31 -5 -185 -9 -342 -5 -157 -9 -312 -9 -345 l-1 -59 345 -1 345 0
3 -345 2 -345 -78 -47 c-248 -149 -447 -383 -527 -622 -58 -175 -75 -433 -40
-617 35 -185 155 -393 317 -550 15 -14 42 -43 59 -65 28 -36 30 -43 25 -94 -7
-66 -10 -82 -43 -183 l-25 -79 -57 7 c-86 9 -453 55 -481 59 -32 6 -91 15
-132 20 -57 8 -133 19 -143 22 -5 1 -30 5 -55 8 -25 4 -52 9 -60 11 -8 3 -32
7 -54 9 -21 3 -46 8 -55 10 -9 3 -32 7 -51 10 -67 10 -332 65 -510 106 -52 12
-102 23 -110 25 -8 2 -61 15 -116 29 -56 15 -110 29 -120 31 -11 2 -46 12 -79
21 -33 9 -68 18 -77 19 -38 8 -509 142 -758 216 -248 75 -412 121 -470 133
-14 3 -77 16 -140 30 -155 33 -162 34 -455 71 -242 31 -685 22 -936 -20 -13
-2 -42 -6 -64 -10 -22 -3 -47 -7 -55 -10 -8 -2 -31 -6 -51 -9 -19 -3 -62 -13
-95 -21 -32 -9 -69 -18 -80 -21 -36 -7 -225 -70 -299 -99 -147 -59 -368 -187
-489 -285 -32 -25 -148 -134 -167 -155 -10 -11 -28 -31 -40 -45 -113 -131
-243 -411 -275 -596 -2 -13 -6 -36 -9 -51 -5 -25 -17 -109 -30 -198 -27 -185
-22 -669 9 -910 14 -106 18 -131 26 -170 5 -22 12 -56 15 -75 20 -116 98 -353
172 -525 60 -138 216 -448 243 -480 4 -5 23 -37 41 -70 18 -33 102 -175 187
-315 247 -409 252 -417 252 -423 0 -3 18 -34 39 -69 81 -133 306 -614 315
-673 1 -5 4 -14 7 -20 29 -49 174 -544 209 -710 4 -22 15 -72 23 -110 28 -124
67 -351 83 -475 4 -30 8 -64 9 -75 2 -11 6 -45 9 -75 4 -30 9 -71 11 -90 8
-68 24 -308 25 -378 l0 -43 468 6 c455 5 858 9 1837 20 590 6 1263 14 1825 20
234 3 637 7 895 10 259 3 664 7 900 10 237 2 657 7 935 10 1080 12 1400 15
1815 20 237 2 660 7 940 10 928 10 1318 15 1321 18 1 1 5 88 9 192 3 105 8
210 10 235 2 25 6 83 10 130 3 47 8 103 11 125 2 22 7 63 10 90 3 28 7 70 10
95 5 41 30 205 40 255 2 11 9 47 15 80 50 273 303 794 653 1343 50 78 96 150
101 160 6 9 12 19 15 22 8 8 38 66 150 285 195 386 342 771 434 1140 28 114
71 341 81 430 4 33 9 74 11 90 8 62 16 244 17 350 0 224 -26 442 -80 680 -2
11 -6 29 -8 41 -7 31 -84 276 -95 299 -5 11 -26 61 -46 110 -124 306 -267 508
-469 660 -153 115 -462 229 -720 263 -70 10 -359 8 -445 -2 -25 -2 -72 -8
-105 -11 -33 -3 -71 -8 -85 -10 -14 -2 -47 -6 -75 -10 -85 -10 -387 -58 -445
-70 -14 -3 -38 -7 -55 -10 -16 -3 -52 -10 -80 -15 -91 -18 -100 -20 -125 -25
-14 -3 -99 -21 -190 -41 -91 -19 -176 -38 -190 -40 -14 -3 -43 -10 -65 -16
-22 -5 -47 -11 -55 -13 -42 -8 -121 -32 -285 -85 -303 -98 -656 -195 -914
-251 -51 -11 -102 -23 -112 -25 -44 -9 -69 -15 -169 -35 -58 -11 -116 -22
-130 -24 -14 -2 -104 -17 -200 -34 -195 -33 -200 -33 -425 -61 -235 -29 -223
-28 -398 -45 -115 -11 -261 -18 -367 -19 -108 -1 -115 0 -116 19 -1 18 -5 47
-19 155 -3 19 -7 58 -10 86 l-6 50 53 36 c310 209 469 681 392 1168 -9 61 -56
193 -94 266 -68 131 -159 236 -290 336 -70 53 -223 138 -249 138 -7 0 -11 22
-11 58 -2 409 -1 665 3 669 3 2 164 5 359 6 l353 2 0 390 0 390 -125 2 c-69 1
-219 3 -333 4 -118 1 -211 7 -214 12 -3 5 -5 151 -4 323 l1 314 -360 0 -361 0
4 -324z m-4143 -3957 c598 -37 1200 -171 1665 -372 293 -126 593 -310 890
-546 156 -123 454 -422 582 -583 328 -411 539 -859 612 -1300 35 -212 43 -366
48 -953 7 -785 -8 -1028 -78 -1256 -105 -344 -231 -525 -431 -623 -189 -92
-360 -98 -720 -26 -310 62 -487 159 -558 303 -63 129 -120 424 -120 626 l0
121 28 7 c15 5 161 7 325 7 l297 -2 0 333 0 333 -217 0 c-289 0 -452 27 -560
93 -106 66 -208 305 -245 577 -11 80 -15 93 -33 97 -40 8 -625 38 -631 32 -4
-3 11 -159 33 -347 21 -187 37 -343 34 -345 -2 -3 -167 -5 -367 -5 l-362 0 -6
-82 c-3 -46 -8 -196 -12 -334 l-6 -252 338 -5 c194 -2 367 -10 404 -16 98 -18
222 -76 279 -130 113 -107 190 -369 162 -552 -37 -243 -210 -362 -526 -361
-107 0 -147 5 -228 26 -550 143 -1077 714 -1576 1706 -243 482 -639 1382 -772
1752 -87 244 -141 515 -140 707 1 274 94 572 239 767 259 349 687 577 1152
614 102 8 237 5 500 -11z m9659 -10 c190 -32 426 -121 586 -221 147 -93 326
-259 418 -389 97 -138 145 -259 191 -481 38 -182 33 -387 -15 -651 -48 -266
-249 -769 -699 -1742 -450 -976 -905 -1594 -1385 -1884 -201 -122 -360 -171
-575 -178 -224 -8 -331 26 -430 134 -79 86 -94 139 -95 318 0 131 3 158 23
217 46 132 159 271 264 322 76 37 140 44 537 58 l353 12 -6 185 c-4 102 -9
252 -12 334 l-6 147 -364 0 c-199 0 -365 3 -367 8 -3 4 13 159 35 346 21 186
37 341 34 344 -5 5 -595 -26 -632 -34 -18 -3 -23 -13 -29 -61 -27 -222 -93
-421 -178 -541 -86 -120 -265 -165 -644 -164 l-213 1 0 -334 0 -333 303 1
c166 1 314 -1 330 -6 l27 -7 0 -111 c0 -188 -59 -505 -117 -627 -78 -165 -309
-278 -694 -337 -246 -37 -393 -30 -539 26 -212 82 -361 275 -470 609 -75 230
-93 455 -93 1150 -1 825 27 1110 143 1460 147 448 395 835 790 1231 326 328
646 561 1039 758 521 261 1202 420 1971 460 207 11 372 4 519 -20z"/>
<path d="M8045 15125 c-22 -11 -92 -57 -490 -320 -491 -324 -667 -440 -970
-639 -251 -165 -373 -246 -394 -262 -2 -2 13 -32 33 -68 84 -151 229 -315 397
-450 77 -61 330 -236 343 -236 3 0 38 -19 78 -43 91 -53 312 -162 449 -220
113 -48 141 -59 149 -62 3 -1 16 -6 30 -12 149 -62 661 -232 747 -249 12 -2
35 -9 50 -15 16 -6 46 -14 68 -19 22 -4 72 -17 110 -28 63 -18 293 -74 355
-86 14 -3 43 -10 65 -15 22 -5 54 -12 70 -14 17 -3 41 -8 55 -11 14 -3 36 -8
50 -10 14 -2 42 -7 64 -11 l39 -8 -73 139 c-40 77 -90 171 -110 209 -144 269
-537 1077 -653 1340 -19 44 -46 105 -60 135 -13 30 -44 100 -67 155 -24 55
-52 120 -63 145 -38 87 -150 376 -201 520 -48 136 -52 145 -71 135z"/>
<path d="M13601 14998 c-26 -137 -95 -392 -151 -558 -193 -578 -466 -1103
-880 -1694 -43 -61 -182 -241 -243 -314 l-69 -84 38 6 c40 6 289 52 334 61 14
3 36 7 50 10 97 19 353 78 498 116 743 192 1352 451 1778 755 248 177 445 376
545 552 l29 52 -58 38 c-32 20 -206 126 -387 235 -182 109 -415 251 -520 314
-104 64 -203 124 -220 133 -96 55 -702 423 -709 431 -18 17 -23 9 -35 -53z"/>
<path d="M5377 4833 c-2 -5 -3 -141 -1 -303 1 -162 3 -367 3 -456 l1 -160
5464 0 5464 0 0 463 0 463 -5463 0 c-3005 0 -5466 -3 -5468 -7z"/>
<path d="M6434 3282 c-89 -119 -301 -404 -471 -632 -170 -228 -383 -514 -473
-635 -90 -121 -216 -290 -280 -375 -64 -85 -122 -164 -127 -175 -10 -19 11
-35 280 -207 161 -102 495 -315 742 -473 248 -158 524 -334 615 -392 91 -58
241 -153 335 -213 95 -61 175 -106 181 -102 16 9 88 115 154 227 29 50 63 106
75 125 13 19 37 62 55 95 18 33 67 123 110 200 42 77 96 176 120 220 23 44 55
103 70 130 15 28 58 109 95 180 37 72 85 162 105 200 189 357 1030 2018 1030
2035 0 6 -491 9 -1227 9 l-1228 0 -161 -217z"/>
<path d="M12661 3462 c11 -20 30 -53 41 -72 40 -66 155 -275 218 -395 34 -66
84 -160 110 -210 197 -373 815 -1609 1294 -2588 32 -64 61 -119 65 -121 4 -3
101 56 216 131 116 74 222 143 236 152 292 183 1629 1048 1629 1054 0 4 -22
38 -49 75 -49 68 -311 469 -311 476 0 3 -18 32 -40 65 -22 33 -40 62 -40 65 0
2 -18 32 -40 65 -22 33 -40 62 -40 65 0 2 -37 64 -81 138 -45 73 -93 153 -107
178 -13 25 -28 50 -32 55 -5 6 -39 64 -78 130 -115 199 -327 567 -354 615 -14
25 -39 71 -57 102 l-33 57 -1284 1 -1284 0 21 -38z"/>
</g>
</svg>
