<?xml version="1.0" standalone="no"?>
<!DOCTYPE svg PUBLIC "-//W3C//DTD SVG 20010904//EN"
 "http://www.w3.org/TR/2001/REC-SVG-20010904/DTD/svg10.dtd">
<svg version="1.0" xmlns="http://www.w3.org/2000/svg"
 width="1024.000000pt" height="1024.000000pt" viewBox="0 0 1024.000000 1024.000000"
 preserveAspectRatio="xMidYMid meet">
<metadata>
Created by potrace 1.11, written by Peter Selinger 2001-2013
</metadata>
<g transform="translate(0.000000,1024.000000) scale(0.100000,-0.100000)"
fill="#000000" stroke="none">
<path d="M6912 9911 l-612 -276 0 -857 c0 -625 -3 -858 -11 -858 -6 0 -160 24
-343 54 -182 30 -343 56 -358 58 -23 2 -87 -46 -402 -305 -213 -174 -384 -307
-395 -307 -11 0 -225 34 -476 75 -251 41 -463 75 -470 75 -6 0 -116 -85 -243
-190 -128 -104 -235 -190 -240 -190 -4 0 -97 334 -206 743 -109 408 -202 746
-207 751 -6 7 -1201 207 -1301 218 -22 3 -114 -68 -546 -422 l-519 -425 13
-50 c140 -535 1755 -6540 1761 -6546 12 -12 2926 -1432 2938 -1432 6 0 512
227 1125 503 613 277 1520 686 2015 909 l900 406 3 1931 2 1930 -295 133 -295
134 0 1831 0 1831 -532 240 c-293 132 -569 256 -613 276 l-81 36 -612 -276z
m1060 -292 c238 -105 436 -195 441 -198 4 -4 6 -783 5 -1730 l-3 -1724 -193
162 c-107 88 -206 169 -220 179 -39 27 -454 212 -475 212 -10 0 -73 -25 -139
-55 -67 -30 -122 -54 -123 -52 -1 1 -54 202 -118 447 -182 702 -249 955 -253
959 -2 2 -61 14 -132 25 l-127 22 -2 774 -2 775 437 197 c240 108 445 197 454
197 9 1 212 -85 450 -190z m-5748 -1149 c248 -38 454 -74 458 -78 9 -9 378
-1411 378 -1436 0 -8 -58 -63 -130 -122 -71 -59 -130 -114 -130 -122 0 -15
306 -1193 587 -2262 74 -283 168 -639 207 -790 l72 -275 404 -66 c223 -36 517
-85 653 -108 136 -22 255 -41 265 -41 16 0 114 78 555 442 l167 138 0 -953 0
-953 413 -186 c226 -102 541 -244 699 -314 157 -71 283 -132 280 -136 -4 -4
-153 -73 -332 -153 -179 -81 -583 -264 -898 -406 l-573 -259 -1227 596 c-675
329 -1273 619 -1330 647 -66 31 -107 57 -113 71 -7 17 -202 741 -548 2036 -11
41 -65 244 -121 450 -108 402 -260 969 -716 2669 -234 875 -285 1075 -273
1082 8 4 178 143 379 308 329 270 368 299 395 295 17 -2 232 -36 479 -74z
m3921 -866 c259 -42 473 -79 477 -83 9 -8 333 -1250 327 -1254 -2 -2 -202 -93
-444 -202 -242 -108 -520 -234 -617 -278 l-178 -80 -2 -467 -3 -468 -253 967
c-139 531 -282 1077 -318 1214 l-65 247 28 24 c177 148 559 456 568 456 5 0
222 -34 480 -76z m-1831 -443 c197 -33 362 -63 366 -68 4 -4 31 -98 59 -208
44 -174 116 -448 378 -1450 30 -115 124 -478 209 -805 85 -327 157 -602 159
-610 4 -11 -85 -89 -287 -255 -228 -187 -298 -239 -318 -237 -34 3 -943 151
-946 155 -3 2 -150 568 -665 2546 -49 189 -89 351 -89 361 0 18 742 630 763
630 7 0 173 -27 371 -59z m3961 -1339 l725 -327 -3 -1718 -2 -1718 -730 -329
c-401 -182 -734 -330 -740 -330 -5 0 -338 148 -740 329 l-730 329 -2 1719 -3
1718 733 331 c417 189 740 330 750 327 10 -2 344 -152 742 -331z"/>
</g>
</svg>
