<?xml version="1.0" encoding="UTF-8"?>
<svg xmlns="http://www.w3.org/2000/svg" xmlns:xlink="http://www.w3.org/1999/xlink" width="1457px" height="400px" viewBox="0 0 1459 400" version="1.1">
<g id="surface1">
<path style=" stroke:none;fill-rule:nonzero;fill:rgb(0%,0%,0%);fill-opacity:1;" d="M 144.414062 3.203125 C 141.097656 4.347656 136.523438 6.636719 134.121094 8.351562 C 131.722656 10.070312 102.222656 39.015625 68.492188 72.882812 C 20.351562 121.28125 6.632812 135.699219 4.460938 140.160156 C 0.457031 148.511719 0.113281 161.785156 3.429688 171.050781 C 5.832031 177.574219 8.804688 180.777344 67.917969 240.046875 C 101.878906 274.257812 131.835938 303.660156 134.351562 305.378906 C 148.1875 314.988281 167.167969 314.300781 180.089844 303.890625 L 183.519531 301.03125 L 111.484375 228.949219 L 39.449219 156.75 L 97.761719 98.398438 L 156.078125 40.046875 L 272.703125 156.75 L 224.679688 204.804688 L 238.402344 218.535156 L 252.238281 232.378906 L 279.109375 205.148438 C 303.804688 180.320312 306.320312 177.34375 308.609375 171.050781 C 312.039062 162.015625 312.039062 151.601562 308.722656 142.449219 C 306.320312 135.925781 303.347656 132.722656 242.519531 71.855469 C 186.035156 15.21875 178.144531 7.78125 172.199219 5.035156 C 163.28125 0.914062 152.644531 0.230469 144.414062 3.203125 Z M 144.414062 3.203125 "/>
<path style=" stroke:none;fill-rule:nonzero;fill:rgb(0%,0%,0%);fill-opacity:1;" d="M 252.007812 2.175781 C 246.75 3.433594 238.402344 7.78125 236 10.410156 C 233.941406 12.699219 234.859375 13.617188 305.863281 84.667969 L 377.898438 156.75 L 319.242188 215.332031 L 260.699219 274.027344 L 202.15625 215.445312 L 143.5 156.75 L 191.523438 108.695312 L 178.03125 95.308594 L 164.652344 81.808594 L 138.351562 108.125 C 107.253906 139.128906 105.765625 141.417969 105.765625 156.75 C 105.765625 174.371094 103.25 171.394531 174.714844 242.792969 C 246.0625 314.300781 243.089844 311.785156 260.699219 311.785156 C 277.394531 311.785156 274.304688 314.300781 347.253906 241.191406 L 411.402344 176.773438 L 413.800781 168.878906 C 415.175781 164.644531 416.203125 159.152344 416.203125 156.863281 C 416.203125 151.144531 413.230469 141.304688 409.914062 136.269531 C 406.828125 131.464844 284.480469 9.269531 280.023438 6.636719 C 272.703125 2.058594 260.46875 0.230469 252.007812 2.175781 Z M 252.007812 2.175781 "/>
<path style=" stroke:none;fill-rule:nonzero;fill:rgb(0%,0%,0%);fill-opacity:1;" d="M 577.425781 3.316406 C 536.835938 12.015625 503.445312 40.960938 489.382812 79.75 C 482.636719 98.628906 482.523438 99.886719 482.523438 202.746094 C 482.523438 292.5625 482.636719 296.566406 484.695312 300.6875 C 492.355469 315.675781 511.105469 316.363281 519.109375 302.058594 L 521.96875 296.910156 L 522.542969 200.230469 C 523.113281 104.234375 523.113281 103.546875 525.628906 96.910156 C 533.175781 77.230469 545.867188 61.328125 561.417969 52.289062 C 574.339844 44.851562 584.972656 41.992188 600.867188 41.992188 C 616.644531 41.875 624.992188 43.707031 637.453125 50 C 657.121094 59.839844 670.613281 75.402344 677.816406 96.683594 L 680.90625 105.835938 L 681.476562 202.515625 C 682.046875 296.910156 682.046875 299.3125 684.335938 303.203125 C 687.078125 308.007812 695.082031 312.355469 700.914062 312.355469 C 707.203125 312.355469 714.75 308.007812 717.722656 302.632812 L 720.351562 298.054688 L 720.351562 202.976562 C 720.351562 122.769531 720.125 106.40625 718.636719 98.742188 C 709.261719 49.429688 672.101562 12.242188 622.820312 2.859375 C 610.585938 0.570312 589.660156 0.800781 577.425781 3.316406 Z M 577.425781 3.316406 "/>
<path style=" stroke:none;fill-rule:nonzero;fill:rgb(0%,0%,0%);fill-opacity:1;" d="M 885.578125 2.402344 C 870.484375 4.578125 850.585938 12.242188 838.011719 20.710938 C 810.226562 39.359375 792.160156 66.589844 786.097656 98.855469 C 784.5 107.324219 784.269531 116.476562 784.726562 161.097656 C 785.183594 220.480469 785.296875 221.167969 795.359375 242.449219 C 801.992188 256.636719 808.394531 265.21875 820.859375 277.117188 C 837.324219 292.90625 854.820312 302.402344 878.03125 308.582031 C 892.4375 312.472656 917.933594 312.929688 933.027344 309.726562 C 959.785156 304.003906 978.992188 294.050781 996.03125 277.003906 C 1016.726562 256.179688 1028.273438 229.0625 1021.757812 216.476562 C 1017.640625 208.582031 1008.035156 203.890625 1000.148438 206.0625 C 993.402344 207.894531 989.285156 212.355469 983.222656 224.597656 C 976.476562 238.214844 970.875 245.539062 961.269531 253.777344 C 946.863281 266.132812 928.453125 272.539062 907.300781 272.539062 C 892.324219 272.65625 883.519531 270.59375 871.285156 264.1875 C 853.789062 255.148438 839.152344 240.960938 831.835938 225.972656 C 827.492188 217.277344 823.945312 204.804688 825.316406 203.546875 C 825.777344 203.089844 870.253906 187.183594 924.222656 168.078125 L 1022.214844 133.410156 L 1022.214844 120.59375 C 1022.214844 84.667969 1007.121094 51.945312 980.136719 29.175781 C 954.523438 7.664062 919.078125 -2.402344 885.578125 2.402344 Z M 923.539062 44.164062 C 944.121094 49.3125 964.816406 66.019531 973.960938 84.667969 C 979.449219 95.765625 982.082031 104.691406 980.480469 106.292969 C 979.109375 107.550781 826.574219 161.328125 824.402344 161.328125 C 823.261719 161.328125 823.144531 155.835938 823.601562 134.667969 C 824.175781 104.691406 825.089844 100.113281 832.636719 84.667969 C 841.210938 67.164062 859.507812 51.601562 878.714844 45.308594 C 891.863281 41.074219 909.589844 40.617188 923.539062 44.164062 Z M 923.539062 44.164062 "/>
<path style=" stroke:none;fill-rule:nonzero;fill:rgb(0%,0%,0%);fill-opacity:1;" d="M 1115.402344 2.746094 C 1110.601562 4.917969 1106.257812 10.070312 1104.539062 15.445312 C 1102.484375 21.625 1103.625 293.9375 1105.683594 299.199219 C 1108.542969 306.75 1116.316406 312.355469 1123.980469 312.355469 C 1131.527344 312.355469 1139.414062 306.75 1142.160156 299.429688 C 1143.074219 297.253906 1143.417969 252.632812 1143.417969 156.980469 C 1143.417969 24.027344 1143.300781 17.503906 1141.246094 13.15625 C 1136.441406 2.746094 1125.351562 -1.714844 1115.402344 2.746094 Z M 1115.402344 2.746094 "/>
<path style=" stroke:none;fill-rule:nonzero;fill:rgb(0%,0%,0%);fill-opacity:1;" d="M 1322.820312 2.289062 C 1306.125 5.148438 1287.257812 12.585938 1273.652344 21.738281 C 1264.277344 28.144531 1249.984375 41.875 1242.78125 51.601562 C 1236.035156 60.753906 1227.914062 77.460938 1224.597656 89.246094 C 1221.285156 100.800781 1219.683594 145.082031 1221.054688 186.15625 C 1221.96875 213.15625 1222.3125 216.589844 1225.171875 225.972656 C 1237.863281 269.109375 1274.796875 302.058594 1319.503906 310.527344 C 1331.507812 312.816406 1353.234375 312.816406 1365.238281 310.527344 C 1405.601562 302.859375 1440.363281 276.429688 1453.855469 242.90625 C 1457.511719 233.753906 1458.769531 222.425781 1456.714844 217.390625 C 1453.398438 209.269531 1442.761719 203.777344 1434.644531 206.0625 C 1427.785156 207.894531 1423.441406 212.816406 1417.035156 225.515625 C 1407.890625 243.707031 1396.914062 255.378906 1381.246094 263.617188 C 1340.199219 285.242188 1287.832031 268.304688 1268.050781 227.117188 C 1260.730469 211.785156 1260.617188 210.753906 1260.617188 156.75 C 1260.617188 102.402344 1260.730469 101.714844 1268.390625 85.8125 C 1272.164062 77.917969 1275.023438 74.140625 1283.484375 65.675781 C 1292.289062 56.75 1295.378906 54.460938 1304.640625 49.886719 C 1319.160156 42.792969 1326.476562 41.074219 1341.800781 41.074219 C 1376.332031 41.074219 1403.203125 57.894531 1418.066406 88.902344 C 1420.582031 94.050781 1424.125 99.65625 1425.957031 101.144531 C 1437.390625 110.753906 1456.714844 100.800781 1456.714844 85.242188 C 1456.714844 79.175781 1451.566406 64.757812 1446.195312 55.605469 C 1437.273438 40.390625 1419.09375 24.140625 1400.914062 14.988281 C 1390.964844 9.953125 1375.644531 5.035156 1363.640625 2.859375 C 1353.121094 1.03125 1331.964844 0.800781 1322.820312 2.289062 Z M 1322.820312 2.289062 "/>
<path style=" stroke:none;fill-rule:nonzero;fill:rgb(0%,0%,0%);fill-opacity:1;" d="M 63.230469 364.988281 C 61.859375 365.5625 59.914062 367.277344 58.886719 368.878906 C 54.539062 375.515625 55.914062 394.050781 60.945312 397.597656 C 64.832031 400.230469 70.089844 399.769531 73.292969 396.339844 C 75.695312 393.820312 76.039062 392.105469 76.378906 383.980469 C 76.953125 372.882812 74.894531 366.703125 70.320312 364.988281 C 66.777344 363.617188 66.546875 363.617188 63.230469 364.988281 Z M 70.207031 370.9375 C 72.265625 373.796875 72.722656 387.070312 71.007812 391.648438 C 69.519531 395.652344 66.433594 396.453125 63.574219 393.59375 C 61.628906 391.648438 61.289062 389.816406 61.171875 382.378906 C 61.171875 372.769531 62.773438 368.421875 66.316406 368.421875 C 67.460938 368.421875 69.292969 369.566406 70.207031 370.9375 Z M 70.207031 370.9375 "/>
<path style=" stroke:none;fill-rule:nonzero;fill:rgb(0%,0%,0%);fill-opacity:1;" d="M 218.734375 365.21875 C 214.277344 367.390625 212.445312 373.339844 212.902344 383.867188 C 213.246094 392.105469 213.589844 393.820312 215.992188 396.339844 C 221.136719 401.714844 229.941406 399.429688 231.65625 392.21875 C 232.226562 389.472656 232 389.015625 229.941406 389.015625 C 228.570312 389.015625 227.539062 389.703125 227.539062 390.503906 C 227.539062 393.019531 223.539062 395.996094 221.367188 395.195312 C 220.222656 394.738281 218.851562 393.136719 218.277344 391.648438 C 216.792969 387.644531 217.019531 375.171875 218.734375 371.855469 C 220.792969 367.847656 224.910156 367.503906 226.625 371.167969 C 227.882812 374.027344 232.113281 375.402344 232.113281 372.996094 C 232.113281 370.367188 229.371094 366.246094 226.738281 365.101562 C 223.421875 363.617188 222.050781 363.617188 218.734375 365.21875 Z M 218.734375 365.21875 "/>
<path style=" stroke:none;fill-rule:nonzero;fill:rgb(0%,0%,0%);fill-opacity:1;" d="M 561.761719 364.988281 C 556.957031 366.933594 555.359375 373.796875 558.671875 378.488281 C 559.589844 379.863281 562.445312 382.035156 564.847656 383.296875 C 569.535156 385.699219 571.136719 388.671875 569.992188 392.335938 C 568.507812 397.023438 561.875 396.566406 560.730469 391.648438 C 559.703125 387.871094 556.15625 388.558594 556.617188 392.449219 C 557.300781 399.199219 567.136719 401.714844 572.28125 396.453125 C 577.195312 391.648438 575.023438 382.609375 568.390625 379.863281 C 560.960938 376.773438 558.789062 369.335938 565.078125 368.648438 C 567.59375 368.304688 568.507812 368.878906 569.421875 371.167969 C 570.792969 374.941406 573.996094 375.058594 573.996094 371.511719 C 573.996094 366.476562 567.019531 362.816406 561.761719 364.988281 Z M 561.761719 364.988281 "/>
<path style=" stroke:none;fill-rule:nonzero;fill:rgb(0%,0%,0%);fill-opacity:1;" d="M 727.214844 364.644531 C 721.382812 366.820312 718.292969 376.085938 719.78125 387.300781 C 720.695312 395.421875 724.011719 399.3125 729.957031 399.3125 C 734.300781 399.3125 738.648438 395.195312 738.648438 391.191406 C 738.648438 388.101562 735.332031 388.558594 734.1875 391.761719 C 732.703125 395.539062 729.5 396.453125 726.871094 393.707031 C 725.039062 391.875 724.582031 389.929688 724.582031 382.496094 C 724.582031 377.460938 725.269531 372.3125 725.957031 370.824219 C 727.785156 367.621094 731.902344 367.964844 733.503906 371.511719 C 734.875 374.714844 738.648438 375.058594 738.648438 371.96875 C 738.648438 367.277344 731.785156 362.929688 727.214844 364.644531 Z M 727.214844 364.644531 "/>
<path style=" stroke:none;fill-rule:nonzero;fill:rgb(0%,0%,0%);fill-opacity:1;" d="M 965.84375 366.132812 C 961.726562 369.335938 960.128906 375.171875 960.699219 385.011719 C 961.042969 391.992188 961.5 393.9375 963.785156 396.339844 C 968.929688 401.714844 977.734375 399.429688 979.449219 392.21875 C 980.023438 389.472656 979.792969 389.015625 977.851562 389.015625 C 976.363281 389.015625 975.335938 390.046875 974.878906 391.761719 C 973.503906 397.140625 968.246094 396.683594 966.300781 391.074219 C 964.585938 386.269531 964.699219 375.402344 966.53125 371.855469 C 968.359375 368.078125 973.164062 367.964844 974.761719 371.511719 C 975.792969 374.027344 979.910156 375.285156 979.910156 372.996094 C 979.910156 370.367188 977.164062 366.246094 974.535156 365.101562 C 970.648438 363.386719 969.160156 363.5 965.84375 366.132812 Z M 965.84375 366.132812 "/>
<path style=" stroke:none;fill-rule:nonzero;fill:rgb(0%,0%,0%);fill-opacity:1;" d="M 1008.492188 365.332031 C 1003.460938 367.847656 1001.40625 373.570312 1001.976562 383.523438 C 1002.433594 393.363281 1004.492188 397.710938 1009.292969 398.855469 C 1017.296875 400.914062 1022.214844 394.507812 1022.214844 381.808594 C 1022.214844 372.425781 1020.042969 366.589844 1015.925781 364.988281 C 1012.152344 363.617188 1011.925781 363.617188 1008.492188 365.332031 Z M 1016.15625 371.855469 C 1017.984375 375.402344 1018.097656 386.269531 1016.382812 391.074219 C 1014.097656 397.710938 1009.179688 397.023438 1007.234375 389.703125 C 1005.75 384.210938 1006.550781 372.539062 1008.609375 370.023438 C 1010.667969 367.621094 1014.441406 368.535156 1016.15625 371.855469 Z M 1016.15625 371.855469 "/>
<path style=" stroke:none;fill-rule:nonzero;fill:rgb(0%,0%,0%);fill-opacity:1;" d="M 1211.222656 364.988281 C 1207.449219 366.476562 1205.277344 370.59375 1204.476562 377.804688 C 1203.5625 385.925781 1205.617188 395.308594 1208.933594 397.597656 C 1212.824219 400.230469 1218.082031 399.769531 1221.285156 396.339844 C 1223.683594 393.820312 1224.027344 392.105469 1224.371094 383.410156 C 1224.828125 371.96875 1223.113281 366.820312 1218.195312 364.988281 C 1214.878906 363.617188 1214.539062 363.617188 1211.222656 364.988281 Z M 1218.195312 370.9375 C 1220.484375 374.140625 1220.597656 388.328125 1218.539062 392.449219 C 1216.480469 396.453125 1213.738281 396.566406 1211.222656 392.90625 C 1208.820312 389.128906 1208.476562 375.058594 1210.648438 370.9375 C 1212.480469 367.734375 1215.910156 367.734375 1218.195312 370.9375 Z M 1218.195312 370.9375 "/>
<path style=" stroke:none;fill-rule:nonzero;fill:rgb(0%,0%,0%);fill-opacity:1;" d="M 1400.914062 364.988281 C 1396.683594 366.820312 1394.738281 373.226562 1395.199219 383.980469 C 1395.539062 392.105469 1395.882812 393.820312 1398.285156 396.339844 C 1401.484375 399.769531 1406.746094 400.34375 1410.632812 397.597656 C 1416.695312 393.363281 1417.152344 372.195312 1411.207031 366.933594 C 1408.574219 364.53125 1404.117188 363.730469 1400.914062 364.988281 Z M 1408.917969 370.9375 C 1409.71875 372.425781 1410.289062 377.460938 1410.289062 382.496094 C 1410.289062 389.816406 1409.832031 391.761719 1408.003906 393.707031 C 1405.144531 396.453125 1402.058594 395.539062 1400.570312 391.648438 C 1398.855469 387.070312 1399.3125 373.796875 1401.371094 370.9375 C 1403.660156 367.734375 1407.089844 367.734375 1408.917969 370.9375 Z M 1408.917969 370.9375 "/>
<path style=" stroke:none;fill-rule:nonzero;fill:rgb(0%,0%,0%);fill-opacity:1;" d="M 13.722656 382.152344 C 13.722656 396.683594 13.949219 399.3125 15.4375 399.3125 C 16.808594 399.3125 17.152344 397.140625 17.152344 386.5 C 17.152344 379.40625 17.609375 374.140625 18.066406 374.714844 C 18.636719 375.402344 21.039062 381.121094 23.441406 387.527344 C 27.328125 397.824219 28.128906 399.3125 30.527344 399.3125 L 33.160156 399.3125 L 33.160156 382.152344 C 33.160156 365.789062 33.042969 364.988281 30.871094 364.988281 C 28.699219 364.988281 28.585938 365.789062 28.585938 377.230469 L 28.472656 389.589844 L 23.667969 377.230469 C 19.550781 366.703125 18.523438 364.988281 16.351562 364.988281 C 13.722656 364.988281 13.722656 365.101562 13.722656 382.152344 Z M 13.722656 382.152344 "/>
<path style=" stroke:none;fill-rule:nonzero;fill:rgb(0%,0%,0%);fill-opacity:1;" d="M 100.621094 382.265625 C 100.621094 398.054688 100.734375 399.429688 102.679688 399.085938 C 104.28125 398.742188 104.738281 397.253906 104.964844 390.960938 C 105.195312 384.554688 105.652344 383.296875 107.367188 383.296875 C 111.367188 383.296875 113.082031 385.925781 113.425781 392.449219 C 113.769531 397.824219 114.113281 398.742188 115.941406 398.742188 C 118 398.742188 118.230469 398.054688 117.886719 391.875 C 117.65625 387.644531 116.855469 384.210938 115.828125 382.953125 C 114.800781 381.921875 114.570312 381.007812 115.140625 381.007812 C 117.085938 381.007812 119.144531 374.714844 118.230469 371.394531 C 117.199219 366.933594 113.542969 364.988281 106.679688 364.988281 L 100.621094 364.988281 Z M 111.367188 369.109375 C 113.882812 370.023438 113.882812 378.261719 111.367188 379.175781 C 106.453125 381.121094 105.195312 380.089844 105.195312 374.140625 C 105.195312 368.191406 106.453125 367.164062 111.367188 369.109375 Z M 111.367188 369.109375 "/>
<path style=" stroke:none;fill-rule:nonzero;fill:rgb(0%,0%,0%);fill-opacity:1;" d="M 141.785156 382.152344 L 141.785156 399.3125 L 146.699219 399.3125 C 153.105469 399.3125 156.761719 397.253906 159.164062 392.449219 C 163.164062 384.554688 161.109375 369.109375 155.734375 366.246094 C 154.359375 365.5625 150.816406 364.988281 147.613281 364.988281 L 141.785156 364.988281 Z M 153.21875 370.480469 C 157.5625 373.914062 157.792969 388.789062 153.675781 393.019531 C 152.644531 393.9375 150.703125 394.738281 149.101562 394.738281 L 146.355469 394.738281 L 146.355469 381.578125 C 146.355469 369.449219 146.472656 368.421875 148.53125 368.421875 C 149.671875 368.421875 151.847656 369.335938 153.21875 370.480469 Z M 153.21875 370.480469 "/>
<path style=" stroke:none;fill-rule:nonzero;fill:rgb(0%,0%,0%);fill-opacity:1;" d="M 184.320312 381.808594 C 184.660156 396.796875 184.890625 398.742188 186.71875 399.085938 C 188.550781 399.429688 188.664062 398.054688 188.664062 382.265625 C 188.664062 365.675781 188.550781 364.988281 186.378906 364.988281 C 184.089844 364.988281 184.089844 365.5625 184.320312 381.808594 Z M 184.320312 381.808594 "/>
<path style=" stroke:none;fill-rule:nonzero;fill:rgb(0%,0%,0%);fill-opacity:1;" d="M 291.570312 382.152344 L 291.570312 399.3125 L 299.460938 399.3125 C 305.179688 399.3125 307.464844 398.855469 307.921875 397.710938 C 308.835938 395.308594 307.695312 394.738281 301.632812 394.738281 L 296.144531 394.738281 L 296.144531 383.410156 L 301.632812 383.066406 C 305.519531 382.835938 307.007812 382.265625 307.007812 381.007812 C 307.007812 379.75 305.519531 379.175781 301.632812 378.949219 L 296.144531 378.605469 L 296.144531 368.421875 L 301.863281 368.421875 C 306.207031 368.421875 307.578125 367.964844 307.578125 366.703125 C 307.578125 365.332031 305.976562 364.988281 299.574219 364.988281 L 291.570312 364.988281 Z M 291.570312 382.152344 "/>
<path style=" stroke:none;fill-rule:nonzero;fill:rgb(0%,0%,0%);fill-opacity:1;" d="M 361.546875 381.808594 C 361.890625 397.824219 362.003906 398.742188 364.179688 398.742188 C 366.351562 398.742188 366.464844 397.824219 366.808594 381.808594 L 367.152344 364.988281 L 361.207031 364.988281 Z M 361.546875 381.808594 "/>
<path style=" stroke:none;fill-rule:nonzero;fill:rgb(0%,0%,0%);fill-opacity:1;" d="M 391.046875 382.265625 C 391.046875 398.054688 391.164062 399.429688 393.105469 399.085938 C 394.707031 398.742188 395.164062 396.910156 395.621094 386.726562 L 396.195312 374.714844 L 400.769531 386.726562 C 404.539062 396.566406 405.796875 398.855469 407.972656 399.085938 C 410.488281 399.429688 410.488281 399.429688 410.488281 382.265625 C 410.488281 365.789062 410.371094 364.988281 408.199219 364.988281 C 406.027344 364.988281 405.914062 365.789062 405.796875 376.660156 L 405.796875 388.445312 L 401.109375 376.660156 C 396.996094 366.476562 396.078125 364.988281 393.679688 364.988281 L 391.046875 364.988281 Z M 391.046875 382.265625 "/>
<path style=" stroke:none;fill-rule:nonzero;fill:rgb(0%,0%,0%);fill-opacity:1;" d="M 435.640625 382.265625 C 435.640625 398.054688 435.757812 399.429688 437.699219 399.085938 C 439.300781 398.742188 439.757812 397.253906 439.988281 390.960938 L 440.328125 383.296875 L 445.359375 383.296875 C 449.707031 383.296875 450.507812 382.953125 450.507812 381.007812 C 450.507812 379.0625 449.707031 378.71875 445.359375 378.71875 L 440.214844 378.71875 L 440.214844 368.421875 L 445.933594 368.421875 C 450.277344 368.421875 451.648438 367.964844 451.648438 366.703125 C 451.648438 365.332031 450.050781 364.988281 443.644531 364.988281 L 435.640625 364.988281 Z M 435.640625 382.265625 "/>
<path style=" stroke:none;fill-rule:nonzero;fill:rgb(0%,0%,0%);fill-opacity:1;" d="M 473.375 382.152344 C 473.375 398.511719 473.488281 399.3125 475.660156 399.3125 C 477.71875 399.3125 477.949219 398.511719 477.949219 391.304688 C 477.949219 383.636719 478.0625 383.296875 480.691406 383.296875 C 485.265625 383.296875 487.09375 386.15625 487.09375 393.136719 C 487.09375 398.511719 487.324219 399.3125 489.382812 399.3125 C 491.328125 399.3125 491.667969 398.511719 491.667969 393.25 C 491.667969 390.046875 490.984375 385.925781 490.070312 384.324219 C 488.8125 381.808594 488.8125 381.007812 490.070312 379.289062 C 492.46875 376.085938 492.011719 369.910156 489.382812 367.277344 C 487.554688 365.445312 485.609375 364.988281 480.234375 364.988281 L 473.375 364.988281 Z M 485.722656 369.792969 C 486.523438 370.59375 487.09375 372.539062 487.09375 374.140625 C 487.09375 378.03125 485.152344 379.863281 481.148438 379.863281 C 478.0625 379.863281 477.949219 379.632812 477.949219 374.140625 C 477.949219 368.648438 478.0625 368.421875 481.148438 368.421875 C 482.863281 368.421875 484.921875 368.992188 485.722656 369.792969 Z M 485.722656 369.792969 "/>
<path style=" stroke:none;fill-rule:nonzero;fill:rgb(0%,0%,0%);fill-opacity:1;" d="M 521.054688 365.789062 C 519.796875 367.847656 513.164062 398.285156 513.738281 398.96875 C 515.453125 400.570312 517.855469 397.941406 518.539062 393.707031 C 519.339844 389.128906 519.453125 389.015625 523.683594 389.015625 C 527.800781 389.015625 528.03125 389.246094 529.289062 394.164062 C 530.316406 398.054688 531.117188 399.3125 532.832031 399.3125 C 534.089844 399.3125 535.117188 399.085938 535.117188 398.742188 C 535.117188 398.398438 533.289062 390.617188 531.003906 381.578125 C 527.113281 366.132812 526.65625 364.988281 524.140625 364.988281 C 522.769531 364.988281 521.285156 365.332031 521.054688 365.789062 Z M 527.113281 384.097656 C 527.113281 384.324219 525.628906 384.4375 523.800781 384.4375 C 520.484375 384.4375 520.484375 384.4375 521.625 379.519531 C 523.570312 371.28125 523.914062 371.050781 525.515625 377.574219 C 526.316406 381.007812 527 383.980469 527.113281 384.097656 Z M 527.113281 384.097656 "/>
<path style=" stroke:none;fill-rule:nonzero;fill:rgb(0%,0%,0%);fill-opacity:1;" d="M 594.578125 366.703125 C 594.578125 367.847656 595.835938 368.421875 598.578125 368.421875 L 602.582031 368.421875 L 602.582031 383.867188 C 602.582031 398.511719 602.695312 399.3125 604.867188 399.3125 C 607.039062 399.3125 607.15625 398.511719 607.15625 383.867188 L 607.15625 368.421875 L 610.585938 368.421875 C 612.871094 368.421875 614.015625 367.847656 614.015625 366.703125 C 614.015625 365.332031 612.183594 364.988281 604.296875 364.988281 C 596.40625 364.988281 594.578125 365.332031 594.578125 366.703125 Z M 594.578125 366.703125 "/>
<path style=" stroke:none;fill-rule:nonzero;fill:rgb(0%,0%,0%);fill-opacity:1;" d="M 635.738281 382.152344 C 635.738281 398.511719 635.855469 399.3125 638.027344 399.3125 C 640.085938 399.3125 640.3125 398.511719 640.3125 391.304688 C 640.3125 383.636719 640.429688 383.296875 643.058594 383.296875 C 647.632812 383.296875 649.460938 386.15625 649.460938 393.136719 C 649.460938 398.511719 649.691406 399.3125 651.746094 399.3125 C 653.691406 399.3125 654.035156 398.511719 654.035156 393.25 C 654.035156 390.046875 653.347656 385.925781 652.433594 384.324219 C 651.175781 381.808594 651.175781 381.007812 652.433594 379.289062 C 654.835938 376.085938 654.378906 369.910156 651.746094 367.277344 C 649.917969 365.445312 647.972656 364.988281 642.601562 364.988281 L 635.738281 364.988281 Z M 648.089844 369.792969 C 648.890625 370.59375 649.460938 372.539062 649.460938 374.140625 C 649.460938 378.03125 647.515625 379.863281 643.515625 379.863281 C 640.429688 379.863281 640.3125 379.632812 640.3125 374.140625 C 640.3125 368.648438 640.429688 368.421875 643.515625 368.421875 C 645.230469 368.421875 647.289062 368.992188 648.089844 369.792969 Z M 648.089844 369.792969 "/>
<path style=" stroke:none;fill-rule:nonzero;fill:rgb(0%,0%,0%);fill-opacity:1;" d="M 677.132812 379.976562 C 677.472656 394.050781 677.589844 395.082031 680.21875 397.140625 C 684.335938 400.457031 690.96875 400 693.941406 396.339844 C 696.113281 393.59375 696.339844 391.761719 696.339844 379.175781 C 696.339844 365.789062 696.226562 364.988281 694.054688 364.988281 C 691.882812 364.988281 691.765625 365.789062 691.765625 379.289062 L 691.765625 393.59375 L 688.792969 394.964844 C 686.164062 396.222656 685.476562 396.109375 683.648438 393.707031 C 681.820312 391.417969 681.476562 389.128906 681.476562 378.03125 C 681.476562 365.5625 681.363281 364.988281 679.074219 364.988281 C 676.789062 364.988281 676.789062 365.445312 677.132812 379.976562 Z M 677.132812 379.976562 "/>
<path style=" stroke:none;fill-rule:nonzero;fill:rgb(0%,0%,0%);fill-opacity:1;" d="M 759.230469 366.703125 C 759.230469 367.847656 760.371094 368.421875 762.660156 368.421875 L 765.976562 368.421875 L 766.316406 383.523438 C 766.660156 396.910156 766.890625 398.742188 768.71875 399.085938 C 770.433594 399.429688 770.664062 398.167969 770.664062 383.980469 L 770.664062 368.421875 L 774.664062 368.421875 C 777.410156 368.421875 778.667969 367.847656 778.667969 366.703125 C 778.667969 365.332031 776.835938 364.988281 768.949219 364.988281 C 761.058594 364.988281 759.230469 365.332031 759.230469 366.703125 Z M 759.230469 366.703125 "/>
<path style=" stroke:none;fill-rule:nonzero;fill:rgb(0%,0%,0%);fill-opacity:1;" d="M 799.25 376.660156 C 799.25 389.929688 800.621094 396.453125 803.820312 398.167969 C 807.480469 400.113281 813.882812 399.542969 816.398438 397.023438 C 818.457031 394.964844 818.6875 393.25 818.6875 379.863281 C 818.6875 365.789062 818.570312 364.988281 816.398438 364.988281 C 814.339844 364.988281 814.113281 365.902344 813.882812 379.40625 C 813.542969 391.761719 813.199219 394.050781 811.597656 395.195312 C 810.109375 396.109375 808.96875 396.109375 807.59375 395.195312 C 805.878906 394.050781 805.539062 391.761719 805.195312 379.40625 L 804.851562 364.988281 L 802.105469 364.988281 C 799.25 364.988281 799.25 364.988281 799.25 376.660156 Z M 799.25 376.660156 "/>
<path style=" stroke:none;fill-rule:nonzero;fill:rgb(0%,0%,0%);fill-opacity:1;" d="M 843.839844 382.265625 C 843.839844 398.054688 843.957031 399.429688 845.898438 399.085938 C 847.5 398.742188 847.957031 397.253906 848.1875 390.960938 C 848.414062 384.554688 848.871094 383.296875 850.585938 383.296875 C 854.589844 383.296875 856.304688 385.925781 856.648438 392.449219 C 856.992188 397.824219 857.335938 398.742188 859.164062 398.742188 C 861.222656 398.742188 861.449219 398.054688 861.105469 391.875 C 860.878906 387.644531 860.078125 384.210938 859.050781 382.953125 C 858.019531 381.921875 857.792969 381.007812 858.363281 381.007812 C 860.308594 381.007812 862.480469 374.597656 861.566406 371.625 C 859.964844 366.363281 857.675781 364.988281 850.472656 364.988281 L 843.839844 364.988281 Z M 855.160156 369.449219 C 856.078125 370.023438 856.761719 372.195312 856.761719 374.140625 C 856.761719 378.03125 855.046875 379.863281 851.046875 379.863281 C 848.644531 379.863281 848.414062 379.289062 848.414062 374.140625 C 848.414062 368.992188 848.644531 368.421875 851.046875 368.421875 C 852.417969 368.421875 854.246094 368.878906 855.160156 369.449219 Z M 855.160156 369.449219 "/>
<path style=" stroke:none;fill-rule:nonzero;fill:rgb(0%,0%,0%);fill-opacity:1;" d="M 885.003906 382.152344 L 885.003906 399.3125 L 892.894531 399.3125 C 900.328125 399.3125 902.15625 398.511719 902.15625 395.195312 C 902.15625 394.964844 899.296875 394.738281 895.867188 394.738281 L 889.578125 394.738281 L 889.578125 383.296875 L 895.296875 383.296875 C 900.210938 383.296875 901.011719 382.953125 901.011719 381.007812 C 901.011719 379.0625 900.210938 378.71875 895.296875 378.71875 L 889.578125 378.71875 L 889.578125 368.421875 L 895.296875 368.421875 C 899.640625 368.421875 901.011719 367.964844 901.011719 366.703125 C 901.011719 365.332031 899.410156 364.988281 893.007812 364.988281 L 885.003906 364.988281 Z M 885.003906 382.152344 "/>
<path style=" stroke:none;fill-rule:nonzero;fill:rgb(0%,0%,0%);fill-opacity:1;" d="M 1045.3125 381.808594 L 1045.65625 398.742188 L 1053.660156 398.742188 C 1060.289062 398.742188 1061.664062 398.398438 1062.003906 396.796875 C 1062.347656 395.082031 1061.433594 394.738281 1056.058594 394.738281 L 1049.65625 394.738281 L 1049.65625 379.863281 C 1049.65625 365.675781 1049.542969 364.988281 1047.371094 364.988281 C 1045.082031 364.988281 1045.082031 365.5625 1045.3125 381.808594 Z M 1045.3125 381.808594 "/>
<path style=" stroke:none;fill-rule:nonzero;fill:rgb(0%,0%,0%);fill-opacity:1;" d="M 1083.042969 381.808594 L 1083.386719 398.742188 L 1091.390625 398.742188 C 1098.023438 398.742188 1099.394531 398.398438 1099.738281 396.796875 C 1100.082031 395.082031 1099.28125 394.738281 1094.363281 394.738281 L 1088.53125 394.738281 L 1088.53125 364.988281 L 1082.703125 364.988281 Z M 1083.042969 381.808594 "/>
<path style=" stroke:none;fill-rule:nonzero;fill:rgb(0%,0%,0%);fill-opacity:1;" d="M 1128.210938 365.789062 C 1126.953125 367.964844 1120.320312 398.285156 1120.890625 398.855469 C 1122.605469 400.570312 1125.007812 397.941406 1125.695312 393.707031 C 1126.496094 389.128906 1126.609375 389.015625 1130.839844 389.015625 C 1134.957031 389.015625 1135.183594 389.246094 1136.441406 394.164062 C 1137.472656 398.167969 1138.273438 399.3125 1140.101562 399.3125 C 1141.703125 399.3125 1142.273438 398.742188 1141.929688 397.253906 C 1141.585938 396.222656 1139.644531 388.445312 1137.699219 380.089844 C 1134.269531 366.132812 1133.8125 364.988281 1131.296875 364.988281 C 1129.925781 364.988281 1128.4375 365.332031 1128.210938 365.789062 Z M 1134.269531 384.097656 C 1134.269531 384.324219 1132.78125 384.4375 1130.953125 384.4375 C 1127.636719 384.4375 1127.636719 384.4375 1128.78125 379.519531 C 1130.726562 371.28125 1131.066406 371.050781 1132.667969 377.574219 C 1133.46875 381.007812 1134.15625 383.980469 1134.269531 384.097656 Z M 1134.269531 384.097656 "/>
<path style=" stroke:none;fill-rule:nonzero;fill:rgb(0%,0%,0%);fill-opacity:1;" d="M 1164 382.265625 L 1164 399.542969 L 1170.972656 399.085938 C 1176.574219 398.628906 1178.519531 398.054688 1180.121094 395.996094 C 1182.75 392.792969 1182.980469 385.925781 1180.691406 382.609375 C 1179.550781 381.121094 1179.433594 379.75 1180.121094 378.605469 C 1180.691406 377.6875 1181.148438 375.058594 1181.148438 372.769531 C 1181.148438 367.164062 1178.0625 364.988281 1170.058594 364.988281 L 1164 364.988281 Z M 1175.203125 369.449219 C 1176.117188 370.023438 1176.574219 371.96875 1176.347656 374.257812 C 1176.003906 377.6875 1175.546875 378.144531 1172.34375 378.488281 C 1168.570312 378.832031 1168.570312 378.832031 1168.570312 373.683594 C 1168.570312 368.992188 1168.800781 368.421875 1171.203125 368.421875 C 1172.574219 368.421875 1174.402344 368.878906 1175.203125 369.449219 Z M 1174.746094 383.296875 C 1177.148438 384.210938 1177.71875 385.125 1177.71875 388.214844 C 1177.71875 392.792969 1176.003906 394.738281 1171.773438 394.738281 C 1168.6875 394.738281 1168.570312 394.621094 1168.570312 388.445312 C 1168.570312 381.695312 1169.257812 381.121094 1174.746094 383.296875 Z M 1174.746094 383.296875 "/>
<path style=" stroke:none;fill-rule:nonzero;fill:rgb(0%,0%,0%);fill-opacity:1;" d="M 1248.609375 382.265625 C 1248.609375 398.054688 1248.726562 399.429688 1250.667969 399.085938 C 1252.269531 398.742188 1252.726562 397.253906 1252.957031 390.960938 C 1253.300781 383.867188 1253.527344 383.296875 1255.816406 383.296875 C 1259.703125 383.296875 1261.1875 385.46875 1261.1875 390.847656 C 1261.1875 397.023438 1262.105469 399.3125 1264.503906 399.3125 C 1266.21875 399.3125 1266.449219 398.285156 1265.992188 392.105469 C 1265.761719 388.214844 1264.960938 384.4375 1264.390625 383.636719 C 1263.703125 382.835938 1263.933594 381.007812 1265.191406 378.71875 C 1267.25 374.714844 1266.792969 370.25 1263.820312 366.933594 C 1262.445312 365.5625 1260.160156 364.988281 1255.242188 364.988281 L 1248.609375 364.988281 Z M 1259.929688 369.449219 C 1260.847656 370.023438 1261.53125 372.195312 1261.53125 374.140625 C 1261.53125 378.03125 1259.816406 379.863281 1255.816406 379.863281 C 1253.414062 379.863281 1253.183594 379.289062 1253.183594 374.140625 C 1253.183594 368.992188 1253.414062 368.421875 1255.816406 368.421875 C 1257.1875 368.421875 1259.015625 368.878906 1259.929688 369.449219 Z M 1259.929688 369.449219 "/>
<path style=" stroke:none;fill-rule:nonzero;fill:rgb(0%,0%,0%);fill-opacity:1;" d="M 1292.0625 380.664062 C 1290.003906 389.359375 1288.058594 397.140625 1287.832031 397.941406 C 1287.488281 398.742188 1288.171875 399.3125 1289.660156 399.3125 C 1291.488281 399.3125 1292.289062 398.167969 1293.320312 394.164062 C 1294.578125 389.246094 1294.804688 389.015625 1298.921875 389.015625 C 1303.152344 389.015625 1303.265625 389.128906 1303.953125 394.164062 C 1304.640625 398.285156 1305.210938 399.3125 1307.039062 399.3125 C 1309.898438 399.3125 1309.785156 398.054688 1305.4375 380.433594 C 1301.894531 366.476562 1301.4375 365.5625 1298.691406 365.21875 C 1295.835938 364.875 1295.71875 365.21875 1292.0625 380.664062 Z M 1301.09375 381.808594 C 1301.207031 383.867188 1300.636719 384.4375 1298.234375 384.4375 C 1296.175781 384.4375 1295.378906 383.980469 1295.835938 382.835938 C 1296.175781 382.035156 1296.863281 378.832031 1297.320312 375.742188 L 1298.234375 370.136719 L 1299.609375 374.714844 C 1300.40625 377.230469 1301.09375 380.433594 1301.09375 381.808594 Z M 1301.09375 381.808594 "/>
<path style=" stroke:none;fill-rule:nonzero;fill:rgb(0%,0%,0%);fill-opacity:1;" d="M 1325.21875 366.703125 C 1325.21875 367.847656 1326.476562 368.421875 1329.222656 368.421875 L 1333.222656 368.421875 L 1333.222656 383.867188 C 1333.222656 398.511719 1333.339844 399.3125 1335.511719 399.3125 C 1337.683594 399.3125 1337.796875 398.511719 1337.796875 383.867188 L 1337.796875 368.421875 L 1341.800781 368.421875 C 1344.542969 368.421875 1345.800781 367.847656 1345.800781 366.703125 C 1345.800781 365.332031 1343.859375 364.988281 1335.511719 364.988281 C 1327.164062 364.988281 1325.21875 365.332031 1325.21875 366.703125 Z M 1325.21875 366.703125 "/>
<path style=" stroke:none;fill-rule:nonzero;fill:rgb(0%,0%,0%);fill-opacity:1;" d="M 1366.382812 382.152344 C 1366.382812 398.511719 1366.496094 399.3125 1368.671875 399.3125 C 1370.84375 399.3125 1370.957031 398.511719 1370.957031 382.152344 C 1370.957031 365.789062 1370.84375 364.988281 1368.671875 364.988281 C 1366.496094 364.988281 1366.382812 365.789062 1366.382812 382.152344 Z M 1366.382812 382.152344 "/>
<path style=" stroke:none;fill-rule:nonzero;fill:rgb(0%,0%,0%);fill-opacity:1;" d="M 1438.417969 382.152344 C 1438.417969 398.511719 1438.53125 399.3125 1440.707031 399.3125 C 1442.878906 399.3125 1442.992188 398.511719 1442.992188 386.382812 L 1443.105469 373.570312 L 1448.023438 386.15625 C 1451.910156 396.222656 1453.511719 398.855469 1455.457031 399.085938 C 1457.855469 399.429688 1457.855469 399.199219 1457.855469 382.265625 C 1457.855469 365.445312 1457.742188 364.988281 1455.457031 364.988281 C 1453.054688 364.988281 1453.054688 365.332031 1453.511719 377.003906 C 1453.855469 383.636719 1453.96875 389.015625 1453.742188 389.015625 C 1453.625 389.015625 1451.339844 383.636719 1448.710938 377.003906 C 1444.480469 366.476562 1443.5625 364.988281 1441.164062 364.988281 L 1438.417969 364.988281 Z M 1438.417969 382.152344 "/>
<path style=" stroke:none;fill-rule:nonzero;fill:rgb(0%,0%,0%);fill-opacity:1;" d="M 329.304688 381.007812 C 329.304688 382.953125 330.105469 383.296875 334.449219 383.296875 C 338.792969 383.296875 339.59375 382.953125 339.59375 381.007812 C 339.59375 379.0625 338.792969 378.71875 334.449219 378.71875 C 330.105469 378.71875 329.304688 379.0625 329.304688 381.007812 Z M 329.304688 381.007812 "/>
</g>
</svg>
