<?xml version="1.0" standalone="no"?>
<!DOCTYPE svg PUBLIC "-//W3C//DTD SVG 20010904//EN"
 "http://www.w3.org/TR/2001/REC-SVG-20010904/DTD/svg10.dtd">
<svg version="1.0" xmlns="http://www.w3.org/2000/svg"
 width="1748.000000pt" height="414.000000pt" viewBox="0 0 1748.000000 414.000000"
 preserveAspectRatio="xMidYMid meet">

<g transform="translate(0.000000,414.000000) scale(0.100000,-0.100000)"
fill="#000000" stroke="none">
<path d="M0 2070 l0 -2070 8740 0 8740 0 0 2070 0 2070 -8740 0 -8740 0 0
-2070z m2355 1740 c238 -27 428 -81 620 -176 406 -201 671 -525 779 -952 57
-222 70 -338 70 -602 0 -264 -13 -380 -70 -602 -110 -435 -381 -761 -799 -963
-265 -128 -533 -179 -940 -179 -407 0 -675 51 -940 179 -418 202 -689 528
-799 963 -56 220 -70 339 -70 597 -1 263 11 365 64 583 112 455 377 781 805
987 218 105 424 153 770 179 80 6 412 -3 510 -14z m3691 -770 c203 -16 373
-49 582 -112 l102 -31 0 -195 c0 -178 -1 -194 -17 -188 -70 27 -367 111 -466
132 -151 31 -368 42 -475 24 -94 -16 -207 -71 -233 -114 -27 -45 -25 -98 7
-136 49 -57 150 -100 516 -215 336 -106 485 -180 608 -305 100 -102 139 -197
140 -340 1 -236 -122 -389 -390 -485 -290 -104 -764 -110 -1134 -15 -61 15
-165 51 -231 78 l-120 50 -3 211 c-1 116 0 211 3 211 3 0 46 -21 96 -46 121
-60 287 -128 379 -154 166 -46 420 -65 542 -39 171 36 294 171 244 267 -38 74
-130 120 -418 207 -100 31 -225 69 -275 85 -357 112 -550 282 -584 513 -37
253 93 434 381 531 189 63 469 88 746 66z m1794 -1025 l0 -1005 -270 0 -270 0
0 1005 0 1005 270 0 270 0 0 -1005z m1680 380 l605 -623 3 624 2 624 270 0
270 0 0 -1005 0 -1005 -224 0 -223 0 -629 657 -629 656 -3 -656 -2 -657 -280
0 -280 0 0 1005 0 1005 258 0 257 -1 605 -624z m3550 445 l0 -180 -395 0 -395
0 0 -825 0 -825 -270 0 -270 0 0 825 0 825 -400 0 -400 0 0 180 0 180 1065 0
1065 0 0 -180z m2000 5 l0 -175 -595 0 -595 0 0 -225 0 -225 540 0 540 0 0
-175 0 -175 -540 0 -540 0 0 -250 0 -250 595 0 595 0 0 -180 0 -180 -860 0
-860 0 0 1005 0 1005 860 0 860 0 0 -175z m2100 0 l0 -175 -605 0 -605 0 0
-235 0 -235 540 0 540 0 0 -180 0 -180 -540 0 -540 0 0 -415 0 -415 -265 0
-265 0 0 1005 0 1005 870 0 870 0 0 -175z"/>
<path d="M2169 3640 l-34 -89 -180 -5 c-181 -5 -336 -22 -462 -51 -425 -97
-774 -366 -942 -726 -139 -298 -190 -707 -135 -1089 53 -371 181 -641 404
-854 227 -215 511 -341 870 -385 146 -19 133 -25 171 84 l34 95 150 0 c342 0
640 65 865 188 464 253 688 650 726 1287 16 277 -50 647 -157 871 -202 426
-596 686 -1139 754 -145 17 -133 23 -171 -80z m37 -270 c217 -18 372 -56 533
-131 430 -200 655 -597 655 -1154 0 -162 -14 -272 -54 -430 -108 -430 -435
-727 -905 -824 -239 -49 -597 -50 -838 0 -471 96 -799 394 -907 824 -40 158
-54 268 -54 430 0 162 14 272 54 430 124 493 532 806 1112 854 150 12 259 12
404 1z"/>
<path d="M2029 3264 c-5 -16 -22 -60 -37 -99 l-27 -70 -45 -3 c-79 -4 -263
-32 -325 -49 -158 -43 -336 -144 -443 -251 -183 -183 -282 -464 -282 -806 0
-436 157 -758 459 -940 95 -57 225 -108 332 -130 93 -19 318 -40 327 -31 4 4
23 48 42 98 l35 92 55 3 c661 31 1040 436 1040 1108 0 410 -142 722 -410 904
-174 118 -345 171 -633 196 l-77 6 -11 -28z m203 -389 c342 -51 564 -240 640
-542 19 -75 23 -114 22 -263 0 -147 -4 -188 -22 -255 -37 -134 -85 -219 -182
-315 -97 -97 -196 -155 -320 -189 -75 -20 -220 -45 -227 -38 -1 2 24 80 58
173 33 93 67 196 75 229 28 120 13 219 -43 284 -47 55 -100 85 -226 126 -215
69 -264 130 -254 314 4 85 11 115 65 266 33 94 65 182 71 198 l11 27 117 0
c65 0 162 -7 215 -15z"/>
</g>
</svg>
