<?xml version="1.0" encoding="UTF-8"?>
<svg xmlns="http://www.w3.org/2000/svg" xmlns:xlink="http://www.w3.org/1999/xlink" width="728px" height="200px" viewBox="0 0 729 200" version="1.1">
<g id="surface1">
<path style=" stroke:none;fill-rule:nonzero;fill:rgb(0%,0%,0%);fill-opacity:1;" d="M 72.15625 1.601562 C 70.5 2.175781 68.214844 3.316406 67.015625 4.175781 C 65.816406 5.035156 51.074219 19.507812 34.222656 36.441406 C 10.167969 60.640625 3.3125 67.847656 2.226562 70.082031 C 0.230469 74.257812 0.0585938 80.890625 1.714844 85.527344 C 2.914062 88.789062 4.398438 90.390625 33.9375 120.023438 C 50.90625 137.128906 65.871094 151.832031 67.128906 152.6875 C 74.042969 157.496094 83.527344 157.152344 89.980469 151.945312 L 91.695312 150.515625 L 55.703125 114.472656 L 19.710938 78.375 L 77.984375 20.023438 L 136.257812 78.375 L 124.261719 90.390625 L 112.265625 102.402344 L 119.121094 109.269531 L 126.03125 116.191406 L 139.457031 102.574219 C 151.796875 90.160156 153.054688 88.671875 154.199219 85.527344 C 155.914062 81.007812 155.914062 75.800781 154.253906 71.222656 C 153.054688 67.964844 151.570312 66.363281 121.175781 35.925781 C 92.953125 7.609375 89.011719 3.890625 86.039062 2.515625 C 81.585938 0.457031 76.269531 0.113281 72.15625 1.601562 Z M 72.15625 1.601562 "/>
<path style=" stroke:none;fill-rule:nonzero;fill:rgb(0%,0%,0%);fill-opacity:1;" d="M 125.917969 1.085938 C 123.289062 1.714844 119.121094 3.890625 117.917969 5.207031 C 116.890625 6.351562 117.347656 6.808594 152.828125 42.335938 L 188.820312 78.375 L 159.511719 107.664062 L 130.261719 137.015625 L 101.007812 107.722656 L 71.699219 78.375 L 83.699219 66.363281 L 95.695312 54.347656 L 88.953125 47.65625 L 82.269531 40.902344 L 69.128906 54.0625 C 53.589844 69.566406 52.847656 70.710938 52.847656 78.375 C 52.847656 87.183594 51.589844 85.699219 87.296875 121.394531 C 122.949219 157.152344 121.460938 155.890625 130.261719 155.890625 C 138.601562 155.890625 137.058594 157.152344 173.507812 120.59375 L 205.558594 88.386719 L 206.757812 84.4375 C 207.445312 82.324219 207.960938 79.578125 207.960938 78.433594 C 207.960938 75.570312 206.472656 70.652344 204.816406 68.136719 C 203.273438 65.730469 142.144531 4.632812 139.914062 3.316406 C 136.257812 1.03125 130.144531 0.113281 125.917969 1.085938 Z M 125.917969 1.085938 "/>
<path style=" stroke:none;fill-rule:nonzero;fill:rgb(0%,0%,0%);fill-opacity:1;" d="M 288.515625 1.660156 C 268.234375 6.007812 251.550781 20.480469 244.523438 39.875 C 241.152344 49.3125 241.09375 49.941406 241.09375 101.371094 C 241.09375 146.28125 241.152344 148.285156 242.179688 150.34375 C 246.007812 157.835938 255.378906 158.179688 259.378906 151.03125 L 260.804688 148.457031 L 261.089844 100.113281 C 261.378906 52.117188 261.378906 51.773438 262.632812 48.457031 C 266.40625 38.617188 272.746094 30.664062 280.515625 26.144531 C 286.972656 22.425781 292.285156 20.996094 300.226562 20.996094 C 308.109375 20.9375 312.28125 21.855469 318.507812 25 C 328.335938 29.917969 335.078125 37.699219 338.675781 48.339844 L 340.21875 52.917969 L 340.503906 101.257812 C 340.789062 148.457031 340.789062 149.65625 341.933594 151.601562 C 343.304688 154.003906 347.304688 156.179688 350.21875 156.179688 C 353.359375 156.179688 357.128906 154.003906 358.617188 151.316406 L 359.929688 149.027344 L 359.929688 101.488281 C 359.929688 61.382812 359.816406 53.203125 359.074219 49.371094 C 354.386719 24.714844 335.820312 6.121094 311.195312 1.429688 C 305.082031 0.285156 294.628906 0.402344 288.515625 1.660156 Z M 288.515625 1.660156 "/>
<path style=" stroke:none;fill-rule:nonzero;fill:rgb(0%,0%,0%);fill-opacity:1;" d="M 442.484375 1.203125 C 434.941406 2.289062 425.003906 6.121094 418.71875 10.355469 C 404.835938 19.679688 395.808594 33.296875 392.78125 49.429688 C 391.980469 53.660156 391.867188 58.238281 392.09375 80.550781 C 392.324219 110.242188 392.378906 110.582031 397.40625 121.222656 C 400.722656 128.316406 403.921875 132.609375 410.148438 138.558594 C 418.375 146.453125 427.117188 151.203125 438.714844 154.289062 C 445.914062 156.234375 458.652344 156.464844 466.195312 154.863281 C 479.5625 152.003906 489.160156 147.023438 497.675781 138.5 C 508.015625 128.089844 513.785156 114.53125 510.527344 108.238281 C 508.472656 104.289062 503.671875 101.945312 499.730469 103.03125 C 496.359375 103.949219 494.304688 106.179688 491.273438 112.300781 C 487.90625 119.109375 485.105469 122.769531 480.304688 126.886719 C 473.105469 133.066406 463.910156 136.269531 453.339844 136.269531 C 445.855469 136.328125 441.457031 135.296875 435.34375 132.09375 C 426.601562 127.574219 419.289062 120.480469 415.632812 112.984375 C 413.460938 108.636719 411.691406 102.402344 412.375 101.773438 C 412.605469 101.542969 434.828125 93.59375 461.796875 84.039062 L 510.757812 66.703125 L 510.757812 60.296875 C 510.757812 42.335938 503.214844 25.972656 489.734375 14.589844 C 476.933594 3.832031 459.222656 -1.203125 442.484375 1.203125 Z M 461.453125 22.082031 C 471.734375 24.65625 482.078125 33.007812 486.648438 42.335938 C 489.390625 47.882812 490.703125 52.34375 489.902344 53.144531 C 489.21875 53.777344 413.003906 80.664062 411.917969 80.664062 C 411.347656 80.664062 411.289062 77.917969 411.519531 67.335938 C 411.804688 52.34375 412.261719 50.058594 416.03125 42.335938 C 420.316406 33.582031 429.457031 25.800781 439.058594 22.65625 C 445.628906 20.539062 454.480469 20.308594 461.453125 22.082031 Z M 461.453125 22.082031 "/>
<path style=" stroke:none;fill-rule:nonzero;fill:rgb(0%,0%,0%);fill-opacity:1;" d="M 557.320312 1.371094 C 554.917969 2.460938 552.75 5.035156 551.890625 7.722656 C 550.863281 10.8125 551.433594 146.96875 552.464844 149.597656 C 553.890625 153.375 557.777344 156.179688 561.605469 156.179688 C 565.375 156.179688 569.316406 153.375 570.6875 149.714844 C 571.144531 148.628906 571.316406 126.316406 571.316406 78.488281 C 571.316406 12.015625 571.257812 8.753906 570.230469 6.578125 C 567.832031 1.371094 562.289062 -0.859375 557.320312 1.371094 Z M 557.320312 1.371094 "/>
<path style=" stroke:none;fill-rule:nonzero;fill:rgb(0%,0%,0%);fill-opacity:1;" d="M 660.957031 1.144531 C 652.613281 2.574219 643.1875 6.292969 636.390625 10.871094 C 631.703125 14.074219 624.5625 20.9375 620.964844 25.800781 C 617.59375 30.378906 613.535156 38.730469 611.878906 44.621094 C 610.222656 50.402344 609.421875 72.539062 610.109375 93.078125 C 610.566406 106.578125 610.738281 108.296875 612.164062 112.984375 C 618.507812 134.554688 636.960938 151.03125 659.300781 155.261719 C 665.296875 156.40625 676.152344 156.40625 682.152344 155.261719 C 702.320312 151.429688 719.6875 138.214844 726.429688 121.453125 C 728.257812 116.875 728.886719 111.210938 727.855469 108.695312 C 726.199219 104.632812 720.886719 101.886719 716.832031 103.03125 C 713.402344 103.949219 711.230469 106.40625 708.03125 112.757812 C 703.460938 121.855469 697.976562 127.6875 690.152344 131.808594 C 669.640625 142.621094 643.472656 134.152344 633.589844 113.558594 C 629.933594 105.890625 629.875 105.378906 629.875 78.375 C 629.875 51.203125 629.933594 50.859375 633.761719 42.90625 C 635.648438 38.957031 637.074219 37.070312 641.304688 32.835938 C 645.703125 28.375 647.246094 27.230469 651.871094 24.941406 C 659.128906 21.394531 662.785156 20.539062 670.441406 20.539062 C 687.695312 20.539062 701.121094 28.949219 708.546875 44.449219 C 709.804688 47.023438 711.574219 49.828125 712.488281 50.570312 C 718.203125 55.378906 727.855469 50.402344 727.855469 42.621094 C 727.855469 39.589844 725.285156 32.378906 722.601562 27.804688 C 718.144531 20.195312 709.0625 12.070312 699.976562 7.496094 C 695.007812 4.976562 687.351562 2.515625 681.351562 1.429688 C 676.097656 0.515625 665.527344 0.402344 660.957031 1.144531 Z M 660.957031 1.144531 "/>
<path style=" stroke:none;fill-rule:nonzero;fill:rgb(0%,0%,0%);fill-opacity:1;" d="M 31.59375 182.496094 C 30.910156 182.78125 29.9375 183.636719 29.421875 184.4375 C 27.25 187.757812 27.9375 197.023438 30.453125 198.796875 C 32.394531 200.113281 35.023438 199.886719 36.621094 198.167969 C 37.820312 196.910156 37.992188 196.050781 38.164062 191.992188 C 38.449219 186.441406 37.421875 183.351562 35.136719 182.496094 C 33.363281 181.808594 33.25 181.808594 31.59375 182.496094 Z M 35.078125 185.46875 C 36.105469 186.898438 36.335938 193.535156 35.480469 195.824219 C 34.734375 197.824219 33.195312 198.226562 31.765625 196.796875 C 30.792969 195.824219 30.621094 194.910156 30.566406 191.191406 C 30.566406 186.382812 31.367188 184.210938 33.136719 184.210938 C 33.707031 184.210938 34.621094 184.78125 35.078125 185.46875 Z M 35.078125 185.46875 "/>
<path style=" stroke:none;fill-rule:nonzero;fill:rgb(0%,0%,0%);fill-opacity:1;" d="M 109.292969 182.609375 C 107.066406 183.695312 106.152344 186.671875 106.378906 191.933594 C 106.550781 196.050781 106.722656 196.910156 107.921875 198.167969 C 110.492188 200.859375 114.890625 199.714844 115.75 196.109375 C 116.035156 194.738281 115.921875 194.507812 114.890625 194.507812 C 114.207031 194.507812 113.691406 194.851562 113.691406 195.25 C 113.691406 196.511719 111.691406 197.996094 110.605469 197.597656 C 110.035156 197.367188 109.351562 196.566406 109.0625 195.824219 C 108.320312 193.820312 108.4375 187.585938 109.292969 185.925781 C 110.320312 183.925781 112.378906 183.753906 113.234375 185.582031 C 113.863281 187.015625 115.976562 187.699219 115.976562 186.5 C 115.976562 185.183594 114.605469 183.125 113.292969 182.550781 C 111.636719 181.808594 110.949219 181.808594 109.292969 182.609375 Z M 109.292969 182.609375 "/>
<path style=" stroke:none;fill-rule:nonzero;fill:rgb(0%,0%,0%);fill-opacity:1;" d="M 280.6875 182.496094 C 278.289062 183.46875 277.488281 186.898438 279.144531 189.246094 C 279.601562 189.929688 281.03125 191.019531 282.230469 191.648438 C 284.574219 192.847656 285.371094 194.335938 284.800781 196.167969 C 284.058594 198.511719 280.746094 198.285156 280.171875 195.824219 C 279.660156 193.9375 277.886719 194.277344 278.117188 196.222656 C 278.460938 199.597656 283.371094 200.859375 285.945312 198.226562 C 288.402344 195.824219 287.316406 191.304688 284 189.929688 C 280.289062 188.386719 279.203125 184.667969 282.34375 184.324219 C 283.601562 184.152344 284.058594 184.4375 284.515625 185.582031 C 285.203125 187.472656 286.800781 187.527344 286.800781 185.753906 C 286.800781 183.238281 283.316406 181.40625 280.6875 182.496094 Z M 280.6875 182.496094 "/>
<path style=" stroke:none;fill-rule:nonzero;fill:rgb(0%,0%,0%);fill-opacity:1;" d="M 363.355469 182.324219 C 360.445312 183.410156 358.902344 188.042969 359.644531 193.648438 C 360.101562 197.710938 361.757812 199.65625 364.730469 199.65625 C 366.898438 199.65625 369.070312 197.597656 369.070312 195.59375 C 369.070312 194.050781 367.414062 194.277344 366.84375 195.882812 C 366.101562 197.769531 364.5 198.226562 363.1875 196.855469 C 362.273438 195.9375 362.042969 194.964844 362.042969 191.246094 C 362.042969 188.730469 362.386719 186.15625 362.730469 185.410156 C 363.644531 183.808594 365.699219 183.980469 366.5 185.753906 C 367.183594 187.355469 369.070312 187.527344 369.070312 185.984375 C 369.070312 183.636719 365.644531 181.464844 363.355469 182.324219 Z M 363.355469 182.324219 "/>
<path style=" stroke:none;fill-rule:nonzero;fill:rgb(0%,0%,0%);fill-opacity:1;" d="M 482.589844 183.066406 C 480.535156 184.667969 479.734375 187.585938 480.019531 192.503906 C 480.191406 195.996094 480.421875 196.96875 481.5625 198.167969 C 484.132812 200.859375 488.53125 199.714844 489.390625 196.109375 C 489.675781 194.738281 489.5625 194.507812 488.589844 194.507812 C 487.847656 194.507812 487.332031 195.023438 487.105469 195.882812 C 486.417969 198.570312 483.789062 198.339844 482.820312 195.539062 C 481.960938 193.136719 482.019531 187.699219 482.933594 185.925781 C 483.847656 184.039062 486.246094 183.980469 487.046875 185.753906 C 487.5625 187.015625 489.617188 187.644531 489.617188 186.5 C 489.617188 185.183594 488.246094 183.125 486.933594 182.550781 C 484.992188 181.695312 484.246094 181.75 482.589844 183.066406 Z M 482.589844 183.066406 "/>
<path style=" stroke:none;fill-rule:nonzero;fill:rgb(0%,0%,0%);fill-opacity:1;" d="M 503.902344 182.664062 C 501.386719 183.925781 500.359375 186.785156 500.644531 191.761719 C 500.875 196.683594 501.902344 198.855469 504.300781 199.429688 C 508.300781 200.457031 510.757812 197.253906 510.757812 190.902344 C 510.757812 186.210938 509.671875 183.296875 507.613281 182.496094 C 505.730469 181.808594 505.613281 181.808594 503.902344 182.664062 Z M 507.730469 185.925781 C 508.644531 187.699219 508.699219 193.136719 507.84375 195.539062 C 506.699219 198.855469 504.242188 198.511719 503.273438 194.851562 C 502.53125 192.105469 502.929688 186.269531 503.957031 185.011719 C 504.988281 183.808594 506.871094 184.269531 507.730469 185.925781 Z M 507.730469 185.925781 "/>
<path style=" stroke:none;fill-rule:nonzero;fill:rgb(0%,0%,0%);fill-opacity:1;" d="M 605.195312 182.496094 C 603.308594 183.238281 602.226562 185.296875 601.824219 188.902344 C 601.367188 192.964844 602.394531 197.65625 604.054688 198.796875 C 605.996094 200.113281 608.625 199.886719 610.222656 198.167969 C 611.421875 196.910156 611.59375 196.050781 611.765625 191.703125 C 611.996094 185.984375 611.136719 183.410156 608.679688 182.496094 C 607.023438 181.808594 606.851562 181.808594 605.195312 182.496094 Z M 608.679688 185.46875 C 609.824219 187.070312 609.878906 194.164062 608.851562 196.222656 C 607.824219 198.226562 606.453125 198.285156 605.195312 196.453125 C 603.996094 194.566406 603.824219 187.527344 604.910156 185.46875 C 605.824219 183.867188 607.539062 183.867188 608.679688 185.46875 Z M 608.679688 185.46875 "/>
<path style=" stroke:none;fill-rule:nonzero;fill:rgb(0%,0%,0%);fill-opacity:1;" d="M 699.976562 182.496094 C 697.863281 183.410156 696.890625 186.613281 697.121094 191.992188 C 697.292969 196.050781 697.464844 196.910156 698.664062 198.167969 C 700.261719 199.886719 702.890625 200.171875 704.832031 198.796875 C 707.859375 196.683594 708.089844 186.097656 705.117188 183.46875 C 703.804688 182.265625 701.578125 181.863281 699.976562 182.496094 Z M 703.976562 185.46875 C 704.375 186.210938 704.660156 188.730469 704.660156 191.246094 C 704.660156 194.910156 704.433594 195.882812 703.519531 196.855469 C 702.089844 198.226562 700.546875 197.769531 699.804688 195.824219 C 698.949219 193.535156 699.175781 186.898438 700.207031 185.46875 C 701.347656 183.867188 703.0625 183.867188 703.976562 185.46875 Z M 703.976562 185.46875 "/>
<path style=" stroke:none;fill-rule:nonzero;fill:rgb(0%,0%,0%);fill-opacity:1;" d="M 6.855469 191.074219 C 6.855469 198.339844 6.96875 199.65625 7.710938 199.65625 C 8.398438 199.65625 8.570312 198.570312 8.570312 193.25 C 8.570312 189.703125 8.796875 187.070312 9.027344 187.355469 C 9.3125 187.699219 10.511719 190.5625 11.710938 193.765625 C 13.65625 198.914062 14.054688 199.65625 15.253906 199.65625 L 16.566406 199.65625 L 16.566406 191.074219 C 16.566406 182.894531 16.511719 182.496094 15.425781 182.496094 C 14.339844 182.496094 14.28125 182.894531 14.28125 188.617188 L 14.226562 194.792969 L 11.828125 188.617188 C 9.769531 183.351562 9.253906 182.496094 8.167969 182.496094 C 6.855469 182.496094 6.855469 182.550781 6.855469 191.074219 Z M 6.855469 191.074219 "/>
<path style=" stroke:none;fill-rule:nonzero;fill:rgb(0%,0%,0%);fill-opacity:1;" d="M 50.277344 191.132812 C 50.277344 199.027344 50.332031 199.714844 51.304688 199.542969 C 52.105469 199.371094 52.332031 198.628906 52.445312 195.480469 C 52.5625 192.277344 52.789062 191.648438 53.648438 191.648438 C 55.644531 191.648438 56.503906 192.964844 56.675781 196.222656 C 56.847656 198.914062 57.015625 199.371094 57.929688 199.371094 C 58.960938 199.371094 59.074219 199.027344 58.902344 195.9375 C 58.789062 193.820312 58.386719 192.105469 57.875 191.476562 C 57.359375 190.960938 57.246094 190.503906 57.53125 190.503906 C 58.503906 190.503906 59.53125 187.355469 59.074219 185.699219 C 58.558594 183.46875 56.730469 182.496094 53.304688 182.496094 L 50.277344 182.496094 Z M 55.644531 184.554688 C 56.902344 185.011719 56.902344 189.128906 55.644531 189.589844 C 53.191406 190.5625 52.5625 190.046875 52.5625 187.070312 C 52.5625 184.097656 53.191406 183.582031 55.644531 184.554688 Z M 55.644531 184.554688 "/>
<path style=" stroke:none;fill-rule:nonzero;fill:rgb(0%,0%,0%);fill-opacity:1;" d="M 70.84375 191.074219 L 70.84375 199.65625 L 73.300781 199.65625 C 76.5 199.65625 78.328125 198.628906 79.527344 196.222656 C 81.527344 192.277344 80.5 184.554688 77.8125 183.125 C 77.128906 182.78125 75.355469 182.496094 73.757812 182.496094 L 70.84375 182.496094 Z M 76.554688 185.242188 C 78.726562 186.957031 78.839844 194.394531 76.785156 196.511719 C 76.269531 196.96875 75.300781 197.367188 74.5 197.367188 L 73.128906 197.367188 L 73.128906 190.789062 C 73.128906 184.726562 73.1875 184.210938 74.214844 184.210938 C 74.785156 184.210938 75.871094 184.667969 76.554688 185.242188 Z M 76.554688 185.242188 "/>
<path style=" stroke:none;fill-rule:nonzero;fill:rgb(0%,0%,0%);fill-opacity:1;" d="M 92.097656 190.902344 C 92.269531 198.398438 92.382812 199.371094 93.296875 199.542969 C 94.210938 199.714844 94.265625 199.027344 94.265625 191.132812 C 94.265625 182.835938 94.210938 182.496094 93.125 182.496094 C 91.980469 182.496094 91.980469 182.78125 92.097656 190.902344 Z M 92.097656 190.902344 "/>
<path style=" stroke:none;fill-rule:nonzero;fill:rgb(0%,0%,0%);fill-opacity:1;" d="M 145.6875 191.074219 L 145.6875 199.65625 L 149.628906 199.65625 C 152.484375 199.65625 153.628906 199.429688 153.855469 198.855469 C 154.3125 197.65625 153.742188 197.367188 150.714844 197.367188 L 147.972656 197.367188 L 147.972656 191.703125 L 150.714844 191.53125 C 152.65625 191.417969 153.398438 191.132812 153.398438 190.503906 C 153.398438 189.875 152.65625 189.589844 150.714844 189.472656 L 147.972656 189.300781 L 147.972656 184.210938 L 150.828125 184.210938 C 153 184.210938 153.683594 183.980469 153.683594 183.351562 C 153.683594 182.664062 152.882812 182.496094 149.683594 182.496094 L 145.6875 182.496094 Z M 145.6875 191.074219 "/>
<path style=" stroke:none;fill-rule:nonzero;fill:rgb(0%,0%,0%);fill-opacity:1;" d="M 180.648438 190.902344 C 180.820312 198.914062 180.878906 199.371094 181.964844 199.371094 C 183.050781 199.371094 183.105469 198.914062 183.277344 190.902344 L 183.449219 182.496094 L 180.480469 182.496094 Z M 180.648438 190.902344 "/>
<path style=" stroke:none;fill-rule:nonzero;fill:rgb(0%,0%,0%);fill-opacity:1;" d="M 195.390625 191.132812 C 195.390625 199.027344 195.449219 199.714844 196.417969 199.542969 C 197.21875 199.371094 197.445312 198.457031 197.675781 193.363281 L 197.960938 187.355469 L 200.246094 193.363281 C 202.132812 198.285156 202.761719 199.429688 203.847656 199.542969 C 205.101562 199.714844 205.101562 199.714844 205.101562 191.132812 C 205.101562 182.894531 205.046875 182.496094 203.960938 182.496094 C 202.875 182.496094 202.816406 182.894531 202.761719 188.328125 L 202.761719 194.222656 L 200.417969 188.328125 C 198.359375 183.238281 197.902344 182.496094 196.703125 182.496094 L 195.390625 182.496094 Z M 195.390625 191.132812 "/>
<path style=" stroke:none;fill-rule:nonzero;fill:rgb(0%,0%,0%);fill-opacity:1;" d="M 217.671875 191.132812 C 217.671875 199.027344 217.730469 199.714844 218.699219 199.542969 C 219.5 199.371094 219.726562 198.628906 219.84375 195.480469 L 220.015625 191.648438 L 222.527344 191.648438 C 224.699219 191.648438 225.097656 191.476562 225.097656 190.503906 C 225.097656 189.53125 224.699219 189.359375 222.527344 189.359375 L 219.957031 189.359375 L 219.957031 184.210938 L 222.8125 184.210938 C 224.984375 184.210938 225.671875 183.980469 225.671875 183.351562 C 225.671875 182.664062 224.871094 182.496094 221.671875 182.496094 L 217.671875 182.496094 Z M 217.671875 191.132812 "/>
<path style=" stroke:none;fill-rule:nonzero;fill:rgb(0%,0%,0%);fill-opacity:1;" d="M 236.523438 191.074219 C 236.523438 199.257812 236.582031 199.65625 237.667969 199.65625 C 238.695312 199.65625 238.808594 199.257812 238.808594 195.652344 C 238.808594 191.820312 238.867188 191.648438 240.179688 191.648438 C 242.464844 191.648438 243.382812 193.078125 243.382812 196.566406 C 243.382812 199.257812 243.496094 199.65625 244.523438 199.65625 C 245.496094 199.65625 245.667969 199.257812 245.667969 196.625 C 245.667969 195.023438 245.324219 192.964844 244.867188 192.164062 C 244.238281 190.902344 244.238281 190.503906 244.867188 189.644531 C 246.066406 188.042969 245.835938 184.953125 244.523438 183.636719 C 243.609375 182.722656 242.636719 182.496094 239.953125 182.496094 L 236.523438 182.496094 Z M 242.695312 184.898438 C 243.09375 185.296875 243.382812 186.269531 243.382812 187.070312 C 243.382812 189.015625 242.410156 189.929688 240.410156 189.929688 C 238.867188 189.929688 238.808594 189.816406 238.808594 187.070312 C 238.808594 184.324219 238.867188 184.210938 240.410156 184.210938 C 241.265625 184.210938 242.296875 184.496094 242.695312 184.898438 Z M 242.695312 184.898438 "/>
<path style=" stroke:none;fill-rule:nonzero;fill:rgb(0%,0%,0%);fill-opacity:1;" d="M 260.347656 182.894531 C 259.71875 183.925781 256.40625 199.140625 256.691406 199.484375 C 257.550781 200.285156 258.75 198.96875 259.09375 196.855469 C 259.492188 194.566406 259.550781 194.507812 261.664062 194.507812 C 263.71875 194.507812 263.835938 194.621094 264.460938 197.082031 C 264.976562 199.027344 265.375 199.65625 266.234375 199.65625 C 266.863281 199.65625 267.375 199.542969 267.375 199.371094 C 267.375 199.199219 266.460938 195.308594 265.320312 190.789062 C 263.378906 183.066406 263.148438 182.496094 261.890625 182.496094 C 261.207031 182.496094 260.464844 182.664062 260.347656 182.894531 Z M 263.378906 192.046875 C 263.378906 192.164062 262.632812 192.21875 261.71875 192.21875 C 260.0625 192.21875 260.0625 192.21875 260.632812 189.757812 C 261.605469 185.640625 261.777344 185.527344 262.578125 188.789062 C 262.976562 190.503906 263.320312 191.992188 263.378906 192.046875 Z M 263.378906 192.046875 "/>
<path style=" stroke:none;fill-rule:nonzero;fill:rgb(0%,0%,0%);fill-opacity:1;" d="M 297.085938 183.351562 C 297.085938 183.925781 297.714844 184.210938 299.085938 184.210938 L 301.082031 184.210938 L 301.082031 191.933594 C 301.082031 199.257812 301.140625 199.65625 302.226562 199.65625 C 303.3125 199.65625 303.367188 199.257812 303.367188 191.933594 L 303.367188 184.210938 L 305.082031 184.210938 C 306.226562 184.210938 306.796875 183.925781 306.796875 183.351562 C 306.796875 182.664062 305.882812 182.496094 301.941406 182.496094 C 298 182.496094 297.085938 182.664062 297.085938 183.351562 Z M 297.085938 183.351562 "/>
<path style=" stroke:none;fill-rule:nonzero;fill:rgb(0%,0%,0%);fill-opacity:1;" d="M 317.652344 191.074219 C 317.652344 199.257812 317.710938 199.65625 318.792969 199.65625 C 319.824219 199.65625 319.9375 199.257812 319.9375 195.652344 C 319.9375 191.820312 319.996094 191.648438 321.308594 191.648438 C 323.59375 191.648438 324.507812 193.078125 324.507812 196.566406 C 324.507812 199.257812 324.621094 199.65625 325.652344 199.65625 C 326.621094 199.65625 326.792969 199.257812 326.792969 196.625 C 326.792969 195.023438 326.449219 192.964844 325.992188 192.164062 C 325.363281 190.902344 325.363281 190.503906 325.992188 189.644531 C 327.191406 188.042969 326.964844 184.953125 325.652344 183.636719 C 324.738281 182.722656 323.765625 182.496094 321.078125 182.496094 L 317.652344 182.496094 Z M 323.820312 184.898438 C 324.222656 185.296875 324.507812 186.269531 324.507812 187.070312 C 324.507812 189.015625 323.535156 189.929688 321.535156 189.929688 C 319.996094 189.929688 319.9375 189.816406 319.9375 187.070312 C 319.9375 184.324219 319.996094 184.210938 321.535156 184.210938 C 322.394531 184.210938 323.421875 184.496094 323.820312 184.898438 Z M 323.820312 184.898438 "/>
<path style=" stroke:none;fill-rule:nonzero;fill:rgb(0%,0%,0%);fill-opacity:1;" d="M 338.332031 189.988281 C 338.503906 197.023438 338.5625 197.539062 339.875 198.570312 C 341.933594 200.230469 345.246094 200 346.730469 198.167969 C 347.816406 196.796875 347.933594 195.882812 347.933594 189.589844 C 347.933594 182.894531 347.875 182.496094 346.789062 182.496094 C 345.703125 182.496094 345.648438 182.894531 345.648438 189.644531 L 345.648438 196.796875 L 344.160156 197.484375 C 342.847656 198.113281 342.503906 198.054688 341.589844 196.855469 C 340.675781 195.710938 340.503906 194.566406 340.503906 189.015625 C 340.503906 182.78125 340.449219 182.496094 339.304688 182.496094 C 338.164062 182.496094 338.164062 182.722656 338.332031 189.988281 Z M 338.332031 189.988281 "/>
<path style=" stroke:none;fill-rule:nonzero;fill:rgb(0%,0%,0%);fill-opacity:1;" d="M 379.355469 183.351562 C 379.355469 183.925781 379.925781 184.210938 381.066406 184.210938 L 382.726562 184.210938 L 382.894531 191.761719 C 383.066406 198.457031 383.183594 199.371094 384.097656 199.542969 C 384.953125 199.714844 385.066406 199.085938 385.066406 191.992188 L 385.066406 184.210938 L 387.066406 184.210938 C 388.4375 184.210938 389.066406 183.925781 389.066406 183.351562 C 389.066406 182.664062 388.152344 182.496094 384.210938 182.496094 C 380.269531 182.496094 379.355469 182.664062 379.355469 183.351562 Z M 379.355469 183.351562 "/>
<path style=" stroke:none;fill-rule:nonzero;fill:rgb(0%,0%,0%);fill-opacity:1;" d="M 399.351562 188.328125 C 399.351562 194.964844 400.035156 198.226562 401.636719 199.085938 C 403.464844 200.058594 406.664062 199.769531 407.921875 198.511719 C 408.949219 197.484375 409.0625 196.625 409.0625 189.929688 C 409.0625 182.894531 409.003906 182.496094 407.921875 182.496094 C 406.890625 182.496094 406.777344 182.953125 406.664062 189.703125 C 406.492188 195.882812 406.320312 197.023438 405.519531 197.597656 C 404.777344 198.054688 404.207031 198.054688 403.519531 197.597656 C 402.664062 197.023438 402.492188 195.882812 402.320312 189.703125 L 402.148438 182.496094 L 400.777344 182.496094 C 399.351562 182.496094 399.351562 182.496094 399.351562 188.328125 Z M 399.351562 188.328125 "/>
<path style=" stroke:none;fill-rule:nonzero;fill:rgb(0%,0%,0%);fill-opacity:1;" d="M 421.632812 191.132812 C 421.632812 199.027344 421.6875 199.714844 422.660156 199.542969 C 423.460938 199.371094 423.6875 198.628906 423.800781 195.480469 C 423.917969 192.277344 424.144531 191.648438 425.003906 191.648438 C 427.003906 191.648438 427.859375 192.964844 428.03125 196.222656 C 428.203125 198.914062 428.375 199.371094 429.289062 199.371094 C 430.316406 199.371094 430.429688 199.027344 430.257812 195.9375 C 430.144531 193.820312 429.746094 192.105469 429.230469 191.476562 C 428.714844 190.960938 428.601562 190.503906 428.886719 190.503906 C 429.859375 190.503906 430.945312 187.300781 430.488281 185.8125 C 429.6875 183.179688 428.542969 182.496094 424.945312 182.496094 L 421.632812 182.496094 Z M 427.289062 184.726562 C 427.746094 185.011719 428.085938 186.097656 428.085938 187.070312 C 428.085938 189.015625 427.230469 189.929688 425.230469 189.929688 C 424.03125 189.929688 423.917969 189.644531 423.917969 187.070312 C 423.917969 184.496094 424.03125 184.210938 425.230469 184.210938 C 425.917969 184.210938 426.832031 184.4375 427.289062 184.726562 Z M 427.289062 184.726562 "/>
<path style=" stroke:none;fill-rule:nonzero;fill:rgb(0%,0%,0%);fill-opacity:1;" d="M 442.199219 191.074219 L 442.199219 199.65625 L 446.140625 199.65625 C 449.855469 199.65625 450.769531 199.257812 450.769531 197.597656 C 450.769531 197.484375 449.339844 197.367188 447.625 197.367188 L 444.484375 197.367188 L 444.484375 191.648438 L 447.339844 191.648438 C 449.796875 191.648438 450.199219 191.476562 450.199219 190.503906 C 450.199219 189.53125 449.796875 189.359375 447.339844 189.359375 L 444.484375 189.359375 L 444.484375 184.210938 L 447.339844 184.210938 C 449.511719 184.210938 450.199219 183.980469 450.199219 183.351562 C 450.199219 182.664062 449.398438 182.496094 446.199219 182.496094 L 442.199219 182.496094 Z M 442.199219 191.074219 "/>
<path style=" stroke:none;fill-rule:nonzero;fill:rgb(0%,0%,0%);fill-opacity:1;" d="M 522.296875 190.902344 L 522.46875 199.371094 L 526.46875 199.371094 C 529.78125 199.371094 530.46875 199.199219 530.640625 198.398438 C 530.808594 197.539062 530.351562 197.367188 527.667969 197.367188 L 524.46875 197.367188 L 524.46875 189.929688 C 524.46875 182.835938 524.410156 182.496094 523.324219 182.496094 C 522.183594 182.496094 522.183594 182.78125 522.296875 190.902344 Z M 522.296875 190.902344 "/>
<path style=" stroke:none;fill-rule:nonzero;fill:rgb(0%,0%,0%);fill-opacity:1;" d="M 541.152344 190.902344 L 541.324219 199.371094 L 545.320312 199.371094 C 548.636719 199.371094 549.320312 199.199219 549.492188 198.398438 C 549.664062 197.539062 549.265625 197.367188 546.808594 197.367188 L 543.894531 197.367188 L 543.894531 182.496094 L 540.980469 182.496094 Z M 541.152344 190.902344 "/>
<path style=" stroke:none;fill-rule:nonzero;fill:rgb(0%,0%,0%);fill-opacity:1;" d="M 563.71875 182.894531 C 563.089844 183.980469 559.777344 199.140625 560.0625 199.429688 C 560.917969 200.285156 562.117188 198.96875 562.460938 196.855469 C 562.859375 194.566406 562.917969 194.507812 565.03125 194.507812 C 567.089844 194.507812 567.203125 194.621094 567.832031 197.082031 C 568.347656 199.085938 568.746094 199.65625 569.660156 199.65625 C 570.460938 199.65625 570.746094 199.371094 570.574219 198.628906 C 570.402344 198.113281 569.429688 194.222656 568.460938 190.046875 C 566.746094 183.066406 566.515625 182.496094 565.261719 182.496094 C 564.574219 182.496094 563.832031 182.664062 563.71875 182.894531 Z M 566.746094 192.046875 C 566.746094 192.164062 566.003906 192.21875 565.089844 192.21875 C 563.433594 192.21875 563.433594 192.21875 564.003906 189.757812 C 564.976562 185.640625 565.144531 185.527344 565.945312 188.789062 C 566.347656 190.503906 566.6875 191.992188 566.746094 192.046875 Z M 566.746094 192.046875 "/>
<path style=" stroke:none;fill-rule:nonzero;fill:rgb(0%,0%,0%);fill-opacity:1;" d="M 581.601562 191.132812 L 581.601562 199.769531 L 585.085938 199.542969 C 587.886719 199.3125 588.855469 199.027344 589.65625 197.996094 C 590.96875 196.394531 591.085938 192.964844 589.941406 191.304688 C 589.371094 190.5625 589.3125 189.875 589.65625 189.300781 C 589.941406 188.84375 590.171875 187.527344 590.171875 186.382812 C 590.171875 183.582031 588.628906 182.496094 584.628906 182.496094 L 581.601562 182.496094 Z M 587.199219 184.726562 C 587.65625 185.011719 587.886719 185.984375 587.769531 187.128906 C 587.597656 188.84375 587.371094 189.074219 585.769531 189.246094 C 583.886719 189.417969 583.886719 189.417969 583.886719 186.84375 C 583.886719 184.496094 584 184.210938 585.199219 184.210938 C 585.886719 184.210938 586.800781 184.4375 587.199219 184.726562 Z M 586.96875 191.648438 C 588.171875 192.105469 588.457031 192.5625 588.457031 194.109375 C 588.457031 196.394531 587.597656 197.367188 585.484375 197.367188 C 583.941406 197.367188 583.886719 197.3125 583.886719 194.222656 C 583.886719 190.847656 584.226562 190.5625 586.96875 191.648438 Z M 586.96875 191.648438 "/>
<path style=" stroke:none;fill-rule:nonzero;fill:rgb(0%,0%,0%);fill-opacity:1;" d="M 623.878906 191.132812 C 623.878906 199.027344 623.933594 199.714844 624.90625 199.542969 C 625.707031 199.371094 625.933594 198.628906 626.046875 195.480469 C 626.21875 191.933594 626.335938 191.648438 627.476562 191.648438 C 629.417969 191.648438 630.164062 192.734375 630.164062 195.421875 C 630.164062 198.511719 630.621094 199.65625 631.820312 199.65625 C 632.675781 199.65625 632.789062 199.140625 632.5625 196.050781 C 632.449219 194.109375 632.046875 192.21875 631.761719 191.820312 C 631.417969 191.417969 631.535156 190.503906 632.160156 189.359375 C 633.191406 187.355469 632.960938 185.125 631.476562 183.46875 C 630.789062 182.78125 629.648438 182.496094 627.191406 182.496094 L 623.878906 182.496094 Z M 629.535156 184.726562 C 629.992188 185.011719 630.332031 186.097656 630.332031 187.070312 C 630.332031 189.015625 629.476562 189.929688 627.476562 189.929688 C 626.277344 189.929688 626.164062 189.644531 626.164062 187.070312 C 626.164062 184.496094 626.277344 184.210938 627.476562 184.210938 C 628.164062 184.210938 629.078125 184.4375 629.535156 184.726562 Z M 629.535156 184.726562 "/>
<path style=" stroke:none;fill-rule:nonzero;fill:rgb(0%,0%,0%);fill-opacity:1;" d="M 645.585938 190.332031 C 644.558594 194.679688 643.589844 198.570312 643.472656 198.96875 C 643.300781 199.371094 643.644531 199.65625 644.386719 199.65625 C 645.300781 199.65625 645.703125 199.085938 646.214844 197.082031 C 646.84375 194.621094 646.957031 194.507812 649.015625 194.507812 C 651.128906 194.507812 651.1875 194.566406 651.53125 197.082031 C 651.871094 199.140625 652.15625 199.65625 653.070312 199.65625 C 654.5 199.65625 654.441406 199.027344 652.273438 190.21875 C 650.5 183.238281 650.273438 182.78125 648.902344 182.609375 C 647.472656 182.4375 647.414062 182.609375 645.585938 190.332031 Z M 650.101562 190.902344 C 650.160156 191.933594 649.871094 192.21875 648.671875 192.21875 C 647.644531 192.21875 647.246094 191.992188 647.472656 191.417969 C 647.644531 191.019531 647.988281 189.417969 648.214844 187.871094 L 648.671875 185.070312 L 649.359375 187.355469 C 649.757812 188.617188 650.101562 190.21875 650.101562 190.902344 Z M 650.101562 190.902344 "/>
<path style=" stroke:none;fill-rule:nonzero;fill:rgb(0%,0%,0%);fill-opacity:1;" d="M 662.15625 183.351562 C 662.15625 183.925781 662.785156 184.210938 664.15625 184.210938 L 666.15625 184.210938 L 666.15625 191.933594 C 666.15625 199.257812 666.210938 199.65625 667.296875 199.65625 C 668.382812 199.65625 668.441406 199.257812 668.441406 191.933594 L 668.441406 184.210938 L 670.441406 184.210938 C 671.8125 184.210938 672.441406 183.925781 672.441406 183.351562 C 672.441406 182.664062 671.46875 182.496094 667.296875 182.496094 C 663.128906 182.496094 662.15625 182.664062 662.15625 183.351562 Z M 662.15625 183.351562 "/>
<path style=" stroke:none;fill-rule:nonzero;fill:rgb(0%,0%,0%);fill-opacity:1;" d="M 682.722656 191.074219 C 682.722656 199.257812 682.78125 199.65625 683.867188 199.65625 C 684.953125 199.65625 685.007812 199.257812 685.007812 191.074219 C 685.007812 182.894531 684.953125 182.496094 683.867188 182.496094 C 682.78125 182.496094 682.722656 182.894531 682.722656 191.074219 Z M 682.722656 191.074219 "/>
<path style=" stroke:none;fill-rule:nonzero;fill:rgb(0%,0%,0%);fill-opacity:1;" d="M 718.714844 191.074219 C 718.714844 199.257812 718.773438 199.65625 719.859375 199.65625 C 720.945312 199.65625 721 199.257812 721 193.191406 L 721.058594 186.785156 L 723.515625 193.078125 C 725.457031 198.113281 726.257812 199.429688 727.230469 199.542969 C 728.429688 199.714844 728.429688 199.597656 728.429688 191.132812 C 728.429688 182.722656 728.371094 182.496094 727.230469 182.496094 C 726.027344 182.496094 726.027344 182.664062 726.257812 188.5 C 726.429688 191.820312 726.484375 194.507812 726.371094 194.507812 C 726.316406 194.507812 725.171875 191.820312 723.859375 188.5 C 721.746094 183.238281 721.289062 182.496094 720.085938 182.496094 L 718.714844 182.496094 Z M 718.714844 191.074219 "/>
<path style=" stroke:none;fill-rule:nonzero;fill:rgb(0%,0%,0%);fill-opacity:1;" d="M 164.539062 190.503906 C 164.539062 191.476562 164.9375 191.648438 167.109375 191.648438 C 169.28125 191.648438 169.679688 191.476562 169.679688 190.503906 C 169.679688 189.53125 169.28125 189.359375 167.109375 189.359375 C 164.9375 189.359375 164.539062 189.53125 164.539062 190.503906 Z M 164.539062 190.503906 "/>
</g>
</svg>
