<?xml version="1.0" encoding="utf-8"?>
<!-- Generator: Adobe Illustrator 15.0.0, SVG Export Plug-In . SVG Version: 6.00 Build 0)  -->
<!DOCTYPE svg PUBLIC "-//W3C//DTD SVG 1.1//EN" "http://www.w3.org/Graphics/SVG/1.1/DTD/svg11.dtd">
<svg version="1.1" id="Layer_1" xmlns="http://www.w3.org/2000/svg" xmlns:xlink="http://www.w3.org/1999/xlink" x="0px" y="0px"
	 width="452.977px" height="124.725px" viewBox="0 0 452.977 124.725" enable-background="new 0 0 452.977 124.725"
	 xml:space="preserve">
<g>
	<g>
		<path fill="#F15A22" d="M433.854,92.692c0,11.26-7.448,16.629-18.188,16.629c-9.7,0-14.204-4.504-14.204-11.259
			c0-6.582,4.157-9.007,13.512-10.913l7.621-1.558c5.889-1.213,8.313-1.906,11.259-2.945V92.692z M452.734,103.086V62.208
			c0-18.189-13.857-24.25-32.737-24.25c-19.746,0-36.375,8.141-36.027,28.408l18.532,1.212c-0.173-9.701,5.543-14.376,16.629-14.376
			c10.22,0,14.724,3.464,14.724,10.392v1.386c0,3.118-0.866,3.464-5.196,4.33l-18.188,3.118c-10.739,1.906-19.4,5.197-24.424,11.259
			c-2.943,3.639-4.677,8.314-4.677,14.55c0,18.015,13.165,25.982,29.101,25.982c14.188,0,19.793-7.008,23.41-10.579v8.062h18.844
			v-18.506C452.727,103.16,452.734,103.121,452.734,103.086 M59.974,62.777c-5.717-5.543-13.684-9.353-23.211-9.353
			c-7.795,0-13.511,2.771-13.511,8.141c0,5.89,5.716,7.102,17.322,9.526l9.873,2.252c12.471,2.945,23.73,7.622,23.73,22.691
			c0,18.88-17.148,27.887-36.028,27.887c-19.747,0-33.084-9.699-38.107-16.801l13.337-11.779
			c4.677,6.236,12.645,12.298,25.289,12.298c9.873,0,15.589-3.464,15.589-9.353c0-5.717-4.676-6.755-12.644-8.488l-12.298-2.598
			c-14.377-3.118-25.636-9.181-25.636-24.25c0-18.015,17.495-25.636,33.257-25.636c16.455,0,29.1,7.275,34.47,13.164L59.974,62.777z
			 M187,45.284c-4.85-5.37-11.952-7.969-20.439-7.969c-12.991,0-21.825,5.717-25.809,12.645V39.393h-19.746v82.451h19.746V77.675
			c0-13.338,5.716-22.866,17.841-22.866c14.896,0,15.936,10.394,15.936,25.291v41.744h19.746V77.675
			c0-13.338,5.543-22.866,17.841-22.866c14.897,0,15.938,10.394,15.938,25.291v41.744H247.8V75.076
			c0-18.188-2.078-23.904-7.274-29.792c-4.331-4.851-11.259-7.969-21.827-7.969c-14.896,0-23.211,6.755-28.234,12.818
			C189.425,48.4,188.386,46.842,187,45.284 M261.853,39.393h19.746v43.824c0,5.89,0.174,11.606,2.078,15.936
			c1.906,4.33,5.717,7.275,12.646,7.275c12.298,0,17.668-9.527,17.668-22.864v-44.17h19.746v82.451H313.99v-10.566
			c-3.984,6.929-12.817,12.645-24.597,12.645c-8.314,0-15.416-2.598-20.266-7.967c-5.197-5.891-7.275-11.606-7.275-29.793V39.393z
			 M105.355,39.382H85.591v82.461h19.764V39.382z M369.069,121.844h-19.746V4.058h19.746V121.844z M82.122,13.987
			c0,7.394,6.024,13.609,13.351,13.609c7.49,0,13.352-6.216,13.352-13.609c0-7.729-5.862-13.944-13.352-13.944
			C88.146,0.042,82.122,6.258,82.122,13.987"/>
	</g>
</g>
</svg>
