<?xml version="1.0" encoding="utf-8"?>
<!-- Generator: Adobe Illustrator 19.1.0, SVG Export Plug-In . SVG Version: 6.00 Build 0)  -->
<!DOCTYPE svg PUBLIC "-//W3C//DTD SVG 1.1//EN" "http://www.w3.org/Graphics/SVG/1.1/DTD/svg11.dtd">
<svg version="1.1" xmlns="http://www.w3.org/2000/svg" xmlns:xlink="http://www.w3.org/1999/xlink" x="0px" y="0px"
	 viewBox="0 0 249.7 284" style="enable-background:new 0 0 249.7 284;" xml:space="preserve">
<style type="text/css">
	.st0{fill:#EE7223;}
	.st1{fill:#70C1BD;}
	.st2{fill:#8F8E8E;}
	.st3{fill:#943C71;}
	.st4{fill:#C3D97E;}
	.st5{fill:#A48E53;}
	.st6{fill:#C52F27;}
	.st7{fill-rule:evenodd;clip-rule:evenodd;fill:#FFFFFF;}
	.st8{clip-path:url(#SVGID_2_);}
	.st9{fill:none;stroke:#FFFFFF;stroke-width:0.75;stroke-dasharray:2.9899,2.9899;}
	.st10{fill:none;stroke:#FFFFFF;stroke-width:0.75;}
	.st11{fill:none;stroke:#FFFFFF;stroke-width:0.75;stroke-dasharray:3.0249,3.0249;}
	.st12{fill:none;stroke:#FFFFFF;stroke-width:0.75;stroke-dasharray:2.9931,2.9931;}
	.st13{fill:none;stroke:#FFFFFF;stroke-width:0.75;stroke-dasharray:3.0093,3.0093;}
	.st14{fill:none;stroke:#FFFFFF;stroke-width:0.75;stroke-dasharray:2.983,2.983;}
	.st15{fill:none;stroke:#FFFFFF;stroke-width:0.75;stroke-dasharray:3.0256,3.0256;}
	.st16{fill:none;stroke:#FFFFFF;stroke-width:0.75;stroke-dasharray:2.9806,2.9806;}
	.st17{fill:none;stroke:#FFFFFF;stroke-width:0.75;stroke-dasharray:2.9775,2.9775;}
	.st18{fill:none;stroke:#FFFFFF;stroke-width:0.75;stroke-dasharray:3.0237,3.0237;}
	.st19{fill:none;stroke:#FFFFFF;stroke-width:0.75;stroke-dasharray:3.0363,3.0363;}
	.st20{fill:none;stroke:#FFFFFF;stroke-width:0.75;stroke-dasharray:3.0148,3.0148;}
	.st21{fill:none;stroke:#FFFFFF;stroke-width:0.75;stroke-dasharray:2.968,2.968;}
	.st22{fill:none;stroke:#FFFFFF;stroke-width:0.75;stroke-dasharray:2.9909,2.9909;}
	.st23{fill:none;stroke:#FFFFFF;stroke-width:0.75;stroke-dasharray:2.9599,2.9599;}
	.st24{fill:none;stroke:#FFFFFF;stroke-width:0.75;stroke-dasharray:3.0154,3.0154;}
	.st25{fill:none;stroke:#FFFFFF;stroke-width:0.75;stroke-dasharray:2.9731,2.9731;}
	.st26{fill:#FFFFFF;}
	.st27{fill:none;stroke:#FFFFFF;stroke-width:4;}
	.st28{enable-background:new    ;}
	.st29{clip-path:url(#SVGID_4_);}
	.st30{clip-path:url(#SVGID_6_);}
	.st31{fill:none;stroke:#FFFFFF;stroke-width:2;stroke-miterlimit:10;}
	.st32{fill:none;stroke:#FFFFFF;stroke-width:1.75;stroke-miterlimit:10;}
	.st33{display:none;}
	.st34{display:inline;fill-rule:evenodd;clip-rule:evenodd;fill:none;stroke:#000000;stroke-width:0.7277;stroke-miterlimit:10;}
</style>
<g id="Layer_1">
	<polygon class="st5" points="5.8,211.7 5.8,74.3 124.8,5.6 243.9,74.3 243.9,211.7 124.8,280.4 	"/>
	<g>
		<g>
			<path class="st26" d="M169.9,58.3l-0.1-0.1c0.8,0.4,1.8,1,2.6,1.4c0,0,0,0,0,0C171.1,58.9,170.3,58.5,169.9,58.3z"/>
			<path class="st26" d="M215,114L215,114c-0.7-3.1-2.3-7.2-3.8-8.5c-0.5-0.4-0.8-0.2-0.9,0.5l-2.4-3.5c-0.1-0.3-0.2-0.7-0.4-1.4v0
				c-0.8-2.4-2.6-5.8-4.4-7.3l-0.7-1.6c0,0,0,0,0,0c0,0,0,0,0.1,0c0.9,0.3,0.7-1.2-0.5-3.5c-1.5-2.8-4-6-5.5-7
				c-0.1-0.1-0.3-0.2-0.5-0.2c-1,0.1,1.6,5.3,4.3,8.6c0.3,0.7,0.7,1.3,1.5,1.7l0.7,1.5l0,0c-1.5-0.2-0.3,4.6,1.8,8.4
				c0.1-0.5,0.1-1,0.2-1.5c0.1-0.5,0.1-1.1,0.2-1.5l-0.2,1.5l-0.2,1.5c-0.4,1.8-1.1,4.1-1.7,5.8c0.1,0.2,0.2,0.3,0.3,0.5
				c-0.6-1-1.4-1.9-2.2-2.3c-1.3-0.5-2.1,0.2-2.4,2.3c-3.6-2.9-3.9-3.1-10.9-7.9c0,0,0-0.1,0-0.1c-0.4-3-2.5-6.5-5.3-7.2
				c-0.8-0.1-1.3,0-1.9,0.4l-2.6-3.3c0.2-0.4,0.7-1.2,0.4-2.8c-0.3-1.7-1.2-3.6-2.6-5c0,0,0.1,0.1,0.1,0.1c1.1-4.9,1.1-5.1,1.2-10.3
				c2.7,2,3.6,1.2,3.5,0c-0.1-0.4-0.3-1.1-0.7-1.7c-0.4-0.6-1.5-2.3-3.8-4c-1.9-3.5-2.8-5.1-5.6-7.4c1.1,0.5,1.3,0.5,1.3,0.4
				c0-0.2-0.8-0.8-2.2-1.6c1.1,0.5,1.9,0.9,2.5,1.2c0.2,0.1,0.5,0.2,0.7,0.3l4,2.3l0.3,0.2c2.2,1.4,4.6,3.3,6.5,4.8
				c2.3,1.7,2.9,2.2,3.1,2.2c-0.1-0.2-1.2-1.2-3-2.5v0c0,0-0.1-0.1-0.1-0.1c-1.3-1-2.5-1.8-3.6-2.5l-0.4-0.3l-1.3-0.9l-1.2-0.8
				l-0.1,0l-0.7-0.4l-3-1.8l0,0c0,0,0,0,0,0c0,0,0,0,0,0c-0.1-0.1-0.2-0.1-0.4-0.2l0,0c-2.9-1.6-2.9-1.6-3.9-2.1l0,0l-0.5-0.2
				l-1-0.5l-0.1,0c-0.4-0.2-0.7-0.3-1-0.4c-1.9-0.9-3.3-1.5-3.4-1.5c-0.1,0-0.1,0-0.2-0.1c0,0,0.4,0.2,0.8,0.5
				c-0.5-0.2-0.8-0.2-0.9-0.2c0,0,0,0,0.1,0c0.1,0.1,0.3,0.2,0.8,0.4l-1.3-0.4c-0.7-0.3-1.5-0.5-2.1-0.7c-1.6-1-4-1.9-5.6-2.4
				c-0.3-0.1-0.4-0.1-0.5-0.1c0,0,0,0,0,0c0.1,0.2,0.9,0.7,1.9,1.3c-1.7-0.4-2.9-0.5-3.1-0.4c0,0,0,0,0,0c0.2,0.1,0.7,0.2,2.1,0.6
				c0.8,0.2,1.6,0.4,2.5,0.7c0.4,0.2,0.7,0.4,1,0.6l1.4,1.6c-0.4-0.1-0.5-0.2-0.7-0.2c-1.9-0.3-0.8,1.5-0.5,1.8
				c0,0.1,0.1,0.1,0.1,0.2l-0.7,0c-0.6-0.6-2.2-2.1-4.5-2.7c-0.3,0-0.9-0.2-1.4,0.1c-1.5,0.8,0.9,4.2,3.8,5.3
				c2.2,0.9,3.6,0.1,2.9-1.5c-0.1-0.1-0.1-0.2-0.2-0.4l0.8,0.1c2.5,2.6,5.7,3.7,6.1,2.6c0,0,0,0,0-0.1c-0.5-0.3-1.2-0.7-1.8-1.1
				c-0.6-0.4-1.2-0.8-1.8-1.1l1.8,1.1l1.8,1.1c2.2,1.5,5,3.5,7.1,5l0.1,0.2c0.7,2,2.5,3.9,3.2,4.6c0.1,4.2,0,4.5-1.2,10.2
				c0.2,0.1,0.3,0.2,0.4,0.3c-0.8-0.6-1.6-1.1-2.5-1.3c-1.4-0.2-2.2,0.3-2.7,1.6c-8.4-6.7-11.1-8.7-20.6-15c0.1-0.2,0.2-0.7,0.2-1.4
				c-0.2-1.9-2.3-4.2-5.1-4.5c-1.5-0.1-2.6,0.4-3.3,1.5c-9.4-3.3-14.8-4.9-22.6-7.1c0.1-0.1,0.3-0.4,0.5-0.7
				c0.2-0.4,0.3-0.8,0.3-0.9c1.9-0.5,4.5-1,6.4-1.4c0.8-0.2,1.8-0.4,2.7-0.5c-0.9,0.2-1.9,0.4-2.7,0.5c1.2,2.2,5.7,1.5,6.3-0.5
				c0.2-0.8-0.3-2-2.5-2.2c-2.3-0.1-3.7,1-3.8,2.1c0.6-0.1,1.4-0.3,2.1-0.4c-0.7,0.1-1.5,0.3-2.1,0.4c-1.9,0.4-4.5,1-6.4,1.4
				c-0.2-0.6-0.8-0.9-1.7-1c-0.2,0.3-0.5,0.7-0.7,1.1l0.7-1.1c0.8-1,1.9-2.2,2.8-3.1c2-0.2,3.4-1,3.5-1.1c0.2-0.1,0.2-0.2,0.3-0.2
				l2-0.2c0,0-0.1,0.1-0.1,0.2c-0.1,0.8,3.6,0.8,4.5-0.1c0.5-0.5-0.6-0.5-1.2-0.6c-1.4-0.1-2.3,0-2.9,0.3l-2.1,0.1
				c0.1-0.2-0.2-0.3-1.1-0.3c-0.6,0-1,0.1-1.5,0.1l0-0.1c0.2,0,0.4-0.1,0.7-0.1c0.6,0,1.2,0,1.8,0c0.3,0,0.3,0,0.3-0.1
				c0,0-0.1-0.1-0.7-0.1l-0.5,0l-1.5,0l0,0l0,0l-1.7,0.1c-0.9,0.1-1.5,0.2-1.6,0.3c0.1,0.1,1.3,0,2,0c0.1,0,0.2,0,0.2,0l0,0.1
				l-0.1,0c-2.2,0.4-2.7,1.1-2.2,1.4c0.3,0.2,0.8,0.2,0.8,0.2c0.5-0.3,1.1-0.9,1.7-1.1l-1.7,1.1c-1,0.9-2.1,2.1-2.9,3.1l-0.1,0
				c-1.5,0.3-3,1-4,2.1c0.2,0,0.5,0,0.7,0l-0.7,0c-5.4,0.3-6.4,0.4-11.9,0.9c1-1.2,1-1.9-0.2-1.8c-0.1,0-0.2,0-0.3,0
				c-0.8,0.1-1.3,0.3-1.3,0.3c0.8-0.8,2-1.8,2.9-2.5l0.8-0.4c-0.3,0.1-0.5,0.3-0.8,0.4c0.9-0.3,2-0.7,4-1.5c2.3-0.9,2.4-1,2.5-1.1
				c-0.1,0-0.1,0-0.4,0c-3.4,0.5-8.1,2.1-8.4,2.8c0,0.1,0,0.3,1.3,0c-1,0.7-2.2,1.9-3.1,2.7l-0.2,0.1c-2.7,1.3-4.6,3-4.6,4.1
				c-9.7,6.6-14.8,11.9-20.8,18c-0.4-0.1-0.6,0-1,0.1c-2.7,0.8-6.4,4.9-6.8,8.4l-3,3.2c-0.3-0.7-0.9-0.8-1.7-0.6
				c-0.4,0.2-0.7,0.3-1.2,0.6c0,0.5-0.1,1.1-0.2,1.8l0.2-1.8c0.8-5.1,1-5.7,3-11.3c1.7-1.4,3.1-3,4-4c1.5-1.8,1.9-2.7,2.1-3
				c1.8-1.5,4.3-3.5,6.2-5c0.4,0.8,3.9-1.3,7-3.9c1.4-1.1,2.3-2.1,2.6-2.5c0.1-0.1,0.2-0.5-0.5-0.3c-0.2,0-0.3,0.1-0.5,0.2l2.4-1.8
				c1.4-0.7,2.7-1.3,4.1-2c1.1-0.5,2.2-1.1,3.3-1.6c-0.5,0.2-1,0.4-1.5,0.6l1.5-0.6l1.4-0.5l4.1-1.4c0,0,0.1,0,0.1,0
				c-1.4,0.5-3,1-4.2,1.4c0.3,0,1-0.3,2.5-0.8c0.6-0.2,1.5-0.5,2.4-0.8c1.8-0.5,3.6-0.9,5.4-1.3c0,0,0.1,0,0.1,0
				c-0.2,0-1.3,0.2-2.1,0.4c-0.2,0-0.5,0.1-1,0.3L99,50.8l0.2-0.1l-0.3,0.1L98.2,51l-1.4,0.4l-1.4,0.4l-0.7,0.2
				c-0.8,0.3-1.2,0.4-1.4,0.5l-1.6,0.6c-0.1,0-0.1,0-0.3,0.1c-0.2,0.1-3.7,1.3-7.4,3.1c0.2-0.1,0.5-0.2,0.8-0.3L84,56.4
				c-0.9,0.4-2.1,1-3.1,1.5c0.1,0,0.2-0.1,0.2-0.2c-0.2,0.1-0.6,0.3-1,0.5l-0.2,0.1l-2.1,1.1v0l-1,0.6l0,0L76.7,60l-0.4,0.2v0l0,0
				l0,0l-0.7,0.4l-0.2,0.1l-0.3,0.2L75,61l0.1-0.1l-0.5,0.3c-0.4,0.3-1,0.6-1.5,0.9l0,0l0,0c0,0,0,0,0,0c-1.2,0.7-1.6,1-2.5,1.6
				l-0.1,0.1c-0.2,0.1-0.2,0.1-0.3,0.2c0.1,0,0.2-0.1,1.3-0.8c0.1-0.1,0.2-0.2,0.4-0.2l-0.2,0.1c-4.8,3.9-5.1,4.1-8.1,8.1l-0.2,0.2
				c-2.3,1.9-3.6,3.6-4.4,4.6c-2,1.6-4.5,3.8-6.4,5.4c0.2-0.4,0.7-1.4,0.3-1.3c-0.1,0-0.3,0.1-0.4,0.2c-0.7,0.6-1.5,1.4-1.5,1.4
				l1.5-2.3c1.1-1.2,2.3-2.4,3.4-3.6c1.3-1.3,2.6-2.5,3.9-3.9c-0.1,0-0.1,0.1-0.2,0.1c-1.4,1.3-3.2,3-4.9,4.7l0.2-0.2l-1.1,1.1
				l-0.1,0.2c-0.9,0.9-1.8,1.9-2.5,2.7c0.6-0.7,1.3-1.4,2-2.1l-0.1,0.1c-0.7,0.7-1.3,1.4-1.9,2c-0.6,0.7-0.6,0.7-0.6,0.8
				c0.1-0.1,0.2-0.1,0.9-0.9L50,83l-0.3,0.4c-2.9,3.5-4.4,6.3-4.5,7.2l-1,1.6c-0.1,0-0.2,0-0.4,0.1c-2.6,2.2-6.7,10.7-6,11.8
				c0.4,0.7,2.6-2.4,4.7-6.8c1.1-2.3,1.7-3.9,1.8-4.9l1.1-1.7c0.9-0.2,3.4-3.4,5.5-6.4c0.6-0.9,1-1.5,1.2-1.8
				c-0.9,0.9-2.1,2.1-3.1,3l3.1-3c1.9-1.7,4.5-3.9,6.4-5.5c-0.8,1.6,0.1,1.4,0.4,1.3c0.2-0.1,0.5-0.2,0.8-0.4c0,0,0.1-0.1,0.1-0.1
				l0,0c-1.9,4.6-2,5.2-3.1,11.5l-0.2,0.2c-1.9,2.1-3.1,4.6-3.5,6.9c-6.9,7.2-7.1,7.5-12.5,14.8c0,0,0.1-2.1-1.3-1.5
				c-2.9,2-5,11.3-3.5,13.2c1.1,1.5,3.3-2.2,4.4-7.2c0.3-1.5,0.4-2.6,0.4-3c5.8-7.9,5.9-8,12.5-14.9c0,0.1,0,0.1,0,0.2
				c-8.5,14.9-10.5,22-13.7,34.2c-0.3-0.1-0.6-0.1-0.9,0c-3.1,1.9-3,11.6-0.5,13.7c1.8,1.5,3.5-2.1,3.4-7.2c0-2.5-0.5-4.5-1.3-5.9
				c3.8-15.5,6.8-21.9,13.4-33.9c0.2,0.2,0.3,0.3,0.5,0.4c-3.1,8-3.2,8.4-5.9,18.8c-0.2,0-0.3,0-0.5,0.1c-3.7,1.5-4.9,10.7-2.6,13.5
				c2,2.3,4.8-1.3,5.3-6.7c0.1-1.2,0.3-5.1-1.4-6.5c2.1-8.8,2.3-9.3,6-19c0.1,0,0.4-0.1,0.8-0.3c0,0,0.1,0,0.1-0.1
				c-0.6,12.6,0,18.9,3.1,33.5l0.6,2.4c-0.2-0.8-0.4-1.7-0.6-2.4c-2.2,3.3-1.8,9.1,0.7,11.5c2.6,2.5,5.8-0.6,6-5.8
				c0.1-3.2-1.2-7.7-4.3-7.4c-0.5,0.1-0.8,0.3-1.3,0.6c-3.2-15.2-3.5-21.3-3-33.2c1.9-1.8,2.9-4.1,3.4-5.2c0.8-2,0.8-3.1,0.8-3.6
				l2.9-3.2c0.6,1.5,2.8,1.5,5.9-2c3.2,0.8,3.2,0.8,9.6,2.4l0,0.1c-1.7,4.1,0.5,7.2,4,5.7c1.8-0.7,3.5-2.6,4.4-4.7
				c0.1-0.2,0.1-0.4,0.2-0.5c2.8-0.5,6.6-1.1,9.5-1.5c0.1,0.7,0.4,1.3,0.8,1.8l-3.1,4.6c-0.4-0.1-0.7-0.1-1.1-0.1
				c-5,0.5-7.6,7.2-5.4,10.7c2.4,3.7,7.9,1.2,9.2-4.1c0.3-1.2,0.7-4-1.5-5.9l2.9-4.3c2.4,1.3,5.1-0.1,6.6-2c0.1-0.1,0.2-0.2,0.2-0.3
				c-0.9-0.1-1.9-0.2-2.9-0.4l2.9,0.4c2.6,0.3,6,0.9,8.5,1.2l0,0.2c-0.1,2.2,0.9,3.9,2.7,4.9c-6.8,14.2-9.3,20.4-14.4,34.4
				c-0.2,0-0.4-0.1-0.7-0.1c-5.2,0.3-7.1,8-4.1,12.1c3,4.2,8.3,1.7,9-4.2c0.1-0.8,0.4-5.1-2.8-7.3c5.4-14.8,8-20.9,14.4-34.5
				c3,0.4,5.9-1.9,6.4-5.2c0.3-1.7-0.3-2.9-0.5-3.4c-0.6,0.5-1.2,1.2-1.9,1.8l1.9-1.8c5.5-5.2,8.7-8,18.2-16.4c1.6,1,4,1.6,5.7,0.1
				c-0.5-0.3-1-0.7-1.6-1l1.6,1c10.1,6.7,12.9,8.9,21,15.4l0,0.1c0.1,4.4,4.4,8.9,7.3,7.5c0.1,0,0.2-0.1,0.2-0.1l2.7,3.5l-0.1,0.2
				c-0.6,1.4-0.5,3.3,0.1,5.4c-3.4,2-4.4,2.5-11,6c-1.1-2.3-2.6-3.6-4.5-3.9c-3.7-0.4-5.9,3.8-4.5,8.5c0.7-0.5,1.6-1,2.5-1.6
				l-2.5,1.6c-7.1,4.5-7.1,4.5-14.6,9.4c-1.3-1.8-2.5-2.6-4.5-2.7c-6.2,0.4-7.6,9.4-3.3,13c2,1.7,4.6,1.6,6.6-0.1
				c0.1-0.1,0.3-0.3,0.5-0.5c-0.6-0.6-1.3-1.4-2-2.1c-0.7-0.7-1.4-1.5-2-2.1l2,2.1l2,2.1c2.8,3.1,6.4,7.3,9.1,10.4
				c-2.4,5.8,1.3,12,5.8,9.8c1.6-0.8,3-2.5,3.6-4.7c0.1-0.2,0.1-0.5,0.2-0.7c-0.4,0-0.7,0.1-1.2,0.1l1.2-0.1
				c3.6-0.3,8.4-0.6,12.1-0.8c0.7,5.8,4.6,6.9,7.2,3.5c0.7-1,1.3-2.2,1.6-3.5c0.2-0.9,0.2-1.6,0.3-1.9c-0.5,0.2-1.1,0.5-1.6,0.8
				c-0.6,0.3-1.1,0.5-1.6,0.8l1.6-0.8l1.6-0.8c2.1-1,5-2.4,7.1-3.4l1.5-0.8c-0.5,0.3-1.1,0.5-1.5,0.8c0.2,0.8,0.5,1.5,1,2.3
				c2.1,3,5.3,1.1,6.1-3.5c0.5-3,0-7.8-2.9-9.2c-0.5-0.2-0.9-0.2-1.4-0.1c-1.9-7.4-3.5-13.8-7.5-23.6c0-0.1,0.1-0.1,0.1-0.2
				c0,0,0,0,0,0c9.1,10.6,12.6,16.6,17.6,25.4c-0.8,3.6-0.2,8.1,1.2,10.1c1.7,2.3,3.8,0.3,4.3-4c0.4-3.5-0.5-7.8-2.6-9.2
				c-1.1-0.4-1.7,0-2.5,1.5c-6.1-11.4-11.6-18-17.5-25c0.1-0.2,0.2-0.5,0.2-1c0,0,0-0.1,0-0.2c-0.3-0.2-0.6-0.4-0.9-0.5l0.9,0.5
				c4.1,2.7,4.2,2.8,10.8,7.9c0.2,3.7,1.8,7.2,3.3,8.4c2,1.7,3.6-0.2,3.3-3.9c-0.1-1.7-0.7-3.8-1.5-5.4c0.1,0.1,0.1,0.2,0.2,0.4
				c0.6-1.7,1.2-4.1,1.7-5.8c2.5,3.5,2.9,1.5,3,1.2c0-0.1,0-0.4,0-0.5c0-0.1,0-0.2,0-0.3l0,0.1l2.2,3.2l1.2,2
				c-0.4-0.7-0.8-1.4-1.2-2c0.4,4.4,2.7,10.1,4,11C215.3,118.8,215.6,117,215,114z M198.6,85.8c0.4,0.7,0.8,1.5,1.3,2.3c0,0,0,0,0,0
				C199.4,87.4,199,86.6,198.6,85.8z M176.7,62.1L176.7,62.1l1.6,1.1C177.7,62.8,177.1,62.5,176.7,62.1z M156,58l-1.6-0.1
				C154.8,58,155.4,58,156,58z M176.7,69.4l-0.3-0.8C176.5,68.9,176.6,69.1,176.7,69.4z M166.6,57l0.9,0.6
				C167.2,57.4,166.9,57.2,166.6,57L166.6,57z M167.6,57.4C167.6,57.4,167.6,57.4,167.6,57.4C167.6,57.4,167.6,57.4,167.6,57.4
				L167.6,57.4z M159.5,58.2l-0.1,0C159.4,58.2,159.5,58.2,159.5,58.2z M172.2,65.8c-2.1-1.5-5-3.5-7.1-4.9
				c-0.1-0.2-0.2-0.6-0.7-1.1c-0.4-0.5-1.7-1.8-4-3c0.1,0.2,0.2,0.4,0.4,0.6l-0.4-0.6l-1.3-1.6c0,0,1.4,0.7,1.9,0.6
				c0.3,0,0.2-0.3-0.1-0.6c2.9,0.8,2.9,0.8,3,0.8c-0.1-0.2-0.7-0.4-1.5-0.7c0.2,0.1,0.4,0.1,0.5,0.2l1.2,0.4c0.1,0,0.2,0.1,0.3,0.1
				c2,1.1,4.6,2.6,4.6,2.7c3.4,3.4,3.6,3.6,5.5,7.2c-0.6-0.4-0.9-0.5-1.3-0.6C172.9,65.3,172.3,65.2,172.2,65.8
				c0.5,0.4,1.1,0.8,1.6,1.2L172.2,65.8z M121.4,48.3l1.3-0.1C122.2,48.2,121.8,48.2,121.4,48.3z M55.5,76.2
				c-0.4,0.4-0.8,0.9-1.3,1.3l0.1-0.1C54.7,77,55.1,76.6,55.5,76.2z M42.2,95.6c-0.7,1.2-1.3,2.4-1.9,3.5
				C40.8,98,41.5,96.8,42.2,95.6z M40.6,99.2c0.5-1,1.2-2.2,1.8-3.4C41.8,97,41.1,98.2,40.6,99.2z M62.7,73.9l2.7-2.4
				C64.5,72.3,63.5,73.1,62.7,73.9z M86.8,55.3l1.4-0.6C87.7,54.9,87.2,55.1,86.8,55.3z M73,62.3c0.4-0.2,1-0.6,1.8-1.1
				c1.1-0.6,2.7-1.5,5-2.8c1-0.5,2-1,2.9-1.4c-1,0.6-1.5,0.9-1.5,1c0,0,0.1,0.1,1.4-0.5c0.1,0,0.2-0.1,0.3-0.2l-0.1,0.1l-2.2,1.7
				l-2,1.9c0.7-0.6,1.4-1.3,2-1.9c-2.8,1.4-6.2,3.8-7.4,5.5c-1.9,1.4-4.4,3.4-6.2,4.9c0-0.3-0.4-0.3-0.8-0.1
				c-0.7,0.3-1.3,0.8-1.3,0.8C68.6,65.7,68.8,65.5,73,62.3z M38.5,135.9c0.1-0.5,0.2-1,0.3-1.5L38.5,135.9l-0.7,3.5
				C38.1,138.3,38.3,137.1,38.5,135.9z M47.1,122.6c-0.3,1.5-0.5,3-0.8,4.3C46.5,125.6,46.8,124.1,47.1,122.6z M47.2,127.1
				c0.2-1.3,0.5-2.8,0.7-4.2C47.7,124.3,47.4,125.8,47.2,127.1z M60.3,138.7L60.3,138.7c-0.2-0.7-0.4-1.6-0.6-2.4L60.3,138.7z
				 M55.7,97.7c0-0.3,0-0.5,0.1-0.7L55.7,97.7z M57.2,93.7l1.8-2.1C58.4,92.3,57.8,93,57.2,93.7z M93,95.1l-1.3,2
				C92.1,96.4,92.5,95.7,93,95.1z M102.2,128.3L102.2,128.3C102.1,128.4,102.2,128.3,102.2,128.3z M100.8,132.2l-0.3,0.9
				C100.6,132.8,100.7,132.5,100.8,132.2z M101.4,130.5l-0.2,0.5C101.3,130.8,101.4,130.6,101.4,130.5z M144.6,64.2l-2.6-0.9
				C142.9,63.6,143.9,63.9,144.6,64.2z M115.4,55l1-0.2C116,54.8,115.7,54.9,115.4,55z M82.7,85.8c0.5,0.1,1,0.3,1.5,0.4L82.7,85.8z
				 M83.1,88.1l1.5-0.3C84.1,87.9,83.6,88,83.1,88.1z M88.1,85.6c0.2-2.8-1-4.3-3.4-4c-1.7,0.4-3.3,1.5-4.7,3.5
				c-3.3-0.9-4-1-9.3-2.4c0.2-0.3,0.5-0.8,0.8-1.4c0.5-1.1,1.3-3.1,0.5-4.2c-0.7,0.8-1.5,1.7-2.3,2.7c-0.8,0.9-1.6,1.9-2.3,2.7
				l2.3-2.7l2.3-2.7c8.5-9.2,14.3-13.4,20.4-17.9c1.2,0.7,4.6-0.8,6.7-2.7c0,0,0.1-0.1,0.2-0.1c-0.3,0-0.7,0.1-1.1,0.1l1.1-0.1
				c5.2-0.6,6.3-0.6,12.1-1c-0.4,0.9-0.2,1.6,0.5,2c-1.1,1.9-2.4,4.5-3.4,6.4c-0.5,0.1-1.3,0.2-2.3,0.9c-3.5,2.1-4.5,6.5-0.8,7.4
				c-0.7,1.8-1.6,4.2-2.3,6l-0.2,0c-2.8,0.5-5.3,3.1-5.7,6C94.5,84.5,90.8,85.1,88.1,85.6z M107.3,66.7c0.2-0.3,0.3-0.7,0.5-1.1
				L107.3,66.7z M123.6,83.1c-0.5-0.5-1.5-1.4-3.4-1.5c-2.4,0-4.5,1.6-5.4,4.1c1.1,0.2,2.6,0.4,3.9,0.6l-3.9-0.6
				c-2.4-0.4-5.6-0.8-8-1.2c0.1-0.2,0.2-0.6,0.4-1.1c0.5-2.1-0.1-4.6-2.6-5.3c0.6-1.8,1.6-4.2,2.3-6l1.3-3c-0.4,1-0.9,2.1-1.3,3
				c3.8-0.5,5.1-3.6,5.3-4c0.7-1.8,0.4-4-2.2-4.4c0.9-1.9,2.1-4.3,3.1-6.1c1.6,0.2,3.3-0.4,4.3-1.2c0,0,0.1,0,0.1-0.1
				c-0.5-0.1-1-0.3-1.5-0.4c-0.5-0.1-1.1-0.3-1.5-0.4l1.5,0.4l1.5,0.4c9.1,2.5,13.5,4,23.1,7.3l0,0.1c-0.1,1.1,0.3,2.2,1.2,3.2
				C130.3,77,130.3,77,123.6,83.1z M175.2,82.2c-0.1-0.1-0.2-0.2-0.3-0.3C175,82,175.1,82.1,175.2,82.2z M174.3,86.3l-2.4-2
				C172.8,84.9,173.6,85.6,174.3,86.3z M173.9,87.4l1.1,1.3C174.6,88.2,174.2,87.8,173.9,87.4z M206.1,133.7l0.7,1.4
				C206.5,134.7,206.3,134.2,206.1,133.7z M183.7,98.3l-1.7-2.4C182.5,96.8,183.1,97.6,183.7,98.3z M164.8,112.6
				c-0.3-0.9-0.5-1.8-0.8-2.6L164.8,112.6z M167.3,108.8c-0.6,0.3-1.3,0.7-1.8,1L167.3,108.8z M145.3,128.2c0.2-0.4,0.6-1.3,0.8-2.6
				c0.3-1.9-0.2-3.3-0.3-3.8c-0.9,0.6-2,1.3-3,2l3-2c8.3-5.4,8.3-5.4,14.6-9.5c1.9,3,4.1,3.1,5,2.9c0.1,0,0.1,0,0.2,0
				c1,3.7,2.1,8.6,3,12.3l-0.3,0.2c-2.3,2-3.2,5.7-2.2,9.3l-3.5,3c-1-2.4-2.2-3.4-4.3-3.6c-1.5,0.1-2.5,0.5-4,2.2
				C151.7,135.4,148,131.2,145.3,128.2z M158.1,143.3l-2.6-3.2C156.4,141.1,157.3,142.3,158.1,143.3z M163,142.6c0-0.2,0-0.4,0-0.6
				l3.8-3.2c2.5,3.9,5.8,2.3,7.3-0.1c0.1-0.1,0.2-0.3,0.2-0.4l1.1,0.9l-0.1,0.2c-0.2,0.6-0.4,1.3-0.5,2.4
				C171.4,142,166.6,142.3,163,142.6z M192.8,128.7l1.2,6C193.7,133,193.2,130.5,192.8,128.7c-2.3,2.4-2.2,6.3-2.1,7.9
				c-2,1-4.8,2.3-6.9,3.3c-0.5-2.7-1.7-4.3-3.5-4.8c-1.5-0.2-2.8,0.5-4,2.3c1,0.8,2.2,1.8,3.2,2.7l-3.2-2.7l-1.2-1
				c0.1-0.2,0.2-0.6,0.3-1.2c0.6-3.5-0.8-7.8-4.1-8.4c-0.5-0.1-0.8-0.1-1.4,0c0.4,1.9,0.9,4.5,1.2,6.4l-1.2-6.4
				c-0.8-3.7-2-8.6-3-12.2c1.8-1.3,2.3-3.2,2.4-4.6v0c0.1-1-0.1-1.8-0.1-2.2c5-2.7,5-2.7,11.1-6.2c2.2,3.9,4.6,3.6,5,3.5
				c0.1,0,0.1,0,0.2-0.1c-0.2-0.4-0.3-0.8-0.5-1.3l0.5,1.3C188.2,112.4,190.6,118.6,192.8,128.7z M201.4,112.6l1,0.9
				C202.1,113.2,201.8,112.9,201.4,112.6z M203,108.4c0.1,0.1,0.2,0.3,0.2,0.4C203.2,108.7,203.1,108.5,203,108.4z M205.3,99l-1-2.5
				C204.6,97.4,205,98.3,205.3,99z"/>
		</g>
		<g>
			<path class="st26" d="M79.8,227.7l0.1,0.1c-0.8-0.4-1.8-1-2.6-1.4c0,0,0,0,0,0C78.5,227.1,79.4,227.5,79.8,227.7z"/>
			<path class="st26" d="M34.7,171.9L34.7,171.9c0.7,3.1,2.3,7.2,3.8,8.5c0.5,0.4,0.8,0.2,0.9-0.5l2.4,3.5c0.1,0.3,0.2,0.7,0.4,1.4
				v0c0.8,2.4,2.6,5.8,4.4,7.3l0.7,1.6c0,0,0,0,0,0c0,0,0,0-0.1,0c-0.9-0.3-0.7,1.2,0.5,3.5c1.5,2.8,4,6,5.5,7
				c0.1,0.1,0.3,0.2,0.5,0.2c1-0.1-1.6-5.3-4.3-8.6c-0.3-0.7-0.7-1.3-1.5-1.7l-0.7-1.5l0,0c1.5,0.2,0.3-4.6-1.8-8.4
				c-0.1,0.5-0.1,1-0.2,1.5c-0.1,0.5-0.1,1.1-0.2,1.5l0.2-1.5l0.2-1.5c0.4-1.8,1.1-4.1,1.7-5.8c-0.1-0.2-0.2-0.3-0.3-0.5
				c0.6,1,1.4,1.9,2.2,2.3c1.3,0.5,2.1-0.2,2.4-2.3c3.6,2.9,3.9,3.1,10.9,7.9c0,0,0,0.1,0,0.1c0.4,3,2.5,6.5,5.3,7.2
				c0.8,0.1,1.3,0,1.9-0.4l2.6,3.3c-0.2,0.4-0.7,1.2-0.4,2.8c0.3,1.7,1.2,3.6,2.6,5c0,0-0.1-0.1-0.1-0.1c-1.1,4.9-1.1,5.1-1.2,10.3
				c-2.7-2-3.6-1.2-3.5,0c0.1,0.4,0.3,1.1,0.7,1.7c0.4,0.6,1.5,2.3,3.8,4c1.9,3.5,2.8,5.1,5.6,7.4c-1.1-0.5-1.3-0.5-1.3-0.4
				c0,0.2,0.8,0.8,2.2,1.6c-1.1-0.5-1.9-0.9-2.5-1.2c-0.2-0.1-0.5-0.2-0.7-0.3l-4-2.3l-0.3-0.2c-2.2-1.4-4.6-3.3-6.5-4.8
				c-2.3-1.7-2.9-2.2-3.1-2.2c0.1,0.2,1.2,1.2,3,2.5v0c0,0,0.1,0.1,0.1,0.1c1.3,1,2.5,1.8,3.6,2.5l0.4,0.3l1.3,0.9l1.2,0.8l0.1,0
				l0.7,0.4l3,1.8l0,0c0,0,0,0,0,0c0,0,0,0,0,0c0.1,0.1,0.2,0.1,0.4,0.2l0,0c2.9,1.6,2.9,1.6,3.9,2.1l0,0l0.5,0.2l1,0.5l0.1,0
				c0.4,0.2,0.7,0.3,1,0.4c1.9,0.9,3.3,1.5,3.4,1.5c0.1,0,0.1,0,0.2,0.1c0,0-0.4-0.2-0.8-0.5c0.5,0.2,0.8,0.2,0.9,0.2c0,0,0,0-0.1,0
				c-0.1-0.1-0.3-0.2-0.8-0.4l1.3,0.4c0.7,0.3,1.5,0.5,2.1,0.7c1.6,1,4,1.9,5.6,2.4c0.3,0.1,0.4,0.1,0.5,0.1c0,0,0,0,0,0
				c-0.1-0.2-0.9-0.7-1.9-1.3c1.7,0.4,2.9,0.5,3.1,0.4c0,0,0,0,0,0c-0.2-0.1-0.7-0.2-2.1-0.6c-0.8-0.2-1.6-0.4-2.5-0.7
				c-0.4-0.2-0.7-0.4-1-0.6l-1.4-1.6c0.4,0.1,0.5,0.2,0.7,0.2c1.9,0.3,0.8-1.5,0.5-1.8c0-0.1-0.1-0.1-0.1-0.2l0.7,0
				c0.6,0.6,2.2,2.1,4.5,2.7c0.3,0,0.9,0.2,1.4-0.1c1.5-0.8-0.9-4.2-3.8-5.3c-2.2-0.9-3.6-0.1-2.9,1.5c0.1,0.1,0.1,0.2,0.2,0.4
				l-0.8-0.1c-2.5-2.6-5.7-3.7-6.1-2.6c0,0,0,0,0,0.1c0.5,0.3,1.2,0.7,1.8,1.1c0.6,0.4,1.2,0.8,1.8,1.1l-1.8-1.1l-1.8-1.1
				c-2.2-1.5-5-3.5-7.1-5l-0.1-0.2c-0.7-2-2.5-3.9-3.2-4.6c-0.1-4.2,0-4.5,1.2-10.2c-0.2-0.1-0.3-0.2-0.4-0.3
				c0.8,0.6,1.6,1.1,2.5,1.3c1.4,0.2,2.2-0.3,2.7-1.6c8.4,6.7,11.1,8.7,20.6,15c-0.1,0.2-0.2,0.7-0.2,1.4c0.2,1.9,2.3,4.2,5.1,4.5
				c1.5,0.1,2.6-0.4,3.3-1.5c9.4,3.3,14.8,4.9,22.6,7.1c-0.1,0.1-0.3,0.4-0.5,0.7c-0.2,0.4-0.3,0.8-0.3,0.9c-1.9,0.5-4.5,1-6.4,1.4
				c-0.8,0.2-1.8,0.4-2.7,0.5c0.9-0.2,1.9-0.4,2.7-0.5c-1.2-2.2-5.7-1.5-6.3,0.5c-0.2,0.8,0.3,2,2.5,2.2c2.3,0.1,3.7-1,3.8-2.1
				c-0.6,0.1-1.4,0.3-2.1,0.4c0.7-0.1,1.5-0.3,2.1-0.4c1.9-0.4,4.5-1,6.4-1.4c0.2,0.6,0.8,0.9,1.7,1c0.2-0.3,0.5-0.7,0.7-1.1
				l-0.7,1.1c-0.8,1-1.9,2.2-2.8,3.1c-2,0.2-3.4,1-3.5,1.1c-0.2,0.1-0.2,0.2-0.3,0.2l-2,0.2c0,0,0.1-0.1,0.1-0.2
				c0.1-0.8-3.6-0.8-4.5,0.1c-0.5,0.5,0.6,0.5,1.2,0.6c1.4,0.1,2.3,0,2.9-0.3l2.1-0.1c-0.1,0.2,0.2,0.3,1.1,0.3c0.6,0,1-0.1,1.5-0.1
				l0,0.1c-0.2,0-0.4,0.1-0.7,0.1c-0.6,0-1.2,0-1.8,0c-0.3,0-0.3,0-0.3,0.1c0,0,0.1,0.1,0.7,0.1l0.5,0l1.5,0l0,0l0,0l1.7-0.1
				c0.9-0.1,1.5-0.2,1.6-0.3c-0.1-0.1-1.3,0-2,0c-0.1,0-0.2,0-0.2,0l0-0.1l0.1,0c2.2-0.4,2.7-1.1,2.2-1.4c-0.3-0.2-0.8-0.2-0.8-0.2
				c-0.5,0.3-1.1,0.9-1.7,1.1l1.7-1.1c1-0.9,2.1-2.1,2.9-3.1l0.1,0c1.5-0.3,3-1,4-2.1c-0.2,0-0.5,0-0.7,0l0.7,0
				c5.4-0.3,6.4-0.4,11.9-0.9c-1,1.2-1,1.9,0.2,1.8c0.1,0,0.2,0,0.3,0c0.8-0.1,1.3-0.3,1.3-0.3c-0.8,0.8-2,1.8-2.9,2.5l-0.8,0.4
				c0.3-0.1,0.5-0.3,0.8-0.4c-0.9,0.3-2,0.7-4,1.5c-2.3,0.9-2.4,1-2.5,1.1c0.1,0,0.1,0,0.4,0c3.4-0.5,8.1-2.1,8.4-2.8
				c0-0.1,0-0.3-1.3,0c1-0.7,2.2-1.9,3.1-2.7l0.2-0.1c2.7-1.3,4.6-3,4.6-4.1c9.7-6.6,14.8-11.9,20.8-18c0.4,0.1,0.6,0,1-0.1
				c2.7-0.8,6.4-4.9,6.8-8.4l3-3.2c0.3,0.7,0.9,0.8,1.7,0.6c0.4-0.2,0.7-0.3,1.2-0.6c0-0.5,0.1-1.1,0.2-1.8l-0.2,1.8
				c-0.8,5.1-1,5.7-3,11.3c-1.7,1.4-3.1,3-4,4c-1.5,1.8-1.9,2.7-2.1,3c-1.8,1.5-4.3,3.5-6.2,5c-0.4-0.8-3.9,1.3-7,3.9
				c-1.4,1.1-2.3,2.1-2.6,2.5c-0.1,0.1-0.2,0.5,0.5,0.3c0.2,0,0.3-0.1,0.5-0.2l-2.4,1.8c-1.4,0.7-2.7,1.3-4.1,2
				c-1.1,0.5-2.2,1.1-3.3,1.6c0.5-0.2,1-0.4,1.5-0.6l-1.5,0.6l-1.4,0.5l-4.1,1.4c0,0-0.1,0-0.1,0c1.4-0.5,3-1,4.2-1.4
				c-0.3,0-1,0.3-2.5,0.8c-0.6,0.2-1.5,0.5-2.4,0.8c-1.8,0.5-3.6,0.9-5.4,1.3c0,0-0.1,0-0.1,0c0.2,0,1.3-0.2,2.1-0.4
				c0.2,0,0.5-0.1,1-0.3l1.2-0.3l-0.2,0.1l0.3-0.1l0.7-0.2l1.4-0.4l1.4-0.4l0.7-0.2c0.8-0.3,1.2-0.4,1.4-0.5l1.6-0.6
				c0.1,0,0.1,0,0.3-0.1c0.2-0.1,3.7-1.3,7.4-3.1c-0.2,0.1-0.5,0.2-0.8,0.3l0.8-0.3c0.9-0.4,2.1-1,3.1-1.5c-0.1,0-0.2,0.1-0.2,0.2
				c0.2-0.1,0.6-0.3,1-0.5l0.2-0.1l2.1-1.1v0l1-0.6l0,0l0.2-0.1l0.4-0.2v0l0,0l0,0l0.7-0.4l0.2-0.1l0.3-0.2l0.1-0.1l-0.1,0.1
				l0.5-0.3c0.4-0.3,1-0.6,1.5-0.9l0,0l0,0c0,0,0,0,0,0c1.2-0.7,1.6-1,2.5-1.6l0.1-0.1c0.2-0.1,0.2-0.1,0.3-0.2
				c-0.1,0-0.2,0.1-1.3,0.8c-0.1,0.1-0.2,0.2-0.4,0.2l0.2-0.1c4.8-3.9,5.1-4.1,8.1-8.1l0.2-0.2c2.3-1.9,3.6-3.6,4.4-4.6
				c2-1.6,4.5-3.8,6.4-5.4c-0.2,0.4-0.7,1.4-0.3,1.3c0.1,0,0.3-0.1,0.4-0.2c0.7-0.6,1.5-1.4,1.5-1.4l-1.5,2.3
				c-1.1,1.2-2.3,2.4-3.4,3.6c-1.3,1.3-2.6,2.5-3.9,3.9c0.1,0,0.1-0.1,0.2-0.1c1.4-1.3,3.2-3,4.9-4.7l-0.2,0.2l1.1-1.1l0.1-0.2
				c0.9-0.9,1.8-1.9,2.5-2.7c-0.6,0.7-1.3,1.4-2,2.1l0.1-0.1c0.7-0.7,1.3-1.4,1.9-2c0.6-0.7,0.6-0.7,0.6-0.8
				c-0.1,0.1-0.2,0.1-0.9,0.9l1.7-2.5l0.3-0.4c2.9-3.5,4.4-6.3,4.5-7.2l1-1.6c0.1,0,0.2,0,0.4-0.1c2.6-2.2,6.7-10.7,6-11.8
				c-0.4-0.7-2.6,2.4-4.7,6.8c-1.1,2.3-1.7,3.9-1.8,4.9l-1.1,1.7c-0.9,0.2-3.4,3.4-5.5,6.4c-0.6,0.9-1,1.5-1.2,1.8
				c0.9-0.9,2.1-2.1,3.1-3l-3.1,3c-1.9,1.7-4.5,3.9-6.4,5.5c0.8-1.6-0.1-1.4-0.4-1.3c-0.2,0.1-0.5,0.2-0.8,0.4c0,0-0.1,0.1-0.1,0.1
				l0,0c1.9-4.6,2-5.2,3.1-11.5l0.2-0.2c1.9-2.1,3.1-4.6,3.5-6.9c6.9-7.2,7.1-7.5,12.5-14.8c0,0-0.1,2.1,1.3,1.5
				c2.9-2,5-11.3,3.5-13.2c-1.1-1.5-3.3,2.2-4.4,7.2c-0.3,1.5-0.4,2.6-0.4,3c-5.8,7.9-5.9,8-12.5,14.9c0-0.1,0-0.1,0-0.2
				c8.5-14.9,10.5-22,13.7-34.2c0.3,0.1,0.6,0.1,0.9,0c3.1-1.9,3-11.6,0.5-13.7c-1.8-1.5-3.5,2.1-3.4,7.2c0,2.5,0.5,4.5,1.3,5.9
				c-3.8,15.5-6.8,21.9-13.4,33.9c-0.2-0.2-0.3-0.3-0.5-0.4c3.1-8,3.2-8.4,5.9-18.8c0.2,0,0.3,0,0.5-0.1c3.7-1.5,4.9-10.7,2.6-13.5
				c-2-2.3-4.8,1.3-5.3,6.7c-0.1,1.2-0.3,5.1,1.4,6.5c-2.1,8.8-2.3,9.3-6,19c-0.1,0-0.4,0.1-0.8,0.3c0,0-0.1,0-0.1,0.1
				c0.6-12.6,0-18.9-3.1-33.5l-0.6-2.4c0.2,0.8,0.4,1.7,0.6,2.4c2.2-3.3,1.8-9.1-0.7-11.5c-2.6-2.5-5.8,0.6-6,5.8
				c-0.1,3.2,1.2,7.7,4.3,7.4c0.5-0.1,0.8-0.3,1.3-0.6c3.2,15.2,3.5,21.3,3,33.2c-1.9,1.8-2.9,4.1-3.4,5.2c-0.8,2-0.8,3.1-0.8,3.6
				l-2.9,3.2c-0.6-1.5-2.8-1.5-5.9,2c-3.2-0.8-3.2-0.8-9.6-2.4l0-0.1c1.7-4.1-0.5-7.2-4-5.7c-1.8,0.7-3.5,2.6-4.4,4.7
				c-0.1,0.2-0.1,0.4-0.2,0.5c-2.8,0.5-6.6,1.1-9.5,1.5c-0.1-0.7-0.4-1.3-0.8-1.8l3.1-4.6c0.4,0.1,0.7,0.1,1.1,0.1
				c5-0.5,7.6-7.2,5.4-10.7c-2.4-3.7-7.9-1.2-9.2,4.1c-0.3,1.2-0.7,4,1.5,5.9l-2.9,4.3c-2.4-1.3-5.1,0.1-6.6,2
				c-0.1,0.1-0.2,0.2-0.2,0.3c0.9,0.1,1.9,0.2,2.9,0.4l-2.9-0.4c-2.6-0.3-6-0.9-8.5-1.2l0-0.2c0.1-2.2-0.9-3.9-2.7-4.9
				c6.8-14.2,9.3-20.4,14.4-34.4c0.2,0,0.4,0.1,0.7,0.1c5.2-0.3,7.1-8,4.1-12.1c-3-4.2-8.3-1.7-9,4.2c-0.1,0.8-0.4,5.1,2.8,7.3
				c-5.4,14.8-8,20.9-14.4,34.5c-3-0.4-5.9,1.9-6.4,5.2c-0.3,1.7,0.3,2.9,0.5,3.4c0.6-0.5,1.2-1.2,1.9-1.8l-1.9,1.8
				c-5.5,5.2-8.7,8-18.2,16.4c-1.6-1-4-1.6-5.7-0.1c0.5,0.3,1,0.7,1.6,1l-1.6-1c-10.1-6.7-12.9-8.9-21-15.4l0-0.1
				c-0.1-4.4-4.4-8.9-7.3-7.5c-0.1,0-0.2,0.1-0.2,0.1l-2.7-3.5l0.1-0.2c0.6-1.4,0.5-3.3-0.1-5.4c3.4-2,4.4-2.5,11-6
				c1.1,2.3,2.6,3.6,4.5,3.9c3.7,0.4,5.9-3.8,4.5-8.5c-0.7,0.5-1.6,1-2.5,1.6l2.5-1.6c7.1-4.5,7.1-4.5,14.6-9.4
				c1.3,1.8,2.5,2.6,4.5,2.7c6.2-0.4,7.6-9.4,3.3-13c-2-1.7-4.6-1.6-6.6,0.1c-0.1,0.1-0.3,0.3-0.5,0.5c0.6,0.6,1.3,1.4,2,2.1
				c0.7,0.7,1.4,1.5,2,2.1l-2-2.1l-2-2.1c-2.8-3.1-6.4-7.3-9.1-10.4c2.4-5.8-1.3-12-5.8-9.8c-1.6,0.8-3,2.5-3.6,4.7
				c-0.1,0.2-0.1,0.5-0.2,0.7c0.4,0,0.7-0.1,1.2-0.1l-1.2,0.1c-3.6,0.3-8.4,0.6-12.1,0.8c-0.7-5.8-4.6-6.9-7.2-3.5
				c-0.7,1-1.3,2.2-1.6,3.5c-0.2,0.9-0.2,1.6-0.3,1.9c0.5-0.2,1.1-0.5,1.6-0.8c0.6-0.3,1.1-0.5,1.6-0.8l-1.6,0.8l-1.6,0.8
				c-2.1,1-5,2.4-7.1,3.4l-1.5,0.8c0.5-0.3,1.1-0.5,1.5-0.8c-0.2-0.8-0.5-1.5-1-2.3c-2.1-3-5.3-1.1-6.1,3.5c-0.5,3,0,7.8,2.9,9.2
				c0.5,0.2,0.9,0.2,1.4,0.1c1.9,7.4,3.5,13.8,7.5,23.6c0,0.1-0.1,0.1-0.1,0.2c0,0,0,0,0,0C54,171,50.5,165.1,45.5,156.2
				c0.8-3.6,0.2-8.1-1.2-10.1c-1.7-2.3-3.8-0.3-4.3,4c-0.4,3.5,0.5,7.8,2.6,9.2c1.1,0.4,1.7,0,2.5-1.5c6.1,11.4,11.6,18,17.5,25
				c-0.1,0.2-0.2,0.5-0.2,1c0,0,0,0.1,0,0.2c0.3,0.2,0.6,0.4,0.9,0.5l-0.9-0.5c-4.1-2.7-4.2-2.8-10.8-7.9c-0.2-3.7-1.8-7.2-3.3-8.4
				c-2-1.7-3.6,0.2-3.3,3.9c0.1,1.7,0.7,3.8,1.5,5.4c-0.1-0.1-0.1-0.2-0.2-0.4c-0.6,1.7-1.2,4.1-1.7,5.8c-2.5-3.5-2.9-1.5-3-1.2
				c0,0.1,0,0.4,0,0.5c0,0.1,0,0.2,0,0.3l0-0.1l-2.2-3.2l-1.2-2c0.4,0.7,0.8,1.4,1.2,2c-0.4-4.4-2.7-10.1-4-11
				C34.3,167.2,34,169,34.7,171.9z M51.1,200.1c-0.4-0.7-0.8-1.5-1.3-2.3c0,0,0,0,0,0C50.3,198.6,50.7,199.4,51.1,200.1z M73,223.9
				L73,223.9l-1.6-1.1C72,223.2,72.5,223.5,73,223.9z M93.7,228l1.6,0.1C94.9,228,94.3,228,93.7,228z M73,216.6l0.3,0.8
				C73.2,217.1,73.1,216.8,73,216.6z M83,229l-0.9-0.6C82.5,228.6,82.8,228.8,83,229L83,229z M82,228.6L82,228.6
				C82.1,228.6,82.1,228.6,82,228.6L82,228.6z M90.2,227.7l0.1,0C90.2,227.7,90.2,227.7,90.2,227.7z M77.4,220.1
				c2.1,1.5,5,3.5,7.1,4.9c0.1,0.2,0.2,0.6,0.7,1.1c0.4,0.5,1.7,1.8,4,3c-0.1-0.2-0.2-0.4-0.4-0.6l0.4,0.6l1.3,1.6
				c0,0-1.4-0.7-1.9-0.6c-0.3,0-0.2,0.3,0.1,0.6c-2.9-0.8-2.9-0.8-3-0.8c0.1,0.2,0.7,0.4,1.5,0.7c-0.2-0.1-0.4-0.1-0.5-0.2l-1.2-0.4
				c-0.1,0-0.2-0.1-0.3-0.1c-2-1.1-4.6-2.6-4.6-2.7c-3.4-3.4-3.6-3.6-5.5-7.2c0.6,0.4,0.9,0.5,1.3,0.6
				C76.8,220.7,77.3,220.7,77.4,220.1c-0.5-0.4-1.1-0.8-1.6-1.2L77.4,220.1z M128.3,237.7l-1.3,0.1
				C127.5,237.8,127.9,237.8,128.3,237.7z M194.1,209.8c0.4-0.4,0.8-0.9,1.3-1.3l-0.1,0.1C194.9,209,194.5,209.4,194.1,209.8z
				 M207.5,190.4c0.7-1.2,1.3-2.4,1.9-3.5C208.8,188,208.1,189.2,207.5,190.4z M209.1,186.8c-0.5,1-1.2,2.2-1.8,3.4
				C207.9,189,208.5,187.8,209.1,186.8z M187,212.1l-2.7,2.4C185.2,213.7,186.2,212.8,187,212.1z M162.9,230.7l-1.4,0.6
				C162,231.1,162.4,230.9,162.9,230.7z M176.6,223.7c-0.4,0.2-1,0.6-1.8,1.1c-1.1,0.6-2.7,1.5-5,2.8c-1,0.5-2,1-2.9,1.4
				c1-0.6,1.5-0.9,1.5-1c0,0-0.1-0.1-1.4,0.5c-0.1,0-0.2,0.1-0.3,0.2l0.1-0.1l2.2-1.7l2-1.9c-0.7,0.6-1.4,1.3-2,1.9
				c2.8-1.4,6.2-3.8,7.4-5.5c1.9-1.4,4.4-3.4,6.2-4.9c0,0.3,0.4,0.3,0.8,0.1c0.7-0.3,1.3-0.8,1.3-0.8
				C181.1,220.2,180.8,220.5,176.6,223.7z M211.1,150.1c-0.1,0.5-0.2,1-0.3,1.5L211.1,150.1l0.7-3.5
				C211.6,147.6,211.4,148.9,211.1,150.1z M202.6,163.4c0.3-1.5,0.5-3,0.8-4.3C203.2,160.4,202.9,161.9,202.6,163.4z M202.5,158.9
				c-0.2,1.3-0.5,2.8-0.7,4.2C202,161.7,202.2,160.2,202.5,158.9z M189.3,147.3L189.3,147.3c0.2,0.7,0.4,1.6,0.6,2.4L189.3,147.3z
				 M193.9,188.3c0,0.3,0,0.5-0.1,0.7L193.9,188.3z M192.4,192.3l-1.8,2.1C191.2,193.7,191.9,192.9,192.4,192.3z M156.7,190.9l1.3-2
				C157.6,189.6,157.2,190.2,156.7,190.9z M147.5,157.7L147.5,157.7C147.5,157.6,147.5,157.7,147.5,157.7z M148.8,153.8l0.3-0.9
				C149.1,153.1,148.9,153.4,148.8,153.8z M148.2,155.5l0.2-0.5C148.4,155.2,148.3,155.3,148.2,155.5z M105,221.8l2.6,0.9
				C106.7,222.4,105.8,222.1,105,221.8z M134.3,231l-1,0.2C133.7,231.2,134,231.1,134.3,231z M167,200.2c-0.5-0.1-1-0.3-1.5-0.4
				L167,200.2z M166.6,197.9l-1.5,0.3C165.6,198.1,166.1,198,166.6,197.9z M161.6,200.4c-0.2,2.8,1,4.3,3.4,4
				c1.7-0.4,3.3-1.5,4.7-3.5c3.3,0.9,4,1,9.3,2.4c-0.2,0.3-0.5,0.8-0.8,1.4c-0.5,1.1-1.3,3.1-0.5,4.2c0.7-0.8,1.5-1.7,2.3-2.7
				c0.8-0.9,1.6-1.9,2.3-2.7l-2.3,2.7l-2.3,2.7c-8.5,9.2-14.3,13.4-20.4,17.9c-1.2-0.7-4.6,0.8-6.7,2.7c0,0-0.1,0.1-0.2,0.1
				c0.3,0,0.7-0.1,1.1-0.1l-1.1,0.1c-5.2,0.6-6.3,0.6-12.1,1c0.4-0.9,0.2-1.6-0.5-2c1.1-1.9,2.4-4.5,3.4-6.4
				c0.5-0.1,1.3-0.2,2.3-0.9c3.5-2.1,4.5-6.5,0.8-7.4c0.7-1.8,1.6-4.2,2.3-6l0.2,0c2.8-0.5,5.3-3.1,5.7-6
				C155.2,201.5,158.8,200.8,161.6,200.4z M142.4,219.2c-0.2,0.3-0.3,0.7-0.5,1.1L142.4,219.2z M126.1,202.9
				c0.5,0.5,1.5,1.4,3.4,1.5c2.4,0,4.5-1.6,5.4-4.1c-1.1-0.2-2.6-0.4-3.9-0.6l3.9,0.6c2.4,0.4,5.6,0.8,8,1.2
				c-0.1,0.2-0.2,0.6-0.4,1.1c-0.5,2.1,0.1,4.6,2.6,5.3c-0.6,1.8-1.6,4.2-2.3,6l-1.3,3c0.4-1,0.9-2.1,1.3-3c-3.8,0.5-5.1,3.6-5.3,4
				c-0.7,1.8-0.4,4,2.2,4.4c-0.9,1.9-2.1,4.3-3.1,6.1c-1.6-0.2-3.3,0.4-4.3,1.2c0,0-0.1,0-0.1,0.1c0.5,0.1,1,0.3,1.5,0.4
				c0.5,0.1,1.1,0.3,1.5,0.4L134,230l-1.5-0.4c-9.1-2.5-13.5-4-23.1-7.3l0-0.1c0.1-1.1-0.3-2.2-1.2-3.2
				C119.4,209,119.4,209,126.1,202.9z M74.5,203.8c0.1,0.1,0.2,0.2,0.3,0.3C74.7,204,74.6,203.9,74.5,203.8z M75.3,199.7l2.4,2
				C76.9,201.1,76,200.3,75.3,199.7z M75.8,198.6l-1.1-1.3C75.1,197.8,75.4,198.2,75.8,198.6z M43.6,152.3l-0.7-1.4
				C43.1,151.3,43.4,151.8,43.6,152.3z M66,187.6l1.7,2.4C67.1,189.2,66.5,188.4,66,187.6z M84.9,173.4c0.3,0.9,0.5,1.8,0.8,2.6
				L84.9,173.4z M82.3,177.1c0.6-0.3,1.3-0.7,1.8-1L82.3,177.1z M104.4,157.8c-0.2,0.4-0.6,1.3-0.8,2.6c-0.3,1.9,0.2,3.3,0.3,3.8
				c0.9-0.6,2-1.3,3-2l-3,2c-8.3,5.4-8.3,5.4-14.6,9.5c-1.9-3-4.1-3.1-5-2.9c-0.1,0-0.1,0-0.2,0c-1-3.7-2.1-8.6-3-12.3l0.3-0.2
				c2.3-2,3.2-5.7,2.2-9.3l3.5-3c1,2.4,2.2,3.4,4.3,3.6c1.5-0.1,2.5-0.5,4-2.2C98,150.6,101.6,154.7,104.4,157.8z M91.6,142.7
				l2.6,3.2C93.3,144.8,92.4,143.7,91.6,142.7z M86.6,143.4c0,0.2,0,0.4,0,0.6l-3.8,3.2c-2.5-3.9-5.8-2.3-7.3,0.1
				c-0.1,0.1-0.2,0.3-0.2,0.4l-1.1-0.9l0.1-0.2c0.2-0.6,0.4-1.3,0.5-2.4C78.3,144,83.1,143.7,86.6,143.4z M56.8,157.3l-1.2-6
				C56,153,56.5,155.4,56.8,157.3c2.3-2.4,2.2-6.3,2.1-7.9c2-1,4.8-2.3,6.9-3.3c0.5,2.7,1.7,4.3,3.5,4.8c1.5,0.2,2.8-0.5,4-2.3
				c-1-0.8-2.2-1.8-3.2-2.7l3.2,2.7l1.2,1c-0.1,0.2-0.2,0.6-0.3,1.2c-0.6,3.5,0.8,7.8,4.1,8.4c0.5,0.1,0.8,0.1,1.4,0
				c-0.4-1.9-0.9-4.5-1.2-6.4l1.2,6.4c0.8,3.7,2,8.6,3,12.2c-1.8,1.3-2.3,3.2-2.4,4.6v0c-0.1,1,0.1,1.8,0.1,2.2
				c-5,2.7-5,2.7-11.1,6.2c-2.2-3.9-4.6-3.6-5-3.5c-0.1,0-0.1,0-0.2,0.1c0.2,0.4,0.3,0.8,0.5,1.3l-0.5-1.3
				C61.4,173.6,59.1,167.4,56.8,157.3z M48.3,173.4l-1-0.9C47.6,172.8,47.9,173.1,48.3,173.4z M46.7,177.6c-0.1-0.1-0.2-0.3-0.2-0.4
				C46.5,177.3,46.6,177.4,46.7,177.6z M44.4,187l1,2.5C45,188.6,44.7,187.7,44.4,187z"/>
		</g>
		<line class="st31" x1="91" y1="143" x2="100.7" y2="134.5"/>
		<g>
			
				<rect x="120.2" y="109.2" transform="matrix(0.2533 0.9674 -0.9674 0.2533 215.4744 -20.6268)" class="st26" width="1.8" height="40.1"/>
		</g>
		<g>
			
				<rect x="129.2" y="137.3" transform="matrix(0.2452 0.9695 -0.9695 0.2452 242.4763 -35.0775)" class="st26" width="29.2" height="1.8"/>
		</g>
		<g>
			
				<rect x="124.6" y="118.4" transform="matrix(0.7744 0.6327 -0.6327 0.7744 118.5353 -47.243)" class="st26" width="1.8" height="48.4"/>
		</g>
	</g>
</g>
<g id="Layer_2" class="st33">
	<circle class="st34" cx="124.8" cy="143" r="98"/>
</g>
</svg>
