<?xml version="1.0" encoding="utf-8"?>
<!-- Generator: Adobe Illustrator 19.1.0, SVG Export Plug-In . SVG Version: 6.00 Build 0)  -->
<!DOCTYPE svg PUBLIC "-//W3C//DTD SVG 1.1//EN" "http://www.w3.org/Graphics/SVG/1.1/DTD/svg11.dtd">
<svg version="1.1" xmlns="http://www.w3.org/2000/svg" xmlns:xlink="http://www.w3.org/1999/xlink" x="0px" y="0px"
	 viewBox="0 0 249 284.3" style="enable-background:new 0 0 249 284.3;" xml:space="preserve">
<style type="text/css">
	.st0{fill:#EE7223;}
	.st1{fill:#70C1BD;}
	.st2{fill:#8F8E8E;}
	.st3{fill:#943C71;}
	.st4{fill:#C3D97E;}
	.st5{fill:#A48E53;}
	.st6{fill:#C52F27;}
	.st7{fill-rule:evenodd;clip-rule:evenodd;fill:#FFFFFF;}
	.st8{fill:#FFFFFF;}
	.st9{fill:none;stroke:#FFFFFF;stroke-width:4;}
	.st10{enable-background:new    ;}
	.st11{clip-path:url(#SVGID_2_);}
	.st12{clip-path:url(#SVGID_4_);}
	.st13{fill:none;stroke:#FFFFFF;stroke-width:2;stroke-miterlimit:10;}
	.st14{fill:none;stroke:#FFFFFF;stroke-width:1.75;stroke-miterlimit:10;}
	.st15{fill:none;}
	.st16{fill:#FFFFFF;stroke:#EE7223;stroke-miterlimit:10;}
	.st17{fill:#FFFFFF;stroke:#EE7223;stroke-width:0.6755;stroke-linejoin:round;stroke-miterlimit:10;}
	
		.st18{fill-rule:evenodd;clip-rule:evenodd;fill:#FFFFFF;stroke:#EE7223;stroke-width:0.5919;stroke-linejoin:round;stroke-miterlimit:10;}
	.st19{fill:none;stroke:#FFFFFF;stroke-width:8.5752;stroke-miterlimit:10;}
	.st20{fill:none;stroke:#FFFFFF;stroke-width:7.9848;stroke-miterlimit:10;}
	.st21{fill:none;stroke:#FFFFFF;stroke-width:4.0543;stroke-miterlimit:10;}
	.st22{fill:#FFFFFF;stroke:#EE7223;stroke-width:2;stroke-miterlimit:10;}
	.st23{clip-path:url(#SVGID_6_);fill:#FFFFFF;}
	.st24{display:none;}
	.st25{display:inline;fill-rule:evenodd;clip-rule:evenodd;fill:none;stroke:#000000;stroke-width:0.7277;stroke-miterlimit:10;}
</style>
<g id="Layer_1">
	<polygon class="st0" points="5.8,211.4 5.8,73.9 124.8,5.2 243.9,73.9 243.9,211.4 124.8,280.1 	"/>
	<g>
		<g>
			<g>
				<path class="st19" d="M68.4,93.5c1.9-18.4,14.5-34.7,33.3-40.4c24.9-7.5,51.2,6.6,58.8,31.6s-6.6,51.2-31.6,58.8"/>
				<g>
					<polygon class="st8" points="81.6,88.9 70.2,111.9 56,90.5 					"/>
				</g>
			</g>
		</g>
		<g>
			<g>
				<path class="st20" d="M98.2,204.9c-16.2,5.9-35,1.9-47.4-11.6c-16.4-17.9-15.2-45.6,2.6-62.1s45.6-15.2,62.1,2.6"/>
				<g>
					<polygon class="st8" points="89,195.7 112.9,196 100.7,216.5 					"/>
				</g>
			</g>
		</g>
		<g>
			<g>
				<path class="st21" d="M112.2,172.5c-7.1,5-16.9,5.6-24.7,0.7c-10.4-6.6-13.6-20.3-7-30.7s20.3-13.6,30.7-7"/>
				<g>
					<polygon class="st8" points="106.5,169.2 118.2,166.1 115,177.8 					"/>
				</g>
			</g>
		</g>
		<circle class="st22" cx="124.3" cy="142.2" r="19.1"/>
	</g>
	<g>
		<defs>
			<circle id="SVGID_5_" cx="124.8" cy="142.7" r="98"/>
		</defs>
		<clipPath id="SVGID_2_">
			<use xlink:href="#SVGID_5_"  style="overflow:visible;"/>
		</clipPath>
		<path style="clip-path:url(#SVGID_2_);fill:#FFFFFF;" d="M184.8,50.1c89.8-33.2,90.8,197.8,90.8,197.8s-274.9-4.3-202.3-7.2
			c61.5-2.5,99-53,74.8-75.2l-3.2,5.1l-2.9-16.7l16.2-1.8l-3.5,4.8C187.8,172.3,230.3,112.3,184.8,50.1z"/>
	</g>
	<g>
		<path class="st0" d="M178.8,179.8c-9.4,0-17.1,7.7-17.1,17.1c0,9.4,7.7,17.1,17.1,17.1c9.4,0,17.1-7.7,17.1-17.1
			C195.9,187.5,188.2,179.8,178.8,179.8z M186.8,210.2l-0.5-0.8l-0.7,0.4l0.5,0.8c-2.1,1.1-4.5,1.8-7,1.8l0-0.8l-0.8,0l0,0.8
			c-2.5-0.1-4.9-0.7-6.9-1.9l0.4-0.8l-0.7-0.4l-0.4,0.8c-2.1-1.3-3.8-3-5.1-5.1l0.7-0.4l-0.4-0.7l-0.8,0.4c-1.1-2.1-1.8-4.4-1.9-6.9
			l0.9,0l0-0.8l-0.9,0c0.1-2.5,0.7-4.9,1.8-7l0.6,0.4l0.4-0.7l-0.6-0.4c1.3-2.1,3-3.8,5.1-5.1l0.4,0.6l0.7-0.4l-0.4-0.6
			c2.1-1.1,4.5-1.8,7-1.9l0,0.6l0.8,0l0-0.6c2.5,0.1,4.9,0.7,7,1.9l-0.4,0.7l0.7,0.4l0.4-0.7c2.1,1.3,3.8,3.1,5.1,5.1l-0.7,0.4
			l0.4,0.7l0.7-0.4c1.1,2.1,1.8,4.5,1.8,7l-0.9,0l0,0.8l0.8,0c-0.1,2.5-0.8,4.9-1.9,7l-0.8-0.5l-0.4,0.7l0.8,0.5
			C190.6,207.2,188.9,208.9,186.8,210.2z"/>
		<path class="st0" d="M179.6,195.9c-0.2-0.2-0.5-0.3-0.8-0.3c-0.4,0-0.7,0.1-0.9,0.4l-10.4-8.1l-0.5,0.6l10.5,8.2
			c0,0.1,0,0.2,0,0.2c0,0.7,0.6,1.3,1.3,1.3s1.3-0.6,1.3-1.3c0-0.1,0-0.2-0.1-0.4l6-4.1l-0.5-0.7L179.6,195.9z"/>
	</g>
	<g>
		<path class="st0" d="M190.3,162.3c-0.5,0-1,0.4-1,0.9c0,0.1,0,0.1,0,0.2c-0.6,0.6-1,1.4-1.2,2.3c-0.3,1.1-0.4,2.4-0.2,3.8
			c-0.6,0.2-1.1,0.1-1.6-0.5c0-0.6,0-1.1,0-1.7c0-2.5,0-4.4,0.9-4.8c0.2,0.2,0.4,0.3,0.6,0.3c0.5,0,1-0.4,1-0.9c0-0.5-0.4-1-0.9-1
			c-0.5,0-0.9,0.3-1,0.7c-0.7,0.2-1.2,0.9-1.5,2c-0.2,1.1-0.2,2.4-0.2,3.8c0,0.5,0,0.9,0,1.4c-0.2,0.9-0.2,1.8-0.6,2.6
			c0,0.7,0,1.5-0.2,2.3c-0.3,1.5-1.7,2.6-3.4,3c-0.9,0.2-1.9,0.2-2.9,0c-0.9-0.2-1.6-0.7-2.2-1.2c-1.1,0.7-2.4,1-3.6,1
			c-0.1,0-0.3,0-0.4,0c-0.6,0-1.1-0.1-1.6-0.3c-2.4,0.7-7.5,5.1-8.3,6.3c0,0,4.6,0.1,8.9-1.8c4.4-1.9,8.6-1.7,11.7-1.2
			c6.6,1.2,6.9-4.3,5.9-10.6c-0.2-2,0.2-3.7,1.1-4.7c0.1,0,0.2,0.1,0.3,0.1c0.5,0,1-0.4,1-0.9C191.3,162.8,190.8,162.3,190.3,162.3z
			"/>
		<path class="st0" d="M183.8,171.7c0.1-1.7-0.3-3.3-0.7-4.4c-0.6-1.6-1.6-3.2-2.6-4.2c-1.5-1.4-3.3-2.2-5.3-2.2
			c-1.9,0-3.9,0.6-5.5,1.9c-1.5,1.2-2.5,3-2.8,5c-0.3,2.1,0.3,4.2,1.6,5.8c0.7,0.8,1.8,1.4,2.9,1.6c1.4,0.2,2.3,0.1,3.7-0.5
			c0.3-0.1,0.7-0.3,1-0.5c0.3-0.2,0.5-0.4,0.8-0.6c1.1-0.9,1.7-2.2,1.9-3.5c0.2-1.3-0.2-2.5-1-3.5c-0.6-0.7-1.5-1.1-2.4-1.1
			c-0.9-0.1-1.8,0.3-2.5,0.9c-0.8,0.7-0.9,2.3-0.2,3.3c0.5,0.6,1.6,1,2.4,0.8l0,0c0,0,1.3-0.2,1.1-1.4s-1.6-1.2-1.6-1.2
			c-0.1-0.5,0,0,0,0l-0.1,0c0.5-0.1,0.9-0.1,1.2,0v0l0,0c0,0,0.1,0,0.1,0c0,0,0,0,0,0c0,0,0.1,0,0.1,0c0,0,0,0,0,0c0,0,0,0,0.1,0
			c0,0,0,0,0,0c0,0,0,0,0.1,0c0,0,0,0,0,0c0,0,0,0,0.1,0c0,0,0,0,0,0c0,0,0,0,0.1,0c0,0,0,0,0,0c0,0,0,0,0,0c0,0,0,0,0,0
			c0,0,0,0,0,0c0.4,0.4,0.5,1,0.3,1.6c-0.2,0.6-0.7,1-1.3,1.2c0,0,0,0,0,0c-1,0.3-2.3-0.1-2.9-0.9c-0.8-1.1-0.7-3,0.3-3.9
			c0.8-0.7,1.8-1.1,2.8-1c1,0.1,2,0.5,2.7,1.3c0.9,1,1.3,2.4,1.1,3.9c-0.2,1.4-0.9,2.8-2.1,3.8c-0.2,0.2-0.4,0.4-0.7,0.5
			c0.1,0.1,0.2,0.2,0.3,0.2c1,0.9,2.7,1.2,4.2,0.8c1.5-0.4,2.5-1.3,2.8-2.6C183.8,172.6,183.8,172.2,183.8,171.7z"/>
	</g>
</g>
<g id="Layer_2" class="st24">
	<circle class="st25" cx="124.8" cy="142.7" r="98"/>
</g>
</svg>
