<?xml version="1.0" encoding="utf-8"?>
<!-- Generator: Adobe Illustrator 19.1.0, SVG Export Plug-In . SVG Version: 6.00 Build 0)  -->
<!DOCTYPE svg PUBLIC "-//W3C//DTD SVG 1.1//EN" "http://www.w3.org/Graphics/SVG/1.1/DTD/svg11.dtd">
<svg version="1.1" xmlns="http://www.w3.org/2000/svg" xmlns:xlink="http://www.w3.org/1999/xlink" x="0px" y="0px"
	 viewBox="0 0 248 285" style="enable-background:new 0 0 248 285;" xml:space="preserve">
<style type="text/css">
	.st0{fill:#9BAC4E;}
	.st1{fill:#FFFFFF;}
	.st2{fill:#EE7223;}
	.st3{fill:#70C1BD;}
	.st4{fill:#8F8E8E;}
	.st5{fill:#943C71;}
	.st6{fill:#A48E53;}
	.st7{fill:#C52F27;}
	.st8{fill-rule:evenodd;clip-rule:evenodd;fill:#FFFFFF;}
	.st9{fill:none;stroke:#FFFFFF;stroke-width:4;}
	.st10{enable-background:new    ;}
	.st11{clip-path:url(#SVGID_2_);}
	.st12{clip-path:url(#SVGID_4_);}
	.st13{fill:none;stroke:#FFFFFF;stroke-width:2;stroke-miterlimit:10;}
	.st14{fill:none;stroke:#FFFFFF;stroke-width:1.75;stroke-miterlimit:10;}
	.st15{fill:#FFFFFF;stroke:#EE7223;stroke-miterlimit:10;}
	.st16{fill:#EE7223;stroke:#EE7223;stroke-miterlimit:10;}
	.st17{fill:none;stroke:#FFFFFF;stroke-width:0.75;stroke-miterlimit:10;}
	.st18{fill:none;stroke:#FFFFFF;stroke-width:0.5;stroke-miterlimit:10;}
	.st19{fill:none;stroke:#FFFFFF;stroke-width:0.4754;stroke-miterlimit:10;}
	.st20{fill:#FFFFFF;stroke:#EE7223;stroke-width:0.6755;stroke-linejoin:round;stroke-miterlimit:10;}
	
		.st21{fill-rule:evenodd;clip-rule:evenodd;fill:#FFFFFF;stroke:#EE7223;stroke-width:0.5919;stroke-linejoin:round;stroke-miterlimit:10;}
	.st22{fill:#FFFFFF;stroke:#9BAC4E;stroke-width:0.6595;stroke-linejoin:round;stroke-miterlimit:10;}
	
		.st23{fill-rule:evenodd;clip-rule:evenodd;fill:#FFFFFF;stroke:#9BAC4E;stroke-width:0.5919;stroke-linejoin:round;stroke-miterlimit:10;}
	.st24{fill:none;stroke:#FFFFFF;stroke-miterlimit:10;}
	.st25{fill:none;stroke:#FFFFFF;stroke-width:3;stroke-linecap:round;stroke-linejoin:round;}
	.st26{fill:none;stroke:#FFFFFF;stroke-width:3;stroke-linecap:round;stroke-linejoin:round;stroke-dasharray:1,4;}
	.st27{fill:none;stroke:#FFFFFF;stroke-width:3;stroke-linecap:round;stroke-linejoin:round;stroke-dasharray:0.951,3.8039;}
	.st28{fill:none;stroke:#FFFFFF;stroke-width:3;stroke-linecap:round;stroke-linejoin:round;stroke-dasharray:1.2168,4.8673;}
	.st29{display:none;}
	.st30{fill:none;stroke:#FFFFFF;stroke-width:3;stroke-linecap:round;stroke-linejoin:round;stroke-dasharray:0.9829,3.9316;}
	.st31{fill:none;stroke:#FFFFFF;stroke-width:3;stroke-linecap:round;stroke-linejoin:round;stroke-dasharray:1.0455,4.1818;}
	.st32{fill:none;stroke:#FFFFFF;stroke-width:3;stroke-linecap:round;stroke-linejoin:round;stroke-dasharray:1.0687,4.2748;}
	.st33{fill:none;stroke:#FFFFFF;stroke-width:3;stroke-linecap:round;stroke-linejoin:round;stroke-dasharray:0.7778,3.1111;}
	.st34{fill:none;stroke:#FFFFFF;stroke-width:3;stroke-linecap:round;stroke-linejoin:round;stroke-dasharray:1.0714,4.2857;}
	.st35{fill:none;stroke:#FFFFFF;stroke-width:3;stroke-linecap:round;stroke-linejoin:round;stroke-dasharray:0.8519,3.4074;}
	.st36{fill:none;stroke:#FFFFFF;stroke-width:3;stroke-linecap:round;stroke-linejoin:round;stroke-dasharray:0.977,3.908;}
	.st37{fill:none;stroke:#FFFFFF;stroke-width:3;stroke-linecap:round;stroke-linejoin:round;stroke-dasharray:0.9635,3.8542;}
	.st38{fill:none;stroke:#FFFFFF;stroke-width:3;stroke-linecap:round;stroke-linejoin:round;stroke-dasharray:0.8571,3.4286;}
	.st39{fill:none;stroke:#FFFFFF;stroke-width:3;stroke-linecap:round;stroke-linejoin:round;stroke-dasharray:0.9205,3.6822;}
	.st40{fill:none;stroke:#FFFFFF;stroke-width:3;stroke-linecap:round;stroke-linejoin:round;stroke-dasharray:0.9273,3.7091;}
	.st41{fill:#FFFFFF;stroke:#9BAC4E;stroke-width:2;stroke-miterlimit:10;}
	.st42{fill-rule:evenodd;clip-rule:evenodd;fill:url(#SVGID_5_);}
	.st43{display:inline;fill-rule:evenodd;clip-rule:evenodd;fill:none;stroke:#000000;stroke-width:0.7277;stroke-miterlimit:10;}
	.st44{display:inline;}
</style>
<g id="Layer_1">
	<polygon class="st0" points="5.4,211.1 5.4,73.7 124.4,5 243.4,73.7 243.4,211.1 124.4,279.8 	"/>
	<g id="_x37_RapYl.tif">
		<g>
			<path class="st1" d="M178.8,166.7c5.3,3.3,10.9,5.5,15.6,9.7c1.1,0.3,2,0,2.5-1c1-1.9,1.5-1.7,3.6-2.4c1-0.6,1.5-8.2,2.9-12.2
				c1,4.6,0.1,7.9-0.4,11.3c2.4-1.6,5.3-2.8,7.3-5.2c-0.2,0.2,1.5,0.4,1.9,0c1-1.1,1.8-2.5,2.8-3.6c0.6,2.2-0.6,3.9-2.3,4.3
				c1.3,0,2.2,0.6,2.6,1.9c2.5-0.7,1.7-1.6,3.8-1.9c0.1,3-5.3,4-6.6,1.4c-3.5,1-5.2,3.3-9,4.7c3.1,2.6,4.1,4.7,7.6,2.3
				c-1,3.8-3.5,2.2-4.8,1.6c-2.1-0.9-6.4-2.5-7.5,0c-1,2.4-0.6,3,1.6,5.7c1.7,0.7,2.1,1.1,3,1.6l0.1,1.4c-1.3-0.4-1.9-0.8-3.5-1.7
				c-2.5-1.3-2.9-3.9-5.6-4.6c1.9,3.1,1.5,3.4,2.9,5.1c-1.1-0.3-1.8,0.4-3.1-2.4c-1.9-4.2-2.7-5.5-7-7.5c-3.1-1.5-4.5-4-7.8-2.5
				c0.6,1.4,2.4,2.1,2.7,3.1c-2.3,0.9-3.5-1.6-3.9-3.2c-2.1,0-4.3,0.1-6.4,0.3c-1,1.9-5.4,1.4-7.5,2.8c-2.6,0-2.8,0.3-4.7,1.8
				c-1.8-1.1-2.3,0.1-4,1c-2.9,1.6-4.6,4.2-7.3,6c-11.9,12.2-11.9,31.7-12.6,45.9c-5.4-1.6-14.4,1.3-19.8-0.3
				c-2.5-17.5-7.8-36.3-15.8-47.3c-2.4-3.2-4.8-6.4-7.8-9c-4.5,0.6-9,1.5-13.4,2.6c-4.2,1.1-6.1,6.1-8.3,9.6c-0.7,1.1-2,2.3-1.7,3.7
				c0.6,2.7,1.9,3.5-0.1,5.5c-0.7-1.5-1.4-3.1-2-4.6c-1.8,2.1-4.5,3.7-3.1,6.3c-1.9-0.1-1.7,0.2-3-1.4c-1.9,0.5-3.8,1-5.8,1.2
				c-1.3,1.8,0.1,3.8-2.3,4.2c-1.6,0.3-2.5,1.7-3.5,0.3c1,0.2,1.7-1.4,2.7-1.3c1.8-0.5,0.1-1.7,1.3-2.4c-1.1-0.6-4.1-1.4-4.4-1.2
				c4.4-1.9,10.8,0.8,14.1-3.2c3.7-4.5,6.7-10.1,8.4-15.7c-1.5-0.5-5.3-0.1-6.6,0.6c-1.7,0.9-3.4,1.2-5.4,0.7c-1.2,1.5-2,1.7-3.8,2
				c-2.5,0.4-5.6,4.3-8.1,5.5c-2.3,1.1-0.9,1.8-3.9,0.5c-1.1-0.5-3.4-1.3-4.5,0c-0.4-0.9-0.6,0-1.2-0.8c0.6,0.5,0.8-1.2,2.9-1.4
				c-1.1-1.3-2-2.1-2.7-3.7c2.6,1,3.7,3.7,6.3,4.3c1.5,0.4,3.5,0,4.2-1.5c1.2-2.3-1.4-1.5-2.3-3.6c-0.4-0.9-2.8-3.1-3.4-3.4
				c-2.1-1.1-1.7-3-4.2-2.2c-1-1.9-2.1,0.5-2-1.8c0.8,0.4,1.6,0.8,2.4,1.1c-0.1-0.9,0.5,0,1-0.5c0.8-0.1,2.2,0.4,3.9,1
				c0.6-3,0.8-5.7-2.3-8.1c-1.2-0.9-2.8-3-1.2-4.1c0.1,3.4,0.2,1.3,3.2,3.1c0.2-2,1.2-11.1,3.4-11.3c-0.7,3.3-1.5,6.6-2.3,9.9
				c-0.9,3.5,1.7,5,0.9,8.5c-1,4.1-0.7,3,1.9,5.5c2.2,2.1,3.4,1.1,6.5-0.1c7.8-3.1,1.9-3.1-0.4-7.4c0.8-1.1,1.6-1.1,3.8,1.8
				c0.8-2.2,0.6-4.8,1.6-6.9c1.8,0.7-1.4,10.7,3.3,8.3c2.4-1.2,6.1,0,9-0.7c2.4-0.6,10.2-1.9,5.9-5.1c-1.3-1-8.4-8.8-4.8-9.7
				c1.2,2.2,0.9,2.9,1.3,4.3c0.1,0.5,0.8,0.5,1,0.1c0.5-0.9,0.8-1.8,0.9-2.5c2.5,1.3-0.7,3.7,1.4,5.2c1.7,1.2,3,2.6,4.9,3.6
				c1.7,0.4,6,1.1,8.2-0.8c-2.3-0.8-4.9-8.3-6.3-10.1c-4.8-6.2-6.8-7.2-14.3-5c-4.4,1.2-9.1,3.1-12.3,6.8c-1.7,2-3.4,2.7-4.3,3
				c-2,0.6-0.4-0.8,0-1.1c1.8-1.6,5.4-3.7,5.3-6.2c-0.1-2.6,2.1-1.5,4-1.2c-0.2-0.8-0.2-3-1.3-3.4l1.1-0.9c1.3,0.1,1,1.4,1.2,2.3
				c0.3,1.5,3.2-0.2,4-0.4c7.2-2.1-1.9-7.5-6.1-6c-3,1.1-5.8-0.1-8.9,0.8c-4.4,1.3-7,4.1-10.3,7.2c-2,1.9-4.7,4.7-5.9,7.1
				c-0.8,1.7-1.5,7.7-3.2,8.2c0.3-1.4,0.5-2.8,0.9-4.2c-1.3,0.6-1.6,4.4-3.4,2.7c5.7-4.4,6.7-13.6,13-17.5c-3.3-0.2-4.3-0.6-6.2,2.4
				c-2.8,4.5-4.4,2-1.1,0.8c-2.2-3-2.4-3.4-5.5-1.4c-1.2,0.1-1.4-0.5-0.8-1.6c1.1-0.3,2.3-0.6,3.4-0.9c-0.9-2.9,0-2.6-3.1-2.4
				c-2.5,0.1-6.6-2.2-1.8-2.6c5.4,7.3,0.3-8.5,2-8.7c1.1,2.6,1.5,3.5,2.1,9c0.4,4.6,4.7,2.4,8.1,1.6c-0.5-3.6-6.6-5.6-5.3-9.7
				c0.9,2.1,3.3,3.9,3.7,6c1.7-3.7-1.5-4.5-1.5-7.7c4.8,3.7,0.6,13.7,9.1,11.4c1.3-3,3.9-2.8,5.7-5.4c-1.9-2.6-3-4.8-4-7.8
				c-1.1,2-3.4-0.3-5.8-1.2c-4.7-1.8-2.6,2.6-7.2,2.6c0.7-2.1,2.4-1.6,3.9-3.7c-0.6-1.5-1.4-2.9-2.1-4.3c0,0,5.9,4,6.5,4.8
				c-0.6-3.1-2.3-7.9-5.4-7.5c-2.1,0.2-7.2-3-6.7-5c1.2,1.6,1.8,1.4,3.7,1.9c-0.7-1.6-1.4-3.1-2.1-4.7c4.5,2.2,0.7,6.7,7,6.8
				c0-1.5-0.1-2.6,0.5-4c0.6,3.9,1.8,6.8,3.6,10.4c0.1,1.9,1.1,2.7,2.8,2.2c3,0.1,3,1.7,4.5,4.2c-0.4-2.5,0-4.9-0.1-7.4
				c-1.3-2.2-2.5-4.4-3.7-6.6c-1.1,1.7-0.8,2.3-3,1.7c-1.5-0.4-2.1-0.4-1.3-2c1.1-0.3,1.1,1.3,1.8,1.7c1.4-2,2.9-2.7,0.4-4.9
				c-1.6-1.4-2-2.5-3.6-4c0.3,0.3-12-3.2-6.3-5.6c-0.1,2.5,0.8,3.8,3.4,3.6c0-1.8-1.9-1.2-1.6-3.3c1.1,2.7,4.4,3.8,7,4.8
				c-0.6-2-6.3-9.6-4.3-9.9c-0.3,2.2,1.1,2.2,2.2,4.2c0.2-1.6-1.4-3.6-0.4-4.7c1,1.9,1.6,3.8,1.4,6c2.1,1.9,1.5,2.6,1.4,5.3
				c1.3,3.3,3.7,5,4.8,8.5c0.8-1.6-0.3-4.8-0.8-6.4c-1.1-3.1-1.5-5.1-1.2-8.4c-1-1.2-2.3-2.5-2.4-4.1c0-1.9-1.9-3.2-2.5-5.1
				c1.5,0.8,2.1,2.1,3.1,3.5c1.2-1.3-0.5-3.5,1.2-4c-0.3,3.6-1.2,5.6,0.7,8.6c0.8-1.6,3.8-8.6,0.2-8.8c-1.6-2.2-4.8-3.4-4.7-6.5
				c1.8,1,2.8,3.7,5.1,4.8c0.5-2.3-1.1-4.2-1.2-6.4c2.6,1.6,0.7,7.2,3.1,8.1c-0.1-0.7-1.2-5.2-0.6-5.6c2.1,2.8-0.4,6.6,3,8.3
				C51.8,93,53,89.7,47.3,83.9c1.8-0.2,2.5,1.7,3.2,3c1.1-1.8-0.8-4.7-1.4-6.3c1.6,1,2,2.1,2.6,3.8c0.4,0.9,0.3,1.7-0.2,2.5
				c0.7,1.6,1.5,3.3,2.2,4.9c0.8-2.3-0.1-4,0.8-6.2c1-2.4-0.6-2.6,0.2-4.3c2,0.5,1.7-1.1,2.2-2.8c0.4,1.2,0.4,2.4-0.2,3.6
				c0.4,1.7,2.3,0.6,3.3,1.5c-0.8-1.4-1.2-4.5-1.3-6.1c0-1.9-2.1-3.7-1.7-5.4c2.6,2.1,2.9,5.1,3.6,8.2c0.6,2.8,2,4.2,3,6.9
				c0.1-1.2-0.4-3.2,1-3.4c0.8,1.5-0.4,2.7-0.6,4.1c1.4,1.6,2.8,3.1,4.2,4.7c0-3.7,0.4-7.5-0.6-11c-0.8-3-3.5-5.4-3.1-8.4
				c1.3,1.6,2.7,6.1,4.1,3.5c0.4,3.9,1.2,7.9,1.3,11.8c0.2,6.6,1.9,0.1,4.5-0.2c-0.4,2.2-2.8,3.5-3.8,5.5c1.2,2.5,2.9,4.5,4.7,6.6
				c1.3,3.9,1.6,12,7.1,12c-1.2-3.4-3.5-7.3-5.6-10.3c2.3,0.3,2.6,2.5,3.7,4.1c1.2-2.7,1.2,3.5,2.3,5.2c1.4-3.6,1.1-4.5-0.1-7.9
				c-0.6-1.6-3-6-0.4-6.7c-0.9,2.1,0.7,7.1,2.3,8.4c0.4-3.5,0.8-4-1.2-6.5c-1.8-2.2-2.5-5.4-3.5-8.1c-2.3-6.1-8.6-6.4-10.2-13
				c-0.7-2.9-1.1-5.8-1.3-8.7c-0.4-6.2,1.5,2.2,1.6,3.9c0.4,4.5,1.1,11,7.2,10.6c0-1.9-0.8-5.5,1.1-6.2c1,5,0.3,8.5,3,13.2
				c0.8-2.2-1.3-4.5,0.3-6.4c-0.5-2.3-0.5-5.7-1.9-7.7c-3.4-4.6-4.2-8.1-5.7-13.5c1.7,1.1,2.3,4.1,2.6,5.9c0.7-2.6-2-7.8-0.6-9.1
				c1.4,3.5,2,5.5,1.6,9.3c-0.4,3.5,2.2,5.9,4.1,9c0.1-1.7-0.8-5.7,1.3-5.7c-0.1,2.5-0.2,5.1-0.2,7.6c3.3-2,3.7-4.6,2.6-8.5
				c2.4,1.1,1.4,3.1,1.3,5.5c1-1.6,1.5-3.5,3.2-4.6c-2.6-2.5-2.4-4.9-5.8-6.6c-1.6-2.9-1.5-8.3,0.9-10.8c-0.5,3.1-2.3,9.3,1.4,11
				c1-2.6,1.5-5.6,3.6-7.6c0.2,2-5.1,11.5-0.2,12.5c2.8,0.6-1,4.4-1.6,5.5c-1.7,2.8-0.9,4.7-0.4,7.8c0.4-0.7,1.8-6.1,2.6-5.3
				c0.5,0.6-0.8,3.8-1,4.3c-1.1,2.4-1.3,3-1.3,5.7c0.6-0.3,1.2-0.6,1.8-0.9c-1.5,2.3-1.5,4.7-1.8,7.4c1.6-2,0.5-4.1,1.9-6.3
				c0.4-3.2,0.7-5.4,2.7-8c1,1.7-0.8,3.1-1.3,4.7c-0.4,1.5-1,4.5-1.1,6.2c-0.3,4.1-2.8,7-0.2,10.4c-0.1-1.6,2.1-10.5,1.7-10.8
				c1.2,0.9,0.2,4.2,0.1,5.5c0.9-1.1,1.8-2.2,2.7-3.2c-0.5,2.6-1.4,3.7-3.3,5.6c-0.8,5.1,0,7.4,4.3,10.5c-0.1-2.4-5.3-7.5-2.3-9.1
				c0.3,2.2,0,3,1.9,4.3c0.1-2.6,0.6-5.1,1.7-7.5c1,2.3-0.6,4.6-0.4,7c0.3,3.8-0.5,5.9,2.1,8.6c1.2-2.1-0.1-5.1,2.4-6.6
				c-0.4,2.6-0.9,5.2-1.4,7.7c1.2,1.9,3,4.9,3.3,0.7c0.2-1.9-0.6-4-0.2-5.9c0.6-2.8-1.3-5.6-0.7-8c1-4.4-0.3-10-1.7-14.2
				c-1.1-3.5-3.9-5.1-7.2-6.5c2.8-0.8,3,2.3,5.4,1.7c-0.4-5-4.6-7.6-6.2-11.7c0.9-0.4,3.9,4.3,5,5.3c0.5-0.9,1.1-1.8,1.6-2.8
				c-0.9-1.2-1.2-2.4-0.9-3.8c-3.6-2.1-3.2-2.4-3.1-6.5c-2.3-3.6-3.9-8.6-2.8-12.9c2,3.1-0.3,8,2.7,10.8c2.6-2.2,1.1-8.6,1.3-11.6
				c2,1.8,1.6,7.8,0.6,10.3c-0.8,2-0.7,4.2-0.6,6.4c0.1,0.1,2.7,3.9,3.3,1.3c0.5-2.3,2.4-4.2,2.7-7.1c0.2-2.7,0.5-3.3-2.1-6.2
				c0.5-2.2,0.7-3.1,1.1-5.3c3.4-1.3,1.5,5.9,2.2,8.8c1.3-2.1,2.7-4.3,4-6.4c1.7,0.9-4.1,8.1-4.3,10.5c-0.1,1.9-0.4,3.6-1.5,5.2
				c-1.8,2.7-2.4,1.7-1.7,5.3c1.3-0.8,1.9-1.8,1.9-3.3c1.9,1.1-0.1,2.8-0.9,4.2c1.6,3.1,0.6,6,3.7,7.8c-0.7-2.4-2.6-4.4-0.9-6.8
				c1,1.8,0.4,4.1,2.1,5.5c1.1-2.6,0.5-8.3,0.6-11.2c0.1-3.7-2.6-6.5-1.9-10.2c1,2.5,1.9,4.9,3,7.4c0.6-0.7,1.2-1.5,1.8-2.3
				c0.4,2.3-1.8,4.4-1.8,7.3c0,3.9-0.6,8.1-0.1,12.3c2.5-6.2,2-13.2,4.8-19.3c0.5,1.9-0.6,3.6-0.9,5.4c1.3,2.6-0.5,5.5-1.5,7.8
				c2-1.2,2.3-3.1,3.3-5c2.6,0.7-3.9,7.1-4,8.4c-0.3,2.8-1.1,13.4,2.6,13.9c0.2-2.8,1.5-3.9,1-6.7c-0.2-1.4-0.6-2.8-1-4.2
				c-0.4-1.1-0.4-4.5-1.1-5.3c2.6,0.7,2.3,4.9,2.8,7.4c2.2-2.3-1-14.1,3.7-13.5c-1.5,2.7-1.5,4.9-1.7,8c1.2-1.5,4.9-7.9,6.3-7.5
				c-1.8,2.9-3.7,5.7-5.9,8.3c1.2,1.6-1.4,8-1.8,10.1c-2.6-0.6,2.7,17.1,3.1,18.7c3.5-0.3,1.8-9.5,1.7-11.5c1.9,2,1.3,4.9,1.4,7.6
				c5.7-2.9,3.3-9.9,0.5-13.4c-1.4-1.8-5-10.5-2.7-11.1c0.6,2.4,0.7,5,2.4,6.9c0,3,2.2,3.5,2.8,6.4c0.6-1.3,0.7-3.8,2.5-3.8
				c-1.1,3.9-1.1,5.8-0.1,9.9c1.9-1.6,3.7-3.3,5.6-5c-1.1-1.6-2.6-2.9-3.3-4.8c-0.9-2.5-1.6-3.5-3.5-5.6c-0.5-0.5-3.1-2.4-3.2-2.2
				c1.7-2.8-1.2-1.8-1-4.8c2.1,0.1,4.4,5.4,5.6,6.9c0.5-0.7,0.3-1.1-0.1-1.8c-1.4-2.4-0.9-4.7-0.8-7.4c0.1-4-5.9-6.8-5.7-10.2
				c0.1-1.2-3.9-3.9-4.6-4.7c-2.3-2.5-4.2-7.9-3.6-11.3c1.4,1.3,1.1,3.4,1.8,5.2c1.1,3,2.4,4.8,4.6,7c0.5-2.9,0.5-5.5,1.2-8.4
				c-1-2.4-2-4.7-3-7.1c2.5,0.4,2.4,3.8,3.8,5.7c1.6-2,2.1-2.7,2.2-5.3c3,1-1.8,6.2-2,8c-0.3,2.2-1.3,1.9-1.1,4.5
				c0.3,3.7,0.6,4.5,3.1,7.2c1.1-4.1,2.3-6.9,1.2-11c1.9-0.2,1.5,1.6,1.6,2.8c1.3-2.1,2.2-4.5,3.8-6.3c1.3-1.4,0.6-5,1.7-5.3
				c0.7,2.9,1.3,3.2-0.5,5.5c-1.6,2-3.3,4.7-4.3,7c-0.8,1.8-4.4,14.2,1.1,10.5c-0.3,2.1-0.6,3.1,0.1,5.1c1.6-2.2,2.5-3.6,3.1-6.3
				c-1-1-2.7-3.8-2.8-4.8c2,0.5,2,1.4,3,3.2c0.4-2,0.3-12.7,1.9-12.9c1.3,2-1.7,4.1,0.5,6c0.7-0.9,1.4-1.7,2.1-2.5
				c0.8,2.1-2.6,5-3.2,7.7c-0.7,3.7,0.4,4.1,2.3,7.1c0.6-2.1,1.1-4.2,1.7-6.3c1.7,1.9-0.1,4.4-0.8,6.5c1.1,2.5,2.2,5,3.3,7.5
				c-0.9-5.3,0.2-10.7,0.6-16c-2.3-4.9-1.5-8.7-1-13.8c2.6,0.5-0.5,3.8-0.2,5.4c0.5,2.4,0.2,5.7,2,7.5c0.9-2.5,1.2-2.9,3.6-3.9
				c0.1-0.8-0.2-1.5-0.9-2c-1.2-1.2-0.6-3.1-0.6-4.7c1.6,0.2,0.2,4.1,2.6,5.4c-0.2-1.6,0.3-2.9,1.4-4c-0.9-2.3-1.7-3.9-1.7-6.3
				c1,0,2.1,6,4.7,1.5c0.9,1.2,0.6,1.8-1,1.8c-2.1,0.7-1.6,2.8-1.8,4.8c-0.6,4.6-4.1,3.8-5.1,7.3c-2.1,7.3-2.4,13.6,0.9,20.5
				c3.8-6.6-0.8-10.9-0.6-17.6c2.3,0.1,0.1,10.4,4,6.7c-0.8,0.7-0.6,6.2-0.7,7.5c2-1.9,3.1-3.4,4-6c2.5,3.7-3.2,3.6-2.1,7
				c0.6,1.9-0.7,3.2-2.2,4c-2.7,1.4-1.5,4.8-3.3,7.4c2.1-0.1,2.1-1.6,3.8-2.6c-0.7,2.5-1.8,3.1-4,4.3c-0.4,2.4-0.4,5-1.7,7
				c-0.6,4.1-1.1,9.9,1.2,13.7c0.9-1.4,1.8-2.8,2.7-4.2c-0.7-2.8,0.7-2,1.2-4.8c0.4-2.2-2-7.5-0.4-8.7c0.6,1.8,1.1,3.7,1.7,5.5
				c2.6-2.2,3.2-2.7,2.3-6.3c-0.3-1.2-1.8-6,0.3-6c0.4,3.7-0.8,8.8,3.3,9.4c-3,2.6-1.4,5.4-2.8,9c-1.4,3.5,0.3,8.3,0.9,12
				c2.2-3.1,2.1-3.9,1.5-7.7c-0.2-1.2-1.7-7.1-0.7-7.5c0.9,3.1,1.4,5.5,3.1,8.4c1.2-2.5-0.3-6.4-0.5-9c-0.2-2.2,0.3-4.8,0-6.9
				c-0.5-2.7-0.5-5.5-0.2-8.2c0.2-1.8-0.4-6,0.4-7.4c1.3-2.3-0.4-4.3-1.9-5.9c-0.1-3.2,0.4-5.1-2-7.3c-1.4-3.6-2.3-14.4,1.2-16.7
				c0.2,5.8-1.6,10.9,0,17.2c1.1-2.2-0.6-8.4,2.3-8.5c-1.6,2-0.8,8.3-0.7,10.6c2.6-3.6,2.9-9.6,2.9-14c-0.6,1-0.3,3.8-2.1,3.3
				c1-2.7,1.2-3.2,1.2-6.5c2,3.8-0.5-1.3,2.1-0.9c0,1,0.1,2,0.1,2.9c2.8-0.2,2.6-1.1,3.7-3.5c0.7,2.7-0.7,4.6-3.5,4.4
				c-1.1,1-1.3,7.5-1.2,9.7c1.2-0.6,2.4-1.2,3.1-2.4c1.4-2.5,2.8-4.4,3.6-6.8c1.8,0.3-3.9,8.5-4.5,9.8c-3.1,0.4-5.1,5.1-5.1,8
				c1.5,2.1,4.6,5.4,1.7,7.9c2.2,0.3,5.4-4.4,5.6-6c0.2-2,0.2-15,1.4-7.1c3.6-2.2,4.8-2.8,5-7.2c0.8,0,0.6,2.6,0.7,3.2
				c0.5-1.3,0.6-2.7,2.1-3.3c-1,2.7-1.3,4.6-3.8,6.2c-4.1,2.7-4,3-3.9,7.8c2.2-1.9,2.4-4.5,4.7-6.2c0.8,1.1-1.1,1.7,0.3,2.8
				c1.6-1.5,0.7,0,2.6,0.1c0.7-1.2-0.3-3.1,1-3.8c0.3,1.3,0.5,2.5,0.5,3.8c2-2,1.4-5,2.4-7.4c-1-2.9,2.1-4.7,2.1-8.1
				c1.5,2.1,0.6,4.3-1.5,5.8c-0.2,1.5,0.4,3.3-0.3,4.7c0.8,1.6,3.1,0.8,3.8,2.6c-1.6,0-2.2,0.5-3.1-1c-2.7,2.1-4,5.4-2.8,8.4
				c1.6,4,2.2,6.3,4.9,9.9c0.1-3.2-2.2-6.9-2.7-10.1c1.1,1.4,2,2.9,2,4.7c0.2-2.3,1.4-3.2,1.7-5.3c0.3-2.2-0.8-4.4,0.8-6
				c0.2,1.1,0.4,2.2,0.5,3.3c0.9-2.2-1-8.6,0.7-9c0.2,1.4,0.3,2.8,0.5,4.2c0.9-1.7,1.3-5,2.5-6c0.4,2.8-1,8-2.6,10.7
				c-1.2,1.9-1.7,4.1-2.6,6.4c-1.2,3,0.5,5,0.5,8.1c1.2-0.8,1.9-1.5,2.1-3c0.4-2.6,3-4.6,2.6-7.3c-0.6-4.4-1.3-9.1,2.1-12.6
				c-1.3,5-2.6,7.8-1.1,12.8c2.1-2.5,2.6-4.1,3.3-7.3c3,2.4-5.1,11.9-6.1,14.9c2.9-1.7,2.8-0.6,6-1.5c4.8-1.3-1.3-4.2,1.9-5.6
				c0.8,1.1-0.3,2.4,1.3,3.2c0.5-0.7,1-1.5,1.5-2.2c0.7,1.3,0.3,2.4-1.2,3.1c0.4,0.9,0.7,1.9,1.1,2.8c2.5-2.4,1.4-7.6,1.7-10.8
				c0.2-1.8-2.4-7-1.8-7.9c1.5,1.5,2.1,5.3,3.5,4.7c-0.2,2.8-1.4,5.3-0.3,8.1c0.7-0.7,1.4-1.3,2.1-2c-1.2,1.1,0.5,2.7-2.5,2.7
				c-1.3,2.8-2.5,6.8-1.6,9.6c0.6-1.8,1.6-2,3-0.8c-0.2-1.8-0.4-3.6-0.7-5.5c0.6,0,1.5,4.6,1.8,5.4c1.8-0.7,2.9-0.3,2.2-2.4
				c0.1-2.7,1.1-5,2-7.5c1.5,0.2-1.1,6.9-1.1,8.3c1.4-2.1,1.7-0.6,3.5-2.3c0.8,2,0,2.7-2.4,2.2c-0.6,1.6-0.6,3.3-0.2,4.9
				c1.4-0.1,1.3-2.2,2.8-2.8c0.2,0.7-1.8,3.5-2.2,4.3c-2.1,3.3-3,4.7-1.7,8.6c1.6-1.9,2.7-4.5,5.2-5.3c0.4-1.9,0.2-6.7,3.1-6.5
				c-0.9,0.9-1.5,2-1.8,3.3c-0.8,3.3,0.4,1.8,1.9,3.8c0.2-0.1,1.8-7.5,1.9-8.9c1.3,0.2-2.4,12.6,1.1,8.1c1.5,1.8-0.4,2-1.6,1.9
				c-0.1,3.5,1.3,2.7,3.6,1.8c0.2-2.1-0.3-4.9,1.1-6.6c0.1,1.6,0,3.2-0.3,4.8c-0.6,3.6-0.6,1.3-2.3,3.3c-1.4,1.6-3.1,4.3-2.9,6.4
				c1.9-3,2.1,0.2,4.9-2.2c-0.9,4.2-2.2,1-4.2,2.9c-3.9-1.4-2.7,5-2.6,7.4c1.4-1.8,1.4-2.9,3.7-2.6c2.3,0.3,2.8,0,4.2-2.3
				c1.1-1.8,1.8-9.1,3.9-9.5c-0.8,2.8-2,5.4-2.6,8.2c1.5-0.3,2.3-1.2,2.3-2.8c1.9,0.7-1.7,4.5-2.8,4.6c-1,0.1-1.7,1.9-2.4,2.5
				c0.8,2.3,1.3,0.3,2.6,1c-0.8,3.8-2.7,0.1-4.4-0.5c-1.7-0.6-4.8,1.5-4.5,3.7c-1,1.1-2,2.1-3.1,3.1c-2.2,2.2-0.7,2.2-2,4.5
				c-1.4,2.4-3.5,4.8-5.3,6.9c0.5,0.1,5.2-2.6,6.3-3.2c2.5,0.2,2.2,0.9,3.1-2.1c0.8-2.5,2.2-3.5,3.9-5.4c-0.7,2.3-2.7,3.4-2.7,5.6
				c1-0.7,1.7-0.4,2.1,0.8c1.9-1.6,2.1-0.3,4.3-2.3c-0.3-3.2-0.9-5.7,0.4-8.8c1.4,1.2-1.3,4.9,0.2,6.4c0.5-6.3,0.3,1.4,0.3,3
				c1.5-1.9,2.7-3.7,3.9-5.8c-0.1-1.9,0.6-4,2.3-4.9c0,0.4-2.1,9-3.5,9.3c1.7,0.6,3.7,0.1,4.4-0.9c0,0,1.3,1.2-0.2,2.2
				c-1.8,1.2-6.4-0.1-6.6,3.2c-0.7-1.2-1.3-1.1-1.8,0.2c-1.5,1.7-1.5,1.2-3.5,0.7c0.8,3.7,4.5,4.5,6,7.5c3.2-2.4,3.9-5.3,4.8-9
				c2.6,2.8-1.2,4.7-0.9,6.8c1.8,2.9,4.1,5.5,5.8,2c0.3,5.3-2.4,1.9-4.7,0.1c-4.3-3.1-2.8,4.9,1.8,4.4c0.4,2-8.1-4.4-9.3-5.2
				c1.3,2.3,6.9,6.2,4.8,9.4c-0.4-1.4-1.5-2-1.8-3.2c-0.5-2.6-1.6-2.3-3-4.5c-1.5-2.4-4.2-4.8-6.2-6.8c-1.4,1.5-0.3,4.3-0.7,6.1
				c-0.4,1.6-1.7,1.8-2.1,3.5c1.5,0.1,3,0.3,4.4,0.7c0.7-1.7,1.3-3.3,2-5c0.5,1.6-0.2,2.5-0.7,3.9c-1.2,3.5,2.7,0.4,3.4-0.6
				c3.5,3-5.3,2.8-6.5,2.2c-2.1-1.2-3.2,0.9-4.4,2.2c-2.1,2.3-3.8,3.3-0.7,5.7c2.1,1.6,4.7,5.2,6,0.6c2-0.8,1.5-2.6,3.2-3.2
				c1.6-0.6,3.4-1,5-1.4c0.4,3.5-7.1,1.4-7.1,6.7c2.5-0.4,1.7-0.6,4,0.1c0.5-0.1,1-0.2,1.4-0.4c0.6,0.1,1.6-0.1,1.9-0.2
				c1.3-0.7,1.9-0.5,3.4-0.7c-0.8,3.3-6.3,1.3-10.6,2.6c-1.3,3.1-5-0.6-6.7-1.5c-1.9-1-1.1-1.9-3.4-1.9c-2.6,0-1.7,1-4.4,1.2
				c-3.7,2.6-6.7,5.2-8.8,9.3c1.1,0.4,2.2,0.3,3.2-0.3c0.6,1.3,1.6,1.9,2.9,1.8c4-0.4,1.3-5.5,3.2-7.9c0.3,2.3,0.5,4.5-0.4,6.7
				c3,0.6,2.4-1.1,4.8-0.6c-2,4.1-6.7-0.5-7.2,4.5c-1.1-1.1-2.3-2.2-3.4-3.2c-1.6,0.7-3.5,0.2-4.6,0.2
				C180.1,164.4,178.8,166.7,178.8,166.7z M171.7,90.3c0.7,1,1.6,1.1,2.7,0.3c-2-3.7-3.3-7.3-5.2-10.7c-1.4-2.7-0.4-5.8-3.7-6.2
				c-2.4-0.3-2.8,1.3-4.4,3.2c-2.5,3-8.1,7.7-7.2,11.6c1,4.6,1.4,11.3,0.7,15.9c3.8-1.5,4.3-5.9,7.7-7.9c-1-3.9-7.5-2.9-6.8-7.8
				c1.7,2.3,2.8,2.5,5.5,3.5c-0.2-1.1-0.4-2.2-0.6-3.3c1.6,1.8,1.1,3.2,1.8,5.2c0.9,2.6,2.9-0.1,2.1-2.4c-1.9-5.1-1-8,0.3-13.2
				c2.4,2.9-1.9,6.7,0.7,8.3c0.9-1.9,1.8-3.7,2.7-5.6c1.5,1.4-0.7,3.5-1.5,5.1c-1.4,2.8-0.7,3,0.6,5.7c0.1-1.6,0.9-7.9,4-6.6
				C169.8,86.9,167.3,93.8,171.7,90.3z M185.9,86.1c-4.1,0.5-5.3,0.8-8.3,3.5c-2.3,2-0.7,4.1,0,6.8c2.3,1.3,3.9,0.4,5.5-1.5
				c2-2.4-2.8-4.3,0.3-7.1c0,1.4,0.3,2.9,0.7,4.2C185.7,90.3,185.6,88.5,185.9,86.1c1.7,3.3,0,5.5-1.2,8.8c3.1-2.6,4.3-6.6,3.1-10.1
				C187.1,85.2,186.5,85.7,185.9,86.1C184,86.3,186.4,85.7,185.9,86.1z M147.4,127.9c-6.2,0.5-7.7,13.9-7.7,18.6
				c1.4-0.9,2.5-2.2,3.3-3.7c1-2,2.4-2.3,4.5-3.2C146.7,136.4,148,131.9,147.4,127.9c2.8,1.9,1.7-0.1,1.7-2.2
				C148.1,126.2,147.5,126.9,147.4,127.9C146.9,128,147.3,126.8,147.4,127.9z M156.6,114.4c0.3-0.3,0.6-0.7,0.9-1
				c1.2,2.2-1.8,4.6,0.5,6.6c0.6-0.9,2.5-3.2,3.7-2.4c-0.9,1.9-1.7,2.2-3.5,3.2c1.1,1.9,1.2,4,1.2,6.1c1.7-0.4,0.7-1.6,1.3-2.6
				c3.2,4.1,2-3.1,3.4-4.7c0.9,0.4-0.1,1.8,1.3,1.6c1.1-1.8,0.3-4.4-0.5-6.5c-0.3-0.7-3.2-5-0.5-3.1c-0.4-2.2-0.1-3.5,0.5-5.7
				c1.3,3.4,1.2,8.4,2,12.1c3.3-5.8-1.6-13.5-3.7-19.3c-2.9,2.7-3.5,5.4-6,8.8c0,3.2-2.2,8.1-0.7,9.7
				C156.6,116.2,156.6,115.3,156.6,114.4C156.9,114,156.6,115.2,156.6,114.4z M73.2,116.4c0.8,1.4,2.7-0.1,3.4-0.9
				c0.9,0.4,0.8,1.2-0.3,2.5c1.5,2,1.3,2.4,3.9,2.4c-1.5-4.5-4.8-8-6.6-12.3c1.5-2.9-4-10.7-5.8-12.9c-3,2.7-1.4,4.9-3.7,8.1
				c-1.7,2.5-4.9,5-3.8,8.5c0.9,3.2,3.2,5.8,3.6,8.9c0.2,1.3,0,5.9,1.3,6.1c0.6-3.5-1.6-8.4-0.1-11.4c1.2,1.3,0.1,3.2,0.6,4.7
				c4-3.7-3.3-9.7-1.1-13.9c0.3,0,2.1,5.9,2.9,7.3c0.8-1.4,1.6-2.8,2.5-4.1c-0.9-1.8-1.2-2.6-0.7-4.5c1.7,3,1.6,4.7,0,7.5
				c-0.5,0.9-1.7,3.2-1.6,4.3C68,119.7,71.9,116.9,73.2,116.4C73.7,117.3,71.6,117,73.2,116.4z M136.8,124c-3.4-1.1-6.5-2.5-10-1.2
				c-2.2,0.8-4.8,0.5-5.8,3c-0.7,1.7-0.9,3.8-1.3,5.6c-1.6,7.7-3,13.4,0.5,20.6c0.8-4.7-0.2-9,0.3-13.7c1.8,0.1,0.9,3.8,1.2,5.7
				c2.2-1.4,2.8-3.7,3.6-6.4c1.8,5.5-3.5,7.5-3.9,10.3c-0.8,6.4,1.9,9.7,5.7,14.5c1-1.8,3.6-4.7,3.6-6.4c0-1.8,1.6-4.1,2.4-5.7
				c2.4-1.8,2-5.4,2.9-8.3c1.5-4.6-4.4-6.9-2.2-9.3c0.9,1.5,1.8,2.5,3,4.3C137.5,132.1,138.5,128.6,136.8,124
				C135.6,123.6,137.3,125.4,136.8,124z M109.2,151.6c0.5,5,1.2,10.1,1.5,15.1c0.3,5.1-0.7,8,1.3,13c1.1,2.8,4.3,5.2,6.3,9.9
				c0.8,2.2,2.1,3.5,4.2,4.2c2.9,1,2-0.9,2.9-3.2c0.3-0.9,0.6-1.8,0.6-2.8c0-3-0.8-3.6-1.1-6.2c-0.3-2.7-0.6-4.5-1.7-7.3
				c2.1-4.2-1.7-3.7-1.7-7.7c-6.8-5.5-5.2-18.6-12.4-23.4C108.4,146.1,110.7,149.1,109.2,151.6C109.3,153.1,110.6,149.2,109.2,151.6
				z M188.8,101.6c0.6-0.4,1.7,2.4,1.3,3.9c-0.7,2.6-0.8,5.3-0.4,7.6c0.3,1.9,0.6,2.5,2,3.8c1.6,1.5,1.7,4.4,2.5,6.4
				c0.6-2.7-0.4-5-1.5-7.4c1.7-2.4-0.4-5.1-0.7-7.5c-0.3-2.9,0.9-4-0.6-6.8c0.4-2.7-0.4-5.4-1.5-7.8c-3.9,0.8-9.9,6.3-10.9,9.9
				c-1.8,6.5-2.3,13.1-1.5,19.6c3.1-3.2,1.7-4.6,3-8.4c0.1,1.8,1.2,1.5,0.9,2.7c-2.4,8.2,3,3.8,5.3-0.6c0.6,2.2-1.2,2.3,0,0
				c0.6,2.1-1.7,3.4-1.3,5.4c0.6-0.9,3-3.4,4.3-2.7c0.1,1.3-1.8,1.4-2.8,2.8c-1.4,2.1-3.5,1.1-5.4,1c-4.5-0.1-3.8,2.1-3.6,5.7
				c0.2,3.1,0.2,6,1.2,9c1.3,3.9,3.4,1.5,4.4,0.9c0.8-1.4,1.3-2.9,0.4-5.6c-0.8-2.5-1.6-4.2-0.7-7c0.6,2.9,1.5,4.5,2.4,8
				c0-1.5,0.7-3.1,2.4-6.4c0.9,3.6-3.2,7.4-1.4,10.4c4.8-5.3,7.5-9.9,5.4-16.8c-1.9-6.2-4.8-6.6-8.7-11.3c-0.4-0.7-0.9-1-1.6-2
				c-0.2-1.1-0.4-2.1-0.6-3.2c-0.1,0,6.2,7.2,6.6,8.4c0.9-1.9-0.4-3.2,0-5.3C188,108.2,188.1,102,188.8,101.6z M132.8,164.3
				c-1.3,3.1-1.5,4.4-1.1,7.7c0.3,1.9,0.6,5.7,1.5,7.4c1.8,3.6-0.7,8.9,4.9,3.4c1.5-1.5,3.4-1.2,4.4-3.1c0.6-1.2,1.1-2.5,1.5-3.7
				c1.8-0.3,2.8-1.4,2.9-3.2c1.8-5.9,0-8.1-2.4-12.9c0.8-0.5,2.4,2,2.9,2.6c0-6.2,1-12.3-0.2-18.2c-0.4,1.8-2,1.4-3.1,2.4
				c-1.5,1.8-3.9,4-4.6,6.2c-0.5,1.5-2.2,3.9-3.2,5.1C134.5,159.7,134.8,163.2,132.8,164.3C132.3,165.6,133.1,164.1,132.8,164.3z
				 M88.5,140.8c-1,3.2-2.4,5.6-1.2,8.8c1.5,4,5.3,6.1,7,9.9c-0.1-1.4-0.5-2.8,0.2-3.8c1.2-1.8,1.2,3.5,1.2,3.5
				c0.7,3.9,4,9.3,7.1,11.8c0.5-0.9,0.9-1.8,1.4-2.7c-2.2-1-0.7-8.9-0.9-11.1c-0.3-3.9-1.6-7.1-3.8-10.2c-1.1-1.6-3.1-1.3-2-3.2
				c-1-2-2-4.1-3-6.1c-1.8-3.7-8.6-1.4-8.2-5.5c1.4,1.4,1.4,1.6,3.2,1.1c-1.2-0.8-5.6-2.7-3.3-4.3c1.2,2.6,4.3,5.2,6.8,5.2
				c-1.2-2.3-2.5-4.7-3.8-6.9c-0.7-1.1-1.4-2.2-2.2-3.2c-3.1,0-1.7,1.5-2,4c-0.2,2-0.3,16.8,1,17C86.4,143.6,86.5,140.5,88.5,140.8
				C87.9,142.6,87.9,140.7,88.5,140.8z M60.7,122.1c-2.8-6.3-4.6-18.2-10.9-21.4c-1.1,4.9-2.8,9.2-0.7,14.1c2.1-1.8-0.4-3.7,0.6-5.6
				c2.9,1.7,0.2,6.2,0.2,8.1c0.1,4.5,3.9,7.8,3.9,12.2c0,2.8,0.5,8,2.2,10.3c1.5,2,7.8,1.1,10,0.6c-2.2-4.6-2.7-10-6.5-13.8
				c-1.8-0.7-3.7-1.4-4.9-3.1c-2.4-0.7-2-3.3-3.3-4.9c1.3-0.4,3.7,4.2,5.4,5.5c-0.4-2.2-0.9-4.3-1.6-6.4c2.2,0.3,1.2,2.1,2.1,3.5
				c1.9,3.1,0.5,3.5,4.2,5.4C61.2,125,60.9,123.5,60.7,122.1C60,120.4,60.8,123,60.7,122.1z M70.1,119.5c-5.7,0.4-2.7,11.4-1.9,14
				c0.2-1.4-0.7-5.7,1.7-8c0.1,1.2,0.1,2.5-0.2,3.7c1.4,0,1.9-1.5,3.4-0.8c-0.9,0.7-1.8,1.4-2.8,1.9c-0.2,1.4-0.3,2.8-0.5,4.2
				c-0.4,3.4-0.1,5,1.2,8.2c3.8,0.9,8.4,5.1,8.6-0.8c0.3-5.7-0.4-11.6,0-17.2c0.5-7-7.8,0.6-7.8-4.2c1.5,0.2,3.5,1.4,4.8-0.2
				C74.8,118.5,71.8,116.6,70.1,119.5C69.4,119.5,70.4,119,70.1,119.5z M185.6,150.6c0.4-1.6,1.3-7.7-1-6.6c-2.3,1.1-3,2.2-6,2.5
				c0.1,1.3-0.5,2.1-1.8,2.4c-1.7,0.9-1.2,1.8-2.6,3.1c-1,0.9-1.7,2.4-3.2,2.6c-0.4,3.6-1.8,1.4-3.4,4c-1.7,2.9-2.8,5.9-4.6,8.8
				c-2.8,4.5,5.2,1.9,7.6,0.8c2.2-1,5.1-2.4,6.1-4.5c1.3-2.6-1.4-4.5,1.5-7.2c-1.2,3.9,0,5,3.3,3.2c0.7-2.5,3.5-3.9,3.7-6.7
				C185.3,152.4,185,152.1,185.6,150.6z M164.6,136.7c1.2-1.5,2.2-3.1,3.3-4.7c0.7,1.7-1.5,2.8-0.8,4.4c1.7-1.4,2.6-1.9,3.2-4
				c0.3-1.1,0.4-3.7,1.8-3.6c0.3,5.6-3.1,8.5-8.2,8.5c0.9,5.7-0.7,11.9,1.1,17.2c4-5.2,9.3-9.3,9.5-16.2c0.1-3.3-0.4-7-0.7-10.4
				c-0.5-5.6-0.9-7.9-4.3-12.4c-1.4,3.4-2,5.6-2,9.3C165.6,127,164.8,133.5,164.6,136.7C164.9,136.2,164.8,132.9,164.6,136.7z
				 M160.1,146.4c0.4-2.8,0.9-5.7,1.3-8.5c-3.3,0-9.2,8.4-9.5,11.9c-3.1-1.6-0.7,6.1-1.1,7.4c-0.5,1.7,0.3,4.3,0.6,6
				c-0.5,1.5,0,4.5,0.6,6.2c1.2-0.5,1.9-1.4,2-2.7c1.6-0.2,2.5-1,3-2.4c1-1.9,2.1-1.5,2.8-3.7c0.7-2.3,1.3-4.3,0.6-6.7
				C159.4,151.3,160.9,148.9,160.1,146.4C160.6,143.3,160.3,147.1,160.1,146.4z M127.4,119.1c0.2-1.4,1.4-18.7,1.4-18.7
				c0.8,0.3,0.5,9.7,1,11.6c1.3-2.4,0.5-8.1,4-6.7c-2,2-2,2.5-2,5.4c-1.6,2.4-4,4.2-2.7,6.9c1.7,3.6,3.6,1.7,6.4,0.2
				c-0.3-3-0.6-6.1-0.9-9.1c-0.5,0.5-0.9,1-1.4,1.5c0-2.1,0.9-2.4,0.9-4.3c0-3.1-2.1-6.3-3.3-9.1c-2.2-0.7-7.1,8.2-8.3,9.6
				c-3.6,4.2-5.2,10.8-7.2,15.9c5.5,5.8,8.4-11.5,8.9-14c1.7,0.8,0.1,5.1-0.2,6.7c-0.1,0.9-1.2,4.5-1.6,5.5
				C124,120.1,125.7,119.6,127.4,119.1C127.7,116.7,125.4,119.7,127.4,119.1z M110.5,108.6c-0.5,2.6-0.1,9.9,1.1,11.8
				c4.1-5.8,1.5-10.3,0.1-16.5c-1.4-6.2-4-11.7-5.6-17.9c-0.4,0.7-0.7,1.4-1.1,2.1c1.2,2.9-0.4,3.5-0.7,6.5
				c-0.4,4.3,0.4,7.6,0.7,11.9c0.6,8.1-0.4,15.6,2.6,23.5c1.2-3.1,3.3-6.6,2.5-9.6c-1-3.5-3.1-6.5-4.7-10c1.9,1,1.6,0.6,2.9-0.9
				c-0.6,3.5-0.4,4.3,1.3,7.4c0.8-2.8-1.6-7.5-0.1-9.7C109.8,107.8,110.2,108.2,110.5,108.6C109.7,112.2,110.1,108.1,110.5,108.6z
				 M207.4,103.7c-1.5-2.2-1.5-8.6-6-4.3c-2.3,2.2-5.2,6.7-3.8,10.1c1.9-2.1,4-4,5-6.7c1.9,2.4-1.4,3.1-2,5.6
				c-2,1.8-3.6,2.3-3.6,5.1c0,1.6-1.1,4.2,1.1,3.1c-1.1,3.4-2.7,6.7-2.3,10.4c2.3-2.8,5.8-5.2,7.2-8.3c1-2.2,0.4-5.4,0.3-7.9
				C204.7,108.4,206,106,207.4,103.7C206.2,101.9,206.2,105.7,207.4,103.7z M136.4,80.3c-2-4.3-3.5-7.9-6.8-11.3
				c-1.3,4.1-3.5,6.4-4.2,10.9c2,2.4,2.3,8.8,5.4,10.1c0-1.9-1.1-4.3,1.4-3.6c0-0.8-0.8-5-0.3-5.5c3.2,0.7,0.6,9,0.6,11.7
				c2.5-0.3,4-4.1,5.5-6.1C141.3,84.7,139.1,81.7,136.4,80.3C135.2,77.6,138.4,81.3,136.4,80.3z M52.9,94.6c0.2,2.6,0.5,5.2,0.7,7.8
				c1.9,1.6,2.9,3.6,4.2,5.7c2.8-3,3.9-6.9,3.3-11c-0.4-2.2-6.3-8-4.9-10.1c0.9-1.4,1.8,2.9,2.1,3.4c0.9,1.6,2.2,3,3.5,4.5
				c0.5-5.2,1.7-9.6-4-10.8c-2.4-0.5-2.6,2-2.7,4C55,91,54.5,92.1,52.9,94.6C53.2,97.5,53.5,93.7,52.9,94.6z M93.6,128.4
				c1.2,2.7,2.4,5.4,3.6,8c0.9-1.2-1.4-8.1,1.2-2.5c0.7-4.1,1-6.3,0.1-10.3c4-0.6,0.5,9.1,0.2,10.8c-0.8,3.7,2.3,8.4,4.6,10.8
				c0.1-3.4,3.1-8.4,1.9-10.8c-1.4-2.9-2.2-6.8-4.4-9.2c0.4-1.6-2.9-7-4.1-7.7C92.4,120.1,95.3,124.5,93.6,128.4
				C94.9,131.2,94.6,126.2,93.6,128.4z M202.4,135.2c-3.2-1-7.8,3.9-9.9,5.3c-1.7,1.1-3.2,1.4-4.9,2.3c-2.1,1.1-0.5,4-0.1,5.8
				c1.1-2,2.2-3.9,3.2-5.9c0.3,2.6-0.9,3.9-2.2,6.2c-1.6,2.5-2.2,3.4-2.5,6.4c4-2.6,8.1-4.3,10.4-8.2c2.4-1.1,3.3-3.7,4-6
				C202.3,139.8,203.2,137.6,202.4,135.2C200.3,134.5,202.8,136.5,202.4,135.2z M167.2,93.6c-1.1,5.6,1.1,12.5,2.9,17.7
				c3.3-5.2-0.1-11.9-0.8-17.3c2.2,0.7,0.6,3.9,2,5.7c0.7-0.7,1.6-2.9,2.4-3.1c0,2.8-1.8,2.9-1.6,5.7c0.2,2.3,0.3,4.2-0.1,6.5
				c1.7-1.5,0.8-4.1,2.4-5.7c1,0.9-0.8,5.4-1.3,6.4c-0.6,1.2-1.7,2-2.2,3.3c2.3,4,3.3-0.7,4-2.9c-0.2-3.9,1.9-7.6,1.2-11.2
				C175.4,94.1,171.6,90.6,167.2,93.6C166.5,97.5,167.5,93.4,167.2,93.6z M192.6,98.7c0.8,7.1,1.1,14.4,2.7,21.3
				c1.2-3.4,0.4-8.4,0.8-12.1c0.4-3.4-1.5-7.6,0-10.5c0.8-1.4,3-10.4-0.8-6.5C193.7,92.7,194.4,96.3,192.6,98.7
				C192.9,101.3,194.3,96.6,192.6,98.7z M85.8,96.9c2.8-3.2,1.6-14.3-0.2-17.9c-3.5,3.4-2.6,3.5-2.8,7.8
				C82.6,90.9,83,93.8,85.8,96.9C86.2,96.4,85.1,96.1,85.8,96.9z M140.6,116.8c-1.3,2.2,0.3,4,0.1,6.3c0.8-0.7,3.3-3.1,4.5-2.8
				c-1.3,2.7-6.2,3.1-2.9,6.3c1.1-1.5,1.9-2.8,3.5-3.7c2.6-1.5,1-1.3,0.9-3.8c0-2.4-3.5-5.4-4.8-7.9c-1.5,2.1-3.1,3.6-3.1,6.2
				C139.5,117.3,140,117,140.6,116.8C139.2,119.3,139.8,117.1,140.6,116.8z M103.8,88.1c1.5-1.9,1.4-4.9-0.3-6.8
				c-2.5-2.7-2.2-4.8-4.2-7.7c-1.8,2.9-1.1,4-0.2,7.2c0.6,1.9,1.7,3.7,2.2,5.6c0.7,2.4,0.4,5.9,2.1,7.9
				C104,91.7,104.8,90.7,103.8,88.1C105,86.4,104,88.8,103.8,88.1z M93.9,113.5c-1.5-1.7-3.1-3.3-4.6-5c-0.5,5.9-1.4,12.4,2.2,17.3
				C93.5,122.5,94,117.3,93.9,113.5C92.5,111.9,94,115.6,93.9,113.5z M157.5,130.8c1.9,0.1,1.7-7.7,0-8.5c-3.6,2.2-4.2,8.6-4.7,12.3
				c5.4-1.4,2-5,3.6-7.9C156.8,128.1,157.1,129.5,157.5,130.8C157.7,130.8,157.1,129.5,157.5,130.8z M113.9,142.4
				c2-4.9,2.3-8.9-0.5-13.3c-1,2.5-3.3,5.7-2,8.1C112.6,139.6,112.8,140.2,113.9,142.4C114.2,141.6,113.5,141.6,113.9,142.4z
				 M63.2,88.9c0,2-2.7,14.1-0.8,14.9c1.7-3.1,1.2-8.5,5.2-9.3C66.1,92.6,64.7,90.7,63.2,88.9C63.2,90.6,64.8,90.8,63.2,88.9z
				 M150.4,145.6c2.4,0.3,5.7-9.3,6.1-11.2C151.6,137.5,150.4,140.1,150.4,145.6C150.5,145.6,150.4,144.1,150.4,145.6z M142.6,110.4
				c2.2,1.6,1.5,3.5,4.4,4.8c-0.8-2.2-1.6-4.5-2.4-6.8c3-0.5,2.6-5.1,2.9-7.7C144,103.8,143.7,106,142.6,110.4
				C142.8,110.5,143.1,108.2,142.6,110.4z M150.2,136.4c3.4-0.1,2.3-13.1,1.5-15.1C149.7,125.4,150.6,131.9,150.2,136.4
				C150.3,136.4,150.3,134.7,150.2,136.4z M153.8,125.5c2.6-3.7,3.4-4.2,1.6-8.5C153.2,118.5,151.9,123.5,153.8,125.5
				C154.9,123.9,153.7,125.4,153.8,125.5z M114.7,128.4c0.7,1.5,1.5,3,2.2,4.4c2.3-1.8,1.4-4.9,3-7.1
				C117.7,125.7,116.3,127.1,114.7,128.4C115.4,129.8,116.2,127.2,114.7,128.4z M161.2,136.5c-0.1-2.6,0.4-5.3-1.5-7.5
				c-1,2.3-1.8,4-1.8,6.5C161.4,134.3,158.7,136.7,161.2,136.5C161.1,133.9,159.4,136.7,161.2,136.5z M164.6,125.6
				c0.2-1.1,1.7-1.9,1-3.2c-2.8,3.6-3.6,4.5-3,8.9C164.3,129.1,164.6,128.4,164.6,125.6C164.8,124.5,164.6,126.6,164.6,125.6z
				 M137.4,93.2c-1.6,0-3.2,0.1-4.9,0.1c0.7,1.8,0.5,3.8,2.7,3.7C136.8,96.9,137.9,94.9,137.4,93.2
				C135.7,93.2,137.9,94.7,137.4,93.2z M192.3,97.1c1.5,0.1,1.3-4.8,0.9-5.9C189.4,89.6,192,96.1,192.3,97.1
				C192.5,97.1,191.8,95.7,192.3,97.1z M167.4,104.8c-0.6-3.2-1.2-6.3-1.8-9.5C164.5,97.3,164.3,103.9,167.4,104.8
				C166.8,101.6,165.4,104.2,167.4,104.8z M140,86.6c-0.7-0.6-4.6,4.6-4.4,5.7C137.9,92.2,139.1,89.2,140,86.6
				C139.8,86.5,139.7,87.5,140,86.6z M87.4,114.1c0.6-3.2,1.7-5.7-0.3-8.4C87,108.5,86.4,111.4,87.4,114.1
				C87.8,112,87.2,113.4,87.4,114.1z M88.2,120.9c-0.7-2.3-0.7-4.8-1.9-6.9C85.1,117,86.3,118.2,88.2,120.9
				C87.6,118.7,87.2,119.5,88.2,120.9z M135.8,119.1c-1,0.9-2.6,0.5-3.2,1.8c1.5-0.2,2.6,0.3,3.2,1.7
				C135.8,121.5,135.8,120.3,135.8,119.1C134.7,120.1,135.8,120.4,135.8,119.1z M87,122.8c0.5-1.8-1.3-2.8-1.4-4.4
				C85.3,119.6,84.6,122.8,87,122.8C87.5,121,85.1,122.8,87,122.8z M143.8,79.7c-0.3,1.2-2.5,1.9-0.7,3.8
				C143.5,82.1,144.6,81.2,143.8,79.7z M175.2,93.8c0.4-1.5,0.4-1.5-1.1-2.4C173.6,92.5,174,93.3,175.2,93.8z M188.9,89.7
				c-1,1-1.1,2-0.4,2.9C190.2,91.9,190.3,91,188.9,89.7C188.7,90.5,189.2,90.3,188.9,89.7z M34.8,149.6c0.7,0.3,1.3,0.2,1.9-1
				C36,148.3,35.4,148.4,34.8,149.6z M96.3,116.8c-0.3-0.4-0.7-0.9-1-1.3c-0.3,0.3-1.2,1.9-0.2,2C95.6,117.3,96,117.1,96.3,116.8
				C96.1,116.5,96,117,96.3,116.8z"/>
			<path class="st1" d="M38.4,128.9c-2.1,4.7-5.5,0.7-8.6-0.5c0.8-1.5,1.3-0.1,2.3-0.2c0.7-1.2-1.3-5.1-2-6c2.4-0.2,2,2.2,2.5,4.2
				c0.3,1.3,0.8,5.6,2.1,2.6c0.4,1.7,0.8,1.8,1.4,0.3C36.1,129.4,38.8,128.1,38.4,128.9z"/>
			<path class="st1" d="M180.6,84.9c0.1-1.5,1.4-1.9,2.4-2.6c1-2,1.3-4.6,3.8-5.4C185.1,79.8,184.3,83.9,180.6,84.9z"/>
			<path class="st1" d="M143.8,71.6c0.4-1.2,0.7-2.3,2-2.6C145.9,70.4,145,71.4,143.8,71.6z"/>
			<path class="st1" d="M149.1,55.2c-0.6-0.5-0.6-1.1-0.1-1.6C150.4,53.9,150.5,54.7,149.1,55.2C148.6,54.6,149.7,55,149.1,55.2z"/>
			<path class="st1" d="M194.6,78.4c0.7-0.9,0.7-0.8,1.7-1C196.2,77.6,194.3,78.7,194.6,78.4z"/>
			<path class="st1" d="M73.4,115.3c0.7-0.5,1.3-0.9,2-1.4c0.3,1-1.4,1.5-0.7,2.5C73.5,118.7,73,115.3,73.4,115.3z"/>
			<path class="st1" d="M73.3,115.4c-2.1,0.8-3,0.5-2.8-1C71.8,113.8,72.7,114.6,73.3,115.4z"/>
			<path class="st1" d="M163.4,110.9c-0.5-0.6-0.9-1.2-1.4-1.8C163.6,108.8,164.2,108.7,163.4,110.9z"/>
			<path class="st1" d="M171.5,90.4c-1.3-0.2-1.8-1-1.5-2.6C171.3,88.2,171.8,89.2,171.5,90.4z"/>
		</g>
	</g>
	<path class="st41" d="M128.8,216.1v-2.5c0-0.6,0.5-1.1,1.1-1.1l0,0c0.8,0,1.4-0.9,0.9-1.7l-4.8-8c-0.4-0.7-1.5-0.7-1.9,0l-4.7,8
		c-0.4,0.7,0.1,1.6,0.9,1.7l0.4,0c0.6,0,1.1,0.5,1.1,1.1v2.7c-5.1,1.6-8.8,6.6-8.6,12.3c0.3,6.3,5.5,11.5,11.8,11.8
		c7,0.3,12.8-5.3,12.8-12.3C137.8,222.3,134,217.5,128.8,216.1z"/>
	<path class="st1" d="M147.9,162.5l-0.7,0.7c-0.1,0.1-0.3,0.1-0.4-0.1l-1.7-1.7c-0.1-0.1-0.3-0.2-0.4-0.1l-0.3,0.3
		c-0.2,0.1-0.5,0-0.6-0.3l-0.9-2.8c-0.1-0.2,0.1-0.4,0.3-0.3l2.8,0.9c0.3,0.1,0.4,0.4,0.3,0.6l-0.2,0.2c-0.1,0.1-0.1,0.3,0.1,0.4
		l1.7,1.7C147.9,162.2,148,162.4,147.9,162.5z"/>
	<path class="st1" d="M178.3,160.4l-1,0.1c-0.1,0-0.3-0.1-0.3-0.3l-0.4-2.4c0-0.2-0.2-0.3-0.3-0.3l-0.4,0.1c-0.2,0-0.4-0.3-0.3-0.5
		l1-2.8c0.1-0.2,0.3-0.3,0.4-0.1l1.8,2.4c0.2,0.2,0.1,0.6-0.1,0.6l-0.3,0.1c-0.1,0-0.2,0.2-0.2,0.4l0.4,2.4
		C178.5,160.2,178.5,160.4,178.3,160.4z"/>
	<path class="st1" d="M188.9,148l-0.7-0.4c-0.1-0.1-0.1-0.2,0-0.4l1.2-2.2c0.1-0.2,0.1-0.4,0-0.4l-0.3-0.2c-0.2-0.1-0.1-0.4,0.1-0.6
		l2.3-1.8c0.2-0.1,0.3,0,0.3,0.2l-0.3,2.9c0,0.3-0.3,0.5-0.4,0.4l-0.2-0.1c-0.1-0.1-0.3,0-0.4,0.2l-1.2,2.2
		C189.2,148,189,148.1,188.9,148z"/>
	<path class="st1" d="M180.9,118.9l-0.8-0.2c-0.1,0-0.2-0.2-0.1-0.4l0.6-2.4c0-0.2,0-0.4-0.1-0.4l-0.3-0.1c-0.2,0-0.2-0.4,0-0.6
		l1.7-2.3c0.1-0.2,0.3-0.1,0.3,0.1l0.5,2.8c0,0.3-0.1,0.6-0.3,0.5l-0.3-0.1c-0.1,0-0.2,0.1-0.3,0.3l-0.6,2.4
		C181.2,118.8,181,118.9,180.9,118.9z"/>
	<path class="st1" d="M189.9,104l-0.8,0.2c-0.1,0-0.3-0.1-0.3-0.3l-0.7-2.4c-0.1-0.2-0.2-0.3-0.3-0.3l-0.3,0.1
		c-0.2,0-0.4-0.2-0.3-0.5l0.3-2.8c0-0.2,0.2-0.3,0.3-0.1l1.9,2.2c0.2,0.2,0.2,0.5,0,0.6l-0.2,0.1c-0.1,0-0.2,0.2-0.1,0.4l0.7,2.4
		C190,103.8,190,103.9,189.9,104z"/>
	<path class="st1" d="M183.7,108.6L183,109c-0.1,0.1-0.3,0-0.4-0.2l-1.4-2.1c-0.1-0.2-0.3-0.2-0.4-0.2l-0.3,0.2
		c-0.1,0.1-0.4-0.1-0.5-0.4l-0.5-2.8c0-0.2,0.1-0.3,0.3-0.2l2.4,1.6c0.2,0.1,0.3,0.5,0.2,0.6l-0.2,0.1c-0.1,0.1-0.1,0.3,0,0.4
		l1.4,2.1C183.8,108.3,183.8,108.5,183.7,108.6z"/>
	<path class="st1" d="M171.3,132l-0.8-0.2c-0.1,0-0.2-0.2-0.1-0.4l0.5-2.4c0-0.2,0-0.4-0.1-0.4l-0.3-0.1c-0.2,0-0.2-0.4-0.1-0.6
		l1.7-2.3c0.1-0.2,0.3-0.1,0.3,0.1l0.6,2.8c0.1,0.3-0.1,0.6-0.3,0.5l-0.3,0c-0.1,0-0.2,0.1-0.3,0.3l-0.5,2.4
		C171.6,131.9,171.4,132,171.3,132z"/>
	<path class="st1" d="M184.7,131.3l-0.8,0.2c-0.1,0-0.3-0.1-0.3-0.3l-0.7-2.4c-0.1-0.2-0.2-0.3-0.3-0.3l-0.3,0.1
		c-0.2,0-0.4-0.2-0.3-0.5l0.3-2.8c0-0.2,0.2-0.3,0.3-0.1l1.9,2.2c0.2,0.2,0.2,0.5,0,0.6l-0.2,0.1c-0.1,0-0.2,0.2-0.1,0.4l0.7,2.4
		C184.9,131.1,184.8,131.2,184.7,131.3z"/>
	<path class="st1" d="M187.4,131.7l-0.7-0.4c-0.1-0.1-0.1-0.2,0-0.4l1.1-2.2c0.1-0.2,0.1-0.4,0-0.4l-0.3-0.2
		c-0.2-0.1-0.1-0.4,0.1-0.6l2.2-1.8c0.2-0.1,0.3-0.1,0.3,0.2l-0.2,2.9c0,0.3-0.3,0.5-0.4,0.4l-0.2-0.1c-0.1-0.1-0.3,0-0.4,0.2
		l-1.1,2.2C187.7,131.7,187.5,131.8,187.4,131.7z"/>
	<path class="st1" d="M193.5,164.8l-0.4-0.9c-0.1-0.1,0.1-0.3,0.2-0.4l2.3-0.9c0.2-0.1,0.3-0.2,0.2-0.4l-0.1-0.4
		c-0.1-0.2,0.2-0.4,0.5-0.4l2.9,0.3c0.2,0,0.3,0.2,0.2,0.4l-2,2.2c-0.2,0.2-0.5,0.2-0.6,0l-0.1-0.3c-0.1-0.1-0.2-0.2-0.4-0.1
		l-2.3,0.9C193.8,165,193.6,164.9,193.5,164.8z"/>
	<path class="st1" d="M214.1,155.3l-0.4-0.9c-0.1-0.1,0.1-0.3,0.2-0.4l2.3-0.9c0.2-0.1,0.3-0.2,0.2-0.4l-0.1-0.4
		c-0.1-0.2,0.2-0.4,0.5-0.4l2.9,0.3c0.2,0,0.3,0.2,0.2,0.4l-2,2.2c-0.2,0.2-0.5,0.2-0.6,0l-0.1-0.3c-0.1-0.1-0.2-0.2-0.4-0.1
		l-2.3,0.9C214.3,155.5,214.1,155.5,214.1,155.3z"/>
	<path class="st1" d="M208.1,151l-0.4-0.9c-0.1-0.1,0.1-0.3,0.2-0.4l2.3-0.9c0.2-0.1,0.3-0.2,0.2-0.4l-0.1-0.4
		c-0.1-0.2,0.2-0.4,0.5-0.4l2.9,0.3c0.2,0,0.3,0.2,0.2,0.4l-2,2.2c-0.2,0.2-0.5,0.2-0.6,0l-0.1-0.3c-0.1-0.1-0.2-0.2-0.4-0.1
		l-2.3,0.9C208.3,151.2,208.1,151.2,208.1,151z"/>
	<path class="st1" d="M213.4,144.4l0.9-0.5c0.1-0.1,0.3,0,0.4,0.2l1.2,2.1c0.1,0.2,0.3,0.3,0.4,0.2l0.3-0.2c0.2-0.1,0.5,0.1,0.5,0.4
		l0.1,3c0,0.2-0.2,0.3-0.4,0.2l-2.5-1.6c-0.2-0.1-0.3-0.5-0.1-0.6l0.3-0.2c0.1-0.1,0.1-0.3,0-0.4l-1.2-2.1
		C213.2,144.7,213.3,144.5,213.4,144.4z"/>
	<path class="st1" d="M192.2,161.6l-0.7,0.1c-0.1,0-0.2-0.1-0.2-0.3l-0.2-2.5c0-0.2-0.1-0.4-0.2-0.3l-0.3,0c-0.1,0-0.3-0.3-0.2-0.6
		l0.7-2.7c0.1-0.2,0.2-0.2,0.3,0l1.2,2.5c0.1,0.2,0,0.6-0.1,0.6l-0.2,0c-0.1,0-0.2,0.2-0.1,0.4l0.2,2.5
		C192.4,161.5,192.3,161.6,192.2,161.6z"/>
	<path class="st1" d="M179.7,175.1l0.7-0.7c0.1-0.1,0.3-0.1,0.4,0.1l1.7,1.8c0.1,0.1,0.3,0.2,0.4,0.1l0.3-0.3c0.2-0.1,0.5,0,0.5,0.3
		l0.8,2.9c0.1,0.2-0.1,0.4-0.3,0.3l-2.8-1c-0.3-0.1-0.4-0.4-0.2-0.6l0.2-0.2c0.1-0.1,0.1-0.3-0.1-0.4l-1.7-1.8
		C179.6,175.4,179.6,175.2,179.7,175.1z"/>
	<path class="st1" d="M203.5,165.6l-0.8,0c-0.1,0-0.2-0.2-0.2-0.4l0.1-2.5c0-0.2-0.1-0.4-0.2-0.4l-0.3,0c-0.2,0-0.3-0.3-0.2-0.6
		l1.2-2.6c0.1-0.2,0.3-0.2,0.4,0l1.1,2.7c0.1,0.2,0,0.6-0.2,0.6l-0.3,0c-0.1,0-0.2,0.2-0.2,0.4l-0.1,2.5
		C203.7,165.4,203.6,165.6,203.5,165.6z"/>
	<path class="st1" d="M209,178.1l-0.4-0.7c-0.1-0.1,0-0.3,0.2-0.4l2.2-1.2c0.2-0.1,0.3-0.3,0.2-0.4l-0.1-0.3
		c-0.1-0.2,0.2-0.4,0.4-0.4l2.8-0.3c0.2,0,0.3,0.1,0.2,0.3l-1.8,2.3c-0.2,0.2-0.5,0.3-0.6,0.1L212,177c-0.1-0.1-0.2-0.1-0.4,0
		l-2.2,1.2C209.3,178.3,209.1,178.3,209,178.1z"/>
	<path class="st1" d="M213.9,166.5l-0.7-0.5c-0.1-0.1-0.1-0.3,0-0.4l1.4-2c0.1-0.2,0.1-0.4,0-0.4l-0.3-0.2c-0.1-0.1,0-0.4,0.2-0.6
		l2.4-1.6c0.2-0.1,0.3,0,0.3,0.2l-0.5,2.8c0,0.3-0.3,0.5-0.5,0.4l-0.2-0.1c-0.1-0.1-0.3,0-0.4,0.2l-1.4,2
		C214.2,166.5,214,166.6,213.9,166.5z"/>
	<path class="st1" d="M217.5,169.3l-0.4-0.7c-0.1-0.1,0-0.3,0.2-0.4l2.2-1.2c0.2-0.1,0.3-0.3,0.2-0.4l-0.1-0.3
		c-0.1-0.2,0.2-0.4,0.4-0.4l2.8-0.3c0.2,0,0.3,0.1,0.2,0.3l-1.8,2.3c-0.2,0.2-0.5,0.3-0.6,0.1l-0.1-0.2c-0.1-0.1-0.2-0.1-0.4,0
		l-2.2,1.2C217.7,169.4,217.5,169.4,217.5,169.3z"/>
	<path class="st1" d="M201.5,185.1l0.4-0.7c0.1-0.1,0.2-0.1,0.4,0l2.2,1.1c0.2,0.1,0.4,0.1,0.4,0l0.1-0.3c0.1-0.2,0.4-0.1,0.6,0.1
		l1.9,2.2c0.1,0.2,0.1,0.3-0.2,0.3l-2.9-0.2c-0.3,0-0.5-0.3-0.4-0.4l0.1-0.2c0.1-0.1-0.1-0.3-0.2-0.4l-2.2-1.1
		C201.6,185.4,201.5,185.2,201.5,185.1z"/>
	<path class="st1" d="M194.6,182.9l0.9-0.4c0.1-0.1,0.3,0,0.4,0.2l1.1,2.2c0.1,0.2,0.3,0.3,0.4,0.2l0.4-0.2c0.2-0.1,0.5,0.1,0.4,0.4
		l0,3c0,0.2-0.2,0.3-0.4,0.2l-2.4-1.7c-0.2-0.2-0.3-0.5-0.1-0.6l0.3-0.1c0.1-0.1,0.2-0.3,0.1-0.4l-1.1-2.2
		C194.4,183.1,194.5,182.9,194.6,182.9z"/>
	<path class="st1" d="M53.3,195.7l-0.2,1c0,0.1-0.2,0.2-0.4,0.2l-2.4-0.5c-0.2,0-0.4,0-0.4,0.2l-0.1,0.4c0,0.2-0.4,0.3-0.6,0.1
		l-2.3-1.8c-0.2-0.1-0.1-0.4,0.1-0.4l2.9-0.9c0.3-0.1,0.6,0.1,0.5,0.3l-0.1,0.3c0,0.1,0.1,0.3,0.3,0.3l2.4,0.5
		C53.2,195.4,53.3,195.6,53.3,195.7z"/>
	<path class="st1" d="M73,161.2l-0.9,0.3c-0.1,0-0.3-0.1-0.4-0.3l-0.8-2.3c-0.1-0.2-0.2-0.3-0.4-0.3l-0.4,0.1
		c-0.2,0.1-0.4-0.2-0.4-0.5l0.4-2.9c0-0.2,0.2-0.3,0.4-0.1l2.2,2c0.2,0.2,0.2,0.5,0,0.6l-0.3,0.1c-0.1,0.1-0.2,0.2-0.1,0.4l0.8,2.3
		C73.2,160.9,73.2,161.1,73,161.2z"/>
	<path class="st1" d="M63.3,153l-0.9,0.3c-0.1,0-0.3-0.1-0.4-0.3l-0.8-2.3c-0.1-0.2-0.2-0.3-0.4-0.3l-0.4,0.1
		c-0.2,0.1-0.4-0.2-0.4-0.5l0.4-2.9c0-0.2,0.2-0.3,0.4-0.1l2.2,2c0.2,0.2,0.2,0.5,0,0.6l-0.3,0.1c-0.1,0.1-0.2,0.2-0.1,0.4l0.8,2.3
		C63.5,152.8,63.5,152.9,63.3,153z"/>
	<path class="st1" d="M55.9,171l-0.7,0.7c-0.1,0.1-0.3,0.1-0.4-0.1l-1.6-1.8c-0.1-0.1-0.3-0.2-0.4-0.1l-0.3,0.3
		c-0.2,0.1-0.5,0-0.5-0.3l-0.7-2.9c-0.1-0.2,0.1-0.4,0.3-0.3l2.8,1c0.3,0.1,0.4,0.4,0.2,0.6l-0.2,0.2c-0.1,0.1-0.1,0.3,0,0.4
		l1.6,1.8C56,170.7,56,170.9,55.9,171z"/>
	<path class="st1" d="M41.9,173.9l-0.3,1c0,0.1-0.2,0.2-0.4,0.2l-2.4-0.7c-0.2-0.1-0.4,0-0.4,0.2l-0.1,0.4c-0.1,0.2-0.4,0.2-0.6,0
		l-2.1-2.1c-0.2-0.2-0.1-0.4,0.1-0.4l2.9-0.6c0.3-0.1,0.5,0.2,0.5,0.4l-0.1,0.3c0,0.1,0.1,0.3,0.3,0.4l2.4,0.7
		C41.8,173.6,41.9,173.8,41.9,173.9z"/>
	<path class="st1" d="M41.9,164.7l-0.7,0.7c-0.1,0.1-0.3,0.1-0.4-0.1l-1.6-1.8c-0.1-0.1-0.3-0.2-0.4-0.1l-0.3,0.3
		c-0.2,0.1-0.5,0-0.5-0.3l-0.7-2.9c-0.1-0.2,0.1-0.4,0.3-0.3l2.8,1c0.3,0.1,0.4,0.4,0.2,0.6l-0.2,0.2c-0.1,0.1-0.1,0.3,0,0.4
		l1.6,1.8C42,164.4,42,164.6,41.9,164.7z"/>
	<path class="st1" d="M75.8,162.6l-1-0.2c-0.1,0-0.2-0.2-0.2-0.4l0.6-2.4c0-0.2,0-0.4-0.2-0.4l-0.4-0.1c-0.2-0.1-0.3-0.4-0.1-0.6
		l1.9-2.2c0.1-0.2,0.4-0.1,0.4,0.1l0.7,2.9c0.1,0.3-0.1,0.6-0.3,0.5l-0.3-0.1c-0.1,0-0.3,0.1-0.3,0.3l-0.6,2.4
		C76.1,162.5,75.9,162.6,75.8,162.6z"/>
	<path class="st1" d="M55.3,159.3l0.5,0.7c0.1,0.1,0,0.3-0.2,0.4l-2,1.4c-0.2,0.1-0.2,0.3-0.2,0.4l0.2,0.3c0.1,0.2-0.1,0.4-0.3,0.5
		l-2.9,0.5c-0.2,0-0.3-0.1-0.2-0.3l1.4-2.6c0.1-0.2,0.5-0.3,0.6-0.2l0.2,0.2c0.1,0.1,0.3,0.1,0.4,0l2-1.4
		C55.1,159.2,55.3,159.2,55.3,159.3z"/>
	<path class="st1" d="M95.3,158.3l-1,0c-0.1,0-0.3-0.2-0.3-0.3l-0.1-2.5c0-0.2-0.1-0.4-0.3-0.3l-0.4,0c-0.2,0-0.4-0.3-0.2-0.6
		l1.2-2.7c0.1-0.2,0.3-0.2,0.4,0l1.5,2.6c0.1,0.2,0,0.6-0.2,0.6l-0.3,0c-0.1,0-0.3,0.2-0.2,0.4l0.1,2.5
		C95.6,158.1,95.5,158.3,95.3,158.3z"/>
	<path class="st1" d="M87.4,143.1l-0.8-0.4c-0.1-0.1-0.1-0.2,0-0.4l1.1-1.9c0.1-0.1,0.1-0.3,0-0.4l-0.3-0.2
		c-0.2-0.1-0.1-0.4,0.1-0.5l2.2-1.4c0.2-0.1,0.3,0,0.3,0.2l-0.1,2.6c0,0.2-0.2,0.4-0.4,0.3l-0.2-0.1c-0.1-0.1-0.3,0-0.4,0.2
		l-1.1,1.9C87.7,143.1,87.5,143.1,87.4,143.1z"/>
	<path class="st1" d="M70.2,130.2l-0.4-0.8c-0.1-0.1,0-0.3,0.2-0.4l1.9-1c0.2-0.1,0.2-0.2,0.2-0.4l-0.2-0.3
		c-0.1-0.2,0.1-0.4,0.3-0.4l2.6-0.1c0.2,0,0.3,0.2,0.2,0.3l-1.4,2.2c-0.1,0.2-0.4,0.2-0.5,0.1l-0.1-0.2c-0.1-0.1-0.2-0.1-0.4,0
		l-1.9,1C70.4,130.3,70.2,130.3,70.2,130.2z"/>
	<path class="st1" d="M69.7,128.8l-0.9,0c-0.1,0-0.2-0.1-0.2-0.3l-0.1-2.1c0-0.2-0.1-0.3-0.2-0.3l-0.3,0c-0.2,0-0.3-0.3-0.2-0.5
		l1.1-2.3c0.1-0.2,0.3-0.2,0.4,0l1.3,2.3c0.1,0.2,0,0.5-0.2,0.5l-0.3,0c-0.1,0-0.2,0.1-0.2,0.3l0.1,2.1
		C69.9,128.6,69.8,128.8,69.7,128.8z"/>
	<path class="st1" d="M59,167.2l-0.8-0.2c-0.1,0-0.2-0.2-0.1-0.4l0.6-2.1c0-0.2,0-0.3-0.1-0.4l-0.3-0.1c-0.2,0-0.2-0.4,0-0.5
		l1.7-1.9c0.1-0.1,0.3-0.1,0.3,0.1l0.4,2.5c0,0.2-0.1,0.5-0.3,0.4l-0.2-0.1c-0.1,0-0.2,0.1-0.3,0.2l-0.6,2.1
		C59.3,167.1,59.2,167.2,59,167.2z"/>
	<path class="st1" d="M39.7,184.8l0.5,0.6c0.1,0.1,0,0.3-0.1,0.4l-1.7,1.3c-0.1,0.1-0.2,0.3-0.1,0.4l0.2,0.3
		c0.1,0.1-0.1,0.4-0.3,0.4l-2.5,0.5c-0.2,0-0.3-0.1-0.2-0.3l1.2-2.2c0.1-0.2,0.4-0.3,0.5-0.2l0.2,0.2c0.1,0.1,0.2,0.1,0.4,0l1.7-1.3
		C39.5,184.7,39.7,184.7,39.7,184.8z"/>
	<path class="st1" d="M40.9,183.5l-0.6,0.5c-0.1,0.1-0.3,0-0.4-0.1l-1.4-1.6c-0.1-0.1-0.3-0.2-0.4-0.1l-0.2,0.2
		c-0.1,0.1-0.4-0.1-0.4-0.3l-0.6-2.4c0-0.2,0.1-0.3,0.3-0.2l2.3,1.1c0.2,0.1,0.3,0.4,0.2,0.5l-0.2,0.2c-0.1,0.1-0.1,0.2,0,0.4
		l1.4,1.6C41,183.2,41,183.4,40.9,183.5z"/>
	<path class="st1" d="M45.8,157l-0.7-0.2c-0.1,0-0.1-0.2-0.1-0.4l0.6-2.1c0-0.2,0-0.3-0.1-0.4l-0.3-0.1c-0.2,0-0.2-0.3,0-0.5
		l1.6-1.9c0.1-0.1,0.3-0.1,0.3,0.1l0.3,2.5c0,0.2-0.1,0.5-0.3,0.4l-0.2-0.1c-0.1,0-0.2,0.1-0.3,0.2l-0.6,2.1
		C46,156.9,45.9,157,45.8,157z"/>
	<path class="st1" d="M30.9,138.6l-0.7,0.1c-0.1,0-0.2-0.1-0.2-0.3l-0.3-2.1c0-0.2-0.1-0.3-0.2-0.3l-0.3,0c-0.2,0-0.3-0.2-0.2-0.5
		l0.7-2.4c0.1-0.2,0.2-0.2,0.3,0l1.3,2.1c0.1,0.2,0.1,0.5-0.1,0.5l-0.2,0c-0.1,0-0.2,0.2-0.1,0.3l0.3,2.1
		C31.1,138.5,31.1,138.6,30.9,138.6z"/>
	<path class="st1" d="M134.9,134.6l-0.7,0.4c-0.1,0.1-0.3,0-0.4-0.2l-1.1-1.8c-0.1-0.1-0.2-0.2-0.4-0.2l-0.3,0.2
		c-0.2,0.1-0.4-0.1-0.4-0.3l-0.1-2.6c0-0.2,0.2-0.3,0.3-0.2l2.2,1.4c0.2,0.1,0.3,0.4,0.1,0.5l-0.2,0.1c-0.1,0.1-0.1,0.2,0,0.4
		l1.1,1.8C135,134.4,135,134.5,134.9,134.6z"/>
	<path class="st1" d="M124.4,112l-0.8-0.2c-0.1,0-0.2-0.2-0.1-0.4l0.5-2.1c0-0.2,0-0.3-0.1-0.4l-0.3-0.1c-0.2,0-0.2-0.3-0.1-0.5
		l1.6-2c0.1-0.2,0.3-0.1,0.3,0.1l0.6,2.5c0.1,0.2-0.1,0.5-0.3,0.4l-0.3-0.1c-0.1,0-0.2,0.1-0.3,0.3l-0.5,2.1
		C124.6,111.9,124.5,112,124.4,112z"/>
	<path class="st1" d="M110,109.7l-0.8-0.2c-0.1,0-0.2-0.2-0.1-0.4l0.5-2.1c0-0.2,0-0.3-0.1-0.4l-0.3-0.1c-0.2,0-0.2-0.3-0.1-0.5
		l1.6-2c0.1-0.2,0.3-0.1,0.3,0.1l0.6,2.5c0.1,0.2-0.1,0.5-0.3,0.4l-0.3-0.1c-0.1,0-0.2,0.1-0.3,0.3l-0.5,2.1
		C110.2,109.6,110.1,109.8,110,109.7z"/>
	<path class="st1" d="M96.6,100.5l-0.8-0.2c-0.1,0-0.2-0.2-0.1-0.4l0.5-2.1c0-0.2,0-0.3-0.1-0.4l-0.3-0.1c-0.2,0-0.2-0.3-0.1-0.5
		l1.6-2c0.1-0.2,0.3-0.1,0.3,0.1l0.6,2.5c0.1,0.2-0.1,0.5-0.3,0.4l-0.3-0.1c-0.1,0-0.2,0.1-0.3,0.3l-0.5,2.1
		C96.9,100.5,96.7,100.6,96.6,100.5z"/>
	<path class="st1" d="M65.8,110.6l-0.8,0.3c-0.1,0-0.3-0.1-0.3-0.2l-0.7-2c-0.1-0.2-0.2-0.3-0.3-0.2l-0.3,0.1
		c-0.2,0.1-0.4-0.2-0.3-0.4l0.3-2.5c0-0.2,0.2-0.3,0.3-0.1l1.8,1.8c0.2,0.2,0.2,0.5,0,0.5l-0.2,0.1c-0.1,0-0.2,0.2-0.1,0.4l0.7,2
		C65.9,110.4,65.9,110.6,65.8,110.6z"/>
	<path class="st1" d="M70.2,108l-0.8,0.3c-0.1,0-0.3-0.1-0.3-0.2l-0.7-2c-0.1-0.2-0.2-0.3-0.3-0.2l-0.3,0.1
		c-0.2,0.1-0.4-0.2-0.3-0.4l0.3-2.5c0-0.2,0.2-0.3,0.3-0.1l1.8,1.8c0.2,0.2,0.2,0.5,0,0.5l-0.2,0.1c-0.1,0-0.2,0.2-0.1,0.4l0.7,2
		C70.4,107.8,70.3,107.9,70.2,108z"/>
	<path class="st1" d="M57.4,121.8l-0.8,0.3c-0.1,0-0.3-0.1-0.3-0.2l-0.7-2c-0.1-0.2-0.2-0.3-0.3-0.2l-0.3,0.1
		c-0.2,0.1-0.4-0.2-0.3-0.4l0.3-2.5c0-0.2,0.2-0.3,0.3-0.1l1.8,1.8c0.2,0.2,0.2,0.5,0,0.5l-0.2,0.1c-0.1,0-0.2,0.2-0.1,0.4l0.7,2
		C57.6,121.6,57.5,121.8,57.4,121.8z"/>
	<path class="st1" d="M54.1,121.6l-0.7,0.4c-0.1,0.1-0.3,0-0.3-0.2L52,120c-0.1-0.1-0.2-0.2-0.3-0.2l-0.3,0.2
		c-0.2,0.1-0.4-0.1-0.4-0.3l-0.2-2.5c0-0.2,0.1-0.3,0.3-0.2l2.1,1.4c0.2,0.1,0.2,0.4,0.1,0.5l-0.2,0.1c-0.1,0.1-0.1,0.2,0,0.4
		l1.1,1.9C54.3,121.4,54.2,121.6,54.1,121.6z"/>
	<path class="st1" d="M99.8,110.1l-0.7-0.2c-0.1,0-0.2-0.2-0.1-0.4l0.5-2.1c0-0.2,0-0.3-0.1-0.4l-0.3-0.1c-0.2,0-0.2-0.3,0-0.5
		l1.5-2c0.1-0.2,0.3-0.1,0.3,0.1l0.5,2.5c0,0.2-0.1,0.5-0.3,0.4l-0.2-0.1c-0.1,0-0.2,0.1-0.3,0.3l-0.5,2.1
		C100,110,99.9,110.1,99.8,110.1z"/>
	<path class="st1" d="M142.9,122.5l-0.6-0.6c-0.1-0.1-0.1-0.3,0.1-0.4l1.5-1.5c0.1-0.1,0.2-0.3,0.1-0.4l-0.2-0.2
		c-0.1-0.1,0-0.4,0.2-0.5l2.4-0.8c0.2-0.1,0.3,0.1,0.3,0.3l-0.8,2.4c-0.1,0.2-0.4,0.3-0.5,0.2l-0.2-0.2c-0.1-0.1-0.3-0.1-0.4,0.1
		l-1.5,1.5C143.1,122.6,143,122.6,142.9,122.5z"/>
	<path class="st1" d="M125.3,141.1l-0.8-0.2c-0.1,0-0.2-0.2-0.2-0.4l0.4-2.1c0-0.2,0-0.3-0.2-0.4l-0.3-0.1c-0.2,0-0.2-0.3-0.1-0.5
		l1.6-2c0.1-0.2,0.3-0.1,0.4,0.1l0.7,2.5c0.1,0.2-0.1,0.5-0.3,0.4l-0.3-0.1c-0.1,0-0.3,0.1-0.3,0.3l-0.4,2.1
		C125.6,141,125.4,141.1,125.3,141.1z"/>
	<path class="st1" d="M121.5,140.7l-0.9-0.1c-0.1,0-0.2-0.2-0.2-0.3l0.1-2.1c0-0.2-0.1-0.3-0.2-0.3l-0.3,0c-0.2,0-0.3-0.3-0.2-0.5
		l1.3-2.2c0.1-0.2,0.3-0.2,0.4,0l1.1,2.4c0.1,0.2,0,0.5-0.2,0.5l-0.3,0c-0.1,0-0.2,0.1-0.2,0.3l-0.1,2.1
		C121.7,140.5,121.6,140.7,121.5,140.7z"/>
	<path class="st1" d="M53.2,199.5l0.4,0.9c0.1,0.1-0.1,0.3-0.2,0.4l-2.3,0.9c-0.2,0.1-0.3,0.2-0.2,0.4l0.1,0.4
		c0.1,0.2-0.2,0.4-0.5,0.4l-3-0.3c-0.2,0-0.3-0.2-0.2-0.4l2-2.3c0.2-0.2,0.5-0.2,0.6,0l0.1,0.3c0.1,0.1,0.2,0.2,0.4,0.1l2.3-0.9
		C52.9,199.3,53.1,199.4,53.2,199.5z"/>
	<path class="st1" d="M62,195.7l0.9-0.3c0.1,0,0.3,0.1,0.4,0.3L64,198c0.1,0.2,0.2,0.3,0.4,0.3l0.4-0.1c0.2-0.1,0.4,0.2,0.4,0.5
		l-0.5,2.9c0,0.2-0.2,0.3-0.4,0.1l-2.1-2.1c-0.2-0.2-0.2-0.5,0-0.6l0.3-0.1c0.1,0,0.2-0.2,0.1-0.4l-0.8-2.3
		C61.8,195.9,61.8,195.7,62,195.7z"/>
	<path class="st1" d="M67.5,191l1.1-0.4c0.2-0.1,0.4,0.1,0.4,0.3l0.9,2.8c0.1,0.2,0.3,0.4,0.4,0.3l0.4-0.1c0.2-0.1,0.5,0.2,0.4,0.6
		l-0.6,3.5c0,0.3-0.3,0.3-0.5,0.2l-2.5-2.4c-0.2-0.2-0.2-0.6,0-0.7l0.4-0.1c0.2-0.1,0.2-0.3,0.2-0.5l-0.9-2.8
		C67.3,191.3,67.4,191.1,67.5,191z"/>
	<radialGradient id="SVGID_2_" cx="125.5027" cy="151.8304" r="105.8581" gradientUnits="userSpaceOnUse">
		<stop  offset="0.8157" style="stop-color:#9BAC4E;stop-opacity:0"/>
		<stop  offset="1" style="stop-color:#9BAC4E"/>
	</radialGradient>
	<path style="fill-rule:evenodd;clip-rule:evenodd;fill:url(#SVGID_2_);" d="M226.5,142.3c0,55.8-44.7,120-100.5,120
		s-101.5-64.2-101.5-120s45.2-101,101-101S226.5,86.5,226.5,142.3z"/>
</g>
<g id="Layer_2" class="st29">
	<circle class="st43" cx="125.5" cy="142.3" r="98"/>
</g>
</svg>
