<?xml version="1.0" encoding="UTF-8" standalone="no"?>
<!-- Created with Inkscape (http://www.inkscape.org/) -->

<svg
   width="3in"
   height="2.5in"
   viewBox="0 0 76.2 63.5"
   version="1.1"
   id="svg5"
   inkscape:version="1.1.2 (b8e25be833, 2022-02-05)"
   sodipodi:docname="404.svg"
   xmlns:inkscape="http://www.inkscape.org/namespaces/inkscape"
   xmlns:sodipodi="http://sodipodi.sourceforge.net/DTD/sodipodi-0.dtd"
   xmlns="http://www.w3.org/2000/svg"
   xmlns:svg="http://www.w3.org/2000/svg">
  <sodipodi:namedview
     id="namedview7"
     pagecolor="#ffffff"
     bordercolor="#666666"
     borderopacity="1.0"
     inkscape:pageshadow="2"
     inkscape:pageopacity="0.0"
     inkscape:pagecheckerboard="0"
     inkscape:document-units="mm"
     showgrid="false"
     units="in"
     inkscape:zoom="1.4805976"
     inkscape:cx="117.18241"
     inkscape:cy="41.874982"
     inkscape:window-width="1920"
     inkscape:window-height="1017"
     inkscape:window-x="-8"
     inkscape:window-y="-8"
     inkscape:window-maximized="1"
     inkscape:current-layer="layer1"
     width="3in" />
  <defs
     id="defs2">
    <rect
       x="33.094746"
       y="209.37491"
       width="323.51801"
       height="101.31044"
       id="rect10332" />
    <rect
       x="14.858865"
       y="74.969727"
       width="175.60477"
       height="195.19147"
       id="rect2532" />
    <clipPath
       clipPathUnits="userSpaceOnUse"
       id="clipPath1026">
      <path
         id="path1028"
         style="fill:none;stroke:#ff0101;stroke-width:0.788977;stroke-opacity:1"
         d="m 49.891368,16.518717 c 0.290409,-0.144923 0.412792,-0.494589 0.276127,-0.788967 -0.150527,-0.284183 -0.496427,-0.40173 -0.788977,-0.268376 -0.760103,0.3867 -1.40304,0.969673 -1.861992,1.688417 -0.333502,0.527033 -0.598678,1.094411 -0.788977,1.688417 -0.958053,-0.378797 -2.024279,-0.378797 -2.982338,0 -0.183658,-0.59654 -0.449231,-1.164754 -0.788964,-1.688417 -0.457213,-0.720324 -1.100545,-1.303715 -1.861989,-1.688417 -0.292322,-0.137767 -0.641279,-0.01789 -0.788977,0.268376 -0.14233,0.291934 -0.02267,0.644194 0.268258,0.788967 0.54337,0.288058 1.00271,0.712214 1.333373,1.230806 0.327113,0.509917 0.569564,1.069482 0.717971,1.65687 -1.405406,1.130225 -2.202114,2.85216 -2.153909,4.654965 0.0024,0.263904 0.02088,0.527359 0.05522,0.788968 h 9.357281 c 0.03442,-0.261518 0.05276,-0.525124 0.05521,-0.788968 0.03708,-1.791594 -0.758449,-3.499187 -2.153914,-4.623416 0.148415,-0.587387 0.390858,-1.146923 0.717968,-1.65684 0.34155,-0.537468 0.821092,-0.973432 1.388599,-1.262385 z M 57.433996,34.665224 53.82836,31.091161 C 53.702138,30.995133 53.552143,30.9352 53.394422,30.91761 h -2.22491 c -0.07891,-0.473387 -0.16568,-0.954677 -0.268264,-1.420161 l 2.887668,-0.552289 c 0.355592,-0.06589 0.636153,-0.340273 0.710081,-0.69429 l 1.207135,-5.451837 c 0.120552,-0.486418 -0.176028,-0.978413 -0.662427,-1.098974 -0.0081,-0.002 -0.01582,-0.003 -0.02387,-0.0059 -0.479777,-0.110626 -0.958448,0.188758 -1.069063,0.668407 -0.0013,0.0059 -0.0028,0.01187 -0.0041,0.01789 l -1.080889,4.875862 -2.461614,0.465484 c -0.138158,-0.454567 -0.334367,-0.889457 -0.583838,-1.293901 h -9.231042 c -0.251291,0.411839 -0.447588,0.854778 -0.583846,1.317608 l -2.461599,-0.46554 -1.073009,-4.875868 c -0.145013,-0.479708 -0.651381,-0.750948 -1.131078,-0.605935 -0.427387,0.12912 -0.697299,0.550233 -0.636233,0.992517 l 1.207138,5.451835 c 0.0778,0.351962 0.356462,0.624483 0.71008,0.69432 l 2.887658,0.552291 c -0.102577,0.465484 -0.189355,0.946772 -0.260353,1.420156 h -2.256478 c -0.160549,0.01492 -0.313539,0.07575 -0.441828,0.173554 l -3.574079,3.581932 c -0.398668,0.298468 -0.479933,0.8637 -0.181451,1.26239 0.298471,0.398656 0.863693,0.479912 1.262364,0.181301 l 3.408384,-3.432059 h 1.577956 c 0,0.268372 0,0.504936 0,0.71006 0.0026,0.470228 0.05824,0.938723 0.16568,1.396516 l -2.303817,0.575939 c -0.29214,0.07186 -0.529008,0.285073 -0.631182,0.568058 l -1.885657,5.159939 c -0.169941,0.468309 0.06959,0.986038 0.536507,1.159769 0.09924,0.0334 0.202922,0.05221 0.307699,0.05514 0.379892,5.29e-4 0.719945,-0.23558 0.852096,-0.591711 l 1.719975,-4.733873 2.0829,-0.520734 c 0.91853,1.560192 2.482048,2.632416 4.268372,2.927125 l 0.291936,-0.09453 v -6.548512 c 0,-0.43575 0.353224,-0.788963 0.788975,-0.788963 0.43575,0 0.788976,0.353213 0.788976,0.788963 v 6.564292 l 0.291936,0.09452 c 1.788057,-0.290441 3.35316,-1.363829 4.26837,-2.927098 l 2.082906,0.520713 1.727853,4.733867 c 0.127275,0.356465 0.465736,0.593709 0.844209,0.591738 0.104788,-0.0028 0.208441,-0.02085 0.307705,-0.05514 0.466921,-0.173848 0.706371,-0.69146 0.536506,-1.159804 L 54.167648,35.895428 C 54.06548,35.61244 53.828627,35.399258 53.536466,35.327362 l -2.303817,-0.575939 c 0.107477,-0.457848 0.163084,-0.926254 0.165672,-1.396508 0,-0.205161 0,-0.441812 0,-0.710068 h 1.577956 l 3.408389,3.432062 c 0.328295,0.372776 0.896673,0.408826 1.269463,0.08051 0.372795,-0.328314 0.408848,-0.89662 0.08055,-1.269389 -0.08346,-0.09482 -0.185899,-0.170866 -0.300683,-0.223351 z M 8.162317,66.666166 c 2.15667,2.156912 5.65358,2.157063 7.810488,2.64e-4 1.59e-4,-1.51e-4 2.35e-4,-2.38e-4 3.97e-4,-2.64e-4 l 9.901674,-9.901667 c 1.286506,-1.287465 1.856069,-3.126083 1.522728,-4.91532 l 3.447833,-3.487291 C 41.259154,56.335454 56.165004,54.357336 64.138651,43.943603 72.112225,33.529897 70.134099,18.624044 59.720374,10.650391 49.306573,2.6768266 34.400725,4.6549715 26.427158,15.068678 c -6.523348,8.519681 -6.523348,20.355247 0,28.874925 l -3.487282,3.487285 c -1.789245,-0.333351 -3.627879,0.236173 -4.915333,1.522746 l -9.862226,9.862217 c -2.1678138,2.145758 -2.1856986,5.642586 -0.03993,7.810384 0.013428,0.01188 0.026541,0.02685 0.03993,0.03994 z M 26.26936,29.584224 c 0,-10.457748 8.477726,-18.935504 18.935478,-18.935504 10.457746,0 18.935472,8.477756 18.935472,18.935504 0,10.45772 -8.477726,18.93547 -18.935472,18.93547 -10.445205,-0.0304 -18.905181,-8.490281 -18.935478,-18.93547 z" />
    </clipPath>
    <rect
       x="14.858865"
       y="74.969727"
       width="175.60477"
       height="195.19147"
       id="rect2532-5" />
  </defs>
  <g
     inkscape:label="Layer 1"
     inkscape:groupmode="layer"
     id="layer1">
    <g
       id="Icons"
       transform="matrix(0.29803434,0,0,0.29803434,24.007068,2.2313285)"
       style="fill:#ff5146;fill-opacity:1;fill-rule:evenodd;stroke:none;stroke-opacity:1">
      <path
         id="path1043"
         style="fill:#ff5146;fill-opacity:1;fill-rule:evenodd;stroke:none;stroke-width:1.12643;stroke-opacity:1"
         d="M 149.56055 15.191406 C 140.63484 15.191406 125.06245 18.007723 121.05078 36.861328 C 119.76744 43.141958 119.15432 49.541228 119.22461 55.951172 C 119.1399 62.063514 119.06827 67.340947 116.75391 74.285156 C 112.49094 87.071139 106.0022 91.857287 105.93945 91.902344 C 105.90352 91.928026 105.8686 91.95659 105.83594 91.986328 C 105.37489 92.404684 105.34141 93.11719 105.75977 93.578125 L 108.74023 96.857422 C 111.70364 100.10661 116.28245 101.34324 120.47852 100.02734 C 124.7612 98.679571 129.43731 99.742229 132.7168 102.80859 C 137.41018 107.18916 144.22568 108.43707 150.16602 106.00195 L 151.17578 105.58594 C 154.84456 104.08204 159.01033 104.41167 162.39648 106.47461 L 169.42773 110.77344 C 169.60458 110.88135 169.80836 110.93739 170.01562 110.9375 C 170.48095 110.9375 170.89857 110.65276 171.06641 110.21875 C 177.28114 94.665807 180.51584 78.082407 180.60156 61.333984 C 180.60156 38.366773 171.00336 15.191406 149.56055 15.191406 z M 149.56055 17.445312 C 172.2849 17.445313 178.34882 45.03298 178.34961 61.333984 C 178.27335 77.350791 175.25525 93.217657 169.44727 108.14453 L 163.57227 104.55273 C 161.26185 103.1438 158.60652 102.39803 155.90039 102.40039 C 153.98546 102.39938 152.08956 102.77405 150.31836 103.50195 L 149.30664 103.91797 C 144.18263 106.0191 138.30597 104.94334 134.25781 101.16406 C 130.3838 97.542368 124.85946 96.287149 119.80078 97.878906 C 116.44312 98.931554 112.77922 97.94182 110.4082 95.341797 L 108.21875 92.935547 C 110.31537 91.049792 115.32578 85.689773 118.88867 74.998047 C 121.31432 67.722217 121.39493 62.018128 121.47852 55.980469 C 121.39967 49.717411 121.99411 43.463671 123.25391 37.328125 C 126.93463 20.027189 141.31576 17.445312 149.56055 17.445312 z M 137.95898 37.720703 C 135.47059 37.720703 133.45313 39.738168 133.45312 42.226562 C 133.45312 44.714957 135.47059 46.732422 137.95898 46.732422 C 140.44738 46.732422 142.46484 44.714957 142.46484 42.226562 C 142.46484 39.738168 140.44738 37.720703 137.95898 37.720703 z M 158.23438 37.720703 C 155.74598 37.720703 153.72852 39.738168 153.72852 42.226562 C 153.72852 44.714957 155.74598 46.732422 158.23438 46.732422 C 160.72277 46.732422 162.74023 44.714957 162.74023 42.226562 C 162.74023 39.738168 160.72277 37.720703 158.23438 37.720703 z M 137.95898 39.972656 C 139.20324 39.972656 140.21094 40.982309 140.21094 42.226562 C 140.21094 43.470816 139.20324 44.478516 137.95898 44.478516 C 136.71473 44.478516 135.70508 43.470816 135.70508 42.226562 C 135.70654 40.982985 136.71541 39.974121 137.95898 39.972656 z M 158.23438 39.972656 C 159.47863 39.972656 160.48828 40.982309 160.48828 42.226562 C 160.48828 43.470816 159.47863 44.478516 158.23438 44.478516 C 156.99012 44.478516 155.98242 43.470816 155.98242 42.226562 C 155.98389 40.982985 156.9908 39.974121 158.23438 39.972656 z M 148.09766 51.238281 C 145.11161 51.238281 142.68945 54.263446 142.68945 57.996094 C 142.68945 61.728742 145.11149 64.753906 148.09766 64.753906 C 151.08382 64.753906 153.50391 61.728742 153.50391 57.996094 C 153.50391 54.263446 151.08371 51.238281 148.09766 51.238281 z M 148.09766 53.490234 C 149.80735 53.490234 151.25 55.55377 151.25 57.996094 C 151.25 60.438417 149.80724 62.501953 148.09766 62.501953 C 146.38807 62.501953 144.94336 60.438417 144.94336 57.996094 C 144.94336 55.55377 146.38796 53.490234 148.09766 53.490234 z "
         transform="matrix(0.88776123,0,0,0.88776123,-80.551349,-7.4868168)" />
    </g>
    <text
       xml:space="preserve"
       transform="matrix(0.26458333,0,0,0.26458333,3.5809416,-23.41439)"
       id="text2530"
       style="font-style:normal;font-weight:normal;font-size:133.333px;line-height:1.25;font-family:sans-serif;white-space:pre;shape-inside:url(#rect2532);fill:#1f9eea;fill-opacity:1;stroke:none"><tspan
         x="14.859375"
         y="196.61248"
         id="tspan26991"><tspan
           style="font-family:'Times New Roman';-inkscape-font-specification:'Times New Roman, '"
           id="tspan26989">4</tspan></tspan></text>
    <text
       xml:space="preserve"
       transform="matrix(0.26458333,0,0,0.26458333,47.277786,-23.41439)"
       id="text2530-8"
       style="font-style:normal;font-weight:normal;font-size:133.333px;line-height:1.25;font-family:sans-serif;white-space:pre;shape-inside:url(#rect2532-5);fill:#08c69c;fill-opacity:1;stroke:none"><tspan
         x="14.859375"
         y="196.61248"
         id="tspan26995"><tspan
           style="font-family:'Times New Roman';-inkscape-font-specification:'Times New Roman, '"
           id="tspan26993">4</tspan></tspan></text>
    <text
       xml:space="preserve"
       transform="matrix(0.26458333,0,0,0.26458333,-13.89009,-21.964689)"
       id="text10330"
       style="font-style:normal;font-weight:normal;font-size:40px;line-height:1.25;font-family:sans-serif;text-align:center;white-space:pre;shape-inside:url(#rect10332);fill:#000000;fill-opacity:1;stroke:none"
       x="154.99023"
       y="0"><tspan
         x="132.06152"
         y="245.86821"
         id="tspan26999"><tspan
           style="font-family:'Times New Roman';-inkscape-font-specification:'Times New Roman, '"
           id="tspan26997">OOPS! 
</tspan></tspan><tspan
         x="64.854492"
         y="296.85659"
         id="tspan27003"><tspan
           style="font-family:'Times New Roman';-inkscape-font-specification:'Times New Roman, '"
           id="tspan27001">Page Not Found</tspan></tspan></text>
  </g>
</svg>
