<?xml version="1.0" encoding="utf-8"?>
<!-- Generator: Adobe Illustrator 19.1.0, SVG Export Plug-In . SVG Version: 6.00 Build 0)  -->
<!DOCTYPE svg PUBLIC "-//W3C//DTD SVG 1.1//EN" "http://www.w3.org/Graphics/SVG/1.1/DTD/svg11.dtd">
<svg version="1.1" xmlns="http://www.w3.org/2000/svg" xmlns:xlink="http://www.w3.org/1999/xlink" x="0px" y="0px"
	 viewBox="0 0 247.7 283.3" style="enable-background:new 0 0 247.7 283.3;" xml:space="preserve">
<style type="text/css">
	.st0{fill:#EE7223;}
	.st1{fill:#70C1BD;}
	.st2{fill:#8F8E8E;}
	.st3{fill:#943C71;}
	.st4{fill:#9BAC4E;}
	.st5{fill:#A48E53;}
	.st6{fill:#C52F27;}
	.st7{fill-rule:evenodd;clip-rule:evenodd;fill:#FFFFFF;}
	.st8{fill:#FFFFFF;}
	.st9{fill:none;stroke:#FFFFFF;stroke-width:4;}
	.st10{enable-background:new    ;}
	.st11{clip-path:url(#SVGID_2_);}
	.st12{clip-path:url(#SVGID_4_);}
	.st13{fill:none;stroke:#FFFFFF;stroke-width:2;stroke-miterlimit:10;}
	.st14{fill:none;stroke:#FFFFFF;stroke-width:1.75;stroke-miterlimit:10;}
	.st15{fill:#FFFFFF;stroke:#EE7223;stroke-miterlimit:10;}
	.st16{fill:#EE7223;stroke:#EE7223;stroke-miterlimit:10;}
	.st17{fill:none;stroke:#FFFFFF;stroke-width:0.75;stroke-miterlimit:10;}
	.st18{fill:none;stroke:#FFFFFF;stroke-width:0.5;stroke-miterlimit:10;}
	.st19{fill:none;stroke:#FFFFFF;stroke-width:0.4754;stroke-miterlimit:10;}
	.st20{fill:#FFFFFF;stroke:#EE7223;stroke-width:0.6755;stroke-linejoin:round;stroke-miterlimit:10;}
	
		.st21{fill-rule:evenodd;clip-rule:evenodd;fill:#FFFFFF;stroke:#EE7223;stroke-width:0.5919;stroke-linejoin:round;stroke-miterlimit:10;}
	.st22{fill:#FFFFFF;stroke:#9BAC4E;stroke-width:0.6595;stroke-linejoin:round;stroke-miterlimit:10;}
	
		.st23{fill-rule:evenodd;clip-rule:evenodd;fill:#FFFFFF;stroke:#9BAC4E;stroke-width:0.5919;stroke-linejoin:round;stroke-miterlimit:10;}
	.st24{fill:none;stroke:#FFFFFF;stroke-miterlimit:10;}
	.st25{fill:none;stroke:#FFFFFF;stroke-width:3;stroke-linecap:round;stroke-linejoin:round;}
	.st26{fill:none;stroke:#FFFFFF;stroke-width:3;stroke-linecap:round;stroke-linejoin:round;stroke-dasharray:1,4;}
	.st27{fill:none;stroke:#FFFFFF;stroke-width:3;stroke-linecap:round;stroke-linejoin:round;stroke-dasharray:0.951,3.8039;}
	.st28{fill:none;stroke:#FFFFFF;stroke-width:3;stroke-linecap:round;stroke-linejoin:round;stroke-dasharray:1.2168,4.8673;}
	.st29{display:none;}
	.st30{fill:none;stroke:#FFFFFF;stroke-width:3;stroke-linecap:round;stroke-linejoin:round;stroke-dasharray:0.9829,3.9316;}
	.st31{fill:none;stroke:#FFFFFF;stroke-width:3;stroke-linecap:round;stroke-linejoin:round;stroke-dasharray:1.0455,4.1818;}
	.st32{fill:none;stroke:#FFFFFF;stroke-width:3;stroke-linecap:round;stroke-linejoin:round;stroke-dasharray:1.0687,4.2748;}
	.st33{fill:none;stroke:#FFFFFF;stroke-width:3;stroke-linecap:round;stroke-linejoin:round;stroke-dasharray:0.7778,3.1111;}
	.st34{fill:none;stroke:#FFFFFF;stroke-width:3;stroke-linecap:round;stroke-linejoin:round;stroke-dasharray:1.0714,4.2857;}
	.st35{fill:none;stroke:#FFFFFF;stroke-width:3;stroke-linecap:round;stroke-linejoin:round;stroke-dasharray:0.8519,3.4074;}
	.st36{fill:none;stroke:#FFFFFF;stroke-width:3;stroke-linecap:round;stroke-linejoin:round;stroke-dasharray:0.977,3.908;}
	.st37{fill:none;stroke:#FFFFFF;stroke-width:3;stroke-linecap:round;stroke-linejoin:round;stroke-dasharray:0.9635,3.8542;}
	.st38{fill:none;stroke:#FFFFFF;stroke-width:3;stroke-linecap:round;stroke-linejoin:round;stroke-dasharray:0.8571,3.4286;}
	.st39{fill:none;stroke:#FFFFFF;stroke-width:3;stroke-linecap:round;stroke-linejoin:round;stroke-dasharray:0.9205,3.6822;}
	.st40{fill:none;stroke:#FFFFFF;stroke-width:3;stroke-linecap:round;stroke-linejoin:round;stroke-dasharray:0.9273,3.7091;}
	.st41{clip-path:url(#SVGID_6_);}
	.st42{fill:none;}
	.st43{display:inline;fill-rule:evenodd;clip-rule:evenodd;fill:none;stroke:#000000;stroke-width:0.7277;stroke-miterlimit:10;}
	.st44{display:inline;}
</style>
<g id="Layer_1">
	<polygon class="st3" points="4.5,210.4 4.5,72.9 123.5,4.2 242.5,72.9 242.5,210.4 123.5,279.1 	"/>
	<g>
		<path class="st8" d="M152.2,53.5c-0.1-1.1-0.2-2.9,0.8-3.5c0,0,0,0,0,0c0.8-0.3,1.4-0.6,0.9-1.1l-11.9-3.6L122.9,48
			c0,0-2.2,0.3-2,3.7c0.1,1.9,0.7,2.8,1.2,3.2l-1.6,0.5c-0.4,0.5,0.1,0.8,0.9,1.1c0,0,0,0,0,0c1,0.6,1,2.4,0.8,3.5
			c-3.5,1-2.3,1.3-2.3,1.3l0.8,0.2c-0.5,0.5-1.1,1.4-1,3.2c0.2,3.4,2,3.7,2,3.7l12.6,4.1l19-4.6c0,0,1.3-0.3-2.3-1.3
			c-0.1-1.1-0.2-2.9,0.8-3.5c0,0,0,0,0,0c0.8-0.3,1.4-0.6,0.9-1.1l-0.8-0.2c0.6-0.3,1.4-1.2,1.5-3.4c0.1-1.5-0.3-2.5-0.8-3l1.6-0.4
			C154.4,54.9,155.7,54.5,152.2,53.5z M136.3,53.5l3.2-0.7l10.8-2.2l1.6-0.3c-0.5,0.9-0.5,2.2-0.4,3.1c0,0.2,0,0.4,0.1,0.5l-1.8,0.4
			l-13.6,3.4L136.3,53.5z M122.6,56.8l1.6,0.3l10.4,2.1l0.9,0.2l0,0l0,0l2.7,0.6l0.1,4.2l-14-3.5l-1.4-0.3c0-0.1,0-0.3,0.1-0.5
			C123.1,59,123.1,57.8,122.6,56.8z M122,51.6c0-0.9,0.1-1.6,0.5-1.9c0.2-0.2,0.5-0.3,0.6-0.3c0.1,0,0.2,0,0.2,0l8.3,2.7l4.1,1.3
			l-0.1,4.2l-11.6-3.2l-0.6-0.2c0,0-0.1,0-0.1,0C123.2,54.2,122,54.1,122,51.6z M134.4,70.7l-12.2-3.4c0,0-0.1,0-0.1,0
			c0,0-1.2-0.1-1.2-2.7c0-0.9,0.1-1.6,0.5-1.9c0.2-0.2,0.5-0.3,0.6-0.3c0.1,0,0.2,0,0.2,0l0,0l12.4,4L134.4,70.7z M150.4,66.4
			c0,0.2,0,0.4,0.1,0.5l-15.4,3.8l0.1-4.2l3.3-0.7L139,66l1.8-0.6l8.4-1.7l1.6-0.3C150.3,64.3,150.3,65.6,150.4,66.4z M151.3,60.7
			C151.2,60.7,151.2,60.7,151.3,60.7l-1.2,0.3l-11,3.1l-0.1-4.2l3.6-1.2l8.8-2.9c0,0,0.5-0.1,0.8,0.2c0.3,0.3,0.5,1,0.5,1.9
			C152.5,60.6,151.3,60.7,151.3,60.7z"/>
	</g>
	<path class="st8" d="M191.6,148.5c0-2.2,1.8-3.9,4-3.9c2.2,0,3.9,1.8,3.9,3.9c0,2.2-1.8,3.9-3.9,3.9
		C193.4,152.4,191.6,150.7,191.6,148.5z M209.1,152.2c-0.6-0.4-1.5-0.2-1.8,0.4l-2.6,4.3l-3.7-2.1c-1.7-1-2.5-1.5-5-1.5h-0.4h-0.4
		c-4.8,0.6-4,4.4-4,4.4l0.6,11.9l8.5-0.1l-0.3-11.8l4.5,2.1c0.2,0.1,0.4,0.2,0.7,0.2c0.5,0,0.9-0.2,1.1-0.6l3.3-5.4
		C209.9,153.4,209.7,152.6,209.1,152.2z M198.4,151.8c-0.3,0.3-0.6,0.5-1,0.6v0.6c0.3,0,0.7,0.1,1,0.2V151.8z M220.5,139.7h-23.1
		v4.9c0.3,0.2,0.7,0.4,1,0.6v-4.5h21.1v14.5h-10.2l-0.6,1h11.7V139.7z M204.7,156.1l0.6-1h-3.1l1.7,1H204.7z M212.8,146.3l-0.5-0.3
		l-3.2,5.6l0.5,0.3L212.8,146.3z"/>
	<g>
		<g>
			<path class="st8" d="M187,78.5l3.6,10.8l4.5-1.5L191.4,77L187,78.5z"/>
		</g>
		<g>
			<path class="st8" d="M192.1,76.1l-0.8-2.3l-6.7,2.2l0.8,2.3L192.1,76.1z"/>
		</g>
		<g>
			<path class="st8" d="M192.1,94.2c0.3,1,1.2,1.7,2.3,1.7c0.3,0,0.5,0,0.7-0.1c0.6-0.2,1.1-0.6,1.4-1.2c0.3-0.6,0.3-1.2,0.1-1.8
				l-1.4-4.2l-4.6,1.5L192.1,94.2z"/>
		</g>
		<g>
			<path class="st8" d="M200.8,97.7l-0.1-0.4c-0.3-0.9-1.2-1.5-2.4-1.5c-0.3,0-0.7,0.1-1,0.2l-8.8,2.6c-0.5-1.4-1.7-2.4-3.2-2.6
				l-1.8-5.5c-0.4-1.2,0.3-2.5,1.5-2.9l5-1.7l-1.4-4.4l-5,1.7c-1.8,0.6-3.2,1.8-4,3.5c-0.8,1.7-1,3.5-0.4,5.3l2,6.1
				c-0.4,0.6-0.6,1.3-0.6,2.1c0,0.8,0.3,1.6,0.7,2.3h-1.1v3.4h17.7v-3.4h-7.4L200.8,97.7z"/>
		</g>
	</g>
	<path class="st8" d="M75.3,78.5c1.5,0,4-0.8,5.4-1.4l4.7,6.2c1.4,1.4,3.6,1.4,4.9,0c1.4-1.4,1.4-3.6,0-4.9L84,74
		c1.2-1.9,1.5-4.1,1.5-5.7c0-5.6-4.6-10.2-10.2-10.2c-5.6,0-10.2,4.6-10.2,10.2C65.1,73.9,69.6,78.5,75.3,78.5z M75.3,61
		c4,0,7.2,3.2,7.2,7.2c0,4-3.2,7.2-7.2,7.2c-4,0-7.2-3.2-7.2-7.2C68,64.3,71.3,61,75.3,61z"/>
	<g>
		<defs>
			<circle id="SVGID_5_" cx="123.5" cy="141.7" r="98"/>
		</defs>
		<clipPath id="SVGID_2_">
			<use xlink:href="#SVGID_5_"  style="overflow:visible;"/>
		</clipPath>
		<g class="st11">
			<circle class="st8" cx="63.3" cy="142.9" r="11.5"/>
			<circle class="st8" cx="57.2" cy="174.9" r="7.4"/>
			<path class="st8" d="M86.7,212c2.3,0.4,9,1.6,14.2,2.3c5.2,0.7,9.7-2.5,10.7-5.1c1-2.6-1.9-7.3-0.7-8.8c1.2-1.5,5.1-5.8,3.7-9.5
				c-1.4-3.7-0.7-5.6-0.7-5.6s7.5-1.5,8.2-4.2c0.7-2.7-10.3-19.6-10.3-19.6s2.3-4.1,2.9-6.3c0.5-2.2,0-13.9-7.1-27.3
				c-7.1-13.4-23.4-18.2-45.1-15.4c-21.7,2.7-34.5,24.7-34.6,37.9c-0.1,26.2,18.5,38.3,18.7,47.7c0.4,17-18.8,32.4-18.8,32.4
				l71.7,7.3C99.5,237.8,81.5,224.3,86.7,212z M47.2,179c-0.5-1.3-0.8-2.8-0.8-4.3l-2.6-0.5l0.8-4l2.6,0.5c0.6-1.4,1.4-2.6,2.4-3.6
				l-1.4-2.2l3.4-2.2l1.4,2.2c1.3-0.5,2.8-0.8,4.3-0.8l0.5-2.6l4,0.8l-0.5,2.6c1.4,0.6,2.6,1.4,3.6,2.4l2.2-1.4l2.3,3.4l-2.2,1.4
				c0.5,1.3,0.8,2.8,0.8,4.3l2.6,0.5l-0.8,4l-2.6-0.5c-0.6,1.4-1.4,2.6-2.4,3.6l1.4,2.2l-3.4,2.3l-1.4-2.2c-1.3,0.5-2.8,0.8-4.3,0.8
				l-0.5,2.6l-4-0.8l0.5-2.6c-1.4-0.6-2.6-1.4-3.6-2.4l-2.2,1.4l-2.3-3.4L47.2,179z M84.1,141.4l-4,0.9c0.1,2.2-0.3,4.5-1.1,6.7
				l3.5,2.2l-3.4,5.4l-3.5-2.2c-1.6,1.7-3.4,3-5.5,3.9l0.9,4l-6.2,1.4l-0.9-4c-2.2,0.1-4.5-0.3-6.7-1.1l-2.2,3.5l-5.4-3.4l2.2-3.5
				c-1.7-1.6-3-3.5-3.9-5.5l-4,0.9l-1.4-6.2l4-0.9c-0.1-2.2,0.3-4.5,1.1-6.7l-3.5-2.2l3.4-5.4l3.5,2.2c1.6-1.7,3.4-3,5.5-3.9l-0.9-4
				l6.2-1.4l0.9,4c2.2-0.1,4.5,0.3,6.7,1.1l2.2-3.5l5.4,3.4l-2.2,3.5c1.7,1.6,3,3.5,3.9,5.5l4-0.9L84.1,141.4z"/>
		</g>
	</g>
	<path class="st8" d="M72.9,109.6l-2.4-20.2c-0.2-2.2,1.4-4.2,3.6-4.4c2.2-0.2,4.2,1.4,4.4,3.6c0,0.2,0,0.5,0,0.7L76,109.7
		L72.9,109.6z"/>
	<path class="st8" d="M97,114.6l20.6-39.3c1-2,3.4-2.7,5.4-1.7c2,1,2.7,3.4,1.7,5.4c-0.1,0.1-0.1,0.2-0.2,0.3l-23.8,37.4L97,114.6z"
		/>
	<path class="st8" d="M112.7,131.7l52.8-33.3c1.9-1.2,4.3-0.6,5.5,1.2c1.2,1.9,0.6,4.3-1.2,5.5c-0.1,0.1-0.2,0.1-0.3,0.2l-55.6,29.4
		L112.7,131.7z"/>
	<path class="st8" d="M117.4,153.6l64.6-2.7c2.2-0.1,4.1,1.6,4.2,3.8s-1.6,4.1-3.8,4.2c-0.1,0-0.2,0-0.3,0l-65.3-2.2L117.4,153.6z"
		/>
	<path class="st8" d="M124.9,182.5l18.7,7.3c2,0.9,3,3.2,2.1,5.3s-3.2,3-5.3,2.1c-0.2-0.1-0.4-0.2-0.6-0.3l-18-11.8L124.9,182.5z"/>
	<g>
		<g>
			<path class="st42" d="M177.1,201.8c0,0.2,0.2,0.4,0.4,0.4c0.2,0,0.4-0.2,0.4-0.4c0-0.4,0.3-0.6,0.6-0.6c0.4,0,0.6,0.3,0.6,0.6
				c0,0.1,0,0.2-0.1,0.3c-0.2-0.1-0.4-0.1-0.6-0.1c-0.2,0-0.4,0.2-0.4,0.4c0,0.2,0.2,0.4,0.4,0.4c0.5,0,0.8,0.4,0.8,0.8
				c0,0.5-0.4,0.8-0.8,0.8s-0.8-0.4-0.8-0.8c0-0.2-0.2-0.4-0.4-0.4s-0.4,0.2-0.4,0.4c0,0.9,0.7,1.6,1.6,1.6c0.9,0,1.6-0.7,1.6-1.6
				c0-0.4-0.2-0.8-0.4-1.1c0.1-0.2,0.2-0.5,0.2-0.7c0-0.8-0.6-1.4-1.4-1.4C177.8,200.4,177.1,201,177.1,201.8z"/>
			<path class="st42" d="M152,201.2h0.4v3.6c0,0.2,0.2,0.4,0.4,0.4s0.4-0.2,0.4-0.4v-4c0-0.2-0.2-0.4-0.4-0.4H152
				c-0.2,0-0.4,0.2-0.4,0.4C151.6,201,151.8,201.2,152,201.2z"/>
			<path class="st42" d="M164.3,194.5c0,0,0.1,0,0.2,0h2.1c0.2,0,0.4-0.2,0.4-0.4c0-0.2-0.2-0.4-0.4-0.4h-1.1l1.1-1.1c0,0,0,0,0,0
				c0.3-0.3,0.5-0.7,0.5-1.1c0-0.8-0.6-1.4-1.4-1.4s-1.4,0.6-1.4,1.4c0,0.2,0.2,0.4,0.4,0.4s0.4-0.2,0.4-0.4c0-0.4,0.3-0.6,0.6-0.6
				c0.4,0,0.6,0.3,0.6,0.6c0,0.2-0.1,0.4-0.2,0.5c0,0,0,0,0,0c0,0,0,0,0,0l-1.7,1.7c0,0-0.1,0.1-0.1,0.1c0,0.1,0,0.2,0,0.3
				C164.1,194.3,164.2,194.4,164.3,194.5z"/>
			<path class="st42" d="M173.2,218.7c3.8-2.2,6.6-5.9,7.5-10.5c-0.7,0.3-1.4,0.4-2.1,0.4c-3.2,0-5.8-2.6-5.8-5.8s2.6-5.8,5.8-5.8
				c0,0,0,0,0.1,0c-1.8-2.8-4.4-5-7.5-6.2c0.1,0.5,0.2,0.9,0.2,1.4c0,3.2-2.6,5.8-5.8,5.8c-3.2,0-5.8-2.6-5.8-5.8
				c0-0.5,0.1-1,0.2-1.4c-3.1,1.2-5.7,3.3-7.5,6.1c0.1,0,0.2,0,0.4,0c3.2,0,5.8,2.6,5.8,5.8c0,3.2-2.6,5.8-5.8,5.8
				c-0.9,0-1.8-0.2-2.6-0.6c0.8,4.7,3.7,8.7,7.7,10.9 M165.6,205.9 M158.5,207.2l-0.6-0.6c-0.2-0.2-0.2-0.4,0-0.6
				c0.2-0.2,0.4-0.2,0.6,0l0.6,0.6c0.2,0.2,0.2,0.4,0,0.6c-0.1,0.1-0.2,0.1-0.3,0.1C158.7,207.3,158.6,207.3,158.5,207.2z
				 M160.3,208.5c-0.1,0.1-0.2,0.1-0.3,0.1c-0.1,0-0.2,0-0.3-0.1l-0.6-0.6c-0.2-0.2-0.2-0.4,0-0.6c0.2-0.2,0.4-0.2,0.6,0l0.6,0.6
				C160.5,208.1,160.5,208.3,160.3,208.5z M166,204.6c0,0.2-0.2,0.4-0.4,0.4c-0.2,0-0.4-0.2-0.4-0.4v-0.8c0-0.2,0.2-0.4,0.4-0.4
				c0.2,0,0.4,0.2,0.4,0.4V204.6z M166,202.6c0,0.2-0.2,0.4-0.4,0.4c-0.2,0-0.4-0.2-0.4-0.4v-1.2c0-0.2,0.2-0.4,0.4-0.4
				c0.2,0,0.4,0.2,0.4,0.4V202.6z M166,200.3c0,0.2-0.2,0.4-0.4,0.4c-0.2,0-0.4-0.2-0.4-0.4v-0.8c0-0.2,0.2-0.4,0.4-0.4
				c0.2,0,0.4,0.2,0.4,0.4V200.3z M171.5,208.2l-0.6,0.6c-0.1,0.1-0.2,0.1-0.3,0.1c-0.1,0-0.2,0-0.3-0.1c-0.2-0.2-0.2-0.4,0-0.6
				l0.6-0.6c0.2-0.2,0.4-0.2,0.6,0C171.7,207.8,171.7,208,171.5,208.2z M173,206.7l-0.6,0.6c-0.1,0.1-0.2,0.1-0.3,0.1
				s-0.2,0-0.3-0.1c-0.2-0.2-0.2-0.4,0-0.6l0.6-0.6c0.2-0.2,0.4-0.2,0.6,0C173.2,206.3,173.2,206.5,173,206.7z"/>
			<path class="st8" d="M165.6,199.1c-0.2,0-0.4,0.2-0.4,0.4v0.8c0,0.2,0.2,0.4,0.4,0.4c0.2,0,0.4-0.2,0.4-0.4v-0.8
				C166,199.2,165.8,199.1,165.6,199.1z"/>
			<path class="st8" d="M165.6,201c-0.2,0-0.4,0.2-0.4,0.4v1.2c0,0.2,0.2,0.4,0.4,0.4c0.2,0,0.4-0.2,0.4-0.4v-1.2
				C166,201.2,165.8,201,165.6,201z"/>
			<path class="st8" d="M165.6,203.4c-0.2,0-0.4,0.2-0.4,0.4v0.8c0,0.2,0.2,0.4,0.4,0.4c0.2,0,0.4-0.2,0.4-0.4v-0.8
				C166,203.6,165.8,203.4,165.6,203.4z"/>
			<path class="st8" d="M159.1,206.7l-0.6-0.6c-0.2-0.2-0.4-0.2-0.6,0c-0.2,0.2-0.2,0.4,0,0.6l0.6,0.6c0.1,0.1,0.2,0.1,0.3,0.1
				c0.1,0,0.2,0,0.3-0.1C159.2,207.1,159.2,206.8,159.1,206.7z"/>
			<path class="st8" d="M159.7,207.3c-0.2-0.2-0.4-0.2-0.6,0c-0.2,0.2-0.2,0.4,0,0.6l0.6,0.6c0.1,0.1,0.2,0.1,0.3,0.1
				c0.1,0,0.2,0,0.3-0.1c0.2-0.2,0.2-0.4,0-0.6L159.7,207.3z"/>
			<path class="st8" d="M172.4,206.1l-0.6,0.6c-0.2,0.2-0.2,0.4,0,0.6c0.1,0.1,0.2,0.1,0.3,0.1s0.2,0,0.3-0.1l0.6-0.6
				c0.2-0.2,0.2-0.4,0-0.6C172.9,205.9,172.6,205.9,172.4,206.1z"/>
			<path class="st8" d="M170.9,207.6l-0.6,0.6c-0.2,0.2-0.2,0.4,0,0.6c0.1,0.1,0.2,0.1,0.3,0.1c0.1,0,0.2,0,0.3-0.1l0.6-0.6
				c0.2-0.2,0.2-0.4,0-0.6C171.3,207.5,171.1,207.5,170.9,207.6z"/>
		</g>
		<g>
			<g>
				<path class="st42" d="M166.5,192.6c0.3-0.3,0.5-0.7,0.5-1.1c0-0.8-0.6-1.4-1.4-1.4s-1.4,0.6-1.4,1.4c0,0.2,0.2,0.4,0.4,0.4
					s0.4-0.2,0.4-0.4c0-0.4,0.3-0.6,0.6-0.6c0.4,0,0.6,0.3,0.6,0.6c0,0.2-0.1,0.4-0.2,0.5c0,0,0,0,0,0c0,0,0,0,0,0l-1.7,1.7
					c0,0-0.1,0.1-0.1,0.1c0,0.1,0,0.2,0,0.3c0,0.1,0.1,0.2,0.2,0.2c0,0,0.1,0,0.2,0h2.1c0.2,0,0.4-0.2,0.4-0.4
					c0-0.2-0.2-0.4-0.4-0.4h-1.1L166.5,192.6C166.5,192.6,166.5,192.6,166.5,192.6z"/>
				<path class="st42" d="M151.6,200.8c0,0.2,0.2,0.4,0.4,0.4h0.4v3.6c0,0.2,0.2,0.4,0.4,0.4s0.4-0.2,0.4-0.4v-4
					c0-0.2-0.2-0.4-0.4-0.4H152C151.8,200.4,151.6,200.6,151.6,200.8z"/>
				<path class="st42" d="M162.3,215.2c0.8,0.6,2.2,0.9,3.3,0.9c1,0,2.5-0.3,3.2-0.9c2.1,0.6,3,1.9,3.1,4.2c0.8-0.4,1.3-0.8,1.3-0.8
					c3.8-2.2,6.6-5.9,7.5-10.5c-0.7,0.3-1.4,0.4-2.1,0.4c-3.2,0-5.8-2.6-5.8-5.8s2.6-5.8,5.8-5.8c0,0,0,0,0.1,0
					c-1.8-2.8-4.4-5-7.5-6.2c0.1,0.5,0.2,0.9,0.2,1.4c0,3.2-2.6,5.8-5.8,5.8c-3.2,0-5.8-2.6-5.8-5.8c0-0.5,0.1-1,0.2-1.4
					c-3.1,1.2-5.7,3.3-7.5,6.1c0.1,0,0.2,0,0.4,0c3.2,0,5.8,2.6,5.8,5.8c0,3.2-2.6,5.8-5.8,5.8c-0.9,0-1.8-0.2-2.6-0.6
					c0.8,4.7,3.7,8.7,7.7,10.9c0,0,0.4,0.3,1.2,0.6C159.2,217.1,160.2,215.8,162.3,215.2z"/>
				<path class="st42" d="M180,201.8c0-0.8-0.6-1.4-1.4-1.4c-0.8,0-1.4,0.6-1.4,1.4c0,0.2,0.2,0.4,0.4,0.4c0.2,0,0.4-0.2,0.4-0.4
					c0-0.4,0.3-0.6,0.6-0.6c0.4,0,0.6,0.3,0.6,0.6c0,0.1,0,0.2-0.1,0.3c-0.2-0.1-0.4-0.1-0.6-0.1c-0.2,0-0.4,0.2-0.4,0.4
					c0,0.2,0.2,0.4,0.4,0.4c0.5,0,0.8,0.4,0.8,0.8c0,0.5-0.4,0.8-0.8,0.8s-0.8-0.4-0.8-0.8c0-0.2-0.2-0.4-0.4-0.4s-0.4,0.2-0.4,0.4
					c0,0.9,0.7,1.6,1.6,1.6c0.9,0,1.6-0.7,1.6-1.6c0-0.4-0.2-0.8-0.4-1.1C179.9,202.3,180,202.1,180,201.8z"/>
				<path class="st8" d="M171.9,219.5c-0.1-2.3-1.1-3.7-3.1-4.2c-0.8,0.5-2.2,0.9-3.2,0.9c-1,0-2.5-0.3-3.3-0.9
					c-2.1,0.5-3.1,1.8-3.2,4.1c1.4,0.6,3.8,1.5,6.8,1.5C168.5,220.9,170.6,220.1,171.9,219.5z"/>
				<path class="st8" d="M184.4,202.8c0-2.8-2-5.2-4.7-5.7c0,0-0.1-0.1-0.1-0.1c-2-3.4-5.1-5.9-8.7-7.2c0,0,0,0,0,0
					c-0.9-2-2.9-3.4-5.3-3.4c-2.3,0-4.3,1.4-5.3,3.4c-3.7,1.3-6.9,3.8-8.9,7.2c-2.5,0.6-4.4,2.9-4.4,5.6c0,1.9,0.9,3.6,2.3,4.6
					c0,0,0,0,0,0c0.7,5.9,4.6,10.7,9.8,12.9c2,0.9,4.1,1.3,6.4,1.3c2.3,0,4.4-0.5,6.4-1.3c5.1-2.1,8.8-6.7,9.7-12.5c0,0,0,0,0,0
					C183.3,206.7,184.4,204.9,184.4,202.8z M180,201.8c0,0.3-0.1,0.5-0.2,0.7c0.3,0.3,0.4,0.7,0.4,1.1c0,0.9-0.7,1.6-1.6,1.6
					c-0.9,0-1.6-0.7-1.6-1.6c0-0.2,0.2-0.4,0.4-0.4s0.4,0.2,0.4,0.4c0,0.5,0.4,0.8,0.8,0.8s0.8-0.4,0.8-0.8c0-0.5-0.4-0.8-0.8-0.8
					c-0.2,0-0.4-0.2-0.4-0.4c0-0.2,0.2-0.4,0.4-0.4c0.2,0,0.4,0,0.6,0.1c0-0.1,0.1-0.2,0.1-0.3c0-0.4-0.3-0.6-0.6-0.6
					c-0.4,0-0.6,0.3-0.6,0.6c0,0.2-0.2,0.4-0.4,0.4c-0.2,0-0.4-0.2-0.4-0.4c0-0.8,0.6-1.4,1.4-1.4C179.4,200.4,180,201,180,201.8z
					 M164.1,193.9c0,0,0-0.1,0.1-0.1l1.7-1.7c0,0,0,0,0,0c0,0,0,0,0,0c0.1-0.1,0.2-0.3,0.2-0.5c0-0.4-0.3-0.6-0.6-0.6
					c-0.4,0-0.6,0.3-0.6,0.6c0,0.2-0.2,0.4-0.4,0.4s-0.4-0.2-0.4-0.4c0-0.8,0.6-1.4,1.4-1.4s1.4,0.6,1.4,1.4c0,0.4-0.2,0.8-0.5,1.1
					c0,0,0,0,0,0l-1.1,1.1h1.1c0.2,0,0.4,0.2,0.4,0.4c0,0.2-0.2,0.4-0.4,0.4h-2.1c-0.1,0-0.1,0-0.2,0c-0.1,0-0.2-0.1-0.2-0.2
					C164,194.1,164,194,164.1,193.9z M152,200.4h0.8c0.2,0,0.4,0.2,0.4,0.4v4c0,0.2-0.2,0.4-0.4,0.4s-0.4-0.2-0.4-0.4v-3.6H152
					c-0.2,0-0.4-0.2-0.4-0.4C151.6,200.6,151.8,200.4,152,200.4z M173.2,218.7c0,0-0.5,0.3-1.3,0.8c-1.3,0.6-3.4,1.4-6,1.4
					c-2.9,0-5.4-0.9-6.8-1.5c-0.8-0.3-1.2-0.6-1.2-0.6c-4-2.2-6.9-6.2-7.7-10.9c0.8,0.4,1.7,0.6,2.6,0.6c3.2,0,5.8-2.6,5.8-5.8
					c0-3.2-2.6-5.8-5.8-5.8c-0.1,0-0.2,0-0.4,0c1.8-2.8,4.4-4.9,7.5-6.1c-0.1,0.5-0.2,0.9-0.2,1.4c0,3.2,2.6,5.8,5.8,5.8
					c3.2,0,5.8-2.6,5.8-5.8c0-0.5-0.1-1-0.2-1.4c3.1,1.2,5.7,3.4,7.5,6.2c0,0,0,0-0.1,0c-3.2,0-5.8,2.6-5.8,5.8s2.6,5.8,5.8,5.8
					c0.8,0,1.5-0.1,2.1-0.4C179.8,212.8,177,216.6,173.2,218.7z"/>
			</g>
			<path class="st8" d="M165.5,205.1c-2.6,0-4.7,2.1-4.7,4.7c0,1.6,0.8,3,2,3.8c0.8,0.6,1.7,0.9,2.8,0.9c1,0,2-0.3,2.7-0.9
				c1.2-0.9,2-2.3,2-3.9C170.3,207.2,168.1,205.1,165.5,205.1z"/>
		</g>
	</g>
</g>
<g id="Layer_2" class="st29">
	<circle class="st43" cx="123.5" cy="141.7" r="98"/>
</g>
</svg>
