<?xml version="1.0" encoding="utf-8"?>
<!-- Generator: Adobe Illustrator 19.1.0, SVG Export Plug-In . SVG Version: 6.00 Build 0)  -->
<!DOCTYPE svg PUBLIC "-//W3C//DTD SVG 1.1//EN" "http://www.w3.org/Graphics/SVG/1.1/DTD/svg11.dtd">
<svg version="1.1" xmlns="http://www.w3.org/2000/svg" xmlns:xlink="http://www.w3.org/1999/xlink" x="0px" y="0px"
	 viewBox="0 0 247.7 281.7" style="enable-background:new 0 0 247.7 281.7;" xml:space="preserve">
<style type="text/css">
	.st0{fill:#70C1BD;}
	.st1{fill:#FFFFFF;}
	.st2{fill:#EE7223;}
	.st3{fill:#8F8E8E;}
	.st4{fill:#943C71;}
	.st5{fill:#9BAC4E;}
	.st6{fill:#A48E53;}
	.st7{fill:#C52F27;}
	.st8{fill-rule:evenodd;clip-rule:evenodd;fill:#FFFFFF;}
	.st9{fill:none;stroke:#FFFFFF;stroke-width:4;}
	.st10{enable-background:new    ;}
	.st11{clip-path:url(#SVGID_2_);}
	.st12{clip-path:url(#SVGID_4_);}
	.st13{fill:none;stroke:#FFFFFF;stroke-width:2;stroke-miterlimit:10;}
	.st14{fill:none;stroke:#FFFFFF;stroke-width:1.75;stroke-miterlimit:10;}
	.st15{fill:#FFFFFF;stroke:#EE7223;stroke-miterlimit:10;}
	.st16{fill:#EE7223;stroke:#EE7223;stroke-miterlimit:10;}
	.st17{fill:none;stroke:#FFFFFF;stroke-width:0.75;stroke-miterlimit:10;}
	.st18{fill:none;stroke:#FFFFFF;stroke-width:0.5;stroke-miterlimit:10;}
	.st19{fill:none;stroke:#FFFFFF;stroke-width:0.4754;stroke-miterlimit:10;}
	.st20{fill:#FFFFFF;stroke:#EE7223;stroke-width:0.6755;stroke-linejoin:round;stroke-miterlimit:10;}
	
		.st21{fill-rule:evenodd;clip-rule:evenodd;fill:#FFFFFF;stroke:#EE7223;stroke-width:0.5919;stroke-linejoin:round;stroke-miterlimit:10;}
	.st22{fill:#FFFFFF;stroke:#9BAC4E;stroke-width:0.6595;stroke-linejoin:round;stroke-miterlimit:10;}
	
		.st23{fill-rule:evenodd;clip-rule:evenodd;fill:#FFFFFF;stroke:#9BAC4E;stroke-width:0.5919;stroke-linejoin:round;stroke-miterlimit:10;}
	.st24{fill:none;stroke:#FFFFFF;stroke-miterlimit:10;}
	.st25{fill:none;stroke:#FFFFFF;stroke-width:3;stroke-linecap:round;stroke-linejoin:round;}
	.st26{fill:none;stroke:#FFFFFF;stroke-width:3;stroke-linecap:round;stroke-linejoin:round;stroke-dasharray:1,4;}
	.st27{fill:none;stroke:#FFFFFF;stroke-width:3;stroke-linecap:round;stroke-linejoin:round;stroke-dasharray:0.951,3.8039;}
	.st28{fill:none;stroke:#FFFFFF;stroke-width:3;stroke-linecap:round;stroke-linejoin:round;stroke-dasharray:1.2168,4.8673;}
	.st29{display:none;}
	.st30{fill:none;stroke:#FFFFFF;stroke-width:3;stroke-linecap:round;stroke-linejoin:round;stroke-dasharray:0.9829,3.9316;}
	.st31{fill:none;stroke:#FFFFFF;stroke-width:3;stroke-linecap:round;stroke-linejoin:round;stroke-dasharray:1.0455,4.1818;}
	.st32{fill:none;stroke:#FFFFFF;stroke-width:3;stroke-linecap:round;stroke-linejoin:round;stroke-dasharray:1.0687,4.2748;}
	.st33{fill:none;stroke:#FFFFFF;stroke-width:3;stroke-linecap:round;stroke-linejoin:round;stroke-dasharray:0.7778,3.1111;}
	.st34{fill:none;stroke:#FFFFFF;stroke-width:3;stroke-linecap:round;stroke-linejoin:round;stroke-dasharray:1.0714,4.2857;}
	.st35{fill:none;stroke:#FFFFFF;stroke-width:3;stroke-linecap:round;stroke-linejoin:round;stroke-dasharray:0.8519,3.4074;}
	.st36{fill:none;stroke:#FFFFFF;stroke-width:3;stroke-linecap:round;stroke-linejoin:round;stroke-dasharray:0.977,3.908;}
	.st37{fill:none;stroke:#FFFFFF;stroke-width:3;stroke-linecap:round;stroke-linejoin:round;stroke-dasharray:0.9635,3.8542;}
	.st38{fill:none;stroke:#FFFFFF;stroke-width:3;stroke-linecap:round;stroke-linejoin:round;stroke-dasharray:0.8571,3.4286;}
	.st39{fill:none;stroke:#FFFFFF;stroke-width:3;stroke-linecap:round;stroke-linejoin:round;stroke-dasharray:0.9205,3.6822;}
	.st40{fill:none;stroke:#FFFFFF;stroke-width:3;stroke-linecap:round;stroke-linejoin:round;stroke-dasharray:0.9273,3.7091;}
	.st41{clip-path:url(#SVGID_6_);}
	.st42{fill:none;}
	.st43{clip-path:url(#SVGID_8_);}
	.st44{display:inline;fill-rule:evenodd;clip-rule:evenodd;fill:none;stroke:#000000;stroke-width:0.7277;stroke-miterlimit:10;}
	.st45{display:inline;}
</style>
<g id="Layer_1">
	<polygon class="st0" points="5.1,209.6 5.1,72.2 124.2,3.5 243.2,72.2 243.2,209.6 124.2,278.3 	"/>
	<ellipse class="st1" cx="124.2" cy="128.2" rx="19" ry="6.5"/>
	<g id="tcYZkQ.tif_6_">
		<g>
			<g>
				<path class="st1" d="M105.8,108.2c-0.9,0-1.6-0.5-1.9-1.4c-0.3,0.9-0.9,1.4-1.9,1.4l-0.1,0c-0.7,0-1.8-0.4-1.8-2.3
					c0.1-3.9,0.1-7.8,0.2-11.6c-0.2,0.3-0.6,0.5-1.1,0.5c-0.1,0-0.1,0-0.2,0c-1,0-1.8-0.7-1.9-1.8c-0.1-0.9,0-1.7,0-2.4
					c0.1-1.5,0.5-2.9,1.2-4.1c1.1-2,3.1-3.1,5.4-3.1c0.3,0,0.7,0,1,0.1c2.9,0.4,4.8,2.2,5.5,5.4c0.2,1,0.3,2.1,0.3,3.1
					c0,0.3,0,0.6,0,0.8c0,0.9-0.5,1.6-1.3,1.9c-0.2,0.1-0.4,0.1-0.6,0.1c-0.6,0-1-0.3-1.3-0.7c0,2,0.1,10.1,0.2,12.1
					c0,1.2-0.6,1.9-1.7,2C105.9,108.2,105.9,108.2,105.8,108.2z"/>
				<path class="st0" d="M103.9,84c0.3,0,0.6,0,0.9,0.1c3.3,0.4,4.6,2.8,5.1,5c0.3,1.3,0.3,2.6,0.3,3.9c0,0.7-0.3,1.2-1,1.4
					c-0.1,0-0.3,0.1-0.4,0.1c-0.6,0-1.1-0.5-1.1-1.2c-0.1-1.2-0.1-2.5-0.3-3.7c0-0.4-0.2-0.8-0.4-1.1c0,0-0.1,0-0.1,0
					c0,1.7,0,3.4,0,5.1c0.1,4.3,0.1,8.5,0.2,12.8c0,0.9-0.4,1.4-1.2,1.5c-0.1,0-0.1,0-0.2,0c-0.8,0-1.3-0.4-1.4-1.3
					c-0.1-0.3-0.1-0.6-0.1-0.9c-0.1-2.8-0.1-5.6-0.2-8.4c0-0.2,0-0.4,0-0.5c-0.1,0-0.1,0-0.2,0c-0.1,0.2-0.2,0.4-0.2,0.6
					c0,1.6,0,3.1-0.1,4.7c0,1.4-0.1,2.8-0.1,4.3c0,1.1-0.6,1.7-1.5,1.7c0,0-0.1,0-0.1,0c-0.9,0-1.3-0.6-1.3-1.8
					c0.1-4.7,0.1-9.4,0.2-14c0-1,0-2.1,0-3.1c-0.1,0-0.2,0-0.2,0c-0.1,0.8-0.3,1.6-0.4,2.4c-0.1,0.6,0,1.2,0,1.7
					c0,0.9-0.3,1.3-1,1.4c0,0-0.1,0-0.1,0c-0.7,0-1.3-0.5-1.4-1.3c0-0.8-0.1-1.5,0-2.3c0.1-1.4,0.5-2.7,1.2-3.9
					C99.9,85,101.8,84,103.9,84 M103.9,83c-2.5,0-4.7,1.2-5.9,3.3c-0.7,1.3-1.2,2.7-1.3,4.3c-0.1,0.7-0.1,1.5,0,2.4
					c0.1,1.3,1.1,2.2,2.4,2.2c0.1,0,0.1,0,0.2,0c0.2,0,0.3,0,0.5-0.1c0,3.6-0.1,7.1-0.2,10.7c0,2.5,1.7,2.8,2.3,2.8
					c0.1,0,0.1,0,0.2,0c0.8,0,1.4-0.3,1.9-0.8c0.4,0.5,1.1,0.8,1.9,0.8c0.1,0,0.2,0,0.3,0c1.3-0.1,2.1-1.1,2.1-2.5
					c0-2-0.1-4-0.1-6.1c0-1.7,0-3.3-0.1-5c0.2,0.1,0.5,0.2,0.8,0.2c0.2,0,0.5,0,0.7-0.1c1.1-0.3,1.7-1.2,1.7-2.4c0-0.3,0-0.5,0-0.8
					c0-1.1-0.1-2.2-0.3-3.2c-0.8-3.4-2.8-5.4-5.9-5.8C104.6,83,104.2,83,103.9,83L103.9,83z"/>
			</g>
			<g>
				<path class="st1" d="M103.9,83.4c-0.8,0-1.6-0.3-2.1-0.9c-0.6-0.6-0.9-1.3-0.9-2.2c0-1.7,1.3-3,3-3c0.8,0,1.6,0.3,2.2,0.9
					c0.6,0.6,0.9,1.3,0.9,2.1C106.9,82,105.5,83.4,103.9,83.4L103.9,83.4z"/>
				<path class="st0" d="M103.9,77.8c1.4,0,2.5,1.1,2.5,2.5c0,1.4-1.2,2.5-2.5,2.5c0,0,0,0,0,0c-1.4,0-2.5-1.2-2.5-2.6
					C101.4,78.9,102.5,77.9,103.9,77.8C103.9,77.8,103.9,77.8,103.9,77.8 M103.9,76.8L103.9,76.8L103.9,76.8c-1.9,0-3.5,1.5-3.5,3.5
					c0,0.9,0.3,1.8,1,2.5c0.7,0.7,1.5,1,2.5,1.1c2,0,3.6-1.6,3.6-3.5c0-0.9-0.4-1.8-1-2.5C105.7,77.2,104.8,76.8,103.9,76.8
					L103.9,76.8z"/>
			</g>
		</g>
	</g>
	<g id="tcYZkQ.tif_8_">
		<g>
			<g>
				<path class="st1" d="M132.4,91c-0.8,0-1.4-0.4-1.6-1.1c-0.3,0.7-0.8,1.1-1.6,1.1l-0.1,0c-0.6,0-1.6-0.3-1.6-2.1
					c0-3.4,0.1-6.7,0.1-10.1c-0.2,0.2-0.5,0.3-0.9,0.3c-0.1,0-0.1,0-0.2,0c-0.9,0-1.6-0.7-1.7-1.6c0-0.8,0-1.5,0-2.1
					c0.1-1.3,0.5-2.6,1.1-3.6c1-1.7,2.8-2.7,4.8-2.7c0.3,0,0.6,0,0.9,0.1c2.6,0.3,4.2,1.9,4.9,4.8c0.2,0.9,0.2,1.9,0.3,2.8
					c0,0.2,0,0.5,0,0.7c0,0.8-0.4,1.4-1.2,1.7c-0.2,0.1-0.3,0.1-0.5,0.1c-0.4,0-0.8-0.2-1.1-0.5c0,1.7,0.1,8.7,0.1,10.5
					c0,1.1-0.6,1.7-1.5,1.8C132.5,91,132.5,91,132.4,91z"/>
				<path class="st0" d="M130.7,69.6c0.3,0,0.5,0,0.8,0.1c2.9,0.4,4,2.4,4.5,4.4c0.3,1.1,0.2,2.3,0.3,3.4c0,0.6-0.3,1-0.9,1.2
					c-0.1,0-0.3,0.1-0.4,0.1c-0.5,0-0.9-0.4-1-1c-0.1-1.1-0.1-2.2-0.2-3.2c0-0.3-0.2-0.7-0.3-1c0,0-0.1,0-0.1,0c0,1.5,0,3,0,4.5
					c0,3.8,0.1,7.5,0.2,11.3c0,0.8-0.4,1.3-1.1,1.3c-0.1,0-0.1,0-0.2,0c-0.7,0-1.1-0.4-1.3-1.1c-0.1-0.3-0.1-0.5-0.1-0.8
					c0-2.5-0.1-5-0.1-7.4c0-0.2,0-0.3,0-0.5c-0.1,0-0.1,0-0.2,0c0,0.2-0.1,0.3-0.1,0.5c0,1.4,0,2.7-0.1,4.1c0,1.2-0.1,2.5-0.1,3.7
					c0,1-0.5,1.5-1.3,1.5c0,0-0.1,0-0.1,0c-0.8,0-1.2-0.6-1.1-1.6c0.1-4.1,0.1-8.2,0.2-12.4c0-0.9,0-1.8,0-2.7c-0.1,0-0.1,0-0.2,0
					c-0.1,0.7-0.3,1.4-0.4,2.1c-0.1,0.5,0,1,0,1.5c0,0.8-0.2,1.2-0.9,1.2c0,0-0.1,0-0.1,0c-0.7,0-1.2-0.4-1.2-1.1c0-0.7,0-1.4,0-2
					c0.1-1.2,0.4-2.4,1-3.4C127.2,70.4,128.9,69.6,130.7,69.6 M130.7,68.6c-2.3,0-4.2,1.1-5.3,3c-0.7,1.1-1,2.4-1.2,3.9
					c-0.1,0.6-0.1,1.4,0,2.2c0.1,1.2,1,2.1,2.2,2.1c0.1,0,0.1,0,0.2,0c0.1,0,0.2,0,0.3-0.1c0,3.1-0.1,6.2-0.1,9.3
					c0,2.3,1.6,2.6,2.1,2.6c0,0,0.1,0,0.1,0c0.7,0,1.2-0.2,1.6-0.7c0.4,0.4,1,0.7,1.6,0.7c0.1,0,0.2,0,0.3,0c1.2-0.1,2-1,2-2.3
					c0-1.8,0-3.6-0.1-5.3c0-1.4,0-2.8-0.1-4.2c0.2,0.1,0.4,0.1,0.6,0.1c0.2,0,0.4,0,0.7-0.1c1-0.3,1.6-1.2,1.6-2.2
					c0-0.2,0-0.5,0-0.7c0-0.9-0.1-1.9-0.3-2.9c-0.9-3.8-3.4-4.9-5.3-5.2C131.4,68.6,131,68.6,130.7,68.6L130.7,68.6z"/>
			</g>
			<g>
				<path class="st1" d="M130.7,69.5c-0.7,0-1.4-0.3-1.9-0.8c-0.5-0.5-0.8-1.2-0.8-1.9c0-1.5,1.2-2.7,2.7-2.7c0.7,0,1.4,0.3,1.9,0.8
					c0.5,0.5,0.8,1.2,0.8,1.9C133.5,68.2,132.2,69.5,130.7,69.5L130.7,69.5z"/>
				<path class="st0" d="M130.7,64.5c1.2,0,2.2,1,2.2,2.2c0,1.2-1,2.2-2.2,2.2c0,0,0,0,0,0c-1.2,0-2.2-1-2.2-2.2
					C128.6,65.5,129.5,64.5,130.7,64.5C130.7,64.5,130.7,64.5,130.7,64.5 M130.7,63.5L130.7,63.5L130.7,63.5c-1.8,0-3.2,1.4-3.2,3.2
					c0,0.9,0.3,1.7,0.9,2.3c0.6,0.6,1.4,1,2.3,1c1.8,0,3.3-1.4,3.3-3.2c0-0.9-0.3-1.7-1-2.3C132.4,63.9,131.6,63.5,130.7,63.5
					L130.7,63.5z"/>
			</g>
		</g>
	</g>
	<g id="tcYZkQ.tif_9_">
		<g>
			<g>
				<path class="st1" d="M62.7,92.1c-0.7,0-1.1-0.3-1.4-0.8c-0.3,0.5-0.8,0.8-1.4,0.8l-0.1,0c-0.4,0-1.5-0.2-1.5-1.9
					c0-2.9,0.1-5.7,0.1-8.6c-0.2,0.1-0.5,0.2-0.7,0.2c0,0-0.1,0-0.1,0c-0.9,0-1.5-0.6-1.5-1.5c0-0.7,0-1.3,0-1.8
					c0.1-1.2,0.4-2.2,1-3.2c0.9-1.5,2.4-2.4,4.2-2.4c0.3,0,0.5,0,0.8,0c2.3,0.3,3.7,1.7,4.3,4.2c0.2,0.8,0.2,1.6,0.2,2.4l0,0.6
					c0,0.7-0.4,1.3-1.1,1.5c-0.2,0-0.3,0.1-0.5,0.1c-0.3,0-0.6-0.1-0.9-0.3c0,1.4,0.1,8.9,0.1,8.9c0,0.9-0.5,1.6-1.4,1.6
					C62.9,92.1,62.8,92.1,62.7,92.1z"/>
				<path class="st0" d="M61.3,73.5c0.2,0,0.5,0,0.7,0c2.5,0.3,3.5,2.1,3.9,3.8c0.2,1,0.2,2,0.2,2.9c0,0.5-0.3,0.9-0.8,1
					c-0.1,0-0.2,0.1-0.3,0.1c-0.5,0-0.8-0.3-0.8-0.9c-0.1-0.9-0.1-1.9-0.2-2.8c0-0.3-0.2-0.6-0.3-0.9c0,0,0,0-0.1,0
					c0,1.3,0,2.6,0,3.8c0,3.2,0.1,6.5,0.1,9.7c0,0.7-0.3,1.1-0.9,1.1c-0.1,0-0.1,0-0.1,0c-0.6,0-1-0.3-1.1-1c0-0.2-0.1-0.5-0.1-0.7
					c0-2.1-0.1-4.3-0.1-6.4c0-0.1,0-0.3,0-0.4c0,0-0.1,0-0.1,0c0,0.1-0.1,0.3-0.1,0.4c0,1.2,0,2.4,0,3.6c0,1.1-0.1,2.2-0.1,3.2
					c0,0.8-0.4,1.3-1.1,1.3c0,0-0.1,0-0.1,0c-0.7,0-1-0.5-1-1.4c0.1-3.6,0.1-7.1,0.1-10.7c0-0.8,0-1.6,0-2.4c-0.1,0-0.1,0-0.2,0
					c-0.1,0.6-0.2,1.2-0.3,1.8c0,0.4,0,0.9,0,1.3c0,0.7-0.2,1-0.8,1.1c0,0-0.1,0-0.1,0c-0.6,0-1-0.4-1-1c0-0.6,0-1.2,0-1.8
					c0.1-1,0.4-2.1,0.9-3C58.3,74.2,59.7,73.5,61.3,73.5 M61.3,72.5c-2,0-3.7,1-4.7,2.7c-0.6,1-0.9,2.1-1,3.4c0,0.6,0,1.2,0,1.9
					c0.1,1.1,0.9,1.9,2,1.9c0.1,0,0.1,0,0.2,0c0,0,0.1,0,0.1,0c0,2.6-0.1,5.2-0.1,7.9c0,1.7,1,2.3,1.9,2.4c0,0,0.1,0,0.1,0
					c0.6,0,1.1-0.2,1.4-0.5c0.4,0.3,0.8,0.5,1.4,0.5c0.1,0,0.2,0,0.2,0c1.1-0.1,1.8-0.9,1.8-2.2c0-1.5,0-3.1-0.1-4.6
					c0-1.2,0-2.3,0-3.5c0.1,0,0.2,0,0.4,0c0.2,0,0.4,0,0.6-0.1c0.9-0.3,1.5-1.1,1.5-2c0-0.2,0-0.4,0-0.6c0-0.8-0.1-1.7-0.2-2.5
					c-0.8-3.4-3-4.4-4.7-4.6C61.8,72.5,61.6,72.5,61.3,72.5L61.3,72.5z"/>
			</g>
			<g>
				<path class="st1" d="M61.3,73.1c-0.6,0-1.3-0.3-1.7-0.7c-0.5-0.5-0.7-1.1-0.7-1.7c0-1.3,1.1-2.4,2.4-2.4c0.7,0,1.3,0.2,1.7,0.7
					c0.5,0.5,0.7,1.1,0.7,1.7C63.7,72,62.6,73.1,61.3,73.1L61.3,73.1z"/>
				<path class="st0" d="M61.3,68.8c1.1,0,1.9,0.9,1.9,1.9c0,1-0.9,1.9-1.9,1.9c0,0,0,0,0,0c-1.1,0-1.9-0.9-1.9-1.9
					C59.4,69.6,60.2,68.8,61.3,68.8C61.3,68.8,61.3,68.8,61.3,68.8 M61.3,67.8L61.3,67.8L61.3,67.8c-1.6,0-2.9,1.3-2.9,2.9
					c0,0.8,0.3,1.5,0.8,2.1c0.5,0.6,1.3,0.9,2.1,0.9c1.6,0,2.9-1.3,3-2.9c0-0.8-0.3-1.5-0.9-2.1C62.8,68.1,62.1,67.8,61.3,67.8
					L61.3,67.8z"/>
			</g>
		</g>
	</g>
	<g id="tcYZkQ.tif_10_">
		<g>
			<g>
				<path class="st1" d="M107,69.9c-0.4,0-0.7-0.2-1-0.4c-0.2,0.3-0.6,0.4-1,0.4c-0.4,0-1.3-0.2-1.2-1.4l0.1-5.6
					c-0.1,0-0.2,0.1-0.3,0.1l-0.1,0c-0.7,0-1.2-0.5-1.2-1.2c0-0.5,0-0.9,0-1.3c0.1-0.8,0.3-1.6,0.7-2.2c0.6-1.1,1.7-1.7,3.1-1.7
					c0.2,0,0.4,0,0.5,0c1.6,0.2,2.7,1.2,3.1,3c0.1,0.6,0.1,1.1,0.2,1.7l0,0.4c0,0.6-0.3,1-0.9,1.2c-0.1,0-0.2,0.1-0.4,0.1
					c-0.2,0-0.3,0-0.4-0.1l0.1,5.8c0,0.7-0.4,1.2-1.1,1.3C107.1,69.9,107.1,69.9,107,69.9z"/>
				<path class="st0" d="M106,57c0.2,0,0.3,0,0.5,0c1.7,0.2,2.4,1.4,2.7,2.6c0.2,0.7,0.1,1.3,0.2,2c0,0.4-0.2,0.6-0.5,0.7
					c-0.1,0-0.2,0-0.2,0c-0.3,0-0.6-0.2-0.6-0.6c0-0.6-0.1-1.3-0.1-1.9c0-0.2-0.1-0.4-0.2-0.6c0,0,0,0,0,0c0,0.9,0,1.8,0,2.6
					c0,2.2,0.1,4.5,0.1,6.7c0,0.5-0.2,0.8-0.6,0.8c0,0-0.1,0-0.1,0c-0.4,0-0.7-0.2-0.8-0.7c0-0.2,0-0.3,0-0.5c0-1.5-0.1-2.9-0.1-4.4
					c0-0.1,0-0.2,0-0.3c0,0-0.1,0-0.1,0c0,0.1-0.1,0.2-0.1,0.3c0,0.8,0,1.6,0,2.4c0,0.7,0,1.5-0.1,2.2c0,0.6-0.3,0.9-0.8,0.9
					c0,0,0,0-0.1,0c-0.5,0-0.7-0.3-0.7-0.9c0-2.4,0.1-4.9,0.1-7.3c0-0.5,0-1.1,0-1.6c0,0-0.1,0-0.1,0c-0.1,0.4-0.2,0.8-0.2,1.3
					c0,0.3,0,0.6,0,0.9c0,0.5-0.1,0.7-0.5,0.7c0,0,0,0-0.1,0c-0.4,0-0.7-0.3-0.7-0.7c0-0.4,0-0.8,0-1.2c0.1-0.7,0.3-1.4,0.6-2
					C104,57.5,104.9,57,106,57 M106,56c-1.5,0-2.8,0.7-3.5,2c-0.4,0.7-0.7,1.6-0.7,2.5c0,0.4,0,0.8,0,1.3c0.1,0.9,0.7,1.6,1.6,1.6
					c0,1.7,0,3.4-0.1,5.1c0,1.4,0.9,1.9,1.6,1.9l0.1,0c0.4,0,0.7-0.1,1-0.3c0.3,0.2,0.6,0.3,1,0.3c0.1,0,0.1,0,0.2,0
					c0.9-0.1,1.6-0.8,1.5-1.8c0-1.1,0-2.1,0-3.2c0-0.7,0-1.4,0-2c0.1,0,0.3,0,0.4-0.1c0.8-0.2,1.3-0.9,1.2-1.7c0-0.1,0-0.3,0-0.4
					c0-0.6,0-1.2-0.2-1.8c-0.6-2.5-2.2-3.2-3.5-3.4C106.4,56,106.2,56,106,56L106,56z"/>
			</g>
			<g>
				<path class="st1" d="M106,56.9c-0.5,0-0.9-0.2-1.3-0.5c-0.3-0.3-0.5-0.8-0.5-1.3c0-1,0.8-1.8,1.8-1.8c0.5,0,1,0.2,1.3,0.5
					c0.3,0.3,0.5,0.8,0.5,1.3C107.9,56.1,107.1,56.9,106,56.9L106,56.9z"/>
				<path class="st0" d="M106,53.8c0.7,0,1.3,0.6,1.3,1.3c0,0.7-0.6,1.3-1.3,1.3c0,0,0,0,0,0c-0.7,0-1.3-0.6-1.3-1.3
					C104.8,54.4,105.3,53.8,106,53.8C106,53.8,106,53.8,106,53.8 M106,52.8L106,52.8L106,52.8c-1.3,0-2.3,1-2.3,2.3
					c0,0.6,0.2,1.2,0.7,1.7c0.4,0.4,1,0.7,1.6,0.7c1.3,0,2.3-1,2.3-2.3c0-0.6-0.2-1.2-0.7-1.6C107.3,53.1,106.7,52.8,106,52.8
					L106,52.8z"/>
			</g>
		</g>
	</g>
	<g id="tcYZkQ.tif_11_">
		<g>
			<g>
				<path class="st1" d="M161.1,68.6c-0.4,0-0.7-0.2-1-0.4c-0.2,0.3-0.6,0.4-1,0.4c-0.4,0-1.3-0.2-1.2-1.4c0-1.9,0.1-3.8,0.1-5.6
					c-0.1,0-0.2,0.1-0.3,0.1l-0.1,0c-0.7,0-1.2-0.5-1.2-1.2c0-0.5,0-0.9,0-1.3c0.1-0.8,0.3-1.6,0.7-2.2c0.6-1.1,1.7-1.7,3.1-1.7
					c0.2,0,0.4,0,0.5,0c1.6,0.2,2.7,1.2,3.1,3c0.1,0.6,0.1,1.1,0.2,1.7l0,0.4c0,0.6-0.3,1-0.9,1.2c-0.1,0-0.2,0.1-0.4,0.1
					c-0.2,0-0.3,0-0.4-0.1l0.1,5.8c0,0.7-0.4,1.2-1.1,1.3C161.2,68.6,161.1,68.6,161.1,68.6z"/>
				<path class="st0" d="M160.1,55.7c0.2,0,0.3,0,0.5,0c1.7,0.2,2.4,1.4,2.7,2.6c0.2,0.7,0.1,1.3,0.2,2c0,0.4-0.2,0.6-0.5,0.7
					c-0.1,0-0.2,0-0.2,0c-0.3,0-0.6-0.2-0.6-0.6c0-0.6-0.1-1.3-0.1-1.9c0-0.2-0.1-0.4-0.2-0.6c0,0,0,0,0,0c0,0.9,0,1.8,0,2.6
					c0,2.2,0.1,4.5,0.1,6.7c0,0.5-0.2,0.8-0.6,0.8c0,0-0.1,0-0.1,0c-0.4,0-0.7-0.2-0.8-0.7c0-0.2,0-0.3,0-0.5c0-1.5-0.1-2.9-0.1-4.4
					c0-0.1,0-0.2,0-0.3c0,0-0.1,0-0.1,0c0,0.1-0.1,0.2-0.1,0.3c0,0.8,0,1.6,0,2.4c0,0.7,0,1.5-0.1,2.2c0,0.6-0.3,0.9-0.8,0.9
					c0,0,0,0-0.1,0c-0.5,0-0.7-0.3-0.7-0.9c0-2.4,0.1-4.9,0.1-7.3c0-0.5,0-1.1,0-1.6c0,0-0.1,0-0.1,0c-0.1,0.4-0.2,0.8-0.2,1.3
					c0,0.3,0,0.6,0,0.9c0,0.5-0.1,0.7-0.5,0.7c0,0,0,0-0.1,0c-0.4,0-0.7-0.3-0.7-0.7c0-0.4,0-0.8,0-1.2c0.1-0.7,0.3-1.4,0.6-2
					C158,56.2,159,55.7,160.1,55.7 M160.1,54.7c-1.5,0-2.8,0.7-3.5,2c-0.4,0.7-0.7,1.6-0.7,2.5c0,0.4,0,0.8,0,1.3
					c0.1,0.9,0.7,1.6,1.6,1.6c0,1.7,0,3.4-0.1,5.1c0,1.4,0.9,1.9,1.6,1.9l0.1,0c0.4,0,0.7-0.1,1-0.3c0.3,0.2,0.6,0.3,1,0.3
					c0.1,0,0.1,0,0.2,0c0.9-0.1,1.6-0.8,1.5-1.8c0-1.1,0-2.1,0-3.2c0-0.7,0-1.4,0-2c0.1,0,0.3,0,0.4-0.1c0.8-0.2,1.3-0.9,1.2-1.7
					c0-0.1,0-0.3,0-0.4c0-0.6,0-1.2-0.2-1.8c-0.6-2.5-2.2-3.2-3.5-3.4C160.5,54.7,160.3,54.7,160.1,54.7L160.1,54.7z"/>
			</g>
			<g>
				<path class="st1" d="M160.1,55.6c-0.5,0-0.9-0.2-1.3-0.5c-0.3-0.3-0.5-0.8-0.5-1.3c0-1,0.8-1.8,1.8-1.8c0.5,0,1,0.2,1.3,0.5
					c0.3,0.3,0.5,0.8,0.5,1.3C161.9,54.8,161.1,55.6,160.1,55.6L160.1,55.6z"/>
				<path class="st0" d="M160.1,52.5c0.7,0,1.3,0.6,1.3,1.3c0,0.7-0.6,1.3-1.3,1.3c0,0,0,0,0,0c-0.7,0-1.3-0.6-1.3-1.3
					C158.8,53.1,159.4,52.5,160.1,52.5C160.1,52.5,160.1,52.5,160.1,52.5 M160.1,51.5L160.1,51.5L160.1,51.5c-1.3,0-2.3,1-2.3,2.3
					c0,0.6,0.2,1.2,0.7,1.7c0.4,0.4,1,0.7,1.6,0.7c1.3,0,2.3-1,2.3-2.3c0-0.6-0.2-1.2-0.7-1.6C161.3,51.7,160.7,51.5,160.1,51.5
					L160.1,51.5z"/>
			</g>
		</g>
	</g>
	<g>
		<polygon class="st1" points="125.1,127.2 199.1,177.6 196.2,181.7 123.9,128.8 		"/>
	</g>
	<g>
		<polygon class="st1" points="126.1,128 167.5,224.1 157.8,227.9 124.2,128.7 		"/>
	</g>
	<g>
		<polygon class="st1" points="111.8,182.7 124.2,127.6 126.1,128 114.9,183.3 		"/>
	</g>
	<g>
		<defs>
			<circle id="SVGID_7_" cx="123.7" cy="140.3" r="98"/>
		</defs>
		<clipPath id="SVGID_2_">
			<use xlink:href="#SVGID_7_"  style="overflow:visible;"/>
		</clipPath>
		<g id="tcYZkQ.tif" class="st11">
			<g>
				<g>
					<path class="st1" d="M168.4,266.5c-3.5,0-5.8-2-6.5-5.7c-0.3-1.3-0.3-2.7-0.3-3.9c-0.1-7.3-0.3-14.7-0.4-22l-0.2-13.4
						c0-0.5-0.1-1-0.1-1.5c0,0,0-0.1,0-0.1c0,0,0,0.1,0,0.1c-0.2,0.5-0.4,1-0.4,1.5c-0.1,3.3-0.1,6.5-0.1,9.8c0,3.3-0.1,6.5-0.1,9.8
						c-0.1,6.1-0.3,12.1-0.5,17.9c-0.2,4.9-2.6,7.5-6.8,7.5c-0.2,0-0.3,0-0.5,0c-4-0.2-6-2.9-6-8c0.3-19.6,0.6-39.2,0.8-58.9
						c0-3,0-6,0-8.9c0-1.2,0-2.4,0-3.6l0,0c-0.2,0.8-0.3,1.7-0.5,2.5c-0.4,2.3-0.9,4.7-1.2,7c-0.2,1.7-0.1,3.4-0.1,5.2
						c0,0.7,0,1.4,0.1,2.1c0,4.1-1.4,6.1-4.7,6.3c-0.2,0-0.4,0-0.6,0c-3.5,0-6.1-2.5-6.3-6c-0.2-3.7-0.2-6.9,0-9.7
						c0.5-6.1,2.2-11.7,5-16.6c4.4-7.7,12.3-12.2,21.5-12.2c1.3,0,2.6,0.1,3.9,0.3c11.5,1.5,18.9,8.7,21.8,21.4
						c1,4.2,1.1,8.6,1.3,12.8c0,1.2,0.1,2.3,0.1,3.5c0.1,3-1.5,5.3-4.5,6.2c-0.7,0.2-1.3,0.3-1.9,0.3c-2.9,0-5-2.2-5.1-5.4
						c-0.3-5.5-0.6-10.4-1.1-15.4c-0.1-1-0.4-1.9-0.8-2.9c0,1.6,0,3.2,0,4.9c0,4.8,0,9.7,0,14.6c0.1,9.4,0.2,18.8,0.4,28.2
						c0.1,8.5,0.2,16.9,0.3,25.4c0.1,4-2,6.5-5.5,6.8C169,266.5,168.7,266.5,168.4,266.5z"/>
					<path class="st0" d="M160.5,166.3c1.3,0,2.6,0.1,3.9,0.3c13.9,1.8,19.2,11.5,21.3,21c1.2,5.2,1.1,10.8,1.4,16.2
						c0.1,2.8-1.4,4.8-4.2,5.7c-0.6,0.2-1.2,0.3-1.8,0.3c-2.6,0-4.4-1.9-4.6-4.9c-0.3-5.1-0.6-10.3-1.1-15.4c-0.2-1.6-1-3.2-1.5-4.8
						c-0.1,0.1-0.3,0.1-0.4,0.2c0,7.1-0.1,14.1,0,21.2c0.2,17.9,0.5,35.7,0.7,53.6c0,3.8-1.8,6-5,6.3c-0.3,0-0.6,0-0.8,0
						c-3.2,0-5.3-1.8-6-5.3c-0.2-1.2-0.3-2.5-0.3-3.8c-0.2-11.8-0.4-23.6-0.6-35.4c0-0.8-0.1-1.5-0.2-2.3c-0.3-0.1-0.5-0.1-0.8-0.2
						c-0.2,0.8-0.7,1.6-0.7,2.4c-0.1,6.5-0.1,13.1-0.3,19.6c-0.1,6-0.3,11.9-0.5,17.9c-0.2,4.6-2.3,7-6.2,7c-0.2,0-0.3,0-0.5,0
						c-3.7-0.2-5.5-2.7-5.5-7.5c0.3-19.6,0.6-39.2,0.8-58.9c0.1-4.3,0-8.7,0-13c-0.3,0-0.7-0.1-1-0.1c-0.6,3.4-1.4,6.7-1.7,10.1
						c-0.3,2.4,0,4.9,0,7.3c0,3.9-1.2,5.6-4.2,5.8c-0.2,0-0.4,0-0.6,0c-3.1,0-5.5-2.1-5.7-5.5c-0.2-3.2-0.2-6.5,0-9.7
						c0.5-5.8,2-11.3,4.9-16.4C143.9,170.4,151.7,166.3,160.5,166.3 M160.5,165.3c-9.4,0-17.4,4.5-22,12.4c-2.8,5-4.5,10.6-5.1,16.8
						c-0.2,2.9-0.3,6.1,0,9.8c0.2,3.8,3,6.5,6.8,6.5c0.2,0,0.4,0,0.6,0c4.7-0.4,5.2-4.1,5.2-6.9c0-0.7,0-1.4-0.1-2.1
						c-0.1-1.8-0.1-3.4,0.1-5.1c0.2-1.3,0.4-2.7,0.6-4.1c0,2.3,0,4.7,0,7c-0.3,21-0.6,41.5-0.8,58.9c-0.1,6.8,3.5,8.4,6.5,8.6
						c0.2,0,0.3,0,0.5,0c4.5,0,7.1-2.9,7.3-8.1c0.2-6,0.4-11.9,0.5-17.9c0-0.6,0-1.3,0-1.9c0.1,5.9,0.2,11.8,0.3,17.8
						c0,1.2,0.1,2.6,0.3,4c0.8,4,3.3,6.1,7.1,6.1c0.3,0,0.6,0,0.9,0c3.9-0.3,6.1-3,6-7.4c-0.1-8.5-0.2-16.9-0.3-25.4
						c-0.1-9.2-0.3-18.8-0.4-28.2c-0.1-4.6,0-9.4,0-14c0.4,4.1,0.6,8.1,0.9,12.9c0.2,3.5,2.5,5.9,5.7,5.9c0.7,0,1.4-0.1,2.1-0.3
						c3.3-1,5.1-3.5,4.9-6.8c-0.1-1.2-0.1-2.3-0.1-3.5c-0.1-4.3-0.3-8.7-1.3-12.9c-3-13-10.5-20.3-22.2-21.8
						C163.2,165.4,161.8,165.3,160.5,165.3L160.5,165.3z"/>
				</g>
				<g>
					<path class="st1" d="M160.5,164.3c-3,0-5.8-1.2-7.8-3.3c-2.1-2.1-3.2-4.9-3.2-7.9c0.1-6.1,4.9-10.9,11-10.9
						c3.1,0,5.9,1.2,8,3.3c2.1,2.1,3.2,4.8,3.2,7.8C171.8,159.3,166.6,164.3,160.5,164.3L160.5,164.3z"/>
					<path class="st0" d="M160.6,142.7c5.9,0,10.7,4.7,10.7,10.5c0,5.8-4.9,10.5-10.7,10.5c0,0,0,0-0.1,0c-5.9,0-10.6-4.8-10.5-10.7
						C150.1,147.3,154.7,142.7,160.6,142.7C160.5,142.7,160.6,142.7,160.6,142.7 M160.6,141.7L160.6,141.7L160.6,141.7
						c-6.4,0-11.5,5-11.6,11.4c-0.1,3.1,1.1,6.1,3.3,8.3c2.2,2.2,5.1,3.5,8.2,3.5l0.1,0c6.4,0,11.7-5.3,11.7-11.6
						c0-3.1-1.2-6-3.4-8.2C166.6,142.9,163.7,141.7,160.6,141.7L160.6,141.7z"/>
				</g>
			</g>
		</g>
	</g>
	<g>
		<polygon class="st1" points="126,129 72.2,199.9 69.1,197.4 124.4,127.8 		"/>
	</g>
	<g>
		<polygon class="st1" points="125.3,129.4 43,138.3 42.8,136.7 125.1,127.4 		"/>
	</g>
	<g>
		<polygon class="st1" points="124.3,128.7 106.3,108.7 107,108 125.7,127.3 		"/>
	</g>
	<g>
		<polygon class="st1" points="124,127.9 130.1,91.2 130.8,91.3 126,128.1 		"/>
	</g>
	<g>
		<polygon class="st1" points="124,127.2 106.7,71.7 125.9,126.6 		"/>
	</g>
	<line class="st13" x1="125.3" y1="128.3" x2="164" y2="134.3"/>
	<g>
		<polygon class="st1" points="124.9,127 199.2,104.3 199.4,105 125.5,129 		"/>
	</g>
	<g>
		<polygon class="st1" points="124.5,127.5 159.7,69.3 126.2,128.5 		"/>
	</g>
	<g>
		<polygon class="st1" points="124.5,128.9 64.2,92.2 64.5,91.8 125.5,127.1 		"/>
	</g>
	<g id="tcYZkQ.tif_4_">
		<g>
			<g>
				<path class="st1" d="M170.1,136.5c-1.4,0-2.3-0.8-2.6-2.3c-0.1-0.5-0.1-1-0.1-1.4c0-0.2,0-0.5,0-0.7c0,0.5,0,0.9,0,1.4
					c-0.1,1.9-1,3-2.7,3l-0.2,0c-1.1-0.1-2.4-0.6-2.4-3.1c0.1-6.1,0.2-12.2,0.3-18.3c-0.1,0.7-0.6,1.5-1.9,1.6c-0.1,0-0.2,0-0.2,0
					c-1.4,0-2.4-1-2.5-2.4c-0.1-1.3-0.1-2.4,0-3.5c0.2-2.2,0.8-4.2,1.8-6c1.6-2.8,4.5-4.4,7.8-4.4c0.5,0,0.9,0,1.4,0.1
					c4.2,0.5,6.9,3.2,7.9,7.8c0.3,1.5,0.4,3.1,0.4,4.6c0,0.4,0,0.8,0,1.2c0.1,1.2-0.6,2.1-1.8,2.5c-0.3,0.1-0.5,0.1-0.8,0.1
					c-1.2,0-2-0.9-2.1-2.2c0-0.3,0-0.7-0.1-1c0,0.5,0,1,0,1.4c0,3.3,0.1,6.6,0.1,9.9c0,3,0.1,6,0.1,9c0,1.6-0.8,2.6-2.2,2.7
					C170.3,136.5,170.2,136.5,170.1,136.5z M162.3,112c0,0.2,0,0.5,0,0.7C162.3,112.7,162.3,112.2,162.3,112z"/>
				<path class="st0" d="M167.3,100.9c0.4,0,0.9,0,1.4,0.1c4.9,0.6,6.7,4.1,7.5,7.4c0.4,1.8,0.4,3.8,0.5,5.7c0,1-0.5,1.7-1.5,2
					c-0.2,0.1-0.4,0.1-0.6,0.1c-0.9,0-1.6-0.7-1.6-1.7c-0.1-1.8-0.2-3.6-0.4-5.4c-0.1-0.6-0.3-1.1-0.5-1.7c0,0-0.1,0-0.1,0.1
					c0,2.5,0,5,0,7.5c0.1,6.3,0.2,12.6,0.3,18.9c0,1.4-0.6,2.1-1.8,2.2c-0.1,0-0.2,0-0.3,0c-1.1,0-1.9-0.6-2.1-1.9
					c-0.1-0.4-0.1-0.9-0.1-1.3c-0.1-4.2-0.1-8.3-0.2-12.5c0-0.3,0-0.5-0.1-0.8c-0.1,0-0.2,0-0.3-0.1c-0.1,0.3-0.2,0.6-0.2,0.9
					c0,2.3,0,4.6-0.1,6.9c0,2.1-0.1,4.2-0.2,6.3c-0.1,1.6-0.8,2.5-2.2,2.5c-0.1,0-0.1,0-0.2,0c-1.3-0.1-1.9-0.9-1.9-2.6
					c0.1-6.9,0.2-13.8,0.3-20.7c0-1.5,0-3.1,0-4.6c-0.1,0-0.2,0-0.4,0c-0.2,1.2-0.5,2.4-0.6,3.5c-0.1,0.8,0,1.7,0,2.6
					c0,1.4-0.4,2-1.5,2c-0.1,0-0.1,0-0.2,0c-1.1,0-2-0.7-2-1.9c-0.1-1.1-0.1-2.3,0-3.4c0.2-2,0.7-4,1.7-5.8
					C161.4,102.3,164.2,100.9,167.3,100.9 M167.3,99.9c-3.6,0-6.6,1.7-8.3,4.7c-1,1.8-1.7,3.9-1.9,6.2c-0.1,1-0.1,2.2,0,3.5
					c0.1,1.7,1.3,2.9,3,2.9c0.1,0,0.2,0,0.3,0c0.4,0,0.9-0.1,1.3-0.4c-0.1,5.5-0.2,11.1-0.2,16.6c0,3.2,2,3.6,2.9,3.6
					c0.1,0,0.1,0,0.2,0c1.3,0,2.2-0.6,2.8-1.6c0.5,1,1.5,1.6,2.7,1.6c0.1,0,0.2,0,0.4,0c1.7-0.1,2.7-1.4,2.7-3.2c0-3-0.1-6-0.1-8.9
					c0-2.7-0.1-5.5-0.1-8.2c0.4,0.4,1,0.6,1.7,0.6c0.3,0,0.6,0,0.9-0.1c1.4-0.4,2.2-1.6,2.2-3c0-0.4,0-0.8,0-1.2
					c-0.1-1.5-0.1-3.1-0.5-4.7c-1.1-4.8-3.9-7.6-8.4-8.2C168.3,99.9,167.8,99.9,167.3,99.9L167.3,99.9z"/>
			</g>
			<g>
				<path class="st1" d="M167.3,100.7c-1.1,0-2.2-0.5-3-1.3c-0.8-0.8-1.2-1.9-1.2-3c0-2.3,1.9-4.1,4.2-4.1c1.1,0,2.2,0.4,3,1.2
					c0.8,0.8,1.2,1.9,1.2,3C171.6,98.8,169.6,100.7,167.3,100.7L167.3,100.7z"/>
				<path class="st0" d="M167.3,92.8c2.1,0,3.8,1.7,3.8,3.7c0,2-1.7,3.7-3.8,3.7c0,0,0,0,0,0c-2.1,0-3.7-1.7-3.7-3.8
					C163.6,94.4,165.2,92.8,167.3,92.8C167.3,92.8,167.3,92.8,167.3,92.8 M167.3,91.8L167.3,91.8L167.3,91.8c-2.6,0-4.7,2-4.7,4.6
					c0,1.3,0.5,2.5,1.3,3.4c0.9,0.9,2.1,1.4,3.3,1.4c2.6,0,4.8-2.1,4.8-4.7c0-1.3-0.5-2.4-1.4-3.3C169.8,92.3,168.6,91.8,167.3,91.8
					L167.3,91.8z"/>
			</g>
		</g>
	</g>
	<g id="tcYZkQ.tif_2_">
		<g>
			<g>
				<path class="st1" d="M115.6,187c-1.7,0-2.9-1-3.2-2.8c-0.1-0.6-0.1-1.3-0.2-1.8c0-2.5-0.1-4.9-0.1-7.4c0,0.1,0,0.1,0,0.2
					c-0.1,2.7-0.1,5.4-0.2,8.1c-0.1,2.3-1.3,3.7-3.3,3.7c-0.1,0-0.2,0-0.2,0c-1.4-0.1-3-0.8-3-3.9c0.1-8.9,0.3-17.9,0.4-26.8
					c0-1,0-2,0-3.1c-0.1,0.6-0.2,1.1-0.3,1.7c-0.1,0.8-0.1,1.5,0,2.3c0,0.3,0,0.6,0,1c0,1.3-0.2,3-2.4,3.2c-0.1,0-0.2,0-0.3,0
					c-1.7,0-3-1.2-3.1-3c-0.1-1.7-0.1-3.2,0-4.5c0.2-2.8,1-5.4,2.3-7.7c2.1-3.6,5.7-5.7,10-5.7c0.6,0,1.2,0,1.8,0.1
					c5.4,0.7,8.8,4,10.1,10c0.4,1.9,0.5,4,0.6,5.9c0,0.5,0,1.1,0.1,1.6c0.1,1.5-0.7,2.6-2.2,3.1c-0.3,0.1-0.6,0.2-1,0.2
					c-1.5,0-2.5-1.1-2.6-2.7c-0.1-2-0.2-3.8-0.4-5.6c0,2,0,4.1,0,6.1c0,4.2,0.1,8.5,0.2,12.7c0.1,3.9,0.1,7.8,0.2,11.7
					c0,2-1,3.2-2.8,3.4C115.9,187,115.7,187,115.6,187z"/>
				<path class="st0" d="M112,141.1c0.6,0,1.2,0,1.8,0.1c6.3,0.8,8.7,5.3,9.7,9.6c0.5,2.4,0.5,4.9,0.6,7.4c0.1,1.3-0.6,2.2-1.9,2.6
					c-0.3,0.1-0.6,0.1-0.8,0.1c-1.2,0-2-0.9-2.1-2.2c-0.1-2.3-0.3-4.7-0.5-7c-0.1-0.7-0.4-1.5-0.7-2.2c-0.1,0-0.1,0.1-0.2,0.1
					c0,3.2,0,6.4,0,9.7c0.1,8.1,0.2,16.3,0.3,24.4c0,1.8-0.8,2.7-2.3,2.9c-0.1,0-0.3,0-0.4,0c-1.5,0-2.4-0.8-2.7-2.4
					c-0.1-0.6-0.1-1.1-0.1-1.7c-0.1-5.4-0.2-10.8-0.3-16.2c0-0.3,0-0.7-0.1-1c-0.1,0-0.2-0.1-0.3-0.1c-0.1,0.4-0.3,0.7-0.3,1.1
					c-0.1,3-0.1,6-0.1,8.9c-0.1,2.7-0.1,5.4-0.2,8.1c-0.1,2.1-1.1,3.2-2.8,3.2c-0.1,0-0.1,0-0.2,0c-1.7-0.1-2.5-1.2-2.5-3.4
					c0.1-8.9,0.3-17.9,0.4-26.8c0-2,0-4,0-5.9c-0.2,0-0.3,0-0.5-0.1c-0.3,1.5-0.6,3-0.8,4.6c-0.1,1.1,0,2.2,0,3.3
					c0,1.8-0.5,2.5-1.9,2.6c-0.1,0-0.2,0-0.3,0c-1.4,0-2.5-1-2.6-2.5c-0.1-1.5-0.1-2.9,0-4.4c0.2-2.6,0.9-5.2,2.2-7.5
					C104.4,142.9,107.9,141.1,112,141.1 M112,140.1c-4.5,0-8.3,2.2-10.5,5.9c-1.3,2.3-2.1,5-2.4,7.9c-0.1,1.3-0.1,2.8,0,4.5
					c0.1,2,1.6,3.4,3.6,3.4c0.1,0,0.2,0,0.3,0c0.9-0.1,1.5-0.4,2-0.9c-0.1,7.4-0.2,14.7-0.3,22.1c-0.1,3.7,2.1,4.4,3.4,4.4
					c0.1,0,0.2,0,0.3,0c1.8,0,3-0.9,3.6-2.5c0.5,1.6,1.8,2.5,3.5,2.5c0.1,0,0.3,0,0.5,0c2-0.2,3.2-1.6,3.2-3.9
					c0-3.9-0.1-7.7-0.2-11.6c-0.1-3.8-0.1-7.6-0.2-11.4c0.6,0.8,1.4,1.2,2.4,1.2c0.4,0,0.7-0.1,1.1-0.2c1.7-0.5,2.7-1.9,2.6-3.6
					c0-0.5,0-1.1-0.1-1.6c-0.1-2-0.1-4-0.6-6c-1.4-6.1-5-9.6-10.6-10.3C113.2,140.1,112.6,140.1,112,140.1L112,140.1z"/>
			</g>
			<g>
				<path class="st1" d="M112,140.4c-1.4,0-2.8-0.6-3.8-1.6c-1-1-1.5-2.4-1.5-3.8c0-2.9,2.4-5.2,5.3-5.2c1.4,0,2.8,0.6,3.8,1.5
					c1,1,1.6,2.3,1.6,3.7C117.4,138,114.9,140.4,112,140.4L112,140.4z"/>
				<path class="st0" d="M112,130.3c2.7,0,4.9,2.1,4.9,4.8c0,2.6-2.2,4.8-4.9,4.8c0,0,0,0,0,0c-2.7,0-4.8-2.2-4.8-4.9
					C107.2,132.4,109.3,130.3,112,130.3C112,130.3,112,130.3,112,130.3 M112,129.3L112,129.3L112,129.3c-3.2,0-5.7,2.5-5.8,5.7
					c0,1.6,0.6,3,1.7,4.2c1.1,1.1,2.6,1.7,4.1,1.7c3.2,0,5.9-2.7,5.9-5.8c0-1.6-0.6-3-1.7-4.1C115,129.9,113.6,129.3,112,129.3
					L112,129.3z"/>
			</g>
		</g>
	</g>
	<g id="tcYZkQ.tif_1_">
		<g>
			<g>
				<path class="st1" d="M68.7,212.5c-2.3,0-3.8-1.3-4.3-3.8c-0.2-0.8-0.2-1.7-0.2-2.5c-0.1-4.7-0.2-9.3-0.3-14c0,0-0.2-8.6-0.2-8.7
					c0,0,0,0.1,0,0.1c0,2.1-0.1,4.1-0.1,6.2c0,2.1,0,4.2-0.1,6.3c-0.1,3.8-0.2,7.5-0.3,11.3c-0.1,3.2-1.7,4.9-4.5,4.9
					c-0.1,0-0.2,0-0.3,0c-1.8-0.1-4-1.1-3.9-5.3c0.2-12.5,0.4-24.9,0.5-37.4c0-1.9,0-3.8,0-5.7l0-0.7c0,0,0,0,0,0
					c-0.3,1.5-0.6,3-0.7,4.4c-0.1,1.1-0.1,2.2,0,3.2c0,0.4,0,0.9,0,1.3c0,2.7-0.9,4-3.1,4.2c-0.1,0-0.3,0-0.4,0
					c-2.3,0-4-1.6-4.1-3.9c-0.1-2.3-0.1-4.4,0-6.2c0.3-3.9,1.4-7.5,3.2-10.6c2.8-5,7.9-7.8,13.8-7.8c0.8,0,1.7,0.1,2.5,0.2
					c7.4,1,12.1,5.6,14,13.7c0.6,2.7,0.7,5.5,0.8,8.2c0,0.7,0,1.5,0.1,2.2c0.1,2-1,3.5-3,4.1c-0.4,0.1-0.9,0.2-1.3,0.2
					c-1.9,0-3.3-1.4-3.4-3.6c-0.2-3.5-0.4-6.6-0.7-9.8c0-0.3-0.1-0.6-0.2-0.9c0,0.7,0,1.5,0,2.2c0,3,0,6.1,0,9.2
					c0.1,6,0.2,12,0.2,18c0.1,5.4,0.2,10.7,0.2,16.1c0,2.7-1.3,4.3-3.7,4.5C69.1,212.5,68.9,212.5,68.7,212.5z"/>
				<path class="st0" d="M63.7,148.7c0.8,0,1.6,0.1,2.5,0.2c8.8,1.1,12.2,7.3,13.5,13.3c0.8,3.3,0.7,6.9,0.9,10.3
					c0.1,1.8-0.9,3.1-2.6,3.6c-0.4,0.1-0.8,0.2-1.1,0.2c-1.6,0-2.8-1.2-2.9-3.1c-0.2-3.3-0.4-6.5-0.7-9.8c-0.1-1-0.6-2-0.9-3
					c-0.1,0-0.2,0.1-0.2,0.1c0,4.5,0,9,0,13.5c0.1,11.3,0.3,22.7,0.5,34c0,2.4-1.1,3.8-3.2,4c-0.2,0-0.4,0-0.5,0
					c-2.1,0-3.4-1.1-3.8-3.4c-0.2-0.8-0.2-1.6-0.2-2.4c-0.1-7.5-0.3-15-0.4-22.5c0-0.5-0.1-1-0.1-1.4c-0.2,0-0.3-0.1-0.5-0.1
					c-0.1,0.5-0.4,1-0.4,1.6c-0.1,4.2-0.1,8.3-0.2,12.5c-0.1,3.8-0.2,7.6-0.3,11.3c-0.1,2.9-1.5,4.5-4,4.5c-0.1,0-0.2,0-0.3,0
					c-2.4-0.1-3.5-1.7-3.5-4.7c0.2-12.5,0.4-24.9,0.5-37.4c0-2.8,0-5.5,0-8.3c-0.2,0-0.4-0.1-0.6-0.1c-0.4,2.1-0.9,4.2-1.1,6.4
					c-0.2,1.5,0,3.1,0,4.6c0,2.4-0.8,3.5-2.7,3.7c-0.1,0-0.2,0-0.4,0c-2,0-3.5-1.4-3.6-3.5c-0.1-2-0.1-4.1,0-6.1
					c0.3-3.7,1.3-7.2,3.1-10.4C53.2,151.3,58.1,148.7,63.7,148.7 M63.7,147.7c-6.1,0-11.3,2.9-14.2,8c-1.8,3.2-2.9,6.8-3.3,10.8
					c-0.2,1.9-0.2,3.9,0,6.3c0.1,2.6,2.1,4.4,4.6,4.4c0.1,0,0.3,0,0.4,0c2-0.2,2.8-1.2,3.3-2.3c-0.1,10.8-0.3,21.5-0.5,32.3
					c-0.1,4.8,2.7,5.7,4.4,5.8c0.1,0,0.2,0,0.3,0c3,0,4.8-1.9,4.9-5.2c0,0.3,0.1,0.7,0.1,1.1c0.5,2.6,2.3,4.2,4.8,4.2
					c0.2,0,0.4,0,0.6,0c2.6-0.2,4.1-2.1,4.1-5c-0.1-5.4-0.1-10.7-0.2-16.1c-0.1-5.9-0.2-11.9-0.2-17.8c0.4,1.9,1.9,3.2,3.8,3.2
					c0.5,0,0.9-0.1,1.4-0.2c2.2-0.7,3.5-2.4,3.3-4.6c0-0.7-0.1-1.5-0.1-2.2c-0.1-2.7-0.2-5.6-0.8-8.3c-1.9-8.4-6.8-13.1-14.4-14.1
					C65.4,147.8,64.5,147.7,63.7,147.7L63.7,147.7z"/>
			</g>
			<g>
				<path class="st1" d="M63.7,147.2c-1.9,0-3.7-0.8-5.1-2.2c-1.4-1.4-2.1-3.2-2-5.2c0.1-4,3.2-7.1,7.2-7.1c2,0,3.8,0.8,5.2,2.1
					c1.4,1.4,2.1,3.1,2.1,5C71,143.9,67.7,147.2,63.7,147.2L63.7,147.2z"/>
				<path class="st0" d="M63.7,133.3c3.7,0,6.8,3,6.8,6.7c0,3.7-3.1,6.7-6.8,6.7c0,0,0,0,0,0c-3.7,0-6.7-3.1-6.6-6.8
					C57.1,136.2,60,133.4,63.7,133.3C63.7,133.3,63.7,133.3,63.7,133.3 M63.7,132.3L63.7,132.3L63.7,132.3c-4.2,0-7.6,3.3-7.7,7.6
					c0,2.1,0.7,4,2.2,5.5c1.4,1.5,3.4,2.3,5.4,2.3c4.2,0,7.8-3.5,7.8-7.7c0-2.1-0.8-4-2.3-5.4C67.7,133.1,65.8,132.3,63.7,132.3
					L63.7,132.3z"/>
			</g>
		</g>
	</g>
	<g>
		<g>
			<path class="st1" d="M125.4,130.8c-2.6,0-4.6-2-4.6-4.7c0-2.7,1.9-4.7,4.6-4.7c2.6,0,4.5,1.9,4.6,4.7
				C130,128.9,128.1,130.8,125.4,130.8z M122.1,120.6l-0.2-2.1c-0.3-2.8,0.8-5.7,3.1-8.4c1.8-2.1,2.7-3.5,2.7-5c0-0.6,0-2.3-2.9-2.3
				c-1.5,0-3.1,0.5-4.1,1.2l-1.1,0.8l-2.1-6.2l0.7-0.4c2.1-1.3,5-2.1,7.9-2.1c6.6,0,9.5,4.1,9.5,8.2c0,3.8-2.3,6.4-4.3,8.7
				c-1.7,2-2.3,3.7-2.3,5.7l0.1,2H122.1z"/>
			<path class="st0" d="M126.1,97c5.8,0,8.5,3.4,8.5,7.2c0,3.4-2.1,5.8-4.1,8.1c-1.8,2.2-2.6,4.1-2.5,6.4l0,1H123l-0.1-1.2
				c-0.2-2.5,0.6-5,2.8-7.7c1.8-2.1,3-3.8,3-5.6c0-2-1.2-3.3-3.9-3.3c-1.6,0-3.5,0.5-4.7,1.4l-1.4-4.1C120.4,97.9,123.2,97,126.1,97
				 M125.4,122.5c2.1,0,3.5,1.5,3.6,3.7c0,2.1-1.4,3.7-3.6,3.7c-2.1,0-3.6-1.6-3.6-3.7C121.8,124,123.3,122.5,125.4,122.5 M126.1,95
				c-3.1,0-6.3,0.8-8.5,2.2l-1.3,0.8l0.5,1.5l1.4,4.1l0.9,2.6l2.2-1.7c0.8-0.6,2.2-1,3.5-1c1.9,0,1.9,0.8,1.9,1.3
				c0,1.1-0.9,2.4-2.5,4.3c-2.5,3-3.6,6.1-3.3,9.2l0.1,1.2l0.1,1.8h0.8c-1.3,1-2.2,2.6-2.2,4.6c0,3.2,2.4,5.7,5.6,5.7
				c3.2,0,5.6-2.4,5.6-5.7c0-1.9-0.9-3.5-2.2-4.6h1.4l-0.1-2.1l0-1c-0.1-1.7,0.5-3.2,2-5c2.1-2.4,4.6-5.2,4.6-9.4
				C136.7,99.6,133.4,95,126.1,95L126.1,95z"/>
		</g>
	</g>
	<g id="tcYZkQ.tif_5_">
		<g>
			<g>
				<path class="st1" d="M42.9,139.3c-1.4,0-2.3-0.8-2.6-2.3c-0.1-0.5-0.1-1-0.1-1.4c0-0.2,0-0.5,0-0.7c0,0.5,0,0.9,0,1.4
					c-0.1,1.9-1,3-2.7,3l-0.2,0c-1.1-0.1-2.4-0.6-2.4-3.1c0.1-6.1,0.2-12.2,0.3-18.3c-0.1,0.7-0.6,1.5-1.9,1.6c-0.1,0-0.2,0-0.2,0
					c-1.4,0-2.4-1-2.5-2.4c-0.1-1.3-0.1-2.4,0-3.5c0.2-2.2,0.8-4.2,1.8-6c1.6-2.8,4.5-4.4,7.8-4.4c0.5,0,0.9,0,1.4,0.1
					c4.2,0.5,6.9,3.2,7.9,7.8c0.3,1.5,0.4,3.1,0.4,4.6c0,0.4,0,0.8,0,1.2c0.1,1.2-0.6,2.1-1.8,2.5c-0.3,0.1-0.5,0.1-0.8,0.1
					c-1.2,0-2-0.9-2.1-2.2c0-0.4,0-0.7-0.1-1.1c0,0.5,0,1,0,1.4c0,3.3,0.1,6.6,0.1,9.9c0,3,0.1,6,0.1,9c0,1.6-0.8,2.6-2.2,2.7
					C43.1,139.3,43,139.3,42.9,139.3z M35.1,114.9c0,0.2,0,0.4,0,0.7C35.1,115.5,35.1,115.1,35.1,114.9z"/>
				<path class="st0" d="M40.1,103.7c0.4,0,0.9,0,1.4,0.1c4.9,0.6,6.7,4.1,7.5,7.4c0.4,1.8,0.4,3.8,0.5,5.7c0,1-0.5,1.7-1.5,2
					c-0.2,0.1-0.4,0.1-0.6,0.1c-0.9,0-1.6-0.7-1.6-1.7c-0.1-1.8-0.2-3.6-0.4-5.4c-0.1-0.6-0.3-1.1-0.5-1.7c0,0-0.1,0-0.1,0.1
					c0,2.5,0,5,0,7.5c0.1,6.3,0.2,12.6,0.3,18.9c0,1.4-0.6,2.1-1.8,2.2c-0.1,0-0.2,0-0.3,0c-1.1,0-1.9-0.6-2.1-1.9
					c-0.1-0.4-0.1-0.9-0.1-1.3c-0.1-4.2-0.1-8.3-0.2-12.5c0-0.3,0-0.5-0.1-0.8c-0.1,0-0.2,0-0.3-0.1c-0.1,0.3-0.2,0.6-0.2,0.9
					c0,2.3,0,4.6-0.1,6.9c0,2.1-0.1,4.2-0.2,6.3c-0.1,1.6-0.8,2.5-2.2,2.5c-0.1,0-0.1,0-0.2,0c-1.3-0.1-1.9-0.9-1.9-2.6
					c0.1-6.9,0.2-13.8,0.3-20.7c0-1.5,0-3.1,0-4.6c-0.1,0-0.2,0-0.4,0c-0.2,1.2-0.5,2.4-0.6,3.5c-0.1,0.8,0,1.7,0,2.6
					c0,1.4-0.4,2-1.5,2c-0.1,0-0.1,0-0.2,0c-1.1,0-2-0.7-2-1.9c-0.1-1.1-0.1-2.3,0-3.4c0.2-2,0.7-4,1.7-5.8
					C34.3,105.2,37,103.7,40.1,103.7 M40.1,102.7c-3.6,0-6.6,1.7-8.3,4.7c-1,1.8-1.7,3.9-1.9,6.2c-0.1,1-0.1,2.2,0,3.5
					c0.1,1.7,1.3,2.9,3,2.9c0.1,0,0.2,0,0.3,0c0.4,0,0.9-0.1,1.3-0.4c-0.1,5.5-0.2,11.1-0.2,16.6c0,3.2,2,3.6,2.9,3.6
					c0.1,0,0.1,0,0.2,0c1.3,0,2.2-0.6,2.8-1.6c0.5,1,1.5,1.6,2.7,1.6c0.1,0,0.2,0,0.4,0c1.7-0.1,2.7-1.4,2.7-3.2c0-3-0.1-6-0.1-8.9
					c0-2.7-0.1-5.5-0.1-8.2c0.4,0.4,1,0.6,1.7,0.6c0.3,0,0.6,0,0.9-0.1c1.4-0.4,2.2-1.6,2.2-3c0-0.4,0-0.8,0-1.2
					c-0.1-1.5-0.1-3.1-0.5-4.7c-1.1-4.8-3.9-7.6-8.4-8.2C41.1,102.8,40.6,102.7,40.1,102.7L40.1,102.7z"/>
			</g>
			<g>
				<path class="st1" d="M40.1,103.6c-1.1,0-2.2-0.5-3-1.3c-0.8-0.8-1.2-1.9-1.2-3c0-2.3,1.9-4.1,4.2-4.1c1.1,0,2.2,0.4,3,1.2
					c0.8,0.8,1.2,1.9,1.2,3C44.4,101.7,42.4,103.6,40.1,103.6L40.1,103.6z"/>
				<path class="st0" d="M40.1,95.7c2.1,0,3.8,1.7,3.8,3.7c0,2-1.7,3.7-3.8,3.7c0,0,0,0,0,0c-2.1,0-3.7-1.7-3.7-3.8
					C36.5,97.3,38.1,95.7,40.1,95.7C40.1,95.7,40.1,95.7,40.1,95.7 M40.1,94.7L40.1,94.7L40.1,94.7c-2.6,0-4.7,2-4.7,4.6
					c0,1.3,0.5,2.5,1.3,3.4c0.9,0.9,2.1,1.4,3.3,1.4c2.6,0,4.8-2.1,4.8-4.7c0-1.3-0.5-2.4-1.4-3.3C42.6,95.1,41.4,94.7,40.1,94.7
					L40.1,94.7z"/>
			</g>
		</g>
	</g>
	<g id="tcYZkQ.tif_3_">
		<g>
			<g>
				<path class="st1" d="M202.8,185.5c-1.7,0-2.8-1-3.2-2.8c-0.1-0.6-0.1-1.2-0.2-1.8c0-2.3-0.1-4.5-0.1-6.8
					c-0.1,2.6-0.1,5.1-0.2,7.7c-0.1,2.3-1.3,3.6-3.3,3.6c0,0-0.2,0-0.2,0c-1.4-0.1-3-0.8-2.9-3.9c0.1-8.8,0.3-17.6,0.4-26.4
					c0-1,0-1.9,0-2.9c-0.1,0.5-0.2,1.1-0.2,1.6c-0.1,0.7-0.1,1.5,0,2.3c0,0.3,0,0.6,0,0.9c0,1.3-0.2,2.9-2.3,3.1c-0.1,0-0.2,0-0.3,0
					c-1.7,0-3-1.2-3.1-2.9c-0.1-1.7-0.1-3.1,0-4.4c0.2-2.8,1-5.3,2.3-7.5c2-3.5,5.6-5.6,9.9-5.6c0.6,0,1.2,0,1.8,0.1
					c5.3,0.7,8.6,4,10,9.8c0.4,1.9,0.5,3.9,0.6,5.8c0,0.5,0,1,0.1,1.6c0.1,1.5-0.8,2.6-2.2,3c-0.3,0.1-0.6,0.1-0.9,0.1
					c-1.4,0-2.5-1.1-2.6-2.7c-0.1-1.6-0.2-3.4-0.3-5.3c0,1.9,0,3.8,0,5.8c0,4.2,0.1,8.3,0.2,12.5c0.1,3.8,0.1,7.7,0.2,11.5
					c0,2-1,3.2-2.7,3.3C203.1,185.5,203,185.5,202.8,185.5z"/>
				<path class="st0" d="M199.3,140.4c0.6,0,1.1,0,1.7,0.1c6.2,0.8,8.6,5.2,9.6,9.4c0.5,2.3,0.5,4.8,0.6,7.3
					c0.1,1.3-0.6,2.2-1.9,2.5c-0.3,0.1-0.5,0.1-0.8,0.1c-1.2,0-2-0.9-2.1-2.2c-0.1-2.3-0.3-4.6-0.5-6.9c-0.1-0.7-0.4-1.4-0.7-2.1
					c-0.1,0-0.1,0.1-0.2,0.1c0,3.2,0,6.3,0,9.5c0.1,8,0.2,16,0.3,24c0,1.7-0.8,2.7-2.3,2.8c-0.1,0-0.2,0-0.4,0
					c-1.5,0-2.4-0.8-2.7-2.4c-0.1-0.6-0.1-1.1-0.1-1.7c-0.1-5.3-0.2-10.6-0.3-15.9c0-0.3,0-0.7-0.1-1c-0.1,0-0.2-0.1-0.3-0.1
					c-0.1,0.4-0.3,0.7-0.3,1.1c-0.1,2.9-0.1,5.9-0.1,8.8c-0.1,2.7-0.1,5.3-0.2,8c-0.1,2.1-1,3.1-2.8,3.1c-0.1,0-0.1,0-0.2,0
					c-1.7-0.1-2.5-1.2-2.4-3.3c0.1-8.8,0.3-17.6,0.4-26.4c0-1.9,0-3.9,0-5.8c-0.1,0-0.3,0-0.4-0.1c-0.3,1.5-0.6,3-0.8,4.5
					c-0.1,1.1,0,2.2,0,3.3c0,1.7-0.5,2.5-1.9,2.6c-0.1,0-0.2,0-0.3,0c-1.4,0-2.5-1-2.6-2.4c-0.1-1.4-0.1-2.9,0-4.3
					c0.2-2.6,0.9-5.1,2.2-7.3C191.9,142.2,195.3,140.4,199.3,140.4 M199.3,139.4c-4.4,0-8.2,2.1-10.3,5.8c-1.3,2.3-2.1,4.9-2.3,7.8
					c-0.1,1.3-0.1,2.8,0,4.5c0.1,2,1.6,3.4,3.6,3.4c0.1,0,0.2,0,0.3,0c0.8-0.1,1.5-0.3,2-0.8c-0.1,7.2-0.2,14.5-0.3,21.7
					c-0.1,3.7,2.1,4.3,3.4,4.4c0.1,0,0.2,0,0.3,0c1.7,0,3-0.9,3.5-2.4c0.5,1.6,1.8,2.4,3.5,2.4c0.1,0,0.3,0,0.5,0
					c2-0.2,3.2-1.6,3.2-3.8c0-3.8-0.1-7.6-0.2-11.4c-0.1-3.7-0.1-7.4-0.2-11.1c0.6,0.7,1.4,1.2,2.4,1.2c0.4,0,0.7-0.1,1.1-0.2
					c1.7-0.5,2.6-1.8,2.6-3.6c0-0.5,0-1-0.1-1.6c-0.1-1.9-0.1-4-0.6-5.9c-1.4-6-4.9-9.5-10.4-10.2
					C200.5,139.4,199.9,139.4,199.3,139.4L199.3,139.4z"/>
			</g>
			<g>
				<path class="st1" d="M199.3,139.8c-1.4,0-2.7-0.6-3.7-1.6c-1-1-1.5-2.3-1.5-3.7c0-2.9,2.3-5.1,5.2-5.1c1.4,0,2.7,0.5,3.7,1.5
					c1,1,1.5,2.3,1.5,3.7C204.6,137.4,202.2,139.8,199.3,139.8L199.3,139.8z"/>
				<path class="st0" d="M199.3,129.8c2.6,0,4.8,2.1,4.8,4.7c0,2.6-2.2,4.7-4.8,4.7c0,0,0,0,0,0c-2.6,0-4.7-2.2-4.7-4.8
					C194.6,131.9,196.7,129.8,199.3,129.8C199.3,129.8,199.3,129.8,199.3,129.8 M199.3,128.8L199.3,128.8L199.3,128.8
					c-3.2,0-5.7,2.5-5.7,5.6c0,1.5,0.6,3,1.6,4.1c1.1,1.1,2.5,1.7,4.1,1.7c3.2,0,5.8-2.6,5.8-5.7c0-1.5-0.6-3-1.7-4
					C202.3,129.4,200.8,128.8,199.3,128.8L199.3,128.8z"/>
			</g>
		</g>
	</g>
	<g id="tcYZkQ.tif_7_">
		<g>
			<g>
				<path class="st1" d="M200.4,107.5c-0.9,0-1.6-0.5-1.9-1.4c-0.3,0.9-0.9,1.4-1.9,1.4l-0.1,0c-0.7,0-1.8-0.4-1.8-2.3
					c0.1-3.9,0.1-7.8,0.2-11.6c-0.2,0.3-0.6,0.5-1.1,0.5c-0.1,0-0.1,0-0.2,0c-1,0-1.8-0.7-1.9-1.8c-0.1-0.9,0-1.7,0-2.4
					c0.1-1.5,0.5-2.9,1.2-4.1c1.1-2,3.1-3.1,5.4-3.1c0.3,0,0.7,0,1,0.1c2.9,0.4,4.8,2.2,5.5,5.4c0.2,1,0.3,2.1,0.3,3.1
					c0,0.3,0,0.6,0,0.8c0,0.9-0.5,1.6-1.3,1.9c-0.2,0.1-0.4,0.1-0.6,0.1c-0.6,0-1-0.3-1.3-0.7c0,2,0.1,10.1,0.2,12.1
					c0,1.2-0.6,1.9-1.7,2C200.5,107.5,200.4,107.5,200.4,107.5z"/>
				<path class="st0" d="M198.5,83.2c0.3,0,0.6,0,0.9,0.1c3.3,0.4,4.6,2.8,5.1,5c0.3,1.3,0.3,2.6,0.3,3.9c0,0.7-0.3,1.2-1,1.4
					c-0.1,0-0.3,0.1-0.4,0.1c-0.6,0-1.1-0.5-1.1-1.2c-0.1-1.2-0.1-2.5-0.3-3.7c0-0.4-0.2-0.8-0.4-1.1c0,0-0.1,0-0.1,0
					c0,1.7,0,3.4,0,5.1c0.1,4.3,0.1,8.5,0.2,12.8c0,0.9-0.4,1.4-1.2,1.5c-0.1,0-0.1,0-0.2,0c-0.8,0-1.3-0.4-1.4-1.3
					c-0.1-0.3-0.1-0.6-0.1-0.9c-0.1-2.8-0.1-5.6-0.2-8.4c0-0.2,0-0.4,0-0.5c-0.1,0-0.1,0-0.2,0c-0.1,0.2-0.2,0.4-0.2,0.6
					c0,1.6,0,3.1-0.1,4.7c0,1.4-0.1,2.8-0.1,4.3c0,1.1-0.6,1.7-1.5,1.7c0,0-0.1,0-0.1,0c-0.9,0-1.3-0.6-1.3-1.8
					c0.1-4.7,0.1-9.4,0.2-14c0-1,0-2.1,0-3.1c-0.1,0-0.2,0-0.2,0c-0.1,0.8-0.3,1.6-0.4,2.4c-0.1,0.6,0,1.2,0,1.7
					c0,0.9-0.3,1.3-1,1.4c0,0-0.1,0-0.1,0c-0.7,0-1.3-0.5-1.4-1.3c0-0.8-0.1-1.5,0-2.3c0.1-1.4,0.5-2.7,1.2-3.9
					C194.5,84.2,196.4,83.2,198.5,83.2 M198.5,82.2c-2.5,0-4.7,1.2-5.9,3.3c-0.7,1.3-1.2,2.7-1.3,4.3c-0.1,0.7-0.1,1.5,0,2.4
					c0.1,1.3,1.1,2.2,2.4,2.2c0.1,0,0.1,0,0.2,0c0.2,0,0.3,0,0.5-0.1c0,3.6-0.1,7.1-0.2,10.7c0,2.5,1.7,2.8,2.3,2.8
					c0.1,0,0.1,0,0.2,0c0.8,0,1.4-0.3,1.9-0.8c0.4,0.5,1.1,0.8,1.9,0.8c0.1,0,0.2,0,0.3,0c1.3-0.1,2.1-1.1,2.1-2.5
					c0-2-0.1-4-0.1-6.1c0-1.7,0-3.3-0.1-5c0.2,0.1,0.5,0.2,0.8,0.2c0.2,0,0.5,0,0.7-0.1c1.1-0.3,1.7-1.2,1.7-2.4c0-0.3,0-0.5,0-0.8
					c0-1.1-0.1-2.2-0.3-3.2c-0.8-3.4-2.8-5.4-5.9-5.8C199.2,82.3,198.8,82.2,198.5,82.2L198.5,82.2z"/>
			</g>
			<g>
				<path class="st1" d="M198.5,82.6c-0.8,0-1.6-0.3-2.1-0.9c-0.6-0.6-0.9-1.3-0.9-2.2c0-1.7,1.3-3,3-3c0.8,0,1.6,0.3,2.2,0.9
					c0.6,0.6,0.9,1.3,0.9,2.1C201.5,81.2,200.1,82.6,198.5,82.6L198.5,82.6z"/>
				<path class="st0" d="M198.5,77.1c1.4,0,2.5,1.1,2.5,2.5c0,1.4-1.2,2.5-2.5,2.5c0,0,0,0,0,0c-1.4,0-2.5-1.2-2.5-2.6
					C196,78.2,197.1,77.1,198.5,77.1C198.5,77.1,198.5,77.1,198.5,77.1 M198.5,76.1L198.5,76.1L198.5,76.1c-1.9,0-3.5,1.5-3.5,3.5
					c0,0.9,0.3,1.8,1,2.5c0.7,0.7,1.5,1,2.5,1.1c2,0,3.6-1.6,3.6-3.5c0-0.9-0.4-1.8-1-2.5C200.3,76.5,199.4,76.1,198.5,76.1
					L198.5,76.1z"/>
			</g>
		</g>
	</g>
</g>
<g id="Layer_2" class="st29">
	<circle class="st44" cx="124.2" cy="140.3" r="98"/>
</g>
</svg>
