<?xml version="1.0" encoding="utf-8"?>
<!-- Generator: Adobe Illustrator 19.1.0, SVG Export Plug-In . SVG Version: 6.00 Build 0)  -->
<!DOCTYPE svg PUBLIC "-//W3C//DTD SVG 1.1//EN" "http://www.w3.org/Graphics/SVG/1.1/DTD/svg11.dtd">
<svg version="1.1" xmlns="http://www.w3.org/2000/svg" xmlns:xlink="http://www.w3.org/1999/xlink" x="0px" y="0px"
	 viewBox="0 0 247.5 283.5" style="enable-background:new 0 0 247.5 283.5;" xml:space="preserve">
<style type="text/css">
	.st0{opacity:0.43;fill:#FFFFFF;}
	.st1{fill:#FFFFFF;}
	.st2{fill:#EE7223;}
	.st3{fill:#70C1BD;}
	.st4{fill:#8F8E8E;}
	.st5{fill:#943C71;}
	.st6{fill:#9BAC4E;}
	.st7{fill:#A48E53;}
	.st8{fill:#C52F27;}
	.st9{fill-rule:evenodd;clip-rule:evenodd;fill:#FFFFFF;}
	.st10{fill:none;stroke:#FFFFFF;stroke-width:4;}
	.st11{enable-background:new    ;}
	.st12{clip-path:url(#SVGID_2_);}
	.st13{clip-path:url(#SVGID_4_);}
	.st14{fill:none;stroke:#FFFFFF;stroke-width:2;stroke-miterlimit:10;}
	.st15{fill:none;stroke:#FFFFFF;stroke-width:1.75;stroke-miterlimit:10;}
	.st16{fill:none;stroke:#FFFFFF;stroke-width:0.75;stroke-miterlimit:10;}
	.st17{fill:none;stroke:#FFFFFF;stroke-width:0.5;stroke-miterlimit:10;}
	.st18{fill:none;stroke:#FFFFFF;stroke-width:0.4754;stroke-miterlimit:10;}
	.st19{fill:#FFFFFF;stroke:#9BAC4E;stroke-width:0.6595;stroke-linejoin:round;stroke-miterlimit:10;}
	
		.st20{fill-rule:evenodd;clip-rule:evenodd;fill:#FFFFFF;stroke:#9BAC4E;stroke-width:0.5919;stroke-linejoin:round;stroke-miterlimit:10;}
	.st21{fill:none;stroke:#FFFFFF;stroke-miterlimit:10;}
	.st22{fill:none;stroke:#FFFFFF;stroke-width:3;stroke-linecap:round;stroke-linejoin:round;}
	.st23{fill:none;stroke:#FFFFFF;stroke-width:3;stroke-linecap:round;stroke-linejoin:round;stroke-dasharray:1,4;}
	.st24{fill:none;stroke:#FFFFFF;stroke-width:3;stroke-linecap:round;stroke-linejoin:round;stroke-dasharray:0.951,3.8039;}
	.st25{fill:none;stroke:#FFFFFF;stroke-width:3;stroke-linecap:round;stroke-linejoin:round;stroke-dasharray:1.2168,4.8673;}
	.st26{display:none;}
	.st27{fill:none;stroke:#FFFFFF;stroke-width:3;stroke-linecap:round;stroke-linejoin:round;stroke-dasharray:0.9829,3.9316;}
	.st28{fill:none;stroke:#FFFFFF;stroke-width:3;stroke-linecap:round;stroke-linejoin:round;stroke-dasharray:1.0455,4.1818;}
	.st29{fill:none;stroke:#FFFFFF;stroke-width:3;stroke-linecap:round;stroke-linejoin:round;stroke-dasharray:1.0687,4.2748;}
	.st30{fill:none;stroke:#FFFFFF;stroke-width:3;stroke-linecap:round;stroke-linejoin:round;stroke-dasharray:0.7778,3.1111;}
	.st31{fill:none;stroke:#FFFFFF;stroke-width:3;stroke-linecap:round;stroke-linejoin:round;stroke-dasharray:1.0714,4.2857;}
	.st32{fill:none;stroke:#FFFFFF;stroke-width:3;stroke-linecap:round;stroke-linejoin:round;stroke-dasharray:0.8519,3.4074;}
	.st33{fill:none;stroke:#FFFFFF;stroke-width:3;stroke-linecap:round;stroke-linejoin:round;stroke-dasharray:0.977,3.908;}
	.st34{fill:none;stroke:#FFFFFF;stroke-width:3;stroke-linecap:round;stroke-linejoin:round;stroke-dasharray:0.9635,3.8542;}
	.st35{fill:none;stroke:#FFFFFF;stroke-width:3;stroke-linecap:round;stroke-linejoin:round;stroke-dasharray:0.8571,3.4286;}
	.st36{fill:none;stroke:#FFFFFF;stroke-width:3;stroke-linecap:round;stroke-linejoin:round;stroke-dasharray:0.9205,3.6822;}
	.st37{fill:none;stroke:#FFFFFF;stroke-width:3;stroke-linecap:round;stroke-linejoin:round;stroke-dasharray:0.9273,3.7091;}
	.st38{clip-path:url(#SVGID_6_);}
	.st39{fill:none;}
	.st40{clip-path:url(#SVGID_8_);}
	.st41{clip-path:url(#SVGID_10_);}
	.st42{clip-path:url(#SVGID_12_);}
	.st43{clip-path:url(#SVGID_14_);}
	.st44{opacity:0.6;fill:none;}
	.st45{opacity:0.8;fill:#FFFFFF;stroke:#8F8E8E;stroke-miterlimit:10;}
	.st46{fill:#FFFFFF;stroke:#8F8E8E;stroke-width:2;stroke-miterlimit:10;}
	.st47{clip-path:url(#SVGID_16_);}
	.st48{clip-path:url(#SVGID_18_);}
	.st49{clip-path:url(#SVGID_20_);}
	.st50{fill:none;stroke:#FFFFFF;stroke-miterlimit:10;stroke-dasharray:2;}
	.st51{clip-path:url(#SVGID_22_);}
	.st52{fill:none;stroke:#8F8E8E;stroke-miterlimit:10;}
	.st53{fill:none;stroke:#8F8E8E;stroke-linecap:round;stroke-miterlimit:10;stroke-dasharray:2.48;}
	.st54{fill:none;stroke:#8F8E8E;stroke-width:1.2549;stroke-miterlimit:10;}
	.st55{fill:none;stroke:#8F8E8E;stroke-width:3.0892;stroke-miterlimit:10;}
	.st56{fill:none;stroke:#8F8E8E;stroke-width:3.0969;stroke-miterlimit:10;}
	.st57{opacity:0.25;}
	.st58{fill:none;stroke:#8F8E8E;stroke-width:2.0084;stroke-linecap:round;stroke-linejoin:round;stroke-miterlimit:10;}
	.st59{display:inline;fill-rule:evenodd;clip-rule:evenodd;fill:none;stroke:#000000;stroke-width:0.7277;stroke-miterlimit:10;}
	.st60{display:inline;}
</style>
<g id="Layer_1">
	<g>
		<defs>
			<circle id="SVGID_11_" cx="521" cy="-69.7" r="98"/>
		</defs>
		<clipPath id="SVGID_2_">
			<use xlink:href="#SVGID_11_"  style="overflow:visible;"/>
		</clipPath>
		<g id="XMLID_4_" class="st12">
			<g>
				<g class="st11">
					<defs>
						<polygon id="SVGID_13_" class="st11" points="185,18.4 406,-102.7 638.3,-102.7 859.3,18.4 						"/>
					</defs>
					<clipPath id="SVGID_4_">
						<use xlink:href="#SVGID_13_"  style="overflow:visible;"/>
					</clipPath>
				</g>
			</g>
		</g>
	</g>
	<g>
		<polygon class="st4" points="5,210.6 5.2,73.2 124,4.5 243.3,73.2 243,210.6 124,279.3 		"/>
		<g>
			<g>
				<g>
					<path class="st1" d="M215.8,169.5c-1.1-65.2-42.2-117.8-91.9-117.8S33.1,104.1,32,169.2c-0.5,1.8-0.2,3.6-0.2,5.5
						c0,2.2,0.4,4.3,1,6.4c6.6,20.5,44.8,36.2,91,36.2c46.1,0,84.3-15.7,91-36.2c0.7-2.1,1-4.2,1-6.4
						C215.8,172.9,216.3,171.3,215.8,169.5z"/>
				</g>
				<path class="st54" d="M216.2,170c0.5,1.7,0.2,3.1,0.2,4.9c0,23.5-41.7,42.5-92.5,42.5s-93-19.1-93-42.6c0-1.5,0.2-2.9,0.5-4.4"
					/>
				<path class="st55" d="M209.1,118.8c1.5,2.9,0.5,5.8,0.5,9c0,22.3-37.3,40.5-85.4,40.5s-85.6-18.1-85.6-40.3c0-2.6-1-5.1,0-7.5"
					/>
				<path class="st56" d="M179.5,74c4,5,7.1,9,7.1,14.1c0,15.9-27.6,27.8-62.9,27.8S60.7,104,60.7,88.1c0-4.5,2.3-7.6,5.4-12.6"/>
				<g class="st57">
					<g>
						<path class="st4" d="M124.4,132c51.1,0,92.5,19.4,92.5,43.1c0,23.8-41.7,43.1-93.1,43.1c-51.4,0-96.8-19.6-93.1-43.1
							c3.5-22.3,42-43,93.1-43.1C124,132,124.2,132,124.4,132 M124.4,130v2V130l-0.6,0c-24.3,0.1-47.5,4.9-65.2,13.5
							c-17.4,8.4-27.9,19.6-29.8,31.3c-1,6.2,1,12.2,5.9,17.9c6.9,8,19,14.9,35.2,19.9c16.2,5,34.8,7.6,54,7.6
							c25.1,0,48.8-4.6,66.6-12.8c18.3-8.5,28.4-20,28.4-32.3c0-12.3-10-23.8-28.2-32.3C172.9,134.6,149.4,130,124.4,130L124.4,130z
							"/>
					</g>
					<path class="st58" d="M209.8,128.2c0,21.9-37.6,40.5-84.9,40.5c-49,0-86.1-18.6-86.1-40.5s38.2-39.6,85.5-39.6
						S209.8,106.3,209.8,128.2z"/>
					<g>
						<path class="st4" d="M123.6,59.3c34.6,0,62.6,12.7,62.6,28.3s-27.8,27.9-62.4,27.9S61,103.3,61,87.6S89.1,59.3,123.6,59.3
							 M123.6,57.3c-17,0-33,3-45.1,8.5C65.9,71.5,59,79.2,59,87.6c0,16.8,28.5,29.9,64.9,29.9c17,0,33-2.9,45-8.2
							c12.5-5.6,19.4-13.3,19.4-21.6c0-8.4-6.9-16.2-19.5-21.8C156.7,60.3,140.7,57.3,123.6,57.3L123.6,57.3z"/>
					</g>
				</g>
			</g>
			<ellipse class="st4" cx="108.8" cy="204.5" rx="12.7" ry="4.5"/>
			<ellipse class="st4" cx="166.2" cy="191.5" rx="12.7" ry="4.5"/>
			<ellipse class="st4" cx="186.9" cy="167" rx="12.7" ry="4.5"/>
			<ellipse class="st4" cx="71.5" cy="177.5" rx="12.7" ry="4.5"/>
			<ellipse class="st4" cx="75.2" cy="125.5" rx="9.7" ry="3.4"/>
			<ellipse class="st4" cx="158.1" cy="79" rx="6.8" ry="2.4"/>
			<ellipse class="st4" cx="135.1" cy="96.8" rx="6.8" ry="2.4"/>
			<ellipse class="st4" cx="122.9" cy="70.5" rx="6.8" ry="2.4"/>
			<ellipse class="st4" cx="91.1" cy="76" rx="6.8" ry="2.4"/>
			<ellipse class="st4" cx="118.8" cy="122.2" rx="9.7" ry="3.4"/>
			<ellipse class="st4" cx="98.5" cy="149.2" rx="9.7" ry="3.4"/>
			<ellipse class="st4" cx="180.2" cy="116.5" rx="9.7" ry="3.4"/>
			<ellipse class="st4" cx="96.2" cy="100.5" rx="9.7" ry="3.4"/>
			<ellipse class="st4" cx="130.2" cy="150.8" rx="12.7" ry="4.5"/>
			<line class="st52" x1="112.8" y1="204" x2="164.5" y2="192.5"/>
			<line class="st52" x1="163.2" y1="191.8" x2="74.5" y2="178.2"/>
			<line class="st52" x1="162" y1="191" x2="131.5" y2="150.5"/>
			<line class="st52" x1="72.5" y1="176.8" x2="128.5" y2="151.5"/>
			<line class="st52" x1="100.5" y1="149.8" x2="120.2" y2="120.8"/>
			<line class="st52" x1="99.8" y1="148.8" x2="79.8" y2="124.5"/>
			<line class="st52" x1="119" y1="122.5" x2="95.8" y2="99.8"/>
			<line class="st52" x1="120.2" y1="122.5" x2="180" y2="116"/>
			<line class="st52" x1="92.5" y1="76" x2="122.5" y2="70.2"/>
			<line class="st52" x1="158" y1="78.5" x2="134.5" y2="97.2"/>
			<line class="st52" x1="121.5" y1="70.2" x2="158.5" y2="78.5"/>
			<line class="st52" x1="134.8" y1="151.5" x2="188" y2="167.2"/>
			<g>
				<g>
					<path class="st4" d="M95.5,100.4l-0.3-2c-0.1-0.5,0.3-1,0.8-1.1c0.5-0.1,1,0.3,1.1,0.7l0.4,2c0.1,0.5-0.2,1.1-0.8,1.2
						C96.2,101.4,95.6,101,95.5,100.4C95.5,100.5,95.5,100.4,95.5,100.4z"/>
					<path class="st4" d="M94.9,96.5l-0.3-2c-0.1-0.5,0.2-0.9,0.7-1c0.5-0.1,0.9,0.2,1,0.7l0.4,2c0.1,0.5-0.2,1-0.7,1.1
						C95.5,97.3,95,97,94.9,96.5C94.9,96.5,94.9,96.5,94.9,96.5z"/>
					<path class="st4" d="M94.3,92.5l-0.3-2c-0.1-0.4,0.2-0.8,0.6-0.9c0.4-0.1,0.8,0.2,0.9,0.6l0.4,2c0.1,0.4-0.2,0.9-0.6,1
						C94.8,93.3,94.4,93,94.3,92.5C94.3,92.5,94.3,92.5,94.3,92.5z"/>
					<path class="st4" d="M93.7,88.6l-0.3-2c-0.1-0.4,0.2-0.7,0.6-0.8c0.4-0.1,0.7,0.2,0.8,0.5l0.4,2c0.1,0.4-0.2,0.8-0.6,0.8
						C94.1,89.2,93.7,89,93.7,88.6C93.7,88.6,93.7,88.6,93.7,88.6z"/>
					<path class="st4" d="M93,84.6l-0.3-2c0-0.3,0.2-0.6,0.5-0.6c0.3,0,0.6,0.2,0.6,0.4l0.4,2c0.1,0.3-0.1,0.7-0.5,0.7
						C93.4,85.2,93.1,85,93,84.6C93,84.6,93,84.6,93,84.6z"/>
					<path class="st4" d="M92.4,80.7l-0.3-2c0-0.3,0.1-0.5,0.4-0.5c0.2,0,0.5,0.1,0.5,0.4l0.4,2c0.1,0.3-0.1,0.6-0.4,0.6
						C92.7,81.2,92.5,81,92.4,80.7C92.4,80.7,92.4,80.7,92.4,80.7z"/>
					<path class="st4" d="M91.8,76.7l-0.2-1.1c0-0.2,0.1-0.4,0.3-0.5c0.2,0,0.4,0.1,0.4,0.3l0.2,1.1c0,0.2-0.1,0.5-0.3,0.5
						C92.1,77.1,91.8,77,91.8,76.7C91.8,76.7,91.8,76.7,91.8,76.7z"/>
				</g>
			</g>
			<g>
				<g>
					<path class="st4" d="M166.5,191.1l0.4-2c0.1-0.5,0.6-0.9,1.2-0.8c0.5,0.1,0.9,0.6,0.8,1.1l-0.3,2c-0.1,0.5-0.6,0.9-1.2,0.8
						C166.8,192.1,166.4,191.6,166.5,191.1C166.5,191.1,166.5,191.1,166.5,191.1z"/>
					<path class="st4" d="M167.3,187.1l0.4-2c0.1-0.5,0.6-0.9,1.1-0.8c0.5,0.1,0.8,0.6,0.8,1.1l-0.3,2c-0.1,0.5-0.6,0.9-1.1,0.8
						C167.5,188.2,167.2,187.7,167.3,187.1C167.3,187.2,167.3,187.1,167.3,187.1z"/>
					<path class="st4" d="M168,183.2l0.4-2c0.1-0.5,0.6-0.8,1.1-0.7c0.5,0.1,0.8,0.6,0.7,1.1l-0.3,2c-0.1,0.5-0.6,0.8-1.1,0.8
						C168.3,184.2,167.9,183.7,168,183.2C168,183.2,168,183.2,168,183.2z"/>
					<path class="st4" d="M168.8,179.3l0.4-2c0.1-0.5,0.6-0.8,1-0.7c0.5,0.1,0.8,0.5,0.7,1l-0.3,2c-0.1,0.5-0.6,0.8-1,0.7
						S168.7,179.8,168.8,179.3C168.8,179.3,168.8,179.3,168.8,179.3z"/>
					<path class="st4" d="M169.5,175.4l0.4-2c0.1-0.5,0.5-0.8,1-0.7c0.5,0.1,0.8,0.5,0.7,1l-0.3,2c-0.1,0.5-0.5,0.8-1,0.7
						S169.4,175.8,169.5,175.4C169.5,175.4,169.5,175.4,169.5,175.4z"/>
					<path class="st4" d="M170.3,171.4l0.4-2c0.1-0.4,0.5-0.7,1-0.7c0.4,0.1,0.7,0.5,0.7,0.9l-0.3,2c-0.1,0.5-0.5,0.8-1,0.7
						C170.5,172.3,170.2,171.9,170.3,171.4C170.3,171.4,170.3,171.4,170.3,171.4z"/>
					<path class="st4" d="M171,167.5l0.4-2c0.1-0.4,0.5-0.7,0.9-0.6c0.4,0.1,0.7,0.5,0.6,0.9l-0.3,2c-0.1,0.4-0.5,0.7-0.9,0.7
						S170.9,167.9,171,167.5C171,167.5,171,167.5,171,167.5z"/>
					<path class="st4" d="M171.8,163.6l0.4-2c0.1-0.4,0.5-0.7,0.9-0.6c0.4,0.1,0.7,0.5,0.6,0.9l-0.3,2c-0.1,0.4-0.5,0.7-0.9,0.6
						C172,164.4,171.7,164,171.8,163.6C171.8,163.6,171.8,163.6,171.8,163.6z"/>
					<path class="st4" d="M172.5,159.6l0.4-2c0.1-0.4,0.5-0.7,0.9-0.6c0.4,0.1,0.6,0.4,0.6,0.8l-0.3,2c-0.1,0.4-0.5,0.7-0.9,0.6
						S172.4,160.1,172.5,159.6C172.5,159.6,172.5,159.6,172.5,159.6z"/>
					<path class="st4" d="M173.3,155.7l0.4-2c0.1-0.4,0.4-0.6,0.8-0.6c0.4,0.1,0.6,0.4,0.6,0.8l-0.3,2c-0.1,0.4-0.4,0.6-0.8,0.6
						C173.5,156.5,173.2,156.1,173.3,155.7C173.3,155.7,173.3,155.7,173.3,155.7z"/>
					<path class="st4" d="M174,151.8l0.4-2c0.1-0.4,0.4-0.6,0.8-0.5c0.4,0.1,0.6,0.4,0.5,0.8l-0.3,2c-0.1,0.4-0.4,0.6-0.8,0.6
						S173.9,152.2,174,151.8C174,151.8,174,151.8,174,151.8z"/>
					<path class="st4" d="M174.8,147.8l0.4-2c0.1-0.3,0.4-0.6,0.7-0.5c0.3,0.1,0.6,0.4,0.5,0.7l-0.3,2c-0.1,0.4-0.4,0.6-0.7,0.5
						C174.9,148.5,174.7,148.2,174.8,147.8C174.8,147.9,174.8,147.9,174.8,147.8z"/>
					<path class="st4" d="M175.5,143.9l0.4-2c0.1-0.3,0.4-0.5,0.7-0.5c0.3,0.1,0.5,0.4,0.5,0.7l-0.3,2c-0.1,0.3-0.4,0.6-0.7,0.5
						S175.5,144.3,175.5,143.9C175.5,143.9,175.5,143.9,175.5,143.9z"/>
					<path class="st4" d="M176.3,140l0.4-2c0.1-0.3,0.4-0.5,0.7-0.4c0.3,0.1,0.5,0.3,0.5,0.7l-0.3,2c-0.1,0.3-0.4,0.5-0.7,0.5
						C176.4,140.6,176.2,140.3,176.3,140C176.3,140,176.3,140,176.3,140z"/>
					<path class="st4" d="M177,136.1l0.4-2c0.1-0.3,0.3-0.5,0.6-0.4c0.3,0.1,0.5,0.3,0.4,0.6l-0.3,2c-0.1,0.3-0.3,0.5-0.6,0.4
						S177,136.4,177,136.1C177,136.1,177,136.1,177,136.1z"/>
					<path class="st4" d="M177.8,132.1l0.4-2c0.1-0.3,0.3-0.5,0.6-0.4c0.3,0.1,0.4,0.3,0.4,0.6l-0.3,2c0,0.3-0.3,0.5-0.6,0.4
						C177.9,132.7,177.7,132.4,177.8,132.1C177.8,132.1,177.8,132.1,177.8,132.1z"/>
					<path class="st4" d="M178.5,128.2l0.4-2c0-0.3,0.3-0.4,0.5-0.4c0.3,0,0.4,0.3,0.4,0.5l-0.3,2c0,0.3-0.3,0.4-0.6,0.4
						C178.6,128.7,178.5,128.5,178.5,128.2C178.5,128.2,178.5,128.2,178.5,128.2z"/>
					<path class="st4" d="M179.3,124.3l0.4-2c0-0.2,0.3-0.4,0.5-0.3c0.2,0,0.4,0.3,0.3,0.5l-0.3,2c0,0.2-0.3,0.4-0.5,0.4
						C179.4,124.8,179.2,124.5,179.3,124.3C179.3,124.3,179.3,124.3,179.3,124.3z"/>
					<path class="st4" d="M180,120.3l0.4-2c0-0.2,0.3-0.4,0.5-0.3c0.2,0,0.4,0.3,0.3,0.5l-0.3,2c0,0.2-0.3,0.4-0.5,0.3
						C180.1,120.8,180,120.6,180,120.3C180,120.3,180,120.3,180,120.3z"/>
				</g>
			</g>
			<g>
				<g>
					<path class="st4" d="M107.9,202.8l-0.4-2c-0.1-0.5,0.3-1,0.8-1.1c0.5-0.1,1,0.2,1.1,0.8l0.4,2c0.1,0.5-0.2,1.1-0.8,1.2
						C108.5,203.7,108,203.3,107.9,202.8C107.9,202.8,107.9,202.8,107.9,202.8z"/>
					<path class="st4" d="M107.1,198.8l-0.4-2c-0.1-0.5,0.2-1,0.8-1.1c0.5-0.1,1,0.2,1.1,0.7l0.4,2c0.1,0.5-0.2,1-0.7,1.1
						C107.7,199.7,107.2,199.4,107.1,198.8C107.1,198.9,107.1,198.8,107.1,198.8z"/>
					<path class="st4" d="M106.4,194.9l-0.4-2c-0.1-0.5,0.2-0.9,0.7-1c0.5-0.1,0.9,0.2,1,0.7l0.4,2c0.1,0.5-0.2,1-0.7,1.1
						C107,195.7,106.5,195.4,106.4,194.9C106.4,194.9,106.4,194.9,106.4,194.9z"/>
					<path class="st4" d="M105.7,191l-0.4-2c-0.1-0.5,0.2-0.9,0.7-1c0.5-0.1,0.9,0.2,1,0.7l0.4,2c0.1,0.5-0.2,0.9-0.7,1
						C106.3,191.8,105.8,191.5,105.7,191C105.7,191,105.7,191,105.7,191z"/>
					<path class="st4" d="M105,187l-0.4-2c-0.1-0.4,0.2-0.9,0.6-0.9c0.4-0.1,0.8,0.2,0.9,0.6l0.4,2c0.1,0.4-0.2,0.9-0.6,1
						C105.5,187.8,105.1,187.5,105,187C105,187,105,187,105,187z"/>
					<path class="st4" d="M104.3,183.1l-0.4-2c-0.1-0.4,0.2-0.8,0.6-0.9c0.4-0.1,0.8,0.2,0.9,0.6l0.4,2c0.1,0.4-0.2,0.8-0.6,0.9
						S104.4,183.5,104.3,183.1C104.3,183.1,104.3,183.1,104.3,183.1z"/>
					<path class="st4" d="M103.5,179.2l-0.4-2c-0.1-0.4,0.2-0.8,0.6-0.8c0.4-0.1,0.7,0.2,0.8,0.6l0.4,2c0.1,0.4-0.2,0.8-0.6,0.9
						C104,179.8,103.6,179.6,103.5,179.2C103.5,179.2,103.5,179.2,103.5,179.2z"/>
					<path class="st4" d="M102.8,175.2l-0.4-2c-0.1-0.4,0.2-0.7,0.5-0.8c0.4-0.1,0.7,0.2,0.8,0.5l0.4,2c0.1,0.4-0.2,0.7-0.5,0.8
						C103.3,175.9,102.9,175.6,102.8,175.2C102.8,175.2,102.8,175.2,102.8,175.2z"/>
					<path class="st4" d="M102.1,171.3l-0.4-2c-0.1-0.3,0.2-0.7,0.5-0.7c0.3-0.1,0.7,0.2,0.7,0.5l0.4,2c0.1,0.3-0.2,0.7-0.5,0.8
						C102.5,171.9,102.2,171.7,102.1,171.3C102.1,171.3,102.1,171.3,102.1,171.3z"/>
					<path class="st4" d="M101.4,167.4l-0.4-2c-0.1-0.3,0.2-0.6,0.5-0.7c0.3-0.1,0.6,0.1,0.7,0.5l0.4,2c0.1,0.3-0.1,0.6-0.5,0.7
						C101.8,167.9,101.5,167.7,101.4,167.4C101.4,167.4,101.4,167.4,101.4,167.4z"/>
					<path class="st4" d="M100.7,163.4l-0.4-2c-0.1-0.3,0.1-0.6,0.4-0.6c0.3-0.1,0.6,0.1,0.6,0.4l0.4,2c0.1,0.3-0.1,0.6-0.4,0.7
						C101,163.9,100.7,163.7,100.7,163.4C100.7,163.4,100.7,163.4,100.7,163.4z"/>
					<path class="st4" d="M100,159.5l-0.4-2c0-0.3,0.1-0.5,0.4-0.6c0.3,0,0.5,0.1,0.6,0.4l0.4,2c0.1,0.3-0.1,0.5-0.4,0.6
						C100.3,160,100,159.8,100,159.5C100,159.5,100,159.5,100,159.5z"/>
					<path class="st4" d="M99.2,155.6l-0.4-2c0-0.2,0.1-0.5,0.4-0.5c0.2,0,0.5,0.1,0.5,0.3l0.4,2c0.1,0.3-0.1,0.5-0.4,0.5
						C99.5,156,99.3,155.8,99.2,155.6C99.2,155.6,99.2,155.6,99.2,155.6z"/>
					<path class="st4" d="M98.5,151.6l-0.4-2c0-0.2,0.1-0.4,0.3-0.5c0.2,0,0.4,0.1,0.5,0.3l0.4,2c0,0.2-0.1,0.4-0.3,0.5
						C98.8,152,98.6,151.9,98.5,151.6C98.5,151.6,98.5,151.6,98.5,151.6z"/>
				</g>
			</g>
		</g>
	</g>
</g>
<g id="Layer_2" class="st26">
	<circle class="st59" cx="124" cy="141.3" r="98"/>
</g>
</svg>
