<?xml version="1.0" encoding="UTF-8" standalone="no"?>
<svg
   xmlns:dc="http://purl.org/dc/elements/1.1/"
   xmlns:cc="http://creativecommons.org/ns#"
   xmlns:rdf="http://www.w3.org/1999/02/22-rdf-syntax-ns#"
   xmlns:svg="http://www.w3.org/2000/svg"
   xmlns="http://www.w3.org/2000/svg"
   xmlns:sodipodi="http://sodipodi.sourceforge.net/DTD/sodipodi-0.dtd"
   xmlns:inkscape="http://www.inkscape.org/namespaces/inkscape"
   version="1.1"
   viewBox="0 0 799.99999 600"
   id="svg194"
   sodipodi:docname="angry-corona-virus.svg"
   inkscape:version="0.92.4 5da689c313, 2019-01-14"
   width="800"
   height="600">
  <metadata
     id="metadata200">
    <rdf:RDF>
      <cc:Work
         rdf:about="">
        <dc:format>image/svg+xml</dc:format>
        <dc:type
           rdf:resource="http://purl.org/dc/dcmitype/StillImage" />
        <dc:title></dc:title>
      </cc:Work>
    </rdf:RDF>
  </metadata>
  <defs
     id="defs198" />
  <sodipodi:namedview
     pagecolor="#fbd49d"
     bordercolor="#666666"
     borderopacity="1"
     objecttolerance="10"
     gridtolerance="10"
     guidetolerance="10"
     inkscape:pageopacity="1"
     inkscape:pageshadow="2"
     inkscape:window-width="2556"
     inkscape:window-height="1384"
     id="namedview196"
     showgrid="false"
     inkscape:zoom="0.47658474"
     inkscape:cx="-1014.4941"
     inkscape:cy="247.595"
     inkscape:window-x="0"
     inkscape:window-y="26"
     inkscape:window-maximized="0"
     inkscape:current-layer="svg194" />
  <g
     transform="matrix(1.211864,0,0,1.211864,-149.3417,-1421.1003)"
     id="g192">
    <g
       transform="translate(1219,-20.718)"
       id="g190">
      <path
         transform="matrix(1.337,0,0,1.337,-1198.4,992.04)"
         d="m 456,332.36 c 0,75.111 -60.889,136 -136,136 -75.111,0 -136,-60.889 -136,-136 0,-75.111 60.889,-136 136,-136 75.111,0 136,60.889 136,136 z"
         id="path2"
         inkscape:connector-curvature="0"
         style="fill:#5567cb" />
      <g
         transform="translate(-1145.5,904.06)"
         id="g134"
         style="fill:#d03232">
        <g
           transform="matrix(-1.1216,1.1216,-1.1216,-1.1216,1106.9,546.38)"
           id="g12">
          <path
             d="m 314.44,239.26 c 0.65468,1.9641 3.4849,2.7776 5.5552,2.7776 2.0703,0 4.9005,-0.81355 5.5552,-2.7776 0.65468,-1.9641 -1.4762,-0.0422 -2.7776,-5.5552 -1.3014,-5.513 -1.3014,-22.263 -1e-5,-27.776 1.30139,-5.513 2.4334,-4.0972 2.7776,-5.5552 0.34418,-1.458 0.42769,-1.7451 0,-2.7776 -0.42771,-1.0326 -1.4682,-2.7776 -2.7776,-2.7776 -1.3094,0 -1.4682,2.7776 -2.7776,2.7776 -1.3094,-1e-5 -1.4682,-2.7776 -2.7776,-2.7776 -1.3094,0 -2.3499,1.7451 -2.7776,2.7776 -0.42769,1.0326 -0.34418,1.3196 0,2.7776 0.3442,1.458 1.4762,0.0422 2.7776,5.5552 1.3014,5.513 1.3014,22.263 -10e-6,27.776 -1.30141,5.513 -3.4323,3.5912 -2.7776,5.5552 z"
             id="path4"
             inkscape:connector-curvature="0" />
          <path
             d="m 328,196.36 c 0,4.4183 -3.5817,8 -8,8 -4.4183,0 -8,-3.5817 -8,-8 0,-4.4183 3.5817,-8 8,-8 4.4183,0 8,3.5817 8,8 z"
             id="path6"
             inkscape:connector-curvature="0" />
          <path
             transform="translate(8,4)"
             d="m 328,196.36 c 0,4.4183 -3.5817,8 -8,8 -4.4183,0 -8,-3.5817 -8,-8 0,-4.4183 3.5817,-8 8,-8 4.4183,0 8,3.5817 8,8 z"
             id="path8"
             inkscape:connector-curvature="0" />
          <path
             transform="translate(-8,4)"
             d="m 328,196.36 c 0,4.4183 -3.5817,8 -8,8 -4.4183,0 -8,-3.5817 -8,-8 0,-4.4183 3.5817,-8 8,-8 4.4183,0 8,3.5817 8,8 z"
             id="path10"
             inkscape:connector-curvature="0" />
        </g>
        <g
           transform="matrix(-1.1216,-1.1216,1.1216,-1.1216,360.71,1265.3)"
           id="g22">
          <path
             d="m 314.44,239.26 c 0.65468,1.9641 3.4849,2.7776 5.5552,2.7776 2.0703,0 4.9005,-0.81355 5.5552,-2.7776 0.65468,-1.9641 -1.4762,-0.0422 -2.7776,-5.5552 -1.3014,-5.513 -1.3014,-22.263 -1e-5,-27.776 1.30139,-5.513 2.4334,-4.0972 2.7776,-5.5552 0.34418,-1.458 0.42769,-1.7451 0,-2.7776 -0.42771,-1.0326 -1.4682,-2.7776 -2.7776,-2.7776 -1.3094,0 -1.4682,2.7776 -2.7776,2.7776 -1.3094,-1e-5 -1.4682,-2.7776 -2.7776,-2.7776 -1.3094,0 -2.3499,1.7451 -2.7776,2.7776 -0.42769,1.0326 -0.34418,1.3196 0,2.7776 0.3442,1.458 1.4762,0.0422 2.7776,5.5552 1.3014,5.513 1.3014,22.263 -10e-6,27.776 -1.30141,5.513 -3.4323,3.5912 -2.7776,5.5552 z"
             id="path14"
             inkscape:connector-curvature="0" />
          <path
             d="m 328,196.36 c 0,4.4183 -3.5817,8 -8,8 -4.4183,0 -8,-3.5817 -8,-8 0,-4.4183 3.5817,-8 8,-8 4.4183,0 8,3.5817 8,8 z"
             id="path16"
             inkscape:connector-curvature="0" />
          <path
             transform="translate(8,4)"
             d="m 328,196.36 c 0,4.4183 -3.5817,8 -8,8 -4.4183,0 -8,-3.5817 -8,-8 0,-4.4183 3.5817,-8 8,-8 4.4183,0 8,3.5817 8,8 z"
             id="path18"
             inkscape:connector-curvature="0" />
          <path
             transform="translate(-8,4)"
             d="m 328,196.36 c 0,4.4183 -3.5817,8 -8,8 -4.4183,0 -8,-3.5817 -8,-8 0,-4.4183 3.5817,-8 8,-8 4.4183,0 8,3.5817 8,8 z"
             id="path20"
             inkscape:connector-curvature="0" />
        </g>
        <g
           transform="matrix(1.1216,-1.1216,1.1216,1.1216,-356.94,518.35)"
           id="g32">
          <path
             d="m 314.44,239.26 c 0.65468,1.9641 3.4849,2.7776 5.5552,2.7776 2.0703,0 4.9005,-0.81355 5.5552,-2.7776 0.65468,-1.9641 -1.4762,-0.0422 -2.7776,-5.5552 -1.3014,-5.513 -1.3014,-22.263 -1e-5,-27.776 1.30139,-5.513 2.4334,-4.0972 2.7776,-5.5552 0.34418,-1.458 0.42769,-1.7451 0,-2.7776 -0.42771,-1.0326 -1.4682,-2.7776 -2.7776,-2.7776 -1.3094,0 -1.4682,2.7776 -2.7776,2.7776 -1.3094,-1e-5 -1.4682,-2.7776 -2.7776,-2.7776 -1.3094,0 -2.3499,1.7451 -2.7776,2.7776 -0.42769,1.0326 -0.34418,1.3196 0,2.7776 0.3442,1.458 1.4762,0.0422 2.7776,5.5552 1.3014,5.513 1.3014,22.263 -10e-6,27.776 -1.30141,5.513 -3.4323,3.5912 -2.7776,5.5552 z"
             id="path24"
             inkscape:connector-curvature="0" />
          <path
             d="m 328,196.36 c 0,4.4183 -3.5817,8 -8,8 -4.4183,0 -8,-3.5817 -8,-8 0,-4.4183 3.5817,-8 8,-8 4.4183,0 8,3.5817 8,8 z"
             id="path26"
             inkscape:connector-curvature="0" />
          <path
             transform="translate(8,4)"
             d="m 328,196.36 c 0,4.4183 -3.5817,8 -8,8 -4.4183,0 -8,-3.5817 -8,-8 0,-4.4183 3.5817,-8 8,-8 4.4183,0 8,3.5817 8,8 z"
             id="path28"
             inkscape:connector-curvature="0" />
          <path
             transform="translate(-8,4)"
             d="m 328,196.36 c 0,4.4183 -3.5817,8 -8,8 -4.4183,0 -8,-3.5817 -8,-8 0,-4.4183 3.5817,-8 8,-8 4.4183,0 8,3.5817 8,8 z"
             id="path30"
             inkscape:connector-curvature="0" />
        </g>
        <g
           transform="matrix(1.5648,0.25992,-0.25992,1.5648,-23.459,-88.475)"
           id="g42">
          <path
             d="m 314.44,239.26 c 0.65468,1.9641 3.4849,2.7776 5.5552,2.7776 2.0703,0 4.9005,-0.81355 5.5552,-2.7776 0.65468,-1.9641 -1.4762,-0.0422 -2.7776,-5.5552 -1.3014,-5.513 -1.3014,-22.263 -1e-5,-27.776 1.30139,-5.513 2.4334,-4.0972 2.7776,-5.5552 0.34418,-1.458 0.42769,-1.7451 0,-2.7776 -0.42771,-1.0326 -1.4682,-2.7776 -2.7776,-2.7776 -1.3094,0 -1.4682,2.7776 -2.7776,2.7776 -1.3094,-1e-5 -1.4682,-2.7776 -2.7776,-2.7776 -1.3094,0 -2.3499,1.7451 -2.7776,2.7776 -0.42769,1.0326 -0.34418,1.3196 0,2.7776 0.3442,1.458 1.4762,0.0422 2.7776,5.5552 1.3014,5.513 1.3014,22.263 -10e-6,27.776 -1.30141,5.513 -3.4323,3.5912 -2.7776,5.5552 z"
             id="path34"
             inkscape:connector-curvature="0" />
          <path
             d="m 328,196.36 c 0,4.4183 -3.5817,8 -8,8 -4.4183,0 -8,-3.5817 -8,-8 0,-4.4183 3.5817,-8 8,-8 4.4183,0 8,3.5817 8,8 z"
             id="path36"
             inkscape:connector-curvature="0" />
          <path
             transform="translate(8,4)"
             d="m 328,196.36 c 0,4.4183 -3.5817,8 -8,8 -4.4183,0 -8,-3.5817 -8,-8 0,-4.4183 3.5817,-8 8,-8 4.4183,0 8,3.5817 8,8 z"
             id="path38"
             inkscape:connector-curvature="0" />
          <path
             transform="translate(-8,4)"
             d="m 328,196.36 c 0,4.4183 -3.5817,8 -8,8 -4.4183,0 -8,-3.5817 -8,-8 0,-4.4183 3.5817,-8 8,-8 4.4183,0 8,3.5817 8,8 z"
             id="path40"
             inkscape:connector-curvature="0" />
        </g>
        <g
           transform="matrix(1.4655,0.60703,-0.60703,1.4655,95.299,-94.164)"
           id="g52">
          <path
             d="m 314.44,239.26 c 0.65468,1.9641 3.4849,2.7776 5.5552,2.7776 2.0703,0 4.9005,-0.81355 5.5552,-2.7776 0.65468,-1.9641 -1.4762,-0.0422 -2.7776,-5.5552 -1.3014,-5.513 -1.3014,-5.4051 -1e-5,-10.918 1.3014,-5.513 2.4334,-4.0972 2.7776,-5.5552 0.34418,-1.458 0.42769,-1.7451 0,-2.7776 -0.42771,-1.0326 -1.4682,-2.7776 -2.7776,-2.7776 -1.3094,0 -1.4682,2.7776 -2.7776,2.7776 -1.3094,-1e-5 -1.4682,-2.7776 -2.7776,-2.7776 -1.3094,0 -2.3499,1.7451 -2.7776,2.7776 -0.42769,1.0326 -0.34418,1.3196 0,2.7776 0.3442,1.458 1.4762,0.0422 2.7776,5.5552 1.3014,5.513 1.3014,5.4051 -10e-6,10.918 -1.3014,5.513 -3.4323,3.5912 -2.7776,5.5552 z"
             id="path44"
             inkscape:connector-curvature="0" />
          <path
             transform="translate(0,16.858)"
             d="m 328,196.36 c 0,4.4183 -3.5817,8 -8,8 -4.4183,0 -8,-3.5817 -8,-8 0,-4.4183 3.5817,-8 8,-8 4.4183,0 8,3.5817 8,8 z"
             id="path46"
             inkscape:connector-curvature="0" />
          <path
             transform="translate(8,20.858)"
             d="m 328,196.36 c 0,4.4183 -3.5817,8 -8,8 -4.4183,0 -8,-3.5817 -8,-8 0,-4.4183 3.5817,-8 8,-8 4.4183,0 8,3.5817 8,8 z"
             id="path48"
             inkscape:connector-curvature="0" />
          <path
             transform="translate(-8,20.858)"
             d="m 328,196.36 c 0,4.4183 -3.5817,8 -8,8 -4.4183,0 -8,-3.5817 -8,-8 0,-4.4183 3.5817,-8 8,-8 4.4183,0 8,3.5817 8,8 z"
             id="path50"
             inkscape:connector-curvature="0" />
        </g>
        <g
           transform="matrix(0.96584,1.2583,-1.2583,0.96584,499.16,-204.53)"
           id="g62">
          <path
             d="m 314.44,239.26 c 0.65468,1.9641 3.4849,2.7776 5.5552,2.7776 2.0703,0 4.9005,-0.81355 5.5552,-2.7776 0.65468,-1.9641 -1.4762,-0.0422 -2.7776,-5.5552 -1.3014,-5.513 -1.3014,-22.263 -1e-5,-27.776 1.30139,-5.513 2.4334,-4.0972 2.7776,-5.5552 0.34418,-1.458 0.42769,-1.7451 0,-2.7776 -0.42771,-1.0326 -1.4682,-2.7776 -2.7776,-2.7776 -1.3094,0 -1.4682,2.7776 -2.7776,2.7776 -1.3094,-1e-5 -1.4682,-2.7776 -2.7776,-2.7776 -1.3094,0 -2.3499,1.7451 -2.7776,2.7776 -0.42769,1.0326 -0.34418,1.3196 0,2.7776 0.3442,1.458 1.4762,0.0422 2.7776,5.5552 1.3014,5.513 1.3014,22.263 -10e-6,27.776 -1.30141,5.513 -3.4323,3.5912 -2.7776,5.5552 z"
             id="path54"
             inkscape:connector-curvature="0" />
          <path
             d="m 328,196.36 c 0,4.4183 -3.5817,8 -8,8 -4.4183,0 -8,-3.5817 -8,-8 0,-4.4183 3.5817,-8 8,-8 4.4183,0 8,3.5817 8,8 z"
             id="path56"
             inkscape:connector-curvature="0" />
          <path
             transform="translate(8,4)"
             d="m 328,196.36 c 0,4.4183 -3.5817,8 -8,8 -4.4183,0 -8,-3.5817 -8,-8 0,-4.4183 3.5817,-8 8,-8 4.4183,0 8,3.5817 8,8 z"
             id="path58"
             inkscape:connector-curvature="0" />
          <path
             transform="translate(-8,4)"
             d="m 328,196.36 c 0,4.4183 -3.5817,8 -8,8 -4.4183,0 -8,-3.5817 -8,-8 0,-4.4183 3.5817,-8 8,-8 4.4183,0 8,3.5817 8,8 z"
             id="path60"
             inkscape:connector-curvature="0" />
        </g>
        <g
           transform="matrix(0.31435,1.5548,-1.5548,0.31435,745.1,-30.977)"
           id="g72">
          <path
             d="m 314.44,239.26 c 0.65468,1.9641 3.4849,2.7776 5.5552,2.7776 2.0703,0 4.9005,-0.81355 5.5552,-2.7776 0.65468,-1.9641 -1.4762,-0.0422 -2.7776,-5.5552 -1.3014,-5.513 -1.3014,-5.4051 -1e-5,-10.918 1.3014,-5.513 2.4334,-4.0972 2.7776,-5.5552 0.34418,-1.458 0.42769,-1.7451 0,-2.7776 -0.42771,-1.0326 -1.4682,-2.7776 -2.7776,-2.7776 -1.3094,0 -1.4682,2.7776 -2.7776,2.7776 -1.3094,-1e-5 -1.4682,-2.7776 -2.7776,-2.7776 -1.3094,0 -2.3499,1.7451 -2.7776,2.7776 -0.42769,1.0326 -0.34418,1.3196 0,2.7776 0.3442,1.458 1.4762,0.0422 2.7776,5.5552 1.3014,5.513 1.3014,5.4051 -10e-6,10.918 -1.3014,5.513 -3.4323,3.5912 -2.7776,5.5552 z"
             id="path64"
             inkscape:connector-curvature="0" />
          <path
             transform="translate(0,16.858)"
             d="m 328,196.36 c 0,4.4183 -3.5817,8 -8,8 -4.4183,0 -8,-3.5817 -8,-8 0,-4.4183 3.5817,-8 8,-8 4.4183,0 8,3.5817 8,8 z"
             id="path66"
             inkscape:connector-curvature="0" />
          <path
             transform="translate(8,20.858)"
             d="m 328,196.36 c 0,4.4183 -3.5817,8 -8,8 -4.4183,0 -8,-3.5817 -8,-8 0,-4.4183 3.5817,-8 8,-8 4.4183,0 8,3.5817 8,8 z"
             id="path68"
             inkscape:connector-curvature="0" />
          <path
             transform="translate(-8,20.858)"
             d="m 328,196.36 c 0,4.4183 -3.5817,8 -8,8 -4.4183,0 -8,-3.5817 -8,-8 0,-4.4183 3.5817,-8 8,-8 4.4183,0 8,3.5817 8,8 z"
             id="path70"
             inkscape:connector-curvature="0" />
        </g>
        <g
           transform="matrix(-1.3435,-0.84328,0.84328,-1.3435,571.13,1226.2)"
           id="g82">
          <path
             d="m 314.44,239.26 c 0.65468,1.9641 3.4849,2.7776 5.5552,2.7776 2.0703,0 4.9005,-0.81355 5.5552,-2.7776 0.65468,-1.9641 -1.4762,-0.0422 -2.7776,-5.5552 -1.3014,-5.513 -1.3014,-5.4051 -1e-5,-10.918 1.3014,-5.513 2.4334,-4.0972 2.7776,-5.5552 0.34418,-1.458 0.42769,-1.7451 0,-2.7776 -0.42771,-1.0326 -1.4682,-2.7776 -2.7776,-2.7776 -1.3094,0 -1.4682,2.7776 -2.7776,2.7776 -1.3094,-1e-5 -1.4682,-2.7776 -2.7776,-2.7776 -1.3094,0 -2.3499,1.7451 -2.7776,2.7776 -0.42769,1.0326 -0.34418,1.3196 0,2.7776 0.3442,1.458 1.4762,0.0422 2.7776,5.5552 1.3014,5.513 1.3014,5.4051 -10e-6,10.918 -1.3014,5.513 -3.4323,3.5912 -2.7776,5.5552 z"
             id="path74"
             inkscape:connector-curvature="0" />
          <path
             transform="translate(0,16.858)"
             d="m 328,196.36 c 0,4.4183 -3.5817,8 -8,8 -4.4183,0 -8,-3.5817 -8,-8 0,-4.4183 3.5817,-8 8,-8 4.4183,0 8,3.5817 8,8 z"
             id="path76"
             inkscape:connector-curvature="0" />
          <path
             transform="translate(8,20.858)"
             d="m 328,196.36 c 0,4.4183 -3.5817,8 -8,8 -4.4183,0 -8,-3.5817 -8,-8 0,-4.4183 3.5817,-8 8,-8 4.4183,0 8,3.5817 8,8 z"
             id="path78"
             inkscape:connector-curvature="0" />
          <path
             transform="translate(-8,20.858)"
             d="m 328,196.36 c 0,4.4183 -3.5817,8 -8,8 -4.4183,0 -8,-3.5817 -8,-8 0,-4.4183 3.5817,-8 8,-8 4.4183,0 8,3.5817 8,8 z"
             id="path80"
             inkscape:connector-curvature="0" />
        </g>
        <g
           transform="matrix(0.14057,-1.58,1.58,0.14057,-147.22,1010)"
           id="g92">
          <path
             d="m 314.44,239.26 c 0.65468,1.9641 3.4849,2.7776 5.5552,2.7776 2.0703,0 4.9005,-0.81355 5.5552,-2.7776 0.65468,-1.9641 -1.4762,-0.0422 -2.7776,-5.5552 -1.3014,-5.513 -1.3014,-5.4051 -1e-5,-10.918 1.3014,-5.513 2.4334,-4.0972 2.7776,-5.5552 0.34418,-1.458 0.42769,-1.7451 0,-2.7776 -0.42771,-1.0326 -1.4682,-2.7776 -2.7776,-2.7776 -1.3094,0 -1.4682,2.7776 -2.7776,2.7776 -1.3094,-1e-5 -1.4682,-2.7776 -2.7776,-2.7776 -1.3094,0 -2.3499,1.7451 -2.7776,2.7776 -0.42769,1.0326 -0.34418,1.3196 0,2.7776 0.3442,1.458 1.4762,0.0422 2.7776,5.5552 1.3014,5.513 1.3014,5.4051 -10e-6,10.918 -1.3014,5.513 -3.4323,3.5912 -2.7776,5.5552 z"
             id="path84"
             inkscape:connector-curvature="0" />
          <path
             transform="translate(0,16.858)"
             d="m 328,196.36 c 0,4.4183 -3.5817,8 -8,8 -4.4183,0 -8,-3.5817 -8,-8 0,-4.4183 3.5817,-8 8,-8 4.4183,0 8,3.5817 8,8 z"
             id="path86"
             inkscape:connector-curvature="0" />
          <path
             transform="translate(8,20.858)"
             d="m 328,196.36 c 0,4.4183 -3.5817,8 -8,8 -4.4183,0 -8,-3.5817 -8,-8 0,-4.4183 3.5817,-8 8,-8 4.4183,0 8,3.5817 8,8 z"
             id="path88"
             inkscape:connector-curvature="0" />
          <path
             transform="translate(-8,20.858)"
             d="m 328,196.36 c 0,4.4183 -3.5817,8 -8,8 -4.4183,0 -8,-3.5817 -8,-8 0,-4.4183 3.5817,-8 8,-8 4.4183,0 8,3.5817 8,8 z"
             id="path90"
             inkscape:connector-curvature="0" />
        </g>
        <g
           transform="matrix(-0.7184,1.4142,-1.4142,-0.7184,1105.9,291.83)"
           id="g102">
          <path
             d="m 314.44,239.26 c 0.65468,1.9641 3.4849,2.7776 5.5552,2.7776 2.0703,0 4.9005,-0.81355 5.5552,-2.7776 0.65468,-1.9641 -1.4762,-0.0422 -2.7776,-5.5552 -1.3014,-5.513 -1.3014,-22.263 -1e-5,-27.776 1.30139,-5.513 2.4334,-4.0972 2.7776,-5.5552 0.34418,-1.458 0.42769,-1.7451 0,-2.7776 -0.42771,-1.0326 -1.4682,-2.7776 -2.7776,-2.7776 -1.3094,0 -1.4682,2.7776 -2.7776,2.7776 -1.3094,-1e-5 -1.4682,-2.7776 -2.7776,-2.7776 -1.3094,0 -2.3499,1.7451 -2.7776,2.7776 -0.42769,1.0326 -0.34418,1.3196 0,2.7776 0.3442,1.458 1.4762,0.0422 2.7776,5.5552 1.3014,5.513 1.3014,22.263 -10e-6,27.776 -1.30141,5.513 -3.4323,3.5912 -2.7776,5.5552 z"
             id="path94"
             inkscape:connector-curvature="0" />
          <path
             d="m 328,196.36 c 0,4.4183 -3.5817,8 -8,8 -4.4183,0 -8,-3.5817 -8,-8 0,-4.4183 3.5817,-8 8,-8 4.4183,0 8,3.5817 8,8 z"
             id="path96"
             inkscape:connector-curvature="0" />
          <path
             transform="translate(8,4)"
             d="m 328,196.36 c 0,4.4183 -3.5817,8 -8,8 -4.4183,0 -8,-3.5817 -8,-8 0,-4.4183 3.5817,-8 8,-8 4.4183,0 8,3.5817 8,8 z"
             id="path98"
             inkscape:connector-curvature="0" />
          <path
             transform="translate(-8,4)"
             d="m 328,196.36 c 0,4.4183 -3.5817,8 -8,8 -4.4183,0 -8,-3.5817 -8,-8 0,-4.4183 3.5817,-8 8,-8 4.4183,0 8,3.5817 8,8 z"
             id="path100"
             inkscape:connector-curvature="0" />
        </g>
        <g
           transform="matrix(-1.5322,0.41055,-0.41055,-1.5322,1002.6,911.22)"
           id="g112">
          <path
             d="m 314.44,239.26 c 0.65468,1.9641 3.4849,2.7776 5.5552,2.7776 2.0703,0 4.9005,-0.81355 5.5552,-2.7776 0.65468,-1.9641 -1.4762,-0.0422 -2.7776,-5.5552 -1.3014,-5.513 -1.3014,-22.263 -1e-5,-27.776 1.30139,-5.513 2.4334,-4.0972 2.7776,-5.5552 0.34418,-1.458 0.42769,-1.7451 0,-2.7776 -0.42771,-1.0326 -1.4682,-2.7776 -2.7776,-2.7776 -1.3094,0 -1.4682,2.7776 -2.7776,2.7776 -1.3094,-1e-5 -1.4682,-2.7776 -2.7776,-2.7776 -1.3094,0 -2.3499,1.7451 -2.7776,2.7776 -0.42769,1.0326 -0.34418,1.3196 0,2.7776 0.3442,1.458 1.4762,0.0422 2.7776,5.5552 1.3014,5.513 1.3014,22.263 -10e-6,27.776 -1.30141,5.513 -3.4323,3.5912 -2.7776,5.5552 z"
             id="path104"
             inkscape:connector-curvature="0" />
          <path
             d="m 328,196.36 c 0,4.4183 -3.5817,8 -8,8 -4.4183,0 -8,-3.5817 -8,-8 0,-4.4183 3.5817,-8 8,-8 4.4183,0 8,3.5817 8,8 z"
             id="path106"
             inkscape:connector-curvature="0" />
          <path
             transform="translate(8,4)"
             d="m 328,196.36 c 0,4.4183 -3.5817,8 -8,8 -4.4183,0 -8,-3.5817 -8,-8 0,-4.4183 3.5817,-8 8,-8 4.4183,0 8,3.5817 8,8 z"
             id="path108"
             inkscape:connector-curvature="0" />
          <path
             transform="translate(-8,4)"
             d="m 328,196.36 c 0,4.4183 -3.5817,8 -8,8 -4.4183,0 -8,-3.5817 -8,-8 0,-4.4183 3.5817,-8 8,-8 4.4183,0 8,3.5817 8,8 z"
             id="path110"
             inkscape:connector-curvature="0" />
        </g>
        <g
           transform="matrix(-0.75362,-1.3958,1.3958,-0.75362,139.37,1230.8)"
           id="g122">
          <path
             d="m 314.44,239.26 c 0.65468,1.9641 3.4849,2.7776 5.5552,2.7776 2.0703,0 4.9005,-0.81355 5.5552,-2.7776 0.65468,-1.9641 -1.4762,-0.0422 -2.7776,-5.5552 -1.3014,-5.513 -1.3014,-22.263 -1e-5,-27.776 1.30139,-5.513 2.4334,-4.0972 2.7776,-5.5552 0.34418,-1.458 0.42769,-1.7451 0,-2.7776 -0.42771,-1.0326 -1.4682,-2.7776 -2.7776,-2.7776 -1.3094,0 -1.4682,2.7776 -2.7776,2.7776 -1.3094,-1e-5 -1.4682,-2.7776 -2.7776,-2.7776 -1.3094,0 -2.3499,1.7451 -2.7776,2.7776 -0.42769,1.0326 -0.34418,1.3196 0,2.7776 0.3442,1.458 1.4762,0.0422 2.7776,5.5552 1.3014,5.513 1.3014,22.263 -10e-6,27.776 -1.30141,5.513 -3.4323,3.5912 -2.7776,5.5552 z"
             id="path114"
             inkscape:connector-curvature="0" />
          <path
             d="m 328,196.36 c 0,4.4183 -3.5817,8 -8,8 -4.4183,0 -8,-3.5817 -8,-8 0,-4.4183 3.5817,-8 8,-8 4.4183,0 8,3.5817 8,8 z"
             id="path116"
             inkscape:connector-curvature="0" />
          <path
             transform="translate(8,4)"
             d="m 328,196.36 c 0,4.4183 -3.5817,8 -8,8 -4.4183,0 -8,-3.5817 -8,-8 0,-4.4183 3.5817,-8 8,-8 4.4183,0 8,3.5817 8,8 z"
             id="path118"
             inkscape:connector-curvature="0" />
          <path
             transform="translate(-8,4)"
             d="m 328,196.36 c 0,4.4183 -3.5817,8 -8,8 -4.4183,0 -8,-3.5817 -8,-8 0,-4.4183 3.5817,-8 8,-8 4.4183,0 8,3.5817 8,8 z"
             id="path120"
             inkscape:connector-curvature="0" />
        </g>
        <g
           transform="matrix(0.41055,-1.5322,1.5322,0.41055,-266.92,886.47)"
           id="g132">
          <path
             d="m 314.44,239.26 c 0.65468,1.9641 3.4849,2.7776 5.5552,2.7776 2.0703,0 4.9005,-0.81355 5.5552,-2.7776 0.65468,-1.9641 -1.4762,-0.0422 -2.7776,-5.5552 -1.3014,-5.513 -1.3014,-22.263 -1e-5,-27.776 1.30139,-5.513 2.4334,-4.0972 2.7776,-5.5552 0.34418,-1.458 0.42769,-1.7451 0,-2.7776 -0.42771,-1.0326 -1.4682,-2.7776 -2.7776,-2.7776 -1.3094,0 -1.4682,2.7776 -2.7776,2.7776 -1.3094,-1e-5 -1.4682,-2.7776 -2.7776,-2.7776 -1.3094,0 -2.3499,1.7451 -2.7776,2.7776 -0.42769,1.0326 -0.34418,1.3196 0,2.7776 0.3442,1.458 1.4762,0.0422 2.7776,5.5552 1.3014,5.513 1.3014,22.263 -10e-6,27.776 -1.30141,5.513 -3.4323,3.5912 -2.7776,5.5552 z"
             id="path124"
             inkscape:connector-curvature="0" />
          <path
             d="m 328,196.36 c 0,4.4183 -3.5817,8 -8,8 -4.4183,0 -8,-3.5817 -8,-8 0,-4.4183 3.5817,-8 8,-8 4.4183,0 8,3.5817 8,8 z"
             id="path126"
             inkscape:connector-curvature="0" />
          <path
             transform="translate(8,4)"
             d="m 328,196.36 c 0,4.4183 -3.5817,8 -8,8 -4.4183,0 -8,-3.5817 -8,-8 0,-4.4183 3.5817,-8 8,-8 4.4183,0 8,3.5817 8,8 z"
             id="path128"
             inkscape:connector-curvature="0" />
          <path
             transform="translate(-8,4)"
             d="m 328,196.36 c 0,4.4183 -3.5817,8 -8,8 -4.4183,0 -8,-3.5817 -8,-8 0,-4.4183 3.5817,-8 8,-8 4.4183,0 8,3.5817 8,8 z"
             id="path130"
             inkscape:connector-curvature="0" />
        </g>
      </g>
      <g
         transform="translate(-1145.5,904.06)"
         id="g164"
         style="fill:#43bf74">
        <path
           d="m 364.66,373.37 c 1.2186,3.6557 6.4864,5.1699 10.34,5.1699 3.8534,0 9.1213,-1.5142 10.34,-5.1699 1.2186,-3.6557 -2.7476,-0.0786 -5.1699,-10.34 -2.4223,-10.2614 -2.4223,-41.438 0,-51.699 2.4223,-10.261 4.5293,-7.6261 5.1699,-10.34 0.64063,-2.7138 0.79606,-3.248 0,-5.1699 -0.79607,-1.9219 -2.7328,-5.1699 -5.1699,-5.1699 -2.4371,0 -2.7328,5.1699 -5.1699,5.1699 -2.4371,0 -2.7328,-5.1699 -5.1699,-5.1699 -2.4371,0 -4.3738,3.248 -5.1699,5.1699 -0.79606,1.9219 -0.64063,2.4562 0,5.1699 0.64063,2.7138 2.7476,0.0786 5.1699,10.34 2.4223,10.2614 2.4223,41.438 0,51.699 -2.4223,10.261 -6.3885,6.6842 -5.1699,10.34 z"
           id="path136"
           inkscape:connector-curvature="0" />
        <path
           d="m 337.81,453.53 c 3.0035,2.4142 8.2525,0.83576 11.492,-1.2502 3.24,-2.0859 6.8497,-6.2107 5.8954,-9.9441 -0.95429,-3.7334 -2.3528,1.4212 -9.9441,-5.8954 -7.5913,-7.3165 -9.9925,-11.046 -13.51,-20.985 -3.5178,-9.939 -0.31981,-8.8639 -1.2502,-11.492 -0.93036,-2.6286 -1.0889,-3.1619 -2.7986,-4.347 -1.7097,-1.185 -5.0963,-2.8677 -7.1455,-1.5484 -2.0492,1.3193 0.50079,5.8263 -1.5484,7.1455 -2.04919,1.3192 -5.0963,-2.8676 -7.1455,-1.5484 -2.0492,1.3192 -1.9194,5.0986 -1.5484,7.1455 0.371,2.0469 0.7909,2.412 2.7986,4.347 2.0076,1.935 2.3528,-1.4212 9.9441,5.8954 7.5913,7.3166 9.9925,11.046 13.51,20.985 3.5178,9.9391 -1.7533,9.0784 1.2502,11.492 z"
           id="path138"
           inkscape:connector-curvature="0" />
        <path
           d="m 455.48,493.14 c -2.6325,2.814 -1.452,8.1666 0.38523,11.554 1.8372,3.3873 5.6798,7.2959 9.4742,6.6241 3.7944,-0.67177 -1.2409,-2.4527 6.6242,-9.4742 7.865,-7.0216 11.764,-9.1364 21.939,-11.899 10.175,-2.763 8.8629,0.34548 11.554,-0.38524 2.6909,-0.7307 3.2347,-0.8488 4.5445,-2.4649 1.3098,-1.616 3.2416,-4.8671 2.0796,-7.0094 -1.162,-2.1423 -5.8474,0.0627 -7.0094,-2.0796 -1.162,-2.1423 3.2416,-4.8671 2.0796,-7.0094 -1.162,-2.1423 -4.9404,-2.2962 -7.0094,-2.0796 -2.0689,0.21652 -2.4645,0.60788 -4.5445,2.4649 -2.08,1.85702 1.2409,2.4527 -6.6241,9.4742 -7.865,7.0216 -11.764,9.1364 -21.939,11.899 -10.175,2.763 -8.9214,-2.4288 -11.554,0.38524 z"
           id="path140"
           inkscape:connector-curvature="0" />
        <path
           d="m 300.17,585.45 c 3.1618,-2.2027 3.1243,-7.6838 2.0344,-11.38 -1.0898,-3.6961 -4.0322,-8.3206 -7.8832,-8.4555 -3.851,-0.13489 0.7017,2.6576 -8.4555,7.8832 -9.1571,5.2256 -13.412,6.4802 -23.939,7.0589 -10.527,0.5787 -8.5957,-2.1875 -11.38,-2.0345 -2.7842,0.15306 -3.3406,0.15508 -4.9588,1.4622 -1.6182,1.30712 -4.1859,4.0834 -3.4966,6.421 0.68929,2.3376 5.7317,1.159 6.421,3.4966 0.68928,2.3376 -4.1859,4.0834 -3.4966,6.421 0.68929,2.3376 4.3525,3.2766 6.421,3.4966 2.0685,0.21999 2.537,-0.0802 4.9588,-1.4622 2.4218,-1.382 -0.7017,-2.6576 8.4555,-7.8832 9.1572,-5.2256 13.412,-6.4801 23.939,-7.0589 10.527,-0.57871 8.2181,4.2372 11.38,2.0344 z"
           id="path142"
           inkscape:connector-curvature="0" />
        <path
           d="m 476.26,568.46 c -3.6673,-1.1832 -8.0072,2.1646 -10.289,5.2696 -2.2822,3.1049 -4.1819,8.2464 -1.958,11.393 2.2239,3.1469 1.6906,-2.1673 11.393,1.958 9.7027,4.1253 13.277,6.7523 20.11,14.781 6.8335,8.0289 3.4624,8.166 5.2696,10.289 1.8072,2.1234 2.1457,2.5651 4.1657,3.0618 2.02,0.49678 5.7842,0.85986 7.2275,-1.1039 1.4434,-1.9637 -2.5472,-5.2638 -1.1039,-7.2276 1.4434,-1.9637 5.7842,0.85986 7.2275,-1.1039 1.4434,-1.9637 -0.0268,-5.4479 -1.1039,-7.2275 -1.0771,-1.7796 -1.5997,-1.9708 -4.1657,-3.0618 -2.5661,-1.091 -1.6906,2.1673 -11.393,-1.958 -9.7027,-4.1253 -13.277,-6.7523 -20.11,-14.781 -6.8335,-8.0289 -1.6023,-9.1062 -5.2696,-10.289 z"
           id="path144"
           inkscape:connector-curvature="0" />
        <path
           d="m 452.69,377.13 c -0.77254,3.7752 3.0324,7.7205 6.3696,9.6472 3.3372,1.9267 8.6564,3.2493 11.54,0.69264 2.8831,-2.5566 -2.3402,-1.4419 0.69264,-11.54 3.03284,-10.0981 18.621,-37.097 25.85,-44.773 7.2284,-7.6753 7.7355,-4.3397 9.6472,-6.3696 1.9117,-2.0299 2.3134,-2.4148 2.585,-4.4773 0.27151,-2.0624 0.21829,-5.8437 -1.8923,-7.0622 -2.1106,-1.2186 -4.9516,3.1109 -7.0622,1.8923 -2.1106,-1.2186 0.21828,-5.8436 -1.8923,-7.0622 -2.11058,-1.2186 -5.4119,0.62598 -7.0622,1.8923 -1.6503,1.2664 -1.7829,1.8068 -2.585,4.4773 -0.80207,2.6705 2.3402,1.4419 -0.69263,11.54 -3.03283,10.0981 -18.621,37.098 -25.85,44.773 -7.2284,7.6753 -8.8747,2.5944 -9.6472,6.3696 z"
           id="path146"
           inkscape:connector-curvature="0" />
        <path
           d="m 527.31,448.82 c -2.8777,2.5628 -2.1893,8.0005 -0.66804,11.541 1.5212,3.5404 4.9921,7.7826 8.8319,7.459 3.8398,-0.32359 -1.0125,-2.5554 7.459,-8.8319 8.4714,-6.2765 37.116,-18.584 47.5,-20.41 10.384,-1.8253 8.7947,1.1507 11.541,0.66804 2.7462,-0.48274 3.2985,-0.55086 4.75,-2.041 1.4515,-1.49014 3.6712,-4.5518 2.709,-6.791 -0.96212,-2.2392 -5.8288,-0.46986 -6.791,-2.709 -0.96213,-2.2392 3.6712,-4.5518 2.709,-6.791 -0.96212,-2.2392 -4.7109,-2.7363 -6.791,-2.709 -2.08,0.0273 -2.5096,0.38104 -4.75,2.041 -2.2404,1.6599 1.0125,2.5554 -7.459,8.8319 -8.4714,6.2765 -37.116,18.584 -47.5,20.41 -10.384,1.8253 -8.6633,-3.2308 -11.541,-0.66803 z"
           id="path148"
           inkscape:connector-curvature="0" />
        <path
           d="m 544.25,499.86 c -3.3644,1.8788 -3.8699,7.3366 -3.1514,11.122 0.71845,3.7858 3.1883,8.679 7.0071,9.1946 3.8188,0.51561 -0.43506,-2.714 9.1946,-7.0071 9.6296,-4.293 40.26,-10.106 50.793,-9.6392 10.533,0.46668 8.3368,3.028 11.122,3.1514 2.7856,0.12343 3.3395,0.17652 5.0792,-0.96392 1.7397,-1.14044 4.5698,-3.6488 4.1154,-6.0432 -0.4544,-2.3944 -5.5888,-1.721 -6.0432,-4.1154 -0.45442,-2.3944 4.5697,-3.6488 4.1153,-6.0432 -0.45439,-2.3944 -4.0066,-3.6916 -6.0432,-4.1153 -2.0366,-0.42378 -2.5325,-0.17146 -5.0793,0.96392 -2.5467,1.1354 0.43506,2.714 -9.1946,7.0071 -9.6296,4.293 -40.26,10.106 -50.793,9.6392 -10.533,-0.46667 -7.7581,-5.0302 -11.122,-3.1514 z"
           id="path150"
           inkscape:connector-curvature="0" />
        <path
           d="m 470.6,677.26 c -2.8831,-2.5566 -8.2024,-1.2341 -11.54,0.69265 -3.3372,1.9267 -7.1421,5.872 -6.3696,9.6472 0.77253,3.7752 2.4188,-1.3057 9.6472,6.3696 7.2284,7.6753 22.817,34.675 25.85,44.773 3.0328,10.098 -0.10937,8.869 0.69264,11.54 0.80207,2.6705 0.93461,3.2109 2.585,4.4773 1.65039,1.2664 4.9516,3.1109 7.0622,1.8923 2.1106,-1.2186 -0.2183,-5.8437 1.8923,-7.0622 2.1106,-1.2186 4.9516,3.1109 7.0622,1.8923 2.1106,-1.2186 2.1638,-4.9998 1.8923,-7.0622 -0.27153,-2.0624 -0.67327,-2.4474 -2.585,-4.4773 -1.91173,-2.0299 -2.4188,1.3057 -9.6472,-6.3696 -7.2284,-7.6753 -22.817,-34.675 -25.85,-44.773 -3.0328,-10.098 2.1905,-8.9829 -0.69265,-11.54 z"
           id="path152"
           inkscape:connector-curvature="0" />
        <path
           d="m 358.3,704.92 c -0.37081,-3.8355 -5.1671,-6.4887 -8.923,-7.3498 -3.756,-0.86111 -9.229,-0.56236 -11.234,2.7286 -2.0047,3.2909 2.6605,0.69061 2.7286,11.234 0.0681,10.54339 -6.8989,40.931 -11.553,50.392 -4.6541,9.4604 -6.1188,6.4211 -7.3498,8.923 -1.2309,2.502 -1.5018,2.988 -1.1553,5.0392 0.34646,2.0512 1.5084,5.6499 3.8839,6.1945 2.3755,0.54463 3.819,-4.4285 6.1945,-3.8839 2.3755,0.54462 1.5084,5.6499 3.8839,6.1945 2.3755,0.54461 4.989,-2.1885 6.1945,-3.8839 1.2054,-1.6954 1.1733,-2.2509 1.1553,-5.0392 -0.018,-2.7883 -2.6605,-0.6906 -2.7286,-11.234 -0.0681,-10.5434 6.8989,-40.931 11.553,-50.392 4.6541,-9.4604 7.7206,-5.0875 7.3498,-8.9231 z"
           id="path154"
           inkscape:connector-curvature="0" />
        <path
           d="m 297.31,687.6 c 0.77254,-3.7752 -3.0324,-7.7205 -6.3696,-9.6472 -3.3372,-1.9267 -8.6564,-3.2493 -11.54,-0.69263 -2.8831,2.5566 2.3402,1.4419 -0.69263,11.54 -3.03283,10.0981 -18.621,37.097 -25.85,44.773 -7.2284,7.6753 -7.7355,4.3398 -9.6472,6.3696 -1.9117,2.0299 -2.3134,2.4148 -2.585,4.4773 -0.27151,2.0624 -0.2183,5.8437 1.8923,7.0622 2.1106,1.2186 4.9516,-3.1109 7.0622,-1.8923 2.1106,1.2186 -0.21828,5.8436 1.8923,7.0622 2.11058,1.2186 5.4119,-0.62599 7.0622,-1.8923 1.6503,-1.2664 1.7829,-1.8068 2.585,-4.4773 0.80207,-2.6705 -2.3402,-1.4419 0.69265,-11.54 3.03285,-10.0981 18.621,-37.098 25.85,-44.773 7.2284,-7.6753 8.8747,-2.5944 9.6472,-6.3696 z"
           id="path156"
           inkscape:connector-curvature="0" />
        <path
           d="m 215.11,571.58 c 3.4938,-1.6256 4.4004,-7.0312 3.963,-10.86 -0.43734,-3.8285 -2.5396,-8.8905 -6.31,-9.6863 -3.7704,-0.79581 0.23372,2.7388 -9.6863,6.31 -9.92,3.5713 -40.895,7.1096 -51.365,5.8674 -10.47,-1.2421 -8.0908,-3.6344 -10.86,-3.963 -2.769,-0.32853 -3.3174,-0.42232 -5.1365,0.58672 -1.8191,1.00904 -4.8264,3.3019 -4.5498,5.7232 0.27658,2.4214 5.4466,2.1284 5.7232,4.5498 0.27659,2.4214 -4.8264,3.3019 -4.5498,5.7233 0.2766,2.4214 3.7234,3.9769 5.7232,4.5498 1.9998,0.5728 2.513,0.35774 5.1365,-0.58675 2.6235,-0.94448 -0.23372,-2.7387 9.6863,-6.31 9.92002,-3.5713 40.895,-7.1096 51.365,-5.8674 10.47,1.2421 7.366,5.5886 10.86,3.963 z"
           id="path158"
           inkscape:connector-curvature="0" />
        <path
           d="m 226.91,466.1 c 3.7752,0.77255 7.7205,-3.0324 9.6472,-6.3696 1.9267,-3.3372 3.2493,-8.6564 0.69264,-11.54 -2.5566,-2.8832 -1.4419,2.3402 -11.54,-0.69266 -10.098,-3.0328 -37.098,-18.621 -44.773,-25.85 -7.6753,-7.2284 -4.3398,-7.7355 -6.3696,-9.6472 -2.0299,-1.9117 -2.4149,-2.3134 -4.4773,-2.585 -2.0624,-0.27153 -5.8437,-0.21828 -7.0622,1.8923 -1.2186,2.1106 3.1109,4.9516 1.8923,7.0622 -1.2186,2.1106 -5.8437,-0.2183 -7.0622,1.8923 -1.2186,2.1106 0.62597,5.4118 1.8923,7.0622 1.2664,1.6504 1.8068,1.7829 4.4773,2.585 2.6705,0.80208 1.4419,-2.3402 11.54,0.69265 10.0981,3.03285 37.097,18.621 44.773,25.85 7.6753,7.2284 2.5944,8.8746 6.3696,9.6472 z"
           id="path160"
           inkscape:connector-curvature="0" />
        <path
           d="m 279.4,387.47 c 2.8831,2.5566 8.2024,1.2341 11.54,-0.69264 3.3371,-1.9267 7.1421,-5.872 6.3696,-9.6472 -0.77253,-3.7752 -2.4188,1.3057 -9.6472,-6.3696 -7.2284,-7.6753 -22.817,-34.675 -25.85,-44.773 -3.0328,-10.098 0.10937,-8.869 -0.69264,-11.54 -0.80207,-2.6705 -0.9346,-3.2109 -2.5849,-4.4773 -1.6503,-1.2664 -4.9516,-3.1109 -7.0622,-1.8923 -2.1106,1.2186 0.2183,5.8437 -1.8923,7.0622 -2.1106,1.2186 -4.9516,-3.1109 -7.0622,-1.8923 -2.1106,1.2186 -2.1638,4.9998 -1.8923,7.0622 0.27152,2.0624 0.67327,2.4474 2.5849,4.4773 1.9117,2.0299 2.4188,-1.3057 9.6472,6.3696 7.2284,7.6753 22.817,34.675 25.85,44.773 3.0328,10.098 -2.1905,8.9829 0.69265,11.54 z"
           id="path162"
           inkscape:connector-curvature="0" />
      </g>
      <g
         transform="matrix(1.0814,-0.24043,0.24043,1.0814,-1194.2,1078.4)"
         id="g188">
        <g
           transform="matrix(3.8491,0,0,3.8491,-677.11,-1390.5)"
           id="g186">
          <path
             d="m 240.92,454.59 c -0.96581,0.63994 -1.787,1.5402 -2.1758,2.6745 -1.1923,2.9714 0.70717,6.5864 3.7624,7.4342 3.0035,1.0323 6.6724,-0.86473 7.3888,-3.9891 0.0242,-0.0884 0.0261,-0.18301 0.0453,-0.27198 -0.97469,-1.5123 -2.231,-2.8521 -3.8077,-3.8984 -1.6604,-1.1012 -3.4486,-1.7318 -5.213,-1.9492 z"
             id="path166"
             inkscape:connector-curvature="0"
             style="fill:#ffffff;stroke:#000000;stroke-width:1.45060003" />
          <path
             d="m 239.34,472.36 c 1.3581,8.4738 6.4164,13.544 14.706,14.939 9.8907,0.38799 15.428,-9.193 14.501,-17.494 -9.0736,-2.223 -21.421,-3.7247 -29.206,2.5555 z"
             id="path168"
             inkscape:connector-curvature="0"
             style="fill:#b71f1f;fill-rule:evenodd;stroke:#000000;stroke-width:1.45060003" />
          <path
             d="m 246.72,459.77 c -1.6979,4.1437 -4.1719,0.50309 -1.5798,-2.2454 1.4771,-1.7958 2.5786,0.16177 1.5798,2.2454 z"
             id="path170"
             inkscape:connector-curvature="0" />
          <g
             transform="matrix(1.1721,0,0,1.1721,229.62,523.55)"
             id="g176">
            <path
               d="m 31.442,-61.302 c -1.6003,0.41564 -3.2801,1.1365 -4.9375,2.2188 -1.4333,0.93656 -2.7296,2.0548 -3.875,3.2812 0.29316,2.8552 2.912,5.1426 5.75,5.25 2.6858,0.20888 5.4304,-1.5922 6.0625,-4.25 0.35044,-1.3399 0.1501,-2.8115 -0.5,-4.0312 -0.55029,-1.0847 -1.4433,-1.9064 -2.5,-2.4688 z"
               id="path172"
               inkscape:connector-curvature="0"
               style="fill:#ffffff;stroke:#000000;stroke-width:1.23749995" />
            <path
               d="m 29.177,-55.659 c 0.3509,5.6958 -5.4722,2.6754 -3.8129,-1.9935 0.88781,-2.6747 3.6663,-1.223 3.8129,1.9935 z"
               id="path174"
               inkscape:connector-curvature="0" />
          </g>
          <path
             d="m 251.45,485.99 c 1.444,-3.0604 2.7477,-4.26 4.3308,-7.9387 3.2928,4.5811 3.7228,5.0574 5.8038,6.6371 -3.2231,1.6451 -6.6485,2.3631 -10.135,1.3016 z"
             id="path178"
             inkscape:connector-curvature="0"
             style="fill:#ffffff;fill-rule:evenodd;stroke:#000000;stroke-width:0.68594003" />
          <path
             d="m 243.15,470.79 c 2.6747,2.7651 2.9642,5.9272 4.7355,8.387 -0.26989,-0.28318 2.524,-9.367 4.8287,-10.464 -4.0151,-0.14902 -6.3605,0.67445 -9.5642,2.0766 z"
             id="path180"
             inkscape:connector-curvature="0"
             style="fill:#ffffff;fill-rule:evenodd;stroke:#000000;stroke-width:0.68592" />
          <path
             d="m 266.14,470.25 c -2.4377,2.9756 -2.4657,6.1493 -4.0286,8.7468 0.24592,-0.30305 -3.2864,-9.1287 -5.6747,-10.033 3.9896,-0.47746 6.3956,0.1508 9.7033,1.2862 z"
             id="path182"
             inkscape:connector-curvature="0"
             style="fill:#ffffff;fill-rule:evenodd;stroke:#000000;stroke-width:0.68592" />
          <path
             d="m 239.34,472.36 c 1.3581,8.4738 6.4164,13.544 14.706,14.939 9.8907,0.38799 15.428,-9.193 14.501,-17.494 -9.0736,-2.223 -21.421,-3.7247 -29.206,2.5555 z"
             id="path184"
             inkscape:connector-curvature="0"
             style="fill:none;stroke:#000000;stroke-width:1.45060003" />
        </g>
      </g>
    </g>
  </g>
</svg>
