<?xml version="1.0" encoding="utf-8"?>
<svg xmlns="http://www.w3.org/2000/svg" viewBox="279.9215 310.9695 440.3543 378.0305" width="440.3543px" height="378.0305px"><defs><style type="text/css">
	.st0{fill:#063552;}
	.st1{fill:#020202;}
	.st2{fill:#D1D3D4;}
</style></defs><path class="st0" d="M719,467.1c-4.7-26.7-26.6-45.3-53.4-47.5c-47.9-3.8-89.3,21.5-135.9,29.6c-3.7,0.6-8.7-7.2-13.2-11.6 c21.6-16,18.6-47.4-6.3-61c-1.7-1.9-1.1-20-0.1-20.8c2-1.7,18,1.4,20.2-0.6c2.3-1.9,1.8-20.7,0.4-22.6c-1.4-1.8-19.4,0.1-20.4-1.1 c-1-1.2,0.5-18.2-1.2-19.5c-1.2-1-6.2-1.1-9-1c-2.8,0-7.8,0.1-9,1c-1.7,1.3-0.2,18.3-1.2,19.5c-1,1.2-19-0.7-20.4,1.1 c-1.4,1.8-1.9,20.6,0.4,22.6c2.3,1.9,18.2-1.1,20.2,0.6c1,0.8,1.6,18.9-0.1,20.8c-25,13.6-27.9,45-6.3,61 c-4.5,4.5-9.5,12.2-13.3,11.6c-46.5-8.1-87.9-33.4-135.8-29.6c-26.8,2.1-48.8,20.7-53.4,47.5c-8.4,48.1,26.7,85.2,43.8,126 c5.4,12.9,10.1,30.2,9.3,45.2c0,0,139.2,0,164,0h3.8c24.8,0,164,0,164,0c-0.8-14.9,3.9-32.3,9.3-45.2 C692.2,552.3,727.4,515.2,719,467.1 M480.2,573.7c-4.3,24.2-17.9,39.5-29.3,39.6c-7.4,0-13.4-2.7-18.8-7.4 c-7.5-6.4-13.6-17-11.6-23.3c1.7-2.1,21.8,0.9,23.2-1.1c1.4-2-2.4-17.4-4.7-19.4c-2.3-2-20.4,0.7-22.9-1.3c-2.4-2-4.7-21.1-7.2-22.3 c0,0-19.2-2.8-20.6-0.1c-1.4,2.7,6.5,18.7,5.1,21.4c-1.3,2.7-26.8-2.4-27.2,0.4c-0.4,2.8,1.5,16.9,3.9,19c2.4,2.1,26.2,2.2,26.2,2.2 c4.9,3.7,6.2,11.2,6.3,19c0,9.8-7.7,14.9-20,11.5c-23-6.3-51.5-55.5-68.4-89.5c-12.4-25-19.9-65.9,12.7-78.2 c19.9-7.5,40.8-3.2,62.2,3c22.4,6.6,52,15.4,69.4,26.1c4.3,2.6-5.1,0.5,10.4,34.3C476,523.4,483.2,556.8,480.2,573.7 M617.5,611.9 c-12.3,3.4-20.1-1.7-20-11.5c0-7.7,1.3-15.3,6.3-19c0,0,23.8-0.1,26.2-2.2c2.4-2.1,4.3-16.1,3.9-19c-0.4-2.8-25.9,2.3-27.2-0.4 c-1.3-2.7,6.5-18.7,5.1-21.4c-1.4-2.7-20.6,0.1-20.6,0.1c-2.5,1.2-4.7,20.3-7.2,22.3c-2.4,2-20.6-0.7-22.9,1.3 c-2.3,2-6.2,17.5-4.7,19.4c1.4,2,21.5-1.1,23.2,1.1c1.9,6.3-4.1,16.8-11.6,23.3c-5.4,4.7-11.4,7.5-18.8,7.4 c-11.3-0.1-25-15.4-29.3-39.6c-3-16.9,4.2-50.3,11.4-66.1c15.5-33.8,6.1-31.7,10.4-34.3c17.4-10.7,47-19.5,69.4-26.1 c21.4-6.3,42.3-10.5,62.2-3c32.6,12.3,25.1,53.2,12.7,78.2C669,556.4,640.5,605.5,617.5,611.9 M501.9,660.7H330.3V689h339.3v-28.4 H501.9z" style="fill: rgb(0, 0, 0);" id="object-0" transform="matrix(1, 0, 0, 1, 0, -2.842170943040401e-14)"/></svg>