<?xml version="1.0" standalone="no"?>
<!DOCTYPE svg PUBLIC "-//W3C//DTD SVG 20010904//EN"
 "http://www.w3.org/TR/2001/REC-SVG-20010904/DTD/svg10.dtd">
<svg version="1.0" xmlns="http://www.w3.org/2000/svg"
 width="300.000000pt" height="189.000000pt" viewBox="0 0 300.000000 189.000000"
 preserveAspectRatio="xMidYMid meet">

<g transform="translate(0.000000,189.000000) scale(0.100000,-0.100000)"
fill="#000000" stroke="none">
<path d="M1490 1486 l0 -356 -706 0 c-560 0 -705 -3 -702 -12 3 -10 60 -15
209 -20 775 -27 871 -39 1010 -128 57 -37 93 -91 114 -172 18 -70 35 -206 35
-281 0 -58 12 -97 30 -97 6 0 10 134 10 355 l0 355 705 2 c584 3 703 5 696 16
-6 11 -84 16 -357 23 -511 13 -677 31 -799 88 -148 69 -176 134 -213 500 -4
45 -12 76 -19 79 -10 3 -13 -72 -13 -352z"/>
<path d="M1134 281 c-12 -5 -31 -21 -42 -36 -82 -104 33 -258 140 -187 38 25
18 47 -21 24 -54 -30 -111 16 -111 89 0 44 51 93 88 84 15 -3 32 -13 38 -21
10 -13 12 -12 18 2 4 10 1 24 -7 31 -17 18 -76 25 -103 14z"/>
<path d="M1443 280 c-12 -5 -26 -18 -32 -29 -27 -49 -2 -86 67 -97 46 -7 65
-24 60 -51 -5 -29 -52 -39 -93 -20 -23 11 -36 13 -41 6 -11 -18 20 -40 63 -46
73 -10 127 38 108 97 -7 24 -60 50 -98 50 -29 0 -50 21 -41 43 8 23 50 29 88
13 31 -13 35 -13 40 1 8 19 9 17 -33 32 -39 13 -58 13 -88 1z"/>
<path d="M1773 280 c-13 -5 -32 -24 -43 -42 -49 -81 0 -198 83 -198 31 0 87
25 87 40 0 18 -19 20 -48 3 -25 -14 -34 -15 -60 -4 -77 32 -44 196 36 176 15
-3 32 -12 38 -20 8 -11 12 -10 22 6 11 18 9 21 -22 34 -40 17 -61 18 -93 5z"/>
</g>
</svg>
