<?xml version="1.0" standalone="yes"?>
<svg xmlns="http://www.w3.org/2000/svg" version="1.1" width="100" height="100">
<rect x="0" y="0" width="100" height="100" style="fill:transparent;shape-rendering:crispEdges;"/>
<rect x="0" y="0" width="3.0303030303030303" height="3.0303030303030303" style="fill:#404040;shape-rendering:crispEdges;"/>
<rect x="3.0303030303030303" y="0" width="3.0303030303030303" height="3.0303030303030303" style="fill:#404040;shape-rendering:crispEdges;"/>
<rect x="6.0606060606060606" y="0" width="3.0303030303030303" height="3.0303030303030303" style="fill:#404040;shape-rendering:crispEdges;"/>
<rect x="9.09090909090909" y="0" width="3.0303030303030303" height="3.0303030303030303" style="fill:#404040;shape-rendering:crispEdges;"/>
<rect x="12.121212121212121" y="0" width="3.0303030303030303" height="3.0303030303030303" style="fill:#404040;shape-rendering:crispEdges;"/>
<rect x="15.151515151515152" y="0" width="3.0303030303030303" height="3.0303030303030303" style="fill:#404040;shape-rendering:crispEdges;"/>
<rect x="18.18181818181818" y="0" width="3.0303030303030303" height="3.0303030303030303" style="fill:#404040;shape-rendering:crispEdges;"/>
<rect x="24.242424242424242" y="0" width="3.0303030303030303" height="3.0303030303030303" style="fill:#404040;shape-rendering:crispEdges;"/>
<rect x="27.272727272727273" y="0" width="3.0303030303030303" height="3.0303030303030303" style="fill:#404040;shape-rendering:crispEdges;"/>
<rect x="39.39393939393939" y="0" width="3.0303030303030303" height="3.0303030303030303" style="fill:#404040;shape-rendering:crispEdges;"/>
<rect x="42.42424242424242" y="0" width="3.0303030303030303" height="3.0303030303030303" style="fill:#404040;shape-rendering:crispEdges;"/>
<rect x="51.515151515151516" y="0" width="3.0303030303030303" height="3.0303030303030303" style="fill:#404040;shape-rendering:crispEdges;"/>
<rect x="54.54545454545455" y="0" width="3.0303030303030303" height="3.0303030303030303" style="fill:#404040;shape-rendering:crispEdges;"/>
<rect x="57.57575757575758" y="0" width="3.0303030303030303" height="3.0303030303030303" style="fill:#404040;shape-rendering:crispEdges;"/>
<rect x="63.63636363636363" y="0" width="3.0303030303030303" height="3.0303030303030303" style="fill:#404040;shape-rendering:crispEdges;"/>
<rect x="72.72727272727272" y="0" width="3.0303030303030303" height="3.0303030303030303" style="fill:#404040;shape-rendering:crispEdges;"/>
<rect x="78.78787878787878" y="0" width="3.0303030303030303" height="3.0303030303030303" style="fill:#404040;shape-rendering:crispEdges;"/>
<rect x="81.81818181818181" y="0" width="3.0303030303030303" height="3.0303030303030303" style="fill:#404040;shape-rendering:crispEdges;"/>
<rect x="84.84848484848484" y="0" width="3.0303030303030303" height="3.0303030303030303" style="fill:#404040;shape-rendering:crispEdges;"/>
<rect x="87.87878787878788" y="0" width="3.0303030303030303" height="3.0303030303030303" style="fill:#404040;shape-rendering:crispEdges;"/>
<rect x="90.9090909090909" y="0" width="3.0303030303030303" height="3.0303030303030303" style="fill:#404040;shape-rendering:crispEdges;"/>
<rect x="93.93939393939394" y="0" width="3.0303030303030303" height="3.0303030303030303" style="fill:#404040;shape-rendering:crispEdges;"/>
<rect x="96.96969696969697" y="0" width="3.0303030303030303" height="3.0303030303030303" style="fill:#404040;shape-rendering:crispEdges;"/>
<rect x="0" y="3.0303030303030303" width="3.0303030303030303" height="3.0303030303030303" style="fill:#404040;shape-rendering:crispEdges;"/>
<rect x="18.18181818181818" y="3.0303030303030303" width="3.0303030303030303" height="3.0303030303030303" style="fill:#404040;shape-rendering:crispEdges;"/>
<rect x="30.303030303030305" y="3.0303030303030303" width="3.0303030303030303" height="3.0303030303030303" style="fill:#404040;shape-rendering:crispEdges;"/>
<rect x="36.36363636363636" y="3.0303030303030303" width="3.0303030303030303" height="3.0303030303030303" style="fill:#404040;shape-rendering:crispEdges;"/>
<rect x="39.39393939393939" y="3.0303030303030303" width="3.0303030303030303" height="3.0303030303030303" style="fill:#404040;shape-rendering:crispEdges;"/>
<rect x="51.515151515151516" y="3.0303030303030303" width="3.0303030303030303" height="3.0303030303030303" style="fill:#404040;shape-rendering:crispEdges;"/>
<rect x="57.57575757575758" y="3.0303030303030303" width="3.0303030303030303" height="3.0303030303030303" style="fill:#404040;shape-rendering:crispEdges;"/>
<rect x="60.60606060606061" y="3.0303030303030303" width="3.0303030303030303" height="3.0303030303030303" style="fill:#404040;shape-rendering:crispEdges;"/>
<rect x="72.72727272727272" y="3.0303030303030303" width="3.0303030303030303" height="3.0303030303030303" style="fill:#404040;shape-rendering:crispEdges;"/>
<rect x="78.78787878787878" y="3.0303030303030303" width="3.0303030303030303" height="3.0303030303030303" style="fill:#404040;shape-rendering:crispEdges;"/>
<rect x="96.96969696969697" y="3.0303030303030303" width="3.0303030303030303" height="3.0303030303030303" style="fill:#404040;shape-rendering:crispEdges;"/>
<rect x="0" y="6.0606060606060606" width="3.0303030303030303" height="3.0303030303030303" style="fill:#404040;shape-rendering:crispEdges;"/>
<rect x="6.0606060606060606" y="6.0606060606060606" width="3.0303030303030303" height="3.0303030303030303" style="fill:#404040;shape-rendering:crispEdges;"/>
<rect x="9.09090909090909" y="6.0606060606060606" width="3.0303030303030303" height="3.0303030303030303" style="fill:#404040;shape-rendering:crispEdges;"/>
<rect x="12.121212121212121" y="6.0606060606060606" width="3.0303030303030303" height="3.0303030303030303" style="fill:#404040;shape-rendering:crispEdges;"/>
<rect x="18.18181818181818" y="6.0606060606060606" width="3.0303030303030303" height="3.0303030303030303" style="fill:#404040;shape-rendering:crispEdges;"/>
<rect x="30.303030303030305" y="6.0606060606060606" width="3.0303030303030303" height="3.0303030303030303" style="fill:#404040;shape-rendering:crispEdges;"/>
<rect x="36.36363636363636" y="6.0606060606060606" width="3.0303030303030303" height="3.0303030303030303" style="fill:#404040;shape-rendering:crispEdges;"/>
<rect x="42.42424242424242" y="6.0606060606060606" width="3.0303030303030303" height="3.0303030303030303" style="fill:#404040;shape-rendering:crispEdges;"/>
<rect x="51.515151515151516" y="6.0606060606060606" width="3.0303030303030303" height="3.0303030303030303" style="fill:#404040;shape-rendering:crispEdges;"/>
<rect x="57.57575757575758" y="6.0606060606060606" width="3.0303030303030303" height="3.0303030303030303" style="fill:#404040;shape-rendering:crispEdges;"/>
<rect x="60.60606060606061" y="6.0606060606060606" width="3.0303030303030303" height="3.0303030303030303" style="fill:#404040;shape-rendering:crispEdges;"/>
<rect x="63.63636363636363" y="6.0606060606060606" width="3.0303030303030303" height="3.0303030303030303" style="fill:#404040;shape-rendering:crispEdges;"/>
<rect x="66.66666666666667" y="6.0606060606060606" width="3.0303030303030303" height="3.0303030303030303" style="fill:#404040;shape-rendering:crispEdges;"/>
<rect x="72.72727272727272" y="6.0606060606060606" width="3.0303030303030303" height="3.0303030303030303" style="fill:#404040;shape-rendering:crispEdges;"/>
<rect x="78.78787878787878" y="6.0606060606060606" width="3.0303030303030303" height="3.0303030303030303" style="fill:#404040;shape-rendering:crispEdges;"/>
<rect x="84.84848484848484" y="6.0606060606060606" width="3.0303030303030303" height="3.0303030303030303" style="fill:#404040;shape-rendering:crispEdges;"/>
<rect x="87.87878787878788" y="6.0606060606060606" width="3.0303030303030303" height="3.0303030303030303" style="fill:#404040;shape-rendering:crispEdges;"/>
<rect x="90.9090909090909" y="6.0606060606060606" width="3.0303030303030303" height="3.0303030303030303" style="fill:#404040;shape-rendering:crispEdges;"/>
<rect x="96.96969696969697" y="6.0606060606060606" width="3.0303030303030303" height="3.0303030303030303" style="fill:#404040;shape-rendering:crispEdges;"/>
<rect x="0" y="9.09090909090909" width="3.0303030303030303" height="3.0303030303030303" style="fill:#404040;shape-rendering:crispEdges;"/>
<rect x="6.0606060606060606" y="9.09090909090909" width="3.0303030303030303" height="3.0303030303030303" style="fill:#404040;shape-rendering:crispEdges;"/>
<rect x="9.09090909090909" y="9.09090909090909" width="3.0303030303030303" height="3.0303030303030303" style="fill:#404040;shape-rendering:crispEdges;"/>
<rect x="12.121212121212121" y="9.09090909090909" width="3.0303030303030303" height="3.0303030303030303" style="fill:#404040;shape-rendering:crispEdges;"/>
<rect x="18.18181818181818" y="9.09090909090909" width="3.0303030303030303" height="3.0303030303030303" style="fill:#404040;shape-rendering:crispEdges;"/>
<rect x="36.36363636363636" y="9.09090909090909" width="3.0303030303030303" height="3.0303030303030303" style="fill:#404040;shape-rendering:crispEdges;"/>
<rect x="39.39393939393939" y="9.09090909090909" width="3.0303030303030303" height="3.0303030303030303" style="fill:#404040;shape-rendering:crispEdges;"/>
<rect x="45.45454545454545" y="9.09090909090909" width="3.0303030303030303" height="3.0303030303030303" style="fill:#404040;shape-rendering:crispEdges;"/>
<rect x="48.484848484848484" y="9.09090909090909" width="3.0303030303030303" height="3.0303030303030303" style="fill:#404040;shape-rendering:crispEdges;"/>
<rect x="51.515151515151516" y="9.09090909090909" width="3.0303030303030303" height="3.0303030303030303" style="fill:#404040;shape-rendering:crispEdges;"/>
<rect x="57.57575757575758" y="9.09090909090909" width="3.0303030303030303" height="3.0303030303030303" style="fill:#404040;shape-rendering:crispEdges;"/>
<rect x="60.60606060606061" y="9.09090909090909" width="3.0303030303030303" height="3.0303030303030303" style="fill:#404040;shape-rendering:crispEdges;"/>
<rect x="69.6969696969697" y="9.09090909090909" width="3.0303030303030303" height="3.0303030303030303" style="fill:#404040;shape-rendering:crispEdges;"/>
<rect x="72.72727272727272" y="9.09090909090909" width="3.0303030303030303" height="3.0303030303030303" style="fill:#404040;shape-rendering:crispEdges;"/>
<rect x="78.78787878787878" y="9.09090909090909" width="3.0303030303030303" height="3.0303030303030303" style="fill:#404040;shape-rendering:crispEdges;"/>
<rect x="84.84848484848484" y="9.09090909090909" width="3.0303030303030303" height="3.0303030303030303" style="fill:#404040;shape-rendering:crispEdges;"/>
<rect x="87.87878787878788" y="9.09090909090909" width="3.0303030303030303" height="3.0303030303030303" style="fill:#404040;shape-rendering:crispEdges;"/>
<rect x="90.9090909090909" y="9.09090909090909" width="3.0303030303030303" height="3.0303030303030303" style="fill:#404040;shape-rendering:crispEdges;"/>
<rect x="96.96969696969697" y="9.09090909090909" width="3.0303030303030303" height="3.0303030303030303" style="fill:#404040;shape-rendering:crispEdges;"/>
<rect x="0" y="12.121212121212121" width="3.0303030303030303" height="3.0303030303030303" style="fill:#404040;shape-rendering:crispEdges;"/>
<rect x="6.0606060606060606" y="12.121212121212121" width="3.0303030303030303" height="3.0303030303030303" style="fill:#404040;shape-rendering:crispEdges;"/>
<rect x="9.09090909090909" y="12.121212121212121" width="3.0303030303030303" height="3.0303030303030303" style="fill:#404040;shape-rendering:crispEdges;"/>
<rect x="12.121212121212121" y="12.121212121212121" width="3.0303030303030303" height="3.0303030303030303" style="fill:#404040;shape-rendering:crispEdges;"/>
<rect x="18.18181818181818" y="12.121212121212121" width="3.0303030303030303" height="3.0303030303030303" style="fill:#404040;shape-rendering:crispEdges;"/>
<rect x="24.242424242424242" y="12.121212121212121" width="3.0303030303030303" height="3.0303030303030303" style="fill:#404040;shape-rendering:crispEdges;"/>
<rect x="36.36363636363636" y="12.121212121212121" width="3.0303030303030303" height="3.0303030303030303" style="fill:#404040;shape-rendering:crispEdges;"/>
<rect x="42.42424242424242" y="12.121212121212121" width="3.0303030303030303" height="3.0303030303030303" style="fill:#404040;shape-rendering:crispEdges;"/>
<rect x="57.57575757575758" y="12.121212121212121" width="3.0303030303030303" height="3.0303030303030303" style="fill:#404040;shape-rendering:crispEdges;"/>
<rect x="66.66666666666667" y="12.121212121212121" width="3.0303030303030303" height="3.0303030303030303" style="fill:#404040;shape-rendering:crispEdges;"/>
<rect x="69.6969696969697" y="12.121212121212121" width="3.0303030303030303" height="3.0303030303030303" style="fill:#404040;shape-rendering:crispEdges;"/>
<rect x="72.72727272727272" y="12.121212121212121" width="3.0303030303030303" height="3.0303030303030303" style="fill:#404040;shape-rendering:crispEdges;"/>
<rect x="78.78787878787878" y="12.121212121212121" width="3.0303030303030303" height="3.0303030303030303" style="fill:#404040;shape-rendering:crispEdges;"/>
<rect x="84.84848484848484" y="12.121212121212121" width="3.0303030303030303" height="3.0303030303030303" style="fill:#404040;shape-rendering:crispEdges;"/>
<rect x="87.87878787878788" y="12.121212121212121" width="3.0303030303030303" height="3.0303030303030303" style="fill:#404040;shape-rendering:crispEdges;"/>
<rect x="90.9090909090909" y="12.121212121212121" width="3.0303030303030303" height="3.0303030303030303" style="fill:#404040;shape-rendering:crispEdges;"/>
<rect x="96.96969696969697" y="12.121212121212121" width="3.0303030303030303" height="3.0303030303030303" style="fill:#404040;shape-rendering:crispEdges;"/>
<rect x="0" y="15.151515151515152" width="3.0303030303030303" height="3.0303030303030303" style="fill:#404040;shape-rendering:crispEdges;"/>
<rect x="18.18181818181818" y="15.151515151515152" width="3.0303030303030303" height="3.0303030303030303" style="fill:#404040;shape-rendering:crispEdges;"/>
<rect x="39.39393939393939" y="15.151515151515152" width="3.0303030303030303" height="3.0303030303030303" style="fill:#404040;shape-rendering:crispEdges;"/>
<rect x="51.515151515151516" y="15.151515151515152" width="3.0303030303030303" height="3.0303030303030303" style="fill:#404040;shape-rendering:crispEdges;"/>
<rect x="57.57575757575758" y="15.151515151515152" width="3.0303030303030303" height="3.0303030303030303" style="fill:#404040;shape-rendering:crispEdges;"/>
<rect x="60.60606060606061" y="15.151515151515152" width="3.0303030303030303" height="3.0303030303030303" style="fill:#404040;shape-rendering:crispEdges;"/>
<rect x="66.66666666666667" y="15.151515151515152" width="3.0303030303030303" height="3.0303030303030303" style="fill:#404040;shape-rendering:crispEdges;"/>
<rect x="78.78787878787878" y="15.151515151515152" width="3.0303030303030303" height="3.0303030303030303" style="fill:#404040;shape-rendering:crispEdges;"/>
<rect x="96.96969696969697" y="15.151515151515152" width="3.0303030303030303" height="3.0303030303030303" style="fill:#404040;shape-rendering:crispEdges;"/>
<rect x="0" y="18.18181818181818" width="3.0303030303030303" height="3.0303030303030303" style="fill:#404040;shape-rendering:crispEdges;"/>
<rect x="3.0303030303030303" y="18.18181818181818" width="3.0303030303030303" height="3.0303030303030303" style="fill:#404040;shape-rendering:crispEdges;"/>
<rect x="6.0606060606060606" y="18.18181818181818" width="3.0303030303030303" height="3.0303030303030303" style="fill:#404040;shape-rendering:crispEdges;"/>
<rect x="9.09090909090909" y="18.18181818181818" width="3.0303030303030303" height="3.0303030303030303" style="fill:#404040;shape-rendering:crispEdges;"/>
<rect x="12.121212121212121" y="18.18181818181818" width="3.0303030303030303" height="3.0303030303030303" style="fill:#404040;shape-rendering:crispEdges;"/>
<rect x="15.151515151515152" y="18.18181818181818" width="3.0303030303030303" height="3.0303030303030303" style="fill:#404040;shape-rendering:crispEdges;"/>
<rect x="18.18181818181818" y="18.18181818181818" width="3.0303030303030303" height="3.0303030303030303" style="fill:#404040;shape-rendering:crispEdges;"/>
<rect x="24.242424242424242" y="18.18181818181818" width="3.0303030303030303" height="3.0303030303030303" style="fill:#404040;shape-rendering:crispEdges;"/>
<rect x="30.303030303030305" y="18.18181818181818" width="3.0303030303030303" height="3.0303030303030303" style="fill:#404040;shape-rendering:crispEdges;"/>
<rect x="36.36363636363636" y="18.18181818181818" width="3.0303030303030303" height="3.0303030303030303" style="fill:#404040;shape-rendering:crispEdges;"/>
<rect x="42.42424242424242" y="18.18181818181818" width="3.0303030303030303" height="3.0303030303030303" style="fill:#404040;shape-rendering:crispEdges;"/>
<rect x="48.484848484848484" y="18.18181818181818" width="3.0303030303030303" height="3.0303030303030303" style="fill:#404040;shape-rendering:crispEdges;"/>
<rect x="54.54545454545455" y="18.18181818181818" width="3.0303030303030303" height="3.0303030303030303" style="fill:#404040;shape-rendering:crispEdges;"/>
<rect x="60.60606060606061" y="18.18181818181818" width="3.0303030303030303" height="3.0303030303030303" style="fill:#404040;shape-rendering:crispEdges;"/>
<rect x="66.66666666666667" y="18.18181818181818" width="3.0303030303030303" height="3.0303030303030303" style="fill:#404040;shape-rendering:crispEdges;"/>
<rect x="72.72727272727272" y="18.18181818181818" width="3.0303030303030303" height="3.0303030303030303" style="fill:#404040;shape-rendering:crispEdges;"/>
<rect x="78.78787878787878" y="18.18181818181818" width="3.0303030303030303" height="3.0303030303030303" style="fill:#404040;shape-rendering:crispEdges;"/>
<rect x="81.81818181818181" y="18.18181818181818" width="3.0303030303030303" height="3.0303030303030303" style="fill:#404040;shape-rendering:crispEdges;"/>
<rect x="84.84848484848484" y="18.18181818181818" width="3.0303030303030303" height="3.0303030303030303" style="fill:#404040;shape-rendering:crispEdges;"/>
<rect x="87.87878787878788" y="18.18181818181818" width="3.0303030303030303" height="3.0303030303030303" style="fill:#404040;shape-rendering:crispEdges;"/>
<rect x="90.9090909090909" y="18.18181818181818" width="3.0303030303030303" height="3.0303030303030303" style="fill:#404040;shape-rendering:crispEdges;"/>
<rect x="93.93939393939394" y="18.18181818181818" width="3.0303030303030303" height="3.0303030303030303" style="fill:#404040;shape-rendering:crispEdges;"/>
<rect x="96.96969696969697" y="18.18181818181818" width="3.0303030303030303" height="3.0303030303030303" style="fill:#404040;shape-rendering:crispEdges;"/>
<rect x="24.242424242424242" y="21.21212121212121" width="3.0303030303030303" height="3.0303030303030303" style="fill:#404040;shape-rendering:crispEdges;"/>
<rect x="39.39393939393939" y="21.21212121212121" width="3.0303030303030303" height="3.0303030303030303" style="fill:#404040;shape-rendering:crispEdges;"/>
<rect x="42.42424242424242" y="21.21212121212121" width="3.0303030303030303" height="3.0303030303030303" style="fill:#404040;shape-rendering:crispEdges;"/>
<rect x="57.57575757575758" y="21.21212121212121" width="3.0303030303030303" height="3.0303030303030303" style="fill:#404040;shape-rendering:crispEdges;"/>
<rect x="60.60606060606061" y="21.21212121212121" width="3.0303030303030303" height="3.0303030303030303" style="fill:#404040;shape-rendering:crispEdges;"/>
<rect x="72.72727272727272" y="21.21212121212121" width="3.0303030303030303" height="3.0303030303030303" style="fill:#404040;shape-rendering:crispEdges;"/>
<rect x="0" y="24.242424242424242" width="3.0303030303030303" height="3.0303030303030303" style="fill:#404040;shape-rendering:crispEdges;"/>
<rect x="9.09090909090909" y="24.242424242424242" width="3.0303030303030303" height="3.0303030303030303" style="fill:#404040;shape-rendering:crispEdges;"/>
<rect x="12.121212121212121" y="24.242424242424242" width="3.0303030303030303" height="3.0303030303030303" style="fill:#404040;shape-rendering:crispEdges;"/>
<rect x="15.151515151515152" y="24.242424242424242" width="3.0303030303030303" height="3.0303030303030303" style="fill:#404040;shape-rendering:crispEdges;"/>
<rect x="18.18181818181818" y="24.242424242424242" width="3.0303030303030303" height="3.0303030303030303" style="fill:#404040;shape-rendering:crispEdges;"/>
<rect x="21.21212121212121" y="24.242424242424242" width="3.0303030303030303" height="3.0303030303030303" style="fill:#404040;shape-rendering:crispEdges;"/>
<rect x="24.242424242424242" y="24.242424242424242" width="3.0303030303030303" height="3.0303030303030303" style="fill:#404040;shape-rendering:crispEdges;"/>
<rect x="30.303030303030305" y="24.242424242424242" width="3.0303030303030303" height="3.0303030303030303" style="fill:#404040;shape-rendering:crispEdges;"/>
<rect x="33.333333333333336" y="24.242424242424242" width="3.0303030303030303" height="3.0303030303030303" style="fill:#404040;shape-rendering:crispEdges;"/>
<rect x="42.42424242424242" y="24.242424242424242" width="3.0303030303030303" height="3.0303030303030303" style="fill:#404040;shape-rendering:crispEdges;"/>
<rect x="51.515151515151516" y="24.242424242424242" width="3.0303030303030303" height="3.0303030303030303" style="fill:#404040;shape-rendering:crispEdges;"/>
<rect x="60.60606060606061" y="24.242424242424242" width="3.0303030303030303" height="3.0303030303030303" style="fill:#404040;shape-rendering:crispEdges;"/>
<rect x="69.6969696969697" y="24.242424242424242" width="3.0303030303030303" height="3.0303030303030303" style="fill:#404040;shape-rendering:crispEdges;"/>
<rect x="72.72727272727272" y="24.242424242424242" width="3.0303030303030303" height="3.0303030303030303" style="fill:#404040;shape-rendering:crispEdges;"/>
<rect x="75.75757575757575" y="24.242424242424242" width="3.0303030303030303" height="3.0303030303030303" style="fill:#404040;shape-rendering:crispEdges;"/>
<rect x="78.78787878787878" y="24.242424242424242" width="3.0303030303030303" height="3.0303030303030303" style="fill:#404040;shape-rendering:crispEdges;"/>
<rect x="84.84848484848484" y="24.242424242424242" width="3.0303030303030303" height="3.0303030303030303" style="fill:#404040;shape-rendering:crispEdges;"/>
<rect x="96.96969696969697" y="24.242424242424242" width="3.0303030303030303" height="3.0303030303030303" style="fill:#404040;shape-rendering:crispEdges;"/>
<rect x="0" y="27.272727272727273" width="3.0303030303030303" height="3.0303030303030303" style="fill:#404040;shape-rendering:crispEdges;"/>
<rect x="3.0303030303030303" y="27.272727272727273" width="3.0303030303030303" height="3.0303030303030303" style="fill:#404040;shape-rendering:crispEdges;"/>
<rect x="12.121212121212121" y="27.272727272727273" width="3.0303030303030303" height="3.0303030303030303" style="fill:#404040;shape-rendering:crispEdges;"/>
<rect x="15.151515151515152" y="27.272727272727273" width="3.0303030303030303" height="3.0303030303030303" style="fill:#404040;shape-rendering:crispEdges;"/>
<rect x="24.242424242424242" y="27.272727272727273" width="3.0303030303030303" height="3.0303030303030303" style="fill:#404040;shape-rendering:crispEdges;"/>
<rect x="27.272727272727273" y="27.272727272727273" width="3.0303030303030303" height="3.0303030303030303" style="fill:#404040;shape-rendering:crispEdges;"/>
<rect x="30.303030303030305" y="27.272727272727273" width="3.0303030303030303" height="3.0303030303030303" style="fill:#404040;shape-rendering:crispEdges;"/>
<rect x="33.333333333333336" y="27.272727272727273" width="3.0303030303030303" height="3.0303030303030303" style="fill:#404040;shape-rendering:crispEdges;"/>
<rect x="36.36363636363636" y="27.272727272727273" width="3.0303030303030303" height="3.0303030303030303" style="fill:#404040;shape-rendering:crispEdges;"/>
<rect x="42.42424242424242" y="27.272727272727273" width="3.0303030303030303" height="3.0303030303030303" style="fill:#404040;shape-rendering:crispEdges;"/>
<rect x="54.54545454545455" y="27.272727272727273" width="3.0303030303030303" height="3.0303030303030303" style="fill:#404040;shape-rendering:crispEdges;"/>
<rect x="60.60606060606061" y="27.272727272727273" width="3.0303030303030303" height="3.0303030303030303" style="fill:#404040;shape-rendering:crispEdges;"/>
<rect x="63.63636363636363" y="27.272727272727273" width="3.0303030303030303" height="3.0303030303030303" style="fill:#404040;shape-rendering:crispEdges;"/>
<rect x="72.72727272727272" y="27.272727272727273" width="3.0303030303030303" height="3.0303030303030303" style="fill:#404040;shape-rendering:crispEdges;"/>
<rect x="75.75757575757575" y="27.272727272727273" width="3.0303030303030303" height="3.0303030303030303" style="fill:#404040;shape-rendering:crispEdges;"/>
<rect x="78.78787878787878" y="27.272727272727273" width="3.0303030303030303" height="3.0303030303030303" style="fill:#404040;shape-rendering:crispEdges;"/>
<rect x="84.84848484848484" y="27.272727272727273" width="3.0303030303030303" height="3.0303030303030303" style="fill:#404040;shape-rendering:crispEdges;"/>
<rect x="87.87878787878788" y="27.272727272727273" width="3.0303030303030303" height="3.0303030303030303" style="fill:#404040;shape-rendering:crispEdges;"/>
<rect x="3.0303030303030303" y="30.303030303030305" width="3.0303030303030303" height="3.0303030303030303" style="fill:#404040;shape-rendering:crispEdges;"/>
<rect x="6.0606060606060606" y="30.303030303030305" width="3.0303030303030303" height="3.0303030303030303" style="fill:#404040;shape-rendering:crispEdges;"/>
<rect x="18.18181818181818" y="30.303030303030305" width="3.0303030303030303" height="3.0303030303030303" style="fill:#404040;shape-rendering:crispEdges;"/>
<rect x="21.21212121212121" y="30.303030303030305" width="3.0303030303030303" height="3.0303030303030303" style="fill:#404040;shape-rendering:crispEdges;"/>
<rect x="24.242424242424242" y="30.303030303030305" width="3.0303030303030303" height="3.0303030303030303" style="fill:#404040;shape-rendering:crispEdges;"/>
<rect x="27.272727272727273" y="30.303030303030305" width="3.0303030303030303" height="3.0303030303030303" style="fill:#404040;shape-rendering:crispEdges;"/>
<rect x="30.303030303030305" y="30.303030303030305" width="3.0303030303030303" height="3.0303030303030303" style="fill:#404040;shape-rendering:crispEdges;"/>
<rect x="39.39393939393939" y="30.303030303030305" width="3.0303030303030303" height="3.0303030303030303" style="fill:#404040;shape-rendering:crispEdges;"/>
<rect x="42.42424242424242" y="30.303030303030305" width="3.0303030303030303" height="3.0303030303030303" style="fill:#404040;shape-rendering:crispEdges;"/>
<rect x="51.515151515151516" y="30.303030303030305" width="3.0303030303030303" height="3.0303030303030303" style="fill:#404040;shape-rendering:crispEdges;"/>
<rect x="57.57575757575758" y="30.303030303030305" width="3.0303030303030303" height="3.0303030303030303" style="fill:#404040;shape-rendering:crispEdges;"/>
<rect x="63.63636363636363" y="30.303030303030305" width="3.0303030303030303" height="3.0303030303030303" style="fill:#404040;shape-rendering:crispEdges;"/>
<rect x="66.66666666666667" y="30.303030303030305" width="3.0303030303030303" height="3.0303030303030303" style="fill:#404040;shape-rendering:crispEdges;"/>
<rect x="69.6969696969697" y="30.303030303030305" width="3.0303030303030303" height="3.0303030303030303" style="fill:#404040;shape-rendering:crispEdges;"/>
<rect x="72.72727272727272" y="30.303030303030305" width="3.0303030303030303" height="3.0303030303030303" style="fill:#404040;shape-rendering:crispEdges;"/>
<rect x="78.78787878787878" y="30.303030303030305" width="3.0303030303030303" height="3.0303030303030303" style="fill:#404040;shape-rendering:crispEdges;"/>
<rect x="81.81818181818181" y="30.303030303030305" width="3.0303030303030303" height="3.0303030303030303" style="fill:#404040;shape-rendering:crispEdges;"/>
<rect x="84.84848484848484" y="30.303030303030305" width="3.0303030303030303" height="3.0303030303030303" style="fill:#404040;shape-rendering:crispEdges;"/>
<rect x="87.87878787878788" y="30.303030303030305" width="3.0303030303030303" height="3.0303030303030303" style="fill:#404040;shape-rendering:crispEdges;"/>
<rect x="90.9090909090909" y="30.303030303030305" width="3.0303030303030303" height="3.0303030303030303" style="fill:#404040;shape-rendering:crispEdges;"/>
<rect x="0" y="33.333333333333336" width="3.0303030303030303" height="3.0303030303030303" style="fill:#404040;shape-rendering:crispEdges;"/>
<rect x="9.09090909090909" y="33.333333333333336" width="3.0303030303030303" height="3.0303030303030303" style="fill:#404040;shape-rendering:crispEdges;"/>
<rect x="12.121212121212121" y="33.333333333333336" width="3.0303030303030303" height="3.0303030303030303" style="fill:#404040;shape-rendering:crispEdges;"/>
<rect x="15.151515151515152" y="33.333333333333336" width="3.0303030303030303" height="3.0303030303030303" style="fill:#404040;shape-rendering:crispEdges;"/>
<rect x="24.242424242424242" y="33.333333333333336" width="3.0303030303030303" height="3.0303030303030303" style="fill:#404040;shape-rendering:crispEdges;"/>
<rect x="27.272727272727273" y="33.333333333333336" width="3.0303030303030303" height="3.0303030303030303" style="fill:#404040;shape-rendering:crispEdges;"/>
<rect x="30.303030303030305" y="33.333333333333336" width="3.0303030303030303" height="3.0303030303030303" style="fill:#404040;shape-rendering:crispEdges;"/>
<rect x="33.333333333333336" y="33.333333333333336" width="3.0303030303030303" height="3.0303030303030303" style="fill:#404040;shape-rendering:crispEdges;"/>
<rect x="36.36363636363636" y="33.333333333333336" width="3.0303030303030303" height="3.0303030303030303" style="fill:#404040;shape-rendering:crispEdges;"/>
<rect x="39.39393939393939" y="33.333333333333336" width="3.0303030303030303" height="3.0303030303030303" style="fill:#404040;shape-rendering:crispEdges;"/>
<rect x="54.54545454545455" y="33.333333333333336" width="3.0303030303030303" height="3.0303030303030303" style="fill:#404040;shape-rendering:crispEdges;"/>
<rect x="60.60606060606061" y="33.333333333333336" width="3.0303030303030303" height="3.0303030303030303" style="fill:#404040;shape-rendering:crispEdges;"/>
<rect x="63.63636363636363" y="33.333333333333336" width="3.0303030303030303" height="3.0303030303030303" style="fill:#404040;shape-rendering:crispEdges;"/>
<rect x="78.78787878787878" y="33.333333333333336" width="3.0303030303030303" height="3.0303030303030303" style="fill:#404040;shape-rendering:crispEdges;"/>
<rect x="87.87878787878788" y="33.333333333333336" width="3.0303030303030303" height="3.0303030303030303" style="fill:#404040;shape-rendering:crispEdges;"/>
<rect x="90.9090909090909" y="33.333333333333336" width="3.0303030303030303" height="3.0303030303030303" style="fill:#404040;shape-rendering:crispEdges;"/>
<rect x="93.93939393939394" y="33.333333333333336" width="3.0303030303030303" height="3.0303030303030303" style="fill:#404040;shape-rendering:crispEdges;"/>
<rect x="3.0303030303030303" y="36.36363636363636" width="3.0303030303030303" height="3.0303030303030303" style="fill:#404040;shape-rendering:crispEdges;"/>
<rect x="6.0606060606060606" y="36.36363636363636" width="3.0303030303030303" height="3.0303030303030303" style="fill:#404040;shape-rendering:crispEdges;"/>
<rect x="12.121212121212121" y="36.36363636363636" width="3.0303030303030303" height="3.0303030303030303" style="fill:#404040;shape-rendering:crispEdges;"/>
<rect x="15.151515151515152" y="36.36363636363636" width="3.0303030303030303" height="3.0303030303030303" style="fill:#404040;shape-rendering:crispEdges;"/>
<rect x="18.18181818181818" y="36.36363636363636" width="3.0303030303030303" height="3.0303030303030303" style="fill:#404040;shape-rendering:crispEdges;"/>
<rect x="27.272727272727273" y="36.36363636363636" width="3.0303030303030303" height="3.0303030303030303" style="fill:#404040;shape-rendering:crispEdges;"/>
<rect x="33.333333333333336" y="36.36363636363636" width="3.0303030303030303" height="3.0303030303030303" style="fill:#404040;shape-rendering:crispEdges;"/>
<rect x="39.39393939393939" y="36.36363636363636" width="3.0303030303030303" height="3.0303030303030303" style="fill:#404040;shape-rendering:crispEdges;"/>
<rect x="60.60606060606061" y="36.36363636363636" width="3.0303030303030303" height="3.0303030303030303" style="fill:#404040;shape-rendering:crispEdges;"/>
<rect x="63.63636363636363" y="36.36363636363636" width="3.0303030303030303" height="3.0303030303030303" style="fill:#404040;shape-rendering:crispEdges;"/>
<rect x="66.66666666666667" y="36.36363636363636" width="3.0303030303030303" height="3.0303030303030303" style="fill:#404040;shape-rendering:crispEdges;"/>
<rect x="75.75757575757575" y="36.36363636363636" width="3.0303030303030303" height="3.0303030303030303" style="fill:#404040;shape-rendering:crispEdges;"/>
<rect x="81.81818181818181" y="36.36363636363636" width="3.0303030303030303" height="3.0303030303030303" style="fill:#404040;shape-rendering:crispEdges;"/>
<rect x="87.87878787878788" y="36.36363636363636" width="3.0303030303030303" height="3.0303030303030303" style="fill:#404040;shape-rendering:crispEdges;"/>
<rect x="6.0606060606060606" y="39.39393939393939" width="3.0303030303030303" height="3.0303030303030303" style="fill:#404040;shape-rendering:crispEdges;"/>
<rect x="12.121212121212121" y="39.39393939393939" width="3.0303030303030303" height="3.0303030303030303" style="fill:#404040;shape-rendering:crispEdges;"/>
<rect x="15.151515151515152" y="39.39393939393939" width="3.0303030303030303" height="3.0303030303030303" style="fill:#404040;shape-rendering:crispEdges;"/>
<rect x="24.242424242424242" y="39.39393939393939" width="3.0303030303030303" height="3.0303030303030303" style="fill:#404040;shape-rendering:crispEdges;"/>
<rect x="27.272727272727273" y="39.39393939393939" width="3.0303030303030303" height="3.0303030303030303" style="fill:#404040;shape-rendering:crispEdges;"/>
<rect x="36.36363636363636" y="39.39393939393939" width="3.0303030303030303" height="3.0303030303030303" style="fill:#404040;shape-rendering:crispEdges;"/>
<rect x="39.39393939393939" y="39.39393939393939" width="3.0303030303030303" height="3.0303030303030303" style="fill:#404040;shape-rendering:crispEdges;"/>
<rect x="42.42424242424242" y="39.39393939393939" width="3.0303030303030303" height="3.0303030303030303" style="fill:#404040;shape-rendering:crispEdges;"/>
<rect x="48.484848484848484" y="39.39393939393939" width="3.0303030303030303" height="3.0303030303030303" style="fill:#404040;shape-rendering:crispEdges;"/>
<rect x="60.60606060606061" y="39.39393939393939" width="3.0303030303030303" height="3.0303030303030303" style="fill:#404040;shape-rendering:crispEdges;"/>
<rect x="63.63636363636363" y="39.39393939393939" width="3.0303030303030303" height="3.0303030303030303" style="fill:#404040;shape-rendering:crispEdges;"/>
<rect x="66.66666666666667" y="39.39393939393939" width="3.0303030303030303" height="3.0303030303030303" style="fill:#404040;shape-rendering:crispEdges;"/>
<rect x="69.6969696969697" y="39.39393939393939" width="3.0303030303030303" height="3.0303030303030303" style="fill:#404040;shape-rendering:crispEdges;"/>
<rect x="72.72727272727272" y="39.39393939393939" width="3.0303030303030303" height="3.0303030303030303" style="fill:#404040;shape-rendering:crispEdges;"/>
<rect x="81.81818181818181" y="39.39393939393939" width="3.0303030303030303" height="3.0303030303030303" style="fill:#404040;shape-rendering:crispEdges;"/>
<rect x="93.93939393939394" y="39.39393939393939" width="3.0303030303030303" height="3.0303030303030303" style="fill:#404040;shape-rendering:crispEdges;"/>
<rect x="9.09090909090909" y="42.42424242424242" width="3.0303030303030303" height="3.0303030303030303" style="fill:#404040;shape-rendering:crispEdges;"/>
<rect x="12.121212121212121" y="42.42424242424242" width="3.0303030303030303" height="3.0303030303030303" style="fill:#404040;shape-rendering:crispEdges;"/>
<rect x="18.18181818181818" y="42.42424242424242" width="3.0303030303030303" height="3.0303030303030303" style="fill:#404040;shape-rendering:crispEdges;"/>
<rect x="21.21212121212121" y="42.42424242424242" width="3.0303030303030303" height="3.0303030303030303" style="fill:#404040;shape-rendering:crispEdges;"/>
<rect x="27.272727272727273" y="42.42424242424242" width="3.0303030303030303" height="3.0303030303030303" style="fill:#404040;shape-rendering:crispEdges;"/>
<rect x="33.333333333333336" y="42.42424242424242" width="3.0303030303030303" height="3.0303030303030303" style="fill:#404040;shape-rendering:crispEdges;"/>
<rect x="36.36363636363636" y="42.42424242424242" width="3.0303030303030303" height="3.0303030303030303" style="fill:#404040;shape-rendering:crispEdges;"/>
<rect x="45.45454545454545" y="42.42424242424242" width="3.0303030303030303" height="3.0303030303030303" style="fill:#404040;shape-rendering:crispEdges;"/>
<rect x="57.57575757575758" y="42.42424242424242" width="3.0303030303030303" height="3.0303030303030303" style="fill:#404040;shape-rendering:crispEdges;"/>
<rect x="60.60606060606061" y="42.42424242424242" width="3.0303030303030303" height="3.0303030303030303" style="fill:#404040;shape-rendering:crispEdges;"/>
<rect x="63.63636363636363" y="42.42424242424242" width="3.0303030303030303" height="3.0303030303030303" style="fill:#404040;shape-rendering:crispEdges;"/>
<rect x="75.75757575757575" y="42.42424242424242" width="3.0303030303030303" height="3.0303030303030303" style="fill:#404040;shape-rendering:crispEdges;"/>
<rect x="78.78787878787878" y="42.42424242424242" width="3.0303030303030303" height="3.0303030303030303" style="fill:#404040;shape-rendering:crispEdges;"/>
<rect x="81.81818181818181" y="42.42424242424242" width="3.0303030303030303" height="3.0303030303030303" style="fill:#404040;shape-rendering:crispEdges;"/>
<rect x="84.84848484848484" y="42.42424242424242" width="3.0303030303030303" height="3.0303030303030303" style="fill:#404040;shape-rendering:crispEdges;"/>
<rect x="93.93939393939394" y="42.42424242424242" width="3.0303030303030303" height="3.0303030303030303" style="fill:#404040;shape-rendering:crispEdges;"/>
<rect x="6.0606060606060606" y="45.45454545454545" width="3.0303030303030303" height="3.0303030303030303" style="fill:#404040;shape-rendering:crispEdges;"/>
<rect x="9.09090909090909" y="45.45454545454545" width="3.0303030303030303" height="3.0303030303030303" style="fill:#404040;shape-rendering:crispEdges;"/>
<rect x="21.21212121212121" y="45.45454545454545" width="3.0303030303030303" height="3.0303030303030303" style="fill:#404040;shape-rendering:crispEdges;"/>
<rect x="27.272727272727273" y="45.45454545454545" width="3.0303030303030303" height="3.0303030303030303" style="fill:#404040;shape-rendering:crispEdges;"/>
<rect x="30.303030303030305" y="45.45454545454545" width="3.0303030303030303" height="3.0303030303030303" style="fill:#404040;shape-rendering:crispEdges;"/>
<rect x="48.484848484848484" y="45.45454545454545" width="3.0303030303030303" height="3.0303030303030303" style="fill:#404040;shape-rendering:crispEdges;"/>
<rect x="51.515151515151516" y="45.45454545454545" width="3.0303030303030303" height="3.0303030303030303" style="fill:#404040;shape-rendering:crispEdges;"/>
<rect x="54.54545454545455" y="45.45454545454545" width="3.0303030303030303" height="3.0303030303030303" style="fill:#404040;shape-rendering:crispEdges;"/>
<rect x="57.57575757575758" y="45.45454545454545" width="3.0303030303030303" height="3.0303030303030303" style="fill:#404040;shape-rendering:crispEdges;"/>
<rect x="60.60606060606061" y="45.45454545454545" width="3.0303030303030303" height="3.0303030303030303" style="fill:#404040;shape-rendering:crispEdges;"/>
<rect x="66.66666666666667" y="45.45454545454545" width="3.0303030303030303" height="3.0303030303030303" style="fill:#404040;shape-rendering:crispEdges;"/>
<rect x="69.6969696969697" y="45.45454545454545" width="3.0303030303030303" height="3.0303030303030303" style="fill:#404040;shape-rendering:crispEdges;"/>
<rect x="78.78787878787878" y="45.45454545454545" width="3.0303030303030303" height="3.0303030303030303" style="fill:#404040;shape-rendering:crispEdges;"/>
<rect x="81.81818181818181" y="45.45454545454545" width="3.0303030303030303" height="3.0303030303030303" style="fill:#404040;shape-rendering:crispEdges;"/>
<rect x="96.96969696969697" y="45.45454545454545" width="3.0303030303030303" height="3.0303030303030303" style="fill:#404040;shape-rendering:crispEdges;"/>
<rect x="0" y="48.484848484848484" width="3.0303030303030303" height="3.0303030303030303" style="fill:#404040;shape-rendering:crispEdges;"/>
<rect x="3.0303030303030303" y="48.484848484848484" width="3.0303030303030303" height="3.0303030303030303" style="fill:#404040;shape-rendering:crispEdges;"/>
<rect x="15.151515151515152" y="48.484848484848484" width="3.0303030303030303" height="3.0303030303030303" style="fill:#404040;shape-rendering:crispEdges;"/>
<rect x="18.18181818181818" y="48.484848484848484" width="3.0303030303030303" height="3.0303030303030303" style="fill:#404040;shape-rendering:crispEdges;"/>
<rect x="21.21212121212121" y="48.484848484848484" width="3.0303030303030303" height="3.0303030303030303" style="fill:#404040;shape-rendering:crispEdges;"/>
<rect x="24.242424242424242" y="48.484848484848484" width="3.0303030303030303" height="3.0303030303030303" style="fill:#404040;shape-rendering:crispEdges;"/>
<rect x="30.303030303030305" y="48.484848484848484" width="3.0303030303030303" height="3.0303030303030303" style="fill:#404040;shape-rendering:crispEdges;"/>
<rect x="33.333333333333336" y="48.484848484848484" width="3.0303030303030303" height="3.0303030303030303" style="fill:#404040;shape-rendering:crispEdges;"/>
<rect x="39.39393939393939" y="48.484848484848484" width="3.0303030303030303" height="3.0303030303030303" style="fill:#404040;shape-rendering:crispEdges;"/>
<rect x="42.42424242424242" y="48.484848484848484" width="3.0303030303030303" height="3.0303030303030303" style="fill:#404040;shape-rendering:crispEdges;"/>
<rect x="48.484848484848484" y="48.484848484848484" width="3.0303030303030303" height="3.0303030303030303" style="fill:#404040;shape-rendering:crispEdges;"/>
<rect x="51.515151515151516" y="48.484848484848484" width="3.0303030303030303" height="3.0303030303030303" style="fill:#404040;shape-rendering:crispEdges;"/>
<rect x="54.54545454545455" y="48.484848484848484" width="3.0303030303030303" height="3.0303030303030303" style="fill:#404040;shape-rendering:crispEdges;"/>
<rect x="57.57575757575758" y="48.484848484848484" width="3.0303030303030303" height="3.0303030303030303" style="fill:#404040;shape-rendering:crispEdges;"/>
<rect x="60.60606060606061" y="48.484848484848484" width="3.0303030303030303" height="3.0303030303030303" style="fill:#404040;shape-rendering:crispEdges;"/>
<rect x="69.6969696969697" y="48.484848484848484" width="3.0303030303030303" height="3.0303030303030303" style="fill:#404040;shape-rendering:crispEdges;"/>
<rect x="75.75757575757575" y="48.484848484848484" width="3.0303030303030303" height="3.0303030303030303" style="fill:#404040;shape-rendering:crispEdges;"/>
<rect x="78.78787878787878" y="48.484848484848484" width="3.0303030303030303" height="3.0303030303030303" style="fill:#404040;shape-rendering:crispEdges;"/>
<rect x="87.87878787878788" y="48.484848484848484" width="3.0303030303030303" height="3.0303030303030303" style="fill:#404040;shape-rendering:crispEdges;"/>
<rect x="90.9090909090909" y="48.484848484848484" width="3.0303030303030303" height="3.0303030303030303" style="fill:#404040;shape-rendering:crispEdges;"/>
<rect x="0" y="51.515151515151516" width="3.0303030303030303" height="3.0303030303030303" style="fill:#404040;shape-rendering:crispEdges;"/>
<rect x="3.0303030303030303" y="51.515151515151516" width="3.0303030303030303" height="3.0303030303030303" style="fill:#404040;shape-rendering:crispEdges;"/>
<rect x="9.09090909090909" y="51.515151515151516" width="3.0303030303030303" height="3.0303030303030303" style="fill:#404040;shape-rendering:crispEdges;"/>
<rect x="15.151515151515152" y="51.515151515151516" width="3.0303030303030303" height="3.0303030303030303" style="fill:#404040;shape-rendering:crispEdges;"/>
<rect x="21.21212121212121" y="51.515151515151516" width="3.0303030303030303" height="3.0303030303030303" style="fill:#404040;shape-rendering:crispEdges;"/>
<rect x="30.303030303030305" y="51.515151515151516" width="3.0303030303030303" height="3.0303030303030303" style="fill:#404040;shape-rendering:crispEdges;"/>
<rect x="33.333333333333336" y="51.515151515151516" width="3.0303030303030303" height="3.0303030303030303" style="fill:#404040;shape-rendering:crispEdges;"/>
<rect x="42.42424242424242" y="51.515151515151516" width="3.0303030303030303" height="3.0303030303030303" style="fill:#404040;shape-rendering:crispEdges;"/>
<rect x="45.45454545454545" y="51.515151515151516" width="3.0303030303030303" height="3.0303030303030303" style="fill:#404040;shape-rendering:crispEdges;"/>
<rect x="51.515151515151516" y="51.515151515151516" width="3.0303030303030303" height="3.0303030303030303" style="fill:#404040;shape-rendering:crispEdges;"/>
<rect x="63.63636363636363" y="51.515151515151516" width="3.0303030303030303" height="3.0303030303030303" style="fill:#404040;shape-rendering:crispEdges;"/>
<rect x="66.66666666666667" y="51.515151515151516" width="3.0303030303030303" height="3.0303030303030303" style="fill:#404040;shape-rendering:crispEdges;"/>
<rect x="69.6969696969697" y="51.515151515151516" width="3.0303030303030303" height="3.0303030303030303" style="fill:#404040;shape-rendering:crispEdges;"/>
<rect x="72.72727272727272" y="51.515151515151516" width="3.0303030303030303" height="3.0303030303030303" style="fill:#404040;shape-rendering:crispEdges;"/>
<rect x="78.78787878787878" y="51.515151515151516" width="3.0303030303030303" height="3.0303030303030303" style="fill:#404040;shape-rendering:crispEdges;"/>
<rect x="81.81818181818181" y="51.515151515151516" width="3.0303030303030303" height="3.0303030303030303" style="fill:#404040;shape-rendering:crispEdges;"/>
<rect x="90.9090909090909" y="51.515151515151516" width="3.0303030303030303" height="3.0303030303030303" style="fill:#404040;shape-rendering:crispEdges;"/>
<rect x="93.93939393939394" y="51.515151515151516" width="3.0303030303030303" height="3.0303030303030303" style="fill:#404040;shape-rendering:crispEdges;"/>
<rect x="96.96969696969697" y="51.515151515151516" width="3.0303030303030303" height="3.0303030303030303" style="fill:#404040;shape-rendering:crispEdges;"/>
<rect x="9.09090909090909" y="54.54545454545455" width="3.0303030303030303" height="3.0303030303030303" style="fill:#404040;shape-rendering:crispEdges;"/>
<rect x="12.121212121212121" y="54.54545454545455" width="3.0303030303030303" height="3.0303030303030303" style="fill:#404040;shape-rendering:crispEdges;"/>
<rect x="18.18181818181818" y="54.54545454545455" width="3.0303030303030303" height="3.0303030303030303" style="fill:#404040;shape-rendering:crispEdges;"/>
<rect x="21.21212121212121" y="54.54545454545455" width="3.0303030303030303" height="3.0303030303030303" style="fill:#404040;shape-rendering:crispEdges;"/>
<rect x="27.272727272727273" y="54.54545454545455" width="3.0303030303030303" height="3.0303030303030303" style="fill:#404040;shape-rendering:crispEdges;"/>
<rect x="33.333333333333336" y="54.54545454545455" width="3.0303030303030303" height="3.0303030303030303" style="fill:#404040;shape-rendering:crispEdges;"/>
<rect x="36.36363636363636" y="54.54545454545455" width="3.0303030303030303" height="3.0303030303030303" style="fill:#404040;shape-rendering:crispEdges;"/>
<rect x="42.42424242424242" y="54.54545454545455" width="3.0303030303030303" height="3.0303030303030303" style="fill:#404040;shape-rendering:crispEdges;"/>
<rect x="45.45454545454545" y="54.54545454545455" width="3.0303030303030303" height="3.0303030303030303" style="fill:#404040;shape-rendering:crispEdges;"/>
<rect x="54.54545454545455" y="54.54545454545455" width="3.0303030303030303" height="3.0303030303030303" style="fill:#404040;shape-rendering:crispEdges;"/>
<rect x="63.63636363636363" y="54.54545454545455" width="3.0303030303030303" height="3.0303030303030303" style="fill:#404040;shape-rendering:crispEdges;"/>
<rect x="69.6969696969697" y="54.54545454545455" width="3.0303030303030303" height="3.0303030303030303" style="fill:#404040;shape-rendering:crispEdges;"/>
<rect x="75.75757575757575" y="54.54545454545455" width="3.0303030303030303" height="3.0303030303030303" style="fill:#404040;shape-rendering:crispEdges;"/>
<rect x="81.81818181818181" y="54.54545454545455" width="3.0303030303030303" height="3.0303030303030303" style="fill:#404040;shape-rendering:crispEdges;"/>
<rect x="84.84848484848484" y="54.54545454545455" width="3.0303030303030303" height="3.0303030303030303" style="fill:#404040;shape-rendering:crispEdges;"/>
<rect x="90.9090909090909" y="54.54545454545455" width="3.0303030303030303" height="3.0303030303030303" style="fill:#404040;shape-rendering:crispEdges;"/>
<rect x="3.0303030303030303" y="57.57575757575758" width="3.0303030303030303" height="3.0303030303030303" style="fill:#404040;shape-rendering:crispEdges;"/>
<rect x="6.0606060606060606" y="57.57575757575758" width="3.0303030303030303" height="3.0303030303030303" style="fill:#404040;shape-rendering:crispEdges;"/>
<rect x="9.09090909090909" y="57.57575757575758" width="3.0303030303030303" height="3.0303030303030303" style="fill:#404040;shape-rendering:crispEdges;"/>
<rect x="12.121212121212121" y="57.57575757575758" width="3.0303030303030303" height="3.0303030303030303" style="fill:#404040;shape-rendering:crispEdges;"/>
<rect x="15.151515151515152" y="57.57575757575758" width="3.0303030303030303" height="3.0303030303030303" style="fill:#404040;shape-rendering:crispEdges;"/>
<rect x="24.242424242424242" y="57.57575757575758" width="3.0303030303030303" height="3.0303030303030303" style="fill:#404040;shape-rendering:crispEdges;"/>
<rect x="33.333333333333336" y="57.57575757575758" width="3.0303030303030303" height="3.0303030303030303" style="fill:#404040;shape-rendering:crispEdges;"/>
<rect x="36.36363636363636" y="57.57575757575758" width="3.0303030303030303" height="3.0303030303030303" style="fill:#404040;shape-rendering:crispEdges;"/>
<rect x="39.39393939393939" y="57.57575757575758" width="3.0303030303030303" height="3.0303030303030303" style="fill:#404040;shape-rendering:crispEdges;"/>
<rect x="42.42424242424242" y="57.57575757575758" width="3.0303030303030303" height="3.0303030303030303" style="fill:#404040;shape-rendering:crispEdges;"/>
<rect x="45.45454545454545" y="57.57575757575758" width="3.0303030303030303" height="3.0303030303030303" style="fill:#404040;shape-rendering:crispEdges;"/>
<rect x="51.515151515151516" y="57.57575757575758" width="3.0303030303030303" height="3.0303030303030303" style="fill:#404040;shape-rendering:crispEdges;"/>
<rect x="57.57575757575758" y="57.57575757575758" width="3.0303030303030303" height="3.0303030303030303" style="fill:#404040;shape-rendering:crispEdges;"/>
<rect x="60.60606060606061" y="57.57575757575758" width="3.0303030303030303" height="3.0303030303030303" style="fill:#404040;shape-rendering:crispEdges;"/>
<rect x="63.63636363636363" y="57.57575757575758" width="3.0303030303030303" height="3.0303030303030303" style="fill:#404040;shape-rendering:crispEdges;"/>
<rect x="72.72727272727272" y="57.57575757575758" width="3.0303030303030303" height="3.0303030303030303" style="fill:#404040;shape-rendering:crispEdges;"/>
<rect x="81.81818181818181" y="57.57575757575758" width="3.0303030303030303" height="3.0303030303030303" style="fill:#404040;shape-rendering:crispEdges;"/>
<rect x="84.84848484848484" y="57.57575757575758" width="3.0303030303030303" height="3.0303030303030303" style="fill:#404040;shape-rendering:crispEdges;"/>
<rect x="87.87878787878788" y="57.57575757575758" width="3.0303030303030303" height="3.0303030303030303" style="fill:#404040;shape-rendering:crispEdges;"/>
<rect x="90.9090909090909" y="57.57575757575758" width="3.0303030303030303" height="3.0303030303030303" style="fill:#404040;shape-rendering:crispEdges;"/>
<rect x="93.93939393939394" y="57.57575757575758" width="3.0303030303030303" height="3.0303030303030303" style="fill:#404040;shape-rendering:crispEdges;"/>
<rect x="3.0303030303030303" y="60.60606060606061" width="3.0303030303030303" height="3.0303030303030303" style="fill:#404040;shape-rendering:crispEdges;"/>
<rect x="6.0606060606060606" y="60.60606060606061" width="3.0303030303030303" height="3.0303030303030303" style="fill:#404040;shape-rendering:crispEdges;"/>
<rect x="9.09090909090909" y="60.60606060606061" width="3.0303030303030303" height="3.0303030303030303" style="fill:#404040;shape-rendering:crispEdges;"/>
<rect x="12.121212121212121" y="60.60606060606061" width="3.0303030303030303" height="3.0303030303030303" style="fill:#404040;shape-rendering:crispEdges;"/>
<rect x="18.18181818181818" y="60.60606060606061" width="3.0303030303030303" height="3.0303030303030303" style="fill:#404040;shape-rendering:crispEdges;"/>
<rect x="24.242424242424242" y="60.60606060606061" width="3.0303030303030303" height="3.0303030303030303" style="fill:#404040;shape-rendering:crispEdges;"/>
<rect x="30.303030303030305" y="60.60606060606061" width="3.0303030303030303" height="3.0303030303030303" style="fill:#404040;shape-rendering:crispEdges;"/>
<rect x="33.333333333333336" y="60.60606060606061" width="3.0303030303030303" height="3.0303030303030303" style="fill:#404040;shape-rendering:crispEdges;"/>
<rect x="36.36363636363636" y="60.60606060606061" width="3.0303030303030303" height="3.0303030303030303" style="fill:#404040;shape-rendering:crispEdges;"/>
<rect x="45.45454545454545" y="60.60606060606061" width="3.0303030303030303" height="3.0303030303030303" style="fill:#404040;shape-rendering:crispEdges;"/>
<rect x="54.54545454545455" y="60.60606060606061" width="3.0303030303030303" height="3.0303030303030303" style="fill:#404040;shape-rendering:crispEdges;"/>
<rect x="63.63636363636363" y="60.60606060606061" width="3.0303030303030303" height="3.0303030303030303" style="fill:#404040;shape-rendering:crispEdges;"/>
<rect x="66.66666666666667" y="60.60606060606061" width="3.0303030303030303" height="3.0303030303030303" style="fill:#404040;shape-rendering:crispEdges;"/>
<rect x="75.75757575757575" y="60.60606060606061" width="3.0303030303030303" height="3.0303030303030303" style="fill:#404040;shape-rendering:crispEdges;"/>
<rect x="81.81818181818181" y="60.60606060606061" width="3.0303030303030303" height="3.0303030303030303" style="fill:#404040;shape-rendering:crispEdges;"/>
<rect x="84.84848484848484" y="60.60606060606061" width="3.0303030303030303" height="3.0303030303030303" style="fill:#404040;shape-rendering:crispEdges;"/>
<rect x="93.93939393939394" y="60.60606060606061" width="3.0303030303030303" height="3.0303030303030303" style="fill:#404040;shape-rendering:crispEdges;"/>
<rect x="0" y="63.63636363636363" width="3.0303030303030303" height="3.0303030303030303" style="fill:#404040;shape-rendering:crispEdges;"/>
<rect x="3.0303030303030303" y="63.63636363636363" width="3.0303030303030303" height="3.0303030303030303" style="fill:#404040;shape-rendering:crispEdges;"/>
<rect x="9.09090909090909" y="63.63636363636363" width="3.0303030303030303" height="3.0303030303030303" style="fill:#404040;shape-rendering:crispEdges;"/>
<rect x="21.21212121212121" y="63.63636363636363" width="3.0303030303030303" height="3.0303030303030303" style="fill:#404040;shape-rendering:crispEdges;"/>
<rect x="30.303030303030305" y="63.63636363636363" width="3.0303030303030303" height="3.0303030303030303" style="fill:#404040;shape-rendering:crispEdges;"/>
<rect x="33.333333333333336" y="63.63636363636363" width="3.0303030303030303" height="3.0303030303030303" style="fill:#404040;shape-rendering:crispEdges;"/>
<rect x="39.39393939393939" y="63.63636363636363" width="3.0303030303030303" height="3.0303030303030303" style="fill:#404040;shape-rendering:crispEdges;"/>
<rect x="42.42424242424242" y="63.63636363636363" width="3.0303030303030303" height="3.0303030303030303" style="fill:#404040;shape-rendering:crispEdges;"/>
<rect x="45.45454545454545" y="63.63636363636363" width="3.0303030303030303" height="3.0303030303030303" style="fill:#404040;shape-rendering:crispEdges;"/>
<rect x="51.515151515151516" y="63.63636363636363" width="3.0303030303030303" height="3.0303030303030303" style="fill:#404040;shape-rendering:crispEdges;"/>
<rect x="63.63636363636363" y="63.63636363636363" width="3.0303030303030303" height="3.0303030303030303" style="fill:#404040;shape-rendering:crispEdges;"/>
<rect x="69.6969696969697" y="63.63636363636363" width="3.0303030303030303" height="3.0303030303030303" style="fill:#404040;shape-rendering:crispEdges;"/>
<rect x="78.78787878787878" y="63.63636363636363" width="3.0303030303030303" height="3.0303030303030303" style="fill:#404040;shape-rendering:crispEdges;"/>
<rect x="81.81818181818181" y="63.63636363636363" width="3.0303030303030303" height="3.0303030303030303" style="fill:#404040;shape-rendering:crispEdges;"/>
<rect x="90.9090909090909" y="63.63636363636363" width="3.0303030303030303" height="3.0303030303030303" style="fill:#404040;shape-rendering:crispEdges;"/>
<rect x="93.93939393939394" y="63.63636363636363" width="3.0303030303030303" height="3.0303030303030303" style="fill:#404040;shape-rendering:crispEdges;"/>
<rect x="96.96969696969697" y="63.63636363636363" width="3.0303030303030303" height="3.0303030303030303" style="fill:#404040;shape-rendering:crispEdges;"/>
<rect x="0" y="66.66666666666667" width="3.0303030303030303" height="3.0303030303030303" style="fill:#404040;shape-rendering:crispEdges;"/>
<rect x="3.0303030303030303" y="66.66666666666667" width="3.0303030303030303" height="3.0303030303030303" style="fill:#404040;shape-rendering:crispEdges;"/>
<rect x="6.0606060606060606" y="66.66666666666667" width="3.0303030303030303" height="3.0303030303030303" style="fill:#404040;shape-rendering:crispEdges;"/>
<rect x="15.151515151515152" y="66.66666666666667" width="3.0303030303030303" height="3.0303030303030303" style="fill:#404040;shape-rendering:crispEdges;"/>
<rect x="18.18181818181818" y="66.66666666666667" width="3.0303030303030303" height="3.0303030303030303" style="fill:#404040;shape-rendering:crispEdges;"/>
<rect x="24.242424242424242" y="66.66666666666667" width="3.0303030303030303" height="3.0303030303030303" style="fill:#404040;shape-rendering:crispEdges;"/>
<rect x="27.272727272727273" y="66.66666666666667" width="3.0303030303030303" height="3.0303030303030303" style="fill:#404040;shape-rendering:crispEdges;"/>
<rect x="30.303030303030305" y="66.66666666666667" width="3.0303030303030303" height="3.0303030303030303" style="fill:#404040;shape-rendering:crispEdges;"/>
<rect x="39.39393939393939" y="66.66666666666667" width="3.0303030303030303" height="3.0303030303030303" style="fill:#404040;shape-rendering:crispEdges;"/>
<rect x="42.42424242424242" y="66.66666666666667" width="3.0303030303030303" height="3.0303030303030303" style="fill:#404040;shape-rendering:crispEdges;"/>
<rect x="48.484848484848484" y="66.66666666666667" width="3.0303030303030303" height="3.0303030303030303" style="fill:#404040;shape-rendering:crispEdges;"/>
<rect x="57.57575757575758" y="66.66666666666667" width="3.0303030303030303" height="3.0303030303030303" style="fill:#404040;shape-rendering:crispEdges;"/>
<rect x="60.60606060606061" y="66.66666666666667" width="3.0303030303030303" height="3.0303030303030303" style="fill:#404040;shape-rendering:crispEdges;"/>
<rect x="66.66666666666667" y="66.66666666666667" width="3.0303030303030303" height="3.0303030303030303" style="fill:#404040;shape-rendering:crispEdges;"/>
<rect x="72.72727272727272" y="66.66666666666667" width="3.0303030303030303" height="3.0303030303030303" style="fill:#404040;shape-rendering:crispEdges;"/>
<rect x="78.78787878787878" y="66.66666666666667" width="3.0303030303030303" height="3.0303030303030303" style="fill:#404040;shape-rendering:crispEdges;"/>
<rect x="87.87878787878788" y="66.66666666666667" width="3.0303030303030303" height="3.0303030303030303" style="fill:#404040;shape-rendering:crispEdges;"/>
<rect x="93.93939393939394" y="66.66666666666667" width="3.0303030303030303" height="3.0303030303030303" style="fill:#404040;shape-rendering:crispEdges;"/>
<rect x="96.96969696969697" y="66.66666666666667" width="3.0303030303030303" height="3.0303030303030303" style="fill:#404040;shape-rendering:crispEdges;"/>
<rect x="0" y="69.6969696969697" width="3.0303030303030303" height="3.0303030303030303" style="fill:#404040;shape-rendering:crispEdges;"/>
<rect x="9.09090909090909" y="69.6969696969697" width="3.0303030303030303" height="3.0303030303030303" style="fill:#404040;shape-rendering:crispEdges;"/>
<rect x="21.21212121212121" y="69.6969696969697" width="3.0303030303030303" height="3.0303030303030303" style="fill:#404040;shape-rendering:crispEdges;"/>
<rect x="30.303030303030305" y="69.6969696969697" width="3.0303030303030303" height="3.0303030303030303" style="fill:#404040;shape-rendering:crispEdges;"/>
<rect x="48.484848484848484" y="69.6969696969697" width="3.0303030303030303" height="3.0303030303030303" style="fill:#404040;shape-rendering:crispEdges;"/>
<rect x="51.515151515151516" y="69.6969696969697" width="3.0303030303030303" height="3.0303030303030303" style="fill:#404040;shape-rendering:crispEdges;"/>
<rect x="54.54545454545455" y="69.6969696969697" width="3.0303030303030303" height="3.0303030303030303" style="fill:#404040;shape-rendering:crispEdges;"/>
<rect x="57.57575757575758" y="69.6969696969697" width="3.0303030303030303" height="3.0303030303030303" style="fill:#404040;shape-rendering:crispEdges;"/>
<rect x="66.66666666666667" y="69.6969696969697" width="3.0303030303030303" height="3.0303030303030303" style="fill:#404040;shape-rendering:crispEdges;"/>
<rect x="75.75757575757575" y="69.6969696969697" width="3.0303030303030303" height="3.0303030303030303" style="fill:#404040;shape-rendering:crispEdges;"/>
<rect x="78.78787878787878" y="69.6969696969697" width="3.0303030303030303" height="3.0303030303030303" style="fill:#404040;shape-rendering:crispEdges;"/>
<rect x="87.87878787878788" y="69.6969696969697" width="3.0303030303030303" height="3.0303030303030303" style="fill:#404040;shape-rendering:crispEdges;"/>
<rect x="90.9090909090909" y="69.6969696969697" width="3.0303030303030303" height="3.0303030303030303" style="fill:#404040;shape-rendering:crispEdges;"/>
<rect x="96.96969696969697" y="69.6969696969697" width="3.0303030303030303" height="3.0303030303030303" style="fill:#404040;shape-rendering:crispEdges;"/>
<rect x="0" y="72.72727272727272" width="3.0303030303030303" height="3.0303030303030303" style="fill:#404040;shape-rendering:crispEdges;"/>
<rect x="3.0303030303030303" y="72.72727272727272" width="3.0303030303030303" height="3.0303030303030303" style="fill:#404040;shape-rendering:crispEdges;"/>
<rect x="6.0606060606060606" y="72.72727272727272" width="3.0303030303030303" height="3.0303030303030303" style="fill:#404040;shape-rendering:crispEdges;"/>
<rect x="9.09090909090909" y="72.72727272727272" width="3.0303030303030303" height="3.0303030303030303" style="fill:#404040;shape-rendering:crispEdges;"/>
<rect x="12.121212121212121" y="72.72727272727272" width="3.0303030303030303" height="3.0303030303030303" style="fill:#404040;shape-rendering:crispEdges;"/>
<rect x="18.18181818181818" y="72.72727272727272" width="3.0303030303030303" height="3.0303030303030303" style="fill:#404040;shape-rendering:crispEdges;"/>
<rect x="36.36363636363636" y="72.72727272727272" width="3.0303030303030303" height="3.0303030303030303" style="fill:#404040;shape-rendering:crispEdges;"/>
<rect x="45.45454545454545" y="72.72727272727272" width="3.0303030303030303" height="3.0303030303030303" style="fill:#404040;shape-rendering:crispEdges;"/>
<rect x="54.54545454545455" y="72.72727272727272" width="3.0303030303030303" height="3.0303030303030303" style="fill:#404040;shape-rendering:crispEdges;"/>
<rect x="60.60606060606061" y="72.72727272727272" width="3.0303030303030303" height="3.0303030303030303" style="fill:#404040;shape-rendering:crispEdges;"/>
<rect x="63.63636363636363" y="72.72727272727272" width="3.0303030303030303" height="3.0303030303030303" style="fill:#404040;shape-rendering:crispEdges;"/>
<rect x="72.72727272727272" y="72.72727272727272" width="3.0303030303030303" height="3.0303030303030303" style="fill:#404040;shape-rendering:crispEdges;"/>
<rect x="75.75757575757575" y="72.72727272727272" width="3.0303030303030303" height="3.0303030303030303" style="fill:#404040;shape-rendering:crispEdges;"/>
<rect x="78.78787878787878" y="72.72727272727272" width="3.0303030303030303" height="3.0303030303030303" style="fill:#404040;shape-rendering:crispEdges;"/>
<rect x="81.81818181818181" y="72.72727272727272" width="3.0303030303030303" height="3.0303030303030303" style="fill:#404040;shape-rendering:crispEdges;"/>
<rect x="84.84848484848484" y="72.72727272727272" width="3.0303030303030303" height="3.0303030303030303" style="fill:#404040;shape-rendering:crispEdges;"/>
<rect x="87.87878787878788" y="72.72727272727272" width="3.0303030303030303" height="3.0303030303030303" style="fill:#404040;shape-rendering:crispEdges;"/>
<rect x="93.93939393939394" y="72.72727272727272" width="3.0303030303030303" height="3.0303030303030303" style="fill:#404040;shape-rendering:crispEdges;"/>
<rect x="96.96969696969697" y="72.72727272727272" width="3.0303030303030303" height="3.0303030303030303" style="fill:#404040;shape-rendering:crispEdges;"/>
<rect x="24.242424242424242" y="75.75757575757575" width="3.0303030303030303" height="3.0303030303030303" style="fill:#404040;shape-rendering:crispEdges;"/>
<rect x="30.303030303030305" y="75.75757575757575" width="3.0303030303030303" height="3.0303030303030303" style="fill:#404040;shape-rendering:crispEdges;"/>
<rect x="33.333333333333336" y="75.75757575757575" width="3.0303030303030303" height="3.0303030303030303" style="fill:#404040;shape-rendering:crispEdges;"/>
<rect x="48.484848484848484" y="75.75757575757575" width="3.0303030303030303" height="3.0303030303030303" style="fill:#404040;shape-rendering:crispEdges;"/>
<rect x="69.6969696969697" y="75.75757575757575" width="3.0303030303030303" height="3.0303030303030303" style="fill:#404040;shape-rendering:crispEdges;"/>
<rect x="72.72727272727272" y="75.75757575757575" width="3.0303030303030303" height="3.0303030303030303" style="fill:#404040;shape-rendering:crispEdges;"/>
<rect x="84.84848484848484" y="75.75757575757575" width="3.0303030303030303" height="3.0303030303030303" style="fill:#404040;shape-rendering:crispEdges;"/>
<rect x="0" y="78.78787878787878" width="3.0303030303030303" height="3.0303030303030303" style="fill:#404040;shape-rendering:crispEdges;"/>
<rect x="3.0303030303030303" y="78.78787878787878" width="3.0303030303030303" height="3.0303030303030303" style="fill:#404040;shape-rendering:crispEdges;"/>
<rect x="6.0606060606060606" y="78.78787878787878" width="3.0303030303030303" height="3.0303030303030303" style="fill:#404040;shape-rendering:crispEdges;"/>
<rect x="9.09090909090909" y="78.78787878787878" width="3.0303030303030303" height="3.0303030303030303" style="fill:#404040;shape-rendering:crispEdges;"/>
<rect x="12.121212121212121" y="78.78787878787878" width="3.0303030303030303" height="3.0303030303030303" style="fill:#404040;shape-rendering:crispEdges;"/>
<rect x="15.151515151515152" y="78.78787878787878" width="3.0303030303030303" height="3.0303030303030303" style="fill:#404040;shape-rendering:crispEdges;"/>
<rect x="18.18181818181818" y="78.78787878787878" width="3.0303030303030303" height="3.0303030303030303" style="fill:#404040;shape-rendering:crispEdges;"/>
<rect x="24.242424242424242" y="78.78787878787878" width="3.0303030303030303" height="3.0303030303030303" style="fill:#404040;shape-rendering:crispEdges;"/>
<rect x="36.36363636363636" y="78.78787878787878" width="3.0303030303030303" height="3.0303030303030303" style="fill:#404040;shape-rendering:crispEdges;"/>
<rect x="42.42424242424242" y="78.78787878787878" width="3.0303030303030303" height="3.0303030303030303" style="fill:#404040;shape-rendering:crispEdges;"/>
<rect x="45.45454545454545" y="78.78787878787878" width="3.0303030303030303" height="3.0303030303030303" style="fill:#404040;shape-rendering:crispEdges;"/>
<rect x="48.484848484848484" y="78.78787878787878" width="3.0303030303030303" height="3.0303030303030303" style="fill:#404040;shape-rendering:crispEdges;"/>
<rect x="60.60606060606061" y="78.78787878787878" width="3.0303030303030303" height="3.0303030303030303" style="fill:#404040;shape-rendering:crispEdges;"/>
<rect x="63.63636363636363" y="78.78787878787878" width="3.0303030303030303" height="3.0303030303030303" style="fill:#404040;shape-rendering:crispEdges;"/>
<rect x="72.72727272727272" y="78.78787878787878" width="3.0303030303030303" height="3.0303030303030303" style="fill:#404040;shape-rendering:crispEdges;"/>
<rect x="78.78787878787878" y="78.78787878787878" width="3.0303030303030303" height="3.0303030303030303" style="fill:#404040;shape-rendering:crispEdges;"/>
<rect x="84.84848484848484" y="78.78787878787878" width="3.0303030303030303" height="3.0303030303030303" style="fill:#404040;shape-rendering:crispEdges;"/>
<rect x="87.87878787878788" y="78.78787878787878" width="3.0303030303030303" height="3.0303030303030303" style="fill:#404040;shape-rendering:crispEdges;"/>
<rect x="96.96969696969697" y="78.78787878787878" width="3.0303030303030303" height="3.0303030303030303" style="fill:#404040;shape-rendering:crispEdges;"/>
<rect x="0" y="81.81818181818181" width="3.0303030303030303" height="3.0303030303030303" style="fill:#404040;shape-rendering:crispEdges;"/>
<rect x="18.18181818181818" y="81.81818181818181" width="3.0303030303030303" height="3.0303030303030303" style="fill:#404040;shape-rendering:crispEdges;"/>
<rect x="24.242424242424242" y="81.81818181818181" width="3.0303030303030303" height="3.0303030303030303" style="fill:#404040;shape-rendering:crispEdges;"/>
<rect x="30.303030303030305" y="81.81818181818181" width="3.0303030303030303" height="3.0303030303030303" style="fill:#404040;shape-rendering:crispEdges;"/>
<rect x="36.36363636363636" y="81.81818181818181" width="3.0303030303030303" height="3.0303030303030303" style="fill:#404040;shape-rendering:crispEdges;"/>
<rect x="45.45454545454545" y="81.81818181818181" width="3.0303030303030303" height="3.0303030303030303" style="fill:#404040;shape-rendering:crispEdges;"/>
<rect x="51.515151515151516" y="81.81818181818181" width="3.0303030303030303" height="3.0303030303030303" style="fill:#404040;shape-rendering:crispEdges;"/>
<rect x="57.57575757575758" y="81.81818181818181" width="3.0303030303030303" height="3.0303030303030303" style="fill:#404040;shape-rendering:crispEdges;"/>
<rect x="60.60606060606061" y="81.81818181818181" width="3.0303030303030303" height="3.0303030303030303" style="fill:#404040;shape-rendering:crispEdges;"/>
<rect x="63.63636363636363" y="81.81818181818181" width="3.0303030303030303" height="3.0303030303030303" style="fill:#404040;shape-rendering:crispEdges;"/>
<rect x="66.66666666666667" y="81.81818181818181" width="3.0303030303030303" height="3.0303030303030303" style="fill:#404040;shape-rendering:crispEdges;"/>
<rect x="72.72727272727272" y="81.81818181818181" width="3.0303030303030303" height="3.0303030303030303" style="fill:#404040;shape-rendering:crispEdges;"/>
<rect x="84.84848484848484" y="81.81818181818181" width="3.0303030303030303" height="3.0303030303030303" style="fill:#404040;shape-rendering:crispEdges;"/>
<rect x="96.96969696969697" y="81.81818181818181" width="3.0303030303030303" height="3.0303030303030303" style="fill:#404040;shape-rendering:crispEdges;"/>
<rect x="0" y="84.84848484848484" width="3.0303030303030303" height="3.0303030303030303" style="fill:#404040;shape-rendering:crispEdges;"/>
<rect x="6.0606060606060606" y="84.84848484848484" width="3.0303030303030303" height="3.0303030303030303" style="fill:#404040;shape-rendering:crispEdges;"/>
<rect x="9.09090909090909" y="84.84848484848484" width="3.0303030303030303" height="3.0303030303030303" style="fill:#404040;shape-rendering:crispEdges;"/>
<rect x="12.121212121212121" y="84.84848484848484" width="3.0303030303030303" height="3.0303030303030303" style="fill:#404040;shape-rendering:crispEdges;"/>
<rect x="18.18181818181818" y="84.84848484848484" width="3.0303030303030303" height="3.0303030303030303" style="fill:#404040;shape-rendering:crispEdges;"/>
<rect x="24.242424242424242" y="84.84848484848484" width="3.0303030303030303" height="3.0303030303030303" style="fill:#404040;shape-rendering:crispEdges;"/>
<rect x="36.36363636363636" y="84.84848484848484" width="3.0303030303030303" height="3.0303030303030303" style="fill:#404040;shape-rendering:crispEdges;"/>
<rect x="42.42424242424242" y="84.84848484848484" width="3.0303030303030303" height="3.0303030303030303" style="fill:#404040;shape-rendering:crispEdges;"/>
<rect x="45.45454545454545" y="84.84848484848484" width="3.0303030303030303" height="3.0303030303030303" style="fill:#404040;shape-rendering:crispEdges;"/>
<rect x="48.484848484848484" y="84.84848484848484" width="3.0303030303030303" height="3.0303030303030303" style="fill:#404040;shape-rendering:crispEdges;"/>
<rect x="54.54545454545455" y="84.84848484848484" width="3.0303030303030303" height="3.0303030303030303" style="fill:#404040;shape-rendering:crispEdges;"/>
<rect x="69.6969696969697" y="84.84848484848484" width="3.0303030303030303" height="3.0303030303030303" style="fill:#404040;shape-rendering:crispEdges;"/>
<rect x="72.72727272727272" y="84.84848484848484" width="3.0303030303030303" height="3.0303030303030303" style="fill:#404040;shape-rendering:crispEdges;"/>
<rect x="75.75757575757575" y="84.84848484848484" width="3.0303030303030303" height="3.0303030303030303" style="fill:#404040;shape-rendering:crispEdges;"/>
<rect x="78.78787878787878" y="84.84848484848484" width="3.0303030303030303" height="3.0303030303030303" style="fill:#404040;shape-rendering:crispEdges;"/>
<rect x="81.81818181818181" y="84.84848484848484" width="3.0303030303030303" height="3.0303030303030303" style="fill:#404040;shape-rendering:crispEdges;"/>
<rect x="84.84848484848484" y="84.84848484848484" width="3.0303030303030303" height="3.0303030303030303" style="fill:#404040;shape-rendering:crispEdges;"/>
<rect x="87.87878787878788" y="84.84848484848484" width="3.0303030303030303" height="3.0303030303030303" style="fill:#404040;shape-rendering:crispEdges;"/>
<rect x="90.9090909090909" y="84.84848484848484" width="3.0303030303030303" height="3.0303030303030303" style="fill:#404040;shape-rendering:crispEdges;"/>
<rect x="96.96969696969697" y="84.84848484848484" width="3.0303030303030303" height="3.0303030303030303" style="fill:#404040;shape-rendering:crispEdges;"/>
<rect x="0" y="87.87878787878788" width="3.0303030303030303" height="3.0303030303030303" style="fill:#404040;shape-rendering:crispEdges;"/>
<rect x="6.0606060606060606" y="87.87878787878788" width="3.0303030303030303" height="3.0303030303030303" style="fill:#404040;shape-rendering:crispEdges;"/>
<rect x="9.09090909090909" y="87.87878787878788" width="3.0303030303030303" height="3.0303030303030303" style="fill:#404040;shape-rendering:crispEdges;"/>
<rect x="12.121212121212121" y="87.87878787878788" width="3.0303030303030303" height="3.0303030303030303" style="fill:#404040;shape-rendering:crispEdges;"/>
<rect x="18.18181818181818" y="87.87878787878788" width="3.0303030303030303" height="3.0303030303030303" style="fill:#404040;shape-rendering:crispEdges;"/>
<rect x="24.242424242424242" y="87.87878787878788" width="3.0303030303030303" height="3.0303030303030303" style="fill:#404040;shape-rendering:crispEdges;"/>
<rect x="36.36363636363636" y="87.87878787878788" width="3.0303030303030303" height="3.0303030303030303" style="fill:#404040;shape-rendering:crispEdges;"/>
<rect x="39.39393939393939" y="87.87878787878788" width="3.0303030303030303" height="3.0303030303030303" style="fill:#404040;shape-rendering:crispEdges;"/>
<rect x="42.42424242424242" y="87.87878787878788" width="3.0303030303030303" height="3.0303030303030303" style="fill:#404040;shape-rendering:crispEdges;"/>
<rect x="51.515151515151516" y="87.87878787878788" width="3.0303030303030303" height="3.0303030303030303" style="fill:#404040;shape-rendering:crispEdges;"/>
<rect x="54.54545454545455" y="87.87878787878788" width="3.0303030303030303" height="3.0303030303030303" style="fill:#404040;shape-rendering:crispEdges;"/>
<rect x="63.63636363636363" y="87.87878787878788" width="3.0303030303030303" height="3.0303030303030303" style="fill:#404040;shape-rendering:crispEdges;"/>
<rect x="66.66666666666667" y="87.87878787878788" width="3.0303030303030303" height="3.0303030303030303" style="fill:#404040;shape-rendering:crispEdges;"/>
<rect x="72.72727272727272" y="87.87878787878788" width="3.0303030303030303" height="3.0303030303030303" style="fill:#404040;shape-rendering:crispEdges;"/>
<rect x="87.87878787878788" y="87.87878787878788" width="3.0303030303030303" height="3.0303030303030303" style="fill:#404040;shape-rendering:crispEdges;"/>
<rect x="96.96969696969697" y="87.87878787878788" width="3.0303030303030303" height="3.0303030303030303" style="fill:#404040;shape-rendering:crispEdges;"/>
<rect x="0" y="90.9090909090909" width="3.0303030303030303" height="3.0303030303030303" style="fill:#404040;shape-rendering:crispEdges;"/>
<rect x="6.0606060606060606" y="90.9090909090909" width="3.0303030303030303" height="3.0303030303030303" style="fill:#404040;shape-rendering:crispEdges;"/>
<rect x="9.09090909090909" y="90.9090909090909" width="3.0303030303030303" height="3.0303030303030303" style="fill:#404040;shape-rendering:crispEdges;"/>
<rect x="12.121212121212121" y="90.9090909090909" width="3.0303030303030303" height="3.0303030303030303" style="fill:#404040;shape-rendering:crispEdges;"/>
<rect x="18.18181818181818" y="90.9090909090909" width="3.0303030303030303" height="3.0303030303030303" style="fill:#404040;shape-rendering:crispEdges;"/>
<rect x="39.39393939393939" y="90.9090909090909" width="3.0303030303030303" height="3.0303030303030303" style="fill:#404040;shape-rendering:crispEdges;"/>
<rect x="48.484848484848484" y="90.9090909090909" width="3.0303030303030303" height="3.0303030303030303" style="fill:#404040;shape-rendering:crispEdges;"/>
<rect x="51.515151515151516" y="90.9090909090909" width="3.0303030303030303" height="3.0303030303030303" style="fill:#404040;shape-rendering:crispEdges;"/>
<rect x="72.72727272727272" y="90.9090909090909" width="3.0303030303030303" height="3.0303030303030303" style="fill:#404040;shape-rendering:crispEdges;"/>
<rect x="75.75757575757575" y="90.9090909090909" width="3.0303030303030303" height="3.0303030303030303" style="fill:#404040;shape-rendering:crispEdges;"/>
<rect x="78.78787878787878" y="90.9090909090909" width="3.0303030303030303" height="3.0303030303030303" style="fill:#404040;shape-rendering:crispEdges;"/>
<rect x="87.87878787878788" y="90.9090909090909" width="3.0303030303030303" height="3.0303030303030303" style="fill:#404040;shape-rendering:crispEdges;"/>
<rect x="0" y="93.93939393939394" width="3.0303030303030303" height="3.0303030303030303" style="fill:#404040;shape-rendering:crispEdges;"/>
<rect x="18.18181818181818" y="93.93939393939394" width="3.0303030303030303" height="3.0303030303030303" style="fill:#404040;shape-rendering:crispEdges;"/>
<rect x="30.303030303030305" y="93.93939393939394" width="3.0303030303030303" height="3.0303030303030303" style="fill:#404040;shape-rendering:crispEdges;"/>
<rect x="33.333333333333336" y="93.93939393939394" width="3.0303030303030303" height="3.0303030303030303" style="fill:#404040;shape-rendering:crispEdges;"/>
<rect x="36.36363636363636" y="93.93939393939394" width="3.0303030303030303" height="3.0303030303030303" style="fill:#404040;shape-rendering:crispEdges;"/>
<rect x="39.39393939393939" y="93.93939393939394" width="3.0303030303030303" height="3.0303030303030303" style="fill:#404040;shape-rendering:crispEdges;"/>
<rect x="42.42424242424242" y="93.93939393939394" width="3.0303030303030303" height="3.0303030303030303" style="fill:#404040;shape-rendering:crispEdges;"/>
<rect x="48.484848484848484" y="93.93939393939394" width="3.0303030303030303" height="3.0303030303030303" style="fill:#404040;shape-rendering:crispEdges;"/>
<rect x="51.515151515151516" y="93.93939393939394" width="3.0303030303030303" height="3.0303030303030303" style="fill:#404040;shape-rendering:crispEdges;"/>
<rect x="54.54545454545455" y="93.93939393939394" width="3.0303030303030303" height="3.0303030303030303" style="fill:#404040;shape-rendering:crispEdges;"/>
<rect x="63.63636363636363" y="93.93939393939394" width="3.0303030303030303" height="3.0303030303030303" style="fill:#404040;shape-rendering:crispEdges;"/>
<rect x="66.66666666666667" y="93.93939393939394" width="3.0303030303030303" height="3.0303030303030303" style="fill:#404040;shape-rendering:crispEdges;"/>
<rect x="72.72727272727272" y="93.93939393939394" width="3.0303030303030303" height="3.0303030303030303" style="fill:#404040;shape-rendering:crispEdges;"/>
<rect x="78.78787878787878" y="93.93939393939394" width="3.0303030303030303" height="3.0303030303030303" style="fill:#404040;shape-rendering:crispEdges;"/>
<rect x="87.87878787878788" y="93.93939393939394" width="3.0303030303030303" height="3.0303030303030303" style="fill:#404040;shape-rendering:crispEdges;"/>
<rect x="0" y="96.96969696969697" width="3.0303030303030303" height="3.0303030303030303" style="fill:#404040;shape-rendering:crispEdges;"/>
<rect x="3.0303030303030303" y="96.96969696969697" width="3.0303030303030303" height="3.0303030303030303" style="fill:#404040;shape-rendering:crispEdges;"/>
<rect x="6.0606060606060606" y="96.96969696969697" width="3.0303030303030303" height="3.0303030303030303" style="fill:#404040;shape-rendering:crispEdges;"/>
<rect x="9.09090909090909" y="96.96969696969697" width="3.0303030303030303" height="3.0303030303030303" style="fill:#404040;shape-rendering:crispEdges;"/>
<rect x="12.121212121212121" y="96.96969696969697" width="3.0303030303030303" height="3.0303030303030303" style="fill:#404040;shape-rendering:crispEdges;"/>
<rect x="15.151515151515152" y="96.96969696969697" width="3.0303030303030303" height="3.0303030303030303" style="fill:#404040;shape-rendering:crispEdges;"/>
<rect x="18.18181818181818" y="96.96969696969697" width="3.0303030303030303" height="3.0303030303030303" style="fill:#404040;shape-rendering:crispEdges;"/>
<rect x="24.242424242424242" y="96.96969696969697" width="3.0303030303030303" height="3.0303030303030303" style="fill:#404040;shape-rendering:crispEdges;"/>
<rect x="27.272727272727273" y="96.96969696969697" width="3.0303030303030303" height="3.0303030303030303" style="fill:#404040;shape-rendering:crispEdges;"/>
<rect x="45.45454545454545" y="96.96969696969697" width="3.0303030303030303" height="3.0303030303030303" style="fill:#404040;shape-rendering:crispEdges;"/>
<rect x="48.484848484848484" y="96.96969696969697" width="3.0303030303030303" height="3.0303030303030303" style="fill:#404040;shape-rendering:crispEdges;"/>
<rect x="60.60606060606061" y="96.96969696969697" width="3.0303030303030303" height="3.0303030303030303" style="fill:#404040;shape-rendering:crispEdges;"/>
<rect x="69.6969696969697" y="96.96969696969697" width="3.0303030303030303" height="3.0303030303030303" style="fill:#404040;shape-rendering:crispEdges;"/>
<rect x="81.81818181818181" y="96.96969696969697" width="3.0303030303030303" height="3.0303030303030303" style="fill:#404040;shape-rendering:crispEdges;"/>
<rect x="84.84848484848484" y="96.96969696969697" width="3.0303030303030303" height="3.0303030303030303" style="fill:#404040;shape-rendering:crispEdges;"/>
<rect x="96.96969696969697" y="96.96969696969697" width="3.0303030303030303" height="3.0303030303030303" style="fill:#404040;shape-rendering:crispEdges;"/>
</svg>