<?xml version="1.0" standalone="no"?>
<!DOCTYPE svg PUBLIC "-//W3C//DTD SVG 20010904//EN"
 "http://www.w3.org/TR/2001/REC-SVG-20010904/DTD/svg10.dtd">
<svg version="1.0" xmlns="http://www.w3.org/2000/svg"
 width="622.000000pt" height="582.000000pt" viewBox="0 0 622.000000 582.000000"
 preserveAspectRatio="xMidYMid meet">

<g transform="translate(0.000000,582.000000) scale(0.100000,-0.100000)"
fill="#000000" stroke="none">
<path d="M3205 5244 c-11 -3 -56 -12 -100 -20 -248 -48 -449 -164 -510 -296
-30 -64 -31 -88 -5 -115 45 -49 98 -35 137 37 35 63 59 87 129 126 113 63 352
124 483 124 249 -2 468 -168 666 -504 135 -231 338 -689 385 -871 4 -16 18
-66 30 -110 23 -84 79 -311 107 -430 110 -479 280 -1056 383 -1300 80 -192
163 -328 259 -428 100 -105 242 -138 351 -82 104 54 240 248 240 343 0 82
-111 109 -142 35 -43 -105 -62 -138 -110 -187 -29 -30 -66 -58 -81 -62 -141
-34 -312 222 -476 713 -61 184 -203 684 -231 813 -84 394 -192 791 -267 980
-87 222 -236 533 -328 685 -123 204 -281 375 -419 454 -131 74 -202 94 -351
97 -71 2 -139 1 -150 -2z"/>
<path d="M1510 4530 c-126 -67 -342 -408 -434 -683 -114 -341 -125 -696 -36
-1107 12 -52 25 -115 30 -140 8 -43 40 -166 90 -345 47 -171 61 -223 80 -310
12 -49 25 -108 30 -130 81 -336 93 -703 29 -861 -44 -110 -123 -246 -209 -362
-55 -74 -100 -140 -100 -147 0 -30 24 -64 53 -76 46 -19 70 0 177 143 137 181
217 343 262 528 17 71 17 332 0 465 -24 181 -86 470 -154 715 -88 318 -118
444 -152 625 -51 273 -57 480 -22 685 36 207 128 455 228 615 51 79 148 208
177 232 38 33 61 30 61 -8 0 -63 48 -101 101 -79 34 14 49 48 49 108 0 56 -26
104 -72 132 -44 26 -139 27 -188 0z"/>
<path d="M2775 4129 c-306 -29 -635 -182 -852 -396 -301 -297 -440 -686 -404
-1130 14 -165 30 -257 65 -365 84 -260 254 -556 401 -697 98 -94 142 -119 182
-105 35 12 58 52 50 86 -4 16 -38 52 -86 91 -170 142 -363 492 -433 791 -19
79 -22 122 -22 321 -1 249 7 297 71 470 89 240 299 487 513 604 145 79 243
118 376 152 79 21 113 23 309 23 195 1 229 -2 296 -21 221 -62 376 -149 500
-280 224 -238 327 -415 384 -663 27 -117 25 -403 -3 -537 -67 -315 -220 -575
-427 -728 -91 -67 -245 -154 -365 -205 -105 -45 -120 -59 -120 -106 0 -36 37
-74 73 -74 59 0 397 177 518 271 159 123 289 299 372 500 98 237 122 357 121
624 -1 228 -13 307 -70 466 -44 123 -127 271 -204 362 -10 12 -52 63 -93 112
-127 153 -222 228 -392 311 -232 113 -464 151 -760 123z"/>
<path d="M3215 3017 c-41 -41 -50 -72 -36 -124 22 -81 100 -119 158 -78 54 38
55 165 2 210 -43 36 -83 33 -124 -8z"/>
<path d="M2357 2910 c-36 -28 -54 -114 -34 -162 21 -49 71 -88 114 -88 27 0
43 8 69 34 31 31 34 39 34 95 0 56 -3 63 -38 101 -33 34 -45 40 -79 40 -25 0
-50 -8 -66 -20z"/>
<path d="M3404 2149 c-11 -6 -28 -23 -37 -39 -9 -15 -33 -42 -52 -59 -48 -42
-89 -41 -223 6 -140 49 -207 50 -341 4 -149 -50 -211 -108 -211 -195 0 -46 29
-76 73 -76 36 0 77 33 77 63 0 20 38 41 123 67 90 28 138 25 258 -17 170 -59
261 -48 357 46 53 52 82 98 82 132 0 53 -60 91 -106 68z"/>
</g>
</svg>
