<svg xmlns="http://www.w3.org/2000/svg" width="1600" height="524"><path d="M-164,-160L144,-158L329,-159Z" fill="#e7f6e0" stroke="#e7f6e0" stroke-width="1.51"/><path d="M329,-159L551,-148L953,-154Z" fill="#c7e9d1" stroke="#c7e9d1" stroke-width="1.51"/><path d="M740,675L426,688L1376,697Z" fill="#4a85a9" stroke="#4a85a9" stroke-width="1.51"/><path d="M985,655L740,675L1376,697Z" fill="#367fb0" stroke="#367fb0" stroke-width="1.51"/><path d="M-164,-160L329,-159L1509,-167Z" fill="#cdebd0" stroke="#cdebd0" stroke-width="1.51"/><path d="M329,-159L953,-154L1509,-167Z" fill="#b0dcdc" stroke="#b0dcdc" stroke-width="1.51"/><path d="M1231,-109L1384,-121L1509,-167Z" fill="#97bad0" stroke="#97bad0" stroke-width="1.51"/><path d="M953,-154L1231,-109L1509,-167Z" fill="#9ec6d6" stroke="#9ec6d6" stroke-width="1.51"/><path d="M1720,-62L1660,35L1741,67Z" fill="#7e9aaf" stroke="#7e9aaf" stroke-width="1.51"/><path d="M1668,664L1472,688L1751,663Z" fill="#095497" stroke="#095497" stroke-width="1.51"/><path d="M1711,529L1668,664L1751,663Z" fill="#09579a" stroke="#09579a" stroke-width="1.51"/><path d="M1665,374L1651,456L1752,493Z" fill="#2876ad" stroke="#2876ad" stroke-width="1.51"/><path d="M1711,529L1751,663L1752,493Z" fill="#125f9e" stroke="#125f9e" stroke-width="1.51"/><path d="M1665,374L1752,493L1753,356Z" fill="#2e78ad" stroke="#2e78ad" stroke-width="1.51"/><path d="M1509,-167L1623,-136L1778,-134Z" fill="#8fa5c3" stroke="#8fa5c3" stroke-width="1.51"/><path d="M1720,-62L1741,67L1778,-134Z" fill="#8198b0" stroke="#8198b0" stroke-width="1.51"/><path d="M1741,67L1755,182L1778,-134Z" fill="#7b94a8" stroke="#7b94a8" stroke-width="1.51"/><path d="M1755,182L1639,227L1781,290Z" fill="#578ba8" stroke="#578ba8" stroke-width="1.51"/><path d="M1639,227L1753,356L1781,290Z" fill="#4986ab" stroke="#4986ab" stroke-width="1.51"/><path d="M1752,493L1751,663L1781,290Z" fill="#1f69a3" stroke="#1f69a3" stroke-width="1.51"/><path d="M1753,356L1752,493L1781,290Z" fill="#327aac" stroke="#327aac" stroke-width="1.51"/><path d="M1778,-134L1755,182L1781,290Z" fill="#6f8fa1" stroke="#6f8fa1" stroke-width="1.51"/><path d="M1639,227L1665,374L1753,356Z" fill="#4386b0" stroke="#4386b0" stroke-width="1.51"/><path d="M1741,67L1641,136L1755,182Z" fill="#6e93a5" stroke="#6e93a5" stroke-width="1.51"/><path d="M1623,-136L1720,-62L1778,-134Z" fill="#899eba" stroke="#899eba" stroke-width="1.51"/><path d="M1623,-136L1669,-64L1720,-62Z" fill="#88a0bb" stroke="#88a0bb" stroke-width="1.51"/><path d="M1641,136L1639,227L1755,182Z" fill="#6492a9" stroke="#6492a9" stroke-width="1.51"/><path d="M1651,456L1711,529L1752,493Z" fill="#1d6ca7" stroke="#1d6ca7" stroke-width="1.51"/><path d="M1590,641L1472,688L1668,664Z" fill="#095a9d" stroke="#095a9d" stroke-width="1.51"/><path d="M1636,527L1668,664L1711,529Z" fill="#1062a3" stroke="#1062a3" stroke-width="1.51"/><path d="M1669,-64L1660,35L1720,-62Z" fill="#839db4" stroke="#839db4" stroke-width="1.51"/><path d="M1660,35L1641,136L1741,67Z" fill="#7799ab" stroke="#7799ab" stroke-width="1.51"/><path d="M1639,227L1591,266L1665,374Z" fill="#4b8fb3" stroke="#4b8fb3" stroke-width="1.51"/><path d="M1651,456L1636,527L1711,529Z" fill="#1c6da9" stroke="#1c6da9" stroke-width="1.51"/><path d="M1636,527L1590,641L1668,664Z" fill="#095fa3" stroke="#095fa3" stroke-width="1.51"/><path d="M1587,122L1641,136L1660,35Z" fill="#759cae" stroke="#759cae" stroke-width="1.51"/><path d="M1591,266L1557,328L1665,374Z" fill="#448db7" stroke="#448db7" stroke-width="1.51"/><path d="M1547,444L1651,456L1665,374Z" fill="#2b7eb5" stroke="#2b7eb5" stroke-width="1.51"/><path d="M1519,-26L1660,35L1669,-64Z" fill="#84a2b9" stroke="#84a2b9" stroke-width="1.51"/><path d="M1623,-136L1519,-26L1669,-64Z" fill="#89a5c0" stroke="#89a5c0" stroke-width="1.51"/><path d="M1557,328L1547,444L1665,374Z" fill="#3387bb" stroke="#3387bb" stroke-width="1.51"/><path d="M1587,122L1639,227L1641,136Z" fill="#6a99ac" stroke="#6a99ac" stroke-width="1.51"/><path d="M1523,69L1587,122L1660,35Z" fill="#7aa0b4" stroke="#7aa0b4" stroke-width="1.51"/><path d="M1519,-26L1523,69L1660,35Z" fill="#82a5b9" stroke="#82a5b9" stroke-width="1.51"/><path d="M1522,556L1590,641L1636,527Z" fill="#0f69ab" stroke="#0f69ab" stroke-width="1.51"/><path d="M1547,444L1636,527L1651,456Z" fill="#2177b0" stroke="#2177b0" stroke-width="1.51"/><path d="M1587,122L1591,266L1639,227Z" fill="#6098b0" stroke="#6098b0" stroke-width="1.51"/><path d="M1547,444L1522,556L1636,527Z" fill="#1b75b2" stroke="#1b75b2" stroke-width="1.51"/><path d="M1587,122L1441,196L1591,266Z" fill="#659db5" stroke="#659db5" stroke-width="1.51"/><path d="M1509,-167L1519,-26L1623,-136Z" fill="#8eacc7" stroke="#8eacc7" stroke-width="1.51"/><path d="M1284,655L985,655L1376,697Z" fill="#2673ab" stroke="#2673ab" stroke-width="1.51"/><path d="M1509,-167L1470,-130L1519,-26Z" fill="#90b0c9" stroke="#90b0c9" stroke-width="1.51"/><path d="M1523,69L1441,196L1587,122Z" fill="#74a4b4" stroke="#74a4b4" stroke-width="1.51"/><path d="M1462,329L1557,328L1591,266Z" fill="#4995bc" stroke="#4995bc" stroke-width="1.51"/><path d="M1441,196L1462,329L1591,266Z" fill="#549cbb" stroke="#549cbb" stroke-width="1.51"/><path d="M1522,556L1472,688L1590,641Z" fill="#0c64a7" stroke="#0c64a7" stroke-width="1.51"/><path d="M953,-154L1112,-104L1231,-109Z" fill="#a3d0da" stroke="#a3d0da" stroke-width="1.51"/><path d="M1085,631L985,655L1284,655Z" fill="#2f7eb3" stroke="#2f7eb3" stroke-width="1.51"/><path d="M1441,196L1428,298L1462,329Z" fill="#539fbd" stroke="#539fbd" stroke-width="1.51"/><path d="M1475,559L1472,688L1522,556Z" fill="#0f6cae" stroke="#0f6cae" stroke-width="1.51"/><path d="M1519,-26L1490,47L1523,69Z" fill="#84aabc" stroke="#84aabc" stroke-width="1.51"/><path d="M1453,463L1522,556L1547,444Z" fill="#217db7" stroke="#217db7" stroke-width="1.51"/><path d="M1462,329L1453,463L1547,444Z" fill="#318bbf" stroke="#318bbf" stroke-width="1.51"/><path d="M1462,329L1547,444L1557,328Z" fill="#3890c0" stroke="#3890c0" stroke-width="1.51"/><path d="M1453,463L1475,559L1522,556Z" fill="#1d78b5" stroke="#1d78b5" stroke-width="1.51"/><path d="M1376,77L1441,196L1490,47Z" fill="#7aabb9" stroke="#7aabb9" stroke-width="1.51"/><path d="M1384,-121L1470,-130L1509,-167Z" fill="#95b4ce" stroke="#95b4ce" stroke-width="1.51"/><path d="M1454,-6L1490,47L1519,-26Z" fill="#87acbf" stroke="#87acbf" stroke-width="1.51"/><path d="M1470,-130L1454,-6L1519,-26Z" fill="#8bafc5" stroke="#8bafc5" stroke-width="1.51"/><path d="M1490,47L1441,196L1523,69Z" fill="#79a8b7" stroke="#79a8b7" stroke-width="1.51"/><path d="M1384,-121L1365,-50L1454,-6Z" fill="#8fb5c8" stroke="#8fb5c8" stroke-width="1.51"/><path d="M1373,429L1453,463L1462,329Z" fill="#3490c1" stroke="#3490c1" stroke-width="1.51"/><path d="M1384,-121L1454,-6L1470,-130Z" fill="#90b4c9" stroke="#90b4c9" stroke-width="1.51"/><path d="M1361,573L1376,697L1472,688Z" fill="#1869a7" stroke="#1869a7" stroke-width="1.51"/><path d="M1361,573L1472,688L1475,559Z" fill="#156eae" stroke="#156eae" stroke-width="1.51"/><path d="M1454,-6L1376,77L1490,47Z" fill="#85afbe" stroke="#85afbe" stroke-width="1.51"/><path d="M1453,463L1361,573L1475,559Z" fill="#207bb6" stroke="#207bb6" stroke-width="1.51"/><path d="M1428,298L1373,429L1462,329Z" fill="#4198c3" stroke="#4198c3" stroke-width="1.51"/><path d="M1323,335L1373,429L1428,298Z" fill="#429cc5" stroke="#429cc5" stroke-width="1.51"/><path d="M1376,77L1334,155L1441,196Z" fill="#75adb8" stroke="#75adb8" stroke-width="1.51"/><path d="M1373,429L1361,573L1453,463Z" fill="#2785bb" stroke="#2785bb" stroke-width="1.51"/><path d="M1337,272L1428,298L1441,196Z" fill="#59a4be" stroke="#59a4be" stroke-width="1.51"/><path d="M1365,-50L1376,77L1454,-6Z" fill="#89b3c2" stroke="#89b3c2" stroke-width="1.51"/><path d="M1334,155L1337,272L1441,196Z" fill="#67aabc" stroke="#67aabc" stroke-width="1.51"/><path d="M1126,624L1085,631L1284,655Z" fill="#2b7db3" stroke="#2b7db3" stroke-width="1.51"/><path d="M1337,272L1323,335L1428,298Z" fill="#4fa2c1" stroke="#4fa2c1" stroke-width="1.51"/><path d="M1250,432L1236,552L1361,573Z" fill="#2988bc" stroke="#2988bc" stroke-width="1.51"/><path d="M1250,432L1361,573L1373,429Z" fill="#2b8bbe" stroke="#2b8bbe" stroke-width="1.51"/><path d="M1365,-50L1279,-3L1376,77Z" fill="#8bb8c4" stroke="#8bb8c4" stroke-width="1.51"/><path d="M1361,573L1284,655L1376,697Z" fill="#1b6fab" stroke="#1b6fab" stroke-width="1.51"/><path d="M1231,-109L1365,-50L1384,-121Z" fill="#95bcce" stroke="#95bcce" stroke-width="1.51"/><path d="M1323,335L1250,432L1373,429Z" fill="#3a9ac6" stroke="#3a9ac6" stroke-width="1.51"/><path d="M1244,93L1334,155L1376,77Z" fill="#7db4bd" stroke="#7db4bd" stroke-width="1.51"/><path d="M1279,-3L1244,93L1376,77Z" fill="#87b9c1" stroke="#87b9c1" stroke-width="1.51"/><path d="M1231,-109L1279,-3L1365,-50Z" fill="#92becc" stroke="#92becc" stroke-width="1.51"/><path d="M1244,93L1246,123L1334,155Z" fill="#7cb7bd" stroke="#7cb7bd" stroke-width="1.51"/><path d="M1236,552L1284,655L1361,573Z" fill="#207bb6" stroke="#207bb6" stroke-width="1.51"/><path d="M1239,369L1250,432L1323,335Z" fill="#3fa1c9" stroke="#3fa1c9" stroke-width="1.51"/><path d="M1246,123L1223,293L1334,155Z" fill="#6fb3bf" stroke="#6fb3bf" stroke-width="1.51"/><path d="M1334,155L1223,293L1337,272Z" fill="#60adc0" stroke="#60adc0" stroke-width="1.51"/><path d="M1223,293L1323,335L1337,272Z" fill="#52a8c4" stroke="#52a8c4" stroke-width="1.51"/><path d="M1223,293L1239,369L1323,335Z" fill="#4ca7c8" stroke="#4ca7c8" stroke-width="1.51"/><path d="M551,-148L822,-118L953,-154Z" fill="#b9e3d5" stroke="#b9e3d5" stroke-width="1.51"/><path d="M1131,179L1223,293L1246,123Z" fill="#70b8c2" stroke="#70b8c2" stroke-width="1.51"/><path d="M1231,-109L1149,-31L1279,-3Z" fill="#95c3ce" stroke="#95c3ce" stroke-width="1.51"/><path d="M1144,63L1244,93L1279,-3Z" fill="#8cbfc5" stroke="#8cbfc5" stroke-width="1.51"/><path d="M1236,552L1126,624L1284,655Z" fill="#277eb6" stroke="#277eb6" stroke-width="1.51"/><path d="M1149,-31L1144,63L1279,-3Z" fill="#92c4c9" stroke="#92c4c9" stroke-width="1.51"/><path d="M1129,587L1126,624L1236,552Z" fill="#2d86bc" stroke="#2d86bc" stroke-width="1.51"/><path d="M1239,369L1144,360L1250,432Z" fill="#42a4cb" stroke="#42a4cb" stroke-width="1.51"/><path d="M1144,360L1139,457L1250,432Z" fill="#40a1c9" stroke="#40a1c9" stroke-width="1.51"/><path d="M1139,457L1236,552L1250,432Z" fill="#3494c2" stroke="#3494c2" stroke-width="1.51"/><path d="M1131,179L1134,297L1223,293Z" fill="#63b7c7" stroke="#63b7c7" stroke-width="1.51"/><path d="M1223,293L1144,360L1239,369Z" fill="#4daacb" stroke="#4daacb" stroke-width="1.51"/><path d="M1244,93L1144,63L1246,123Z" fill="#85bec2" stroke="#85bec2" stroke-width="1.51"/><path d="M1144,63L1131,179L1246,123Z" fill="#82bfc2" stroke="#82bfc2" stroke-width="1.51"/><path d="M1139,457L1129,587L1236,552Z" fill="#328ec0" stroke="#328ec0" stroke-width="1.51"/><path d="M1134,297L1144,360L1223,293Z" fill="#56b0ca" stroke="#56b0ca" stroke-width="1.51"/><path d="M1112,-104L1149,-31L1231,-109Z" fill="#9bc9d3" stroke="#9bc9d3" stroke-width="1.51"/><path d="M865,641L740,675L985,655Z" fill="#4a8aaf" stroke="#4a8aaf" stroke-width="1.51"/><path d="M953,-154L1076,-98L1112,-104Z" fill="#a5d4db" stroke="#a5d4db" stroke-width="1.51"/><path d="M1087,448L1019,539L1129,587Z" fill="#3997c4" stroke="#3997c4" stroke-width="1.51"/><path d="M1131,179L1042,255L1134,297Z" fill="#6abdc9" stroke="#6abdc9" stroke-width="1.51"/><path d="M1087,448L1129,587L1139,457Z" fill="#3898c4" stroke="#3898c4" stroke-width="1.51"/><path d="M1086,130L1131,179L1144,63Z" fill="#84c3c4" stroke="#84c3c4" stroke-width="1.51"/><path d="M1134,297L1041,356L1144,360Z" fill="#54b2ce" stroke="#54b2ce" stroke-width="1.51"/><path d="M1041,356L1087,448L1144,360Z" fill="#4aadd0" stroke="#4aadd0" stroke-width="1.51"/><path d="M1087,448L1139,457L1144,360Z" fill="#43a4cb" stroke="#43a4cb" stroke-width="1.51"/><path d="M1076,-98L1009,-68L1149,-31Z" fill="#9ed0d5" stroke="#9ed0d5" stroke-width="1.51"/><path d="M1029,85L1144,63L1149,-31Z" fill="#93caca" stroke="#93caca" stroke-width="1.51"/><path d="M1009,-68L1029,85L1149,-31Z" fill="#99cfd0" stroke="#99cfd0" stroke-width="1.51"/><path d="M1112,-104L1076,-98L1149,-31Z" fill="#9dcdd5" stroke="#9dcdd5" stroke-width="1.51"/><path d="M1029,85L1086,130L1144,63Z" fill="#8bc8c7" stroke="#8bc8c7" stroke-width="1.51"/><path d="M1042,255L1041,356L1134,297Z" fill="#5eb9ce" stroke="#5eb9ce" stroke-width="1.51"/><path d="M1085,631L1126,624L1129,587Z" fill="#2f85ba" stroke="#2f85ba" stroke-width="1.51"/><path d="M1086,130L1042,255L1131,179Z" fill="#78c2c5" stroke="#78c2c5" stroke-width="1.51"/><path d="M1019,539L1085,631L1129,587Z" fill="#348dc0" stroke="#348dc0" stroke-width="1.51"/><path d="M551,-148L648,-114L822,-118Z" fill="#bfe6d1" stroke="#bfe6d1" stroke-width="1.51"/><path d="M983,222L1042,255L1086,130Z" fill="#77c4c7" stroke="#77c4c7" stroke-width="1.51"/><path d="M953,-154L1009,-68L1076,-98Z" fill="#a6d6d9" stroke="#a6d6d9" stroke-width="1.51"/><path d="M1019,539L985,655L1085,631Z" fill="#388cbe" stroke="#388cbe" stroke-width="1.51"/><path d="M1029,85L963,200L1086,130Z" fill="#87c9c5" stroke="#87c9c5" stroke-width="1.51"/><path d="M963,200L983,222L1086,130Z" fill="#7ec7c6" stroke="#7ec7c6" stroke-width="1.51"/><path d="M1041,356L915,494L1087,448Z" fill="#4aabcd" stroke="#4aabcd" stroke-width="1.51"/><path d="M915,494L1019,539L1087,448Z" fill="#44a0c7" stroke="#44a0c7" stroke-width="1.51"/><path d="M955,601L985,655L1019,539Z" fill="#3e8fbe" stroke="#3e8fbe" stroke-width="1.51"/><path d="M1009,-68L932,-14L1029,85Z" fill="#9dd3ce" stroke="#9dd3ce" stroke-width="1.51"/><path d="M911,381L915,494L1041,356Z" fill="#54b1cd" stroke="#54b1cd" stroke-width="1.51"/><path d="M960,86L963,200L1029,85Z" fill="#8bccc4" stroke="#8bccc4" stroke-width="1.51"/><path d="M932,-14L960,86L1029,85Z" fill="#99d2c9" stroke="#99d2c9" stroke-width="1.51"/><path d="M983,222L911,381L1041,356Z" fill="#62bcce" stroke="#62bcce" stroke-width="1.51"/><path d="M983,222L1041,356L1042,255Z" fill="#67bfcc" stroke="#67bfcc" stroke-width="1.51"/><path d="M915,494L955,601L1019,539Z" fill="#459ac2" stroke="#459ac2" stroke-width="1.51"/><path d="M853,341L911,381L983,222Z" fill="#69c0cb" stroke="#69c0cb" stroke-width="1.51"/><path d="M953,-154L932,-14L1009,-68Z" fill="#a6d7d5" stroke="#a6d7d5" stroke-width="1.51"/><path d="M648,-114L753,-103L822,-118Z" fill="#b9e3d1" stroke="#b9e3d1" stroke-width="1.51"/><path d="M862,-28L932,-14L953,-154Z" fill="#a8d9d2" stroke="#a8d9d2" stroke-width="1.51"/><path d="M810,292L853,341L963,200Z" fill="#73c6c8" stroke="#73c6c8" stroke-width="1.51"/><path d="M960,86L891,95L963,200Z" fill="#8ecfc2" stroke="#8ecfc2" stroke-width="1.51"/><path d="M963,200L853,341L983,222Z" fill="#73c6c8" stroke="#73c6c8" stroke-width="1.51"/><path d="M955,601L865,641L985,655Z" fill="#438bb6" stroke="#438bb6" stroke-width="1.51"/><path d="M822,-118L862,-28L953,-154Z" fill="#aedcd5" stroke="#aedcd5" stroke-width="1.51"/><path d="M915,494L834,565L955,601Z" fill="#4b9cbf" stroke="#4b9cbf" stroke-width="1.51"/><path d="M932,-14L891,95L960,86Z" fill="#9bd4c7" stroke="#9bd4c7" stroke-width="1.51"/><path d="M891,95L818,127L963,200Z" fill="#8fd0c0" stroke="#8fd0c0" stroke-width="1.51"/><path d="M818,127L810,292L963,200Z" fill="#83cdc3" stroke="#83cdc3" stroke-width="1.51"/><path d="M834,565L865,641L955,601Z" fill="#4a94ba" stroke="#4a94ba" stroke-width="1.51"/><path d="M911,381L832,424L915,494Z" fill="#58b0c9" stroke="#58b0c9" stroke-width="1.51"/><path d="M862,-28L891,95L932,-14Z" fill="#a2d7ca" stroke="#a2d7ca" stroke-width="1.51"/><path d="M766,259L810,292L818,127Z" fill="#83cec2" stroke="#83cec2" stroke-width="1.51"/><path d="M832,424L834,565L915,494Z" fill="#54a7c3" stroke="#54a7c3" stroke-width="1.51"/><path d="M853,341L832,424L911,381Z" fill="#60bacd" stroke="#60bacd" stroke-width="1.51"/><path d="M746,68L818,127L862,-28Z" fill="#a2dac4" stroke="#a2dac4" stroke-width="1.51"/><path d="M862,-28L818,127L891,95Z" fill="#9ed7c5" stroke="#9ed7c5" stroke-width="1.51"/><path d="M832,424L784,429L834,565Z" fill="#5badc3" stroke="#5badc3" stroke-width="1.51"/><path d="M732,-2L746,68L862,-28Z" fill="#aaddc7" stroke="#aaddc7" stroke-width="1.51"/><path d="M822,-118L753,-103L862,-28Z" fill="#b0e0d0" stroke="#b0e0d0" stroke-width="1.51"/><path d="M834,565L740,675L865,641Z" fill="#5093b4" stroke="#5093b4" stroke-width="1.51"/><path d="M753,-103L732,-2L862,-28Z" fill="#afdfcc" stroke="#afdfcc" stroke-width="1.51"/><path d="M713,359L784,429L810,292Z" fill="#6dc2ca" stroke="#6dc2ca" stroke-width="1.51"/><path d="M754,123L766,259L818,127Z" fill="#91d3be" stroke="#91d3be" stroke-width="1.51"/><path d="M784,429L832,424L853,341Z" fill="#63baca" stroke="#63baca" stroke-width="1.51"/><path d="M810,292L784,429L853,341Z" fill="#6ac0cb" stroke="#6ac0cb" stroke-width="1.51"/><path d="M539,634L426,688L740,675Z" fill="#6993a5" stroke="#6993a5" stroke-width="1.51"/><path d="M746,68L754,123L818,127Z" fill="#9dd8bf" stroke="#9dd8bf" stroke-width="1.51"/><path d="M784,429L708,586L834,565Z" fill="#5ba5be" stroke="#5ba5be" stroke-width="1.51"/><path d="M708,586L740,675L834,565Z" fill="#5798b6" stroke="#5798b6" stroke-width="1.51"/><path d="M685,421L708,586L784,429Z" fill="#65afc1" stroke="#65afc1" stroke-width="1.51"/><path d="M766,259L713,359L810,292Z" fill="#79c8c6" stroke="#79c8c6" stroke-width="1.51"/><path d="M754,123L624,141L766,259Z" fill="#96d5bc" stroke="#96d5bc" stroke-width="1.51"/><path d="M624,141L689,290L766,259Z" fill="#8dd2bf" stroke="#8dd2bf" stroke-width="1.51"/><path d="M689,290L713,359L766,259Z" fill="#7ccac5" stroke="#7ccac5" stroke-width="1.51"/><path d="M713,359L685,421L784,429Z" fill="#6cbdc7" stroke="#6cbdc7" stroke-width="1.51"/><path d="M708,586L679,623L740,675Z" fill="#5d96b1" stroke="#5d96b1" stroke-width="1.51"/><path d="M657,-56L732,-2L753,-103Z" fill="#b5e2cb" stroke="#b5e2cb" stroke-width="1.51"/><path d="M686,91L624,141L754,123Z" fill="#a2dabb" stroke="#a2dabb" stroke-width="1.51"/><path d="M-164,-160L-56,-145L144,-158Z" fill="#ecf8e5" stroke="#ecf8e5" stroke-width="1.51"/><path d="M685,421L660,595L708,586Z" fill="#65a7ba" stroke="#65a7ba" stroke-width="1.51"/><path d="M679,623L539,634L740,675Z" fill="#6294ac" stroke="#6294ac" stroke-width="1.51"/><path d="M648,-114L657,-56L753,-103Z" fill="#bbe4cd" stroke="#bbe4cd" stroke-width="1.51"/><path d="M746,68L686,91L754,123Z" fill="#a2dabf" stroke="#a2dabf" stroke-width="1.51"/><path d="M732,-2L686,91L746,68Z" fill="#aaddc1" stroke="#aaddc1" stroke-width="1.51"/><path d="M576,575L660,595L685,421Z" fill="#6aa9ba" stroke="#6aa9ba" stroke-width="1.51"/><path d="M657,-56L686,91L732,-2Z" fill="#b1e0c4" stroke="#b1e0c4" stroke-width="1.51"/><path d="M543,440L576,575L685,421Z" fill="#72b3bd" stroke="#72b3bd" stroke-width="1.51"/><path d="M624,141L587,151L689,290Z" fill="#99d6bb" stroke="#99d6bb" stroke-width="1.51"/><path d="M689,290L610,341L713,359Z" fill="#7ec9c5" stroke="#7ec9c5" stroke-width="1.51"/><path d="M610,341L685,421L713,359Z" fill="#76c4c8" stroke="#76c4c8" stroke-width="1.51"/><path d="M657,-56L524,71L686,91Z" fill="#b4e2bf" stroke="#b4e2bf" stroke-width="1.51"/><path d="M587,151L534,252L689,290Z" fill="#94d5bc" stroke="#94d5bc" stroke-width="1.51"/><path d="M660,595L679,623L708,586Z" fill="#619bb5" stroke="#619bb5" stroke-width="1.51"/><path d="M610,341L591,368L685,421Z" fill="#7ac5c7" stroke="#7ac5c7" stroke-width="1.51"/><path d="M524,71L624,141L686,91Z" fill="#abdebb" stroke="#abdebb" stroke-width="1.51"/><path d="M534,252L610,341L689,290Z" fill="#89cfc1" stroke="#89cfc1" stroke-width="1.51"/><path d="M591,368L543,440L685,421Z" fill="#79c0c3" stroke="#79c0c3" stroke-width="1.51"/><path d="M525,-54L524,71L657,-56Z" fill="#bde6c2" stroke="#bde6c2" stroke-width="1.51"/><path d="M660,595L539,634L679,623Z" fill="#669ab1" stroke="#669ab1" stroke-width="1.51"/><path d="M576,575L539,634L660,595Z" fill="#6a9eb3" stroke="#6a9eb3" stroke-width="1.51"/><path d="M648,-114L525,-54L657,-56Z" fill="#bfe6ca" stroke="#bfe6ca" stroke-width="1.51"/><path d="M524,71L587,151L624,141Z" fill="#aadeb8" stroke="#aadeb8" stroke-width="1.51"/><path d="M551,-148L525,-54L648,-114Z" fill="#c5e8cc" stroke="#c5e8cc" stroke-width="1.51"/><path d="M534,252L476,340L591,368Z" fill="#8ccec1" stroke="#8ccec1" stroke-width="1.51"/><path d="M534,252L591,368L610,341Z" fill="#88cdc2" stroke="#88cdc2" stroke-width="1.51"/><path d="M543,440L425,503L576,575Z" fill="#78b1ba" stroke="#78b1ba" stroke-width="1.51"/><path d="M483,140L534,252L587,151Z" fill="#a3dbb8" stroke="#a3dbb8" stroke-width="1.51"/><path d="M524,71L483,140L587,151Z" fill="#aedfb7" stroke="#aedfb7" stroke-width="1.51"/><path d="M476,340L543,440L591,368Z" fill="#83c7c4" stroke="#83c7c4" stroke-width="1.51"/><path d="M225,639L67,691L426,688Z" fill="#7f99ae" stroke="#7f99ae" stroke-width="1.51"/><path d="M329,-159L409,-105L551,-148Z" fill="#d3eed2" stroke="#d3eed2" stroke-width="1.51"/><path d="M421,571L539,634L576,575Z" fill="#73a2b3" stroke="#73a2b3" stroke-width="1.51"/><path d="M425,503L421,571L576,575Z" fill="#78abb8" stroke="#78abb8" stroke-width="1.51"/><path d="M439,-15L524,71L525,-54Z" fill="#c1e7c2" stroke="#c1e7c2" stroke-width="1.51"/><path d="M483,140L433,231L534,252Z" fill="#a2dabb" stroke="#a2dabb" stroke-width="1.51"/><path d="M409,-105L525,-54L551,-148Z" fill="#cbebcc" stroke="#cbebcc" stroke-width="1.51"/><path d="M476,340L425,503L543,440Z" fill="#82c0c2" stroke="#82c0c2" stroke-width="1.51"/><path d="M375,393L425,503L476,340Z" fill="#89c4c5" stroke="#89c4c5" stroke-width="1.51"/><path d="M433,231L476,340L534,252Z" fill="#97d5c0" stroke="#97d5c0" stroke-width="1.51"/><path d="M421,571L426,688L539,634Z" fill="#749caf" stroke="#749caf" stroke-width="1.51"/><path d="M439,-15L408,21L524,71Z" fill="#c2e7c1" stroke="#c2e7c1" stroke-width="1.51"/><path d="M409,-105L439,-15L525,-54Z" fill="#c9eac9" stroke="#c9eac9" stroke-width="1.51"/><path d="M408,21L483,140L524,71Z" fill="#b9e4bc" stroke="#b9e4bc" stroke-width="1.51"/><path d="M353,642L225,639L426,688Z" fill="#7b9aae" stroke="#7b9aae" stroke-width="1.51"/><path d="M408,21L313,59L483,140Z" fill="#bfe6bf" stroke="#bfe6bf" stroke-width="1.51"/><path d="M313,59L311,171L483,140Z" fill="#b9e4bd" stroke="#b9e4bd" stroke-width="1.51"/><path d="M311,171L433,231L483,140Z" fill="#addebc" stroke="#addebc" stroke-width="1.51"/><path d="M409,-105L385,-69L439,-15Z" fill="#cdeccb" stroke="#cdeccb" stroke-width="1.51"/><path d="M433,231L327,260L476,340Z" fill="#9bd7c2" stroke="#9bd7c2" stroke-width="1.51"/><path d="M327,260L375,393L476,340Z" fill="#96d1c6" stroke="#96d1c6" stroke-width="1.51"/><path d="M390,569L353,642L421,571Z" fill="#7ca5b7" stroke="#7ca5b7" stroke-width="1.51"/><path d="M390,569L421,571L425,503Z" fill="#7dacba" stroke="#7dacba" stroke-width="1.51"/><path d="M375,393L360,488L425,503Z" fill="#86bcc2" stroke="#86bcc2" stroke-width="1.51"/><path d="M421,571L353,642L426,688Z" fill="#789db0" stroke="#789db0" stroke-width="1.51"/><path d="M385,-69L408,21L439,-15Z" fill="#c9eac7" stroke="#c9eac7" stroke-width="1.51"/><path d="M311,171L327,260L433,231Z" fill="#a9ddc0" stroke="#a9ddc0" stroke-width="1.51"/><path d="M360,488L390,569L425,503Z" fill="#81b2bd" stroke="#81b2bd" stroke-width="1.51"/><path d="M385,-69L313,59L408,21Z" fill="#caeac6" stroke="#caeac6" stroke-width="1.51"/><path d="M329,-159L385,-69L409,-105Z" fill="#d4efd1" stroke="#d4efd1" stroke-width="1.51"/><path d="M273,-62L313,59L385,-69Z" fill="#d0edca" stroke="#d0edca" stroke-width="1.51"/><path d="M327,260L261,353L375,393Z" fill="#9ad3c9" stroke="#9ad3c9" stroke-width="1.51"/><path d="M329,-159L274,-117L385,-69Z" fill="#d8f0d2" stroke="#d8f0d2" stroke-width="1.51"/><path d="M360,488L262,526L390,569Z" fill="#84b2bf" stroke="#84b2bf" stroke-width="1.51"/><path d="M262,526L353,642L390,569Z" fill="#81a9ba" stroke="#81a9ba" stroke-width="1.51"/><path d="M239,429L360,488L375,393Z" fill="#8dc3c6" stroke="#8dc3c6" stroke-width="1.51"/><path d="M274,-117L273,-62L385,-69Z" fill="#d6efd0" stroke="#d6efd0" stroke-width="1.51"/><path d="M261,353L239,429L375,393Z" fill="#95cbcc" stroke="#95cbcc" stroke-width="1.51"/><path d="M262,526L225,639L353,642Z" fill="#83a6ba" stroke="#83a6ba" stroke-width="1.51"/><path d="M239,429L262,526L360,488Z" fill="#8bbbc3" stroke="#8bbbc3" stroke-width="1.51"/><path d="M232,120L311,171L313,59Z" fill="#c0e6c0" stroke="#c0e6c0" stroke-width="1.51"/><path d="M267,60L232,120L313,59Z" fill="#c6e9c3" stroke="#c6e9c3" stroke-width="1.51"/><path d="M273,-62L267,60L313,59Z" fill="#ceecc8" stroke="#ceecc8" stroke-width="1.51"/><path d="M311,171L241,235L327,260Z" fill="#aedfc3" stroke="#aedfc3" stroke-width="1.51"/><path d="M241,235L261,353L327,260Z" fill="#a4d9c7" stroke="#a4d9c7" stroke-width="1.51"/><path d="M144,-158L274,-117L329,-159Z" fill="#dff3d8" stroke="#dff3d8" stroke-width="1.51"/><path d="M232,120L241,235L311,171Z" fill="#b7e3c0" stroke="#b7e3c0" stroke-width="1.51"/><path d="M156,623L67,691L225,639Z" fill="#849eb6" stroke="#849eb6" stroke-width="1.51"/><path d="M232,120L191,190L241,235Z" fill="#b7e3c2" stroke="#b7e3c2" stroke-width="1.51"/><path d="M241,235L185,273L261,353Z" fill="#a6d9c9" stroke="#a6d9c9" stroke-width="1.51"/><path d="M156,623L225,639L262,526Z" fill="#85a8be" stroke="#85a8be" stroke-width="1.51"/><path d="M239,429L153,500L262,526Z" fill="#8ebcc6" stroke="#8ebcc6" stroke-width="1.51"/><path d="M160,-24L267,60L273,-62Z" fill="#d3eecc" stroke="#d3eecc" stroke-width="1.51"/><path d="M160,-24L273,-62L274,-117Z" fill="#d8f0d2" stroke="#d8f0d2" stroke-width="1.51"/><path d="M144,-158L160,-24L274,-117Z" fill="#ddf2d6" stroke="#ddf2d6" stroke-width="1.51"/><path d="M168,362L239,429L261,353Z" fill="#99ced0" stroke="#99ced0" stroke-width="1.51"/><path d="M185,273L168,362L261,353Z" fill="#a1d5cd" stroke="#a1d5cd" stroke-width="1.51"/><path d="M127,546L156,623L262,526Z" fill="#89aec2" stroke="#89aec2" stroke-width="1.51"/><path d="M153,500L127,546L262,526Z" fill="#8cb6c4" stroke="#8cb6c4" stroke-width="1.51"/><path d="M123,26L232,120L267,60Z" fill="#cbebc6" stroke="#cbebc6" stroke-width="1.51"/><path d="M160,-24L123,26L267,60Z" fill="#d2eecb" stroke="#d2eecb" stroke-width="1.51"/><path d="M-34,656L-151,654L67,691Z" fill="#899eba" stroke="#899eba" stroke-width="1.51"/><path d="M191,190L185,273L241,235Z" fill="#afdfc7" stroke="#afdfc7" stroke-width="1.51"/><path d="M168,362L153,500L239,429Z" fill="#95c6cd" stroke="#95c6cd" stroke-width="1.51"/><path d="M123,26L191,190L232,120Z" fill="#c5e9c4" stroke="#c5e9c4" stroke-width="1.51"/><path d="M123,26L48,142L191,190Z" fill="#c6e9c7" stroke="#c6e9c7" stroke-width="1.51"/><path d="M-56,-145L46,-120L144,-158Z" fill="#e7f6e1" stroke="#e7f6e1" stroke-width="1.51"/><path d="M144,-158L46,-120L160,-24Z" fill="#e0f3da" stroke="#e0f3da" stroke-width="1.51"/><path d="M78,392L153,500L168,362Z" fill="#98c9d0" stroke="#98c9d0" stroke-width="1.51"/><path d="M58,253L168,362L185,273Z" fill="#a8dace" stroke="#a8dace" stroke-width="1.51"/><path d="M58,253L185,273L191,190Z" fill="#b0e0ca" stroke="#b0e0ca" stroke-width="1.51"/><path d="M48,142L58,253L191,190Z" fill="#bae4c9" stroke="#bae4c9" stroke-width="1.51"/><path d="M78,392L60,458L153,500Z" fill="#96c4cf" stroke="#96c4cf" stroke-width="1.51"/><path d="M46,-120L22,-41L160,-24Z" fill="#def2d9" stroke="#def2d9" stroke-width="1.51"/><path d="M58,253L78,392L168,362Z" fill="#a4d6d2" stroke="#a4d6d2" stroke-width="1.51"/><path d="M22,-41L123,26L160,-24Z" fill="#d9f0d2" stroke="#d9f0d2" stroke-width="1.51"/><path d="M47,31L48,142L123,26Z" fill="#d1edcd" stroke="#d1edcd" stroke-width="1.51"/><path d="M127,546L21,553L156,623Z" fill="#8baec4" stroke="#8baec4" stroke-width="1.51"/><path d="M21,553L67,691L156,623Z" fill="#88a5be" stroke="#88a5be" stroke-width="1.51"/><path d="M60,458L127,546L153,500Z" fill="#90bac9" stroke="#90bac9" stroke-width="1.51"/><path d="M22,-41L47,31L123,26Z" fill="#d9f0d2" stroke="#d9f0d2" stroke-width="1.51"/><path d="M60,458L21,553L127,546Z" fill="#90b8ca" stroke="#90b8ca" stroke-width="1.51"/><path d="M48,142L-36,146L58,253Z" fill="#c0e6cb" stroke="#c0e6cb" stroke-width="1.51"/><path d="M21,553L-34,656L67,691Z" fill="#8aa4bf" stroke="#8aa4bf" stroke-width="1.51"/><path d="M-51,350L60,458L78,392Z" fill="#9eced6" stroke="#9eced6" stroke-width="1.51"/><path d="M58,253L-51,350L78,392Z" fill="#a7d8d5" stroke="#a7d8d5" stroke-width="1.51"/><path d="M47,31L-36,146L48,142Z" fill="#cdebcc" stroke="#cdebcc" stroke-width="1.51"/><path d="M-48,493L21,553L60,458Z" fill="#94bcce" stroke="#94bcce" stroke-width="1.51"/><path d="M-51,350L-48,493L60,458Z" fill="#9dc9d4" stroke="#9dc9d4" stroke-width="1.51"/><path d="M-80,77L-36,146L47,31Z" fill="#d2eecf" stroke="#d2eecf" stroke-width="1.51"/><path d="M-36,146L-92,260L58,253Z" fill="#bbe4cf" stroke="#bbe4cf" stroke-width="1.51"/><path d="M-92,260L-51,350L58,253Z" fill="#b0ded5" stroke="#b0ded5" stroke-width="1.51"/><path d="M-56,-145L22,-41L46,-120Z" fill="#e5f5df" stroke="#e5f5df" stroke-width="1.51"/><path d="M22,-41L-54,-22L47,31Z" fill="#dcf2d6" stroke="#dcf2d6" stroke-width="1.51"/><path d="M-54,-22L-80,77L47,31Z" fill="#daf1d4" stroke="#daf1d4" stroke-width="1.51"/><path d="M-86,551L-34,656L21,553Z" fill="#90aec9" stroke="#90aec9" stroke-width="1.51"/><path d="M-56,-145L-54,-22L22,-41Z" fill="#e3f5de" stroke="#e3f5de" stroke-width="1.51"/><path d="M-48,493L-86,551L21,553Z" fill="#94b7cd" stroke="#94b7cd" stroke-width="1.51"/><path d="M-141,41L-80,77L-54,-22Z" fill="#ddf2d6" stroke="#ddf2d6" stroke-width="1.51"/><path d="M-56,-145L-163,-51L-54,-22Z" fill="#e6f6e0" stroke="#e6f6e0" stroke-width="1.51"/><path d="M-173,377L-115,471L-51,350Z" fill="#a5d1dc" stroke="#a5d1dc" stroke-width="1.51"/><path d="M-51,350L-115,471L-48,493Z" fill="#9fc9d6" stroke="#9fc9d6" stroke-width="1.51"/><path d="M-149,173L-92,260L-36,146Z" fill="#c3e7d1" stroke="#c3e7d1" stroke-width="1.51"/><path d="M-86,551L-111,567L-34,656Z" fill="#91aeca" stroke="#91aeca" stroke-width="1.51"/><path d="M-111,567L-151,654L-34,656Z" fill="#90a7c5" stroke="#90a7c5" stroke-width="1.51"/><path d="M-80,77L-149,173L-36,146Z" fill="#ceeccf" stroke="#ceeccf" stroke-width="1.51"/><path d="M-164,-160L-163,-51L-56,-145Z" fill="#edf8e6" stroke="#edf8e6" stroke-width="1.51"/><path d="M-92,260L-173,377L-51,350Z" fill="#aedbdb" stroke="#aedbdb" stroke-width="1.51"/><path d="M-115,471L-86,551L-48,493Z" fill="#98bdd1" stroke="#98bdd1" stroke-width="1.51"/><path d="M-163,-51L-141,41L-54,-22Z" fill="#e2f4db" stroke="#e2f4db" stroke-width="1.51"/><path d="M-149,173L-173,237L-92,260Z" fill="#c0e6d5" stroke="#c0e6d5" stroke-width="1.51"/><path d="M-173,237L-173,377L-92,260Z" fill="#b5dfd9" stroke="#b5dfd9" stroke-width="1.51"/><path d="M-115,471L-111,567L-86,551Z" fill="#97b9d0" stroke="#97b9d0" stroke-width="1.51"/><path d="M-141,41L-149,173L-80,77Z" fill="#d5efd3" stroke="#d5efd3" stroke-width="1.51"/><path d="M-115,471L-173,377L-111,567Z" fill="#9ec4d6" stroke="#9ec4d6" stroke-width="1.51"/><path d="M-173,377L-151,654L-111,567Z" fill="#99b9d1" stroke="#99b9d1" stroke-width="1.51"/><path d="M-173,237L-149,173L-141,41Z" fill="#ceecd0" stroke="#ceecd0" stroke-width="1.51"/><path d="M-163,-51L-173,237L-141,41Z" fill="#daf1d6" stroke="#daf1d6" stroke-width="1.51"/><path d="M-164,-160L-173,237L-163,-51Z" fill="#e3f4dc" stroke="#e3f4dc" stroke-width="1.51"/></svg>
