<svg xmlns="http://www.w3.org/2000/svg" width="1600" height="524"><path d="M365,-183L417,-175L820,-164Z" fill="#d77c60" stroke="#d77c60" stroke-width="1.51"/><path d="M365,-183L820,-164L993,-170Z" fill="#db8f76" stroke="#db8f76" stroke-width="1.51"/><path d="M826,665L527,678L1188,681Z" fill="#abb2b5" stroke="#abb2b5" stroke-width="1.51"/><path d="M527,678L187,706L1188,681Z" fill="#b2a2a3" stroke="#b2a2a3" stroke-width="1.51"/><path d="M1048,656L826,665L1188,681Z" fill="#9fafa9" stroke="#9fafa9" stroke-width="1.51"/><path d="M1188,681L187,706L1355,692Z" fill="#aaaaad" stroke="#aaaaad" stroke-width="1.51"/><path d="M1442,-126L1601,-105L1677,-115Z" fill="#a06a83" stroke="#a06a83" stroke-width="1.51"/><path d="M1241,-165L1442,-126L1677,-115Z" fill="#a47a7a" stroke="#a47a7a" stroke-width="1.51"/><path d="M1678,404L1631,452L1724,585Z" fill="#779fac" stroke="#779fac" stroke-width="1.51"/><path d="M1717,329L1678,404L1724,585Z" fill="#89a0aa" stroke="#89a0aa" stroke-width="1.51"/><path d="M1677,-115L1692,-19L1746,160Z" fill="#b5717e" stroke="#b5717e" stroke-width="1.51"/><path d="M1629,158L1717,329L1746,160Z" fill="#b1a8ac" stroke="#b1a8ac" stroke-width="1.51"/><path d="M1695,51L1629,158L1746,160Z" fill="#b39695" stroke="#b39695" stroke-width="1.51"/><path d="M1692,-19L1695,51L1746,160Z" fill="#b58287" stroke="#b58287" stroke-width="1.51"/><path d="M1724,585L1620,593L1754,674Z" fill="#4c7cb4" stroke="#4c7cb4" stroke-width="1.51"/><path d="M1620,593L1589,693L1754,674Z" fill="#4777b4" stroke="#4777b4" stroke-width="1.51"/><path d="M1746,160L1717,329L1754,674Z" fill="#9ca1a5" stroke="#9ca1a5" stroke-width="1.51"/><path d="M1717,329L1724,585L1754,674Z" fill="#6a90a8" stroke="#6a90a8" stroke-width="1.51"/><path d="M1629,158L1578,317L1717,329Z" fill="#abb8bb" stroke="#abb8bb" stroke-width="1.51"/><path d="M1631,452L1620,593L1724,585Z" fill="#5c98ad" stroke="#5c98ad" stroke-width="1.51"/><path d="M1646,53L1629,158L1695,51Z" fill="#b39290" stroke="#b39290" stroke-width="1.51"/><path d="M1578,317L1678,404L1717,329Z" fill="#a3b1aa" stroke="#a3b1aa" stroke-width="1.51"/><path d="M1601,-105L1630,-4L1677,-115Z" fill="#a96981" stroke="#a96981" stroke-width="1.51"/><path d="M1677,-115L1630,-4L1692,-19Z" fill="#ae6a7d" stroke="#ae6a7d" stroke-width="1.51"/><path d="M1630,-4L1646,53L1692,-19Z" fill="#b47a81" stroke="#b47a81" stroke-width="1.51"/><path d="M1692,-19L1646,53L1695,51Z" fill="#b57c83" stroke="#b57c83" stroke-width="1.51"/><path d="M1443,659L1355,692L1589,693Z" fill="#588aaf" stroke="#588aaf" stroke-width="1.51"/><path d="M1578,317L1631,452L1678,404Z" fill="#94b1ac" stroke="#94b1ac" stroke-width="1.51"/><path d="M1458,177L1578,317L1629,158Z" fill="#adbfb2" stroke="#adbfb2" stroke-width="1.51"/><path d="M1578,317L1516,349L1631,452Z" fill="#98bbae" stroke="#98bbae" stroke-width="1.51"/><path d="M1516,349L1494,411L1631,452Z" fill="#8fbcae" stroke="#8fbcae" stroke-width="1.51"/><path d="M1467,569L1620,593L1631,452Z" fill="#54a6b1" stroke="#54a6b1" stroke-width="1.51"/><path d="M1630,-4L1523,84L1646,53Z" fill="#b28d8b" stroke="#b28d8b" stroke-width="1.51"/><path d="M1523,84L1629,158L1646,53Z" fill="#b29d96" stroke="#b29d96" stroke-width="1.51"/><path d="M1601,-105L1488,13L1630,-4Z" fill="#b07c81" stroke="#b07c81" stroke-width="1.51"/><path d="M1488,13L1523,84L1630,-4Z" fill="#b59287" stroke="#b59287" stroke-width="1.51"/><path d="M1494,411L1467,569L1631,452Z" fill="#73b5ae" stroke="#73b5ae" stroke-width="1.51"/><path d="M1523,84L1458,177L1629,158Z" fill="#b2b29d" stroke="#b2b29d" stroke-width="1.51"/><path d="M1467,569L1589,693L1620,593Z" fill="#3d8fba" stroke="#3d8fba" stroke-width="1.51"/><path d="M1467,569L1443,659L1589,693Z" fill="#4691b7" stroke="#4691b7" stroke-width="1.51"/><path d="M1442,-126L1488,13L1601,-105Z" fill="#ae7e7f" stroke="#ae7e7f" stroke-width="1.51"/><path d="M1458,177L1516,349L1578,317Z" fill="#abcbb8" stroke="#abcbb8" stroke-width="1.51"/><path d="M1241,-165L1387,-115L1442,-126Z" fill="#ae8676" stroke="#ae8676" stroke-width="1.51"/><path d="M1413,462L1467,569L1494,411Z" fill="#78bfaa" stroke="#78bfaa" stroke-width="1.51"/><path d="M1458,177L1422,187L1516,349Z" fill="#b2d0b1" stroke="#b2d0b1" stroke-width="1.51"/><path d="M1422,187L1353,309L1516,349Z" fill="#b2d9b2" stroke="#b2d9b2" stroke-width="1.51"/><path d="M1371,89L1458,177L1523,84Z" fill="#baba91" stroke="#baba91" stroke-width="1.51"/><path d="M1423,23L1371,89L1523,84Z" fill="#bcae86" stroke="#bcae86" stroke-width="1.51"/><path d="M1488,13L1423,23L1523,84Z" fill="#ba9f84" stroke="#ba9f84" stroke-width="1.51"/><path d="M1442,-126L1423,23L1488,13Z" fill="#ba9079" stroke="#ba9079" stroke-width="1.51"/><path d="M1353,309L1494,411L1516,349Z" fill="#a7d0a4" stroke="#a7d0a4" stroke-width="1.51"/><path d="M1387,-115L1423,23L1442,-126Z" fill="#b68d78" stroke="#b68d78" stroke-width="1.51"/><path d="M1353,309L1413,462L1494,411Z" fill="#9bd1a4" stroke="#9bd1a4" stroke-width="1.51"/><path d="M1371,89L1422,187L1458,177Z" fill="#bac897" stroke="#bac897" stroke-width="1.51"/><path d="M1354,556L1443,659L1467,569Z" fill="#57aaaf" stroke="#57aaaf" stroke-width="1.51"/><path d="M1413,462L1354,556L1467,569Z" fill="#68bfa7" stroke="#68bfa7" stroke-width="1.51"/><path d="M1387,-115L1276,-32L1423,23Z" fill="#c09975" stroke="#c09975" stroke-width="1.51"/><path d="M1354,556L1355,692L1443,659Z" fill="#55a3b1" stroke="#55a3b1" stroke-width="1.51"/><path d="M1353,309L1292,332L1413,462Z" fill="#addca0" stroke="#addca0" stroke-width="1.51"/><path d="M1371,89L1255,174L1422,187Z" fill="#c1cf94" stroke="#c1cf94" stroke-width="1.51"/><path d="M1255,174L1353,309L1422,187Z" fill="#bfdda7" stroke="#bfdda7" stroke-width="1.51"/><path d="M1276,-32L1371,89L1423,23Z" fill="#c5ac7a" stroke="#c5ac7a" stroke-width="1.51"/><path d="M1292,332L1226,427L1413,462Z" fill="#a5d9a2" stroke="#a5d9a2" stroke-width="1.51"/><path d="M1269,538L1354,556L1413,462Z" fill="#76c8a5" stroke="#76c8a5" stroke-width="1.51"/><path d="M1226,427L1269,538L1413,462Z" fill="#8fd1a5" stroke="#8fd1a5" stroke-width="1.51"/><path d="M1354,556L1220,638L1355,692Z" fill="#64aab2" stroke="#64aab2" stroke-width="1.51"/><path d="M1276,-32L1241,85L1371,89Z" fill="#cdb67e" stroke="#cdb67e" stroke-width="1.51"/><path d="M1241,-165L1276,-32L1387,-115Z" fill="#be9078" stroke="#be9078" stroke-width="1.51"/><path d="M1255,174L1292,332L1353,309Z" fill="#c3e6b0" stroke="#c3e6b0" stroke-width="1.51"/><path d="M1269,538L1220,638L1354,556Z" fill="#74bdab" stroke="#74bdab" stroke-width="1.51"/><path d="M1241,85L1255,174L1371,89Z" fill="#ccca8c" stroke="#ccca8c" stroke-width="1.51"/><path d="M1220,638L1188,681L1355,692Z" fill="#78a1ac" stroke="#78a1ac" stroke-width="1.51"/><path d="M1226,427L1179,522L1269,538Z" fill="#94d3a5" stroke="#94d3a5" stroke-width="1.51"/><path d="M1241,-165L1125,-60L1276,-32Z" fill="#cc9977" stroke="#cc9977" stroke-width="1.51"/><path d="M1255,174L1171,293L1292,332Z" fill="#cdebb0" stroke="#cdebb0" stroke-width="1.51"/><path d="M1171,293L1226,427L1292,332Z" fill="#c4e69f" stroke="#c4e69f" stroke-width="1.51"/><path d="M1119,-103L1125,-60L1241,-165Z" fill="#cf9777" stroke="#cf9777" stroke-width="1.51"/><path d="M1137,252L1171,293L1255,174Z" fill="#d6eaab" stroke="#d6eaab" stroke-width="1.51"/><path d="M1179,522L1220,638L1269,538Z" fill="#81c4a9" stroke="#81c4a9" stroke-width="1.51"/><path d="M1125,-60L1241,85L1276,-32Z" fill="#d8ac75" stroke="#d8ac75" stroke-width="1.51"/><path d="M993,-170L1119,-103L1241,-165Z" fill="#c99173" stroke="#c99173" stroke-width="1.51"/><path d="M1125,-60L1097,48L1241,85Z" fill="#e0b878" stroke="#e0b878" stroke-width="1.51"/><path d="M1171,293L1140,423L1226,427Z" fill="#c2e6a0" stroke="#c2e6a0" stroke-width="1.51"/><path d="M1097,48L1137,252L1241,85Z" fill="#ddd68d" stroke="#ddd68d" stroke-width="1.51"/><path d="M1241,85L1137,252L1255,174Z" fill="#d4dd98" stroke="#d4dd98" stroke-width="1.51"/><path d="M1179,522L1188,681L1220,638Z" fill="#7eb6b0" stroke="#7eb6b0" stroke-width="1.51"/><path d="M1140,423L1179,522L1226,427Z" fill="#a9dca4" stroke="#a9dca4" stroke-width="1.51"/><path d="M1179,522L1048,656L1188,681Z" fill="#87b7b0" stroke="#87b7b0" stroke-width="1.51"/><path d="M1097,48L1029,225L1137,252Z" fill="#e6e696" stroke="#e6e696" stroke-width="1.51"/><path d="M1022,340L1140,423L1171,293Z" fill="#d6ee9c" stroke="#d6ee9c" stroke-width="1.51"/><path d="M997,529L1048,656L1179,522Z" fill="#9acca6" stroke="#9acca6" stroke-width="1.51"/><path d="M947,633L826,665L1048,656Z" fill="#a4b7b0" stroke="#a4b7b0" stroke-width="1.51"/><path d="M1140,423L1027,447L1179,522Z" fill="#b1dfa2" stroke="#b1dfa2" stroke-width="1.51"/><path d="M1027,447L997,529L1179,522Z" fill="#addca1" stroke="#addca1" stroke-width="1.51"/><path d="M1137,252L1022,340L1171,293Z" fill="#ddf1a8" stroke="#ddf1a8" stroke-width="1.51"/><path d="M1035,40L1029,225L1097,48Z" fill="#ecd684" stroke="#ecd684" stroke-width="1.51"/><path d="M1046,17L1097,48L1125,-60Z" fill="#e8b472" stroke="#e8b472" stroke-width="1.51"/><path d="M1029,225L1022,340L1137,252Z" fill="#e7f6ab" stroke="#e7f6ab" stroke-width="1.51"/><path d="M1022,340L1027,447L1140,423Z" fill="#cdea9e" stroke="#cdea9e" stroke-width="1.51"/><path d="M723,646L527,678L826,665Z" fill="#afaead" stroke="#afaead" stroke-width="1.51"/><path d="M1119,-103L1046,17L1125,-60Z" fill="#e1a771" stroke="#e1a771" stroke-width="1.51"/><path d="M820,-164L866,-152L993,-170Z" fill="#da9677" stroke="#da9677" stroke-width="1.51"/><path d="M993,-170L1046,17L1119,-103Z" fill="#e1a273" stroke="#e1a273" stroke-width="1.51"/><path d="M417,-175L639,-124L820,-164Z" fill="#df8b6b" stroke="#df8b6b" stroke-width="1.51"/><path d="M930,111L1029,225L1035,40Z" fill="#f3df87" stroke="#f3df87" stroke-width="1.51"/><path d="M1046,17L1035,40L1097,48Z" fill="#ecc177" stroke="#ecc177" stroke-width="1.51"/><path d="M965,536L947,633L997,529Z" fill="#a9d2a6" stroke="#a9d2a6" stroke-width="1.51"/><path d="M1022,340L953,387L1027,447Z" fill="#daef9b" stroke="#daef9b" stroke-width="1.51"/><path d="M920,305L1022,340L1029,225Z" fill="#eff9a6" stroke="#eff9a6" stroke-width="1.51"/><path d="M993,-170L925,22L1046,17Z" fill="#efae6f" stroke="#efae6f" stroke-width="1.51"/><path d="M997,529L947,633L1048,656Z" fill="#a1c5aa" stroke="#a1c5aa" stroke-width="1.51"/><path d="M930,111L920,231L1029,225Z" fill="#f5ef9a" stroke="#f5ef9a" stroke-width="1.51"/><path d="M925,22L1035,40L1046,17Z" fill="#f3c173" stroke="#f3c173" stroke-width="1.51"/><path d="M866,-152L925,22L993,-170Z" fill="#eaa378" stroke="#eaa378" stroke-width="1.51"/><path d="M920,231L920,305L1029,225Z" fill="#f5faad" stroke="#f5faad" stroke-width="1.51"/><path d="M925,22L930,111L1035,40Z" fill="#f7cc7b" stroke="#f7cc7b" stroke-width="1.51"/><path d="M965,536L997,529L1027,447Z" fill="#b7e09f" stroke="#b7e09f" stroke-width="1.51"/><path d="M953,387L965,536L1027,447Z" fill="#c7e8a0" stroke="#c7e8a0" stroke-width="1.51"/><path d="M920,305L953,387L1022,340Z" fill="#eaf69d" stroke="#eaf69d" stroke-width="1.51"/><path d="M953,387L844,515L965,536Z" fill="#c3e6a6" stroke="#c3e6a6" stroke-width="1.51"/><path d="M866,-152L803,-74L925,22Z" fill="#f3ab7c" stroke="#f3ab7c" stroke-width="1.51"/><path d="M844,515L947,633L965,536Z" fill="#add6aa" stroke="#add6aa" stroke-width="1.51"/><path d="M818,221L920,231L930,111Z" fill="#faf0a1" stroke="#faf0a1" stroke-width="1.51"/><path d="M844,515L826,665L947,633Z" fill="#a9c8b6" stroke="#a9c8b6" stroke-width="1.51"/><path d="M920,305L848,282L953,387Z" fill="#f0f9a7" stroke="#f0f9a7" stroke-width="1.51"/><path d="M848,282L765,407L953,387Z" fill="#eef8a7" stroke="#eef8a7" stroke-width="1.51"/><path d="M765,407L844,515L953,387Z" fill="#d5eeab" stroke="#d5eeab" stroke-width="1.51"/><path d="M920,231L848,282L920,305Z" fill="#f8fcb3" stroke="#f8fcb3" stroke-width="1.51"/><path d="M779,77L818,221L930,111Z" fill="#fde599" stroke="#fde599" stroke-width="1.51"/><path d="M925,22L779,77L930,111Z" fill="#fcd286" stroke="#fcd286" stroke-width="1.51"/><path d="M803,-74L779,77L925,22Z" fill="#ffbf7f" stroke="#ffbf7f" stroke-width="1.51"/><path d="M818,221L848,282L920,231Z" fill="#fbfbb4" stroke="#fbfbb4" stroke-width="1.51"/><path d="M-87,-166L85,-163L200,-180Z" fill="#c6344a" stroke="#c6344a" stroke-width="1.51"/><path d="M730,556L826,665L844,515Z" fill="#b1d3b8" stroke="#b1d3b8" stroke-width="1.51"/><path d="M820,-164L803,-74L866,-152Z" fill="#e79e80" stroke="#e79e80" stroke-width="1.51"/><path d="M730,556L723,646L826,665Z" fill="#aac1b9" stroke="#aac1b9" stroke-width="1.51"/><path d="M765,407L730,556L844,515Z" fill="#c6e6b0" stroke="#c6e6b0" stroke-width="1.51"/><path d="M818,221L659,329L848,282Z" fill="#fdfcb8" stroke="#fdfcb8" stroke-width="1.51"/><path d="M659,329L765,407L848,282Z" fill="#f5f8a9" stroke="#f5f8a9" stroke-width="1.51"/><path d="M693,447L730,556L765,407Z" fill="#cfe5a8" stroke="#cfe5a8" stroke-width="1.51"/><path d="M635,-52L779,77L803,-74Z" fill="#ffb377" stroke="#ffb377" stroke-width="1.51"/><path d="M779,77L658,187L818,221Z" fill="#ffe99c" stroke="#ffe99c" stroke-width="1.51"/><path d="M658,187L659,329L818,221Z" fill="#fff5ae" stroke="#fff5ae" stroke-width="1.51"/><path d="M639,-124L803,-74L820,-164Z" fill="#ec9d7e" stroke="#ec9d7e" stroke-width="1.51"/><path d="M417,-175L535,-118L639,-124Z" fill="#e28362" stroke="#e28362" stroke-width="1.51"/><path d="M635,-52L649,89L779,77Z" fill="#ffc17a" stroke="#ffc17a" stroke-width="1.51"/><path d="M639,-124L635,-52L803,-74Z" fill="#f3a176" stroke="#f3a176" stroke-width="1.51"/><path d="M649,89L658,187L779,77Z" fill="#ffd98b" stroke="#ffd98b" stroke-width="1.51"/><path d="M659,329L693,447L765,407Z" fill="#e6eda2" stroke="#e6eda2" stroke-width="1.51"/><path d="M579,518L723,646L730,556Z" fill="#b4cba8" stroke="#b4cba8" stroke-width="1.51"/><path d="M693,447L579,518L730,556Z" fill="#c4dba1" stroke="#c4dba1" stroke-width="1.51"/><path d="M597,462L579,518L693,447Z" fill="#cedc9a" stroke="#cedc9a" stroke-width="1.51"/><path d="M579,518L527,678L723,646Z" fill="#afb8a5" stroke="#afb8a5" stroke-width="1.51"/><path d="M546,224L599,327L658,187Z" fill="#ffeca0" stroke="#ffeca0" stroke-width="1.51"/><path d="M658,187L599,327L659,329Z" fill="#fdf1a5" stroke="#fdf1a5" stroke-width="1.51"/><path d="M599,327L597,462L659,329Z" fill="#ede995" stroke="#ede995" stroke-width="1.51"/><path d="M659,329L597,462L693,447Z" fill="#e1e79c" stroke="#e1e79c" stroke-width="1.51"/><path d="M635,-52L531,-24L649,89Z" fill="#fdaf69" stroke="#fdaf69" stroke-width="1.51"/><path d="M531,-24L544,91L649,89Z" fill="#feba6e" stroke="#feba6e" stroke-width="1.51"/><path d="M649,89L544,91L658,187Z" fill="#fed481" stroke="#fed481" stroke-width="1.51"/><path d="M544,91L546,224L658,187Z" fill="#fedd88" stroke="#fedd88" stroke-width="1.51"/><path d="M535,-118L635,-52L639,-124Z" fill="#ef966c" stroke="#ef966c" stroke-width="1.51"/><path d="M535,-118L531,-24L635,-52Z" fill="#f39866" stroke="#f39866" stroke-width="1.51"/><path d="M423,628L187,706L527,678Z" fill="#b4898a" stroke="#b4898a" stroke-width="1.51"/><path d="M483,502L527,678L579,518Z" fill="#b9bf95" stroke="#b9bf95" stroke-width="1.51"/><path d="M491,320L483,502L597,462Z" fill="#ded78e" stroke="#ded78e" stroke-width="1.51"/><path d="M491,320L597,462L599,327Z" fill="#eee38e" stroke="#eee38e" stroke-width="1.51"/><path d="M546,224L491,320L599,327Z" fill="#fce798" stroke="#fce798" stroke-width="1.51"/><path d="M483,502L579,518L597,462Z" fill="#c9d293" stroke="#c9d293" stroke-width="1.51"/><path d="M429,477L483,502L491,320Z" fill="#ddcf88" stroke="#ddcf88" stroke-width="1.51"/><path d="M483,502L423,628L527,678Z" fill="#b4ad95" stroke="#b4ad95" stroke-width="1.51"/><path d="M347,618L187,706L423,628Z" fill="#b48788" stroke="#b48788" stroke-width="1.51"/><path d="M463,-63L412,127L531,-24Z" fill="#fba05d" stroke="#fba05d" stroke-width="1.51"/><path d="M463,-63L531,-24L535,-118Z" fill="#f29060" stroke="#f29060" stroke-width="1.51"/><path d="M531,-24L412,127L544,91Z" fill="#fdb567" stroke="#fdb567" stroke-width="1.51"/><path d="M414,232L491,320L546,224Z" fill="#ffdf97" stroke="#ffdf97" stroke-width="1.51"/><path d="M544,91L412,127L546,224Z" fill="#fecd7a" stroke="#fecd7a" stroke-width="1.51"/><path d="M412,127L414,232L546,224Z" fill="#ffd182" stroke="#ffd182" stroke-width="1.51"/><path d="M417,-175L463,-63L535,-118Z" fill="#e7805e" stroke="#e7805e" stroke-width="1.51"/><path d="M412,127L388,155L414,232Z" fill="#fec776" stroke="#fec776" stroke-width="1.51"/><path d="M303,5L412,127L463,-63Z" fill="#fb9956" stroke="#fb9956" stroke-width="1.51"/><path d="M429,477L388,596L483,502Z" fill="#c3bf86" stroke="#c3bf86" stroke-width="1.51"/><path d="M388,596L423,628L483,502Z" fill="#b9b08c" stroke="#b9b08c" stroke-width="1.51"/><path d="M362,286L429,477L491,320Z" fill="#f2d47f" stroke="#f2d47f" stroke-width="1.51"/><path d="M414,232L362,286L491,320Z" fill="#fed78d" stroke="#fed78d" stroke-width="1.51"/><path d="M362,286L299,448L429,477Z" fill="#e7c57c" stroke="#e7c57c" stroke-width="1.51"/><path d="M303,5L374,132L412,127Z" fill="#fcaa5f" stroke="#fcaa5f" stroke-width="1.51"/><path d="M417,-175L365,-183L463,-63Z" fill="#e07357" stroke="#e07357" stroke-width="1.51"/><path d="M365,-183L303,5L463,-63Z" fill="#ee7a54" stroke="#ee7a54" stroke-width="1.51"/><path d="M299,448L388,596L429,477Z" fill="#c9b980" stroke="#c9b980" stroke-width="1.51"/><path d="M388,596L347,618L423,628Z" fill="#b49d8d" stroke="#b49d8d" stroke-width="1.51"/><path d="M299,448L347,618L388,596Z" fill="#beac81" stroke="#beac81" stroke-width="1.51"/><path d="M388,155L362,286L414,232Z" fill="#ffcd84" stroke="#ffcd84" stroke-width="1.51"/><path d="M374,132L388,155L412,127Z" fill="#fdbc6d" stroke="#fdbc6d" stroke-width="1.51"/><path d="M299,448L212,536L347,618Z" fill="#c2a979" stroke="#c2a979" stroke-width="1.51"/><path d="M215,311L299,448L362,286Z" fill="#f5c173" stroke="#f5c173" stroke-width="1.51"/><path d="M200,-180L303,5L365,-183Z" fill="#e3624e" stroke="#e3624e" stroke-width="1.51"/><path d="M374,132L220,197L388,155Z" fill="#feb86d" stroke="#feb86d" stroke-width="1.51"/><path d="M220,197L362,286L388,155Z" fill="#ffc17b" stroke="#ffc17b" stroke-width="1.51"/><path d="M200,-180L224,0L303,5Z" fill="#ee6749" stroke="#ee6749" stroke-width="1.51"/><path d="M303,5L216,48L374,132Z" fill="#fb9755" stroke="#fb9755" stroke-width="1.51"/><path d="M216,48L220,197L374,132Z" fill="#fca561" stroke="#fca561" stroke-width="1.51"/><path d="M215,311L248,442L299,448Z" fill="#e7b572" stroke="#e7b572" stroke-width="1.51"/><path d="M220,197L215,311L362,286Z" fill="#ffc083" stroke="#ffc083" stroke-width="1.51"/><path d="M-33,671L-145,714L187,706Z" fill="#a2517b" stroke="#a2517b" stroke-width="1.51"/><path d="M212,536L187,706L347,618Z" fill="#b48783" stroke="#b48783" stroke-width="1.51"/><path d="M200,-180L156,-27L224,0Z" fill="#ea5d48" stroke="#ea5d48" stroke-width="1.51"/><path d="M248,442L212,536L299,448Z" fill="#d2ab76" stroke="#d2ab76" stroke-width="1.51"/><path d="M224,0L216,48L303,5Z" fill="#f77f4a" stroke="#f77f4a" stroke-width="1.51"/><path d="M75,627L187,706L212,536Z" fill="#af7b81" stroke="#af7b81" stroke-width="1.51"/><path d="M216,48L109,64L220,197Z" fill="#f89358" stroke="#f89358" stroke-width="1.51"/><path d="M109,64L84,168L220,197Z" fill="#f69963" stroke="#f69963" stroke-width="1.51"/><path d="M215,311L156,400L248,442Z" fill="#ebb06e" stroke="#ebb06e" stroke-width="1.51"/><path d="M156,400L212,536L248,442Z" fill="#d7a773" stroke="#d7a773" stroke-width="1.51"/><path d="M85,-163L156,-27L200,-180Z" fill="#da4a4b" stroke="#da4a4b" stroke-width="1.51"/><path d="M156,400L72,503L212,536Z" fill="#cc9f74" stroke="#cc9f74" stroke-width="1.51"/><path d="M84,168L80,352L215,311Z" fill="#f7ae7f" stroke="#f7ae7f" stroke-width="1.51"/><path d="M84,168L215,311L220,197Z" fill="#fcae76" stroke="#fcae76" stroke-width="1.51"/><path d="M156,-27L216,48L224,0Z" fill="#f57447" stroke="#f57447" stroke-width="1.51"/><path d="M72,503L75,627L212,536Z" fill="#b88e79" stroke="#b88e79" stroke-width="1.51"/><path d="M80,352L156,400L215,311Z" fill="#efae6e" stroke="#efae6e" stroke-width="1.51"/><path d="M156,-27L109,64L216,48Z" fill="#f3774b" stroke="#f3774b" stroke-width="1.51"/><path d="M12,245L80,352L84,168Z" fill="#f4a782" stroke="#f4a782" stroke-width="1.51"/><path d="M75,627L-33,671L187,706Z" fill="#a8637f" stroke="#a8637f" stroke-width="1.51"/><path d="M80,352L72,503L156,400Z" fill="#daa274" stroke="#daa274" stroke-width="1.51"/><path d="M85,-163L17,-139L156,-27Z" fill="#da464d" stroke="#da464d" stroke-width="1.51"/><path d="M17,-139L8,-15L156,-27Z" fill="#e0504c" stroke="#e0504c" stroke-width="1.51"/><path d="M8,-15L109,64L156,-27Z" fill="#ec684b" stroke="#ec684b" stroke-width="1.51"/><path d="M-12,426L72,503L80,352Z" fill="#d49b76" stroke="#d49b76" stroke-width="1.51"/><path d="M12,245L19,332L80,352Z" fill="#eca47b" stroke="#eca47b" stroke-width="1.51"/><path d="M-87,-166L17,-139L85,-163Z" fill="#c4304b" stroke="#c4304b" stroke-width="1.51"/><path d="M-53,121L84,168L109,64Z" fill="#ee8960" stroke="#ee8960" stroke-width="1.51"/><path d="M8,-15L-53,121L109,64Z" fill="#ea7355" stroke="#ea7355" stroke-width="1.51"/><path d="M72,503L-43,598L75,627Z" fill="#ae7f7d" stroke="#ae7f7d" stroke-width="1.51"/><path d="M19,332L-12,426L80,352Z" fill="#e1a073" stroke="#e1a073" stroke-width="1.51"/><path d="M-53,121L12,245L84,168Z" fill="#ed966f" stroke="#ed966f" stroke-width="1.51"/><path d="M-43,598L-33,671L75,627Z" fill="#a06984" stroke="#a06984" stroke-width="1.51"/><path d="M-12,426L-92,520L72,503Z" fill="#be8e77" stroke="#be8e77" stroke-width="1.51"/><path d="M-92,520L-43,598L72,503Z" fill="#ad8677" stroke="#ad8677" stroke-width="1.51"/><path d="M-115,-11L-53,121L8,-15Z" fill="#dd614f" stroke="#dd614f" stroke-width="1.51"/><path d="M-87,-166L-115,-11L8,-15Z" fill="#d0414a" stroke="#d0414a" stroke-width="1.51"/><path d="M-53,121L-105,242L12,245Z" fill="#e59373" stroke="#e59373" stroke-width="1.51"/><path d="M-87,-166L8,-15L17,-139Z" fill="#cf3a4e" stroke="#cf3a4e" stroke-width="1.51"/><path d="M-146,367L-70,421L19,332Z" fill="#d49571" stroke="#d49571" stroke-width="1.51"/><path d="M-105,242L-146,367L19,332Z" fill="#dc9877" stroke="#dc9877" stroke-width="1.51"/><path d="M-70,421L-12,426L19,332Z" fill="#d59873" stroke="#d59873" stroke-width="1.51"/><path d="M12,245L-105,242L19,332Z" fill="#e99f80" stroke="#e99f80" stroke-width="1.51"/><path d="M-70,421L-92,520L-12,426Z" fill="#be8d75" stroke="#be8d75" stroke-width="1.51"/><path d="M-135,135L-105,242L-53,121Z" fill="#dd8767" stroke="#dd8767" stroke-width="1.51"/><path d="M-115,-11L-135,135L-53,121Z" fill="#d96f56" stroke="#d96f56" stroke-width="1.51"/><path d="M-43,598L-145,714L-33,671Z" fill="#97577d" stroke="#97577d" stroke-width="1.51"/><path d="M-92,520L-145,714L-43,598Z" fill="#96677e" stroke="#96677e" stroke-width="1.51"/><path d="M-146,367L-92,520L-70,421Z" fill="#be8b73" stroke="#be8b73" stroke-width="1.51"/><path d="M-146,367L-145,714L-92,520Z" fill="#9f7c73" stroke="#9f7c73" stroke-width="1.51"/><path d="M-135,135L-146,367L-105,242Z" fill="#db927b" stroke="#db927b" stroke-width="1.51"/></svg>