<?xml version="1.0" encoding="UTF-8"?>
<!-- Created with Inkscape (http://www.inkscape.org/) -->
<svg width="377.95" height="377.95" version="1.1" viewBox="0 0 377.95 377.95" xmlns="http://www.w3.org/2000/svg">
 <g transform="matrix(1.3333 0 0 -1.3333 0 377.95)">
  <g fill-rule="evenodd">
   <path transform="translate(283.46 141.73)" d="m0 0c0-78.272-63.456-141.73-141.73-141.73-78.278 0-141.73 63.458-141.73 141.73 0 78.278 63.456 141.73 141.73 141.73 78.274 0 141.73-63.455 141.73-141.73" fill="#00577d"/>
   <path transform="translate(225.77 96.524)" d="m0 0-14.154 4.598-1.047 0.344-0.567-0.942c-3.378-5.584-7.464-10.759-12.122-15.387l-0.845-0.833 0.697-0.957 8.589-11.826c-6.737-6.196-14.28-11.37-22.465-15.397l-8.732 12.01-0.655 0.908-1.015-0.446c-5.666-2.462-11.66-4.257-17.806-5.338l-1.14-0.197v-15.863c-4.224-0.559-8.502-0.862-12.744-0.862-4.828 0-9.694 0.384-14.481 1.122v15.89l-1.117 0.221c-5.957 1.182-11.803 3.073-17.383 5.612l-1.029 0.465-0.665-0.915-8.692-11.965c-8.119 4.152-15.58 9.439-22.226 15.729l8.628 11.867 0.687 0.947-0.817 0.836c-4.381 4.504-8.221 9.503-11.405 14.852l-0.565 0.946-1.055-0.337-14.144-4.598c-4.29 8.063-7.378 16.674-9.199 25.64l13.904 4.511 1.131 0.365-0.191 1.178c-0.716 4.348-1.084 8.732-1.084 13.028 0 2.091 0.104 4.304 0.31 6.766l0.091 1.089-1.046 0.342-14.172 4.606c1.217 9.059 3.723 17.859 7.461 26.197l13.879-4.508 1.141-0.37 0.528 1.074c3.118 6.319 7.072 12.215 11.765 17.523l0.732 0.831-0.65 0.897-8.733 12.024c6.37 6.557 13.616 12.144 21.565 16.631l8.597-11.829 0.697-0.965 1.061 0.548c6.622 3.415 13.647 5.874 20.879 7.306l1.117 0.221v15.897c4.799 0.728 9.663 1.116 14.481 1.116 4.249 0 8.527-0.3 12.744-0.865v-15.859l1.14-0.204c7.445-1.308 14.626-3.654 21.349-6.975l1.049-0.516 0.685 0.945 8.625 11.87c8.005-4.37 15.33-9.847 21.803-16.306l-8.683-11.951-0.666-0.916 0.763-0.834c4.957-5.411 9.143-11.504 12.465-18.112l0.531-1.064 1.132 0.369 13.903 4.518c3.789-8.329 6.352-17.113 7.611-26.151l-14.147-4.596-1.05-0.341 0.102-1.103c0.231-2.554 0.347-4.945 0.347-7.305 0-4.463-0.394-9.024-1.169-13.556l-0.202-1.177 1.135-0.373 13.887-4.511c-1.871-8.945-5.015-17.538-9.348-25.589m-2.566 32.372c0.67 4.29 1.031 8.604 1.031 12.834 0 2.099-0.094 4.223-0.272 6.455l14.218 4.618 1.093 0.356-0.148 1.135c-1.287 10.131-4.155 19.962-8.515 29.221l-0.524 1.107-1.155-0.38-13.975-4.542c-3.164 6.093-7.058 11.741-11.589 16.835l8.728 12.019 0.682 0.945-0.815 0.833c-7.146 7.316-15.347 13.444-24.363 18.214l-1.058 0.56-0.709-0.969-8.67-11.928c-6.299 2.997-12.981 5.178-19.887 6.496v15.967l-1.183 0.175c-4.732 0.692-9.552 1.045-14.329 1.045-5.355 0-10.77-0.444-16.093-1.318l-1.156-0.191v-16.016c-6.709-1.429-13.234-3.713-19.432-6.794l-8.64 11.892-0.718 0.985-1.069-0.585c-8.954-4.906-17.062-11.156-24.105-18.577l-0.789-0.835 0.673-0.931 8.786-12.088c-4.274-4.967-7.933-10.413-10.898-16.216l-13.951 4.535-1.169 0.375-0.513-1.112c-4.307-9.273-7.117-19.124-8.354-29.272l-0.137-1.135 1.084-0.351 14.246-4.629c-0.154-2.103-0.233-4.049-0.233-5.899 0-4.06 0.326-8.184 0.946-12.3l-13.976-4.539-1.159-0.372 0.226-1.205c1.909-10.042 5.364-19.682 10.271-28.645l0.551-1.009 1.089 0.353 14.222 4.624c2.979-4.849 6.475-9.402 10.416-13.572l-8.667-11.931-0.705-0.972 0.861-0.834c7.343-7.127 15.698-13.049 24.829-17.58l1.049-0.519 0.687 0.944 8.736 12.032c5.111-2.242 10.427-3.958 15.843-5.113v-16.011l1.156-0.194c5.312-0.872 10.725-1.316 16.093-1.316 4.772 0 9.593 0.351 14.325 1.041l1.187 0.18v15.96c5.585 1.064 11.042 2.704 16.256 4.876l8.773-12.079 0.683-0.933 1.039 0.499c9.201 4.395 17.646 10.182 25.093 17.209l0.882 0.835-0.712 0.983-8.636 11.883c4.221 4.303 7.958 9.05 11.124 14.136l14.24-4.624 1.086-0.357 0.55 0.999c4.961 8.943 8.476 18.567 10.437 28.601l0.237 1.201-1.162 0.381z" fill="#fff"/>
   <path d="m4.665 141.74c0 75.574 61.49 137.06 137.07 137.06 75.578 0 137.06-61.483 137.06-137.06 0-75.577-61.486-137.06-137.06-137.06-75.576 0-137.07 61.488-137.07 137.06m2.684 0c0-74.099 60.285-134.38 134.38-134.38s134.38 60.286 134.38 134.38c0 74.098-60.285 134.38-134.38 134.38s-134.38-60.284-134.38-134.38" fill="#fff"/>
  </g>
  <path d="m32.48 141.73c0-60.237 49.011-109.24 109.25-109.24 60.24 0 109.25 49.006 109.25 109.24 0 60.239-49.008 109.25-109.25 109.25-60.239 0-109.25-49.01-109.25-109.25m2.1393 0c0 59.062 48.051 107.11 107.11 107.11 59.06 0 107.11-48.052 107.11-107.11 0-59.061-48.051-107.11-107.11-107.11-59.06 0-107.11 48.05-107.11 107.11" fill="none"/>
  <path d="m17.277 141.74c0 68.621 55.833 124.45 124.46 124.45 68.625 0 124.45-55.827 124.45-124.45 0-68.624-55.83-124.46-124.45-124.46-68.624 0-124.46 55.832-124.46 124.46m2.4371 0c0-67.282 54.739-122.02 122.02-122.02 67.28 0 122.02 54.74 122.02 122.02 0 67.282-54.739 122.02-122.02 122.02-67.281 0-122.02-54.738-122.02-122.02" fill="none"/>
  <g fill="#fff">
   <g transform="matrix(.99435 -.10618 -.10618 -.99435 15.85 297.71)" stroke-width=".75" aria-label="POZNAN UNIVERSITY OF TECHNOLOGY">
    <path d="m27.335 151.86q-1.4308 0.0641-2.3121-0.70013-0.8597-0.76519-0.92088-2.1309l-0.15344-3.4252-4.5091 0.20199 0.06312 1.4091-2.1028 0.0942-0.22821-5.0944 2.1028-0.0942 0.05729 1.279 10.839-0.48556-0.05729-1.279 2.1028-0.0942 0.33503 7.479q0.05341 1.1923-0.65257 1.919-0.70501 0.7484-1.9624 0.80472zm0.02228-2.4121 1.886-0.0845q1.214-0.0544 1.1732-0.96487l-0.1379-3.0783-4.3357 0.19422 0.1379 3.0783q0.04079 0.91049 1.2764 0.85513z"/>
    <path d="m22.205 165.3q-1.2435 0.19438-2.083-0.39918t-1.0239-1.7728l-0.66022-4.2236q-0.18432-1.1792 0.43403-2.0006 0.6217-0.80002 1.8652-0.99439l9.4763-1.4813q1.2435-0.19438 2.0797 0.37775 0.83954 0.59356 1.0239 1.7727l0.66022 4.2236q0.18432 1.1792-0.43403 2.0006-0.61835 0.82146-1.8619 1.0158zm0.22496-2.4951 8.2971-1.297q1.2006-0.18767 1.0632-1.0667l-0.44238-2.83q-0.14076-0.90047-1.3414-0.71279l-8.2971 1.297q-1.2221 0.19103-1.0813 1.0915l0.44238 2.83q0.13741 0.87903 1.3595 0.688z"/>
    <path d="m22.968 179.32-2.6627-9.7553 1.8841-0.51425 12.465 3.8857-1.2285-4.5009-2.4493 0.66854-0.62282-2.2818 4.4799-1.2228 2.5941 9.5041-1.8422 0.50283-12.495-3.8324 1.2914 4.7311 2.4912-0.67996 0.61711 2.2609z"/>
    <path d="m40.918 189.78-0.48513-1.1848-11.989 4.9089-0.87159-2.1287 8.1175-9.7252q-1.151 0.68231-2.0748 1.0606l-8.2135 3.363-1.3321-3.2533 1.9479-0.79759 0.48513 1.1848 10.041-4.1113-0.48513-1.1848 1.9479-0.79758 1.4389 3.5143-8.1796 9.5161q1.1711-0.69053 2.0547-1.0523l8.2135-3.363 1.3321 3.2532z"/>
    <path d="m36.623 208.61-1.6214-2.8474 3.5498-3.3699-2.0402-3.5828-4.6881 1.371-1.4604-2.5646 1.8291-1.0416 0.56911 0.99943 12.954-3.4311 1.7181 3.0171-9.5611 9.3899 0.57985 1.0183zm3.427-7.62 4.9513-4.5924-6.5083 1.8582z"/>
    <path d="m56.499 213.82-0.77054-1.0225-10.346 7.7968-1.3844-1.837 5.3769-11.47q-0.93958 0.95263-1.7368 1.5534l-7.0879 5.3416-2.1157-2.8074 1.681-1.2668 0.77054 1.0225 8.665-6.53-0.77054-1.0225 1.681-1.2668 2.2855 3.0327-5.4901 11.284q0.95692-0.96569 1.7194-1.5403l7.0879-5.3416 2.1157 2.8074z"/>
    <path d="m71.624 228.57-0.9671-0.87173-6.5234 7.2372q-0.98796 1.0961-2.1977 1.1742-1.1937 0.0926-2.2252-0.83721l-2.4822-2.2374q-1.0316-0.92985-1.079-2.1412-0.03135-1.1968 0.95662-2.2929l6.5234-7.2372-0.9671-0.87173 1.4093-1.5635 2.7562 2.4844-7.8456 8.7039q-0.82814 0.91875-0.16729 1.5144l2.2405 2.0195q0.67697 0.61021 1.5051-0.30854l7.8456-8.7039 2.6273 2.3682z"/>
    <path d="m83.598 237.06-1.0518-0.73002-7.3868 10.643-1.8896-1.3116 1.5178-12.577q-0.59432 1.1988-1.1635 2.0188l-5.0606 7.2912-2.8879-2.0044 1.2002-1.7292 1.0518 0.73001 6.1866-8.9134-1.0518-0.73001 1.2002-1.7292 3.1197 2.1653-1.6837 12.435q0.60669-1.2166 1.1511-2.001l5.0606-7.2912 2.8879 2.0044z"/>
    <path d="m83.618 251.79-4.3432-2.4147 1.0228-1.8397 1.119 0.62213 5.2723-9.4829-1.119-0.62213 1.0228-1.8397 4.3432 2.4147-1.0228 1.8397-1.119-0.62213-5.2723 9.4829 1.119 0.62214z"/>
    <path d="m103.04 246.49-1.1738-0.51127-8.3565 10.491-2.6858-1.1698 2.0101-13.255-1.1738-0.51127 0.84056-1.9298 2.9444 1.2825-2.0726 12.257 7.5436-9.8743 2.9643 1.2912z"/>
    <path d="m111.03 262.46-10.021-2.9965 0.60302-2.0167 1.2266 0.36679 3.1084-10.395-1.2266-0.36678 0.60302-2.0167 9.8339 2.9405-1.3366 4.4699-2.0167-0.60302 0.73358-2.4533-4.2828-1.2806-1.1936 3.9918 4.5947 1.3739-0.57816 1.9335-4.5947-1.3739-1.3366 4.47 4.4284 1.3242 0.77087-2.578 2.0582 0.61546z"/>
    <path d="m125.94 265.33-3.6549-0.64119 0.92992-5.3006q0.21373-1.2183-0.66259-1.372l-3.0992-0.5437-1.1436 6.5189-3.6335-0.63744 0.36371-2.0732 1.261 0.22123 1.8748-10.687-1.261-0.22123 0.36372-2.0732 7.3739 1.2936q1.1756 0.20623 1.732 1.0529 0.57784 0.85044 0.36036 2.0901l-0.41996 2.3938q-0.31122 1.774-2.3477 1.7031 1.084 0.47659 1.4204 1.1965 0.36148 0.70233 0.144 1.942l-0.49871 2.8427 1.261 0.22123zm-1.9953-10.352 0.32622-1.8595q0.20998-1.1969-0.68771-1.3544l-3.035-0.53245-0.74993 4.2747 3.035 0.53245q0.89769 0.15749 1.1114-1.0608z"/>
    <path d="m138.66 263.49q-0.0776 1.2562-0.83781 1.9485-0.73856 0.69359-1.9298 0.62002l-6.5626-0.40531 0.27288-4.4184 2.4474 0.15116-0.14313 2.3175 3.4004 0.21001q0.90966 0.0562 0.98591-1.1784l0.11906-1.9276q0.0762-1.2346-0.83342-1.2907l-3.0972-0.19129q-1.1912-0.0736-1.8605-0.85411-0.6476-0.7792-0.57001-2.0354l0.18995-3.0755q0.0776-1.2562 0.81614-1.9498 0.76022-0.69225 1.9514-0.61868l6.1727 0.38124-0.24881 4.0285-2.3608-0.1458 0.11906-1.9276-3.0972-0.19129q-0.90967-0.0562-0.98458 1.1567l-0.10835 1.7544q-0.0762 1.2345 0.83342 1.2907l3.0972 0.19128q1.1912 0.0736 1.8388 0.85278 0.66926 0.78054 0.59168 2.0368z"/>
    <path d="m147.29 266.09-4.9678 0.12118-0.0513-2.1043 1.2799-0.0312-0.26457-10.847-1.2799 0.0312-0.0513-2.1043 4.9678-0.12117 0.0513 2.1043-1.2799 0.0312 0.26457 10.847 1.2799-0.0312z"/>
    <path d="m161.11 253.86-2.2192 0.26564-0.25275-2.1115-2.3701 0.28369 1.2895 10.773 1.4005-0.16763 0.25017 2.09-5.1926 0.62154-0.25016-2.09 1.4005-0.16763-1.2895-10.773-2.3701 0.28369 0.25274 2.1115-2.2192 0.26564-0.50292-4.2015 11.57-1.3849z"/>
    <path d="m174 248.63-1.2434 0.30529-1.7759 6.7819 1.1177 4.552 1.3066-0.32081 0.50191 2.0442-4.9735 1.2211-0.50191-2.0442 1.3277-0.32598-1.0918-4.4466-4.7829-5.2832-1.2434 0.30528-0.50191-2.0442 2.9293-0.71923 4.3356 5.2813 1.3755-6.6836 2.7186-0.66748z"/>
    <path d="m195.78 250.89q0.51569 1.1481 0.16475 2.1145-0.35093 0.96643-1.4396 1.4554l-3.8996 1.7516q-1.0887 0.48901-2.0442 0.10938-0.93573-0.38851-1.4514-1.5366l-3.9299-8.7494q-0.51568-1.1481-0.18454-2.1056 0.35093-0.96643 1.4396-1.4554l3.8996-1.7516q1.0887-0.48901 2.0442-0.10939t1.4712 1.5277zm-2.466 0.44154-3.4408-7.6606q-0.4979-1.1085-1.3095-0.74398l-2.6129 1.1736q-0.83139 0.37342-0.33349 1.4819l3.4409 7.6606q0.50679 1.1283 1.3382 0.75488l2.6129-1.1736q0.8116-0.36454 0.3048-1.4928z"/>
    <path d="m203.62 237.63-1.9648 1.1538-1.2967-2.208-3.4243 2.011 2.1099 3.5927 4.285-2.5164 1.0659 1.8151-4.285 2.5164 2.3186 3.9482 1.235-0.72526 1.0659 1.8151-4.416 2.5934-1.0659-1.815 1.104-0.64834-5.4944-9.356-1.104 0.64835-1.0659-1.8151 8.57-5.0329z"/>
    <path d="m220.13 224.1-1.6947 1.4572-1.3865-1.6125-1.8099 1.5563 7.074 8.2269 1.0695-0.91962 1.3724 1.596-3.9654 3.4096-1.3724-1.596 1.0695-0.91962-7.074-8.2269-1.8099 1.5563 1.3865 1.6125-1.6947 1.4572-2.7588-3.2085 8.8357-7.5974z"/>
    <path d="m236.8 222.13-7.0796 7.6992-1.5494-1.4247 0.8666-0.94244-7.9867-7.344-0.8666 0.94243-1.5494-1.4247 6.9475-7.5554 3.4343 3.1579-1.4248 1.5494-1.8849-1.7332-3.0257 3.2905 3.0669 2.8201 3.2461-3.5301 1.4855 1.366-3.2461 3.5301 3.4343 3.1579 3.1286-3.4023-1.9807-1.8213 1.4541-1.5814z"/>
    <path d="m244.79 211.59-3.8855 5.2773q-0.70762 0.96111-1.7263 1.1003-1.0058 0.12175-2.0194-0.62447l-7.7238-5.6867q-1.0135-0.74621-1.196-1.7428-0.16957-1.0141 0.53805-1.9752l3.8855-5.2773 3.8095 2.8047-1.2608 1.7125-2.1144-1.5568-2.2 2.9882q-0.54036 0.73393 0.43822 1.4544l6.7627 4.979q0.99606 0.73335 1.5364-5.9e-4l2.2-2.9882-2.1494-1.5825 1.2608-1.7125z"/>
    <path d="m252.72 198.32-1.8352 3.2001-5.7037-3.271-2.2239 3.8778 5.7037 3.271-1.8352 3.2001-1.8259-1.0472 0.63694-1.1106-9.412-5.3978-0.63694 1.1106-1.8259-1.0472 1.8352-3.2001 5.7037 3.271 2.2239-3.8778-5.7037-3.271 1.8352-3.2001 1.8259 1.0472-0.63693 1.1106 9.412 5.3978 0.63694-1.1106z"/>
    <path d="m247.25 178.36-0.49044 1.1826 11.967 4.9625-0.88112 2.1248-12.612 1.183q1.2975 0.32666 2.2196 0.70903l8.1983 3.3998-1.3466 3.2472-1.9443-0.80631 0.49043-1.1826-10.022-4.1562-0.49043 1.1826-1.9444-0.80631 1.4547-3.5078 12.509-0.99086q-1.3176-0.33497-2.1996-0.70072l-8.1983-3.3998 1.3466-3.2473z"/>
    <path d="m260.29 169.79q1.2124 0.33782 1.7309 1.2257 0.51851 0.88786 0.19816 2.0376l-1.1474 4.118q-0.32035 1.1497-1.2233 1.6415-0.89711 0.47088-2.1095 0.13305l-9.2394-2.5745q-1.2124-0.33783-1.7368-1.2048-0.51852-0.88786-0.19816-2.0376l1.1474-4.118q0.32035-1.1497 1.2233-1.6415 0.90293-0.49178 2.1154-0.15396zm-1.2377 2.1781-8.0897-2.2541q-1.1706-0.32618-1.4094 0.53088l-0.76884 2.7593q-0.24464 0.87796 0.92597 1.2041l8.0897 2.2541q1.1915 0.332 1.4361-0.54596l0.76885-2.7593q0.2388-0.85705-0.95271-1.189z"/>
    <path d="m265.35 157.06-1.5967 9.7216-2.0771-0.34114 0.2075-1.2634-10.707-1.7585-0.2075 1.2634-2.0771-0.34114 0.82296-5.0107 2.0771 0.34114-0.22508 1.3704 10.707 1.7585 0.64711-3.94-2.9764-0.48886 0.35169-2.1413z"/>
    <path d="m263.53 143.71q1.2567 0.0688 1.9543 0.82409 0.69759 0.75534 0.63239 1.947l-0.23352 4.2685q-0.0652 1.1917-0.84102 1.8664-0.77463 0.65306-2.0314 0.5843l-9.5771-0.52394q-1.2567-0.0687-1.9555-0.80242-0.69758-0.75533-0.63239-1.947l0.23352-4.2685q0.0652-1.1917 0.84102-1.8664 0.77581-0.67473 2.0325-0.60598zm-0.73945 2.3936-8.3854-0.45874q-1.2134-0.0664-1.262 0.82199l-0.15647 2.8601q-0.0498 0.91004 1.1636 0.97642l8.3854 0.45875q1.235 0.0676 1.2848-0.84247l0.15647-2.8601q0.0486-0.88837-1.1864-0.95594z"/>
    <path d="m265.76 130.36 0.36189 6.739q0.064 1.1918-0.63433 1.9464-0.69951 0.73296-1.9563 0.80045l-9.5776 0.51433q-1.2568 0.0675-2.0308-0.58635-0.77514-0.67551-0.83914-1.8673l-0.35374-6.5873 4.5721-0.24552 0.11636 2.1669-2.4702 0.13266 0.19898 3.7054q0.0489 0.91009 1.2623 0.84492l8.3858-0.45032q1.2351-0.0663 1.1862-0.97642l-0.19898-3.7054-4.4204 0.23738 0.13266 2.4702-2.1019 0.11288-0.25716-4.7888z"/>
    <path d="m250.68 117.25 0.21418 1.2623 6.635 2.2637 4.6211-0.78413-0.22507-1.3264 2.0752-0.35213 0.85673 5.049-2.0752 0.35212-0.2287-1.3478-4.5142 0.76597-5.6166 4.3866 0.21418 1.2622-2.0752 0.35213-0.5046-2.9738 5.5822-3.9406-6.566-1.8572-0.4683-2.7598z"/>
   </g>
   <g transform="matrix(.86599 -.50005 -.50005 -.86599 89.866 335.34)" style="white-space:pre" aria-label="COMPUTER VISION LAB">
    <path d="m32.83 131.77-0.31295 6.5459q-0.057 1.1921-0.82815 1.8722-0.77012 0.65838-2.0273 0.59827l-9.5805-0.45803q-1.2572-0.0601-1.961-0.78894-0.70276-0.75052-0.64577-1.9427l0.31295-6.5459 4.7252 0.22591-0.10155 2.1242-2.6227-0.12539-0.1772 3.7065q-0.04352 0.91036 1.1703 0.96839l8.3883 0.40104q1.2355 0.0591 1.279-0.8513l0.1772-3.7065-2.6661-0.12747 0.10156-2.1242z"/>
    <path d="m31.834 119.62q1.2434 0.19499 1.8614 1.0168t0.43304 2.0008l-0.6623 4.2233q-0.18491 1.1791-1.0247 1.7722-0.83647 0.57171-2.0799 0.37672l-9.4756-1.486q-1.2434-0.195-1.8647-0.99532-0.61795-0.82176-0.43304-2.0008l0.6623-4.2233q0.18491-1.1791 1.0247-1.7722 0.83984-0.59315 2.0832-0.39815zm-0.9768 2.3069-8.2965-1.3011q-1.2005-0.18826-1.3384 0.69069l-0.44378 2.8298q-0.1412 0.90039 1.0593 1.0887l8.2965 1.3011q1.222 0.19163 1.3632-0.70877l0.44378-2.8298q0.13784-0.87896-1.0841-1.0706z"/>
    <path d="m39.203 103.21-1.012 3.3892-11.207-3.3464 6.0924 5.0802-0.47805 1.601-7.9549 1.1576 11.207 3.3464-1.0058 3.3684-2.0169-0.60222 0.37251-1.2476-10.396-3.1042-0.37251 1.2476-2.0169-0.60222 1.1237-3.7635 9.0315-1.1985-6.9207-5.871 1.1237-3.7635 2.0169 0.60222-0.37872 1.2684 10.396 3.1042 0.37872-1.2684z"/>
    <path d="m35.336 88.285q1.3046 0.59104 1.7441 1.6716 0.41976 1.0716-0.14442 2.3169l-1.4149 3.123 4.1113 1.8627 0.58209-1.2848 1.9173 0.86866-2.1045 4.645-1.9173-0.86865 0.52836-1.1662-9.883-4.4776-0.52836 1.1662-1.9173-0.86866 3.0896-6.8193q0.49254-1.0871 1.4511-1.4152 0.96757-0.3478 2.114 0.1716zm-1.1126 2.1403-1.7196-0.77911q-1.1069-0.50149-1.483 0.32868l-1.2716 2.8068 3.9532 1.791 1.2716-2.8068q0.37612-0.83017-0.75054-1.3406z"/>
    <path d="m40.277 73.401-0.67502 1.1133 8.3316 5.0514q1.2618 0.76503 1.5653 1.9387 0.31472 1.1551-0.40531 2.3427l-1.7326 2.8576q-0.72003 1.1876-1.901 1.4612-1.1697 0.2551-2.4315-0.50992l-8.3316-5.0514-0.67502 1.1133-1.7999-1.0913 1.9238-3.173 10.02 6.0752q1.0577 0.64127 1.5189-0.11952l1.5638-2.5793q0.47252-0.77934-0.58516-1.4206l-10.02-6.0752 1.8338-3.0246z"/>
    <path d="m51.215 62.689-1.3885 1.7515-1.6665-1.3211-1.4828 1.8706 8.5025 6.7401 0.87622-1.1053 1.6495 1.3076-3.2487 4.0982-1.6495-1.3076 0.87622-1.1053-8.5025-6.7401-1.4828 1.8706 1.6665 1.3211-1.3885 1.7515-3.316-2.6287 7.2389-9.1317z"/>
    <path d="m68.441 60.621-7.4243 7.3674-1.4827-1.4941 0.90879-0.90182-7.6425-7.7016-0.90878 0.90182-1.4827-1.4941 7.2857-7.2298 3.2863 3.3117-1.4941 1.4827-1.8036-1.8176-3.173 3.1487 2.9347 2.9574 3.4041-3.378 1.4215 1.4325-3.4041 3.378 3.2863 3.3117 3.2809-3.2557-1.8953-1.91 1.5249-1.5132z"/>
    <path d="m79.038 52.115-2.9199 2.2899-3.321-4.2347q-0.76328-0.9733-1.4634-0.42427l-2.4759 1.9417 4.0842 5.208-2.9028 2.2765-1.2989-1.6563 1.0075-0.79007-6.6955-8.5377-1.0075 0.79007-1.2989-1.6563 5.891-4.6199q0.93915-0.7365 1.9409-0.58445 1.0188 0.13866 1.7955 1.129l1.4998 1.9125q1.1114 1.4173-0.30249 2.8846 1.0791-0.48774 1.8394-0.25669 0.764 0.20059 1.5407 1.191l1.781 2.271 1.0075-0.79007zm-9.0336-5.4356-1.165-1.4856q-0.74989-0.95623-1.4671-0.39381l-2.4247 1.9015 2.6782 3.4151 2.4247-1.9015q0.71717-0.56242-0.04612-1.5357z"/>
    <path d="m92.064 29.908-1.1415 0.57988 2.7721 13.122-2.6118 1.3268-8.9437-9.9872-1.1414 0.57988-0.95336-1.8766 2.8633-1.4546 8.1345 9.4004-2.8141-12.103 2.8826-1.4644z"/>
    <path d="m104.2 39.097-4.6249 1.8178-0.76998-1.959 1.1916-0.46834-3.969-10.098-1.1916 0.46834-0.76998-1.959 4.6249-1.8178 0.76998 1.959-1.1916 0.46834 3.969 10.098 1.1916-0.46834z"/>
    <path d="m114.15 33.09q0.35907 1.2063-0.11678 2.1177-0.45506 0.90524-1.599 1.2457l-6.3018 1.8758-1.2629-4.2428 2.3502-0.69956 0.66241 2.2254 3.2653-0.97196q0.87352-0.26001 0.52064-1.4455l-0.55098-1.851q-0.35287-1.1855-1.2264-0.92548l-2.9741 0.88528q-1.1439 0.34049-2.0407-0.16235-0.87603-0.50903-1.2351-1.7153l-0.87909-2.9533q-0.35907-1.2063 0.096-2.1115 0.47585-0.91143 1.6198-1.2519l5.9275-1.7644 1.1515 3.8685-2.267 0.6748-0.55098-1.851-2.9741 0.88528q-0.87353 0.26001-0.52684 1.4247l0.50145 1.6847q0.35288 1.1855 1.2264 0.92548l2.9741-0.88528q1.1439-0.34049 2.0199 0.16854 0.89683 0.50284 1.2559 1.7091z"/>
    <path d="m121.99 34.242-4.8662 1.0071-0.4266-2.0612 1.2537-0.25948-2.199-10.625-1.2537 0.25948-0.4266-2.0612 4.8662-1.0071 0.4266 2.0612-1.2537 0.25948 2.199 10.625 1.2537-0.25948z"/>
    <path d="m133.3 29.962q0.14691 1.25-0.47817 2.0663-0.62509 0.81634-1.8104 0.95566l-4.2457 0.49899q-1.1853 0.13931-1.9827-0.50986-0.77578-0.6517-0.92269-1.9017l-1.1196-9.5258q-0.14691-1.25 0.45663-2.0638 0.62508-0.81634 1.8104-0.95566l4.2457-0.49899q1.1853-0.13931 1.9827 0.50986 0.79732 0.64917 0.94423 1.8992zm-2.4847-0.31976-0.98024-8.3405q-0.14185-1.2069-1.0255-1.103l-2.8448 0.33435q-0.90517 0.10638-0.76332 1.3133l0.98024 8.3405q0.14438 1.2284 1.0496 1.1221l2.8448-0.33435q0.88362-0.10385 0.73924-1.3323z"/>
    <path d="m148.75 19.561-1.2803-0.0061-0.0621 12.955-2.3002-0.01102-5.8704-11.225q0.18896 1.3246 0.18417 2.3228l-0.0425 8.8752-3.5154-0.01684 0.0101-2.1049 1.2803 0.0061 0.052-10.85-1.2803-0.0061 0.0101-2.1049 3.7974 0.0182 5.6535 11.203q-0.18885-1.3463-0.18428-2.3011l0.0425-8.8752 3.5154 0.01685z"/>
    <path d="m168.06 35.59-9.6535-1.9665 0.42014-2.0625 1.2545 0.25555 2.1657-10.632-1.2545-0.25555 0.42015-2.0625 4.9756 1.0136-0.42014 2.0625-1.3609-0.27721-2.1657 10.632 3.9124 0.79698 0.60207-2.9556 2.1263 0.43314z"/>
    <path d="m182.37 40.124-3.1067-1.0417 0.3998-4.8783-3.9091-1.3107-2.5807 4.147-2.7981-0.93822 0.66917-1.9957 1.0904 0.36563 7.3692-11.193 3.2919 1.1038-0.86777 13.373 1.111 0.37253zm-2.5249-7.9646 0.62952-6.7238-3.6128 5.7235z"/>
    <path d="m194.57 42.883q-0.54408 1.1349-1.5088 1.4907-0.96468 0.35574-2.0409-0.16019l-7.0835-3.3958 0.90992-1.8981 1.1545 0.55346 4.6903-9.7838-1.1545-0.55346 0.90992-1.8981 6.9465 3.3301q1.0762 0.51593 1.403 1.4908 0.32679 0.97486-0.21729 2.1098l-0.94744 1.9763q-0.77859 1.6241-2.7203 1.0061 0.9339 0.71242 1.1588 1.3978 0.25387 0.67519-0.1495 1.5166zm0.89837-7.8476 0.66603-1.3893q0.52531-1.0958-0.29653-1.4898l-2.9743-1.4259-1.7166 3.5809 2.9743 1.4259q0.82184 0.39399 1.3472-0.7018zm-2.8469 6.2397 1.0412-2.172q0.52532-1.0958-0.29652-1.4898l-3.0917-1.4821-2.1013 4.3832 3.0917 1.4821q0.82184 0.39399 1.3565-0.72137z"/>
   </g>
   <path transform="matrix(.31033 0 0 -.31033 73.17 210.66)" d="m221.02 341.3c-49.708 0-103.21-19.44-154.71-56.22-38.502-27.494-62.266-54.733-63.259-55.881-4.068-4.697-4.068-11.669 0-16.367 0.993-1.146 24.756-28.387 63.259-55.881 51.505-36.777 105-56.219 154.71-56.219 49.708 0 103.21 19.441 154.71 56.219 38.502 27.494 62.266 54.734 63.259 55.881 4.068 4.697 4.068 11.669 0 16.367-0.993 1.146-24.756 28.387-63.259 55.881-51.503 36.779-105 56.22-154.71 56.22z" stroke-width="1.0005" style="paint-order:stroke fill markers"/>
  </g>
  <g>
   <path d="m77.118 142.07c3.2459-3.3555 9.3719-9.256 17.46-15.091 11.089-7.9996 28.275-17.537 47.181-17.537 18.906 0 36.093 9.5371 47.181 17.537 8.0874 5.8344 14.214 11.736 17.46 15.091-3.2456 3.3555-9.3719 9.256-17.46 15.091-11.088 8-28.275 17.537-47.181 17.537-18.906 0-36.093-9.5368-47.181-17.537-8.0874-5.8344-14.214-11.735-17.46-15.091z" fill="#00577d" stroke-width=".34027" style="paint-order:stroke fill markers"/>
   <path d="m120.4 134.87c-2.5272 7.2723-0.89988 15.766 4.0497 21.648 4.7989 5.8133 12.646 8.9416 20.128 7.9289 7.3928-0.91215 14.202-5.703 17.434-12.434 2.8198-5.7486 3.1299-12.781 0.49684-18.647-0.8842-1.4599-3.2261-1.2797-4.023 0.16949-0.66057 0.97156-0.14203 2.1109 0.22501 3.0804 1.9797 6.0417 0.41326 13.09-4.0051 17.676-3.6337 3.8253-9.0186 5.9657-14.291 5.5214-4.8154-0.32488-9.6148-2.8602-12.628-6.732-3.998-5.0067-4.954-12.235-2.3402-18.092 0.52147-1.2331 1.3273-2.6483 2.2331-3.7825 3.6593-4.7692 9.8321-7.4924 15.825-6.8348 1.6857 0.12704 3.3096 0.64666 4.9193 1.0954 1.7801 0.25596 3.1355-1.9101 2.309-3.4467-0.61347-1.2696-2.1898-1.3861-3.3793-1.7989-7.5961-1.9951-16.147 0.37264-21.625 6.0055-2.4022 2.4267-4.2409 5.4058-5.3293 8.6427z" fill="#fff" stroke-width=".3105"/>
   <path d="m141.25 150.02c4.5682 0.26667 8.4943-3.2263 8.7731-7.8053 0.26734-4.5796-3.2256-8.5057-7.8053-8.7731-4.5797-0.26734-8.5057 3.2256-8.7731 7.8053-0.26734 4.5797 3.2256 8.5057 7.8053 8.7731z" fill="#fff" stroke-width=".11469"/>
   <path id="XMLID_2003_" d="m142.26 144.79c0.95153 0.0556 1.6966 0.8758 1.6401 1.8435-0.0565 0.96765-0.8758 1.6966-1.8434 1.6401-4.0158-0.23441-7.0986-3.6994-6.8641-7.7152 0.0565-0.96764 0.87579-1.6966 1.8435-1.6401 0.96765 0.0565 1.6966 0.87579 1.6401 1.8434-0.1224 2.0966 1.4873 3.9059 3.5839 4.0283z" fill="#00577d" stroke-width=".16155"/>
  </g>
 </g>
</svg>
