<?xml version="1.0" standalone="no"?>
<!DOCTYPE svg PUBLIC "-//W3C//DTD SVG 20010904//EN"
 "http://www.w3.org/TR/2001/REC-SVG-20010904/DTD/svg10.dtd">
<svg version="1.0" xmlns="http://www.w3.org/2000/svg"
 width="1838.000000pt" height="1838.000000pt" viewBox="0 0 1838.000000 1838.000000"
 preserveAspectRatio="xMidYMid meet">
<metadata>
Created by potrace 1.11, written by Peter Selinger 2001-2013
</metadata>
<g transform="translate(0.000000,1838.000000) scale(0.100000,-0.100000)"
fill="#000000" stroke="none">
<path d="M15777 15438 c-8 -18 -77 -177 -152 -353 -75 -176 -147 -344 -161
-373 -13 -29 -24 -55 -24 -57 0 -3 -10 -27 -21 -53 -32 -72 -31 -69 -292 -677
-386 -899 -498 -1158 -512 -1190 -12 -26 -317 -731 -397 -920 -17 -38 -38 -88
-48 -110 -10 -22 -61 -141 -114 -265 -54 -124 -103 -238 -111 -255 -7 -16 -61
-138 -118 -270 -159 -363 -223 -500 -263 -567 -50 -81 -134 -170 -233 -243
-44 -33 -80 -62 -81 -65 0 -3 236 -5 525 -5 289 0 525 3 525 6 0 3 -12 11 -27
18 -54 24 -105 66 -136 110 -54 79 -41 175 65 451 22 58 46 120 54 137 8 18
21 50 29 70 7 21 57 139 110 263 52 124 112 264 133 312 l37 88 40 0 c53 1
1677 2 1780 1 l81 -1 73 -177 c41 -98 98 -236 128 -308 117 -282 231 -562 243
-600 20 -62 21 -144 1 -190 -22 -49 -86 -115 -146 -150 -25 -15 -45 -28 -45
-28 0 -1 371 -2 825 -2 454 0 825 2 825 5 -1 3 -39 27 -87 55 -137 80 -220
172 -290 325 -44 97 -69 152 -154 346 -48 111 -97 221 -108 245 -10 24 -51
116 -89 204 -38 88 -108 248 -155 355 -47 107 -124 285 -172 395 -47 110 -92
214 -100 230 -7 17 -22 50 -33 75 -11 25 -57 131 -102 235 -71 165 -161 373
-205 470 -7 17 -27 64 -45 105 -18 41 -41 93 -50 115 -10 23 -40 90 -65 150
-26 61 -120 279 -210 485 -89 206 -209 481 -265 610 -133 306 -125 288 -148
340 -20 46 -55 128 -194 450 -44 102 -85 198 -92 213 l-13 28 -16 -33z m-147
-1968 c112 -273 458 -1105 570 -1370 45 -105 79 -194 76 -198 -8 -7 -1525 -9
-1538 -1 -5 3 18 72 55 160 130 308 541 1320 660 1621 l42 107 21 -47 c12 -26
63 -148 114 -272z"/>
<path d="M6428 15396 c-1 -2 -52 -6 -113 -10 -129 -8 -148 -10 -280 -37 -116
-24 -301 -83 -398 -128 -37 -17 -69 -31 -71 -31 -3 0 -44 -23 -93 -51 -123
-71 -255 -173 -349 -271 -83 -87 -196 -248 -234 -333 -12 -27 -28 -63 -35 -80
-60 -138 -98 -344 -97 -535 0 -165 14 -258 59 -410 40 -134 129 -303 217 -408
102 -123 196 -214 316 -305 52 -40 97 -75 100 -78 7 -9 235 -151 305 -189 61
-34 352 -180 359 -180 2 0 42 -17 88 -39 45 -21 106 -49 133 -61 601 -270 810
-506 821 -925 10 -429 -217 -771 -596 -898 -137 -46 -225 -60 -380 -60 -99 -1
-188 6 -255 18 -114 22 -292 88 -374 139 -22 14 -43 26 -46 26 -8 0 -148 104
-187 138 -71 62 -171 171 -224 242 -61 83 -114 159 -114 165 0 3 -12 24 -26
47 -68 107 -181 371 -207 483 -5 19 -2 -119 8 -455 17 -575 23 -752 24 -812 1
-24 11 -32 84 -66 298 -141 562 -230 827 -278 14 -2 36 -7 50 -9 81 -17 161
-26 325 -40 66 -6 332 -6 370 -1 17 2 55 7 86 10 31 4 66 8 77 11 11 2 37 6
58 9 139 23 349 95 512 177 514 258 835 703 899 1244 17 142 3 391 -32 584
-15 79 -62 206 -118 316 -73 146 -214 315 -351 424 -188 149 -345 236 -864
477 -194 91 -361 169 -370 173 -9 5 -64 33 -121 61 -57 29 -126 65 -153 81
-27 16 -51 29 -53 29 -3 0 -46 28 -97 62 -97 66 -258 217 -258 243 0 8 -4 15
-9 15 -11 0 -55 99 -77 175 -13 44 -18 94 -17 190 0 113 4 141 28 215 78 243
233 400 474 480 112 37 168 45 331 44 146 -1 250 -17 380 -60 120 -41 305
-139 358 -191 7 -7 17 -13 21 -13 15 0 208 -195 258 -260 97 -127 193 -300
229 -412 10 -32 21 -58 24 -58 4 0 5 42 3 93 -3 102 -8 230 -19 567 -4 124 -8
248 -9 275 -2 28 -3 81 -4 118 l-1 68 -112 54 c-99 47 -316 128 -373 138 -11
2 -38 9 -60 15 -22 6 -53 13 -70 16 -16 3 -39 7 -50 9 -18 4 -92 16 -195 32
-19 3 -87 8 -150 10 -63 3 -129 7 -147 10 -17 2 -33 2 -35 1z"/>
<path d="M20 15301 c0 -4 15 -15 33 -26 63 -37 134 -114 163 -178 l29 -62 1
-1703 c2 -1514 5 -1837 19 -1892 2 -8 6 -31 9 -50 3 -19 12 -66 21 -105 8 -38
18 -80 20 -93 11 -48 74 -211 109 -280 193 -383 546 -670 1006 -818 97 -31
245 -71 290 -78 19 -3 46 -8 60 -11 14 -3 48 -8 75 -11 28 -4 52 -8 56 -10 3
-1 39 -6 80 -9 40 -4 92 -8 114 -11 55 -5 372 -5 415 0 19 3 62 7 95 11 75 8
182 23 215 30 14 3 34 8 45 10 507 108 889 398 1089 827 85 183 136 378 171
658 10 75 14 362 21 1285 9 1317 12 1829 14 2047 2 204 8 248 49 324 26 49 57
84 110 122 l41 30 -440 -1 c-242 0 -440 -4 -440 -8 0 -5 4 -9 9 -9 17 0 100
-82 124 -123 26 -45 47 -102 53 -145 3 -26 15 -2144 17 -2997 1 -445 -3 -504
-42 -704 -16 -78 -75 -250 -112 -323 -103 -204 -262 -364 -458 -463 -84 -42
-226 -89 -301 -101 -19 -3 -41 -7 -48 -9 -52 -18 -363 -25 -482 -12 -72 8
-235 41 -235 47 0 1 -7 3 -15 5 -33 7 -155 56 -189 77 -204 121 -314 237 -410
433 -43 89 -84 196 -95 251 -3 10 -9 42 -16 69 -6 28 -13 66 -16 85 -2 19 -8
64 -13 100 -6 38 -9 803 -8 1820 l2 1755 22 46 c30 61 92 130 153 169 27 18
50 33 50 35 0 1 -328 2 -730 3 -402 0 -730 -3 -730 -7z"/>
<path d="M8600 15299 c0 -5 4 -9 9 -9 5 0 31 -20 58 -44 54 -48 90 -114 109
-193 18 -78 18 -4677 0 -4755 -20 -85 -56 -146 -122 -207 l-62 -56 1072 1
c929 1 1190 4 1331 18 61 7 160 18 175 21 8 1 40 6 70 10 149 18 461 97 645
162 279 98 575 255 775 410 137 106 194 156 295 258 212 215 361 425 490 690
88 183 160 379 190 522 2 10 10 47 19 83 8 36 18 88 22 115 3 28 7 52 9 55 18
30 26 490 11 613 -6 48 -44 250 -61 324 -33 143 -134 405 -216 562 -123 236
-261 424 -449 611 -340 339 -747 562 -1265 695 -130 33 -316 70 -410 80 -27 3
-61 8 -75 10 -14 3 -56 7 -95 11 -38 3 -88 8 -110 11 -71 9 -2415 12 -2415 2z
m2155 -392 c22 -3 65 -8 95 -12 30 -4 87 -13 125 -20 92 -18 102 -21 155 -35
25 -7 50 -13 55 -14 82 -18 288 -100 393 -157 347 -189 619 -472 800 -834 105
-209 181 -445 217 -675 3 -19 8 -42 10 -50 19 -72 28 -526 12 -682 -97 -979
-548 -1604 -1342 -1861 -146 -48 -339 -88 -490 -103 -33 -3 -71 -8 -85 -11
-14 -3 -228 -7 -477 -8 l-452 -3 2 2231 2 2231 95 4 c52 2 96 5 98 6 4 5 746
-2 787 -7z"/>
<path d="M213 9292 l-23 -3 0 -360 0 -359 38 6 c20 3 47 7 60 9 12 2 62 7 110
10 48 3 101 8 117 10 188 25 1362 25 1970 0 61 -3 178 -7 260 -10 83 -3 188
-7 235 -10 47 -2 150 -6 230 -10 80 -3 168 -7 195 -10 28 -2 118 -7 200 -10
83 -4 166 -8 185 -10 19 -2 94 -6 165 -10 72 -3 150 -8 175 -10 25 -2 104 -7
175 -10 72 -3 150 -8 175 -10 25 -2 92 -7 150 -10 58 -3 125 -8 150 -10 25 -2
88 -7 140 -10 52 -3 124 -7 160 -10 171 -12 211 -15 285 -20 44 -3 116 -7 160
-10 44 -3 100 -7 125 -10 25 -2 83 -6 130 -10 47 -3 110 -8 140 -10 30 -3 87
-7 125 -10 39 -2 104 -7 145 -10 41 -3 93 -7 115 -10 l40 -4 -30 14 c-66 31
-650 218 -750 240 -11 2 -96 24 -190 49 -144 37 -471 114 -555 130 -14 2 -90
18 -170 35 -80 16 -183 37 -230 45 -47 8 -148 26 -225 40 -77 13 -160 27 -185
31 -25 3 -52 8 -60 10 -8 2 -35 7 -60 10 -25 3 -52 8 -60 10 -8 2 -37 6 -65
10 -44 5 -130 18 -205 30 -35 6 -245 34 -300 40 -63 7 -121 15 -150 20 -14 2
-53 7 -87 10 -34 3 -71 8 -82 10 -11 2 -53 7 -93 10 -39 3 -74 8 -77 9 -3 2
-46 7 -96 11 -49 4 -92 8 -95 10 -3 1 -43 6 -90 9 -47 4 -98 9 -115 11 -16 2
-64 7 -105 10 -41 4 -91 8 -110 10 -19 2 -71 6 -115 9 -44 4 -102 9 -130 12
-83 7 -155 13 -260 19 -55 4 -118 8 -140 10 -22 2 -92 6 -155 10 -63 4 -142 8
-175 10 -58 4 -197 11 -380 20 -49 2 -187 7 -305 10 -118 4 -226 8 -240 9 -14
1 -35 0 -47 -2z"/>
<path d="M16757 9294 c-1 -1 -141 -5 -312 -9 -311 -6 -387 -8 -720 -20 -272
-9 -614 -23 -745 -30 -47 -3 -134 -7 -195 -10 -190 -9 -410 -21 -560 -30 -38
-3 -110 -7 -160 -10 -158 -9 -382 -24 -595 -40 -30 -2 -95 -7 -145 -11 -49 -3
-106 -7 -125 -9 -19 -2 -78 -6 -130 -10 -52 -3 -111 -8 -130 -10 -19 -2 -73
-7 -120 -10 -47 -3 -105 -8 -130 -10 -42 -4 -103 -10 -225 -20 -27 -3 -75 -7
-105 -10 -30 -3 -84 -7 -120 -11 -36 -3 -81 -7 -100 -9 -19 -2 -67 -7 -106
-10 -39 -3 -80 -7 -90 -9 -10 -2 -59 -7 -109 -11 -49 -4 -97 -8 -105 -10 -8
-2 -49 -6 -90 -10 -41 -3 -86 -8 -100 -10 -14 -2 -59 -7 -100 -10 -41 -4 -82
-9 -90 -10 -8 -1 -46 -6 -85 -9 -38 -4 -81 -9 -95 -11 -14 -2 -52 -6 -85 -9
-33 -4 -76 -8 -95 -11 -19 -2 -55 -7 -80 -9 -77 -9 -668 -82 -737 -92 -18 -2
-48 -6 -65 -8 -18 -3 -55 -8 -83 -11 -27 -4 -61 -8 -75 -11 -14 -2 -47 -6 -75
-9 -27 -3 -75 -10 -105 -15 -52 -9 -81 -13 -182 -25 -24 -3 -83 -12 -133 -20
-49 -8 -114 -17 -144 -20 -29 -3 -56 -7 -60 -9 -3 -2 -31 -7 -61 -11 -30 -3
-107 -15 -170 -25 -141 -23 -186 -30 -225 -36 -47 -6 -90 -13 -220 -35 -66
-11 -133 -22 -150 -25 -16 -2 -82 -14 -145 -25 -63 -11 -124 -22 -135 -24 -20
-3 -66 -11 -115 -20 -14 -3 -41 -7 -60 -10 -19 -3 -69 -12 -110 -20 -41 -8
-127 -24 -190 -35 -63 -12 -207 -39 -320 -61 -113 -22 -216 -42 -230 -45 -14
-2 -36 -7 -50 -10 -14 -3 -36 -8 -50 -10 -14 -3 -59 -12 -100 -20 -41 -9 -83
-17 -93 -19 -10 -2 -26 -6 -35 -9 -9 -3 -30 -8 -47 -11 -67 -12 -93 -17 -151
-30 -34 -8 -73 -16 -85 -19 -13 -2 -87 -19 -164 -36 -77 -17 -151 -33 -165
-36 -14 -3 -33 -7 -42 -10 -10 -3 -30 -8 -45 -10 -16 -3 -82 -18 -148 -34
-140 -34 -293 -70 -315 -75 -57 -12 -719 -183 -870 -225 -102 -28 -210 -58
-240 -66 -390 -105 -1180 -354 -1645 -518 -223 -78 -313 -111 -350 -126 -11
-5 -47 -18 -80 -30 -77 -28 -513 -196 -570 -221 -11 -4 -146 -62 -300 -127
-437 -186 -665 -291 -1065 -492 -215 -108 -300 -153 -297 -157 2 -1 50 16 107
38 58 22 143 52 190 68 47 16 164 56 260 89 347 118 1064 345 1160 367 8 1 85
23 170 48 267 79 779 219 1120 306 107 28 204 53 215 56 109 28 687 166 815
195 52 11 111 25 130 30 36 10 436 98 480 106 14 3 41 9 60 14 29 7 274 59
356 76 12 2 66 13 120 25 55 11 110 22 124 25 14 2 39 7 55 11 17 4 37 8 45 9
8 2 31 6 50 10 19 4 42 8 50 10 8 2 31 6 50 10 19 4 42 8 50 9 8 1 110 21 225
43 116 23 221 43 235 46 34 6 299 55 330 61 30 6 123 22 165 29 17 2 71 12
120 21 50 9 101 18 115 20 14 2 81 14 150 25 69 12 139 24 155 26 17 3 66 11
110 19 44 8 139 23 210 35 72 11 139 22 150 24 11 2 43 7 70 10 28 4 64 9 80
12 66 11 83 13 145 23 36 5 85 13 110 16 25 3 56 8 70 10 14 2 75 11 135 20
61 9 121 18 135 20 44 6 124 17 155 21 17 2 48 6 70 9 65 10 87 13 145 20 30
3 62 8 70 10 8 2 40 7 70 10 30 3 66 8 80 10 73 10 109 15 145 19 22 3 78 10
125 16 47 6 101 13 120 15 40 5 95 12 158 20 69 8 114 14 172 20 30 4 66 8 80
10 25 4 83 10 183 20 28 3 63 8 77 10 14 2 57 7 95 10 39 4 81 8 95 10 29 4
136 15 189 20 45 4 146 15 186 20 17 2 64 7 105 11 41 3 83 8 93 10 9 1 54 6
100 9 45 4 100 8 122 10 22 3 69 7 105 10 36 3 83 8 105 10 22 2 72 7 110 10
39 3 88 8 110 10 59 6 257 22 360 30 39 3 102 8 140 11 39 3 90 7 115 9 25 2
86 7 135 10 50 3 110 8 135 10 25 3 86 7 135 10 87 5 172 10 300 20 33 2 114
7 180 11 66 3 140 8 165 9 25 2 108 6 185 10 77 3 158 8 180 10 22 2 112 6
200 9 88 4 196 9 240 11 44 3 139 7 210 10 72 2 204 7 295 10 180 7 269 10
705 22 311 8 2246 10 2635 3 l235 -5 2 377 c2 287 -1 377 -10 381 -11 4 -1376
5 -1380 1z"/>
<path d="M1607 8094 c-1 -1 -153 -5 -337 -8 -184 -4 -391 -8 -460 -11 -69 -2
-217 -7 -330 -11 -113 -3 -223 -7 -245 -8 l-40 -2 -3 -360 -2 -360 83 27 c69
22 137 39 297 74 32 7 227 44 260 50 19 3 42 8 50 10 8 2 33 7 55 10 23 3 52
8 65 10 14 3 41 8 60 11 19 2 46 7 60 9 14 3 42 8 64 11 21 3 48 8 60 10 11 2
37 7 56 9 19 3 51 8 70 11 46 8 61 10 150 24 41 6 87 14 103 16 15 2 89 13
165 25 75 11 148 22 162 24 14 2 43 7 65 9 22 3 87 12 145 21 58 8 121 17 140
20 19 3 49 7 65 10 17 3 48 7 70 10 22 3 69 10 105 15 36 5 88 12 115 15 28 4
62 8 76 11 15 2 47 6 70 9 24 3 71 10 104 15 33 5 85 11 115 15 30 3 66 8 80
10 14 2 44 7 68 10 58 7 122 15 152 20 61 9 108 15 150 20 25 3 61 7 80 10 19
3 54 7 78 10 58 7 122 15 152 20 14 2 50 7 80 10 30 3 66 8 80 10 14 2 50 7
80 10 30 3 66 8 80 10 33 5 92 13 159 20 30 4 62 8 72 10 10 2 48 7 84 10 37
4 79 11 93 15 25 8 24 8 -13 10 -22 2 -49 4 -60 5 -11 1 -63 5 -115 9 -52 4
-117 8 -145 11 -27 2 -99 7 -160 10 -60 3 -141 8 -180 10 -87 5 -352 15 -550
21 -152 5 -1674 12 -1678 8z"/>
<path d="M16308 7935 c-2 -2 -139 -6 -305 -9 -166 -4 -355 -9 -420 -11 -65 -2
-201 -7 -303 -10 -226 -7 -376 -13 -540 -20 -69 -3 -172 -8 -230 -10 -58 -3
-152 -7 -210 -10 -58 -3 -150 -7 -205 -10 -55 -2 -136 -7 -180 -10 -44 -3
-123 -8 -175 -10 -216 -12 -279 -15 -355 -20 -128 -8 -235 -15 -305 -20 -60
-5 -140 -10 -295 -20 -33 -2 -91 -7 -130 -10 -38 -3 -99 -7 -135 -10 -84 -6
-215 -16 -260 -20 -19 -2 -75 -6 -125 -10 -49 -3 -110 -8 -135 -10 -25 -2 -73
-7 -107 -10 -35 -3 -89 -7 -120 -10 -32 -3 -87 -7 -123 -10 -36 -3 -81 -7
-100 -10 -19 -2 -71 -7 -115 -10 -43 -3 -93 -8 -110 -10 -16 -2 -61 -7 -100
-10 -38 -3 -88 -8 -110 -10 -22 -2 -69 -7 -105 -10 -36 -3 -83 -8 -105 -10
-22 -3 -67 -7 -100 -10 -33 -3 -76 -7 -95 -10 -19 -3 -60 -7 -90 -9 -30 -3
-73 -7 -95 -10 -22 -3 -69 -8 -105 -11 -36 -3 -72 -8 -80 -10 -8 -2 -46 -6
-85 -10 -38 -3 -86 -8 -105 -10 -19 -2 -60 -7 -90 -10 -60 -6 -57 -6 -295 -35
-44 -5 -105 -12 -135 -15 -30 -3 -66 -7 -80 -10 -14 -2 -50 -7 -80 -10 -94
-10 -131 -15 -240 -30 -14 -2 -50 -7 -80 -10 -30 -3 -66 -8 -80 -10 -14 -2
-50 -7 -80 -10 -30 -4 -63 -9 -73 -11 -10 -2 -46 -6 -80 -9 -34 -4 -64 -8 -67
-10 -3 -1 -30 -6 -61 -9 -31 -4 -65 -8 -75 -10 -11 -2 -44 -7 -75 -10 -31 -4
-65 -8 -75 -10 -16 -3 -95 -15 -144 -21 -8 -1 -42 -6 -75 -9 -33 -4 -67 -9
-75 -11 -8 -2 -37 -7 -65 -11 -27 -3 -57 -7 -65 -9 -36 -6 -130 -20 -200 -30
-25 -3 -70 -10 -100 -15 -30 -5 -73 -12 -95 -15 -23 -3 -52 -7 -65 -10 -13 -3
-42 -7 -65 -10 -22 -3 -51 -8 -65 -10 -14 -3 -38 -7 -55 -9 -131 -22 -223 -37
-240 -40 -17 -3 -88 -14 -135 -21 -25 -4 -144 -25 -166 -29 -12 -2 -39 -7 -60
-11 -47 -7 -50 -7 -234 -40 -80 -14 -160 -28 -179 -31 -18 -3 -43 -8 -55 -10
-11 -3 -34 -7 -49 -9 -15 -2 -54 -9 -85 -15 -31 -6 -70 -14 -87 -16 -16 -3
-61 -11 -100 -19 -96 -19 -124 -24 -165 -31 -19 -3 -43 -7 -52 -10 -10 -3 -30
-7 -45 -10 -50 -8 -145 -27 -223 -43 -43 -9 -186 -37 -240 -47 -14 -3 -32 -7
-40 -9 -8 -2 -30 -7 -48 -10 -45 -8 -674 -142 -747 -160 -33 -8 -71 -16 -85
-19 -14 -3 -34 -7 -45 -10 -11 -3 -63 -14 -115 -26 -52 -11 -142 -32 -200 -46
-58 -14 -116 -28 -130 -30 -53 -11 -718 -176 -955 -239 -570 -150 -1131 -311
-1645 -471 -271 -85 -1074 -355 -1086 -365 -9 -7 -12 -343 -12 -1254 l0 -1245
8979 0 8979 0 1 68 c0 37 1 1168 2 2514 2 2296 1 2447 -15 2451 -17 5 -1825 6
-1830 2z"/>
</g>
</svg>
