<?xml version="1.0" standalone="no"?>
<!DOCTYPE svg PUBLIC "-//W3C//DTD SVG 20010904//EN"
 "http://www.w3.org/TR/2001/REC-SVG-20010904/DTD/svg10.dtd">
<svg version="1.0" xmlns="http://www.w3.org/2000/svg"
 width="260.000000pt" height="260.000000pt" viewBox="0 0 260.000000 260.000000"
 preserveAspectRatio="xMidYMid meet">
<metadata>
Created by potrace 1.11, written by Peter Selinger 2001-2013
</metadata>
<g transform="translate(0.000000,260.000000) scale(0.100000,-0.100000)"
fill="#000000" stroke="none">
<path d="M0 1300 l0 -1300 1300 0 1300 0 0 1300 0 1300 -1300 0 -1300 0 0
-1300z m1005 140 l213 -535 -111 -3 c-61 -1 -116 -1 -121 1 -6 3 -31 59 -56
126 l-44 121 -212 0 -212 0 -28 -77 c-15 -43 -35 -98 -43 -123 l-17 -45 -118
-3 c-110 -2 -118 -1 -112 15 4 10 98 253 209 541 l202 522 119 -2 119 -3 212
-535z m742 188 c50 -191 93 -353 95 -359 2 -7 47 150 99 349 l94 362 168 0
167 0 0 -540 0 -540 -105 0 -105 0 -1 408 -1 407 -102 -405 -102 -405 -109 0
-109 0 -102 405 -102 405 -1 -407 -1 -408 -105 0 -105 0 0 540 0 540 168 -2
167 -3 92 -347z"/>
<path d="M601 1527 c-35 -94 -66 -178 -68 -184 -4 -10 27 -13 136 -13 78 0
141 3 141 7 0 13 -135 363 -140 363 -3 0 -34 -78 -69 -173z"/>
</g>
</svg>
