<?xml version="1.0" encoding="UTF-8" standalone="no"?>
<!-- Generator: Adobe Illustrator 19.1.0, SVG Export Plug-In . SVG Version: 6.00 Build 0)  -->
<svg id="artwork" style="enable-background:new 563.7 148.6 657.2 575.8" xmlns="http://www.w3.org/2000/svg" xml:space="preserve" height="575.8px" viewBox="563.7 148.6 657.2 575.8" width="657.2px" version="1.1" y="0px" x="0px" xmlns:xlink="http://www.w3.org/1999/xlink">
<style type="text/css">
	.st0{fill:#000020;}
	.st1{fill:#E95420;}
	.st2{fill:#FFFFFF;}
</style>
		<path class="st0" d="m598.4 669.4c8.2 0 14.3-1.1 18.2-3.2 4-2.2 5.9-5.6 5.9-10.4 0-4.9-1.9-8.8-5.8-11.7s-10.3-6.1-19.2-9.7c-4.3-1.7-8.5-3.5-12.4-5.3-4-1.8-7.4-3.9-10.3-6.4-2.9-2.4-5.2-5.4-6.9-8.8-1.7-3.5-2.6-7.7-2.6-12.7 0-9.9 3.7-17.8 11-23.6s17.3-8.7 30-8.7c3.2 0 6.3 0.2 9.5 0.5 3.2 0.4 6.1 0.8 8.9 1.3 2.7 0.5 5.1 1 7.2 1.6s3.7 1.1 4.9 1.5l-3.7 17.3c-2.2-1.2-5.5-2.3-10.1-3.6-4.6-1.2-10.1-1.8-16.6-1.8-5.6 0-10.5 1.1-14.7 3.3s-6.3 5.7-6.3 10.5c0 2.4 0.5 4.6 1.4 6.5s2.4 3.6 4.3 5.1 4.3 2.9 7.2 4.2 6.3 2.7 10.4 4.1c5.3 2 10.1 4 14.2 5.9 4.2 1.9 7.7 4.2 10.7 6.8 2.9 2.6 5.2 5.7 6.8 9.4s2.4 8.2 2.4 13.5c0 10.4-3.9 18.2-11.5 23.5-7.7 5.3-18.7 8-32.9 8-9.9 0-17.7-0.8-23.3-2.5s-9.4-2.9-11.4-3.8l3.7-17.3c2.3 0.9 6 2.2 11 3.9 5 1.8 11.7 2.6 20 2.6z"/>
		<path class="st0" d="m664.2 574.9c4.6-1.1 10.7-2.4 18.3-3.7s16.4-1.9 26.3-1.9c8.9 0 16.3 1.3 22.2 3.8s10.6 6 14.1 10.6c3.5 4.5 6 10 7.4 16.3s2.2 13.3 2.2 20.9v63h-20.1v-58.7c0-6.9-0.5-12.8-1.4-17.7s-2.5-8.8-4.6-11.9c-2.2-3-5-5.2-8.6-6.6s-8.1-2.1-13.4-2.1c-2.2 0-4.4 0.1-6.7 0.2s-4.5 0.3-6.6 0.5-4 0.5-5.6 0.8c-1.7 0.3-2.8 0.5-3.6 0.6v94.8h-20.1l0.2-108.9z"/>
		<path class="st0" d="m820.1 568.8c8.1 0 14.9 1 20.4 3.1s10 5 13.4 8.8 5.8 8.3 7.2 13.6 2.2 11 2.2 17.4v70.1c-1.7 0.3-4.1 0.7-7.2 1.2s-6.6 1-10.5 1.4-8.1 0.8-12.6 1.2-9 0.5-13.5 0.5c-6.3 0-12.2-0.6-17.5-1.9s-9.9-3.3-13.8-6.2c-3.9-2.8-6.9-6.5-9.1-11.1s-3.2-10.1-3.2-16.6c0-6.2 1.3-11.5 3.8-16s5.9-8.1 10.3-10.8c4.3-2.7 9.4-4.7 15.1-6 5.8-1.3 11.8-1.9 18.1-1.9 2 0 4.1 0.1 6.3 0.3s4.2 0.5 6.2 0.9c1.9 0.4 3.6 0.7 5.1 1 1.4 0.3 2.4 0.5 3 0.6v-5.6c0-3.3-0.4-6.6-1.1-9.8s-2-6.1-3.9-8.6-4.4-4.5-7.7-6c-3.2-1.5-7.4-2.3-12.6-2.3-6.6 0-12.4 0.5-17.4 1.4s-8.7 1.9-11.1 2.9l-2.4-16.6c2.6-1.2 6.9-2.3 13-3.3 5.9-1.1 12.4-1.7 19.5-1.7zm1.7 100.6c4.7 0 9-0.1 12.6-0.3 3.7-0.2 6.7-0.6 9.2-1.2v-33.5c-1.4-0.7-3.8-1.3-7-1.8s-7.2-0.8-11.8-0.8c-3 0-6.2 0.2-9.6 0.6s-6.5 1.3-9.3 2.7-5.1 3.2-7 5.6-2.8 5.5-2.8 9.4c0 7.2 2.3 12.2 6.9 15 4.6 2.9 10.9 4.3 18.8 4.3z"/>
		<path class="st0" d="m991 628c0 8.5-1.1 16.3-3.3 23.5s-5.5 13.4-9.8 18.6-9.6 9.2-15.9 12.1-13.4 4.3-21.5 4.3c-6.5 0-12.2-0.9-17.2-2.6s-8.7-3.4-11.1-5v44.9h-20.1v-148.7c4.7-1.2 10.7-2.4 17.8-3.8s15.4-2.1 24.7-2.1c8.6 0 16.4 1.4 23.3 4.1s12.8 6.6 17.7 11.7c4.9 5 8.7 11.2 11.3 18.5 2.8 7.3 4.1 15.4 4.1 24.5zm-20.9 0c0-13.1-3.2-23.2-9.7-30.2s-15.1-10.6-25.9-10.6c-6 0-10.8 0.2-14.1 0.6s-6.1 0.9-8.1 1.5v70.8c2.4 2 6 4 10.6 5.8 4.6 1.9 9.6 2.8 15.1 2.8 5.8 0 10.7-1 14.8-3.1s7.4-5 10-8.6c2.6-3.7 4.5-8 5.6-13 1.1-4.9 1.7-10.3 1.7-16z"/>
		<path class="st0" d="m1113.8 628c0 8.5-1.1 16.3-3.3 23.5s-5.5 13.4-9.8 18.6-9.6 9.2-15.9 12.1-13.4 4.3-21.5 4.3c-6.5 0-12.2-0.9-17.2-2.6s-8.7-3.4-11.1-5v44.9h-20v-148.7c4.7-1.2 10.7-2.4 17.8-3.8s15.4-2.1 24.7-2.1c8.6 0 16.4 1.4 23.3 4.1s12.8 6.6 17.7 11.7c4.9 5 8.7 11.2 11.3 18.5 2.7 7.3 4 15.4 4 24.5zm-20.9 0c0-13.1-3.2-23.2-9.7-30.2s-15.1-10.6-25.9-10.6c-6 0-10.8 0.2-14.1 0.6-3.4 0.4-6.1 0.9-8.1 1.5v70.8c2.4 2 6 4 10.6 5.8 4.6 1.9 9.6 2.8 15.1 2.8 5.8 0 10.7-1 14.8-3.1s7.4-5 10-8.6c2.6-3.7 4.5-8 5.6-13 1.1-4.9 1.7-10.3 1.7-16z"/>
		<path class="st0" d="m1121.6 704.8c1.6 0.7 3.6 1.4 6.2 2.1 2.5 0.6 5 1 7.4 1 7.9 0 14.1-1.8 18.6-5.3s8.5-9.2 12.1-17.2c-9.1-17.3-17.5-35.6-25.4-54.9-7.8-19.4-14.4-39-19.5-58.8h21.6c1.6 6.5 3.5 13.5 5.7 20.9 2.2 7.5 4.7 15.2 7.4 23.1s5.7 15.8 8.8 23.7c3.2 7.9 6.5 15.5 9.9 22.9 5.5-15.1 10.2-30.1 14.2-44.9s7.8-30.1 11.4-45.8h20.7c-5.2 21.2-10.9 41.5-17.3 61-6.3 19.5-13.2 37.7-20.5 54.7-2.9 6.5-5.9 12-9 16.7s-6.5 8.5-10.3 11.5c-3.7 3-8 5.3-12.6 6.7-4.7 1.4-10 2.2-15.9 2.2-1.6 0-3.2-0.1-5-0.3-1.7-0.2-3.4-0.5-5.1-0.9s-3.2-0.8-4.5-1.2c-1.4-0.4-2.3-0.8-2.9-1.1l4-16.1z"/>
		<circle cy="318.7" cx="892.3" r="170.1" class="st1"/>
			<polygon points="914.4 264.8 896.1 273.9 914.4 283.1" class="st2"/>
			<path class="st2" d="m914.4 260.9v-10.9c0-0.2 0-0.3 0.1-0.4 0 0 0-0.1 0.1-0.1 0-0.1 0.1-0.2 0.1-0.3s0.1-0.1 0.1-0.1l0.2-0.2 0.1-0.1 0.1-0.1h0.1 0.1l8.9-4.4-31.9-16-43.8 21.9 43.8 21.9 22-11.2z"/>
			<polygon points="798.7 368.1 843 390.2 843 346.4 798.7 324.3" class="st2"/>
			<polygon points="840.8 297.7 798.7 276.7 798.7 318.8 798.7 320.5 798.9 320.6 800.8 321.5 843 342.6 843 300.5 843 298.8 842.8 298.7" class="st2"/>
			<polygon points="888.5 273.9 867.7 263.5 859.8 259.6 844.7 252 844.7 252 843 252.8 800.8 273.9 842.5 294.8 843 295 844.7 295.8 846.4 295" class="st2"/>
			<polygon points="941.6 390.2 985.8 368.1 985.8 324.3 941.6 346.4" class="st2"/>
			<path class="st2" d="m963.7 323.2c-0.1 0-0.3 0-0.4-0.1h-0.1c-0.1 0-0.1 0-0.2-0.1l-21.3-10.7v30.2l42.1-21.1-8.1-4.1-11.1 5.6c-0.1 0-0.1 0-0.2 0.1h-0.1c-0.3 0.2-0.5 0.2-0.6 0.2z"/>
			<polygon points="894.2 370.1 894 370.2 894 371.9 894 414 936.1 393 938 392 938.2 391.9 938.2 390.2 938.2 348.1 896.1 369.1" class="st2"/>
			<polygon points="888.5 369.1 846.4 348.1 846.4 390.2 846.4 391.9 846.6 392 848.5 393 890.6 414 890.6 371.9 890.6 370.2 890.4 370.1" class="st2"/>
			<polygon points="965.4 275 965.4 308.6 965.4 310.5 965.4 312.4 965.4 318.8 971.8 315.6 973.7 314.6 975.6 313.7 1009.6 296.7 1009.6 252.8" class="st2"/>
			<path class="st2" d="m941.6 298.6v10l20.4 10.2v-43.8l-20.4-10.2-1.7-0.9-1.7-0.9-10.2-5.1-1.9-1-1.9-1-6.4-3.2v31.9l20.4 10.2 1.7 0.9 0.8 0.4h0.1 0.1c0.1 0 0.1 0.1 0.1 0.1 0.1 0 0.1 0.1 0.1 0.1l0.2 0.2 0.1 0.1c0.1 0.1 0.1 0.2 0.1 0.3 0 0 0 0.1 0.1 0.1 0 0.1 0.1 0.3 0.1 0.5l-0.1 1.1z"/>
			<polygon points="928 254.1 929.9 255.1 931.8 256 938.2 259.2 939.9 260.1 941.6 260.9 963.7 272 1007.5 250.1 963.7 228.2 931.8 244.1 929.9 245.1 928 246 919.9 250.1" class="st2"/>
			<polygon points="929.9 304.6 928 305.6 896.1 321.5 894.2 322.5 894.2 322.5 894 322.6 894 322.6 894 324.3 894 324.3 894 356 894 366.4 936.1 345.3 938 344.4 938.2 344.3 938.2 342.6 938.2 310.7 938.2 308.8 938.2 306.9 938.2 300.5 931.8 303.7" class="st2"/>
			<polygon points="890.4 322.5 888.5 321.5 888.5 321.5 867.7 311.1 846.4 300.5 846.4 342.6 846.4 342.6 846.4 344.3 846.4 344.3 846.6 344.4 846.6 344.4 848.5 345.3 868.5 355.3 890.6 366.4 890.6 324.3 890.6 324.3 890.6 322.6" class="st2"/>
			<polygon points="924.2 303.7 926.1 302.7 928 301.8 936.1 297.7 936.1 297.7 917.8 288.6 916.1 287.7 914.4 286.9 894 276.7 894 276.7 892.3 275.8 892.3 275.8 890.6 276.7 848.5 297.7 848.5 297.7 848.5 297.7 868.5 307.7 890.6 318.8 892.3 319.6 894 318.8" class="st2"/>
</svg>
