<?xml version="1.0" standalone="no"?>
<!DOCTYPE svg PUBLIC "-//W3C//DTD SVG 20010904//EN"
 "http://www.w3.org/TR/2001/REC-SVG-20010904/DTD/svg10.dtd">
<svg version="1.0" xmlns="http://www.w3.org/2000/svg"
 width="376.000000pt" height="253.000000pt" viewBox="0 0 376.000000 253.000000"
 preserveAspectRatio="xMidYMid meet">

<g transform="translate(0.000000,253.000000) scale(0.100000,-0.100000)"
fill="#000000" stroke="none">
<path d="M10 1260 l0 -1260 1875 0 1875 0 0 1260 0 1260 -1875 0 -1875 0 0
-1260z m1610 553 c0 -5 -74 -231 -163 -503 l-163 -495 -148 0 -148 0 -133 390
c-73 215 -135 400 -139 413 l-8 23 148 -3 147 -3 63 -184 c35 -101 64 -185 66
-187 2 -2 44 123 93 276 l90 280 148 0 c81 0 147 -3 147 -7z m760 -118 l0
-125 -100 0 -100 0 0 -380 0 -380 -145 0 -145 0 0 380 0 380 -135 0 c-99 0
-135 3 -135 12 0 7 17 63 37 125 l37 113 343 0 343 0 0 -125z m750 0 l0 -125
-95 0 -95 0 0 -380 0 -380 -145 0 -145 0 0 380 0 380 -105 0 -105 0 0 125 0
125 345 0 345 0 0 -125z"/>
</g>
</svg>
