<?xml version="1.0" encoding="utf-8"?>
<!-- Generator: Adobe Illustrator 19.0.0, SVG Export Plug-In . SVG Version: 6.00 Build 0)  -->
<svg version="1.1" id="Layer_1" xmlns="http://www.w3.org/2000/svg" xmlns:xlink="http://www.w3.org/1999/xlink" x="0px" y="0px"
	 viewBox="0 0 162.1 205.6" enable-background="new 0 0 162.1 205.6" xml:space="preserve">
<g>
	<g>
		<defs>
			<polygon id="SVGID_1_" points="0,0 162.1,0 162.1,205.6 0,205.6 0,0 			"/>
		</defs>
		<clipPath id="SVGID_2_">
			<use xlink:href="#SVGID_1_"  overflow="visible"/>
		</clipPath>
		<g clip-path="url(#SVGID_2_)">
			<text transform="matrix(1 0 0 1 47.999 22.9238)" font-family="'Calibri'" font-size="18.0004px">*</text>
		</g>
	</g>
	<g>
		<defs>
			<polygon id="SVGID_3_" points="0,0 162.1,0 162.1,205.6 0,205.6 0,0 			"/>
		</defs>
		<clipPath id="SVGID_4_">
			<use xlink:href="#SVGID_3_"  overflow="visible"/>
		</clipPath>
		<g clip-path="url(#SVGID_4_)">
			<text transform="matrix(1 0 0 1 29.4521 56.9395)" font-family="'Calibri'" font-size="18.0004px">C</text>
		</g>
	</g>
	<g>
		<defs>
			<polygon id="SVGID_5_" points="0,0 162.1,0 162.1,205.6 0,205.6 0,0 			"/>
		</defs>
		<clipPath id="SVGID_6_">
			<use xlink:href="#SVGID_5_"  overflow="visible"/>
		</clipPath>
		<g clip-path="url(#SVGID_6_)">
			<text transform="matrix(1 0 0 1 23.6396 99.127)" font-family="'Calibri'" font-size="18.0004px">A</text>
		</g>
	</g>
	<g>
		<defs>
			<polygon id="SVGID_7_" points="0,0 162.1,0 162.1,205.6 0,205.6 0,0 			"/>
		</defs>
		<clipPath id="SVGID_8_">
			<use xlink:href="#SVGID_7_"  overflow="visible"/>
		</clipPath>
		<g clip-path="url(#SVGID_8_)">
			<text transform="matrix(1 0 0 1 17.1553 141.3145)" font-family="'Calibri'" font-size="18.0004px">T</text>
		</g>
	</g>
	<g>
		<defs>
			<polygon id="SVGID_9_" points="0,0 162.1,0 162.1,205.6 0,205.6 0,0 			"/>
		</defs>
		<clipPath id="SVGID_10_">
			<use xlink:href="#SVGID_9_"  overflow="visible"/>
		</clipPath>
		<g clip-path="url(#SVGID_10_)">
			<text transform="matrix(1 0 0 1 11.335 183.4238)" font-family="'Calibri'" font-size="18.0004px">*</text>
		</g>
	</g>
	
		<line fill="none" stroke="#000000" stroke-width="0.48" stroke-linecap="square" stroke-miterlimit="10" x1="40.7" y1="17" x2="34.6" y2="36.5"/>
	
		<line fill="none" stroke="#000000" stroke-width="0.48" stroke-linecap="square" stroke-miterlimit="10" x1="34.6" y1="65.6" x2="28.8" y2="78.7"/>
	
		<line fill="none" stroke="#000000" stroke-width="0.48" stroke-linecap="square" stroke-miterlimit="10" x1="28.7" y1="107.8" x2="22.3" y2="120.8"/>
	
		<line fill="none" stroke="#000000" stroke-width="0.48" stroke-linecap="square" stroke-miterlimit="10" x1="22.3" y1="149.9" x2="16.4" y2="163"/>
	<g>
		<defs>
			<polygon id="SVGID_11_" points="0,0 162.1,0 162.1,205.6 0,205.6 0,0 			"/>
		</defs>
		<clipPath id="SVGID_12_">
			<use xlink:href="#SVGID_11_"  overflow="visible"/>
		</clipPath>
		<g clip-path="url(#SVGID_12_)">
			<text transform="matrix(1 0 0 1 91.2568 56.9395)" font-family="'Calibri'" font-size="18.0004px">S</text>
		</g>
	</g>
	<g>
		<defs>
			<polygon id="SVGID_13_" points="0,0 162.1,0 162.1,205.6 0,205.6 0,0 			"/>
		</defs>
		<clipPath id="SVGID_14_">
			<use xlink:href="#SVGID_13_"  overflow="visible"/>
		</clipPath>
		<g clip-path="url(#SVGID_14_)">
			<text transform="matrix(1 0 0 1 110.2178 97.8066)" font-family="'Calibri'" font-size="18.0004px">E</text>
		</g>
	</g>
	<g>
		<defs>
			<polygon id="SVGID_15_" points="0,0 162.1,0 162.1,205.6 0,205.6 0,0 			"/>
		</defs>
		<clipPath id="SVGID_16_">
			<use xlink:href="#SVGID_15_"  overflow="visible"/>
		</clipPath>
		<g clip-path="url(#SVGID_16_)">
			<text transform="matrix(1 0 0 1 67.7334 142.0879)" font-family="'Calibri'" font-size="18.0004px">P</text>
		</g>
	</g>
	<g>
		<defs>
			<polygon id="SVGID_17_" points="0,0 162.1,0 162.1,205.6 0,205.6 0,0 			"/>
		</defs>
		<clipPath id="SVGID_18_">
			<use xlink:href="#SVGID_17_"  overflow="visible"/>
		</clipPath>
		<g clip-path="url(#SVGID_18_)">
			<text transform="matrix(1 0 0 1 92.3975 189.4863)" font-family="'Calibri'" font-size="18.0004px">*</text>
		</g>
	</g>
	
		<line fill="none" stroke="#000000" stroke-width="0.48" stroke-linecap="square" stroke-miterlimit="10" x1="96.4" y1="65.6" x2="108.7" y2="82.3"/>
	
		<line fill="none" stroke="#000000" stroke-width="0.48" stroke-linecap="square" stroke-miterlimit="10" x1="28.8" y1="107.8" x2="60.5" y2="136.2"/>
	
		<line fill="none" stroke="#000000" stroke-width="0.48" stroke-linecap="square" stroke-miterlimit="10" x1="72.9" y1="150.7" x2="88" y2="172.4"/>
	
		<line fill="none" stroke="#000000" stroke-width="0.48" stroke-linecap="square" stroke-miterlimit="10" x1="65.4" y1="17" x2="85.1" y2="41.3"/>
	<g>
		<defs>
			<polygon id="SVGID_19_" points="0,0 162.1,0 162.1,205.6 0,205.6 0,0 			"/>
		</defs>
		<clipPath id="SVGID_20_">
			<use xlink:href="#SVGID_19_"  overflow="visible"/>
		</clipPath>
		<g clip-path="url(#SVGID_20_)">
			<text transform="matrix(1 0 0 1 129.3584 143.6504)" font-family="'Calibri'" font-size="18.0004px">A</text>
		</g>
	</g>
	
		<line fill="none" stroke="#000000" stroke-width="0.48" stroke-linecap="square" stroke-miterlimit="10" x1="115.4" y1="106.4" x2="127.7" y2="129.4"/>
	<g>
		<defs>
			<polygon id="SVGID_21_" points="0,0 162.1,0 162.1,205.6 0,205.6 0,0 			"/>
		</defs>
		<clipPath id="SVGID_22_">
			<use xlink:href="#SVGID_21_"  overflow="visible"/>
		</clipPath>
		<g clip-path="url(#SVGID_22_)">
			<text transform="matrix(1 0 0 1 141.7178 189.4863)" font-family="'Calibri'" font-size="18.0004px">*</text>
		</g>
	</g>
	
		<line fill="none" stroke="#000000" stroke-width="0.48" stroke-linecap="square" stroke-miterlimit="10" x1="134.5" y1="152.3" x2="146.8" y2="169"/>
</g>
</svg>
