<?xml version="1.0" standalone="no"?>
<!DOCTYPE svg PUBLIC "-//W3C//DTD SVG 20010904//EN"
 "http://www.w3.org/TR/2001/REC-SVG-20010904/DTD/svg10.dtd">
<svg version="1.0" xmlns="http://www.w3.org/2000/svg"
 width="512.000000pt" height="512.000000pt" viewBox="0 0 512.000000 512.000000"
 preserveAspectRatio="xMidYMid meet">
<metadata>
Created by potrace 1.14, written by Peter Selinger 2001-2017
</metadata>
<g transform="translate(0.000000,512.000000) scale(0.100000,-0.100000)"
fill="#000000" stroke="none">
<path d="M1625 5106 c-62 -20 -98 -41 -138 -82 -45 -46 -67 -92 -82 -164 -11
-54 -12 -54 -51 -56 -338 -15 -427 -34 -561 -120 -195 -124 -309 -323 -327
-569 -4 -44 -9 -107 -12 -141 l-6 -61 -62 -2 c-123 -3 -229 -59 -294 -155 -62
-93 -92 -251 -87 -466 4 -152 7 -177 31 -274 21 -82 47 -129 98 -180 56 -55
123 -86 213 -99 l73 -11 1 -35 c0 -20 2 -65 4 -101 2 -36 6 -135 9 -220 4 -85
9 -186 11 -225 3 -38 7 -100 10 -137 13 -179 18 -218 36 -287 54 -202 185
-360 372 -450 97 -47 192 -68 342 -76 61 -3 146 -7 190 -10 120 -8 256 -13
505 -21 124 -3 240 -7 259 -8 l33 -1 2 -118 2 -117 -31 -1 c-16 0 -59 -2 -95
-4 -36 -2 -119 -6 -185 -10 -66 -3 -133 -8 -150 -10 -16 -2 -64 -6 -105 -10
-180 -14 -247 -33 -357 -101 -93 -58 -174 -148 -224 -249 -49 -100 -66 -181
-74 -365 -4 -80 -8 -149 -9 -155 -1 -7 536 -10 1593 -10 l1593 0 -7 135 c-3
74 -8 150 -11 167 -2 18 -6 48 -9 67 -21 153 -147 334 -291 418 -73 43 -168
74 -249 83 -33 3 -78 8 -100 10 -77 8 -275 21 -470 30 -44 2 -83 4 -86 4 -3 1
-5 54 -5 119 l2 117 50 1 c371 9 940 35 1054 50 283 35 500 213 589 483 24 75
34 153 46 361 4 63 9 131 10 150 3 31 12 237 19 447 1 40 4 74 7 76 2 2 37 8
76 14 90 14 151 43 208 99 96 94 130 227 129 499 -1 246 -46 401 -142 485 -71
63 -138 88 -238 91 -51 2 -64 5 -65 18 0 9 -2 24 -4 33 -2 9 -6 57 -9 105 -11
167 -32 249 -87 352 -91 170 -236 287 -424 345 -67 20 -157 30 -362 40 -29 1
-56 5 -59 9 -4 3 -8 23 -11 44 -10 98 -97 204 -197 242 -168 63 -367 -52 -400
-231 l-7 -36 -121 2 -122 1 -6 30 c-19 90 -81 172 -163 216 -149 79 -330 21
-406 -133 -17 -33 -31 -72 -31 -85 0 -12 -3 -23 -7 -24 -5 0 -61 -3 -125 -5
l-118 -4 -5 27 c-23 104 -83 186 -168 227 -63 31 -156 41 -212 22z"/>
</g>
</svg>
