<?xml version="1.0" standalone="no"?>
<!DOCTYPE svg PUBLIC "-//W3C//DTD SVG 20010904//EN"
 "http://www.w3.org/TR/2001/REC-SVG-20010904/DTD/svg10.dtd">
<svg version="1.0" xmlns="http://www.w3.org/2000/svg"
 width="460.000000pt" height="460.000000pt" viewBox="0 0 460.000000 460.000000"
 preserveAspectRatio="xMidYMid meet">
<metadata>
Created by potrace 1.14, written by Peter Selinger 2001-2017
</metadata>
<g transform="translate(0.000000,460.000000) scale(0.100000,-0.100000)"
fill="#000000" stroke="none">
<path d="M2691 2834 c-25 -18 -51 -71 -51 -104 0 -11 10 -41 22 -66 37 -80
134 -106 187 -50 52 55 49 137 -9 197 -32 34 -43 39 -81 39 -25 0 -55 -7 -68
-16z"/>
<path d="M1988 2758 c-75 -44 -78 -160 -4 -227 35 -33 111 -36 142 -6 66 63
56 178 -20 224 -50 31 -77 33 -118 9z"/>
<path d="M2403 2617 c-51 -28 -92 -112 -72 -148 14 -27 51 -24 79 6 27 29 58
32 101 10 36 -19 66 -7 75 30 18 72 -110 143 -183 102z"/>
<path d="M2120 2203 c-19 -2 -80 -10 -135 -19 -55 -8 -134 -19 -175 -24 -41
-6 -104 -18 -139 -26 -156 -38 -568 -111 -641 -114 -74 -3 -86 -1 -110 20 -13
11 -30 20 -39 20 -9 0 -38 15 -64 34 -43 30 -52 33 -78 24 -44 -15 -79 -63
-79 -108 0 -30 6 -43 31 -64 17 -14 37 -26 45 -26 11 0 12 -4 4 -19 -18 -35
-11 -68 21 -95 46 -39 85 -45 142 -21 17 7 18 4 10 -31 -16 -76 -9 -175 15
-230 20 -44 31 -55 75 -77 86 -42 182 -44 402 -8 28 5 86 14 130 20 44 7 134
22 200 35 102 20 317 60 460 85 l40 7 -105 50 c-58 28 -139 66 -180 84 -41 18
-109 48 -150 67 l-75 35 -34 -19 c-46 -24 -169 -24 -229 0 -34 14 -46 15 -62
5 -29 -19 -38 1 -10 22 14 11 28 20 31 20 4 0 60 25 125 56 150 71 254 119
324 151 204 92 326 153 304 151 -10 0 -35 -3 -54 -5z"/>
<path d="M3488 2000 c-23 -41 -75 -70 -124 -70 -38 0 -41 -2 -68 -52 -28 -52
-73 -124 -126 -203 -15 -22 -30 -46 -35 -54 -6 -11 30 -13 231 -8 132 3 260
11 287 17 82 20 117 93 119 250 1 99 -5 119 -37 112 -14 -2 -36 3 -51 13 -22
14 -28 15 -42 2 -36 -31 -100 -27 -126 8 -9 12 -14 10 -28 -15z"/>
</g>
</svg>
