<?xml version="1.0" standalone="no"?>
<!DOCTYPE svg PUBLIC "-//W3C//DTD SVG 20010904//EN"
 "http://www.w3.org/TR/2001/REC-SVG-20010904/DTD/svg10.dtd">
<svg version="1.0" xmlns="http://www.w3.org/2000/svg"
 width="1024.000000pt" height="1024.000000pt" viewBox="0 0 1024.000000 1024.000000"
 preserveAspectRatio="xMidYMid meet">
<metadata>
Created by potrace 1.14, written by Peter Selinger 2001-2017
</metadata>
<g transform="translate(0.000000,1024.000000) scale(0.100000,-0.100000)"
fill="#000000" stroke="none">
<path d="M5042 8906 l-37 -34 -3 -171 c-4 -184 4 -223 52 -255 58 -37 142 -20
176 37 18 28 20 51 20 195 0 182 -8 215 -59 245 -16 9 -48 17 -70 17 -33 0
-49 -7 -79 -34z"/>
<path d="M3434 8493 c-37 -7 -76 -57 -81 -105 -4 -39 3 -55 78 -187 88 -154
115 -181 179 -181 101 1 150 104 97 202 -71 130 -138 235 -159 251 -26 19 -76
28 -114 20z"/>
<path d="M6714 8481 c-28 -17 -145 -200 -181 -285 -41 -94 24 -185 124 -173
30 3 53 13 68 28 22 23 118 183 157 261 33 67 19 125 -41 165 -41 28 -86 29
-127 4z"/>
<path d="M4915 7953 c-33 -3 -112 -15 -265 -38 -97 -15 -390 -106 -490 -152
-208 -95 -418 -220 -542 -321 -422 -344 -699 -754 -841 -1248 -19 -66 -38
-137 -42 -159 -4 -22 -9 -51 -11 -65 -3 -14 -7 -32 -9 -40 -2 -8 -7 -42 -11
-75 -3 -33 -8 -69 -11 -80 -9 -39 -11 -391 -3 -455 5 -36 11 -87 15 -115 14
-111 95 -381 138 -460 6 -11 12 -22 12 -25 0 -3 24 -49 54 -104 120 -223 278
-427 601 -776 340 -369 473 -529 602 -725 72 -110 143 -232 153 -265 4 -11 7
-180 8 -376 0 -306 3 -367 19 -441 49 -225 184 -421 373 -544 52 -33 161 -84
211 -98 26 -8 46 -22 59 -43 57 -89 252 -107 352 -32 17 13 34 32 38 43 4 12
29 26 73 41 261 88 469 305 546 571 27 93 28 110 31 496 l3 372 47 88 c91 167
249 391 391 553 97 110 147 166 238 264 56 60 109 118 119 130 10 11 51 57 91
101 122 134 141 157 215 250 74 93 235 327 248 361 4 10 21 44 38 74 88 157
167 413 194 630 10 77 7 448 -4 510 -3 19 -10 67 -16 105 -6 39 -13 78 -15 88
-2 9 -6 27 -9 40 -20 94 -32 138 -72 257 -25 74 -54 155 -65 180 -92 205 -182
360 -296 511 -338 448 -797 757 -1336 899 -113 29 -132 33 -246 50 -36 6 -78
13 -95 16 -36 6 -434 12 -490 7z"/>
<path d="M2197 7269 c-54 -42 -70 -118 -34 -172 21 -33 272 -178 319 -184 82
-12 145 50 135 133 -5 48 -29 81 -75 105 -15 8 -72 41 -127 73 -117 69 -172
81 -218 45z"/>
<path d="M7930 7277 c-14 -7 -59 -33 -100 -57 -41 -24 -93 -54 -116 -66 -55
-32 -74 -55 -81 -97 -7 -48 2 -81 32 -112 14 -13 37 -28 51 -31 56 -14 91 1
322 140 77 47 93 140 34 199 -35 35 -102 46 -142 24z"/>
</g>
</svg>
