<?xml version="1.0" standalone="no"?>
<!DOCTYPE svg PUBLIC "-//W3C//DTD SVG 20010904//EN"
 "http://www.w3.org/TR/2001/REC-SVG-20010904/DTD/svg10.dtd">
<svg version="1.0" xmlns="http://www.w3.org/2000/svg"
 width="500.000000pt" height="500.000000pt" viewBox="0 0 500.000000 500.000000"
 preserveAspectRatio="xMidYMid meet">
<metadata>
Created by potrace 1.14, written by Peter Selinger 2001-2017
</metadata>
<g transform="translate(0.000000,500.000000) scale(0.100000,-0.100000)"
fill="#000000" stroke="none">
<path d="M2443 4352 c-18 -9 -44 -33 -59 -52 -25 -34 -173 -323 -206 -405 -9
-22 -37 -85 -63 -140 -42 -89 -91 -202 -172 -390 -14 -33 -28 -63 -32 -66 -3
-4 -98 -10 -211 -13 -113 -4 -241 -9 -285 -11 -44 -3 -134 -7 -200 -10 -345
-15 -493 -29 -536 -51 -35 -18 -46 -33 -60 -85 -23 -87 -12 -100 666 -764
l219 -214 -58 -263 c-58 -264 -138 -683 -151 -791 -10 -75 8 -137 51 -181 59
-60 125 -59 274 3 89 38 397 186 677 327 l203 101 382 -192 c211 -105 434
-213 497 -239 100 -42 120 -48 162 -43 62 8 93 29 119 81 37 78 27 165 -90
766 -95 486 -91 431 -39 477 24 21 71 65 105 98 34 33 126 121 204 195 285
269 518 503 540 541 43 77 -4 175 -95 198 -62 16 -215 27 -490 36 -88 3 -189
7 -225 10 -36 2 -155 7 -265 11 -110 3 -202 8 -205 9 -3 2 -21 39 -39 82 -145
341 -369 815 -428 909 -48 75 -123 102 -190 66z"/>
</g>
</svg>
