<?xml version="1.0" standalone="no"?>
<!DOCTYPE svg PUBLIC "-//W3C//DTD SVG 20010904//EN"
 "http://www.w3.org/TR/2001/REC-SVG-20010904/DTD/svg10.dtd">
<svg version="1.0" xmlns="http://www.w3.org/2000/svg"
 width="300.000000pt" height="300.000000pt" viewBox="0 0 300.000000 300.000000"
 preserveAspectRatio="xMidYMid meet">
<metadata>
Created by potrace 1.14, written by Peter Selinger 2001-2017
</metadata>
<g transform="translate(0.000000,300.000000) scale(0.100000,-0.100000)"
fill="#000000" stroke="none">
<path d="M1347 2979 c-346 -40 -657 -189 -900 -433 -227 -228 -368 -513 -421
-848 -15 -100 -14 -318 3 -428 32 -209 118 -427 241 -610 27 -41 50 -81 50
-88 0 -6 4 -11 8 -10 4 2 30 -22 56 -52 218 -249 540 -429 868 -486 178 -31
436 -22 599 20 289 75 510 199 707 396 371 372 518 896 396 1410 -45 190 -128
362 -262 549 -29 41 -49 77 -45 80 5 3 14 24 22 46 8 22 16 46 19 53 5 14 -36
13 -114 -3 -25 -5 -38 1 -75 33 -183 158 -381 265 -609 329 -47 12 -105 26
-130 29 -25 3 -56 8 -70 10 -46 9 -275 11 -343 3z"/>
</g>
</svg>
