<?xml version="1.0" standalone="no"?>
<!DOCTYPE svg PUBLIC "-//W3C//DTD SVG 20010904//EN"
 "http://www.w3.org/TR/2001/REC-SVG-20010904/DTD/svg10.dtd">
<svg version="1.0" xmlns="http://www.w3.org/2000/svg"
 width="4106.000000pt" height="4106.000000pt" viewBox="0 0 4106.000000 4106.000000"
 preserveAspectRatio="xMidYMid meet">
<metadata>
Created by potrace 1.14, written by Peter Selinger 2001-2017
</metadata>
<g transform="translate(0.000000,4106.000000) scale(0.100000,-0.100000)"
fill="#000000" stroke="none">
<path d="M27459 39345 c-2 -1 -35 -6 -74 -10 -128 -12 -148 -14 -184 -20 -20
-3 -48 -8 -61 -10 -14 -3 -41 -7 -60 -10 -36 -5 -48 -7 -136 -25 -28 -6 -62
-13 -76 -15 -14 -3 -70 -17 -124 -31 -55 -14 -103 -27 -109 -28 -5 -2 -30 -9
-55 -16 -25 -7 -49 -14 -55 -15 -60 -13 -465 -169 -547 -211 -27 -13 -50 -24
-53 -24 -17 0 -374 -188 -465 -245 -19 -12 -78 -49 -130 -81 -227 -140 -574
-399 -750 -560 -19 -18 -64 -58 -100 -90 -150 -134 -411 -404 -611 -630 -52
-59 -234 -289 -304 -384 -38 -52 -72 -97 -75 -100 -6 -6 -30 -40 -91 -130 -24
-36 -47 -69 -51 -75 -16 -21 -127 -194 -190 -295 -135 -219 -227 -385 -362
-656 -88 -175 -101 -203 -164 -344 -43 -95 -142 -328 -142 -333 0 -3 -8 -22
-17 -43 -9 -22 -17 -42 -17 -46 -1 -3 -4 -10 -8 -14 -5 -4 -8 -14 -8 -22 0 -8
-6 -28 -14 -45 -14 -34 -47 -121 -64 -172 -6 -16 -13 -39 -18 -50 -4 -11 -8
-24 -9 -30 -2 -5 -21 -64 -43 -130 -35 -101 -115 -365 -127 -415 -2 -8 -15
-59 -30 -113 -15 -54 -28 -107 -31 -118 -9 -42 -13 -57 -29 -119 -9 -36 -19
-74 -20 -85 -2 -11 -6 -31 -9 -45 -13 -58 -17 -76 -22 -97 -2 -13 -6 -33 -8
-45 -3 -13 -7 -34 -10 -48 -9 -41 -15 -73 -21 -105 -3 -16 -7 -40 -9 -51 -2
-12 -7 -39 -11 -60 -6 -40 -9 -61 -25 -154 -21 -126 -22 -133 -35 -240 -3 -30
-8 -66 -10 -80 -5 -26 -14 -109 -20 -170 -1 -19 -6 -69 -10 -110 -25 -252 -30
-400 -30 -810 0 -361 4 -494 20 -675 4 -52 17 -183 20 -215 2 -14 6 -54 9 -90
4 -36 8 -72 11 -80 2 -8 7 -40 10 -70 10 -76 19 -139 30 -200 3 -19 8 -47 10
-62 18 -104 23 -133 30 -168 3 -14 8 -38 11 -55 2 -16 9 -46 14 -65 5 -19 11
-46 14 -60 2 -14 10 -47 16 -75 6 -27 14 -60 16 -72 2 -12 9 -34 14 -48 5 -14
8 -25 5 -25 -2 0 2 -18 10 -40 8 -22 14 -42 14 -45 1 -15 16 -71 43 -160 17
-55 32 -107 33 -115 2 -8 4 -15 5 -15 1 0 3 -7 5 -15 2 -8 22 -69 45 -135 23
-66 43 -127 45 -135 2 -8 18 -49 35 -90 17 -41 31 -77 32 -80 2 -13 20 -58 32
-80 8 -14 14 -28 15 -33 0 -4 9 -28 21 -53 11 -26 20 -48 20 -51 0 -25 256
-532 301 -595 11 -14 19 -29 19 -33 0 -11 85 -146 187 -298 90 -133 102 -150
131 -182 6 -7 12 -16 12 -20 0 -3 37 -52 82 -108 258 -322 526 -586 818 -805
63 -48 117 -90 118 -94 2 -5 7 -8 12 -8 7 0 126 -75 186 -118 5 -4 26 -16 45
-26 19 -10 66 -37 104 -59 90 -52 283 -145 405 -195 113 -46 133 -55 140 -57
3 0 63 -20 133 -43 112 -37 251 -76 310 -88 10 -2 26 -5 35 -8 23 -7 90 -20
180 -36 95 -16 150 -24 257 -36 205 -23 596 -23 800 0 96 11 143 17 170 22 53
9 79 13 125 19 25 3 61 10 80 15 19 5 46 11 60 14 14 2 48 10 75 16 28 6 59
13 70 16 57 11 316 91 437 135 310 112 635 267 898 429 8 5 47 28 85 52 156
96 466 318 600 432 108 90 258 220 285 246 289 275 456 453 701 748 162 194
424 564 599 847 68 109 210 357 210 366 0 4 6 14 13 21 10 11 247 482 278 553
4 11 24 55 44 98 19 43 35 80 35 83 0 2 9 23 19 47 25 53 131 317 136 337 3
13 76 219 92 260 3 8 8 23 10 33 1 10 10 31 18 47 9 17 15 32 15 35 -1 9 13
60 19 70 3 6 6 15 7 20 1 6 14 48 29 95 15 47 28 92 30 100 2 8 8 29 15 45 6
17 11 31 11 33 -1 1 -1 3 0 5 1 3 7 28 12 52 3 11 15 56 27 100 31 118 32 120
54 213 3 13 7 31 10 40 3 9 7 28 10 42 8 41 15 71 20 88 3 9 8 33 11 52 3 19
8 42 10 50 2 8 7 29 10 45 2 17 7 40 10 53 10 46 13 58 20 102 4 25 9 54 11
65 2 11 6 34 9 50 3 17 7 41 10 55 11 59 17 97 20 120 1 14 6 45 10 70 4 25 8
56 10 70 3 31 15 126 20 160 3 14 7 48 10 75 3 28 7 68 9 90 8 77 19 190 21
230 1 22 6 94 11 160 11 154 11 862 0 1025 -13 198 -22 312 -31 380 -4 33 -10
76 -20 165 -13 106 -17 140 -21 159 -2 12 -6 37 -9 56 -3 19 -7 46 -10 60 -3
14 -8 45 -10 70 -3 25 -8 52 -10 60 -2 8 -7 29 -10 45 -2 17 -7 41 -10 55 -3
14 -8 36 -10 50 -2 14 -6 32 -8 40 -2 8 -7 33 -11 55 -5 22 -15 67 -23 100 -8
33 -17 69 -19 80 -10 51 -45 187 -68 265 -8 25 -24 79 -36 120 -23 79 -114
354 -129 392 -11 26 -24 61 -26 68 -1 3 -9 22 -18 44 -9 21 -17 44 -17 50 0 7
-4 16 -8 22 -5 5 -15 25 -22 44 -7 19 -24 60 -38 90 -13 30 -31 73 -40 95 -29
74 -238 479 -302 585 -35 58 -98 157 -139 220 -42 63 -78 120 -80 125 -2 6 -7
12 -10 15 -4 3 -24 30 -46 60 -348 486 -803 912 -1290 1210 -113 69 -421 223
-535 268 -58 23 -118 47 -135 53 -16 7 -32 13 -35 14 -3 0 -36 11 -75 24 -78
26 -230 71 -258 76 -10 2 -27 7 -37 10 -19 6 -46 12 -95 20 -16 3 -37 8 -45
10 -8 2 -28 7 -45 10 -16 2 -41 7 -55 10 -40 8 -108 18 -215 31 -27 4 -66 8
-85 11 -42 5 -646 13 -651 8z"/>
<path d="M12897 39224 c-1 -1 -45 -5 -97 -9 -52 -3 -108 -8 -125 -10 -16 -3
-57 -7 -89 -10 -33 -3 -62 -7 -65 -9 -3 -2 -26 -7 -51 -10 -56 -8 -85 -13
-175 -32 -38 -9 -80 -17 -91 -20 -12 -2 -53 -13 -90 -24 -38 -11 -94 -28 -124
-36 -30 -9 -80 -25 -110 -35 -30 -11 -62 -22 -72 -24 -9 -2 -30 -11 -47 -19
-17 -9 -32 -16 -33 -15 -16 5 -390 -167 -396 -183 -2 -4 -9 -8 -17 -8 -7 0
-66 -32 -131 -71 -324 -193 -564 -380 -839 -654 -249 -247 -448 -490 -638
-780 -48 -71 -90 -135 -94 -141 -4 -5 -17 -26 -27 -45 -11 -19 -53 -92 -94
-164 -118 -206 -258 -499 -352 -735 -48 -121 -74 -191 -138 -370 -3 -8 -6 -19
-7 -25 -2 -5 -15 -48 -30 -95 -16 -47 -27 -85 -26 -85 1 0 -3 -13 -9 -30 -12
-30 -80 -277 -96 -345 -4 -19 -9 -39 -10 -45 -2 -5 -5 -20 -8 -33 -3 -13 -7
-31 -10 -40 -3 -9 -8 -33 -11 -52 -3 -19 -12 -63 -20 -98 -15 -62 -23 -106
-30 -152 -3 -14 -7 -36 -10 -50 -3 -14 -8 -41 -11 -60 -3 -19 -9 -60 -14 -90
-13 -76 -21 -128 -34 -235 -4 -27 -9 -70 -12 -95 -7 -50 -9 -69 -19 -184 -3
-44 -8 -95 -10 -115 -14 -128 -20 -326 -20 -676 0 -451 10 -640 49 -985 3 -30
8 -68 10 -85 2 -16 7 -52 10 -80 4 -27 8 -63 11 -80 2 -16 7 -48 10 -69 3 -22
7 -51 10 -65 16 -98 22 -132 30 -191 4 -24 8 -47 10 -50 2 -4 7 -29 11 -56 3
-27 8 -51 9 -54 2 -3 6 -25 10 -50 4 -25 8 -47 10 -51 2 -3 7 -20 10 -37 3
-18 13 -62 21 -99 9 -38 18 -77 20 -88 2 -11 8 -40 14 -65 7 -25 14 -54 16
-65 3 -11 6 -24 8 -30 2 -5 6 -23 11 -40 35 -138 91 -335 106 -375 5 -14 11
-34 13 -45 7 -36 114 -348 166 -485 12 -30 33 -86 47 -125 14 -38 35 -88 46
-110 11 -22 19 -41 19 -42 -2 -4 26 -71 54 -131 13 -29 24 -55 24 -57 0 -8
100 -219 169 -355 103 -205 170 -328 262 -482 33 -53 59 -100 59 -103 0 -3 5
-11 10 -18 6 -7 70 -102 143 -212 126 -191 176 -264 187 -275 3 -3 39 -50 80
-105 143 -190 353 -437 529 -619 42 -43 81 -83 87 -90 31 -32 259 -242 324
-298 184 -159 338 -274 555 -418 83 -55 155 -104 162 -110 7 -5 14 -10 17 -10
2 0 57 -31 122 -68 304 -175 699 -343 994 -423 19 -5 42 -12 50 -14 23 -7 93
-25 115 -30 23 -5 60 -14 90 -20 11 -3 31 -7 45 -10 14 -3 39 -8 55 -10 17 -3
41 -7 55 -10 34 -7 100 -17 190 -30 274 -37 651 -38 935 -1 101 13 111 14 143
20 17 3 44 8 60 11 43 8 69 13 150 30 12 3 30 7 40 10 9 2 44 11 77 19 33 7
92 24 130 36 39 12 75 23 80 24 6 1 15 4 20 7 6 4 24 10 40 14 17 5 32 9 35
10 3 1 23 9 44 18 22 10 51 20 65 24 14 3 31 9 36 13 6 4 21 11 35 15 44 13
382 181 475 236 89 53 257 161 304 196 384 281 710 603 998 988 202 270 371
544 539 875 26 52 49 97 49 100 3 9 22 53 60 135 20 44 64 148 96 230 33 83
64 159 69 170 5 11 17 43 25 70 9 28 19 57 22 65 3 8 7 20 8 25 2 6 17 53 35
105 17 52 45 140 61 195 29 98 35 117 43 153 3 9 16 64 31 122 15 58 28 112
30 120 2 8 10 45 19 83 9 37 18 81 21 99 3 17 7 34 9 37 2 3 7 28 10 55 4 27
9 52 11 56 2 3 6 28 10 54 3 27 7 51 9 55 2 3 7 30 11 60 4 30 9 63 11 75 4
21 13 77 19 126 2 14 6 41 8 60 14 98 32 272 42 400 3 41 7 104 10 140 11 146
16 319 16 560 -1 249 -3 337 -16 530 -8 127 -21 291 -30 370 -3 25 -7 68 -10
95 -3 28 -7 61 -10 75 -2 14 -7 50 -10 80 -14 110 -12 101 -41 275 -8 50 -17
104 -20 120 -2 17 -7 44 -11 60 -3 17 -7 39 -9 50 -2 11 -5 31 -9 45 -3 14 -7
36 -10 50 -3 14 -7 36 -10 50 -3 14 -7 36 -10 50 -7 36 -12 57 -30 135 -9 39
-19 78 -21 88 -10 44 -13 55 -24 102 -7 28 -28 106 -47 175 -19 69 -36 132
-38 140 -4 17 -38 127 -83 270 -43 133 -120 349 -167 465 -4 11 -9 25 -10 31
-2 6 -10 27 -18 45 -9 19 -39 90 -67 159 -28 69 -62 146 -76 172 -13 27 -24
51 -24 55 0 9 -242 496 -250 503 -3 3 -18 30 -34 60 -16 30 -56 98 -88 151
-32 54 -58 102 -58 107 0 6 -4 12 -8 14 -4 2 -19 21 -32 43 -54 90 -193 299
-280 420 -467 651 -1026 1201 -1615 1590 -273 179 -520 314 -770 419 -60 26
-119 51 -130 56 -11 5 -42 17 -70 26 -27 9 -61 21 -75 27 -14 5 -29 11 -35 13
-5 1 -46 14 -90 29 -44 15 -87 28 -95 30 -8 2 -15 4 -15 5 0 1 -8 3 -18 5 -10
2 -63 15 -119 30 -103 27 -120 31 -173 40 -16 3 -37 8 -45 10 -8 2 -31 7 -50
10 -19 3 -48 8 -65 11 -35 6 -73 12 -135 19 -25 3 -61 7 -80 10 -106 14 -572
29 -583 19z"/>
<path d="M3888 29115 c-2 -1 -70 -6 -153 -9 -82 -4 -163 -8 -180 -10 -16 -2
-59 -7 -95 -10 -36 -4 -72 -9 -80 -11 -8 -2 -33 -7 -55 -10 -40 -5 -63 -9
-115 -20 -14 -2 -38 -7 -55 -10 -61 -10 -273 -67 -380 -103 -60 -20 -112 -37
-115 -37 -3 -1 -22 -9 -44 -18 -21 -9 -41 -17 -43 -17 -9 0 -150 -63 -248
-111 -278 -137 -500 -282 -745 -487 -147 -123 -412 -391 -468 -474 -9 -13 -25
-32 -36 -43 -23 -22 -186 -243 -232 -315 -16 -25 -33 -49 -37 -55 -41 -50
-345 -615 -330 -615 2 0 -4 -15 -14 -32 -9 -18 -18 -35 -18 -38 -2 -7 -23 -60
-35 -87 -6 -13 -14 -33 -19 -45 -5 -13 -14 -36 -21 -53 -6 -16 -32 -91 -57
-165 -55 -167 -55 -165 -52 -165 1 0 -3 -9 -9 -21 -6 -11 -13 -32 -16 -45 -3
-13 -12 -49 -21 -79 -19 -67 -25 -87 -31 -120 -3 -14 -8 -34 -11 -45 -4 -11
-8 -25 -9 -32 -1 -6 -11 -51 -23 -100 -11 -48 -23 -104 -26 -123 -3 -19 -8
-48 -12 -65 -3 -16 -7 -37 -9 -45 -1 -8 -5 -33 -8 -55 -3 -22 -8 -51 -11 -65
-5 -23 -8 -45 -20 -140 -3 -25 -8 -56 -10 -70 -2 -14 -7 -56 -11 -95 -3 -38
-8 -83 -10 -100 -20 -183 -27 -860 -10 -1070 5 -60 10 -123 11 -140 1 -16 6
-61 10 -100 4 -38 9 -83 10 -100 3 -32 11 -93 22 -160 3 -22 7 -51 8 -65 3
-25 13 -82 21 -124 2 -11 7 -41 10 -66 3 -25 8 -47 9 -50 2 -3 6 -26 10 -50 3
-25 8 -53 11 -62 5 -16 9 -36 19 -88 3 -14 7 -36 10 -50 3 -14 8 -36 11 -50 3
-14 10 -43 16 -65 5 -22 12 -47 14 -55 2 -8 11 -44 19 -80 9 -36 18 -72 20
-80 3 -12 32 -112 79 -275 2 -5 6 -23 11 -40 4 -16 10 -34 14 -40 3 -5 6 -12
6 -15 1 -9 66 -204 75 -225 5 -11 16 -40 24 -65 8 -25 19 -56 24 -70 9 -22 22
-56 27 -70 12 -36 89 -219 116 -278 16 -35 29 -65 29 -68 0 -3 16 -38 35 -80
19 -41 35 -75 34 -77 0 -4 195 -387 231 -452 46 -85 186 -319 228 -385 86
-133 192 -291 230 -343 23 -31 42 -60 42 -66 0 -5 4 -11 8 -13 4 -1 43 -49 86
-106 73 -97 296 -369 340 -416 12 -12 68 -73 126 -135 414 -445 889 -826 1400
-1124 124 -72 389 -207 505 -257 55 -23 118 -50 140 -60 22 -10 51 -21 65 -25
14 -4 39 -13 55 -21 41 -18 115 -44 145 -50 13 -3 30 -10 37 -16 7 -6 13 -8
13 -5 0 3 26 -4 58 -15 31 -11 64 -22 72 -23 8 -2 31 -9 50 -15 56 -17 304
-75 365 -85 17 -3 41 -7 55 -10 33 -6 75 -13 130 -20 25 -3 56 -8 70 -11 27
-5 73 -9 215 -20 167 -13 589 -7 673 10 13 3 49 7 80 10 31 3 67 8 78 10 12 2
39 7 60 10 39 6 117 21 164 32 14 3 45 10 69 15 23 5 62 14 85 21 22 6 46 13
51 14 30 8 176 55 215 69 25 9 50 18 55 19 6 2 21 8 35 13 14 6 50 21 80 32
283 111 614 307 890 527 139 111 432 398 531 520 81 100 208 269 254 339 22
33 43 62 46 65 3 3 12 17 20 31 8 15 38 66 67 115 129 211 268 498 359 739 9
22 19 49 24 60 21 51 127 382 133 417 3 13 5 23 6 23 1 0 3 7 5 15 2 8 15 62
30 120 28 108 32 124 40 175 3 17 8 38 11 47 7 23 13 56 20 108 3 25 8 47 9
50 2 3 6 24 9 46 4 22 9 51 11 64 3 14 8 43 10 65 3 22 8 58 11 80 4 22 8 51
9 65 27 249 30 283 41 484 6 122 7 521 0 631 -9 143 -18 271 -21 305 -2 19 -6
64 -9 100 -4 36 -8 75 -10 87 -3 12 -7 48 -11 80 -7 63 -10 87 -20 148 -3 22
-8 52 -11 68 -13 83 -30 182 -39 227 -3 14 -7 36 -10 50 -17 87 -21 104 -40
185 -9 39 -18 86 -21 105 -3 19 -8 38 -11 42 -2 5 -6 17 -8 27 -2 11 -13 54
-25 96 -12 42 -23 84 -25 93 -2 9 -18 64 -35 122 -17 58 -33 112 -35 120 -9
29 -48 146 -72 215 -14 39 -26 75 -27 80 -1 6 -10 27 -19 49 -9 21 -17 42 -17
46 0 11 -99 260 -116 292 -8 15 -15 30 -15 33 1 3 -10 30 -24 61 -14 31 -25
58 -25 60 0 2 -30 66 -66 141 -36 76 -75 158 -87 183 -20 43 -124 239 -173
328 -13 23 -36 63 -51 90 -14 26 -31 56 -37 67 -6 11 -14 22 -17 25 -3 3 -23
34 -44 70 -109 185 -415 623 -527 755 -9 11 -52 63 -95 115 -43 52 -83 100
-89 105 -5 6 -46 50 -90 100 -176 199 -477 486 -709 676 -185 151 -462 350
-635 455 -36 21 -67 41 -70 44 -3 3 -16 11 -30 18 -14 6 -52 28 -85 47 -55 32
-410 210 -495 248 -70 31 -358 140 -400 152 -8 3 -69 21 -135 40 -66 20 -127
38 -135 40 -8 1 -44 11 -80 20 -36 9 -74 19 -85 20 -11 2 -31 6 -45 9 -67 15
-148 30 -225 41 -27 3 -61 8 -75 10 -30 5 -121 16 -170 20 -19 2 -93 7 -165
10 -71 3 -149 8 -172 9 -23 2 -43 2 -45 1z"/>
<path d="M36898 29075 c-2 -2 -43 -6 -93 -10 -49 -4 -103 -8 -120 -10 -78 -9
-123 -14 -155 -20 -19 -4 -48 -8 -65 -10 -16 -2 -43 -6 -60 -9 -16 -3 -39 -8
-50 -10 -11 -2 -40 -7 -65 -12 -25 -4 -47 -8 -50 -9 -3 -1 -18 -4 -35 -8 -16
-4 -39 -9 -50 -11 -11 -2 -49 -12 -85 -21 -36 -9 -72 -18 -80 -20 -86 -19
-487 -151 -507 -168 -7 -5 -13 -7 -13 -3 0 4 -19 -3 -42 -15 -24 -12 -44 -21
-45 -21 -3 1 -64 -23 -98 -38 -11 -5 -42 -19 -70 -31 -263 -113 -617 -311
-893 -498 -62 -42 -121 -80 -130 -86 -9 -5 -19 -12 -22 -15 -3 -3 -59 -46
-125 -95 -201 -150 -559 -456 -647 -552 -13 -16 -40 -42 -59 -59 -42 -38 -259
-269 -324 -344 -26 -30 -62 -71 -80 -91 -47 -52 -249 -306 -332 -419 -154
-208 -443 -652 -443 -679 0 -6 -4 -11 -10 -11 -5 0 -10 -4 -10 -10 0 -5 -13
-31 -29 -57 -62 -101 -351 -665 -351 -685 0 -4 -13 -35 -29 -70 -80 -172 -307
-783 -292 -783 2 0 -4 -18 -13 -40 -17 -44 -74 -242 -90 -313 -2 -9 -9 -37
-16 -62 -7 -25 -14 -53 -16 -62 -2 -10 -6 -28 -10 -40 -3 -13 -7 -32 -9 -43
-5 -20 -10 -42 -20 -87 -3 -13 -8 -36 -10 -53 -3 -16 -8 -37 -10 -45 -2 -8 -7
-28 -10 -45 -2 -16 -7 -41 -10 -55 -3 -14 -7 -36 -10 -50 -2 -14 -6 -41 -10
-60 -13 -77 -17 -96 -21 -130 -6 -51 -14 -103 -18 -127 -4 -19 -10 -68 -21
-173 -3 -26 -14 -145 -20 -220 -27 -310 -23 -770 9 -1095 11 -111 15 -150 21
-190 4 -22 8 -51 10 -65 2 -14 6 -43 10 -65 3 -22 8 -53 10 -70 2 -16 7 -41 9
-55 3 -13 8 -42 11 -65 4 -22 10 -56 15 -75 5 -19 12 -48 14 -65 9 -49 13 -66
36 -155 12 -47 24 -93 26 -102 2 -10 6 -26 8 -35 10 -40 88 -292 106 -338 59
-157 85 -224 100 -260 21 -50 33 -78 35 -85 5 -21 125 -262 168 -340 103 -186
287 -473 327 -510 3 -3 27 -34 54 -70 224 -294 560 -605 870 -806 55 -37 113
-75 128 -85 15 -10 30 -19 34 -19 3 0 18 -8 32 -19 51 -35 283 -150 415 -205
181 -75 370 -137 550 -182 49 -12 103 -23 147 -30 19 -3 38 -8 41 -10 4 -2 27
-6 50 -9 24 -3 58 -8 74 -11 43 -8 116 -17 250 -31 93 -10 598 -10 700 -1 92
9 155 16 205 24 19 3 51 7 70 10 19 2 51 7 70 10 19 3 42 7 50 8 8 2 29 6 45
9 17 4 44 9 60 12 17 3 41 7 55 11 14 3 35 7 47 9 11 2 30 6 41 9 11 4 30 9
41 11 41 9 63 15 131 34 25 7 52 14 60 16 8 2 26 8 40 13 14 5 27 9 30 9 6 -1
224 70 255 82 11 5 70 28 130 51 61 23 134 53 163 66 29 13 55 24 58 24 7 0
381 185 439 217 73 41 163 93 252 147 244 147 632 431 833 609 533 471 934
925 1295 1467 39 58 73 107 76 110 3 3 9 12 12 20 4 8 15 27 25 41 9 15 31 50
47 78 17 28 33 51 38 51 4 0 7 5 7 11 0 5 31 63 69 127 38 64 90 155 115 202
65 120 272 539 281 570 3 8 17 42 42 100 32 71 105 259 150 380 19 52 37 102
40 110 3 8 7 20 9 25 1 6 14 44 29 85 14 41 28 82 29 90 2 8 14 49 27 90 13
41 24 78 25 83 1 4 2 8 4 10 1 1 3 9 5 17 2 8 11 42 20 75 9 33 18 67 20 75 1
8 11 41 20 73 9 33 18 69 20 80 5 29 11 60 35 160 10 45 22 96 24 112 3 17 8
41 11 55 7 35 13 69 20 114 4 21 9 48 11 60 8 41 13 71 18 116 3 25 8 55 10
67 3 12 7 46 11 75 3 29 7 67 10 83 2 17 6 59 10 95 3 36 8 81 10 100 28 259
28 886 0 1160 -2 19 -6 64 -9 100 -4 36 -8 72 -10 80 -3 8 -7 40 -11 71 -3 31
-7 66 -10 77 -2 11 -6 37 -10 58 -13 83 -16 102 -36 204 -23 118 -23 116 -39
185 -6 28 -13 57 -15 65 -2 8 -10 40 -19 71 -9 31 -18 65 -20 75 -2 11 -17 60
-32 109 -15 50 -29 95 -30 100 -2 6 -19 55 -39 110 -20 55 -43 119 -51 143
-54 153 -255 563 -357 726 -273 439 -612 814 -982 1087 -33 24 -62 46 -65 49
-3 3 -48 33 -100 67 -52 34 -100 67 -107 72 -7 6 -15 11 -18 11 -3 0 -47 24
-98 53 -105 60 -271 143 -367 181 -36 15 -77 33 -92 42 -16 8 -28 13 -28 10 0
-3 -21 4 -47 15 -27 12 -55 22 -63 24 -8 2 -51 15 -95 30 -68 22 -233 67 -300
81 -34 8 -119 24 -150 30 -16 2 -37 7 -45 9 -8 2 -35 7 -60 10 -25 3 -61 8
-80 11 -33 4 -73 9 -180 20 -50 5 -567 13 -572 9z"/>
<path d="M19797 24664 c-1 -1 -72 -5 -157 -8 -85 -4 -175 -9 -200 -11 -85 -8
-175 -17 -200 -20 -75 -8 -137 -17 -150 -20 -8 -2 -35 -7 -60 -10 -50 -7 -83
-12 -120 -20 -14 -3 -37 -7 -53 -10 -30 -6 -161 -34 -189 -41 -10 -2 -27 -6
-38 -9 -11 -3 -29 -7 -40 -10 -11 -3 -29 -7 -40 -10 -47 -12 -58 -15 -125 -35
-38 -12 -77 -23 -85 -25 -27 -6 -204 -66 -235 -80 -29 -12 -70 -27 -90 -31 -5
-1 -32 -12 -60 -24 -27 -12 -59 -25 -70 -30 -11 -4 -51 -22 -88 -39 -37 -17
-70 -31 -73 -31 -7 0 -307 -150 -359 -180 -157 -89 -216 -124 -337 -201 -119
-75 -404 -273 -418 -289 -3 -3 -52 -42 -110 -87 -325 -251 -796 -696 -1125
-1063 -32 -36 -74 -83 -94 -105 -20 -22 -69 -78 -109 -125 -41 -47 -84 -96
-96 -110 -181 -204 -647 -799 -982 -1255 -127 -173 -824 -1153 -939 -1320 -49
-72 -376 -536 -388 -550 -4 -5 -83 -116 -175 -245 -268 -376 -702 -959 -897
-1205 -176 -222 -417 -521 -476 -590 -14 -16 -84 -97 -154 -180 -157 -183
-206 -238 -435 -488 -181 -198 -563 -580 -780 -781 -122 -113 -263 -238 -349
-312 -252 -214 -735 -677 -976 -936 -152 -163 -421 -470 -510 -583 -22 -27
-42 -52 -45 -55 -14 -13 -198 -249 -279 -358 -448 -599 -822 -1220 -1117
-1850 -24 -52 -44 -95 -44 -97 0 -1 -17 -38 -37 -81 -20 -44 -37 -81 -38 -84
-3 -10 -18 -46 -38 -89 -25 -57 -149 -375 -159 -409 -1 -4 -15 -41 -30 -82
-16 -41 -31 -82 -33 -90 -2 -8 -20 -64 -40 -125 -21 -60 -39 -117 -41 -125 -2
-8 -15 -53 -29 -100 -28 -90 -28 -93 -45 -155 -6 -22 -12 -47 -15 -55 -6 -22
-65 -251 -71 -275 -4 -20 -8 -41 -19 -99 -4 -16 -8 -33 -10 -37 -3 -4 -7 -24
-10 -45 -4 -22 -8 -46 -10 -54 -2 -8 -7 -28 -10 -45 -2 -16 -7 -41 -10 -55 -3
-14 -8 -36 -10 -50 -2 -14 -6 -34 -8 -45 -4 -18 -12 -64 -22 -135 -4 -27 -10
-63 -20 -125 -3 -22 -8 -56 -10 -75 -3 -19 -7 -57 -11 -85 -4 -27 -8 -61 -9
-75 -1 -14 -6 -59 -10 -100 -4 -41 -9 -88 -10 -105 -1 -16 -6 -79 -11 -140
-17 -215 -10 -861 11 -1085 1 -19 6 -68 9 -107 4 -40 9 -82 11 -94 3 -13 7
-45 10 -73 7 -60 14 -111 20 -146 7 -39 14 -84 19 -121 3 -19 8 -45 11 -59 3
-14 8 -38 10 -55 3 -16 8 -37 10 -45 2 -8 7 -31 10 -50 3 -19 8 -42 10 -50 2
-8 6 -26 9 -40 3 -14 7 -34 10 -45 2 -11 10 -42 16 -70 17 -74 18 -75 35 -140
8 -33 25 -91 36 -128 12 -37 22 -73 23 -80 2 -7 6 -19 9 -27 3 -8 13 -37 21
-65 8 -27 33 -102 56 -165 22 -63 42 -119 44 -125 2 -5 9 -23 15 -40 7 -16 14
-34 15 -40 1 -5 10 -28 20 -50 10 -22 27 -62 38 -90 11 -27 26 -66 35 -85 30
-68 247 -505 253 -510 4 -3 13 -17 21 -33 102 -199 373 -595 587 -855 85 -105
312 -360 344 -388 7 -6 29 -29 49 -50 220 -237 654 -595 984 -810 44 -29 85
-58 92 -63 7 -6 15 -11 18 -11 3 0 31 -16 61 -35 30 -19 56 -35 58 -35 3 0 43
-22 90 -49 168 -97 406 -210 631 -299 87 -34 332 -120 360 -126 27 -6 103 -28
125 -36 14 -5 36 -12 50 -14 14 -3 63 -15 110 -27 93 -23 113 -28 150 -35 14
-3 32 -7 40 -9 8 -2 31 -7 50 -10 19 -3 49 -8 65 -12 17 -3 37 -7 45 -8 26 -4
104 -16 135 -22 31 -5 44 -7 135 -18 30 -3 71 -8 90 -11 19 -2 66 -7 105 -10
38 -3 86 -7 105 -9 202 -22 749 -22 1035 -1 218 17 429 38 515 51 14 2 50 7
80 10 30 4 64 8 75 10 11 2 40 6 65 9 75 10 115 16 140 21 13 3 40 7 60 10 20
3 45 7 55 9 11 2 40 7 65 11 51 8 74 12 110 20 14 2 39 7 55 10 17 3 41 7 55
10 14 3 39 7 55 10 17 3 41 8 55 10 52 11 76 15 104 21 16 2 32 7 36 9 4 2 25
7 46 9 21 3 54 10 72 15 18 5 35 10 37 10 3 0 18 2 33 5 54 12 77 17 102 22
14 3 33 7 42 10 10 3 30 7 45 10 16 3 46 10 68 16 22 5 49 12 60 14 11 2 49
11 84 20 62 15 75 18 122 29 11 2 29 7 39 10 10 3 28 8 39 10 12 3 30 7 42 10
11 2 29 7 39 10 10 3 28 8 39 10 12 3 30 7 41 10 11 3 29 7 40 10 11 3 29 7
40 10 11 3 29 7 40 10 11 3 28 7 38 9 9 2 52 14 94 26 43 11 86 23 98 25 47
11 57 14 100 26 53 15 37 10 180 49 63 17 122 33 130 35 8 2 42 11 75 20 33 9
71 19 84 21 14 3 28 7 33 10 7 4 85 26 141 40 37 9 54 14 122 34 39 11 79 22
90 24 11 2 61 16 111 30 50 15 100 28 110 31 10 2 71 18 134 35 63 18 125 34
137 36 12 2 35 9 50 15 16 6 29 10 31 10 1 -1 3 -1 5 0 1 0 9 2 17 4 8 2 51
13 95 25 44 11 90 23 102 26 12 2 34 9 48 14 14 5 25 8 25 5 0 -2 18 2 40 10
22 8 40 12 40 10 0 -2 18 2 40 10 22 8 40 12 40 10 0 -3 12 0 28 6 15 6 34 12
42 15 60 15 109 26 130 30 14 3 39 9 55 14 17 5 41 12 55 14 14 3 45 10 70 17
25 6 52 12 60 14 8 2 42 10 75 18 33 8 78 18 100 23 22 4 45 9 50 10 6 2 21 5
35 8 14 3 36 8 50 11 36 9 62 14 85 19 11 2 56 12 100 21 44 10 89 19 100 21
11 1 31 6 45 9 14 3 36 8 50 10 44 7 84 15 130 25 25 5 65 12 90 16 24 3 47 7
50 9 3 2 30 6 60 10 30 4 57 8 60 10 3 2 25 6 50 9 25 3 56 8 69 11 12 2 44 7
70 10 25 4 55 8 66 10 11 2 43 6 71 9 28 4 61 9 75 11 13 3 49 7 79 10 30 4
73 8 95 11 121 14 227 25 295 29 25 2 95 7 155 12 61 4 297 8 525 8 414 0 561
-5 851 -30 46 -4 100 -8 119 -10 50 -3 170 -15 210 -20 19 -3 58 -7 85 -10 28
-3 61 -8 75 -10 14 -2 48 -6 75 -10 28 -3 64 -7 80 -10 17 -2 50 -7 75 -10 25
-3 54 -7 65 -9 11 -2 43 -7 70 -11 28 -4 59 -8 70 -10 11 -2 38 -6 60 -9 22
-3 51 -8 65 -11 59 -11 77 -14 110 -19 19 -3 45 -8 56 -10 12 -2 39 -7 60 -10
22 -4 71 -13 109 -21 39 -8 84 -16 100 -19 17 -3 41 -8 55 -11 14 -3 36 -7 50
-10 74 -14 97 -19 160 -34 25 -5 57 -12 73 -15 15 -2 35 -7 45 -10 9 -3 28 -7
42 -10 14 -3 48 -10 75 -16 28 -5 61 -13 75 -16 14 -3 61 -14 105 -25 44 -10
90 -21 103 -24 12 -3 31 -7 42 -10 11 -3 28 -7 38 -9 15 -4 282 -70 322 -80 8
-2 60 -16 115 -31 55 -14 108 -28 118 -30 10 -2 27 -7 37 -10 10 -3 27 -8 37
-10 10 -2 36 -9 58 -15 22 -6 56 -15 75 -20 19 -4 62 -16 95 -25 33 -9 76 -21
95 -26 19 -6 40 -11 45 -13 6 -2 24 -6 40 -10 36 -9 118 -33 162 -47 18 -5 40
-12 50 -14 10 -2 45 -11 78 -20 61 -17 118 -33 145 -39 8 -3 80 -23 160 -46
80 -22 152 -43 160 -44 8 -2 35 -9 60 -16 25 -7 47 -12 50 -12 3 -1 29 -9 58
-19 28 -10 52 -16 52 -14 0 3 12 0 28 -6 15 -6 36 -13 47 -15 23 -6 26 -7 85
-23 25 -7 52 -14 60 -16 8 -2 42 -10 75 -19 71 -20 64 -18 190 -51 55 -15 107
-28 115 -30 8 -2 98 -25 199 -50 101 -26 191 -48 200 -50 9 -2 45 -11 81 -20
36 -9 74 -19 85 -20 32 -6 79 -15 97 -21 10 -3 30 -7 45 -10 16 -3 44 -9 63
-14 36 -9 175 -38 220 -46 14 -2 39 -7 55 -11 40 -9 34 -8 90 -18 28 -4 55 -9
60 -11 19 -4 91 -17 168 -29 17 -3 43 -7 57 -10 28 -5 65 -11 125 -20 23 -3
50 -7 61 -9 12 -2 45 -7 75 -11 30 -3 61 -8 69 -10 8 -2 44 -7 80 -11 36 -3
76 -8 90 -9 70 -8 202 -21 335 -32 50 -4 279 -8 510 -8 369 0 497 4 635 20 19
2 58 6 85 9 58 6 116 14 165 22 19 3 50 7 69 10 43 5 89 13 121 19 50 10 75
15 114 21 22 3 43 7 47 9 3 2 20 7 37 10 17 3 70 15 119 26 48 12 93 22 98 24
6 1 17 5 25 8 14 5 79 22 125 32 38 9 330 106 347 115 10 6 23 10 29 10 6 0
25 6 42 14 63 29 161 66 174 66 7 0 13 4 13 10 0 5 3 9 8 8 7 -1 35 9 117 45
72 31 489 239 495 247 3 4 12 10 20 14 8 4 24 12 35 19 11 7 72 43 135 80 140
84 210 127 241 149 13 10 62 43 109 75 671 450 1287 1077 1716 1748 158 246
351 613 454 860 4 11 15 36 23 55 8 19 18 46 22 60 4 14 12 30 17 36 5 7 11
20 13 30 3 11 23 71 46 134 54 153 140 433 154 503 3 10 7 27 10 37 3 10 7 27
9 37 2 10 9 36 15 58 5 22 13 56 16 75 3 19 10 51 15 70 5 19 12 51 15 70 3
19 8 42 10 50 2 8 7 33 10 55 3 23 7 52 10 65 3 13 7 40 10 60 3 20 7 47 10
60 2 13 7 44 10 69 3 25 8 62 10 81 27 197 49 551 49 800 0 137 -11 428 -19
510 -2 25 -7 81 -10 125 -3 44 -8 91 -10 105 -2 14 -7 50 -10 80 -3 30 -8 66
-10 80 -2 14 -6 48 -10 75 -3 28 -8 61 -10 75 -2 14 -7 43 -9 65 -3 22 -8 51
-11 65 -3 14 -7 39 -10 55 -2 17 -6 40 -9 51 -5 22 -17 88 -20 114 -2 8 -8 40
-14 70 -7 30 -14 64 -16 75 -2 11 -11 47 -19 80 -9 33 -18 74 -20 90 -3 17
-13 57 -22 90 -9 33 -18 68 -21 78 -11 45 -14 54 -23 85 -5 18 -10 35 -10 37
-1 3 -1 6 -2 8 0 1 -2 9 -4 17 -5 20 -29 99 -55 185 -12 39 -23 77 -25 85 -2
8 -4 16 -5 18 -2 1 -3 5 -5 10 -1 4 -4 14 -7 22 -4 8 -25 71 -48 140 -23 69
-48 139 -56 157 -8 17 -14 36 -14 43 0 7 -7 26 -15 43 -8 18 -35 84 -59 147
-54 139 -94 236 -130 313 -14 32 -26 59 -26 61 0 7 -129 278 -195 408 -115
230 -260 492 -398 718 -25 41 -58 95 -73 120 -52 86 -339 516 -354 530 -3 3
-14 19 -24 35 -23 36 -311 421 -337 450 -10 11 -53 65 -97 120 -254 322 -569
671 -948 1050 -221 221 -334 329 -534 510 -30 28 -57 52 -60 55 -3 3 -34 30
-70 60 -35 30 -72 62 -81 70 -9 8 -31 29 -50 45 -96 86 -259 235 -299 273
-116 110 -526 523 -620 624 -58 62 -114 122 -125 133 -11 12 -45 50 -75 85
-30 36 -62 71 -71 80 -70 65 -729 866 -729 885 0 4 -7 14 -16 23 -18 17 -248
326 -379 507 -44 61 -83 112 -87 113 -5 2 -8 7 -8 12 0 4 -53 84 -118 177 -64
92 -158 229 -207 303 -50 74 -97 142 -106 152 -9 10 -22 31 -30 46 -8 15 -18
32 -22 37 -20 23 -520 793 -526 809 -2 5 -8 15 -13 21 -5 5 -26 37 -47 70 -21
33 -64 99 -95 147 -31 48 -56 92 -56 97 0 5 -3 11 -7 13 -5 2 -31 39 -59 83
-29 44 -77 119 -108 167 -31 48 -56 92 -56 98 0 5 -4 10 -8 10 -4 0 -16 15
-27 33 -10 17 -65 103 -122 190 -57 87 -103 162 -103 166 0 5 -4 11 -8 13 -10
4 -72 96 -72 108 0 4 -3 10 -7 12 -12 5 -73 95 -73 106 0 6 -3 12 -7 14 -11 4
-93 127 -93 137 0 5 -4 11 -8 13 -5 2 -28 32 -52 68 -24 36 -48 70 -52 75 -5
6 -58 82 -120 170 -259 371 -648 871 -858 1100 -25 27 -70 76 -100 110 -392
432 -848 828 -1290 1120 -158 105 -443 275 -459 275 -5 0 -16 6 -23 13 -27 25
-395 197 -583 272 -66 26 -129 51 -140 56 -11 4 -47 18 -80 29 -92 31 -219 74
-227 76 -5 1 -9 2 -10 4 -2 1 -10 3 -18 6 -8 2 -37 10 -65 18 -227 65 -367
101 -475 121 -8 2 -37 9 -65 15 -67 16 -76 17 -175 36 -116 21 -119 21 -170
28 -25 4 -57 9 -71 11 -53 9 -134 21 -204 29 -27 3 -66 8 -85 11 -19 2 -69 7
-110 11 -41 3 -84 8 -94 10 -11 2 -65 6 -120 10 -56 3 -119 8 -141 9 -116 9
-632 24 -638 19z"/>
</g>
</svg>
