<?xml version="1.0" standalone="no"?>
<!DOCTYPE svg PUBLIC "-//W3C//DTD SVG 20010904//EN"
 "http://www.w3.org/TR/2001/REC-SVG-20010904/DTD/svg10.dtd">
<svg version="1.0" xmlns="http://www.w3.org/2000/svg"
 width="512.000000pt" height="512.000000pt" viewBox="0 0 512.000000 512.000000"
 preserveAspectRatio="xMidYMid meet">
<metadata>
Created by potrace 1.14, written by Peter Selinger 2001-2017
</metadata>
<g transform="translate(0.000000,512.000000) scale(0.100000,-0.100000)"
fill="#000000" stroke="none">
<path d="M1885 5104 c-103 -19 -178 -41 -259 -74 -127 -53 -324 -187 -363
-246 -36 -56 -15 -131 44 -159 51 -24 90 -13 164 48 110 91 227 153 361 191
78 22 80 21 20 -18 -360 -238 -579 -609 -607 -1030 -2 -34 -4 -64 -4 -68 -1
-4 -16 -14 -33 -21 -52 -22 -73 -53 -72 -103 1 -35 7 -51 29 -74 16 -17 37
-30 46 -30 10 0 21 -5 24 -10 5 -8 8 -688 5 -1036 0 -28 -4 -41 -14 -41 -7 0
-34 -5 -59 -12 -93 -27 -147 -121 -142 -251 4 -97 18 -152 60 -221 l34 -56
-28 -69 c-40 -98 -54 -162 -76 -334 -17 -135 -24 -557 -11 -687 3 -32 8 -107
12 -167 6 -120 20 -169 87 -305 45 -92 118 -176 179 -204 77 -36 176 -13 254
60 70 66 144 192 144 247 0 60 -54 110 -116 108 -23 -1 -42 7 -66 29 -54 49
-125 80 -196 87 -64 7 -66 8 -69 37 -6 72 -9 244 -3 238 4 -5 27 -39 53 -78
114 -175 326 -331 532 -390 30 -9 55 -19 55 -22 0 -9 -49 -72 -89 -116 -106
-115 -128 -256 -47 -306 32 -20 47 -21 396 -21 l363 0 39 40 c21 23 38 35 38
27 0 -7 12 -24 26 -38 l26 -24 372 -2 372 -3 35 29 c32 27 34 32 33 88 -1 77
-27 133 -101 219 -97 112 -97 106 5 141 48 16 105 38 127 47 l39 18 -33 -31
c-30 -28 -33 -35 -29 -75 8 -71 82 -197 158 -264 70 -62 170 -79 247 -41 121
59 245 291 257 484 4 50 9 128 12 175 8 119 8 435 0 560 -14 216 -45 382 -91
485 l-25 57 29 41 c50 74 65 131 66 241 0 87 -3 107 -23 145 -35 66 -77 96
-152 110 l-35 6 0 539 0 540 27 7 c100 26 103 163 6 206 -33 15 -38 21 -39 52
-4 216 -87 478 -213 673 -92 143 -230 283 -375 379 -42 28 -66 48 -54 45 12
-4 30 -8 40 -10 99 -20 263 -103 363 -184 82 -67 111 -78 160 -63 62 18 90 75
69 138 -18 56 -163 170 -307 242 -264 132 -637 158 -885 62 -47 -18 -187 -13
-257 9 -146 47 -387 62 -535 34z m2010 -4226 c-2 -35 -5 -97 -7 -139 l-2 -77
-61 -5 c-72 -6 -139 -33 -190 -79 -31 -26 -47 -33 -82 -33 -23 0 -43 0 -43 1
0 1 29 21 65 43 85 54 229 200 280 284 22 37 41 66 42 67 1 0 0 -28 -2 -62z
m-2531 -491 c29 -36 25 -68 -5 -41 -10 9 -27 31 -38 49 -19 32 -19 33 0 28 11
-3 30 -19 43 -36z m2445 21 c-7 -13 -20 -35 -31 -50 -15 -22 -22 -25 -32 -15
-11 10 -10 16 6 37 16 20 53 48 66 50 1 0 -3 -10 -9 -22z"/>
</g>
</svg>
