<?xml version="1.0" standalone="no"?>
<!DOCTYPE svg PUBLIC "-//W3C//DTD SVG 20010904//EN"
 "http://www.w3.org/TR/2001/REC-SVG-20010904/DTD/svg10.dtd">
<svg version="1.0" xmlns="http://www.w3.org/2000/svg"
 width="512.000000pt" height="512.000000pt" viewBox="0 0 512.000000 512.000000"
 preserveAspectRatio="xMidYMid meet">
<metadata>
Created by potrace 1.14, written by Peter Selinger 2001-2017
</metadata>
<g transform="translate(0.000000,512.000000) scale(0.100000,-0.100000)"
fill="#000000" stroke="none">
<path d="M360 5097 c-97 -33 -149 -64 -211 -127 -64 -66 -101 -127 -128 -214
-19 -60 -20 -113 -20 -2186 -1 -2330 -5 -2172 57 -2300 37 -74 132 -170 210
-209 126 -64 -34 -60 2287 -60 2339 -1 2177 -5 2302 62 75 40 171 137 206 209
59 123 56 -24 56 2282 1 2340 6 2178 -62 2303 -39 74 -138 170 -210 206 -122
59 27 56 -2292 55 l-2130 0 -65 -21z m4384 -206 c63 -31 122 -90 150 -150 l21
-46 0 -2135 0 -2135 -22 -47 c-27 -59 -92 -124 -152 -152 l-46 -21 -2135 0
-2135 0 -49 24 c-63 31 -122 90 -150 150 l-21 46 0 2135 0 2135 23 49 c31 65
101 130 165 155 52 20 72 20 2177 18 l2125 -2 49 -24z"/>
<path d="M1314 4679 c-24 -12 -54 -59 -54 -84 0 -36 32 -84 62 -94 21 -8 352
-11 1049 -11 l1019 0 31 28 c52 47 42 134 -18 161 -32 15 -2059 14 -2089 0z"/>
<path d="M3714 4674 c-31 -15 -54 -50 -54 -80 0 -9 7 -31 16 -50 36 -76 151
-65 175 16 9 30 8 44 -5 72 -26 55 -75 71 -132 42z"/>
<path d="M2320 4039 c-63 -9 -124 -19 -135 -22 -329 -81 -589 -224 -821 -454
-269 -266 -434 -599 -487 -983 -14 -102 -16 -383 -3 -440 4 -14 11 -54 17 -90
29 -180 114 -403 219 -575 128 -209 335 -420 535 -545 22 -14 49 -31 60 -38
84 -52 293 -140 399 -168 95 -25 98 -25 161 -35 33 -5 67 -12 75 -15 27 -10
303 -12 385 -3 79 8 171 22 210 32 338 83 601 231 838 471 264 267 425 603
475 986 13 104 6 370 -12 475 -37 212 -111 417 -209 580 -42 70 -66 106 -99
150 -21 28 -49 63 -61 80 -36 48 -198 205 -257 249 -30 22 -57 44 -60 47 -3 4
-48 32 -100 64 -166 101 -328 167 -515 212 -165 39 -438 49 -615 22z m445
-193 c252 -35 508 -144 710 -302 367 -286 570 -690 580 -1154 10 -431 -153
-816 -476 -1126 -73 -71 -253 -204 -274 -204 -3 0 -22 -10 -43 -23 -41 -26
-192 -90 -198 -85 -2 2 -4 112 -5 244 -1 238 -5 271 -44 389 -5 18 1 23 52 39
139 43 301 142 391 240 251 272 284 713 78 1035 -26 40 -27 48 -20 105 29 235
-23 410 -133 447 -78 25 -238 -22 -395 -117 l-60 -37 -72 13 c-39 7 -78 14
-87 15 -82 15 -290 22 -341 11 -13 -3 -43 -8 -68 -11 -25 -3 -56 -8 -70 -11
-84 -18 -93 -17 -175 30 -154 88 -305 131 -378 107 -111 -37 -164 -222 -131
-458 6 -48 4 -57 -22 -95 -38 -58 -123 -248 -109 -248 2 0 -1 -16 -7 -36 -17
-65 -19 -77 -19 -184 0 -275 119 -517 326 -665 73 -52 197 -115 275 -140 30
-10 57 -19 58 -21 2 -1 -5 -31 -16 -66 -12 -35 -23 -75 -26 -90 -7 -33 -49
-44 -132 -35 -69 7 -101 30 -171 125 -62 86 -81 106 -135 146 -83 62 -217 87
-273 50 -37 -24 -52 -82 -31 -122 19 -37 40 -50 93 -58 80 -11 127 -49 203
-159 19 -28 50 -65 70 -83 39 -36 138 -88 185 -97 38 -7 164 -7 176 1 5 3 9
-52 9 -131 l0 -136 -22 6 c-13 3 -78 33 -145 66 -184 90 -361 230 -482 379
-20 25 -38 47 -42 50 -22 20 -120 183 -159 265 -96 200 -140 382 -145 600 -10
439 150 831 460 1126 83 79 106 97 199 160 194 131 378 201 641 246 58 10 327
9 400 -1z m-776 -663 c47 -26 107 -58 132 -72 l47 -25 118 24 c168 35 379 35
547 1 l117 -25 43 22 c23 12 74 40 112 62 79 46 102 56 162 75 l41 13 9 -37
c12 -49 9 -130 -7 -227 -15 -90 -8 -121 36 -173 38 -45 83 -143 104 -226 55
-213 -1 -451 -138 -592 -114 -117 -240 -181 -439 -223 -46 -9 -92 -25 -103
-35 -46 -42 -41 -110 14 -176 15 -17 37 -50 49 -73 22 -44 21 -19 30 -478 l2
-127 -30 -5 c-103 -21 -362 -28 -460 -13 -27 5 -59 10 -70 11 -11 2 -28 4 -39
5 -14 1 -17 6 -12 24 3 13 6 133 6 268 1 166 6 255 14 280 7 20 34 68 61 108
38 56 48 80 47 109 -2 53 -43 85 -129 101 -193 37 -332 107 -444 223 -44 45
-117 163 -124 198 -1 3 -6 23 -13 45 -17 61 -23 113 -23 190 1 148 39 260 135
404 40 58 43 84 23 171 -13 59 -15 166 -3 216 l7 32 46 -14 c26 -8 85 -35 132
-61z"/>
</g>
</svg>
