<?xml version="1.0" standalone="no"?>
<!DOCTYPE svg PUBLIC "-//W3C//DTD SVG 20010904//EN"
 "http://www.w3.org/TR/2001/REC-SVG-20010904/DTD/svg10.dtd">
<svg version="1.0" xmlns="http://www.w3.org/2000/svg"
 width="500.000000pt" height="500.000000pt" viewBox="0 0 500.000000 500.000000"
 preserveAspectRatio="xMidYMid meet">
<metadata>
Created by potrace 1.14, written by Peter Selinger 2001-2017
</metadata>
<g transform="translate(0.000000,500.000000) scale(0.100000,-0.100000)"
fill="#000000" stroke="none">
<path d="M0 2500 l0 -2500 2500 0 2500 0 0 2500 0 2500 -2500 0 -2500 0 0
-2500z m1395 580 l0 -75 -262 -3 -263 -2 0 73 c0 41 3 77 7 80 4 4 122 6 262
5 l256 -3 0 -75z m559 -362 c91 -236 166 -432 166 -438 0 -6 -34 -10 -84 -10
l-84 0 -45 128 c-25 70 -65 180 -88 245 -23 65 -43 116 -45 114 -2 -2 -42
-111 -88 -243 l-84 -239 -86 -3 c-50 -2 -86 1 -86 7 0 9 327 857 337 874 3 5
9 5 13 0 5 -4 83 -200 174 -435z m587 416 c83 -26 158 -124 159 -206 l0 -38
-75 0 -75 0 -15 38 c-9 20 -25 43 -36 51 -29 18 -105 16 -134 -3 -32 -21 -50
-82 -36 -118 14 -36 66 -68 112 -68 116 0 224 -78 254 -184 30 -104 3 -202
-75 -268 -40 -35 -121 -68 -166 -68 -23 0 -24 2 -24 79 l0 79 30 6 c46 9 80
48 80 91 0 70 -33 95 -149 115 -82 14 -128 38 -173 88 -46 51 -61 98 -56 182
4 81 40 146 106 193 72 52 169 63 273 31z m614 -59 l0 -80 -127 -3 -128 -3 0
-94 0 -95 178 -2 177 -3 3 -82 3 -83 -181 0 -180 0 0 -95 0 -94 128 -3 127 -3
3 -83 3 -82 -213 2 -213 3 -3 434 c-2 341 1 436 10 443 7 4 103 7 213 5 l200
-2 0 -80z m577 56 c65 -25 119 -79 139 -137 16 -51 17 -149 0 -198 -16 -47
-71 -109 -111 -126 -17 -7 -30 -16 -30 -20 0 -4 36 -86 80 -183 44 -96 80
-180 80 -186 0 -8 -25 -11 -87 -9 l-87 3 -81 175 -81 175 -47 3 -47 3 -2 -178
-3 -178 -82 -3 -83 -3 0 260 0 259 184 4 c177 3 185 4 209 26 32 31 41 65 27
108 -19 57 -45 64 -245 64 l-175 0 0 78 c0 43 3 82 8 86 4 5 90 6 192 4 160
-4 193 -8 242 -27z m543 -291 l39 -40 -64 -65 -65 -65 -65 65 -64 65 39 40
c35 36 44 40 90 40 46 0 55 -4 90 -40z m-3057 -287 l-3 -278 -82 -3 -83 -3 0
281 0 280 85 0 85 0 -2 -277z m2862 12 l-64 -65 -43 42 c-38 37 -43 47 -43 87
0 40 5 51 42 88 l42 43 66 -65 65 -65 -65 -65z m360 65 c0 -41 -5 -50 -43 -88
l-43 -42 -64 65 -64 65 64 65 64 65 43 -42 c38 -38 43 -47 43 -88z m-165 -210
c-35 -36 -44 -40 -90 -40 -46 0 -55 4 -90 40 l-39 40 64 65 65 65 65 -65 64
-65 -39 -40z m-2875 -509 l215 -308 3 308 2 309 90 0 90 0 0 -475 0 -475 -88
0 -88 0 -214 308 -215 307 -3 -192 -2 -193 -95 0 -95 0 0 360 0 360 93 0 92
-1 215 -308z m1025 295 c258 -68 398 -360 305 -631 -77 -225 -285 -341 -531
-295 -222 41 -376 262 -355 507 19 210 141 367 326 419 60 16 193 17 255 0z
m950 -66 l0 -75 -287 -3 -288 -2 0 80 0 80 288 -2 287 -3 0 -75z m475 -5 l0
-85 -135 0 -136 0 3 -107 3 -108 193 -3 193 -2 -3 -83 -3 -82 -192 -3 -193 -2
0 -105 0 -105 135 0 135 0 0 -90 0 -90 -225 0 -225 0 0 475 0 475 225 0 225 0
0 -85z m-670 -560 l0 -305 -90 0 -90 0 0 305 0 305 90 0 90 0 0 -305z"/>
<path d="M2185 2026 c-100 -47 -157 -146 -158 -275 -3 -183 107 -311 267 -311
81 0 129 17 181 62 93 82 126 216 86 348 -19 60 -31 81 -74 124 -59 59 -104
76 -193 76 -41 0 -74 -7 -109 -24z m175 -216 c46 -46 36 -115 -22 -143 -33
-16 -40 -16 -71 -4 -60 26 -73 102 -25 147 29 27 91 27 118 0z"/>
</g>
</svg>
