<?xml version="1.0" standalone="no"?>
<!DOCTYPE svg PUBLIC "-//W3C//DTD SVG 20010904//EN"
 "http://www.w3.org/TR/2001/REC-SVG-20010904/DTD/svg10.dtd">
<svg version="1.0" xmlns="http://www.w3.org/2000/svg"
 width="512.000000pt" height="512.000000pt" viewBox="0 0 512.000000 512.000000"
 preserveAspectRatio="xMidYMid meet">
<metadata>
Created by potrace 1.14, written by Peter Selinger 2001-2017
</metadata>
<g transform="translate(0.000000,512.000000) scale(0.100000,-0.100000)"
fill="#000000" stroke="none">
<path d="M4233 5108 c-4 -7 -22 -53 -38 -101 -34 -97 -32 -95 -147 -146 -98
-43 -94 -60 22 -113 86 -39 90 -43 106 -87 71 -195 78 -199 123 -79 48 126 48
126 83 141 18 8 57 25 86 38 28 12 52 26 52 30 0 4 2 14 6 22 5 14 -5 20 -131
76 -46 20 -53 28 -69 74 -45 128 -58 157 -71 157 -8 0 -17 -6 -22 -12z"/>
<path d="M1650 4873 c-50 -18 -64 -89 -25 -128 39 -40 96 -32 121 17 33 64
-29 135 -96 111z"/>
<path d="M400 4633 c-18 -4 -24 -18 -77 -168 l-39 -109 -105 -47 c-135 -62
-139 -65 -139 -94 0 -21 12 -30 87 -65 169 -76 151 -58 208 -210 45 -122 52
-135 74 -135 21 0 28 11 58 95 19 52 38 104 43 115 5 11 11 29 15 41 4 15 39
36 126 75 94 42 121 59 126 77 8 32 -4 40 -131 98 -122 55 -112 42 -171 212
-34 97 -49 121 -75 115z"/>
<path d="M2448 4235 c-2 -1 -50 -5 -108 -8 -139 -7 -240 -22 -382 -57 -565
-141 -1041 -504 -1335 -1020 -42 -74 -62 -115 -128 -265 -42 -94 -101 -329
-126 -495 -14 -95 -19 -386 -9 -465 5 -33 11 -80 13 -105 33 -306 193 -693
405 -975 70 -94 258 -290 352 -368 256 -211 654 -394 960 -442 25 -4 54 -9 65
-11 90 -19 402 -25 540 -12 39 4 117 16 174 27 999 195 1722 1076 1714 2091 0
94 -7 198 -17 270 -2 14 -7 45 -11 70 -3 25 -20 99 -36 164 -114 454 -371 848
-758 1159 -66 53 -347 227 -366 227 -2 0 -37 16 -78 35 -125 57 -323 119 -450
140 -17 3 -57 10 -87 15 -30 6 -98 13 -150 16 -52 3 -114 7 -137 8 -23 2 -43
3 -45 1z"/>
<path d="M4870 3830 c-217 -38 -196 -361 23 -363 181 -1 257 220 115 331 -28
22 -100 39 -138 32z"/>
</g>
</svg>
