<?xml version="1.0" standalone="no"?>
<!DOCTYPE svg PUBLIC "-//W3C//DTD SVG 20010904//EN"
 "http://www.w3.org/TR/2001/REC-SVG-20010904/DTD/svg10.dtd">
<svg version="1.0" xmlns="http://www.w3.org/2000/svg"
 width="1000.000000pt" height="1000.000000pt" viewBox="0 0 1000.000000 1000.000000"
 preserveAspectRatio="xMidYMid meet">
<metadata>
Created by potrace 1.14, written by Peter Selinger 2001-2017
</metadata>
<g transform="translate(0.000000,1000.000000) scale(0.100000,-0.100000)"
fill="#000000" stroke="none">
<path d="M0 5000 l0 -5000 600 0 c388 0 599 4 595 10 -3 6 -12 10 -18 10 -15
1 -77 56 -77 70 0 5 9 14 20 20 30 16 43 46 30 70 -7 14 -8 32 -1 58 6 20 11
65 12 100 2 48 5 62 16 58 7 -3 13 -1 13 4 0 6 -4 10 -10 10 -16 0 -11 27 6
34 9 4 14 13 10 21 -7 19 4 19 29 1 12 -8 16 -19 12 -31 -6 -14 -10 -15 -22
-5 -11 9 -15 9 -15 1 0 -6 6 -14 14 -17 12 -5 12 -13 -1 -56 -12 -42 -12 -52
-1 -59 10 -7 10 -9 1 -9 -7 0 -13 -10 -13 -22 0 -20 1 -20 19 -4 19 17 19 17
14 -3 -3 -12 -1 -21 6 -21 6 0 11 -5 11 -11 0 -13 -53 -2 -58 12 -4 10 -32 13
-32 3 0 -13 44 -44 56 -40 7 3 17 -8 23 -26 14 -39 6 -50 -10 -14 -15 32 -31
34 -24 3 4 -15 1 -28 -9 -36 -23 -19 -20 -44 9 -71 13 -12 22 -26 19 -31 -2
-4 9 -4 25 1 24 7 29 5 24 -6 -4 -10 3 -14 26 -14 29 0 30 1 19 22 -7 13 -20
30 -29 38 -26 24 -34 96 -14 116 19 19 20 18 29 -18 7 -32 -8 -46 -23 -21 -16
28 -13 6 4 -26 8 -16 12 -31 8 -34 -3 -4 7 -11 22 -17 21 -8 25 -13 16 -24 -9
-10 -8 -15 4 -20 14 -5 19 4 16 32 -3 19 16 14 21 -6 3 -10 -2 -24 -10 -32
-12 -11 -13 -15 -2 -18 7 -3 19 3 26 12 11 15 13 15 27 1 14 -13 456 -15 4301
-15 l4286 0 0 5000 0 5000 -5000 0 -5000 0 0 -5000z m4638 3012 c13 -2 26 -11
29 -18 3 -8 9 -14 14 -14 4 0 6 6 3 14 -9 24 14 28 29 5 12 -16 21 -19 38 -14
13 4 84 6 158 4 75 -2 174 -3 221 -4 51 0 90 -5 98 -12 18 -17 15 -26 -8 -20
-11 3 -18 1 -14 -4 7 -13 31 -11 55 4 17 10 23 9 26 -1 3 -6 9 -10 14 -7 4 3
25 -3 46 -13 55 -28 137 -53 175 -54 18 -1 42 -7 52 -14 18 -12 17 -15 -18
-50 -26 -26 -31 -35 -17 -31 12 3 22 -1 25 -10 5 -12 -3 -14 -42 -12 -26 1
-54 8 -63 16 -13 11 -19 10 -35 -3 -10 -8 -13 -13 -6 -9 16 8 52 -3 52 -17 0
-6 -9 -8 -20 -5 -11 3 -23 1 -26 -4 -3 -5 5 -9 18 -9 13 0 34 -3 48 -6 19 -4
21 -3 10 5 -19 13 47 13 73 -1 12 -6 23 -6 31 1 10 8 20 6 37 -8 27 -22 21
-38 -8 -23 -10 6 -30 8 -44 5 -15 -3 -30 0 -33 6 -4 6 -12 11 -17 11 -6 0 5
-15 25 -33 29 -28 41 -32 71 -29 27 3 42 -1 58 -16 12 -11 34 -25 50 -31 31
-12 34 -23 11 -42 -15 -12 -19 -11 -32 9 -19 28 -50 28 -62 0 -5 -13 -9 -17
-9 -10 -1 10 -4 10 -16 -2 -19 -19 -19 -25 1 -47 19 -21 11 -39 -16 -39 -24 0
-36 18 -21 33 6 6 11 15 11 19 0 12 -51 32 -75 29 -15 -2 -17 0 -8 9 6 7 9 19
6 27 -3 7 1 21 9 31 12 15 11 20 -14 43 -15 15 -29 24 -32 21 -3 -3 -16 3 -28
14 -19 17 -21 17 -15 2 4 -10 2 -18 -3 -18 -6 0 -10 -4 -10 -9 0 -5 9 -7 20
-4 11 3 20 0 20 -6 0 -6 6 -11 14 -11 26 0 37 -25 25 -59 -6 -17 -14 -31 -17
-31 -13 0 -42 35 -42 52 0 10 -6 18 -13 18 -23 0 -28 -12 -10 -25 17 -13 10
-35 -11 -35 -8 0 -11 -10 -9 -27 2 -17 -4 -38 -15 -52 -16 -20 -22 -22 -41
-11 -19 10 -26 9 -42 -6 -10 -9 -19 -14 -19 -10 0 4 -10 -2 -22 -13 -11 -11
-25 -18 -30 -15 -4 3 -17 2 -28 -1 -15 -5 -19 -12 -14 -30 5 -19 0 -27 -27
-40 -28 -15 -30 -19 -15 -27 11 -6 15 -17 11 -31 -6 -20 -5 -21 8 -4 18 22 29
22 44 -1 13 -22 4 -42 -17 -38 -43 7 -60 19 -60 41 0 18 -4 22 -20 18 -11 -3
-23 -10 -27 -16 -4 -7 0 -8 11 -4 15 6 17 3 11 -26 -13 -58 -21 -66 -64 -60
-30 4 -43 1 -59 -15 -11 -11 -22 -19 -24 -17 -2 2 -5 -10 -6 -28 -2 -35 -31
-62 -69 -62 -15 -1 -23 5 -23 16 0 25 -19 34 -26 12 -12 -36 -39 -93 -45 -93
-8 0 -23 44 -27 78 -3 22 -23 12 -21 -10 2 -28 -10 -60 -27 -71 -10 -5 -11
-14 -4 -32 13 -34 -13 -59 -78 -75 -47 -11 -53 -16 -74 -58 -12 -26 -39 -65
-58 -87 -20 -22 -47 -62 -60 -89 -21 -45 -22 -51 -8 -74 14 -22 14 -29 1 -61
-21 -51 -52 -81 -83 -81 -14 0 -32 -6 -38 -12 -8 -8 -48 -13 -105 -15 -106 -2
-204 -17 -256 -39 -66 -28 -214 -65 -421 -105 -30 -6 -98 -25 -150 -41 -227
-72 -341 -130 -416 -210 -45 -48 -57 -52 -27 -8 29 43 88 84 203 142 73 37 55
43 -25 8 -26 -12 -62 -17 -105 -16 l-64 1 -12 40 c-7 22 -13 55 -13 73 -1 17
-5 32 -11 32 -5 0 -12 11 -16 25 -3 14 -10 25 -15 25 -5 0 -9 5 -9 11 0 6 -11
24 -25 41 -14 16 -25 24 -25 16 0 -7 -10 3 -21 22 -20 32 -22 33 -35 15 -9
-12 -14 -14 -14 -5 0 7 -3 10 -6 7 -4 -4 -2 -12 4 -20 14 -16 4 -57 -11 -51
-9 3 -11 -23 -9 -93 3 -82 1 -99 -13 -109 -13 -10 -23 -10 -41 -2 -25 12 -32
32 -14 43 6 3 10 11 10 16 0 6 -5 7 -11 3 -9 -5 -10 1 -5 22 5 20 4 26 -3 19
-21 -21 -32 -123 -30 -298 0 -98 -2 -181 -5 -184 -11 -12 -6 -68 11 -113 21
-56 20 -55 37 -41 12 10 15 6 21 -21 4 -18 12 -47 18 -65 8 -23 8 -35 -1 -45
-12 -15 -10 -178 3 -315 5 -51 4 -73 -4 -73 -6 0 -11 5 -11 11 0 5 -4 8 -9 5
-5 -3 -12 1 -15 10 -10 27 -7 44 9 44 19 0 20 24 1 39 -15 13 -27 71 -14 71 4
0 8 -13 8 -29 0 -17 4 -32 9 -35 5 -4 7 12 4 36 -4 24 -10 45 -14 46 -5 2 -9
15 -9 28 0 13 -5 24 -11 24 -6 0 -9 -7 -5 -15 3 -8 1 -15 -4 -15 -5 0 -11 10
-14 23 -3 12 -3 -5 -1 -38 3 -46 2 -53 -5 -31 -5 16 -14 32 -21 36 -8 6 -7 22
5 63 32 110 18 242 -44 411 -27 73 -45 217 -32 254 11 32 6 52 -14 52 -17 0
-19 31 -2 48 9 9 7 13 -5 18 -15 5 -15 8 -2 27 9 13 15 44 15 79 0 57 11 92
77 256 35 86 53 96 178 100 l101 4 53 102 c64 121 195 320 229 346 19 16 23
25 17 50 -6 29 -2 36 57 91 34 33 79 71 98 84 19 13 62 49 95 80 33 31 80 68
105 83 46 26 143 119 174 166 12 20 25 26 51 26 37 0 96 32 130 70 19 21 66
50 81 50 3 0 4 -7 0 -15 -4 -11 3 -9 23 6 15 11 50 23 77 26 26 3 69 15 94 28
46 23 236 85 261 85 8 0 43 16 79 35 36 19 72 32 80 28 8 -3 25 -8 38 -11z
m1009 -177 c17 -9 36 -22 43 -30 15 -18 34 -20 24 -2 -5 7 -1 7 12 -3 29 -22
30 -24 12 -17 -10 4 -18 2 -18 -3 0 -13 27 -13 35 0 4 6 1 17 -5 25 -10 13 -8
15 13 15 29 0 43 -16 38 -44 -3 -20 45 -76 63 -72 6 2 8 1 4 -1 -5 -3 -8 -11
-8 -19 0 -9 5 -12 11 -9 14 9 49 -24 49 -45 0 -19 -27 -46 -37 -37 -3 4 -7 17
-8 31 -4 37 -11 43 -54 49 -22 3 -47 11 -54 19 -7 7 -30 22 -50 33 -20 11 -37
23 -37 27 0 4 -15 14 -32 22 -18 8 -42 22 -53 31 -20 16 -20 16 -1 31 24 17
17 17 53 -1z m54 -2 c13 -15 12 -15 -11 -3 -34 17 -36 20 -18 20 9 0 22 -7 29
-17z m-76 -73 c3 -5 2 -10 -4 -10 -5 0 -13 5 -16 10 -3 6 -2 10 4 10 5 0 13
-4 16 -10z m215 0 c0 -5 -2 -10 -4 -10 -3 0 -8 5 -11 10 -3 6 -1 10 4 10 6 0
11 -4 11 -10z m-150 -68 c0 -21 -2 -24 -10 -12 -13 20 -13 53 0 45 6 -3 10
-18 10 -33z m57 -21 c7 -10 9 -22 6 -25 -12 -12 -21 -6 -25 19 -6 30 3 32 19
6z m-137 -1 c0 -5 -2 -10 -4 -10 -3 0 -8 5 -11 10 -3 6 -1 10 4 10 6 0 11 -4
11 -10z m-282 -296 c30 -20 28 -48 -4 -63 -22 -10 -30 -9 -45 5 -23 21 -24 32
-2 56 20 22 23 22 51 2z m-103 -14 c3 -5 -1 -10 -9 -10 -9 0 -16 5 -16 10 0 6
4 10 9 10 6 0 13 -4 16 -10z m45 -59 c0 -11 -6 -9 -20 7 -11 12 -20 24 -20 27
0 3 9 0 20 -7 11 -7 20 -19 20 -27z m188 2 c-3 -42 -22 -52 -53 -29 -17 12
-18 17 -7 40 8 18 19 26 37 26 24 0 26 -3 23 -37z m-21 -189 c-14 -82 -69
-114 -75 -42 -4 42 24 78 59 78 19 0 21 -4 16 -36z m-386 -104 c25 -14 24 -25
-8 -66 -34 -45 -70 -45 -65 1 4 34 27 75 43 75 6 0 19 -5 30 -10z m-1241 -760
c0 -5 -5 -10 -11 -10 -5 0 -7 5 -4 10 3 6 8 10 11 10 2 0 4 -4 4 -10z m2890
-52 c0 -6 -7 -5 -15 2 -8 7 -15 17 -15 22 0 6 7 5 15 -2 8 -7 15 -17 15 -22z
m-462 -35 c-10 -2 -26 -2 -35 0 -10 3 -2 5 17 5 19 0 27 -2 18 -5z m49 -9 c-3
-3 -12 -4 -19 -1 -8 3 -5 6 6 6 11 1 17 -2 13 -5z m90 -10 c-3 -3 -12 -4 -19
-1 -8 3 -5 6 6 6 11 1 17 -2 13 -5z m88 -14 c13 -6 5 -7 -25 -3 -25 3 -47 7
-49 9 -9 8 55 2 74 -6z m-3005 -40 c-14 -4 -34 -8 -45 -8 -16 0 -15 2 5 8 14
4 34 8 45 8 16 0 15 -2 -5 -8z m3157 4 c-3 -3 -12 -4 -19 -1 -8 3 -5 6 6 6 11
1 17 -2 13 -5z m-3230 -20 c-3 -3 -12 -4 -19 -1 -8 3 -5 6 6 6 11 1 17 -2 13
-5z m-94 -37 c-64 -33 -129 -87 -177 -147 l-28 -35 19 34 c25 47 113 124 175
155 75 37 85 32 11 -7z m3049 -539 c-6 -6 -15 -8 -19 -4 -4 4 -1 11 7 16 19
12 27 3 12 -12z m-212 -15 c0 -5 -4 -14 -9 -21 -7 -11 -9 -11 -14 1 -3 8 -3
18 0 21 9 8 23 7 23 -1z m-65 -13 c-3 -5 -11 -10 -16 -10 -6 0 -7 5 -4 10 3 6
11 10 16 10 6 0 7 -4 4 -10z m-3185 -221 c0 -199 -8 -241 -30 -158 -14 50 -14
308 0 344 22 58 30 10 30 -186z m3077 189 c-3 -8 -6 -5 -6 6 -1 11 2 17 5 13
3 -3 4 -12 1 -19z m-212 -32 c39 -24 79 -52 90 -61 25 -20 -42 17 -113 63 -51
33 -53 34 -67 16 -8 -11 -15 -14 -15 -8 0 11 20 34 30 34 3 0 37 -20 75 -44z
m167 -33 l-2 -78 52 -56 53 -56 2 72 c2 40 10 97 18 126 l15 54 -4 -55 c-4
-48 -4 -52 7 -32 13 22 13 21 14 -13 1 -28 -2 -33 -11 -25 -10 7 -16 0 -24
-29 -15 -49 -15 -74 0 -89 8 -8 8 -15 -2 -27 -26 -32 4 -13 37 22 40 45 43 89
5 87 -26 -1 -18 11 16 21 19 5 22 3 22 -22 0 -22 2 -25 10 -13 7 11 10 11 10
2 0 -18 -18 -51 -48 -87 l-24 -30 41 -36 c22 -20 41 -42 41 -48 0 -6 7 -14 15
-17 17 -7 20 -40 4 -49 -5 -4 -19 1 -30 11 -10 9 -20 15 -22 13 -28 -47 -35
-71 -28 -96 l8 -28 47 49 c25 27 49 60 51 73 3 12 7 34 10 48 7 30 33 44 46
24 14 -23 -11 -82 -28 -66 -4 4 -1 13 5 19 15 15 16 48 2 48 -5 0 -11 -10 -11
-22 -3 -54 -8 -67 -43 -117 -21 -29 -32 -50 -25 -46 7 5 17 1 25 -10 12 -16
14 -17 20 -2 7 19 24 23 24 5 0 -14 -30 -48 -42 -48 -4 0 -8 12 -8 28 l-1 27
-12 -23 c-7 -12 -16 -19 -20 -16 -4 4 -7 -2 -7 -14 0 -11 -8 -26 -17 -32 -16
-10 -16 -11 -1 -6 9 3 18 0 20 -6 3 -7 26 6 54 28 41 33 48 44 46 67 -2 17 3
36 13 47 9 10 20 48 25 87 l9 68 -3 -72 c-2 -71 5 -91 19 -55 6 16 7 16 17 -2
12 -22 -3 -36 -41 -36 -21 0 -23 -3 -17 -32 5 -32 2 -37 -111 -133 -159 -136
-329 -250 -481 -323 l-42 -20 -16 36 c-15 36 -15 36 18 61 18 14 48 40 67 57
l35 31 -17 35 c-25 54 -26 83 -2 83 14 0 26 -13 39 -42 11 -24 23 -43 26 -43
4 0 19 10 34 21 20 15 24 25 17 32 -6 6 -11 20 -10 31 0 17 2 16 11 -6 12 -34
21 -35 60 -7 26 19 29 26 23 56 -3 18 -16 55 -27 81 -12 26 -20 54 -19 62 1 9
-3 7 -13 -6 -9 -12 -48 -53 -87 -90 -40 -38 -109 -111 -156 -163 -66 -74 -81
-96 -72 -107 13 -16 1 -18 -20 -5 -15 10 -5 35 27 65 12 10 18 23 16 30 -3 7
2 19 11 26 8 7 15 10 15 6 0 -3 9 2 20 11 14 12 16 20 9 29 -7 9 -3 16 17 26
36 17 43 39 12 33 -27 -5 -60 -42 -106 -116 -49 -81 -57 -90 -76 -83 -14 6
-12 11 17 38 19 17 54 61 79 98 l46 66 -19 31 c-10 17 -36 48 -59 71 -22 22
-35 40 -30 40 6 0 31 -22 57 -49 l47 -50 23 37 c12 20 39 68 60 105 21 38 46
79 56 90 21 26 -54 -123 -83 -162 -29 -42 -34 -75 -14 -92 13 -11 18 -11 21
-1 3 7 14 17 26 23 18 9 20 9 10 -2 -19 -19 -16 -31 5 -20 23 14 77 61 68 61
-4 0 -17 -5 -29 -11 -22 -12 -22 -12 -3 10 11 12 26 19 33 16 8 -2 11 -1 8 4
-3 6 10 21 29 36 19 14 37 33 40 41 6 15 -19 57 -63 107 -14 15 -20 27 -14 27
10 0 58 -55 79 -93 10 -18 12 -17 30 12 11 16 47 59 81 94 l61 64 -43 56 c-24
30 -50 57 -57 59 -17 6 -12 168 5 168 1 0 1 -35 -1 -77z m178 61 c0 -7 2 -19
5 -27 4 -8 0 -14 -9 -14 -8 0 -16 12 -18 27 -3 17 1 27 9 27 7 0 13 -6 13 -13z
m221 -70 c54 -47 99 -87 99 -89 0 -2 3 -10 6 -18 3 -9 -21 10 -53 42 -32 31
-83 78 -113 104 -30 26 -51 47 -47 47 5 0 53 -39 108 -86z m-307 47 c-8 -16
-22 -32 -30 -35 -11 -4 -15 -14 -12 -31 3 -13 1 -22 -3 -19 -5 3 -9 20 -9 37
1 29 20 51 67 76 1 1 -5 -12 -13 -28z m-3097 -23 c-3 -8 -6 -5 -6 6 -1 11 2
17 5 13 3 -3 4 -12 1 -19z m173 -100 c7 -117 1 -167 -12 -88 -9 58 -10 215 -1
207 3 -4 9 -57 13 -119z m3059 67 c1 -17 -1 -17 -9 -5 -5 8 -9 26 -9 40 0 23
1 23 9 5 5 -11 9 -29 9 -40z m215 21 c-3 -9 -10 -16 -15 -16 -6 0 -5 9 1 21
13 24 24 20 14 -5z m-471 -21 c-3 -9 -8 -14 -10 -11 -3 3 -2 9 2 15 9 16 15
13 8 -4z m347 -42 c0 -7 9 -22 20 -33 19 -19 19 -20 2 -20 -13 0 -23 12 -31
38 -7 20 -15 44 -17 52 -3 9 1 7 10 -4 9 -11 16 -26 16 -33z m-621 -12 c-6
-18 -13 -30 -15 -28 -2 2 1 18 7 36 6 18 13 30 15 28 2 -2 -1 -18 -7 -36z
m271 7 c0 -5 -8 -22 -19 -36 -10 -15 -36 -60 -57 -101 -21 -41 -40 -69 -42
-62 -2 6 4 24 14 39 28 42 84 156 84 170 0 7 5 10 10 7 6 -3 10 -11 10 -17z
m247 0 c-3 -8 -6 -5 -6 6 -1 11 2 17 5 13 3 -3 4 -12 1 -19z m1049 -168 c-16
-61 -43 -117 -52 -107 -2 2 0 17 5 33 5 16 12 59 15 96 3 37 11 79 16 93 6 15
11 38 11 53 1 15 6 -2 12 -38 9 -53 7 -76 -7 -130z m-1183 141 c2 -10 1 -24
-3 -31 -5 -7 -9 2 -12 23 -4 37 6 42 15 8z m298 6 c-10 -9 -11 -8 -5 6 3 10 9
15 12 12 3 -3 0 -11 -7 -18z m-706 -49 c-5 -19 5 -30 61 -68 37 -25 69 -43 72
-42 5 4 22 -19 22 -30 0 -5 -21 9 -47 29 -27 20 -68 45 -93 57 -46 21 -46 21
-30 49 18 33 22 34 15 5z m564 -15 c-12 -33 -38 -63 -52 -63 -6 0 1 12 15 28
14 15 28 35 31 45 4 9 9 17 11 17 3 0 1 -12 -5 -27z m136 -60 c-7 -59 -21 -65
-16 -7 3 38 -4 42 -31 17 -10 -9 -18 -12 -18 -7 0 5 14 18 30 27 18 11 30 27
31 40 1 19 2 19 6 3 3 -10 2 -43 -2 -73z m-568 5 c-3 -8 -6 -5 -6 6 -1 11 2
17 5 13 3 -3 4 -12 1 -19z m650 16 c-3 -3 -12 -4 -19 -1 -8 3 -5 6 6 6 11 1
17 -2 13 -5z m22 -99 c-18 -52 -36 -95 -40 -95 -3 0 10 45 30 99 20 55 38 98
40 95 2 -2 -11 -46 -30 -99z m-828 67 c-9 -31 -50 -111 -51 -100 0 4 9 27 19
50 11 24 22 51 25 61 9 29 15 19 7 -11z m579 -6 c0 -2 -7 -7 -16 -10 -8 -3
-12 -2 -9 4 6 10 25 14 25 6z m55 -16 c-9 -10 -15 -26 -12 -34 4 -9 2 -18 -2
-21 -5 -3 -11 13 -13 35 -3 37 -2 40 21 40 23 0 24 -1 6 -20z m135 -61 c15
-34 4 -53 -13 -24 -11 19 -12 18 -18 -10 -5 -24 -7 -20 -8 22 -1 41 2 51 13
47 8 -3 20 -19 26 -35z m-3605 -83 c14 -30 34 -64 44 -77 10 -13 23 -35 30
-49 12 -24 11 -24 -11 3 -30 34 -84 125 -93 155 -12 40 4 23 30 -32z m23 29
c-3 -3 -9 2 -12 12 -6 14 -5 15 5 6 7 -7 10 -15 7 -18z m2721 -74 c-22 -51
-46 -102 -53 -114 -8 -12 -20 -40 -27 -62 -7 -22 -14 -34 -17 -27 -5 17 126
307 135 298 1 -1 -16 -44 -38 -95z m861 59 c0 -5 -4 -10 -10 -10 -5 0 -10 5
-10 10 0 6 5 10 10 10 6 0 10 -4 10 -10z m5 -69 c-15 -30 -35 -42 -35 -21 0 6
4 10 9 10 5 0 14 14 22 32 7 17 15 26 17 20 2 -6 -4 -24 -13 -41z m-908 -15
c4 -4 -6 -4 -22 0 -38 9 -75 22 -75 27 0 6 88 -18 97 -27z m-2563 -134 c-30
-4 -27 -26 4 -30 30 -5 35 -17 72 -172 36 -151 101 -363 125 -411 9 -17 13
-29 8 -26 -5 3 -19 26 -32 51 -21 44 -35 60 -27 34 2 -7 10 -42 17 -78 6 -36
18 -78 26 -93 8 -16 13 -31 10 -33 -2 -2 -18 28 -37 66 -18 39 -34 69 -37 67
-2 -3 0 -15 6 -28 5 -13 15 -44 22 -69 6 -25 18 -55 26 -68 8 -13 15 -40 17
-60 1 -20 4 -41 6 -47 5 -21 -1 -35 -16 -35 -13 0 -11 -8 10 -47 l26 -48 -35
40 c-19 22 -44 59 -56 83 -20 41 -83 112 -100 112 -15 0 5 -47 41 -95 21 -27
50 -75 65 -105 24 -48 88 -145 105 -160 3 -3 15 -18 27 -35 17 -24 18 -32 8
-42 -10 -9 -30 2 -92 52 -92 72 -117 84 -128 58 -5 -14 11 -35 70 -89 65 -61
77 -76 81 -110 3 -27 13 -46 32 -62 18 -15 21 -20 8 -16 -16 6 -18 4 -13 -17
4 -13 7 -36 7 -51 0 -45 45 -84 178 -153 125 -65 172 -98 159 -111 -9 -10
-180 52 -256 92 -36 18 -66 32 -68 30 -2 -2 21 -31 53 -65 l56 -61 -38 0 c-31
-1 -36 -3 -21 -11 9 -5 17 -14 17 -19 0 -5 47 -56 104 -112 80 -79 112 -119
139 -173 19 -38 47 -81 61 -94 28 -27 33 -41 14 -41 -7 0 -20 -5 -28 -10 -13
-9 -13 -11 0 -19 12 -8 12 -12 -3 -29 -17 -18 -16 -22 12 -84 16 -36 34 -69
40 -72 6 -4 11 -16 11 -26 0 -11 14 -29 30 -42 17 -12 30 -29 30 -37 0 -9 17
-40 37 -70 40 -58 39 -53 33 -206 -1 -33 0 -82 4 -110 l7 -50 -20 37 c-31 55
-71 203 -71 261 0 35 -7 63 -24 92 -14 23 -36 71 -49 106 -42 111 -82 180
-172 297 -55 72 -115 136 -163 175 -71 58 -133 111 -240 207 -24 21 -66 50
-95 64 l-51 26 -12 -21 c-9 -18 -12 -19 -17 -6 -3 9 -1 18 6 21 7 2 4 5 -6 5
-20 1 -72 37 -125 85 -20 18 -33 25 -31 16 7 -36 -60 -127 -140 -190 -46 -36
-67 -79 -32 -64 134 57 344 103 367 79 7 -7 43 -19 79 -26 36 -7 65 -18 65
-24 0 -6 18 -25 40 -41 22 -17 55 -49 72 -72 18 -22 67 -83 109 -134 42 -51
89 -113 104 -138 21 -33 139 -260 173 -331 2 -4 -16 -10 -40 -13 -24 -4 -50
-11 -58 -17 -11 -8 -9 -9 12 -5 15 4 45 3 66 0 32 -5 42 -12 56 -40 9 -19 16
-38 16 -43 0 -4 -31 -11 -70 -14 -106 -9 -117 -24 -15 -21 81 3 86 2 95 -19 9
-20 39 -138 54 -212 6 -28 5 -29 -9 -11 -15 19 -15 19 -15 -3 0 -18 -4 -22
-20 -18 -13 3 -20 0 -20 -10 0 -8 -4 -11 -10 -8 -5 3 -10 -1 -10 -10 0 -11 -5
-15 -15 -11 -10 4 -15 -1 -15 -17 -1 -19 -4 -16 -20 13 -12 22 -19 28 -20 18
0 -17 -19 -26 -21 -10 0 4 -2 17 -3 30 -2 12 -8 28 -14 34 -12 12 -17 -26 -14
-110 1 -20 -4 -35 -13 -39 -19 -7 -19 -23 0 -23 8 0 15 -9 15 -20 0 -11 -4
-20 -10 -20 -5 0 -10 5 -10 10 0 6 -7 10 -16 10 -8 0 -13 4 -9 9 3 6 -4 9 -15
8 -22 -1 -26 -17 -9 -34 7 -7 6 -12 -5 -16 -12 -5 -20 10 -36 66 -28 95 -30
101 -35 96 -9 -9 50 -229 60 -226 5 2 9 12 8 22 0 9 7 25 18 36 23 23 33 24
25 3 -5 -12 -2 -15 13 -11 10 2 25 1 32 -4 10 -6 6 -9 -14 -9 -30 0 -47 -24
-28 -43 8 -8 11 -7 11 6 0 20 7 21 39 3 15 -8 20 -16 12 -20 -6 -4 -16 -4 -23
0 -7 4 -8 3 -4 -4 11 -18 46 -14 46 5 0 9 3 13 7 9 4 -4 7 -19 8 -34 0 -20 6
-28 23 -30 19 -3 22 1 22 32 0 45 14 46 28 4 9 -30 11 -31 17 -12 5 16 13 20
31 16 30 -6 54 -57 54 -116 0 -39 -3 -42 -50 -68 -43 -24 -50 -32 -50 -58 0
-16 5 -30 10 -30 6 0 10 -7 10 -15 0 -20 16 -19 24 1 3 9 15 14 28 12 13 -2
21 -6 18 -9 -7 -9 31 -50 40 -44 12 7 20 -21 9 -32 -6 -6 -5 -22 2 -42 6 -18
9 -52 6 -76 -6 -44 -42 -115 -58 -115 -5 0 -9 -5 -9 -11 0 -8 4 -8 13 -1 9 8
17 3 29 -19 9 -16 13 -29 8 -29 -5 0 -12 9 -15 20 -4 11 -10 18 -15 15 -12 -7
0 -46 16 -52 18 -7 17 -43 -1 -66 -10 -15 -18 -16 -32 -9 -17 10 -17 11 0 17
9 4 17 15 17 24 -1 12 -7 9 -26 -13 -23 -26 -24 -30 -10 -45 23 -25 20 -34 -4
-14 -11 10 -20 22 -20 27 0 5 -9 24 -21 43 -17 26 -24 31 -35 23 -11 -10 -8
-16 14 -35 26 -22 26 -24 9 -43 -23 -25 -51 -18 -67 16 l-13 27 -6 -25 c-5
-18 -9 -21 -15 -12 -11 18 -15 112 -4 112 4 0 8 9 8 20 0 11 -4 20 -10 20 -5
0 -10 -8 -10 -17 0 -15 -2 -16 -10 -3 -6 9 -5 17 1 21 15 9 7 62 -11 67 -13 4
-13 3 -2 -11 11 -13 11 -22 1 -51 -11 -29 -10 -40 1 -61 10 -19 11 -28 2 -37
-9 -9 -12 -9 -12 0 0 7 -5 12 -11 12 -8 0 -8 -4 1 -15 6 -8 8 -20 4 -26 -11
-19 -6 -82 8 -90 7 -4 9 -12 4 -16 -20 -20 -36 33 -37 121 0 50 -5 118 -9 151
-5 33 -14 119 -20 190 -11 142 -20 203 -56 399 -37 197 -58 256 -88 239 -6 -3
-8 -3 -4 2 4 4 0 14 -8 22 -11 12 -12 18 -3 29 9 11 8 14 -7 14 -16 0 -16 2 3
23 30 34 36 57 14 57 -10 0 -21 -7 -25 -15 -3 -8 -12 -15 -21 -15 -16 0 -20
-12 -8 -23 10 -11 16 -277 6 -277 -13 0 -48 106 -77 231 -14 58 -37 136 -51
172 -23 57 -31 67 -51 67 -16 0 -24 -5 -23 -17 0 -11 3 -13 6 -5 7 18 20 15
26 -7 3 -12 0 -18 -7 -15 -16 6 -8 -64 10 -91 18 -26 18 -35 -3 -35 -13 0 -14
-3 -5 -12 22 -22 14 -44 -15 -42 -22 1 -28 6 -30 27 -1 15 2 27 8 27 5 0 9 7
9 15 0 8 -9 15 -19 15 -11 0 -29 12 -40 28 -16 21 -20 23 -21 9 0 -14 -4 -16
-19 -7 -15 7 -23 6 -35 -5 -9 -10 -17 -11 -21 -5 -4 6 -11 8 -16 5 -5 -4 -9
-1 -9 4 0 6 -4 11 -10 11 -5 0 -9 -8 -8 -18 3 -35 -2 -53 -13 -46 -6 3 -8 17
-4 32 l6 26 -21 -19 c-14 -13 -20 -28 -17 -42 6 -31 -7 -29 -21 3 -8 16 -16
22 -25 17 -6 -4 -20 -6 -31 -4 -11 2 -17 -2 -14 -11 3 -8 17 -12 39 -10 l34 4
-37 -39 c-20 -21 -45 -52 -55 -69 -68 -115 -96 -141 -118 -111 -7 10 -17 17
-23 17 -6 0 -14 14 -17 32 -4 17 -13 37 -19 43 -6 7 -22 45 -35 86 -13 41 -34
84 -46 95 -13 12 -20 26 -15 30 8 9 13 49 11 92 -1 25 -21 31 -21 6 0 -11 -6
-14 -20 -9 -16 5 -19 3 -13 -11 5 -13 2 -15 -15 -10 -16 5 -25 1 -37 -18 -9
-14 -14 -30 -10 -36 3 -5 0 -10 -7 -10 -7 -1 -2 -7 12 -15 14 -8 20 -14 13
-15 -16 0 -96 -137 -88 -150 3 -5 -6 -12 -19 -16 -21 -5 -24 -9 -16 -24 7 -13
4 -30 -9 -61 -11 -23 -17 -47 -15 -54 3 -6 -2 -17 -10 -24 -8 -7 -12 -21 -8
-33 4 -16 2 -19 -9 -13 -11 7 -12 6 -2 -6 7 -9 8 -20 3 -29 -5 -8 -6 -18 -3
-24 4 -5 -3 -7 -15 -4 -12 3 -26 0 -32 -8 -15 -17 -3 -57 16 -50 17 6 17 5 0
-64 -18 -72 -25 -87 -42 -94 -37 -14 -57 19 -29 48 8 8 15 18 15 23 -1 4 -10
-3 -21 -16 -26 -31 -36 -17 -33 44 2 34 -1 45 -12 45 -7 0 -14 4 -14 9 0 5 -3
18 -6 28 -5 17 -4 16 10 -1 9 -11 17 -18 19 -15 9 10 16 70 8 65 -5 -3 -14 1
-22 10 -10 13 -9 16 9 21 31 8 27 31 -4 31 -15 0 -30 6 -35 13 -6 10 -10 7
-17 -11 -7 -17 -6 -30 1 -38 14 -17 -12 -36 -29 -21 -7 6 -16 4 -24 -6 -7 -8
-9 -15 -4 -15 5 0 2 -5 -6 -10 -13 -8 -13 -11 1 -22 9 -7 20 -26 23 -41 6 -25
10 -28 34 -22 26 6 26 6 8 -14 -12 -13 -26 -19 -38 -15 -10 3 -18 0 -18 -6 0
-6 5 -8 10 -5 25 15 1 -31 -42 -80 -9 -11 -24 -29 -33 -40 -14 -18 -15 -14 -9
53 6 62 4 72 -10 72 -9 0 -16 -6 -16 -13 0 -8 -9 -22 -20 -32 -24 -22 -25 -18
-4 31 11 26 14 51 9 81 -4 28 -2 49 5 58 8 9 8 15 0 20 -6 4 -13 -6 -16 -24
-5 -26 -10 -30 -29 -25 -13 3 -26 1 -29 -5 -9 -14 -36 -2 -36 15 0 14 16 32
58 66 15 12 22 29 22 53 0 19 -4 35 -9 35 -27 0 -95 -134 -84 -167 2 -6 -1
-14 -6 -18 -7 -4 -9 15 -5 57 10 125 26 181 79 287 29 58 56 117 60 131 18 62
60 158 81 186 13 17 20 35 16 39 -4 3 -1 5 7 3 8 -1 17 5 19 14 2 13 -1 16
-12 12 -10 -4 -18 0 -22 10 -10 25 -21 19 -28 -15 -3 -17 -10 -28 -16 -24 -5
3 -21 -12 -34 -34 -14 -22 -35 -45 -47 -51 -11 -7 -25 -25 -31 -41 -6 -16 -23
-36 -38 -44 -27 -14 -29 -13 -35 5 -8 25 -37 26 -57 3 -43 -49 -111 -214 -102
-249 4 -16 2 -24 -7 -24 -10 0 -11 -2 -2 -8 8 -5 9 -20 1 -55 -11 -53 -30 -65
-23 -14 l5 32 -15 -33 c-8 -17 -17 -32 -18 -32 -2 0 2 26 10 58 47 203 157
399 322 577 126 137 194 199 272 250 37 24 88 60 114 80 27 20 76 49 109 64
l61 28 0 73 c0 58 -3 75 -17 84 -22 14 -50 -12 -73 -66 -20 -51 -11 -48 15 3
12 23 24 39 26 36 8 -8 -28 -87 -46 -100 -9 -6 -20 -24 -23 -38 -4 -15 -16
-37 -26 -50 -31 -38 52 196 87 245 54 76 72 121 72 185 0 33 -5 63 -10 66 -10
6 25 61 63 99 13 12 15 22 8 29 -6 6 -5 14 4 23 7 8 15 19 17 25 2 7 22 13 43
15 22 1 41 3 43 3 12 3 -38 68 -78 102 -27 23 -50 48 -50 55 0 18 -61 77 -70
67 -15 -16 -30 -77 -30 -117 0 -31 3 -37 10 -26 9 13 12 13 21 -3 6 -10 28
-31 49 -46 l39 -28 -45 -34 c-25 -18 -41 -35 -35 -37 6 -2 6 -15 1 -33 -7 -25
-6 -30 5 -25 21 8 27 -10 9 -25 -9 -7 -23 -30 -31 -51 -8 -21 -21 -38 -28 -38
-9 0 -15 -30 -20 -100 -3 -55 -10 -102 -13 -104 -12 -7 -6 268 6 291 18 33 15
298 -3 351 -19 54 -34 161 -24 167 14 9 51 -64 44 -87 -6 -22 -6 -22 9 -4 10
13 16 40 16 77 0 48 -3 59 -19 64 -10 3 -26 14 -36 25 -24 26 -49 26 -42 1 4
-16 1 -18 -17 -11 -19 7 -21 15 -19 70 1 35 7 84 13 110 9 36 9 58 0 91 -21
76 -5 179 40 268 82 161 128 231 216 323 l89 95 99 31 c114 38 289 60 312 41
10 -8 18 -8 27 0 10 8 17 7 25 -1 9 -9 12 -7 12 8 0 16 4 14 24 -11 l24 -30
-24 -3z m2496 -87 c-11 -30 -52 -87 -58 -81 -2 2 4 16 12 30 9 14 23 37 31 51
20 32 27 32 15 0z m-289 -38 c-10 -9 -11 -8 -5 6 3 10 9 15 12 12 3 -3 0 -11
-7 -18z m319 3 c0 -5 -4 -10 -10 -10 -5 0 -10 5 -10 10 0 6 5 10 10 10 6 0 10
-4 10 -10z m20 -57 c-11 -17 -11 -17 -6 0 3 10 7 26 7 35 1 15 2 15 6 0 2 -10
-1 -25 -7 -35z m583 7 c-3 -12 -8 -19 -11 -16 -5 6 5 36 12 36 2 0 2 -9 -1
-20z m-2076 -644 c21 -8 63 -20 93 -26 30 -6 65 -13 78 -16 13 -2 20 -9 17
-14 -4 -6 -13 -7 -24 -1 -10 6 -23 6 -31 1 -11 -7 -8 -10 12 -15 15 -4 32 -4
38 0 5 3 22 -3 36 -14 32 -25 31 -25 -69 -6 -43 8 -96 15 -116 15 -71 0 -183
53 -167 79 10 15 88 14 133 -3z m834 -162 c12 -15 11 -16 -11 -9 l-25 8 25
-21 c20 -17 23 -24 14 -39 -15 -24 -50 -28 -80 -9 -31 21 -30 31 2 61 31 29
56 32 75 9z m-2678 -14 c13 -15 14 -20 3 -20 -7 0 -16 9 -19 20 -3 11 -4 20
-3 20 1 0 9 -9 19 -20z m1107 -250 c0 -5 -4 -10 -10 -10 -5 0 -10 5 -10 10 0
6 5 10 10 10 6 0 10 -4 10 -10z m55 -80 c10 -11 16 -20 13 -20 -3 0 -13 9 -23
20 -10 11 -16 20 -13 20 3 0 13 -9 23 -20z m-1011 -144 c-21 -15 -30 -14 -19
3 3 6 14 11 23 11 13 0 13 -2 -4 -14z m1826 -6 c8 -5 11 -10 5 -10 -5 0 -17 5
-25 10 -8 5 -10 10 -5 10 6 0 17 -5 25 -10z m-17 -56 c9 -3 13 -13 9 -26 -3
-15 -1 -19 9 -16 8 3 13 13 11 23 -3 16 2 17 50 12 29 -4 54 -11 56 -17 2 -6
9 -7 14 -4 6 4 17 -1 25 -11 7 -11 13 -14 13 -7 0 16 31 3 53 -22 15 -17 18
-18 13 -3 -5 16 -4 16 25 1 17 -8 49 -19 72 -24 l42 -8 -35 -1 c-45 -1 -65
-18 -45 -37 7 -8 26 -14 42 -15 15 0 37 -4 48 -9 17 -7 15 -9 -11 -9 -57 -2
-204 29 -267 55 -141 58 -168 74 -166 103 0 12 3 11 9 -4 8 -19 9 -19 9 3 1
24 2 25 24 16z m391 -130 c37 -7 27 -13 -19 -11 -31 1 -50 7 -53 16 -4 11 2
12 24 6 16 -4 37 -9 48 -11z m76 6 c0 -5 -4 -10 -10 -10 -5 0 -10 5 -10 10 0
6 5 10 10 10 6 0 10 -4 10 -10z m47 -6 c-3 -3 -12 -4 -19 -1 -8 3 -5 6 6 6 11
1 17 -2 13 -5z m-322 -57 c66 -20 138 -40 160 -46 l40 -10 -49 5 c-71 8 -188
41 -248 69 -61 29 -62 29 97 -18z m-2093 11 c-7 -7 -12 -8 -12 -2 0 14 12 26
19 19 2 -3 -1 -11 -7 -17z m2492 13 c10 -16 -37 -20 -58 -5 -19 13 -19 14 16
14 20 0 39 -4 42 -9z m51 -11 c3 -5 2 -10 -4 -10 -5 0 -13 5 -16 10 -3 6 -2
10 4 10 5 0 13 -4 16 -10z m-158 -6 c-3 -3 -12 -4 -19 -1 -8 3 -5 6 6 6 11 1
17 -2 13 -5z m-575 -52 c87 -33 67 -40 -29 -10 -34 10 -54 28 -31 28 7 0 34
-8 60 -18z m2423 -72 c3 -11 11 -20 16 -20 18 0 8 -15 -18 -28 -33 -15 -55 1
-24 17 24 13 29 36 6 27 -15 -5 -20 5 -8 17 12 12 22 7 28 -13z m62 -22 c-3
-8 -6 -5 -6 6 -1 11 2 17 5 13 3 -3 4 -12 1 -19z m-7 -22 c0 -2 -7 -9 -15 -16
-13 -11 -14 -10 -9 4 5 14 24 23 24 12z m-2442 -25 c31 -11 83 -19 115 -20 45
0 70 -7 104 -27 35 -20 42 -29 32 -36 -10 -7 -9 -8 6 -4 28 7 57 -17 48 -40
-6 -17 -5 -18 11 -4 16 12 19 12 27 -3 5 -9 26 -19 47 -23 20 -3 51 -15 68
-25 17 -11 39 -19 48 -19 9 0 16 -4 16 -10 0 -5 -8 -10 -18 -10 -10 0 -24 -6
-31 -12 -11 -11 -12 -9 -6 10 4 13 2 22 -4 22 -6 0 -11 -3 -11 -8 0 -4 -9 -13
-21 -20 -16 -10 -24 -10 -35 -1 -7 6 -20 9 -28 6 -8 -3 -30 -1 -48 4 -18 6
-44 12 -58 15 -14 2 -36 7 -50 11 -14 3 -31 5 -37 4 -7 -1 -13 2 -13 8 0 5
-16 15 -35 21 -19 6 -35 17 -35 24 0 7 -18 25 -40 42 -22 16 -48 43 -59 60
-10 18 -32 35 -52 41 -19 6 -26 11 -16 12 10 1 43 -8 75 -18z m-111 -14 c4 -7
0 -8 -11 -4 -10 4 -22 7 -27 7 -5 0 -9 4 -9 9 0 12 38 2 47 -12z m2454 -4 c13
-16 12 -17 -3 -4 -10 7 -18 15 -18 17 0 8 8 3 21 -13z m-2374 -9 c-3 -3 -12
-4 -19 -1 -8 3 -5 6 6 6 11 1 17 -2 13 -5z m2148 -27 c7 -7 6 -8 -2 -3 -6 3
-13 2 -15 -4 -1 -5 -13 -7 -25 -4 -14 4 -20 11 -16 20 6 16 40 10 58 -9z
m-463 -43 c21 -15 36 -29 34 -31 -6 -7 -60 23 -75 41 -20 24 -2 19 41 -10z
m43 6 c8 -13 -5 -13 -25 0 -13 8 -13 10 2 10 9 0 20 -4 23 -10z m-2110 -695
c10 -36 16 -68 13 -70 -3 -3 -13 22 -23 57 -9 34 -20 69 -23 77 -3 8 -1 12 5
8 6 -4 19 -36 28 -72z m556 -92 c11 -18 27 -33 35 -33 8 0 14 -7 14 -16 0 -14
-3 -14 -15 -4 -9 8 -15 9 -15 2 0 -14 18 -25 44 -26 26 -1 34 -37 12 -55 -13
-11 -18 -10 -31 2 -8 9 -15 20 -15 26 0 6 -4 11 -10 11 -5 0 -10 -7 -10 -16 0
-10 -4 -12 -12 -7 -7 4 -15 8 -18 8 -19 2 -70 32 -70 42 0 6 -10 28 -21 48
l-22 36 22 23 c11 12 21 32 21 45 0 20 3 19 35 -15 19 -20 45 -52 56 -71z
m-1917 35 c-9 -14 -23 2 -17 18 4 12 8 13 14 3 4 -7 5 -17 3 -21z m659 -125
c-7 -2 -19 -2 -25 0 -7 3 -2 5 12 5 14 0 19 -2 13 -5z m57 -49 c0 -8 -5 -12
-10 -9 -6 4 -8 11 -5 16 9 14 15 11 15 -7z m2238 -176 c23 -7 32 -15 28 -25
-3 -8 -6 -19 -6 -25 0 -13 -168 -4 -251 13 -30 6 -133 11 -229 11 -96 -1 -202
2 -235 6 l-60 7 86 14 c67 11 94 11 119 2 25 -8 76 -8 199 0 91 5 170 11 175
13 19 5 143 -6 174 -16z m-853 -42 c-22 -7 -55 -20 -73 -30 -40 -21 -53 -14
-28 13 16 18 44 24 121 29 11 0 2 -5 -20 -12z m-2315 -96 c0 -5 -5 -10 -11
-10 -5 0 -7 5 -4 10 3 6 8 10 11 10 2 0 4 -4 4 -10z m-470 -64 c0 -3 -4 -8
-10 -11 -5 -3 -10 -1 -10 4 0 6 5 11 10 11 6 0 10 -2 10 -4z m3770 -130 c0
-26 -8 -41 -39 -68 -47 -43 -194 -118 -230 -118 -20 0 -12 7 35 28 33 15 73
35 90 46 35 23 112 104 120 129 9 29 24 19 24 -17z m-3885 -216 c-9 -16 -17
-30 -19 -30 -3 0 1 14 7 30 6 17 15 30 19 30 5 0 2 -13 -7 -30z m-61 -26 c3
-8 1 -16 -4 -19 -6 -4 -10 -11 -10 -17 0 -7 6 -6 15 2 25 21 17 0 -12 -31 -31
-33 -53 -38 -53 -11 0 26 16 46 30 37 10 -6 12 -1 7 22 -4 22 -2 30 8 30 8 0
16 -6 19 -13z m86 11 c0 -3 -7 -17 -17 -31 -9 -14 -17 -40 -18 -57 -3 -30 -6
-44 -22 -84 -8 -21 -12 -45 -15 -93 -2 -19 -6 -34 -10 -32 -5 1 -15 2 -23 2
-9 0 -15 10 -15 26 0 15 -4 23 -11 19 -5 -4 -8 -21 -5 -38 l5 -32 -10 31 -11
31 -28 -26 c-53 -50 -54 -59 -9 -162 31 -73 38 -98 30 -111 -6 -10 -11 -25
-11 -33 0 -29 -18 -15 -24 20 -4 19 -12 37 -18 41 -8 5 -9 -2 -3 -22 4 -16 8
-37 9 -46 0 -9 2 -15 5 -13 2 3 10 -3 17 -13 16 -22 -4 -36 -24 -16 -8 9 -21
13 -30 9 -12 -4 -13 1 -7 32 4 21 8 50 8 66 0 15 4 27 9 27 5 0 7 4 4 8 -3 5
-7 46 -10 91 -4 81 -3 84 35 152 21 37 39 81 39 96 0 25 1 26 13 8 11 -14 16
-15 22 -5 5 9 4 15 -3 18 -7 2 -12 8 -12 14 0 6 6 8 13 6 6 -3 35 23 62 58 45
56 65 75 65 59z m14 -47 c-4 -13 -13 -32 -21 -43 -16 -22 -16 -23 3 48 3 9 10
17 15 17 6 0 7 -9 3 -22z m-295 -32 c-15 -32 -69 -73 -69 -51 0 9 -9 15 -22
15 -12 0 -18 3 -14 7 5 6 103 51 113 53 2 0 -2 -11 -8 -24z m6131 -85 c0 -16
3 -36 6 -44 3 -8 -2 -17 -10 -20 -13 -5 -16 2 -16 43 0 28 5 50 10 50 6 0 10
-13 10 -29z m69 -43 c1 -16 -3 -28 -9 -28 -6 0 -10 24 -9 53 1 41 3 47 9 27 4
-14 8 -37 9 -52z m-6294 52 c-3 -5 -10 -10 -16 -10 -5 0 -9 5 -9 10 0 6 7 10
16 10 8 0 12 -4 9 -10z m365 -24 c0 -8 -4 -18 -10 -21 -5 -3 -10 3 -10 14 0
12 5 21 10 21 6 0 10 -6 10 -14z m5707 -58 c-3 -8 -6 -5 -6 6 -1 11 2 17 5 13
3 -3 4 -12 1 -19z m-6293 -42 c-21 -25 -45 -48 -53 -51 -13 -5 -14 -7 -1 -15
12 -8 10 -10 -9 -10 -14 0 -33 -8 -44 -17 -19 -17 -20 -17 -9 2 14 27 141 149
148 142 4 -3 -11 -26 -32 -51z m359 -3 c-30 -66 -39 -79 -29 -43 12 43 39 100
47 100 4 0 -4 -26 -18 -57z m199 15 c-20 -20 -14 -37 11 -31 18 4 19 3 6 -6
-10 -6 -22 -33 -29 -61 -7 -28 -16 -52 -20 -55 -5 -3 -5 8 0 23 4 16 6 42 4
58 -4 25 -3 26 6 9 8 -16 9 -13 5 17 -3 21 -1 39 5 43 6 4 9 14 5 24 -5 13 -4
14 6 4 10 -10 10 -16 1 -25z m1988 -54 c0 -14 -4 -23 -10 -19 -5 3 -10 15 -10
26 0 10 5 19 10 19 6 0 10 -12 10 -26z m-1932 -56 c-8 -12 -21 -24 -29 -26 -9
-2 -8 2 4 11 9 8 17 19 17 26 0 6 5 11 11 11 7 0 6 -8 -3 -22z m-44 -3 c-4 -8
-10 -15 -15 -15 -4 0 -6 7 -3 15 4 8 10 15 15 15 4 0 6 -7 3 -15z m6709 -20
c-3 -9 -8 -14 -10 -11 -3 3 -2 9 2 15 9 16 15 13 8 -4z m-6703 -25 c0 -5 -7
-10 -16 -10 -8 0 -12 5 -9 10 3 6 10 10 16 10 5 0 9 -4 9 -10z m-58 -142 c-7
-7 -12 -8 -12 -2 0 14 12 26 19 19 2 -3 -1 -11 -7 -17z m5982 -13 c5 -22 4
-26 -4 -15 -5 8 -10 24 -10 34 0 26 6 18 14 -19z m-67 3 c-3 -8 -6 -5 -6 6 -1
11 2 17 5 13 3 -3 4 -12 1 -19z m-3367 2 c0 -5 -5 -10 -11 -10 -5 0 -7 5 -4
10 3 6 8 10 11 10 2 0 4 -4 4 -10z m40 -26 c0 -2 -7 -4 -15 -4 -8 0 -15 4 -15
10 0 5 7 7 15 4 8 -4 15 -8 15 -10z m-2882 -129 c-9 -9 -30 14 -23 25 6 9 10
8 17 -4 6 -10 8 -19 6 -21z m252 -81 c0 -3 -7 -12 -15 -20 -16 -17 -18 -14 -9
10 6 15 24 23 24 10z m-27 -64 c-3 -11 0 -20 6 -20 19 0 12 -15 -14 -27 -28
-13 -30 -9 -14 36 12 34 30 43 22 11z m-213 -61 c-7 -11 -14 -18 -17 -15 -3 3
0 12 7 21 18 21 23 19 10 -6z m7460 -13 c0 -3 -4 -8 -10 -11 -5 -3 -10 -1 -10
4 0 6 5 11 10 11 6 0 10 -2 10 -4z m-7210 -66 c0 -5 -2 -10 -4 -10 -3 0 -8 5
-11 10 -3 6 -1 10 4 10 6 0 11 -4 11 -10z m-254 -32 c-2 -18 -4 -39 -5 -45 0
-7 -8 -13 -17 -13 -12 0 -14 5 -9 18 4 9 10 29 13 45 6 38 23 34 18 -5z"/>
<path d="M4598 7992 c-14 -2 -32 -9 -38 -17 -11 -14 -6 -13 75 9 19 5 -10 12
-37 8z"/>
<path d="M5115 7920 c-3 -5 1 -10 9 -10 9 0 16 5 16 10 0 6 -4 10 -9 10 -6 0
-13 -4 -16 -10z"/>
<path d="M5275 7920 c-3 -5 1 -10 9 -10 9 0 16 5 16 10 0 6 -4 10 -9 10 -6 0
-13 -4 -16 -10z"/>
<path d="M5315 7920 c-3 -5 1 -10 9 -10 9 0 16 5 16 10 0 6 -4 10 -9 10 -6 0
-13 -4 -16 -10z"/>
<path d="M5355 7871 c6 -11 45 -10 45 1 0 4 -12 8 -26 8 -14 0 -23 -4 -19 -9z"/>
<path d="M4250 7805 c-13 -14 -19 -25 -14 -25 5 0 2 -6 -8 -13 -15 -12 -13
-14 13 -26 16 -7 27 -16 24 -21 -3 -5 8 -3 25 3 24 9 35 9 51 -1 24 -15 32
-10 34 18 1 12 -6 22 -19 26 -27 9 -47 30 -44 46 5 24 -37 19 -62 -7z"/>
<path d="M5007 7803 c3 -7 1 -13 -4 -13 -5 0 -8 -18 -7 -39 1 -32 -3 -41 -22
-52 -13 -7 -24 -18 -24 -26 0 -7 -5 -13 -10 -13 -25 0 -58 -31 -53 -50 7 -26
33 -14 33 16 0 13 5 24 10 24 6 0 9 -12 8 -27 -2 -22 2 -29 20 -31 12 -2 22 1
22 7 0 6 7 11 15 11 14 0 13 -3 -1 -25 -9 -14 -13 -25 -10 -25 4 0 1 -10 -6
-22 -6 -13 -11 -37 -9 -54 2 -29 -1 -32 -46 -44 l-47 -14 29 -12 c16 -6 34
-10 40 -8 18 7 47 81 41 102 -4 13 -1 22 9 26 8 3 15 15 15 27 0 41 32 99 54
98 12 0 15 -3 9 -6 -17 -6 -16 -33 2 -57 12 -16 12 -22 2 -35 -6 -9 2 -4 20 9
38 30 40 38 11 42 -12 2 -23 8 -25 14 -7 22 58 1 81 -27 26 -30 42 -28 25 3
-12 23 -14 21 29 42 17 9 32 21 32 26 0 6 8 10 18 10 14 0 15 -2 2 -10 -17
-10 -14 -15 17 -24 18 -6 22 -4 17 8 -8 20 10 21 29 1 8 -8 17 -11 21 -8 3 4
12 -2 20 -12 12 -17 14 -17 34 3 27 27 28 36 2 20 -40 -25 -125 45 -98 80 6 7
18 11 27 10 10 -2 15 3 13 15 -2 9 2 17 8 17 5 0 10 4 10 10 0 5 -7 7 -15 4
-8 -4 -15 -11 -15 -18 0 -6 -9 -17 -20 -24 -17 -10 -23 -10 -36 3 -18 18 -30
19 -39 5 -4 -7 -14 -3 -25 10 -16 19 -21 20 -40 8 -18 -10 -24 -10 -27 0 -3 6
-11 12 -18 12 -7 0 -15 6 -18 13 -2 7 -24 12 -59 12 -40 0 -54 -3 -51 -12z
m163 -150 c0 -27 -15 -31 -23 -5 -2 9 -8 25 -12 35 -7 17 -6 18 14 6 11 -8 21
-24 21 -36z"/>
<path d="M5380 7775 c-8 -9 -8 -15 -2 -15 12 0 26 19 19 26 -2 2 -10 -2 -17
-11z"/>
<path d="M4390 7749 c0 -5 5 -7 10 -4 6 3 10 8 10 11 0 2 -4 4 -10 4 -5 0 -10
-5 -10 -11z"/>
<path d="M4633 7690 c26 -21 47 -26 47 -12 0 16 -24 32 -48 32 l-25 0 26 -20z"/>
<path d="M4704 7698 c-3 -4 2 -8 10 -8 8 0 17 4 20 8 3 5 -2 9 -10 9 -8 0 -17
-4 -20 -9z"/>
<path d="M4547 7675 c-16 -8 -51 -29 -78 -46 -42 -28 -48 -36 -45 -61 4 -34 2
-31 43 -52 20 -10 43 -14 58 -10 21 5 25 3 25 -15 0 -12 6 -21 15 -21 8 0 15
-4 15 -10 0 -14 76 -12 102 3 24 13 57 48 58 59 0 4 -26 35 -57 68 -31 33 -63
70 -70 80 -17 24 -29 25 -66 5z"/>
<path d="M3730 7660 c-8 -5 -12 -11 -9 -14 2 -3 11 -1 19 4 8 5 12 11 9 14 -2
3 -11 1 -19 -4z"/>
<path d="M5310 7610 c-7 -13 -7 -20 -1 -20 6 0 15 9 21 20 7 13 7 20 1 20 -6
0 -15 -9 -21 -20z"/>
<path d="M5113 7557 c-34 -37 -36 -47 -9 -34 14 7 27 21 30 32 7 27 2 28 -21
2z"/>
<path d="M4796 7557 c3 -10 9 -15 12 -12 3 3 0 11 -7 18 -10 9 -11 8 -5 -6z"/>
<path d="M5292 7558 c3 -7 13 -15 22 -16 12 -3 17 1 14 10 -3 7 -13 15 -22 16
-12 3 -17 -1 -14 -10z"/>
<path d="M5370 7553 c0 -6 8 -17 18 -24 16 -13 16 -13 2 6 -8 11 -16 22 -17
24 -2 2 -3 0 -3 -6z"/>
<path d="M4920 7507 c0 -26 -5 -37 -17 -39 -13 -3 -10 -6 8 -9 26 -6 27 -4 25
32 -3 50 -16 63 -16 16z"/>
<path d="M5038 7510 c-23 -22 -23 -30 1 -30 24 0 31 10 22 31 -5 15 -8 14 -23
-1z"/>
<path d="M5000 7456 c0 -8 10 -16 23 -19 12 -2 30 -8 40 -12 18 -7 22 2 9 21
-12 18 -72 26 -72 10z"/>
<path d="M5117 7426 c-13 -10 -15 -16 -6 -21 10 -7 28 10 29 28 0 9 -2 9 -23
-7z"/>
<path d="M3958 7405 c-11 -24 -10 -29 7 -41 24 -18 30 -18 49 1 20 20 6 59
-22 63 -16 2 -25 -4 -34 -23z m39 -25 c-7 -13 -14 -15 -18 -8 -10 17 1 38 16
31 11 -4 12 -9 2 -23z"/>
<path d="M4084 7398 l-19 -23 23 19 c21 18 27 26 19 26 -2 0 -12 -10 -23 -22z"/>
<path d="M5026 7411 c-4 -7 -5 -15 -2 -18 9 -9 19 4 14 18 -4 11 -6 11 -12 0z"/>
<path d="M4955 7388 c-10 -15 -11 -24 -5 -26 12 -4 50 26 50 40 0 17 -29 7
-45 -14z"/>
<path d="M5055 7400 c3 -5 10 -10 16 -10 5 0 9 5 9 10 0 6 -7 10 -16 10 -8 0
-12 -4 -9 -10z"/>
<path d="M5165 7400 c-19 -8 -19 -9 2 -9 12 -1 25 4 28 9 7 12 -2 12 -30 0z"/>
<path d="M3815 7369 c-4 -6 -5 -12 -2 -15 2 -3 7 2 10 11 7 17 1 20 -8 4z"/>
<path d="M5014 7354 c3 -9 6 -18 6 -20 0 -3 4 -3 10 1 11 7 2 35 -12 35 -6 0
-7 -7 -4 -16z"/>
<path d="M5057 7324 c-15 -15 -24 -31 -21 -36 3 -5 13 1 22 14 9 13 20 26 26
30 6 4 8 9 5 13 -3 3 -18 -7 -32 -21z"/>
<path d="M4991 7311 c-7 -5 -11 -14 -7 -19 9 -15 36 -4 36 14 0 16 -9 18 -29
5z"/>
<path d="M5087 7293 c-4 -3 -7 -11 -7 -17 0 -6 5 -5 12 2 6 6 9 14 7 17 -3 3
-9 2 -12 -2z"/>
<path d="M3809 7263 c-13 -15 -12 -15 8 -5 17 10 25 9 37 -3 16 -17 26 -19 26
-7 0 7 -42 32 -54 32 -2 0 -10 -7 -17 -17z"/>
<path d="M4948 7263 c-26 -30 -12 -42 27 -25 19 9 35 20 35 24 0 11 -18 10
-25 -2 -4 -6 -11 -8 -16 -4 -5 3 -7 10 -4 15 10 15 -1 10 -17 -8z"/>
<path d="M4897 7206 c-4 -10 0 -14 12 -13 11 1 17 7 14 14 -7 17 -20 17 -26
-1z"/>
<path d="M3425 7180 c-3 -5 -1 -10 4 -10 6 0 11 5 11 10 0 6 -2 10 -4 10 -3 0
-8 -4 -11 -10z"/>
<path d="M3926 7175 c-3 -10 1 -15 12 -15 15 -1 15 -2 -2 -15 -11 -8 -15 -15
-9 -15 20 0 56 36 49 48 -10 17 -43 15 -50 -3z"/>
<path d="M4320 6765 c0 -14 2 -25 4 -25 2 0 6 11 8 25 3 14 1 25 -3 25 -5 0
-9 -11 -9 -25z"/>
<path d="M3250 6240 c-13 -8 -12 -10 3 -10 9 0 17 5 17 10 0 12 -1 12 -20 0z"/>
<path d="M2680 5645 c-6 -8 -10 -19 -8 -24 1 -6 8 1 15 14 13 28 11 31 -7 10z"/>
<path d="M5980 5125 c-12 -14 -15 -28 -19 -76 0 -9 -10 -19 -21 -22 -22 -6
-28 8 -7 16 6 2 9 8 4 12 -4 5 -14 0 -21 -11 -10 -13 -11 -21 -4 -26 7 -4 2
-18 -15 -38 -33 -39 -34 -66 -3 -133 13 -29 26 -60 30 -70 5 -16 11 -12 39 25
27 34 32 48 25 66 -11 32 0 70 24 83 15 8 17 14 9 22 -6 6 -11 22 -11 35 0 35
21 112 31 112 5 0 4 -11 -1 -25 -7 -19 -6 -25 4 -25 7 0 19 -6 25 -13 8 -11 6
-13 -12 -13 -19 1 -22 -5 -25 -37 -3 -32 0 -38 14 -35 9 1 26 16 38 31 l21 28
-29 54 c-16 30 -34 55 -40 55 -6 0 -20 -14 -30 -31 -10 -17 -20 -28 -23 -25
-3 3 2 17 11 31 18 27 7 35 -14 10z m6 -102 c-11 -11 -19 6 -11 24 8 17 8 17
12 0 3 -10 2 -21 -1 -24z m1 -60 c-3 -10 -5 -2 -5 17 0 19 2 27 5 18 2 -10 2
-26 0 -35z m-27 -31 c0 -20 -3 -23 -9 -13 -8 12 -14 13 -35 3 -14 -6 -26 -8
-26 -3 0 5 11 12 25 15 14 4 25 13 25 22 0 8 5 12 10 9 6 -3 10 -18 10 -33z
m19 -89 c1 -7 -3 -13 -9 -13 -5 0 -10 9 -10 20 0 25 -9 25 -26 3 -12 -16 -13
-16 -14 -2 0 9 10 23 23 32 20 14 22 13 29 -7 3 -11 6 -27 7 -33z"/>
<path d="M6017 4932 c-18 -19 -24 -82 -8 -82 4 0 20 9 34 20 23 18 25 24 15
50 -12 35 -19 37 -41 12z"/>
<path d="M5786 4901 c-4 -7 -5 -15 -2 -18 9 -9 19 4 14 18 -4 11 -6 11 -12 0z"/>
<path d="M5590 4790 c0 -5 5 -10 11 -10 5 0 7 5 4 10 -3 6 -8 10 -11 10 -2 0
-4 -4 -4 -10z"/>
<path d="M5680 4728 c0 -2 9 -23 20 -46 11 -22 20 -46 20 -52 0 -11 13 -14 22
-4 8 7 -27 78 -46 94 -9 7 -16 10 -16 8z"/>
<path d="M2855 4586 c-3 -14 -7 -37 -10 -51 -3 -14 -1 -25 4 -25 5 0 13 20 17
45 7 49 -1 75 -11 31z"/>
<path d="M2854 4316 c17 -71 18 -86 7 -86 -6 0 -11 -6 -11 -12 0 -14 44 -16
73 -4 28 13 20 39 -29 86 -45 44 -46 44 -40 16z"/>
<path d="M2090 4260 c-9 -6 -10 -10 -3 -10 6 0 15 5 18 10 8 12 4 12 -15 0z"/>
<path d="M2255 4239 c-10 -15 3 -25 16 -12 7 7 7 13 1 17 -6 3 -14 1 -17 -5z"/>
<path d="M2045 4168 c-3 -29 -2 -91 3 -138 6 -53 5 -87 -1 -91 -5 -4 -5 -8 2
-10 6 -2 12 -23 14 -45 3 -27 13 -51 29 -69 l26 -28 12 22 c19 36 9 64 -27 73
-18 5 -33 13 -33 18 0 14 22 12 44 -5 27 -21 32 -13 31 49 0 50 1 53 18 44 32
-17 50 -2 41 34 -9 39 -7 88 5 102 15 20 21 76 8 76 -21 0 -38 -16 -61 -55
l-23 -38 -19 32 c-25 42 -39 34 -37 -20 l2 -44 -9 50 c-5 29 -5 54 0 59 5 5 6
15 3 22 -11 28 -22 13 -28 -38z m34 -160 c-1 -40 -3 -54 -8 -39 -6 23 -3 101
5 101 2 0 4 -28 3 -62z m41 -168 c0 -5 -4 -10 -10 -10 -5 0 -10 5 -10 10 0 6
5 10 10 10 6 0 10 -4 10 -10z"/>
<path d="M2770 4115 c-1 -5 -1 -20 -1 -32 1 -12 -6 -26 -16 -32 -17 -10 -17
-10 0 -11 20 0 23 -16 5 -23 -7 -2 -10 -7 -7 -11 3 -3 12 0 21 7 12 9 14 22 8
62 -4 28 -8 46 -10 40z"/>
<path d="M2303 4053 c-4 -10 -17 -28 -30 -40 -13 -12 -23 -31 -23 -43 0 -27 5
-25 29 12 l20 33 7 -45 7 -45 10 30 c5 17 12 49 16 73 7 37 6 42 -11 42 -10 0
-22 -8 -25 -17z"/>
<path d="M2265 3930 c-3 -5 -1 -10 4 -10 6 0 11 5 11 10 0 6 -2 10 -4 10 -3 0
-8 -4 -11 -10z"/>
<path d="M2032 3895 c0 -16 2 -22 5 -12 2 9 2 23 0 30 -3 6 -5 -1 -5 -18z"/>
<path d="M2251 3881 c-8 -5 -9 -11 -3 -15 5 -3 15 1 22 9 14 16 3 20 -19 6z"/>
<path d="M2018 3830 c-7 -24 -3 -38 8 -28 3 4 4 17 2 30 l-3 23 -7 -25z"/>
<path d="M2862 3760 c2 -24 9 -36 21 -38 23 -5 22 14 -4 46 l-21 27 4 -35z"/>
<path d="M2107 3590 c-3 -11 -2 -20 3 -20 4 0 10 9 13 20 3 11 2 20 -3 20 -4
0 -10 -9 -13 -20z"/>
<path d="M2137 3413 c-4 -3 -6 -29 -6 -57 1 -28 4 -42 6 -31 3 11 10 23 16 27
7 4 7 11 -1 21 -7 8 -10 22 -6 31 6 17 2 21 -9 9z"/>
<path d="M2190 3381 c0 -13 28 -33 33 -23 3 4 -3 13 -14 20 -10 7 -19 8 -19 3z"/>
<path d="M2140 3205 c-8 -9 -8 -15 -2 -15 12 0 26 19 19 26 -2 2 -10 -2 -17
-11z"/>
<path d="M2110 3156 c0 -8 5 -18 10 -21 6 -3 10 3 10 14 0 12 -4 21 -10 21 -5
0 -10 -6 -10 -14z"/>
<path d="M2249 3155 c-1 -5 -1 -14 0 -19 1 -5 -5 -16 -13 -25 -18 -20 -38 -71
-28 -71 4 0 19 22 34 48 19 33 24 52 18 62 -6 8 -10 11 -11 5z"/>
<path d="M2182 2982 c-25 -50 -26 -56 -5 -35 23 23 39 63 26 63 -4 0 -14 -12
-21 -28z"/>
<path d="M2390 2945 c-8 -9 -8 -15 -2 -15 12 0 26 19 19 26 -2 2 -10 -2 -17
-11z"/>
<path d="M2867 2179 c7 -7 15 -10 18 -7 3 3 -2 9 -12 12 -14 6 -15 5 -6 -5z"/>
<path d="M3200 2170 c-13 -11 -18 -20 -12 -20 10 0 42 27 42 36 0 8 -7 4 -30
-16z"/>
<path d="M3102 2102 c-16 -34 -15 -49 3 -56 10 -3 20 6 31 27 9 18 22 35 28
39 8 6 8 8 -1 8 -6 0 -15 -5 -19 -12 -5 -8 -10 -7 -18 4 -10 14 -13 12 -24
-10z"/>
<path d="M1521 2074 c0 -11 3 -14 6 -6 3 7 2 16 -1 19 -3 4 -6 -2 -5 -13z"/>
<path d="M2596 2052 c-3 -6 1 -13 10 -16 23 -9 28 -2 10 13 -8 7 -17 8 -20 3z"/>
<path d="M3090 2000 c0 -13 5 -20 13 -17 6 2 12 10 12 17 0 7 -6 15 -12 18 -8
2 -13 -5 -13 -18z"/>
<path d="M3441 1844 c0 -11 3 -14 6 -6 3 7 2 16 -1 19 -3 4 -6 -2 -5 -13z"/>
<path d="M3295 1365 c10 -91 15 -115 28 -112 6 1 11 -4 12 -12 0 -8 6 -16 13
-18 8 -3 12 7 12 31 0 20 3 36 6 36 13 0 44 -43 44 -60 0 -10 7 -23 15 -30 17
-14 16 -16 38 75 l14 60 -29 27 c-33 31 -55 27 -64 -9 -6 -21 -8 -23 -16 -10
-5 9 -15 14 -23 11 -8 -4 -15 -1 -15 5 0 6 7 11 16 11 8 0 12 5 9 11 -4 6 -13
8 -21 5 -7 -3 -21 5 -29 17 -16 21 -16 19 -10 -38z"/>
<path d="M3567 1263 c-4 -3 -7 -11 -7 -17 0 -6 5 -5 12 2 6 6 9 14 7 17 -3 3
-9 2 -12 -2z"/>
<path d="M3380 1217 c0 -20 4 -38 9 -42 6 -3 7 10 4 32 -8 50 -13 55 -13 10z"/>
<path d="M3546 1208 c-9 -36 -7 -58 6 -55 7 1 15 -11 18 -28 5 -25 7 -27 13
-12 13 34 8 57 -13 57 -16 0 -19 5 -13 30 6 35 -2 41 -11 8z"/>
<path d="M3350 1143 c1 -10 7 -29 14 -42 8 -14 11 -32 8 -40 -3 -9 -1 -12 5
-8 6 4 14 1 16 -5 3 -7 3 3 0 22 -4 19 -10 37 -15 38 -4 2 -8 12 -8 22 0 10
-4 22 -10 25 -5 3 -10 -2 -10 -12z"/>
<path d="M3481 1126 c-9 -11 -8 -15 6 -20 10 -4 19 -2 21 3 2 6 8 11 13 11 4
0 5 -8 2 -17 -6 -16 -5 -16 11 -4 18 15 13 25 -20 35 -13 4 -26 1 -33 -8z"/>
<path d="M3330 1056 c0 -14 4 -26 8 -26 11 0 12 39 1 45 -5 4 -9 -5 -9 -19z"/>
<path d="M3577 1063 c-4 -3 -7 -13 -7 -22 1 -13 3 -13 11 2 11 19 8 33 -4 20z"/>
<path d="M3520 1020 c5 -34 -1 -50 -17 -50 -17 -1 -17 -1 0 -11 10 -6 24 -9
30 -6 16 6 14 54 -2 70 -10 9 -12 9 -11 -3z"/>
<path d="M3415 945 c0 -49 6 -54 33 -27 15 15 16 20 4 45 -21 42 -38 34 -37
-18z"/>
<path d="M3490 928 c0 -7 10 -24 21 -38 17 -20 20 -21 14 -5 -4 11 -10 28 -12
38 -6 20 -23 23 -23 5z"/>
<path d="M3544 929 c-3 -6 -1 -16 4 -21 8 -8 11 -5 9 11 -1 24 -3 25 -13 10z"/>
<path d="M3546 873 c-6 -14 -5 -15 5 -6 7 7 10 15 7 18 -3 3 -9 -2 -12 -12z"/>
<path d="M3466 831 c-4 -7 -5 -15 -2 -18 9 -9 19 4 14 18 -4 11 -6 11 -12 0z"/>
<path d="M4185 2734 c-26 -13 -27 -14 -5 -10 14 3 31 6 38 6 6 0 12 5 12 10 0
13 -8 12 -45 -6z"/>
<path d="M4395 2700 c3 -5 8 -10 11 -10 2 0 4 5 4 10 0 6 -5 10 -11 10 -5 0
-7 -4 -4 -10z"/>
<path d="M4180 1890 c0 -5 5 -10 11 -10 5 0 7 5 4 10 -3 6 -8 10 -11 10 -2 0
-4 -4 -4 -10z"/>
<path d="M1360 1025 c-9 -18 -10 -29 -3 -36 7 -7 12 0 17 22 3 18 5 34 3 36
-2 1 -10 -8 -17 -22z"/>
<path d="M1180 349 c0 -5 5 -7 10 -4 6 3 10 8 10 11 0 2 -4 4 -10 4 -5 0 -10
-5 -10 -11z"/>
<path d="M1170 296 c0 -8 5 -18 10 -21 6 -3 10 1 10 9 0 8 -4 18 -10 21 -5 3
-10 -1 -10 -9z"/>
<path d="M1172 164 c-1 -15 2 -22 8 -19 12 7 13 32 2 39 -4 2 -9 -7 -10 -20z"/>
</g>
</svg>
