<?xml version="1.0" standalone="no"?>
<!DOCTYPE svg PUBLIC "-//W3C//DTD SVG 20010904//EN"
 "http://www.w3.org/TR/2001/REC-SVG-20010904/DTD/svg10.dtd">
<svg version="1.0" xmlns="http://www.w3.org/2000/svg"
 width="512.000000pt" height="512.000000pt" viewBox="0 0 512.000000 512.000000"
 preserveAspectRatio="xMidYMid meet">
<metadata>
Created by potrace 1.14, written by Peter Selinger 2001-2017
</metadata>
<g transform="translate(0.000000,512.000000) scale(0.100000,-0.100000)"
fill="#000000" stroke="none">
<path d="M2432 5107 c-18 -8 -181 -325 -673 -1309 -395 -791 -649 -1309 -649
-1326 1 -31 16 -54 47 -70 16 -9 148 -12 467 -12 295 0 446 -3 446 -10 0 -6
-4 -18 -10 -28 -5 -9 -50 -116 -101 -237 -145 -351 -399 -956 -420 -1002 -10
-24 -19 -45 -19 -48 0 -2 -11 -28 -24 -57 -13 -29 -58 -136 -100 -238 -42
-102 -81 -194 -86 -205 -38 -80 -191 -456 -195 -478 -7 -37 40 -87 82 -87 40
0 63 19 144 118 40 48 77 92 83 97 6 6 54 62 106 125 52 63 99 120 105 126 19
21 94 110 181 214 47 58 98 119 113 135 14 17 60 71 101 120 41 50 77 92 80
95 3 3 28 32 55 65 28 33 60 71 72 85 24 29 246 293 301 359 21 24 42 49 47
55 6 6 58 67 115 136 57 69 109 130 115 136 5 6 25 29 43 52 19 23 43 51 54
64 11 13 37 43 57 68 20 24 43 51 51 60 8 9 56 66 107 126 114 136 640 762
696 828 23 27 67 79 98 115 30 36 63 77 72 91 36 52 11 122 -48 138 -17 4
-252 7 -522 7 -271 -1 -493 2 -493 7 0 6 241 394 345 553 31 48 304 480 525
830 59 94 112 180 119 192 18 35 13 63 -18 94 l-29 29 -709 -1 c-501 0 -715
-4 -731 -12z"/>
</g>
</svg>
