<?xml version="1.0" standalone="no"?>
<!DOCTYPE svg PUBLIC "-//W3C//DTD SVG 20010904//EN"
 "http://www.w3.org/TR/2001/REC-SVG-20010904/DTD/svg10.dtd">
<svg version="1.0" xmlns="http://www.w3.org/2000/svg"
 width="512.000000pt" height="512.000000pt" viewBox="0 0 512.000000 512.000000"
 preserveAspectRatio="xMidYMid meet">
<metadata>
Created by potrace 1.14, written by Peter Selinger 2001-2017
</metadata>
<g transform="translate(0.000000,512.000000) scale(0.100000,-0.100000)"
fill="#000000" stroke="none">
<path d="M2300 5041 c-78 -24 -128 -70 -250 -226 -68 -86 -64 -82 -100 -130
-16 -22 -34 -46 -40 -52 -6 -7 -10 -15 -10 -18 0 -3 -15 -29 -35 -59 -19 -29
-35 -58 -35 -65 0 -6 -3 -11 -7 -11 -5 0 -13 -10 -19 -23 -20 -42 -86 -162
-96 -174 -6 -7 -8 -13 -5 -13 4 0 -5 -22 -18 -49 -14 -27 -25 -54 -25 -60 0
-6 -7 -8 -15 -5 -8 4 -15 11 -15 17 0 11 -89 118 -125 150 -11 10 -35 32 -52
48 -18 16 -33 27 -33 24 0 -3 -12 6 -27 20 -16 14 -36 28 -45 31 -10 3 -18 10
-18 15 0 6 -4 8 -9 4 -5 -3 -13 0 -16 5 -6 9 -41 28 -65 35 -3 1 -22 9 -43 18
-34 15 -94 34 -137 44 -66 15 -178 18 -245 7 -22 -4 -46 -7 -52 -7 -7 0 -13
-4 -13 -9 0 -5 -4 -7 -9 -3 -5 3 -12 1 -16 -5 -4 -6 -11 -8 -16 -5 -5 4 -9 1
-9 -5 0 -6 -4 -9 -9 -5 -5 3 -12 1 -16 -5 -4 -6 -11 -8 -16 -5 -5 4 -9 1 -9
-4 0 -6 -16 -17 -35 -25 -19 -8 -35 -20 -35 -25 0 -6 -4 -10 -8 -9 -15 5 -172
-163 -194 -205 -35 -70 -10 -92 117 -103 150 -13 273 -73 373 -183 18 -20 44
-48 57 -62 14 -14 25 -30 25 -35 0 -6 8 -19 18 -30 30 -32 83 -159 97 -231 5
-30 7 -122 2 -163 -6 -45 -31 -130 -39 -130 -4 0 -7 -3 -6 -7 5 -14 -24 -73
-35 -73 -6 0 -8 -3 -5 -6 3 -3 -23 -53 -58 -111 -35 -58 -64 -107 -64 -109 0
-7 -85 -139 -92 -142 -5 -2 -8 -12 -8 -22 0 -11 -6 -23 -13 -27 -6 -4 -25 -33
-41 -63 -16 -30 -34 -64 -40 -75 -6 -11 -15 -23 -21 -27 -5 -4 -7 -8 -2 -8 4
0 0 -11 -9 -25 -9 -14 -13 -25 -8 -25 4 0 1 -6 -7 -12 -19 -17 -101 -194 -152
-333 -31 -83 -82 -271 -91 -335 -4 -25 -9 -63 -12 -85 -24 -166 11 -468 71
-611 20 -49 19 -61 -7 -70 -26 -7 -25 -7 -127 -107 -68 -66 -121 -134 -128
-165 -9 -39 -12 -47 -14 -47 -5 0 -6 -141 0 -150 3 -5 6 -16 8 -24 8 -53 69
-128 217 -267 19 -18 96 -55 125 -61 47 -9 164 -4 179 7 1 2 5 3 10 5 46 13
96 50 172 125 49 50 90 94 90 99 0 13 42 1 63 -17 9 -8 17 -12 17 -8 0 3 12
-1 26 -11 41 -26 178 -71 294 -95 138 -28 433 -30 512 -3 7 2 31 7 53 10 22 3
72 15 110 27 39 11 75 21 80 23 41 9 192 70 209 84 11 9 16 11 13 4 -7 -11 52
13 63 26 3 3 10 6 15 6 15 1 179 86 186 97 3 5 8 9 10 9 12 -2 49 12 49 18 0
4 16 13 35 21 19 8 35 17 35 20 0 7 52 33 59 30 2 -1 7 3 10 8 6 9 89 60 149
91 15 8 29 17 32 20 4 5 34 22 95 55 11 6 22 14 25 18 9 12 194 103 215 106
11 1 26 3 33 4 6 1 12 4 12 8 0 16 257 -1 270 -18 3 -4 16 -9 30 -10 14 -2 32
-10 41 -18 9 -8 19 -11 22 -7 4 3 7 2 7 -4 0 -10 36 -26 53 -24 4 1 7 -3 7 -7
0 -4 15 -16 33 -27 17 -10 40 -29 50 -42 10 -13 23 -21 28 -18 5 4 9 2 9 -2 0
-5 10 -19 23 -33 43 -46 106 -138 100 -144 -4 -3 -1 -6 5 -6 8 0 27 -40 37
-80 1 -3 5 -12 8 -20 4 -8 8 -40 9 -70 2 -30 8 -58 13 -62 6 -5 6 -8 -1 -8 -8
0 -7 -14 4 -45 18 -55 44 -65 95 -38 31 15 140 116 200 184 27 30 77 118 77
134 0 8 5 15 11 15 5 0 7 5 4 10 -4 6 -2 17 4 24 6 7 11 28 12 47 2 19 5 39 8
44 8 14 9 148 1 160 -3 6 -6 17 -5 25 1 15 -20 100 -32 130 -4 8 -7 18 -8 23
-2 4 -4 9 -5 12 -1 3 -3 8 -4 13 -3 12 -39 87 -45 92 -4 3 -17 25 -30 50 -14
25 -33 52 -43 61 -10 9 -18 20 -18 24 0 4 -16 23 -35 42 -19 19 -35 36 -35 39
0 5 -81 84 -87 84 -2 0 -17 10 -33 22 l-29 21 122 60 c67 33 134 68 148 78 14
10 29 16 33 12 3 -3 6 -1 6 5 0 7 7 12 15 12 8 0 15 5 15 10 0 6 6 10 14 10 8
0 21 6 28 13 7 6 24 18 38 25 31 16 183 125 240 172 23 19 51 42 62 50 47 36
128 117 128 128 0 7 5 12 11 12 5 0 7 5 4 10 -3 6 -1 10 5 10 7 0 10 6 7 14
-3 8 -2 16 3 18 17 5 22 79 9 112 -31 75 -113 122 -309 176 -25 6 -52 15 -61
20 -14 7 -227 62 -289 74 -14 3 -36 7 -50 10 -14 3 -37 7 -52 8 -16 1 -28 6
-28 10 0 4 -3 7 -7 7 -21 -3 -22 3 -9 30 9 16 12 31 9 35 -4 3 -1 6 5 6 7 0
12 4 12 9 0 5 8 26 17 47 9 22 17 41 18 44 0 3 4 10 8 16 4 7 23 54 42 105 20
52 38 101 42 109 3 8 8 24 10 34 2 11 8 25 14 33 6 7 9 13 5 13 -3 0 8 36 24
79 16 43 26 82 23 85 -4 3 0 6 7 6 7 0 11 3 7 6 -3 3 1 23 8 45 8 21 12 39 9
39 -2 0 0 8 5 18 5 9 11 31 14 47 3 17 10 43 16 58 6 16 9 33 5 38 -3 5 0 9 7
9 6 0 9 8 6 20 -3 11 -1 20 4 20 5 0 8 3 8 8 -1 4 0 9 1 12 1 3 3 16 4 30 3
28 21 117 26 130 1 3 2 9 1 13 -1 4 3 16 8 26 7 12 6 22 -1 29 -8 8 -8 12 -2
12 6 0 11 6 11 13 0 6 3 28 6 47 10 61 20 154 20 185 -1 55 -15 150 -24 153
-4 2 -6 9 -3 16 13 35 -102 216 -128 200 -4 -3 -8 0 -8 5 0 6 -3 10 -7 10 -5
-1 -10 0 -13 1 -8 3 -31 8 -85 18 -63 13 -330 6 -330 -8 0 -1 -13 -3 -30 -5
-16 -1 -30 -3 -30 -5 0 -1 -16 -3 -35 -5 -19 -2 -50 -6 -67 -10 -18 -3 -35 -6
-38 -6 -2 0 -23 -6 -45 -14 -22 -8 -40 -11 -40 -8 0 4 -5 2 -11 -4 -6 -6 -18
-9 -25 -6 -8 3 -14 -1 -14 -8 0 -11 -3 -11 -10 1 -6 9 -10 11 -10 3 0 -7 -7
-10 -15 -7 -8 4 -15 1 -15 -6 0 -6 -4 -9 -9 -5 -5 3 -29 -1 -52 -9 -24 -8 -46
-13 -50 -10 -4 2 -10 0 -14 -6 -4 -6 -10 -8 -15 -5 -5 3 -11 1 -15 -4 -3 -5
-14 -8 -25 -6 -11 2 -20 0 -20 -5 0 -5 -7 -7 -15 -4 -8 4 -15 1 -15 -7 0 -7
-3 -10 -6 -7 -5 5 -63 -10 -114 -29 -17 -7 -12 -6 -70 -23 -25 -7 -47 -14 -50
-14 -3 -1 -9 -4 -15 -7 -5 -4 -23 -10 -40 -14 -16 -5 -32 -9 -35 -10 -13 -4
-47 -18 -65 -25 -11 -5 -58 -25 -105 -44 -47 -19 -102 -42 -122 -50 -42 -18
-53 -20 -54 -8 0 4 -4 18 -7 32 -4 14 -9 39 -11 55 -2 17 -5 30 -6 30 -1 0 -3
9 -5 20 -2 11 -11 50 -20 85 -9 36 -18 72 -19 80 -2 8 -9 35 -16 60 -7 25 -13
50 -14 55 -4 19 -57 190 -73 235 -22 60 -78 137 -114 155 -30 16 -78 18 -119
6z"/>
</g>
</svg>
