<svg width="900" height="607" xmlns="http://www.w3.org/2000/svg">
 <clipPath id="p.0">
  <path id="svg_1" clip-rule="nonzero" d="m0,0l1280,0l0,960l-1280,0l0,-960z"/>
 </clipPath>

 <g>
  <title>background</title>
  <rect fill="none" id="canvas_background" height="609" width="902" y="-1" x="-1"/>
 </g>
 <g>
  <title>Layer 1</title>
  <g stroke="null" id="svg_2" clip-path="url(#p.0)">
   <path stroke="null" id="svg_3" fill-rule="evenodd" d="m0,0l1280,0l0,960l-1280,0l0,-960z" fill-opacity="0" fill="#000000"/>
   <path stroke="null" id="svg_4" fill-rule="evenodd" d="m69.38583,597.4409l342.56693,-592.5354l342.56696,592.5354l-685.13389,0z" fill="#3d85c6"/>
   <path stroke="null" id="svg_5" fill-rule="evenodd" d="m254.31496,173.92389l336.97638,0" fill-opacity="0" fill="#000000"/>
   <path stroke="#ffffff" id="svg_6" fill-rule="evenodd" d="m254.31496,173.92389l336.97638,0" stroke-linejoin="round" stroke-width="24"/>
   <path stroke="null" id="svg_7" fill-rule="evenodd" d="m182.03412,317.9239l456.063,0" fill-opacity="0" fill="#000000"/>
   <path stroke="#ffffff" id="svg_8" fill-rule="evenodd" d="m182.03412,317.9239l456.063,0" stroke-linejoin="round" stroke-width="24"/>
   <path stroke="null" id="svg_9" fill-rule="evenodd" d="m106.70079,461.9239l596.5669,0" fill-opacity="0" fill="#000000"/>
   <path stroke="#ffffff" id="svg_10" fill-rule="evenodd" d="m106.70079,461.9239l596.5669,0" stroke-linejoin="round" stroke-width="24"/>
   <path stroke="null" id="svg_11" fill-rule="evenodd" d="m328,71.07612l161.85828,0l0,68.40945l-161.85828,0l0,-68.40945z" fill-opacity="0" fill="#000000"/>
   <path stroke="null" id="svg_12" fill-rule="nonzero" d="m378.3689,112.20084l-3.20313,-10.45313l-0.07812,0q0.17187,3.1875 0.17187,4.26563l0,6.1875l-2.53125,0l0,-13.3125l3.84375,0l3.15625,10.17187l0.0625,0l3.32813,-10.17187l3.85937,0l0,13.3125l-2.64062,0l0,-6.29688q0,-0.45312 0.01562,-1.03125q0.01563,-0.59375 0.125,-3.10937l-0.07812,0l-3.4375,10.4375l-2.59375,0zm11.6217,-12.8125q0,-1.35938 1.5,-1.35938q1.51563,0 1.51563,1.35938q0,0.64062 -0.375,1q-0.375,0.35937 -1.14063,0.35937q-1.5,0 -1.5,-1.35937zm2.89063,12.8125l-2.78125,0l0,-10.1875l2.78125,0l0,10.1875zm12.31842,0l-2.78125,0l0,-5.95313q0,-1.09375 -0.39063,-1.64062q-0.39062,-0.5625 -1.25,-0.5625q-1.15625,0 -1.6875,0.78125q-0.51562,0.78125 -0.51562,2.57812l0,4.79688l-2.78125,0l0,-10.1875l2.125,0l0.375,1.3125l0.15625,0q0.46875,-0.75 1.28125,-1.125q0.8125,-0.375 1.84375,-0.375q1.78125,0 2.70312,0.96875q0.92188,0.95312 0.92188,2.76562l0,6.64063zm6.08951,0.1875q-1.79688,0 -2.82813,-1.39063q-1.01562,-1.40625 -1.01562,-3.875q0,-2.5 1.03125,-3.89062q1.04687,-1.40625 2.875,-1.40625q1.92187,0 2.9375,1.5l0.09375,0q-0.21875,-1.14063 -0.21875,-2.03125l0,-3.26563l2.79687,0l0,14.17188l-2.14062,0l-0.53125,-1.32813l-0.125,0q-0.9375,1.51563 -2.875,1.51563zm0.96875,-2.21875q1.0625,0 1.5625,-0.60938q0.5,-0.625 0.54687,-2.10937l0,-0.3125q0,-1.64063 -0.51562,-2.34375q-0.5,-0.70313 -1.64063,-0.70313q-0.92187,0 -1.4375,0.78125q-0.51562,0.78125 -0.51562,2.29688q0,1.5 0.51562,2.25q0.51563,0.75 1.48438,0.75zm14.71216,-1q0,1.57812 -1.09375,2.40625q-1.07813,0.8125 -3.25,0.8125q-1.10938,0 -1.89063,-0.15625q-0.78125,-0.15625 -1.46875,-0.4375l0,-2.29688q0.76563,0.35938 1.73438,0.60938q0.98437,0.25 1.71875,0.25q1.51562,0 1.51562,-0.875q0,-0.32813 -0.20312,-0.53125q-0.20313,-0.21875 -0.70313,-0.46875q-0.48437,-0.26563 -1.3125,-0.60938q-1.17187,-0.48437 -1.71875,-0.90625q-0.54687,-0.42187 -0.79687,-0.95312q-0.25,-0.54688 -0.25,-1.34375q0,-1.35938 1.04687,-2.09375q1.04688,-0.75 2.98438,-0.75q1.84375,0 3.57812,0.79687l-0.84375,2.01563q-0.76562,-0.32813 -1.4375,-0.53125q-0.65625,-0.21875 -1.34375,-0.21875q-1.23437,0 -1.23437,0.65625q0,0.375 0.39062,0.65625q0.40625,0.26562 1.75,0.8125q1.1875,0.46875 1.73438,0.89062q0.5625,0.42188 0.82812,0.96875q0.26563,0.54688 0.26563,1.29688zm6.38284,-5.375q-0.875,0 -1.375,0.5625q-0.5,0.5625 -0.57813,1.59375l3.89063,0q-0.01563,-1.03125 -0.53125,-1.59375q-0.51563,-0.5625 -1.40625,-0.5625zm0.39062,8.59375q-2.45312,0 -3.84375,-1.35938q-1.375,-1.35937 -1.375,-3.84375q0,-2.5625 1.26563,-3.95312q1.28125,-1.40625 3.54687,-1.40625q2.15625,0 3.35938,1.23437q1.20312,1.21875 1.20312,3.39063l0,1.34375l-6.5625,0q0.04688,1.1875 0.70313,1.85937q0.65625,0.65625 1.82812,0.65625q0.92188,0 1.73438,-0.1875q0.82812,-0.1875 1.71875,-0.60937l0,2.15625q-0.71875,0.35937 -1.54688,0.53125q-0.82812,0.1875 -2.03125,0.1875zm10.70999,-2.21875q0.73438,0 1.75,-0.3125l0,2.0625q-1.04687,0.46875 -2.54687,0.46875q-1.67188,0 -2.4375,-0.84375q-0.75,-0.84375 -0.75,-2.53125l0,-4.90625l-1.34375,0l0,-1.1875l1.53125,-0.92188l0.8125,-2.15625l1.76562,0l0,2.17188l2.85938,0l0,2.09375l-2.85938,0l0,4.90625q0,0.59375 0.32813,0.875q0.34375,0.28125 0.89062,0.28125z" fill="#ffffff"/>
   <path stroke="null" id="svg_13" fill-rule="evenodd" d="m328,223.07611l161.85828,0l0,68.40945l-161.85828,0l0,-68.40945z" fill-opacity="0" fill="#000000"/>
   <path stroke="null" id="svg_14" fill-rule="nonzero" d="m369.80414,239.88834l4.15625,0q2.82813,0 4.10938,0.8125q1.28125,0.79687 1.28125,2.54687q0,1.20313 -0.5625,1.96875q-0.5625,0.76563 -1.48438,0.92188l0,0.07812q1.26563,0.28125 1.8125,1.0625q0.5625,0.78125 0.5625,2.0625q0,1.8125 -1.3125,2.84375q-1.3125,1.01563 -3.57812,1.01563l-4.98438,0l0,-13.3125zm2.82813,5.26562l1.64062,0q1.14063,0 1.65625,-0.34375q0.51563,-0.35937 0.51563,-1.1875q0,-0.76562 -0.5625,-1.09375q-0.54688,-0.32812 -1.76563,-0.32812l-1.48437,0l0,2.95312zm0,2.25l0,3.46875l1.84375,0q1.15625,0 1.71875,-0.4375q0.5625,-0.45312 0.5625,-1.375q0,-1.65625 -2.375,-1.65625l-1.75,0zm16.70654,5.79688l-0.375,-1.29688l-0.14063,0q-0.45312,0.70313 -1.28125,1.09375q-0.8125,0.39063 -1.85937,0.39063q-1.79688,0 -2.70313,-0.95313q-0.90625,-0.96875 -0.90625,-2.78125l0,-6.64062l2.78125,0l0,5.95312q0,1.09375 0.39063,1.65625q0.39062,0.54688 1.25,0.54688q1.15625,0 1.67187,-0.78125q0.53125,-0.78125 0.53125,-2.57813l0,-4.79687l2.76563,0l0,10.1875l-2.125,0zm12.15198,-3.03125q0,1.57812 -1.09375,2.40625q-1.07813,0.8125 -3.25,0.8125q-1.10938,0 -1.89063,-0.15625q-0.78125,-0.15625 -1.46875,-0.4375l0,-2.29688q0.76563,0.35938 1.73438,0.60938q0.98437,0.25 1.71875,0.25q1.51562,0 1.51562,-0.875q0,-0.32813 -0.20312,-0.53125q-0.20313,-0.21875 -0.70313,-0.46875q-0.48437,-0.26563 -1.3125,-0.60938q-1.17187,-0.48437 -1.71875,-0.90625q-0.54687,-0.42187 -0.79687,-0.95312q-0.25,-0.54688 -0.25,-1.34375q0,-1.35938 1.04687,-2.09375q1.04688,-0.75 2.98438,-0.75q1.84375,0 3.57812,0.79687l-0.84375,2.01563q-0.76562,-0.32813 -1.4375,-0.53125q-0.65625,-0.21875 -1.34375,-0.21875q-1.23437,0 -1.23437,0.65625q0,0.375 0.39062,0.65625q0.40625,0.26562 1.75,0.8125q1.1875,0.46875 1.73438,0.89062q0.5625,0.42188 0.82812,0.96875q0.26563,0.54688 0.26563,1.29688zm2.05474,-9.78125q0,-1.35938 1.5,-1.35938q1.51563,0 1.51563,1.35938q0,0.64062 -0.375,1q-0.375,0.35937 -1.14063,0.35937q-1.5,0 -1.5,-1.35937zm2.89063,12.8125l-2.78125,0l0,-10.1875l2.78125,0l0,10.1875zm12.31842,0l-2.78125,0l0,-5.95313q0,-1.09375 -0.39063,-1.64062q-0.39062,-0.5625 -1.25,-0.5625q-1.15625,0 -1.6875,0.78125q-0.51562,0.78125 -0.51562,2.57812l0,4.79688l-2.78125,0l0,-10.1875l2.125,0l0.375,1.3125l0.15625,0q0.46875,-0.75 1.28125,-1.125q0.8125,-0.375 1.84375,-0.375q1.78125,0 2.70312,0.96875q0.92188,0.95312 0.92188,2.76562l0,6.64063zm7.07388,-8.40625q-0.875,0 -1.375,0.5625q-0.5,0.5625 -0.57812,1.59375l3.89062,0q-0.01562,-1.03125 -0.53125,-1.59375q-0.51562,-0.5625 -1.40625,-0.5625zm0.39063,8.59375q-2.45313,0 -3.84375,-1.35938q-1.375,-1.35937 -1.375,-3.84375q0,-2.5625 1.26562,-3.95312q1.28125,-1.40625 3.54688,-1.40625q2.15625,0 3.35937,1.23437q1.20313,1.21875 1.20313,3.39063l0,1.34375l-6.5625,0q0.04687,1.1875 0.70312,1.85937q0.65625,0.65625 1.82813,0.65625q0.92187,0 1.73437,-0.1875q0.82813,-0.1875 1.71875,-0.60937l0,2.15625q-0.71875,0.35937 -1.54687,0.53125q-0.82813,0.1875 -2.03125,0.1875zm13.52249,-3.21875q0,1.57812 -1.09375,2.40625q-1.07813,0.8125 -3.25,0.8125q-1.10938,0 -1.89063,-0.15625q-0.78125,-0.15625 -1.46875,-0.4375l0,-2.29688q0.76563,0.35938 1.73438,0.60938q0.98437,0.25 1.71875,0.25q1.51562,0 1.51562,-0.875q0,-0.32813 -0.20312,-0.53125q-0.20313,-0.21875 -0.70313,-0.46875q-0.48437,-0.26563 -1.3125,-0.60938q-1.17187,-0.48437 -1.71875,-0.90625q-0.54687,-0.42187 -0.79687,-0.95312q-0.25,-0.54688 -0.25,-1.34375q0,-1.35938 1.04687,-2.09375q1.04688,-0.75 2.98438,-0.75q1.84375,0 3.57812,0.79687l-0.84375,2.01563q-0.76562,-0.32813 -1.4375,-0.53125q-0.65625,-0.21875 -1.34375,-0.21875q-1.23437,0 -1.23437,0.65625q0,0.375 0.39062,0.65625q0.40625,0.26562 1.75,0.8125q1.1875,0.46875 1.73438,0.89062q0.5625,0.42188 0.82812,0.96875q0.26563,0.54688 0.26563,1.29688zm9.27347,0q0,1.57812 -1.09375,2.40625q-1.07813,0.8125 -3.25,0.8125q-1.10938,0 -1.89063,-0.15625q-0.78125,-0.15625 -1.46875,-0.4375l0,-2.29688q0.76563,0.35938 1.73438,0.60938q0.98437,0.25 1.71875,0.25q1.51562,0 1.51562,-0.875q0,-0.32813 -0.20312,-0.53125q-0.20313,-0.21875 -0.70313,-0.46875q-0.48437,-0.26563 -1.3125,-0.60938q-1.17187,-0.48437 -1.71875,-0.90625q-0.54687,-0.42187 -0.79687,-0.95312q-0.25,-0.54688 -0.25,-1.34375q0,-1.35938 1.04687,-2.09375q1.04688,-0.75 2.98438,-0.75q1.84375,0 3.57812,0.79687l-0.84375,2.01563q-0.76562,-0.32813 -1.4375,-0.53125q-0.65625,-0.21875 -1.34375,-0.21875q-1.23437,0 -1.23437,0.65625q0,0.375 0.39062,0.65625q0.40625,0.26562 1.75,0.8125q1.1875,0.46875 1.73438,0.89062q0.5625,0.42188 0.82812,0.96875q0.26563,0.54688 0.26563,1.29688z" fill="#ffffff"/>
   <path stroke="null" id="svg_15" fill-rule="nonzero" d="m387.41006,275.20084l-3.20313,-10.45312l-0.07812,0q0.17187,3.1875 0.17187,4.26562l0,6.1875l-2.53125,0l0,-13.3125l3.84375,0l3.15625,10.17188l0.0625,0l3.32813,-10.17188l3.85937,0l0,13.3125l-2.64062,0l0,-6.29687q0,-0.45313 0.01562,-1.03125q0.01563,-0.59375 0.125,-3.10938l-0.07812,0l-3.4375,10.4375l-2.59375,0zm13.94983,-5.10937q0,1.51562 0.5,2.29687q0.5,0.76563 1.60937,0.76563q1.10938,0 1.59375,-0.76563q0.5,-0.78125 0.5,-2.29687q0,-1.51563 -0.5,-2.26563q-0.48437,-0.76562 -1.60937,-0.76562q-1.10938,0 -1.60938,0.76562q-0.48437,0.75 -0.48437,2.26563zm7.04687,0q0,2.48437 -1.3125,3.89062q-1.3125,1.40625 -3.65625,1.40625q-1.46875,0 -2.59375,-0.64062q-1.10937,-0.65625 -1.71875,-1.84375q-0.59375,-1.20313 -0.59375,-2.8125q0,-2.5 1.29688,-3.875q1.29687,-1.39063 3.65625,-1.39063q1.46875,0 2.59375,0.64063q1.125,0.64062 1.71875,1.82812q0.60937,1.1875 0.60937,2.79688zm5.5196,5.29687q-1.79688,0 -2.82813,-1.39062q-1.01562,-1.40625 -1.01562,-3.875q0,-2.5 1.03125,-3.89063q1.04687,-1.40625 2.875,-1.40625q1.92187,0 2.9375,1.5l0.09375,0q-0.21875,-1.14062 -0.21875,-2.03125l0,-3.26562l2.79687,0l0,14.17187l-2.14062,0l-0.53125,-1.32812l-0.125,0q-0.9375,1.51562 -2.875,1.51562zm0.96875,-2.21875q1.0625,0 1.5625,-0.60937q0.5,-0.625 0.54687,-2.10938l0,-0.3125q0,-1.64062 -0.51562,-2.34375q-0.5,-0.70312 -1.64063,-0.70312q-0.92187,0 -1.4375,0.78125q-0.51562,0.78125 -0.51562,2.29687q0,1.5 0.51562,2.25q0.51563,0.75 1.48438,0.75zm11.82153,-6.375q-0.875,0 -1.375,0.5625q-0.5,0.5625 -0.57813,1.59375l3.89063,0q-0.01563,-1.03125 -0.53125,-1.59375q-0.51563,-0.5625 -1.40625,-0.5625zm0.39062,8.59375q-2.45312,0 -3.84375,-1.35937q-1.375,-1.35938 -1.375,-3.84375q0,-2.5625 1.26563,-3.95313q1.28125,-1.40625 3.54687,-1.40625q2.15625,0 3.35938,1.23438q1.20312,1.21875 1.20312,3.39062l0,1.34375l-6.5625,0q0.04688,1.1875 0.70313,1.85938q0.65625,0.65625 1.82812,0.65625q0.92188,0 1.73438,-0.1875q0.82812,-0.1875 1.71875,-0.60938l0,2.15625q-0.71875,0.35938 -1.54688,0.53125q-0.82812,0.1875 -2.03125,0.1875zm9.19437,-0.1875l-2.78125,0l0,-14.17187l2.78125,0l0,14.17187z" fill="#ffffff"/>
   <path stroke="null" id="svg_16" fill-rule="evenodd" d="m328,359.0761l161.85828,0l0,68.40945l-161.85828,0l0,-68.40945z" fill-opacity="0" fill="#000000"/>
   <path stroke="null" id="svg_17" fill-rule="nonzero" d="m351.844,378.0446q-1.59375,0 -2.46875,1.20313q-0.875,1.1875 -0.875,3.32812q0,4.45313 3.34375,4.45313q1.40625,0 3.40625,-0.70313l0,2.375q-1.64063,0.6875 -3.67188,0.6875q-2.90625,0 -4.45312,-1.76562q-1.53125,-1.76563 -1.53125,-5.0625q0,-2.07813 0.75,-3.64063q0.76562,-1.5625 2.17187,-2.39062q1.42188,-0.84375 3.32813,-0.84375q1.95312,0 3.90625,0.9375l-0.90625,2.29687q-0.75,-0.34375 -1.51563,-0.60937q-0.75,-0.26563 -1.48437,-0.26563zm4.55978,0.96875l3.04688,0l1.92187,5.73438q0.23438,0.75 0.32813,1.76562l0.0625,0q0.09375,-0.9375 0.39062,-1.76562l1.89063,-5.73438l2.96875,0l-4.3125,11.48438q-0.57813,1.59375 -1.6875,2.39062q-1.09375,0.79688 -2.5625,0.79688q-0.71875,0 -1.40625,-0.15625l0,-2.20313q0.5,0.10938 1.09375,0.10938q0.73437,0 1.28125,-0.45313q0.5625,-0.4375 0.85937,-1.35937l0.17188,-0.5l-4.04688,-10.10938zm17.73755,-0.1875q1.79688,0 2.8125,1.40625q1.03125,1.40625 1.03125,3.85938q0,2.51562 -1.0625,3.90625q-1.04687,1.39062 -2.85937,1.39062q-1.79688,0 -2.8125,-1.3125l-0.1875,0l-0.46875,1.125l-2.125,0l0,-14.17187l2.78125,0l0,3.29687q0,0.625 -0.10938,2.01563l0.10938,0q0.96875,-1.51563 2.89062,-1.51563zm-0.89062,2.21875q-1.03125,0 -1.51563,0.64063q-0.46875,0.625 -0.48437,2.09375l0,0.29687q0,1.64063 0.48437,2.35938q0.48438,0.70312 1.54688,0.70312q0.85937,0 1.35937,-0.78125q0.51563,-0.79687 0.51563,-2.29687q0,-1.51563 -0.51563,-2.26563q-0.51562,-0.75 -1.39062,-0.75zm11.24341,-0.25q-0.875,0 -1.375,0.5625q-0.5,0.5625 -0.57813,1.59375l3.89063,0q-0.01563,-1.03125 -0.53125,-1.59375q-0.51563,-0.5625 -1.40625,-0.5625zm0.39062,8.59375q-2.45312,0 -3.84375,-1.35937q-1.375,-1.35938 -1.375,-3.84375q0,-2.5625 1.26563,-3.95313q1.28125,-1.40625 3.54687,-1.40625q2.15625,0 3.35938,1.23438q1.20312,1.21875 1.20312,3.39062l0,1.34375l-6.5625,0q0.04688,1.1875 0.70313,1.85938q0.65625,0.65625 1.82812,0.65625q0.92188,0 1.73438,-0.1875q0.82812,-0.1875 1.71875,-0.60938l0,2.15625q-0.71875,0.35938 -1.54688,0.53125q-0.82812,0.1875 -2.03125,0.1875zm12.10062,-10.5625q0.5625,0 0.9375,0.07813l-0.20313,2.60937q-0.34375,-0.09375 -0.82812,-0.09375q-1.32813,0 -2.07813,0.6875q-0.73437,0.6875 -0.73437,1.90625l0,5.1875l-2.78125,0l0,-10.1875l2.10937,0l0.40625,1.71875l0.14063,0q0.46875,-0.85937 1.26562,-1.375q0.8125,-0.53125 1.76563,-0.53125zm9.8937,7.34375q0,1.57813 -1.09375,2.40625q-1.07812,0.8125 -3.25,0.8125q-1.10937,0 -1.89062,-0.15625q-0.78125,-0.15625 -1.46875,-0.4375l0,-2.29687q0.76562,0.35937 1.73437,0.60937q0.98438,0.25 1.71875,0.25q1.51563,0 1.51563,-0.875q0,-0.32812 -0.20313,-0.53125q-0.20312,-0.21875 -0.70312,-0.46875q-0.48438,-0.26562 -1.3125,-0.60937q-1.17188,-0.48438 -1.71875,-0.90625q-0.54688,-0.42188 -0.79688,-0.95313q-0.25,-0.54687 -0.25,-1.34375q0,-1.35937 1.04688,-2.09375q1.04687,-0.75 2.98437,-0.75q1.84375,0 3.57813,0.79688l-0.84375,2.01562q-0.76563,-0.32812 -1.4375,-0.53125q-0.65625,-0.21875 -1.34375,-0.21875q-1.23438,0 -1.23438,0.65625q0,0.375 0.39063,0.65625q0.40625,0.26563 1.75,0.8125q1.1875,0.46875 1.73437,0.89063q0.5625,0.42187 0.82813,0.96875q0.26562,0.54687 0.26562,1.29687zm6.38285,-5.375q-0.875,0 -1.375,0.5625q-0.5,0.5625 -0.57813,1.59375l3.89063,0q-0.01563,-1.03125 -0.53125,-1.59375q-0.51563,-0.5625 -1.40625,-0.5625zm0.39062,8.59375q-2.45312,0 -3.84375,-1.35937q-1.375,-1.35938 -1.375,-3.84375q0,-2.5625 1.26563,-3.95313q1.28125,-1.40625 3.54687,-1.40625q2.15625,0 3.35938,1.23438q1.20312,1.21875 1.20312,3.39062l0,1.34375l-6.5625,0q0.04688,1.1875 0.70313,1.85938q0.65625,0.65625 1.82812,0.65625q0.92188,0 1.73438,-0.1875q0.82812,-0.1875 1.71875,-0.60938l0,2.15625q-0.71875,0.35938 -1.54688,0.53125q-0.82812,0.1875 -2.03125,0.1875zm10.55374,0q-4.75,0 -4.75,-5.21875q0,-2.60937 1.28125,-3.96875q1.29688,-1.375 3.71875,-1.375q1.76563,0 3.17188,0.6875l-0.82813,2.15625q-0.65625,-0.26562 -1.21875,-0.4375q-0.5625,-0.17187 -1.125,-0.17187q-2.17187,0 -2.17187,3.07812q0,3 2.17187,3q0.79688,0 1.46875,-0.21875q0.6875,-0.21875 1.375,-0.67187l0,2.375q-0.67187,0.4375 -1.35937,0.59375q-0.6875,0.17187 -1.73438,0.17187zm12.67044,-0.1875l-0.375,-1.29687l-0.14062,0q-0.45313,0.70312 -1.28125,1.09375q-0.8125,0.39062 -1.85938,0.39062q-1.79687,0 -2.70312,-0.95312q-0.90625,-0.96875 -0.90625,-2.78125l0,-6.64063l2.78125,0l0,5.95313q0,1.09375 0.39062,1.65625q0.39063,0.54687 1.25,0.54687q1.15625,0 1.67188,-0.78125q0.53125,-0.78125 0.53125,-2.57812l0,-4.79688l2.76562,0l0,10.1875l-2.125,0zm10.73014,-10.375q0.5625,0 0.9375,0.07813l-0.20313,2.60937q-0.34375,-0.09375 -0.82812,-0.09375q-1.32813,0 -2.07813,0.6875q-0.73437,0.6875 -0.73437,1.90625l0,5.1875l-2.78125,0l0,-10.1875l2.10937,0l0.40625,1.71875l0.14063,0q0.46875,-0.85937 1.26562,-1.375q0.8125,-0.53125 1.76563,-0.53125zm2.67495,-2.4375q0,-1.35937 1.5,-1.35937q1.51563,0 1.51563,1.35937q0,0.64063 -0.375,1q-0.375,0.35938 -1.14063,0.35938q-1.5,0 -1.5,-1.35938zm2.89063,12.8125l-2.78125,0l0,-10.1875l2.78125,0l0,10.1875zm7.20904,-2.03125q0.73438,0 1.75,-0.3125l0,2.0625q-1.04687,0.46875 -2.54687,0.46875q-1.67188,0 -2.4375,-0.84375q-0.75,-0.84375 -0.75,-2.53125l0,-4.90625l-1.34375,0l0,-1.1875l1.53125,-0.92187l0.8125,-2.15625l1.76562,0l0,2.17187l2.85938,0l0,2.09375l-2.85938,0l0,4.90625q0,0.59375 0.32813,0.875q0.34375,0.28125 0.89062,0.28125zm2.34836,-8.15625l3.04688,0l1.92187,5.73438q0.23438,0.75 0.32813,1.76562l0.0625,0q0.09375,-0.9375 0.39062,-1.76562l1.89063,-5.73438l2.96875,0l-4.3125,11.48438q-0.57813,1.59375 -1.6875,2.39062q-1.09375,0.79688 -2.5625,0.79688q-0.71875,0 -1.40625,-0.15625l0,-2.20313q0.5,0.10938 1.09375,0.10938q0.73437,0 1.28125,-0.45313q0.5625,-0.4375 0.85937,-1.35937l0.17188,-0.5l-4.04688,-10.10938z" fill="#ffffff"/>
   <path stroke="null" id="svg_18" fill-rule="nonzero" d="m362.60034,411.20084l-3.20312,-10.45312l-0.07813,0q0.17188,3.1875 0.17188,4.26562l0,6.1875l-2.53125,0l0,-13.3125l3.84375,0l3.15625,10.17188l0.0625,0l3.32812,-10.17188l3.85938,0l0,13.3125l-2.64063,0l0,-6.29687q0,-0.45313 0.01563,-1.03125q0.01562,-0.59375 0.125,-3.10938l-0.07813,0l-3.4375,10.4375l-2.59375,0zm15.94983,-8.40625q-0.875,0 -1.375,0.5625q-0.5,0.5625 -0.57813,1.59375l3.89063,0q-0.01563,-1.03125 -0.53125,-1.59375q-0.51563,-0.5625 -1.40625,-0.5625zm0.39062,8.59375q-2.45312,0 -3.84375,-1.35937q-1.375,-1.35938 -1.375,-3.84375q0,-2.5625 1.26563,-3.95313q1.28125,-1.40625 3.54687,-1.40625q2.15625,0 3.35938,1.23438q1.20312,1.21875 1.20312,3.39062l0,1.34375l-6.5625,0q0.04688,1.1875 0.70313,1.85938q0.65625,0.65625 1.82812,0.65625q0.92188,0 1.73438,-0.1875q0.82812,-0.1875 1.71875,-0.60938l0,2.15625q-0.71875,0.35938 -1.54688,0.53125q-0.82812,0.1875 -2.03125,0.1875zm10.55375,0q-4.75,0 -4.75,-5.21875q0,-2.60937 1.28125,-3.96875q1.29687,-1.375 3.71875,-1.375q1.76562,0 3.17187,0.6875l-0.82812,2.15625q-0.65625,-0.26562 -1.21875,-0.4375q-0.5625,-0.17187 -1.125,-0.17187q-2.17188,0 -2.17188,3.07812q0,3 2.17188,3q0.79687,0 1.46875,-0.21875q0.6875,-0.21875 1.375,-0.67187l0,2.375q-0.67188,0.4375 -1.35938,0.59375q-0.6875,0.17187 -1.73437,0.17187zm14.85794,-0.1875l-2.78125,0l0,-5.95312q0,-2.20313 -1.64063,-2.20313q-1.15625,0 -1.6875,0.79688q-0.51562,0.79687 -0.51562,2.5625l0,4.79687l-2.78125,0l0,-14.17187l2.78125,0l0,2.89062q0,0.32813 -0.0625,1.57813l-0.0625,0.82812l0.14062,0q0.9375,-1.5 2.95313,-1.5q1.79687,0 2.71875,0.96875q0.9375,0.96875 0.9375,2.76563l0,6.64062zm9.32385,0l-0.53125,-1.39062l-0.07813,0q-0.70312,0.89062 -1.45312,1.23437q-0.73438,0.34375 -1.92188,0.34375q-1.46875,0 -2.3125,-0.84375q-0.84375,-0.84375 -0.84375,-2.39062q0,-1.625 1.125,-2.39063q1.14063,-0.76562 3.4375,-0.84375l1.76563,-0.0625l0,-0.4375q0,-1.54687 -1.59375,-1.54687q-1.21875,0 -2.85938,0.73437l-0.92187,-1.875q1.75,-0.92187 3.89062,-0.92187q2.04688,0 3.14063,0.89062q1.09375,0.89063 1.09375,2.71875l0,6.78125l-1.9375,0zm-0.8125,-4.71875l-1.07813,0.03125q-1.21875,0.04688 -1.8125,0.45313q-0.57812,0.39062 -0.57812,1.20312q0,1.1875 1.34375,1.1875q0.96875,0 1.54687,-0.54687q0.57813,-0.5625 0.57813,-1.48438l0,-0.84375zm15.01846,4.71875l-2.78125,0l0,-5.95312q0,-1.09375 -0.39062,-1.64063q-0.39063,-0.5625 -1.25,-0.5625q-1.15625,0 -1.6875,0.78125q-0.51563,0.78125 -0.51563,2.57813l0,4.79687l-2.78125,0l0,-10.1875l2.125,0l0.375,1.3125l0.15625,0q0.46875,-0.75 1.28125,-1.125q0.8125,-0.375 1.84375,-0.375q1.78125,0 2.70313,0.96875q0.92187,0.95313 0.92187,2.76563l0,6.64062zm2.74576,-12.8125q0,-1.35937 1.5,-1.35937q1.51563,0 1.51563,1.35937q0,0.64063 -0.375,1q-0.375,0.35938 -1.14063,0.35938q-1.5,0 -1.5,-1.35938zm2.89063,12.8125l-2.78125,0l0,-10.1875l2.78125,0l0,10.1875zm10.02154,-3.03125q0,1.57813 -1.09375,2.40625q-1.07812,0.8125 -3.25,0.8125q-1.10937,0 -1.89062,-0.15625q-0.78125,-0.15625 -1.46875,-0.4375l0,-2.29687q0.76562,0.35937 1.73437,0.60937q0.98438,0.25 1.71875,0.25q1.51563,0 1.51563,-0.875q0,-0.32812 -0.20313,-0.53125q-0.20312,-0.21875 -0.70312,-0.46875q-0.48438,-0.26562 -1.3125,-0.60937q-1.17188,-0.48438 -1.71875,-0.90625q-0.54688,-0.42188 -0.79688,-0.95313q-0.25,-0.54687 -0.25,-1.34375q0,-1.35937 1.04688,-2.09375q1.04687,-0.75 2.98437,-0.75q1.84375,0 3.57813,0.79688l-0.84375,2.01562q-0.76563,-0.32812 -1.4375,-0.53125q-0.65625,-0.21875 -1.34375,-0.21875q-1.23438,0 -1.23438,0.65625q0,0.375 0.39063,0.65625q0.40625,0.26563 1.75,0.8125q1.1875,0.46875 1.73437,0.89063q0.5625,0.42187 0.82813,0.96875q0.26562,0.54687 0.26562,1.29687zm11.28912,3.03125l-2.78125,0l0,-5.95312q0,-1.09375 -0.375,-1.64063q-0.35937,-0.5625 -1.15625,-0.5625q-1.0625,0 -1.54687,0.78125q-0.48438,0.78125 -0.48438,2.57813l0,4.79687l-2.78125,0l0,-10.1875l2.125,0l0.375,1.3125l0.15625,0q0.40625,-0.70312 1.17188,-1.09375q0.78125,-0.40625 1.78125,-0.40625q2.29687,0 3.10937,1.5l0.23438,0q0.42187,-0.71875 1.21875,-1.10937q0.79687,-0.39063 1.79687,-0.39063q1.73438,0 2.60938,0.89063q0.89062,0.89062 0.89062,2.84375l0,6.64062l-2.78125,0l0,-5.95312q0,-1.09375 -0.375,-1.64063q-0.35937,-0.5625 -1.15625,-0.5625q-1.01562,0 -1.53125,0.73438q-0.5,0.71875 -0.5,2.3125l0,5.10937z" fill="#ffffff"/>
   <path stroke="null" id="svg_19" fill-rule="evenodd" d="m328,495.0761l161.85828,0l0,68.40942l-161.85828,0l0,-68.40942z" fill-opacity="0" fill="#000000"/>
   <path stroke="null" id="svg_20" fill-rule="nonzero" d="m381.40887,525.0446q-1.59375,0 -2.46875,1.20312q-0.875,1.1875 -0.875,3.32813q0,4.45312 3.34375,4.45312q1.40625,0 3.40625,-0.70312l0,2.375q-1.64063,0.6875 -3.67188,0.6875q-2.90625,0 -4.45312,-1.76563q-1.53125,-1.76562 -1.53125,-5.0625q0,-2.07812 0.75,-3.64062q0.76562,-1.5625 2.17187,-2.39063q1.42188,-0.84375 3.32813,-0.84375q1.95312,0 3.90625,0.9375l-0.90625,2.29688q-0.75,-0.34375 -1.51563,-0.60938q-0.75,-0.26562 -1.48437,-0.26562zm13.23163,11.15625l-0.375,-1.29688l-0.14063,0q-0.45312,0.70313 -1.28125,1.09375q-0.8125,0.39063 -1.85937,0.39063q-1.79688,0 -2.70313,-0.95313q-0.90625,-0.96875 -0.90625,-2.78125l0,-6.64062l2.78125,0l0,5.95312q0,1.09375 0.39063,1.65625q0.39062,0.54688 1.25,0.54688q1.15625,0 1.67187,-0.78125q0.53125,-0.78125 0.53125,-2.57813l0,-4.79687l2.76563,0l0,10.1875l-2.125,0zm7.82391,0l-2.78125,0l0,-14.17188l2.78125,0l0,14.17188zm7.20905,-2.03125q0.73437,0 1.75,-0.3125l0,2.0625q-1.04688,0.46875 -2.54688,0.46875q-1.67187,0 -2.4375,-0.84375q-0.75,-0.84375 -0.75,-2.53125l0,-4.90625l-1.34375,0l0,-1.1875l1.53125,-0.92188l0.8125,-2.15625l1.76563,0l0,2.17188l2.85937,0l0,2.09375l-2.85937,0l0,4.90625q0,0.59375 0.32812,0.875q0.34375,0.28125 0.89063,0.28125zm11.0202,2.03125l-0.375,-1.29688l-0.14063,0q-0.45312,0.70313 -1.28125,1.09375q-0.8125,0.39063 -1.85937,0.39063q-1.79688,0 -2.70313,-0.95313q-0.90625,-0.96875 -0.90625,-2.78125l0,-6.64062l2.78125,0l0,5.95312q0,1.09375 0.39063,1.65625q0.39062,0.54688 1.25,0.54688q1.15625,0 1.67187,-0.78125q0.53125,-0.78125 0.53125,-2.57813l0,-4.79687l2.76563,0l0,10.1875l-2.125,0zm10.73016,-10.375q0.5625,0 0.9375,0.07812l-0.20312,2.60938q-0.34375,-0.09375 -0.82813,-0.09375q-1.32812,0 -2.07812,0.6875q-0.73438,0.6875 -0.73438,1.90625l0,5.1875l-2.78125,0l0,-10.1875l2.10938,0l0.40625,1.71875l0.14062,0q0.46875,-0.85938 1.26563,-1.375q0.8125,-0.53125 1.76562,-0.53125zm7.00306,1.96875q-0.875,0 -1.375,0.5625q-0.5,0.5625 -0.57813,1.59375l3.89063,0q-0.01563,-1.03125 -0.53125,-1.59375q-0.51563,-0.5625 -1.40625,-0.5625zm0.39062,8.59375q-2.45312,0 -3.84375,-1.35938q-1.375,-1.35937 -1.375,-3.84375q0,-2.5625 1.26563,-3.95312q1.28125,-1.40625 3.54687,-1.40625q2.15625,0 3.35938,1.23437q1.20312,1.21875 1.20312,3.39063l0,1.34375l-6.5625,0q0.04688,1.1875 0.70313,1.85937q0.65625,0.65625 1.82812,0.65625q0.92188,0 1.73438,-0.1875q0.82812,-0.1875 1.71875,-0.60937l0,2.15625q-0.71875,0.35937 -1.54688,0.53125q-0.82812,0.1875 -2.03125,0.1875z" fill="#ffffff"/>
   <path stroke="null" id="svg_21" fill-rule="evenodd" d="m432,63.07612l161.85828,0l0,68.40945l-161.85828,0l0,-68.40945z" fill-opacity="0" fill="#000000"/>
   <path stroke="null" id="svg_22" fill-rule="nonzero" d="m482.39362,89.99612l-0.96875,-3.17187l-4.84375,0l-0.96875,3.17187l-3.04688,0l4.70313,-13.375l3.45312,0l4.71875,13.375l-3.04687,0zm-1.64063,-5.53125q-1.34375,-4.3125 -1.51562,-4.875q-0.15625,-0.57812 -0.23438,-0.90625q-0.29687,1.17188 -1.71875,5.78125l3.46875,0zm13.24671,2.5q0,1.57813 -1.09375,2.40625q-1.07813,0.8125 -3.25,0.8125q-1.10938,0 -1.89063,-0.15625q-0.78125,-0.15625 -1.46875,-0.4375l0,-2.29687q0.76563,0.35937 1.73438,0.60937q0.98437,0.25 1.71875,0.25q1.51562,0 1.51562,-0.875q0,-0.32812 -0.20312,-0.53125q-0.20313,-0.21875 -0.70313,-0.46875q-0.48437,-0.26562 -1.3125,-0.60937q-1.17187,-0.48438 -1.71875,-0.90625q-0.54687,-0.42188 -0.79687,-0.95313q-0.25,-0.54687 -0.25,-1.34375q0,-1.35937 1.04687,-2.09375q1.04688,-0.75 2.98438,-0.75q1.84375,0 3.57812,0.79688l-0.84375,2.01562q-0.76562,-0.32812 -1.4375,-0.53125q-0.65625,-0.21875 -1.34375,-0.21875q-1.23437,0 -1.23437,0.65625q0,0.375 0.39062,0.65625q0.40625,0.26563 1.75,0.8125q1.1875,0.46875 1.73438,0.89063q0.5625,0.42187 0.82812,0.96875q0.26563,0.54687 0.26563,1.29687zm9.2735,0q0,1.57813 -1.09375,2.40625q-1.07813,0.8125 -3.25,0.8125q-1.10938,0 -1.89063,-0.15625q-0.78125,-0.15625 -1.46875,-0.4375l0,-2.29687q0.76563,0.35937 1.73438,0.60937q0.98437,0.25 1.71875,0.25q1.51562,0 1.51562,-0.875q0,-0.32812 -0.20312,-0.53125q-0.20313,-0.21875 -0.70313,-0.46875q-0.48437,-0.26562 -1.3125,-0.60937q-1.17187,-0.48438 -1.71875,-0.90625q-0.54687,-0.42188 -0.79687,-0.95313q-0.25,-0.54687 -0.25,-1.34375q0,-1.35937 1.04687,-2.09375q1.04688,-0.75 2.98438,-0.75q1.84375,0 3.57812,0.79688l-0.84375,2.01562q-0.76562,-0.32812 -1.4375,-0.53125q-0.65625,-0.21875 -1.34375,-0.21875q-1.23437,0 -1.23437,0.65625q0,0.375 0.39062,0.65625q0.40625,0.26563 1.75,0.8125q1.1875,0.46875 1.73438,0.89063q0.5625,0.42187 0.82812,0.96875q0.26563,0.54687 0.26563,1.29687zm9.38281,3.03125l-0.375,-1.29687l-0.14062,0q-0.45313,0.70312 -1.28125,1.09375q-0.8125,0.39062 -1.85938,0.39062q-1.79687,0 -2.70312,-0.95312q-0.90625,-0.96875 -0.90625,-2.78125l0,-6.64063l2.78125,0l0,5.95313q0,1.09375 0.39062,1.65625q0.39063,0.54687 1.25,0.54687q1.15625,0 1.67188,-0.78125q0.53125,-0.78125 0.53125,-2.57812l0,-4.79688l2.76562,0l0,10.1875l-2.125,0zm14.16766,0l-2.78125,0l0,-5.95312q0,-1.09375 -0.375,-1.64063q-0.35937,-0.5625 -1.15625,-0.5625q-1.0625,0 -1.54687,0.78125q-0.48438,0.78125 -0.48438,2.57813l0,4.79687l-2.78125,0l0,-10.1875l2.125,0l0.375,1.3125l0.15625,0q0.40625,-0.70312 1.17188,-1.09375q0.78125,-0.40625 1.78125,-0.40625q2.29687,0 3.10937,1.5l0.23438,0q0.42187,-0.71875 1.21875,-1.10937q0.79687,-0.39063 1.79687,-0.39063q1.73438,0 2.60938,0.89063q0.89062,0.89062 0.89062,2.84375l0,6.64062l-2.78125,0l0,-5.95312q0,-1.09375 -0.375,-1.64063q-0.35937,-0.5625 -1.15625,-0.5625q-1.01562,0 -1.53125,0.73438q-0.5,0.71875 -0.5,2.3125l0,5.10937zm13.41291,-8.40625q-0.875,0 -1.375,0.5625q-0.5,0.5625 -0.57813,1.59375l3.89063,0q-0.01563,-1.03125 -0.53125,-1.59375q-0.51563,-0.5625 -1.40625,-0.5625zm0.39062,8.59375q-2.45312,0 -3.84375,-1.35937q-1.375,-1.35938 -1.375,-3.84375q0,-2.5625 1.26563,-3.95313q1.28125,-1.40625 3.54687,-1.40625q2.15625,0 3.35938,1.23438q1.20312,1.21875 1.20312,3.39062l0,1.34375l-6.5625,0q0.04688,1.1875 0.70313,1.85938q0.65625,0.65625 1.82812,0.65625q0.92188,0 1.73438,-0.1875q0.82812,-0.1875 1.71875,-0.60938l0,2.15625q-0.71875,0.35938 -1.54688,0.53125q-0.82812,0.1875 -2.03125,0.1875zm9.80628,-10.375l3.04687,0l1.92188,5.73438q0.23437,0.75 0.32812,1.76562l0.0625,0q0.09375,-0.9375 0.39063,-1.76562l1.89062,-5.73438l2.96875,0l-4.3125,11.48438q-0.57812,1.59375 -1.6875,2.39062q-1.09375,0.79688 -2.5625,0.79688q-0.71875,0 -1.40625,-0.15625l0,-2.20313q0.5,0.10938 1.09375,0.10938q0.73438,0 1.28125,-0.45313q0.5625,-0.4375 0.85938,-1.35937l0.17187,-0.5l-4.04687,-10.10938zm14.28442,5.07813q0,1.51562 0.5,2.29687q0.5,0.76563 1.60938,0.76563q1.10937,0 1.59375,-0.76563q0.5,-0.78125 0.5,-2.29687q0,-1.51563 -0.5,-2.26563q-0.48438,-0.76562 -1.60938,-0.76562q-1.10937,0 -1.60937,0.76562q-0.48438,0.75 -0.48438,2.26563zm7.04688,0q0,2.48437 -1.3125,3.89062q-1.3125,1.40625 -3.65625,1.40625q-1.46875,0 -2.59375,-0.64062q-1.10938,-0.65625 -1.71875,-1.84375q-0.59375,-1.20313 -0.59375,-2.8125q0,-2.5 1.29687,-3.875q1.29688,-1.39063 3.65625,-1.39063q1.46875,0 2.59375,0.64063q1.125,0.64062 1.71875,1.82812q0.60938,1.1875 0.60938,2.79688zm9.50396,5.10937l-0.375,-1.29687l-0.14062,0q-0.45313,0.70312 -1.28125,1.09375q-0.8125,0.39062 -1.85938,0.39062q-1.79687,0 -2.70312,-0.95312q-0.90625,-0.96875 -0.90625,-2.78125l0,-6.64063l2.78125,0l0,5.95313q0,1.09375 0.39062,1.65625q0.39063,0.54687 1.25,0.54687q1.15625,0 1.67188,-0.78125q0.53125,-0.78125 0.53125,-2.57812l0,-4.79688l2.76562,0l0,10.1875l-2.125,0z" fill="#0b5394"/>
   <path stroke="null" id="svg_23" fill-rule="nonzero" d="m499.59424,111.99612l-2.78125,0l0,-5.95312q0,-2.20313 -1.64062,-2.20313q-1.15625,0 -1.6875,0.79688q-0.51563,0.79687 -0.51563,2.5625l0,4.79687l-2.78125,0l0,-14.17187l2.78125,0l0,2.89062q0,0.32813 -0.0625,1.57813l-0.0625,0.82812l0.14063,0q0.9375,-1.5 2.95312,-1.5q1.79688,0 2.71875,0.96875q0.9375,0.96875 0.9375,2.76563l0,6.64062zm9.32385,0l-0.53125,-1.39062l-0.07812,0q-0.70313,0.89062 -1.45313,1.23437q-0.73437,0.34375 -1.92187,0.34375q-1.46875,0 -2.3125,-0.84375q-0.84375,-0.84375 -0.84375,-2.39062q0,-1.625 1.125,-2.39063q1.14062,-0.76562 3.4375,-0.84375l1.76562,-0.0625l0,-0.4375q0,-1.54687 -1.59375,-1.54687q-1.21875,0 -2.85937,0.73437l-0.92188,-1.875q1.75,-0.92187 3.89063,-0.92187q2.04687,0 3.14062,0.89062q1.09375,0.89063 1.09375,2.71875l0,6.78125l-1.9375,0zm-0.8125,-4.71875l-1.07812,0.03125q-1.21875,0.04688 -1.8125,0.45313q-0.57813,0.39062 -0.57813,1.20312q0,1.1875 1.34375,1.1875q0.96875,0 1.54688,-0.54687q0.57812,-0.5625 0.57812,-1.48438l0,-0.84375zm8.03406,4.71875l-3.875,-10.1875l2.90625,0l1.96875,5.8125q0.32813,1.09375 0.40625,2.07813l0.0625,0q0.04688,-0.875 0.40625,-2.07813l1.95313,-5.8125l2.90625,0l-3.875,10.1875l-2.85938,0zm12.40949,-8.40625q-0.875,0 -1.375,0.5625q-0.5,0.5625 -0.57813,1.59375l3.89063,0q-0.01563,-1.03125 -0.53125,-1.59375q-0.51563,-0.5625 -1.40625,-0.5625zm0.39062,8.59375q-2.45312,0 -3.84375,-1.35937q-1.375,-1.35938 -1.375,-3.84375q0,-2.5625 1.26563,-3.95313q1.28125,-1.40625 3.54687,-1.40625q2.15625,0 3.35938,1.23438q1.20312,1.21875 1.20312,3.39062l0,1.34375l-6.5625,0q0.04688,1.1875 0.70313,1.85938q0.65625,0.65625 1.82812,0.65625q0.92188,0 1.73438,-0.1875q0.82812,-0.1875 1.71875,-0.60938l0,2.15625q-0.71875,0.35938 -1.54688,0.53125q-0.82812,0.1875 -2.03125,0.1875zm16.93121,-10.5625q1.79688,0 2.8125,1.40625q1.03125,1.40625 1.03125,3.85938q0,2.51562 -1.0625,3.90625q-1.04687,1.39062 -2.85937,1.39062q-1.79688,0 -2.8125,-1.3125l-0.1875,0l-0.46875,1.125l-2.125,0l0,-14.17187l2.78125,0l0,3.29687q0,0.625 -0.10938,2.01563l0.10938,0q0.96875,-1.51563 2.89062,-1.51563zm-0.89062,2.21875q-1.03125,0 -1.51563,0.64063q-0.46875,0.625 -0.48437,2.09375l0,0.29687q0,1.64063 0.48437,2.35938q0.48438,0.70312 1.54688,0.70312q0.85937,0 1.35937,-0.78125q0.51563,-0.79687 0.51563,-2.29687q0,-1.51563 -0.51563,-2.26563q-0.51562,-0.75 -1.39062,-0.75zm11.24341,-0.25q-0.875,0 -1.375,0.5625q-0.5,0.5625 -0.57813,1.59375l3.89063,0q-0.01563,-1.03125 -0.53125,-1.59375q-0.51563,-0.5625 -1.40625,-0.5625zm0.39062,8.59375q-2.45312,0 -3.84375,-1.35937q-1.375,-1.35938 -1.375,-3.84375q0,-2.5625 1.26563,-3.95313q1.28125,-1.40625 3.54687,-1.40625q2.15625,0 3.35938,1.23438q1.20312,1.21875 1.20312,3.39062l0,1.34375l-6.5625,0q0.04688,1.1875 0.70313,1.85938q0.65625,0.65625 1.82812,0.65625q0.92188,0 1.73438,-0.1875q0.82812,-0.1875 1.71875,-0.60938l0,2.15625q-0.71875,0.35938 -1.54688,0.53125q-0.82812,0.1875 -2.03125,0.1875zm10.6319,-8.59375q-0.875,0 -1.375,0.5625q-0.5,0.5625 -0.57813,1.59375l3.89063,0q-0.01563,-1.03125 -0.53125,-1.59375q-0.51563,-0.5625 -1.40625,-0.5625zm0.39062,8.59375q-2.45312,0 -3.84375,-1.35937q-1.375,-1.35938 -1.375,-3.84375q0,-2.5625 1.26563,-3.95313q1.28125,-1.40625 3.54687,-1.40625q2.15625,0 3.35938,1.23438q1.20312,1.21875 1.20312,3.39062l0,1.34375l-6.5625,0q0.04688,1.1875 0.70313,1.85938q0.65625,0.65625 1.82812,0.65625q0.92188,0 1.73438,-0.1875q0.82812,-0.1875 1.71875,-0.60938l0,2.15625q-0.71875,0.35938 -1.54688,0.53125q-0.82812,0.1875 -2.03125,0.1875zm15.81934,-0.1875l-2.78125,0l0,-5.95312q0,-1.09375 -0.39063,-1.64063q-0.39062,-0.5625 -1.25,-0.5625q-1.15625,0 -1.6875,0.78125q-0.51562,0.78125 -0.51562,2.57813l0,4.79687l-2.78125,0l0,-10.1875l2.125,0l0.375,1.3125l0.15625,0q0.46875,-0.75 1.28125,-1.125q0.8125,-0.375 1.84375,-0.375q1.78125,0 2.70312,0.96875q0.92188,0.95313 0.92188,2.76563l0,6.64062z" fill="#0b5394"/>
   <path stroke="null" id="svg_24" fill-rule="nonzero" d="m528.19806,133.99611l-2.78125,0l0,-5.95313q0,-2.20311 -1.64062,-2.20311q-1.15625,0 -1.6875,0.79687q-0.51563,0.79688 -0.51563,2.56249l0,4.79688l-2.78125,0l0,-14.17187l2.78125,0l0,2.89063q0,0.32812 -0.0625,1.57812l-0.0625,0.82813l0.14063,0q0.9375,-1.5 2.95312,-1.5q1.79688,0 2.71875,0.96875q0.9375,0.96875 0.9375,2.76562l0,6.64062zm9.32385,0l-0.53125,-1.39063l-0.07812,0q-0.70313,0.89063 -1.45313,1.23438q-0.73437,0.34375 -1.92187,0.34375q-1.46875,0 -2.3125,-0.84375q-0.84375,-0.84375 -0.84375,-2.39063q0,-1.625 1.125,-2.39062q1.14062,-0.76562 3.4375,-0.84374l1.76562,-0.0625l0,-0.4375q0,-1.54688 -1.59375,-1.54688q-1.21875,0 -2.85937,0.73438l-0.92188,-1.875q1.75,-0.92188 3.89063,-0.92188q2.04687,0 3.14062,0.89063q1.09375,0.89062 1.09375,2.71875l0,6.78124l-1.9375,0zm-0.8125,-4.71875l-1.07812,0.03125q-1.21875,0.04687 -1.8125,0.45312q-0.57813,0.39063 -0.57813,1.20313q0,1.1875 1.34375,1.1875q0.96875,0 1.54688,-0.54688q0.57812,-0.5625 0.57812,-1.48437l0,-0.84375zm9.75287,4.90625q-4.75,0 -4.75,-5.21875q0,-2.60937 1.28125,-3.96874q1.29688,-1.375 3.71875,-1.375q1.76563,0 3.17188,0.6875l-0.82813,2.15625q-0.65625,-0.26563 -1.21875,-0.4375q-0.5625,-0.17188 -1.125,-0.17188q-2.17187,0 -2.17187,3.07812q0,3 2.17187,3q0.79688,0 1.46875,-0.21875q0.6875,-0.21875 1.375,-0.67188l0,2.375q-0.67187,0.4375 -1.35937,0.59375q-0.6875,0.17188 -1.73438,0.17188zm8.12354,-5.71875l1.21875,-1.56249l2.84375,-3.09375l3.14062,0l-4.04687,4.42186l4.28125,5.76563l-3.20313,0l-2.9375,-4.125l-1.1875,0.95312l0,3.17188l-2.78125,0l0,-14.17187l2.78125,0l0,6.3125l-0.14062,2.32812l0.03125,0zm13.1159,-2.87499q-0.875,0 -1.375,0.5625q-0.5,0.5625 -0.57812,1.59375l3.89062,0q-0.01562,-1.03125 -0.53125,-1.59375q-0.51562,-0.5625 -1.40625,-0.5625zm0.39063,8.59374q-2.45313,0 -3.84375,-1.35938q-1.375,-1.35937 -1.375,-3.84375q0,-2.56249 1.26562,-3.95311q1.28125,-1.40625 3.54688,-1.40625q2.15625,0 3.35937,1.23437q1.20313,1.21875 1.20313,3.39062l0,1.34375l-6.5625,0q0.04687,1.1875 0.70312,1.85937q0.65625,0.65625 1.82813,0.65625q0.92187,0 1.73437,-0.1875q0.82813,-0.1875 1.71875,-0.60937l0,2.15625q-0.71875,0.35937 -1.54687,0.53125q-0.82813,0.1875 -2.03125,0.1875zm9.64752,0q-1.79688,0 -2.82813,-1.39063q-1.01562,-1.40625 -1.01562,-3.875q0,-2.49999 1.03125,-3.89061q1.04687,-1.40625 2.875,-1.40625q1.92187,0 2.9375,1.5l0.09375,0q-0.21875,-1.14063 -0.21875,-2.03125l0,-3.26563l2.79687,0l0,14.17187l-2.14062,0l-0.53125,-1.32813l-0.125,0q-0.9375,1.51563 -2.875,1.51563zm0.96875,-2.21875q1.0625,0 1.5625,-0.60938q0.5,-0.625 0.54687,-2.10937l0,-0.3125q0,-1.64062 -0.51562,-2.34374q-0.5,-0.70313 -1.64063,-0.70313q-0.92187,0 -1.4375,0.78125q-0.51562,0.78125 -0.51562,2.29687q0,1.5 0.51562,2.25q0.51563,0.75 1.48438,0.75z" fill="#0b5394"/>
   <path stroke="null" id="svg_25" fill-rule="evenodd" d="m532.0721,215.07611l161.85828,0l0,68.40945l-161.85828,0l0,-68.40945z" fill-opacity="0" fill="#000000"/>
   <path stroke="null" id="svg_26" fill-rule="nonzero" d="m570.57385,230.83986q-1.59375,0 -2.46875,1.20312q-0.875,1.1875 -0.875,3.32813q0,4.45312 3.34375,4.45312q1.40625,0 3.40625,-0.70312l0,2.375q-1.64063,0.6875 -3.67188,0.6875q-2.90625,0 -4.45312,-1.76563q-1.53125,-1.76562 -1.53125,-5.0625q0,-2.07812 0.75,-3.64062q0.76562,-1.5625 2.17187,-2.39063q1.42188,-0.84375 3.32813,-0.84375q1.95312,0 3.90625,0.9375l-0.90625,2.29688q-0.75,-0.34375 -1.51563,-0.60938q-0.75,-0.26562 -1.48437,-0.26562zm15.41913,11.15625l-2.78125,0l0,-5.95313q0,-2.20312 -1.64063,-2.20312q-1.15625,0 -1.6875,0.79687q-0.51562,0.79688 -0.51562,2.5625l0,4.79688l-2.78125,0l0,-14.17188l2.78125,0l0,2.89063q0,0.32812 -0.0625,1.57812l-0.0625,0.82813l0.14062,0q0.9375,-1.5 2.95313,-1.5q1.79687,0 2.71875,0.96875q0.9375,0.96875 0.9375,2.76562l0,6.64063zm9.32385,0l-0.53125,-1.39063l-0.07812,0q-0.70313,0.89063 -1.45313,1.23438q-0.73437,0.34375 -1.92187,0.34375q-1.46875,0 -2.3125,-0.84375q-0.84375,-0.84375 -0.84375,-2.39063q0,-1.625 1.125,-2.39062q1.14062,-0.76563 3.4375,-0.84375l1.76562,-0.0625l0,-0.4375q0,-1.54688 -1.59375,-1.54688q-1.21875,0 -2.85937,0.73438l-0.92188,-1.875q1.75,-0.92188 3.89063,-0.92188q2.04687,0 3.14062,0.89063q1.09375,0.89062 1.09375,2.71875l0,6.78125l-1.9375,0zm-0.8125,-4.71875l-1.07812,0.03125q-1.21875,0.04687 -1.8125,0.45312q-0.57813,0.39063 -0.57813,1.20313q0,1.1875 1.34375,1.1875q0.96875,0 1.54688,-0.54688q0.57812,-0.5625 0.57812,-1.48437l0,-0.84375zm15.0185,4.71875l-2.78125,0l0,-5.95313q0,-1.09375 -0.39063,-1.64062q-0.39062,-0.5625 -1.25,-0.5625q-1.15625,0 -1.6875,0.78125q-0.51562,0.78125 -0.51562,2.57812l0,4.79688l-2.78125,0l0,-10.1875l2.125,0l0.375,1.3125l0.15625,0q0.46875,-0.75 1.28125,-1.125q0.8125,-0.375 1.84375,-0.375q1.78125,0 2.70312,0.96875q0.92188,0.95312 0.92188,2.76562l0,6.64063zm11.7301,-10.1875l0,1.42187l-1.59375,0.40625q0.4375,0.6875 0.4375,1.53125q0,1.64063 -1.15625,2.5625q-1.14063,0.90625 -3.17188,0.90625l-0.5,-0.03125l-0.40625,-0.04687q-0.4375,0.32812 -0.4375,0.73437q0,0.59375 1.53125,0.59375l1.73438,0q1.67187,0 2.54687,0.71875q0.89063,0.71875 0.89063,2.125q0,1.78125 -1.5,2.76563q-1.48438,0.98437 -4.26563,0.98437q-2.125,0 -3.26562,-0.75q-1.125,-0.73437 -1.125,-2.07812q0,-0.92188 0.57812,-1.54688q0.57813,-0.60937 1.6875,-0.875q-0.42187,-0.1875 -0.75,-0.59375q-0.3125,-0.42187 -0.3125,-0.875q0,-0.59375 0.32813,-0.96875q0.34375,-0.39062 0.98437,-0.76562q-0.79687,-0.34375 -1.28125,-1.10938q-0.46875,-0.76562 -0.46875,-1.8125q0,-1.65625 1.07813,-2.5625q1.09375,-0.92187 3.10937,-0.92187q0.42188,0 1.01563,0.07812q0.59375,0.07813 0.75,0.10938l3.5625,0zm-7.875,11.625q0,0.57812 0.54687,0.90625q0.5625,0.32812 1.5625,0.32812q1.48438,0 2.32813,-0.42187q0.85937,-0.40625 0.85937,-1.10938q0,-0.57812 -0.51562,-0.79687q-0.5,-0.21875 -1.54688,-0.21875l-1.4375,0q-0.76562,0 -1.28125,0.35937q-0.51562,0.35938 -0.51562,0.95313zm1.01562,-8.28125q0,0.82812 0.375,1.3125q0.39063,0.46875 1.15625,0.46875q0.78125,0 1.14063,-0.46875q0.375,-0.48438 0.375,-1.3125q0,-1.84375 -1.51563,-1.84375q-1.53125,0 -1.53125,1.84375zm12.7428,-1.5625q-0.875,0 -1.375,0.5625q-0.5,0.5625 -0.57812,1.59375l3.89062,0q-0.01562,-1.03125 -0.53125,-1.59375q-0.51562,-0.5625 -1.40625,-0.5625zm0.39063,8.59375q-2.45313,0 -3.84375,-1.35938q-1.375,-1.35937 -1.375,-3.84375q0,-2.5625 1.26562,-3.95312q1.28125,-1.40625 3.54688,-1.40625q2.15625,0 3.35937,1.23437q1.20313,1.21875 1.20313,3.39063l0,1.34375l-6.5625,0q0.04687,1.1875 0.70312,1.85937q0.65625,0.65625 1.82813,0.65625q0.92187,0 1.73437,-0.1875q0.82813,-0.1875 1.71875,-0.60937l0,2.15625q-0.71875,0.35937 -1.54687,0.53125q-0.82813,0.1875 -2.03125,0.1875zm19.6344,-0.1875l-0.78125,-3.5625l-1.0625,-4.5l-0.0625,0l-1.85938,8.0625l-2.98437,0l-2.89063,-10.1875l2.76563,0l1.17187,4.51562q0.28125,1.20313 0.57813,3.34375l0.04687,0q0.04688,-0.70312 0.32813,-2.20312l0.14062,-0.76563l1.26563,-4.89062l3.04687,0l1.20313,4.89062q0.03125,0.20313 0.10937,0.59375q0.07813,0.39063 0.14063,0.82813q0.07812,0.4375 0.14062,0.85937q0.0625,0.42188 0.07813,0.6875l0.04687,0q0.07813,-0.65625 0.28125,-1.79687q0.21875,-1.15625 0.3125,-1.54688l1.21875,-4.51562l2.71875,0l-2.92187,10.1875l-3.03125,0zm17.00018,0l-2.78125,0l0,-5.95313q0,-2.20312 -1.64063,-2.20312q-1.15625,0 -1.6875,0.79687q-0.51562,0.79688 -0.51562,2.5625l0,4.79688l-2.78125,0l0,-14.17188l2.78125,0l0,2.89063q0,0.32812 -0.0625,1.57812l-0.0625,0.82813l0.14062,0q0.9375,-1.5 2.95313,-1.5q1.79687,0 2.71875,0.96875q0.9375,0.96875 0.9375,2.76562l0,6.64063zm9.32391,0l-0.53125,-1.39063l-0.07812,0q-0.70313,0.89063 -1.45313,1.23438q-0.73437,0.34375 -1.92187,0.34375q-1.46875,0 -2.3125,-0.84375q-0.84375,-0.84375 -0.84375,-2.39063q0,-1.625 1.125,-2.39062q1.14062,-0.76563 3.4375,-0.84375l1.76562,-0.0625l0,-0.4375q0,-1.54688 -1.59375,-1.54688q-1.21875,0 -2.85937,0.73438l-0.92188,-1.875q1.75,-0.92188 3.89063,-0.92188q2.04687,0 3.14062,0.89063q1.09375,0.89062 1.09375,2.71875l0,6.78125l-1.9375,0zm-0.8125,-4.71875l-1.07812,0.03125q-1.21875,0.04687 -1.8125,0.45312q-0.57813,0.39063 -0.57813,1.20313q0,1.1875 1.34375,1.1875q0.96875,0 1.54688,-0.54688q0.57812,-0.5625 0.57812,-1.48437l0,-0.84375zm9.90906,2.6875q0.73438,0 1.75,-0.3125l0,2.0625q-1.04687,0.46875 -2.54687,0.46875q-1.67188,0 -2.4375,-0.84375q-0.75,-0.84375 -0.75,-2.53125l0,-4.90625l-1.34375,0l0,-1.1875l1.53125,-0.92188l0.8125,-2.15625l1.76562,0l0,2.17188l2.85938,0l0,2.09375l-2.85938,0l0,4.90625q0,0.59375 0.32813,0.875q0.34375,0.28125 0.89062,0.28125z" fill="#0b5394"/>
   <path stroke="null" id="svg_27" fill-rule="nonzero" d="m577.0193,253.80861l3.04688,0l1.92187,5.73439q0.23438,0.75 0.32813,1.76563l0.0625,0q0.09375,-0.9375 0.39062,-1.76563l1.89063,-5.73439l2.96875,0l-4.3125,11.48439q-0.57813,1.59375 -1.6875,2.39062q-1.09375,0.79688 -2.5625,0.79688q-0.71875,0 -1.40625,-0.15625l0,-2.20313q0.5,0.10938 1.09375,0.10938q0.73437,0 1.28125,-0.45313q0.5625,-0.4375 0.85937,-1.35937l0.17188,-0.5l-4.04688,-10.10939zm14.28442,5.07814q0,1.51563 0.5,2.29688q0.5,0.76562 1.60938,0.76562q1.10937,0 1.59375,-0.76562q0.5,-0.78125 0.5,-2.29688q0,-1.51562 -0.5,-2.26562q-0.48438,-0.76564 -1.60938,-0.76564q-1.10937,0 -1.60937,0.76564q-0.48438,0.75 -0.48438,2.26562zm7.04688,0q0,2.48438 -1.3125,3.89063q-1.3125,1.40625 -3.65625,1.40625q-1.46875,0 -2.59375,-0.64063q-1.10938,-0.65625 -1.71875,-1.84375q-0.59375,-1.20312 -0.59375,-2.8125q0,-2.5 1.29687,-3.87502q1.29688,-1.39062 3.65625,-1.39062q1.46875,0 2.59375,0.64062q1.125,0.64063 1.71875,1.82815q0.60938,1.1875 0.60938,2.79687zm9.50397,5.10938l-0.375,-1.29688l-0.14063,0q-0.45312,0.70313 -1.28125,1.09375q-0.8125,0.39063 -1.85937,0.39063q-1.79688,0 -2.70313,-0.95313q-0.90625,-0.96875 -0.90625,-2.78125l0,-6.64064l2.78125,0l0,5.95314q0,1.09375 0.39063,1.65625q0.39062,0.54688 1.25,0.54688q1.15625,0 1.67187,-0.78125q0.53125,-0.78125 0.53125,-2.57813l0,-4.79689l2.76563,0l0,10.18751l-2.125,0l0,0.00001zm15.4826,0.1875q-1.79687,0 -2.8125,-1.3125l-0.14062,0q0.14062,1.28125 0.14062,1.48437l0,4.125l-2.78125,0l0,-14.67189l2.26563,0l0.39062,1.32813l0.125,0q0.96875,-1.51563 2.89063,-1.51563q1.79687,0 2.8125,1.39063q1.03125,1.39064 1.03125,3.87501q0,1.625 -0.48438,2.82813q-0.46875,1.20312 -1.35937,1.84375q-0.875,0.625 -2.07813,0.625zm-0.8125,-8.34377q-1.03125,0 -1.51562,0.64064q-0.46875,0.625 -0.48438,2.09375l0,0.29688q0,1.64062 0.48438,2.35937q0.48437,0.70313 1.54687,0.70313q1.875,0 1.875,-3.07813q0,-1.51562 -0.46875,-2.26562q-0.45312,-0.75002 -1.4375,-0.75002zm12.71216,-2.21875q0.5625,0 0.9375,0.07813l-0.20313,2.60939q-0.34375,-0.09375 -0.82812,-0.09375q-1.32813,0 -2.07813,0.6875q-0.73437,0.6875 -0.73437,1.90625l0,5.1875l-2.78125,0l0,-10.18752l2.10937,0l0.40625,1.71875l0.14063,0q0.46875,-0.85937 1.26562,-1.375q0.8125,-0.53125 1.76563,-0.53125zm5.00311,5.26564q0,1.51563 0.5,2.29688q0.5,0.76562 1.60938,0.76562q1.10937,0 1.59375,-0.76562q0.5,-0.78125 0.5,-2.29688q0,-1.51562 -0.5,-2.26562q-0.48438,-0.76564 -1.60938,-0.76564q-1.10937,0 -1.60937,0.76564q-0.48438,0.75 -0.48438,2.26562zm7.04688,0q0,2.48438 -1.3125,3.89063q-1.3125,1.40625 -3.65625,1.40625q-1.46875,0 -2.59375,-0.64063q-1.10938,-0.65625 -1.71875,-1.84375q-0.59375,-1.20312 -0.59375,-2.8125q0,-2.5 1.29687,-3.87501q1.29688,-1.39063 3.65625,-1.39063q1.46875,0 2.59375,0.64063q1.125,0.64062 1.71875,1.82814q0.60938,1.1875 0.60938,2.79687zm6.58209,3.07813q0.73437,0 1.75,-0.3125l0,2.0625q-1.04688,0.46875 -2.54688,0.46875q-1.67187,0 -2.4375,-0.84375q-0.75,-0.84375 -0.75,-2.53125l0,-4.90627l-1.34375,0l0,-1.1875l1.53125,-0.92187l0.8125,-2.15625l1.76563,0l0,2.17187l2.85937,0l0,2.09375l-2.85937,0l0,4.90627q0,0.59375 0.32812,0.875q0.34375,0.28125 0.89063,0.28125zm8.0202,-6.37502q-0.875,0 -1.375,0.56252q-0.5,0.5625 -0.57812,1.59375l3.89062,0q-0.01562,-1.03125 -0.53125,-1.59375q-0.51562,-0.56252 -1.40625,-0.56252zm0.39063,8.59377q-2.45313,0 -3.84375,-1.35938q-1.375,-1.35937 -1.375,-3.84375q0,-2.5625 1.26562,-3.95314q1.28125,-1.40625 3.54688,-1.40625q2.15625,0 3.35937,1.23437q1.20313,1.21877 1.20313,3.39065l0,1.34375l-6.5625,0q0.04687,1.1875 0.70312,1.85937q0.65625,0.65625 1.82813,0.65625q0.92187,0 1.73437,-0.1875q0.82813,-0.1875 1.71875,-0.60937l0,2.15625q-0.71875,0.35937 -1.54687,0.53125q-0.82813,0.1875 -2.03125,0.1875zm10.55377,0q-4.75,0 -4.75,-5.21875q0,-2.60938 1.28125,-3.96877q1.29687,-1.375 3.71875,-1.375q1.76562,0 3.17187,0.6875l-0.82812,2.15627q-0.65625,-0.26563 -1.21875,-0.4375q-0.5625,-0.17189 -1.125,-0.17189q-2.17188,0 -2.17188,3.07814q0,3 2.17188,3q0.79687,0 1.46875,-0.21875q0.6875,-0.21875 1.375,-0.67188l0,2.375q-0.67188,0.4375 -1.35938,0.59375q-0.6875,0.17188 -1.73437,0.17188zm9.74853,-2.21875q0.73438,0 1.75,-0.3125l0,2.0625q-1.04687,0.46875 -2.54687,0.46875q-1.67188,0 -2.4375,-0.84375q-0.75,-0.84375 -0.75,-2.53125l0,-4.90627l-1.34375,0l0,-1.1875l1.53125,-0.92188l0.8125,-2.15625l1.76562,0l0,2.17188l2.85938,0l0,2.09375l-2.85938,0l0,4.90627q0,0.59375 0.32813,0.875q0.34375,0.28125 0.89062,0.28125z" fill="#0b5394"/>
   <path stroke="null" id="svg_28" fill-rule="evenodd" d="m616,335.0761l190.99213,0l0,68.40945l-190.99213,0l0,-68.40945z" fill-opacity="0" fill="#000000"/>
   <path stroke="null" id="svg_29" fill-rule="nonzero" d="m639.5464,361.99612l0,-13.3125l2.82812,0l0,13.3125l-2.82812,0zm15.36371,0l-2.78125,0l0,-5.95312q0,-1.09375 -0.39063,-1.64063q-0.39062,-0.5625 -1.25,-0.5625q-1.15625,0 -1.6875,0.78125q-0.51562,0.78125 -0.51562,2.57813l0,4.79687l-2.78125,0l0,-10.1875l2.125,0l0.375,1.3125l0.15625,0q0.46875,-0.75 1.28125,-1.125q0.8125,-0.375 1.84375,-0.375q1.78125,0 2.70312,0.96875q0.92188,0.95313 0.92188,2.76563l0,6.64062zm5.27704,0l-3.875,-10.1875l2.90625,0l1.96875,5.8125q0.32812,1.09375 0.40625,2.07813l0.0625,0q0.04687,-0.875 0.40625,-2.07813l1.95312,-5.8125l2.90625,0l-3.875,10.1875l-2.85937,0zm12.40942,-8.40625q-0.875,0 -1.375,0.5625q-0.5,0.5625 -0.57812,1.59375l3.89062,0q-0.01562,-1.03125 -0.53125,-1.59375q-0.51562,-0.5625 -1.40625,-0.5625zm0.39063,8.59375q-2.45313,0 -3.84375,-1.35937q-1.375,-1.35938 -1.375,-3.84375q0,-2.5625 1.26562,-3.95313q1.28125,-1.40625 3.54688,-1.40625q2.15625,0 3.35937,1.23438q1.20313,1.21875 1.20313,3.39062l0,1.34375l-6.5625,0q0.04687,1.1875 0.70312,1.85938q0.65625,0.65625 1.82813,0.65625q0.92187,0 1.73437,-0.1875q0.82813,-0.1875 1.71875,-0.60938l0,2.15625q-0.71875,0.35938 -1.54687,0.53125q-0.82813,0.1875 -2.03125,0.1875zm13.52246,-3.21875q0,1.57813 -1.09375,2.40625q-1.07813,0.8125 -3.25,0.8125q-1.10938,0 -1.89063,-0.15625q-0.78125,-0.15625 -1.46875,-0.4375l0,-2.29687q0.76563,0.35937 1.73438,0.60937q0.98437,0.25 1.71875,0.25q1.51562,0 1.51562,-0.875q0,-0.32812 -0.20312,-0.53125q-0.20313,-0.21875 -0.70313,-0.46875q-0.48437,-0.26562 -1.3125,-0.60937q-1.17187,-0.48438 -1.71875,-0.90625q-0.54687,-0.42188 -0.79687,-0.95313q-0.25,-0.54687 -0.25,-1.34375q0,-1.35937 1.04687,-2.09375q1.04688,-0.75 2.98438,-0.75q1.84375,0 3.57812,0.79688l-0.84375,2.01562q-0.76562,-0.32812 -1.4375,-0.53125q-0.65625,-0.21875 -1.34375,-0.21875q-1.23437,0 -1.23437,0.65625q0,0.375 0.39062,0.65625q0.40625,0.26563 1.75,0.8125q1.1875,0.46875 1.73438,0.89063q0.5625,0.42187 0.82812,0.96875q0.26563,0.54687 0.26563,1.29687zm6.461,1q0.73437,0 1.75,-0.3125l0,2.0625q-1.04688,0.46875 -2.54688,0.46875q-1.67187,0 -2.4375,-0.84375q-0.75,-0.84375 -0.75,-2.53125l0,-4.90625l-1.34375,0l0,-1.1875l1.53125,-0.92187l0.8125,-2.15625l1.76563,0l0,2.17187l2.85937,0l0,2.09375l-2.85937,0l0,4.90625q0,0.59375 0.32812,0.875q0.34375,0.28125 0.89063,0.28125zm8.53833,-10.78125q0,-1.35937 1.5,-1.35937q1.51562,0 1.51562,1.35937q0,0.64063 -0.375,1q-0.375,0.35938 -1.14062,0.35938q-1.5,0 -1.5,-1.35938zm2.89062,12.8125l-2.78125,0l0,-10.1875l2.78125,0l0,10.1875zm12.31842,0l-2.78125,0l0,-5.95312q0,-1.09375 -0.39062,-1.64063q-0.39063,-0.5625 -1.25,-0.5625q-1.15625,0 -1.6875,0.78125q-0.51563,0.78125 -0.51563,2.57813l0,4.79687l-2.78125,0l0,-10.1875l2.125,0l0.375,1.3125l0.15625,0q0.46875,-0.75 1.28125,-1.125q0.8125,-0.375 1.84375,-0.375q1.78125,0 2.70313,0.96875q0.92187,0.95313 0.92187,2.76563l0,6.64062zm14.81079,-3.03125q0,1.57813 -1.09375,2.40625q-1.07812,0.8125 -3.25,0.8125q-1.10937,0 -1.89062,-0.15625q-0.78125,-0.15625 -1.46875,-0.4375l0,-2.29687q0.76562,0.35937 1.73437,0.60937q0.98438,0.25 1.71875,0.25q1.51563,0 1.51563,-0.875q0,-0.32812 -0.20313,-0.53125q-0.20312,-0.21875 -0.70312,-0.46875q-0.48438,-0.26562 -1.3125,-0.60937q-1.17188,-0.48438 -1.71875,-0.90625q-0.54688,-0.42188 -0.79688,-0.95313q-0.25,-0.54687 -0.25,-1.34375q0,-1.35937 1.04688,-2.09375q1.04687,-0.75 2.98437,-0.75q1.84375,0 3.57813,0.79688l-0.84375,2.01562q-0.76563,-0.32812 -1.4375,-0.53125q-0.65625,-0.21875 -1.34375,-0.21875q-1.23438,0 -1.23438,0.65625q0,0.375 0.39063,0.65625q0.40625,0.26563 1.75,0.8125q1.1875,0.46875 1.73437,0.89063q0.5625,0.42187 0.82813,0.96875q0.26562,0.54687 0.26562,1.29687zm6.38281,-5.375q-0.875,0 -1.375,0.5625q-0.5,0.5625 -0.57812,1.59375l3.89062,0q-0.01562,-1.03125 -0.53125,-1.59375q-0.51562,-0.5625 -1.40625,-0.5625zm0.39063,8.59375q-2.45313,0 -3.84375,-1.35937q-1.375,-1.35938 -1.375,-3.84375q0,-2.5625 1.26562,-3.95313q1.28125,-1.40625 3.54688,-1.40625q2.15625,0 3.35937,1.23438q1.20313,1.21875 1.20313,3.39062l0,1.34375l-6.5625,0q0.04687,1.1875 0.70312,1.85938q0.65625,0.65625 1.82813,0.65625q0.92187,0 1.73437,-0.1875q0.82813,-0.1875 1.71875,-0.60938l0,2.15625q-0.71875,0.35938 -1.54687,0.53125q-0.82813,0.1875 -2.03125,0.1875zm10.55377,0q-4.75,0 -4.75,-5.21875q0,-2.60937 1.28125,-3.96875q1.29688,-1.375 3.71875,-1.375q1.76563,0 3.17188,0.6875l-0.82813,2.15625q-0.65625,-0.26562 -1.21875,-0.4375q-0.5625,-0.17187 -1.125,-0.17187q-2.17187,0 -2.17187,3.07812q0,3 2.17187,3q0.79688,0 1.46875,-0.21875q0.6875,-0.21875 1.375,-0.67187l0,2.375q-0.67187,0.4375 -1.35937,0.59375q-0.6875,0.17187 -1.73438,0.17187zm12.67041,-0.1875l-0.375,-1.29687l-0.14062,0q-0.45313,0.70312 -1.28125,1.09375q-0.8125,0.39062 -1.85938,0.39062q-1.79687,0 -2.70312,-0.95312q-0.90625,-0.96875 -0.90625,-2.78125l0,-6.64063l2.78125,0l0,5.95313q0,1.09375 0.39062,1.65625q0.39063,0.54687 1.25,0.54687q1.15625,0 1.67188,-0.78125q0.53125,-0.78125 0.53125,-2.57812l0,-4.79688l2.76562,0l0,10.1875l-2.125,0zm10.73017,-10.375q0.5625,0 0.9375,0.07813l-0.20313,2.60937q-0.34375,-0.09375 -0.82812,-0.09375q-1.32813,0 -2.07813,0.6875q-0.73437,0.6875 -0.73437,1.90625l0,5.1875l-2.78125,0l0,-10.1875l2.10937,0l0.40625,1.71875l0.14063,0q0.46875,-0.85937 1.26562,-1.375q0.8125,-0.53125 1.76563,-0.53125zm2.67492,-2.4375q0,-1.35937 1.5,-1.35937q1.51563,0 1.51563,1.35937q0,0.64063 -0.375,1q-0.375,0.35938 -1.14063,0.35938q-1.5,0 -1.5,-1.35938zm2.89063,12.8125l-2.78125,0l0,-10.1875l2.78125,0l0,10.1875zm7.2091,-2.03125q0.73438,0 1.75,-0.3125l0,2.0625q-1.04687,0.46875 -2.54687,0.46875q-1.67188,0 -2.4375,-0.84375q-0.75,-0.84375 -0.75,-2.53125l0,-4.90625l-1.34375,0l0,-1.1875l1.53125,-0.92187l0.8125,-2.15625l1.76562,0l0,2.17187l2.85938,0l0,2.09375l-2.85938,0l0,4.90625q0,0.59375 0.32813,0.875q0.34375,0.28125 0.89062,0.28125zm2.34833,-8.15625l3.04688,0l1.92187,5.73438q0.23438,0.75 0.32813,1.76562l0.0625,0q0.09375,-0.9375 0.39062,-1.76562l1.89063,-5.73438l2.96875,0l-4.3125,11.48438q-0.57813,1.59375 -1.6875,2.39062q-1.09375,0.79688 -2.5625,0.79688q-0.71875,0 -1.40625,-0.15625l0,-2.20313q0.5,0.10938 1.09375,0.10938q0.73437,0 1.28125,-0.45313q0.5625,-0.4375 0.85937,-1.35937l0.17188,-0.5l-4.04688,-10.10938z" fill="#0b5394"/>
   <path stroke="null" id="svg_30" fill-rule="nonzero" d="m661.52795,384.18362q-1.79687,0 -2.8125,-1.3125l-0.14062,0q0.14062,1.28125 0.14062,1.48438l0,4.125l-2.78125,0l0,-14.67188l2.26563,0l0.39062,1.32813l0.125,0q0.96875,-1.51563 2.89063,-1.51563q1.79687,0 2.8125,1.39063q1.03125,1.39062 1.03125,3.875q0,1.625 -0.48438,2.82812q-0.46875,1.20313 -1.35937,1.84375q-0.875,0.625 -2.07813,0.625zm-0.8125,-8.34375q-1.03125,0 -1.51562,0.64063q-0.46875,0.625 -0.48438,2.09375l0,0.29687q0,1.64063 0.48438,2.35938q0.48437,0.70312 1.54687,0.70312q1.875,0 1.875,-3.07812q0,-1.51563 -0.46875,-2.26563q-0.45312,-0.75 -1.4375,-0.75zm9.24341,3.04688q0,1.51562 0.5,2.29687q0.5,0.76563 1.60937,0.76563q1.10938,0 1.59375,-0.76563q0.5,-0.78125 0.5,-2.29687q0,-1.51563 -0.5,-2.26563q-0.48437,-0.76562 -1.60937,-0.76562q-1.10938,0 -1.60938,0.76562q-0.48437,0.75 -0.48437,2.26563zm7.04687,0q0,2.48437 -1.3125,3.89062q-1.3125,1.40625 -3.65625,1.40625q-1.46875,0 -2.59375,-0.64062q-1.10937,-0.65625 -1.71875,-1.84375q-0.59375,-1.20313 -0.59375,-2.8125q0,-2.5 1.29688,-3.875q1.29687,-1.39063 3.65625,-1.39063q1.46875,0 2.59375,0.64063q1.125,0.64062 1.71875,1.82812q0.60937,1.1875 0.60937,2.79688zm5.06653,5.10937l-2.78125,0l0,-14.17187l2.78125,0l0,14.17187zm2.8028,-12.8125q0,-1.35937 1.5,-1.35937q1.51562,0 1.51562,1.35937q0,0.64063 -0.375,1q-0.375,0.35938 -1.14062,0.35938q-1.5,0 -1.5,-1.35938zm2.89062,12.8125l-2.78125,0l0,-10.1875l2.78125,0l0,10.1875zm7.0528,0.1875q-4.75,0 -4.75,-5.21875q0,-2.60937 1.28125,-3.96875q1.29687,-1.375 3.71875,-1.375q1.76562,0 3.17187,0.6875l-0.82812,2.15625q-0.65625,-0.26562 -1.21875,-0.4375q-0.5625,-0.17187 -1.125,-0.17187q-2.17188,0 -2.17188,3.07812q0,3 2.17188,3q0.79687,0 1.46875,-0.21875q0.6875,-0.21875 1.375,-0.67187l0,2.375q-0.67188,0.4375 -1.35938,0.59375q-0.6875,0.17187 -1.73437,0.17187zm5.34228,-13q0,-1.35937 1.5,-1.35937q1.51563,0 1.51563,1.35937q0,0.64063 -0.375,1q-0.375,0.35938 -1.14063,0.35938q-1.5,0 -1.5,-1.35938zm2.89063,12.8125l-2.78125,0l0,-10.1875l2.78125,0l0,10.1875zm7.13098,-8.40625q-0.875,0 -1.375,0.5625q-0.5,0.5625 -0.57813,1.59375l3.89063,0q-0.01563,-1.03125 -0.53125,-1.59375q-0.51563,-0.5625 -1.40625,-0.5625zm0.39062,8.59375q-2.45312,0 -3.84375,-1.35937q-1.375,-1.35938 -1.375,-3.84375q0,-2.5625 1.26563,-3.95313q1.28125,-1.40625 3.54687,-1.40625q2.15625,0 3.35938,1.23438q1.20312,1.21875 1.20312,3.39062l0,1.34375l-6.5625,0q0.04688,1.1875 0.70313,1.85938q0.65625,0.65625 1.82812,0.65625q0.92188,0 1.73438,-0.1875q0.82812,-0.1875 1.71875,-0.60938l0,2.15625q-0.71875,0.35938 -1.54688,0.53125q-0.82812,0.1875 -2.03125,0.1875zm13.52246,-3.21875q0,1.57813 -1.09375,2.40625q-1.07812,0.8125 -3.25,0.8125q-1.10937,0 -1.89062,-0.15625q-0.78125,-0.15625 -1.46875,-0.4375l0,-2.29687q0.76562,0.35937 1.73437,0.60937q0.98438,0.25 1.71875,0.25q1.51563,0 1.51563,-0.875q0,-0.32812 -0.20313,-0.53125q-0.20312,-0.21875 -0.70312,-0.46875q-0.48438,-0.26562 -1.3125,-0.60937q-1.17188,-0.48438 -1.71875,-0.90625q-0.54688,-0.42188 -0.79688,-0.95313q-0.25,-0.54687 -0.25,-1.34375q0,-1.35937 1.04688,-2.09375q1.04687,-0.75 2.98437,-0.75q1.84375,0 3.57813,0.79688l-0.84375,2.01562q-0.76563,-0.32812 -1.4375,-0.53125q-0.65625,-0.21875 -1.34375,-0.21875q-1.23438,0 -1.23438,0.65625q0,0.375 0.39063,0.65625q0.40625,0.26563 1.75,0.8125q1.1875,0.46875 1.73437,0.89063q0.5625,0.42187 0.82813,0.96875q0.26562,0.54687 0.26562,1.29687zm4.89844,1.07813q-0.48437,1.82812 -1.60937,4.35937l-2,0q0.59375,-2.42187 0.92187,-4.57812l2.54688,0l0.14062,0.21875zm11.81983,-0.07813q0.73437,0 1.75,-0.3125l0,2.0625q-1.04688,0.46875 -2.54688,0.46875q-1.67187,0 -2.4375,-0.84375q-0.75,-0.84375 -0.75,-2.53125l0,-4.90625l-1.34375,0l0,-1.1875l1.53125,-0.92187l0.8125,-2.15625l1.76563,0l0,2.17187l2.85937,0l0,2.09375l-2.85937,0l0,4.90625q0,0.59375 0.32812,0.875q0.34375,0.28125 0.89063,0.28125zm13.2077,2.03125l-2.78125,0l0,-5.95312q0,-2.20313 -1.64063,-2.20313q-1.15625,0 -1.6875,0.79688q-0.51562,0.79687 -0.51562,2.5625l0,4.79687l-2.78125,0l0,-14.17187l2.78125,0l0,2.89062q0,0.32813 -0.0625,1.57813l-0.0625,0.82812l0.14062,0q0.9375,-1.5 2.95313,-1.5q1.79687,0 2.71875,0.96875q0.9375,0.96875 0.9375,2.76563l0,6.64062zm8.54266,-10.375q0.5625,0 0.9375,0.07813l-0.20312,2.60937q-0.34375,-0.09375 -0.82813,-0.09375q-1.32812,0 -2.07812,0.6875q-0.73438,0.6875 -0.73438,1.90625l0,5.1875l-2.78125,0l0,-10.1875l2.10938,0l0.40625,1.71875l0.14062,0q0.46875,-0.85937 1.26563,-1.375q0.8125,-0.53125 1.76562,-0.53125zm7.00305,1.96875q-0.875,0 -1.375,0.5625q-0.5,0.5625 -0.57812,1.59375l3.89062,0q-0.01562,-1.03125 -0.53125,-1.59375q-0.51562,-0.5625 -1.40625,-0.5625zm0.39063,8.59375q-2.45313,0 -3.84375,-1.35937q-1.375,-1.35938 -1.375,-3.84375q0,-2.5625 1.26562,-3.95313q1.28125,-1.40625 3.54688,-1.40625q2.15625,0 3.35937,1.23438q1.20313,1.21875 1.20313,3.39062l0,1.34375l-6.5625,0q0.04687,1.1875 0.70312,1.85938q0.65625,0.65625 1.82813,0.65625q0.92187,0 1.73437,-0.1875q0.82813,-0.1875 1.71875,-0.60938l0,2.15625q-0.71875,0.35938 -1.54687,0.53125q-0.82813,0.1875 -2.03125,0.1875zm12.8819,-0.1875l-0.53125,-1.39062l-0.07813,0q-0.70312,0.89062 -1.45312,1.23437q-0.73438,0.34375 -1.92188,0.34375q-1.46875,0 -2.3125,-0.84375q-0.84375,-0.84375 -0.84375,-2.39062q0,-1.625 1.125,-2.39063q1.14063,-0.76562 3.4375,-0.84375l1.76563,-0.0625l0,-0.4375q0,-1.54687 -1.59375,-1.54687q-1.21875,0 -2.85938,0.73437l-0.92187,-1.875q1.75,-0.92187 3.89062,-0.92187q2.04688,0 3.14063,0.89062q1.09375,0.89063 1.09375,2.71875l0,6.78125l-1.9375,0zm-0.8125,-4.71875l-1.07813,0.03125q-1.21875,0.04688 -1.8125,0.45313q-0.57812,0.39062 -0.57812,1.20312q0,1.1875 1.34375,1.1875q0.96875,0 1.54687,-0.54687q0.57813,-0.5625 0.57813,-1.48438l0,-0.84375zm8.84655,4.90625q-1.79687,0 -2.82812,-1.39062q-1.01563,-1.40625 -1.01563,-3.875q0,-2.5 1.03125,-3.89063q1.04688,-1.40625 2.875,-1.40625q1.92188,0 2.9375,1.5l0.09375,0q-0.21875,-1.14062 -0.21875,-2.03125l0,-3.26562l2.79688,0l0,14.17187l-2.14063,0l-0.53125,-1.32812l-0.125,0q-0.9375,1.51562 -2.875,1.51562zm0.96875,-2.21875q1.0625,0 1.5625,-0.60937q0.5,-0.625 0.54688,-2.10938l0,-0.3125q0,-1.64062 -0.51563,-2.34375q-0.5,-0.70312 -1.64062,-0.70312q-0.92188,0 -1.4375,0.78125q-0.51563,0.78125 -0.51563,2.29687q0,1.5 0.51563,2.25q0.51562,0.75 1.48437,0.75z" fill="#0b5394"/>
   <path stroke="null" id="svg_31" fill-rule="nonzero" d="m695.3119,405.99612l-2.78125,0l0,-5.95312q0,-1.09375 -0.375,-1.64063q-0.35937,-0.5625 -1.15625,-0.5625q-1.0625,0 -1.54687,0.78125q-0.48438,0.78125 -0.48438,2.57813l0,4.79687l-2.78125,0l0,-10.1875l2.125,0l0.375,1.3125l0.15625,0q0.40625,-0.70312 1.17188,-1.09375q0.78125,-0.40625 1.78125,-0.40625q2.29687,0 3.10937,1.5l0.23438,0q0.42187,-0.71875 1.21875,-1.10937q0.79687,-0.39063 1.79687,-0.39063q1.73438,0 2.60938,0.89063q0.89062,0.89062 0.89062,2.84375l0,6.64062l-2.78125,0l0,-5.95312q0,-1.09375 -0.375,-1.64063q-0.35937,-0.5625 -1.15625,-0.5625q-1.01562,0 -1.53125,0.73438q-0.5,0.71875 -0.5,2.3125l0,5.10937zm11.41296,-5.10937q0,1.51562 0.5,2.29687q0.5,0.76563 1.60938,0.76563q1.10937,0 1.59375,-0.76563q0.5,-0.78125 0.5,-2.29687q0,-1.51563 -0.5,-2.26563q-0.48438,-0.76562 -1.60938,-0.76562q-1.10937,0 -1.60937,0.76562q-0.48438,0.75 -0.48438,2.26563zm7.04688,0q0,2.48437 -1.3125,3.89062q-1.3125,1.40625 -3.65625,1.40625q-1.46875,0 -2.59375,-0.64062q-1.10938,-0.65625 -1.71875,-1.84375q-0.59375,-1.20313 -0.59375,-2.8125q0,-2.5 1.29687,-3.875q1.29688,-1.39063 3.65625,-1.39063q1.46875,0 2.59375,0.64063q1.125,0.64062 1.71875,1.82812q0.60938,1.1875 0.60938,2.79688zm5.51953,5.29687q-1.79687,0 -2.82812,-1.39062q-1.01563,-1.40625 -1.01563,-3.875q0,-2.5 1.03125,-3.89063q1.04688,-1.40625 2.875,-1.40625q1.92188,0 2.9375,1.5l0.09375,0q-0.21875,-1.14062 -0.21875,-2.03125l0,-3.26562l2.79688,0l0,14.17187l-2.14063,0l-0.53125,-1.32812l-0.125,0q-0.9375,1.51562 -2.875,1.51562zm0.96875,-2.21875q1.0625,0 1.5625,-0.60937q0.5,-0.625 0.54688,-2.10938l0,-0.3125q0,-1.64062 -0.51563,-2.34375q-0.5,-0.70312 -1.64062,-0.70312q-0.92188,0 -1.4375,0.78125q-0.51563,0.78125 -0.51563,2.29687q0,1.5 0.51563,2.25q0.51562,0.75 1.48437,0.75zm11.82153,-6.375q-0.875,0 -1.375,0.5625q-0.5,0.5625 -0.57812,1.59375l3.89062,0q-0.01562,-1.03125 -0.53125,-1.59375q-0.51562,-0.5625 -1.40625,-0.5625zm0.39063,8.59375q-2.45313,0 -3.84375,-1.35937q-1.375,-1.35938 -1.375,-3.84375q0,-2.5625 1.26562,-3.95313q1.28125,-1.40625 3.54688,-1.40625q2.15625,0 3.35937,1.23438q1.20313,1.21875 1.20313,3.39062l0,1.34375l-6.5625,0q0.04687,1.1875 0.70312,1.85938q0.65625,0.65625 1.82813,0.65625q0.92187,0 1.73437,-0.1875q0.82813,-0.1875 1.71875,-0.60938l0,2.15625q-0.71875,0.35938 -1.54687,0.53125q-0.82813,0.1875 -2.03125,0.1875zm9.1944,-0.1875l-2.78125,0l0,-14.17187l2.78125,0l0,14.17187zm10.02154,-3.03125q0,1.57813 -1.09375,2.40625q-1.07812,0.8125 -3.25,0.8125q-1.10937,0 -1.89062,-0.15625q-0.78125,-0.15625 -1.46875,-0.4375l0,-2.29687q0.76562,0.35937 1.73437,0.60937q0.98438,0.25 1.71875,0.25q1.51563,0 1.51563,-0.875q0,-0.32812 -0.20313,-0.53125q-0.20312,-0.21875 -0.70312,-0.46875q-0.48438,-0.26562 -1.3125,-0.60937q-1.17188,-0.48438 -1.71875,-0.90625q-0.54688,-0.42188 -0.79688,-0.95313q-0.25,-0.54687 -0.25,-1.34375q0,-1.35937 1.04688,-2.09375q1.04687,-0.75 2.98437,-0.75q1.84375,0 3.57813,0.79688l-0.84375,2.01562q-0.76563,-0.32812 -1.4375,-0.53125q-0.65625,-0.21875 -1.34375,-0.21875q-1.23438,0 -1.23438,0.65625q0,0.375 0.39063,0.65625q0.40625,0.26563 1.75,0.8125q1.1875,0.46875 1.73437,0.89063q0.5625,0.42187 0.82813,0.96875q0.26562,0.54687 0.26562,1.29687zm4.8985,1.07813q-0.48438,1.82812 -1.60938,4.35937l-2,0q0.59375,-2.42187 0.92188,-4.57812l2.54687,0l0.14063,0.21875zm13.99164,1.95312l-0.53125,-1.39062l-0.07813,0q-0.70312,0.89062 -1.45312,1.23437q-0.73438,0.34375 -1.92188,0.34375q-1.46875,0 -2.3125,-0.84375q-0.84375,-0.84375 -0.84375,-2.39062q0,-1.625 1.125,-2.39063q1.14063,-0.76562 3.4375,-0.84375l1.76563,-0.0625l0,-0.4375q0,-1.54687 -1.59375,-1.54687q-1.21875,0 -2.85938,0.73437l-0.92187,-1.875q1.75,-0.92187 3.89062,-0.92187q2.04688,0 3.14063,0.89062q1.09375,0.89063 1.09375,2.71875l0,6.78125l-1.9375,0zm-0.8125,-4.71875l-1.07813,0.03125q-1.21875,0.04688 -1.8125,0.45313q-0.57812,0.39062 -0.57812,1.20312q0,1.1875 1.34375,1.1875q0.96875,0 1.54687,-0.54687q0.57813,-0.5625 0.57813,-1.48438l0,-0.84375zm15.01843,4.71875l-2.78125,0l0,-5.95312q0,-1.09375 -0.39063,-1.64063q-0.39062,-0.5625 -1.25,-0.5625q-1.15625,0 -1.6875,0.78125q-0.51562,0.78125 -0.51562,2.57813l0,4.79687l-2.78125,0l0,-10.1875l2.125,0l0.375,1.3125l0.15625,0q0.46875,-0.75 1.28125,-1.125q0.8125,-0.375 1.84375,-0.375q1.78125,0 2.70312,0.96875q0.92188,0.95313 0.92188,2.76563l0,6.64062zm6.08954,0.1875q-1.79688,0 -2.82813,-1.39062q-1.01562,-1.40625 -1.01562,-3.875q0,-2.5 1.03125,-3.89063q1.04687,-1.40625 2.875,-1.40625q1.92187,0 2.9375,1.5l0.09375,0q-0.21875,-1.14062 -0.21875,-2.03125l0,-3.26562l2.79687,0l0,14.17187l-2.14062,0l-0.53125,-1.32812l-0.125,0q-0.9375,1.51562 -2.875,1.51562zm0.96875,-2.21875q1.0625,0 1.5625,-0.60937q0.5,-0.625 0.54687,-2.10938l0,-0.3125q0,-1.64062 -0.51562,-2.34375q-0.5,-0.70312 -1.64063,-0.70312q-0.92187,0 -1.4375,0.78125q-0.51562,0.78125 -0.51562,2.29687q0,1.5 0.51562,2.25q0.51563,0.75 1.48438,0.75z" fill="#0b5394"/>
   <path stroke="null" id="svg_32" fill-rule="nonzero" d="m691.28546,427.99612l-2.78125,0l0,-5.95312q0,-1.09375 -0.375,-1.64063q-0.35938,-0.5625 -1.15625,-0.5625q-1.0625,0 -1.54688,0.78125q-0.48437,0.78125 -0.48437,2.57813l0,4.79687l-2.78125,0l0,-10.1875l2.125,0l0.375,1.3125l0.15625,0q0.40625,-0.70312 1.17187,-1.09375q0.78125,-0.40625 1.78125,-0.40625q2.29688,0 3.10938,1.5l0.23437,0q0.42188,-0.71875 1.21875,-1.10937q0.79688,-0.39063 1.79688,-0.39063q1.73437,0 2.60937,0.89063q0.89063,0.89062 0.89063,2.84375l0,6.64062l-2.78125,0l0,-5.95312q0,-1.09375 -0.375,-1.64063q-0.35938,-0.5625 -1.15625,-0.5625q-1.01563,0 -1.53125,0.73438q-0.5,0.71875 -0.5,2.3125l0,5.10937zm13.41296,-8.40625q-0.875,0 -1.375,0.5625q-0.5,0.5625 -0.57812,1.59375l3.89062,0q-0.01562,-1.03125 -0.53125,-1.59375q-0.51562,-0.5625 -1.40625,-0.5625zm0.39063,8.59375q-2.45313,0 -3.84375,-1.35937q-1.375,-1.35938 -1.375,-3.84375q0,-2.5625 1.26562,-3.95313q1.28125,-1.40625 3.54688,-1.40625q2.15625,0 3.35937,1.23438q1.20313,1.21875 1.20313,3.39062l0,1.34375l-6.5625,0q0.04687,1.1875 0.70312,1.85938q0.65625,0.65625 1.82813,0.65625q0.92187,0 1.73437,-0.1875q0.82813,-0.1875 1.71875,-0.60938l0,2.15625q-0.71875,0.35938 -1.54687,0.53125q-0.82813,0.1875 -2.03125,0.1875zm10.55377,0q-4.75,0 -4.75,-5.21875q0,-2.60937 1.28125,-3.96875q1.29688,-1.375 3.71875,-1.375q1.76563,0 3.17188,0.6875l-0.82813,2.15625q-0.65625,-0.26562 -1.21875,-0.4375q-0.5625,-0.17187 -1.125,-0.17187q-2.17187,0 -2.17187,3.07812q0,3 2.17187,3q0.79688,0 1.46875,-0.21875q0.6875,-0.21875 1.375,-0.67187l0,2.375q-0.67187,0.4375 -1.35937,0.59375q-0.6875,0.17187 -1.73438,0.17187zm14.85791,-0.1875l-2.78125,0l0,-5.95312q0,-2.20313 -1.64062,-2.20313q-1.15625,0 -1.6875,0.79688q-0.51563,0.79687 -0.51563,2.5625l0,4.79687l-2.78125,0l0,-14.17187l2.78125,0l0,2.89062q0,0.32813 -0.0625,1.57813l-0.0625,0.82812l0.14063,0q0.9375,-1.5 2.95312,-1.5q1.79688,0 2.71875,0.96875q0.9375,0.96875 0.9375,2.76563l0,6.64062zm9.32385,0l-0.53125,-1.39062l-0.07812,0q-0.70313,0.89062 -1.45313,1.23437q-0.73437,0.34375 -1.92187,0.34375q-1.46875,0 -2.3125,-0.84375q-0.84375,-0.84375 -0.84375,-2.39062q0,-1.625 1.125,-2.39063q1.14062,-0.76562 3.4375,-0.84375l1.76562,-0.0625l0,-0.4375q0,-1.54687 -1.59375,-1.54687q-1.21875,0 -2.85937,0.73437l-0.92188,-1.875q1.75,-0.92187 3.89063,-0.92187q2.04687,0 3.14062,0.89062q1.09375,0.89063 1.09375,2.71875l0,6.78125l-1.9375,0zm-0.8125,-4.71875l-1.07812,0.03125q-1.21875,0.04688 -1.8125,0.45313q-0.57813,0.39062 -0.57813,1.20312q0,1.1875 1.34375,1.1875q0.96875,0 1.54688,-0.54687q0.57812,-0.5625 0.57812,-1.48438l0,-0.84375zm15.01844,4.71875l-2.78125,0l0,-5.95312q0,-1.09375 -0.39063,-1.64063q-0.39062,-0.5625 -1.25,-0.5625q-1.15625,0 -1.6875,0.78125q-0.51562,0.78125 -0.51562,2.57813l0,4.79687l-2.78125,0l0,-10.1875l2.125,0l0.375,1.3125l0.15625,0q0.46875,-0.75 1.28125,-1.125q0.8125,-0.375 1.84375,-0.375q1.78125,0 2.70312,0.96875q0.92188,0.95313 0.92188,2.76563l0,6.64062zm2.74579,-12.8125q0,-1.35937 1.5,-1.35937q1.51562,0 1.51562,1.35937q0,0.64063 -0.375,1q-0.375,0.35938 -1.14062,0.35938q-1.5,0 -1.5,-1.35938zm2.89062,12.8125l-2.78125,0l0,-10.1875l2.78125,0l0,10.1875zm10.02155,-3.03125q0,1.57813 -1.09375,2.40625q-1.07813,0.8125 -3.25,0.8125q-1.10938,0 -1.89063,-0.15625q-0.78125,-0.15625 -1.46875,-0.4375l0,-2.29687q0.76563,0.35937 1.73438,0.60937q0.98437,0.25 1.71875,0.25q1.51562,0 1.51562,-0.875q0,-0.32812 -0.20312,-0.53125q-0.20313,-0.21875 -0.70313,-0.46875q-0.48437,-0.26562 -1.3125,-0.60937q-1.17187,-0.48438 -1.71875,-0.90625q-0.54687,-0.42188 -0.79687,-0.95313q-0.25,-0.54687 -0.25,-1.34375q0,-1.35937 1.04687,-2.09375q1.04688,-0.75 2.98438,-0.75q1.84375,0 3.57812,0.79688l-0.84375,2.01562q-0.76562,-0.32812 -1.4375,-0.53125q-0.65625,-0.21875 -1.34375,-0.21875q-1.23437,0 -1.23437,0.65625q0,0.375 0.39062,0.65625q0.40625,0.26563 1.75,0.8125q1.1875,0.46875 1.73438,0.89063q0.5625,0.42187 0.82812,0.96875q0.26563,0.54687 0.26563,1.29687zm11.28912,3.03125l-2.78125,0l0,-5.95312q0,-1.09375 -0.375,-1.64063q-0.35938,-0.5625 -1.15625,-0.5625q-1.0625,0 -1.54688,0.78125q-0.48437,0.78125 -0.48437,2.57813l0,4.79687l-2.78125,0l0,-10.1875l2.125,0l0.375,1.3125l0.15625,0q0.40625,-0.70312 1.17187,-1.09375q0.78125,-0.40625 1.78125,-0.40625q2.29688,0 3.10938,1.5l0.23437,0q0.42188,-0.71875 1.21875,-1.10937q0.79688,-0.39063 1.79688,-0.39063q1.73437,0 2.60937,0.89063q0.89063,0.89062 0.89063,2.84375l0,6.64062l-2.78125,0l0,-5.95312q0,-1.09375 -0.375,-1.64063q-0.35938,-0.5625 -1.15625,-0.5625q-1.01563,0 -1.53125,0.73438q-0.5,0.71875 -0.5,2.3125l0,5.10937zm16.30353,-3.03125q0,1.57813 -1.09375,2.40625q-1.07813,0.8125 -3.25,0.8125q-1.10938,0 -1.89063,-0.15625q-0.78125,-0.15625 -1.46875,-0.4375l0,-2.29687q0.76563,0.35937 1.73438,0.60937q0.98437,0.25 1.71875,0.25q1.51562,0 1.51562,-0.875q0,-0.32812 -0.20312,-0.53125q-0.20313,-0.21875 -0.70313,-0.46875q-0.48437,-0.26562 -1.3125,-0.60937q-1.17187,-0.48438 -1.71875,-0.90625q-0.54687,-0.42188 -0.79687,-0.95313q-0.25,-0.54687 -0.25,-1.34375q0,-1.35937 1.04687,-2.09375q1.04688,-0.75 2.98438,-0.75q1.84375,0 3.57812,0.79688l-0.84375,2.01562q-0.76562,-0.32812 -1.4375,-0.53125q-0.65625,-0.21875 -1.34375,-0.21875q-1.23437,0 -1.23437,0.65625q0,0.375 0.39062,0.65625q0.40625,0.26563 1.75,0.8125q1.1875,0.46875 1.73438,0.89063q0.5625,0.42187 0.82812,0.96875q0.26563,0.54687 0.26563,1.29687z" fill="#0b5394"/>
   <path stroke="null" id="svg_33" fill-rule="evenodd" d="m712,495.0761l190.99213,0l0,68.40942l-190.99213,0l0,-68.40942z" fill-opacity="0" fill="#000000"/>
   <path stroke="null" id="svg_34" fill-rule="nonzero" d="m737.9939,515.21484q0,3.28125 -1.875,5.03125q-1.85937,1.75 -5.39062,1.75l-3.78125,0l0,-13.31247l4.1875,0q3.26562,0 5.0625,1.71875q1.79687,1.71872 1.79687,4.81247zm-2.92187,0.0625q0,-4.28122 -3.79688,-4.28122l-1.5,0l0,8.67184l1.21875,0q4.07813,0 4.07813,-4.39062zm11.15374,-3.65622q0.5625,0 0.9375,0.07813l-0.20312,2.60934q-0.34375,-0.09375 -0.82813,-0.09375q-1.32812,0 -2.07812,0.6875q-0.73438,0.6875 -0.73438,1.90625l0,5.1875l-2.78125,0l0,-10.18747l2.10938,0l0.40625,1.71872l0.14062,0q0.46875,-0.85938 1.26563,-1.375q0.8125,-0.53122 1.76562,-0.53122zm2.67493,-2.4375q0,-1.35937 1.5,-1.35937q1.51562,0 1.51562,1.35937q0,0.64063 -0.375,1q-0.375,0.35938 -1.14062,0.35938q-1.5,0 -1.5,-1.35938zm2.89062,12.81247l-2.78125,0l0,-10.18747l2.78125,0l0,10.18747zm5.33405,0l-3.875,-10.18747l2.90625,0l1.96875,5.81247q0.32813,1.09375 0.40625,2.07812l0.0625,0q0.04688,-0.875 0.40625,-2.07812l1.95313,-5.81247l2.90625,0l-3.875,10.18747l-2.85938,0zm12.40949,-8.40625q-0.875,0 -1.375,0.5625q-0.5,0.5625 -0.57813,1.59375l3.89063,0q-0.01563,-1.03125 -0.53125,-1.59375q-0.51563,-0.5625 -1.40625,-0.5625zm0.39062,8.59375q-2.45312,0 -3.84375,-1.35938q-1.375,-1.35937 -1.375,-3.84375q0,-2.5625 1.26563,-3.95312q1.28125,-1.40622 3.54687,-1.40622q2.15625,0 3.35938,1.23434q1.20312,1.21875 1.20312,3.39063l0,1.34375l-6.5625,0q0.04688,1.1875 0.70313,1.85937q0.65625,0.65625 1.82812,0.65625q0.92188,0 1.73438,-0.1875q0.82812,-0.1875 1.71875,-0.60937l0,2.15625q-0.71875,0.35937 -1.54688,0.53125q-0.82812,0.1875 -2.03125,0.1875zm17.72809,-0.1875l-0.53125,-1.39063l-0.07813,0q-0.70312,0.89063 -1.45312,1.23438q-0.73438,0.34375 -1.92188,0.34375q-1.46875,0 -2.3125,-0.84375q-0.84375,-0.84375 -0.84375,-2.39063q0,-1.625 1.125,-2.39062q1.14063,-0.76563 3.4375,-0.84375l1.76563,-0.0625l0,-0.4375q0,-1.54688 -1.59375,-1.54688q-1.21875,0 -2.85938,0.73438l-0.92187,-1.875q1.75,-0.92184 3.89062,-0.92184q2.04688,0 3.14063,0.89059q1.09375,0.89062 1.09375,2.71875l0,6.78125l-1.9375,0zm-0.8125,-4.71875l-1.07813,0.03125q-1.21875,0.04687 -1.8125,0.45312q-0.57812,0.39063 -0.57812,1.20313q0,1.1875 1.34375,1.1875q0.96875,0 1.54687,-0.54688q0.57813,-0.5625 0.57813,-1.48437l0,-0.84375zm16.05224,4.90625q-1.79687,0 -2.8125,-1.3125l-0.14062,0q0.14062,1.28125 0.14062,1.48437l0,4.125l-2.78125,0l0,-14.67184l2.26563,0l0.39062,1.32809l0.125,0q0.96875,-1.51559 2.89063,-1.51559q1.79687,0 2.8125,1.39059q1.03125,1.39063 1.03125,3.875q0,1.625 -0.48438,2.82813q-0.46875,1.20312 -1.35937,1.84375q-0.875,0.625 -2.07813,0.625zm-0.8125,-8.34375q-1.03125,0 -1.51562,0.64062q-0.46875,0.625 -0.48438,2.09375l0,0.29688q0,1.64062 0.48438,2.35937q0.48437,0.70313 1.54687,0.70313q1.875,0 1.875,-3.07813q0,-1.51562 -0.46875,-2.26562q-0.45312,-0.75 -1.4375,-0.75zm12.71216,-2.21872q0.5625,0 0.9375,0.07813l-0.20312,2.60934q-0.34375,-0.09375 -0.82813,-0.09375q-1.32812,0 -2.07812,0.6875q-0.73438,0.6875 -0.73438,1.90625l0,5.1875l-2.78125,0l0,-10.18747l2.10938,0l0.40625,1.71872l0.14062,0q0.46875,-0.85938 1.26563,-1.375q0.8125,-0.53122 1.76562,-0.53122zm5.00305,5.26559q0,1.51563 0.5,2.29688q0.5,0.76562 1.60938,0.76562q1.10937,0 1.59375,-0.76562q0.5,-0.78125 0.5,-2.29688q0,-1.51562 -0.5,-2.26562q-0.48438,-0.76563 -1.60938,-0.76563q-1.10937,0 -1.60937,0.76563q-0.48438,0.75 -0.48438,2.26562zm7.04688,0q0,2.48438 -1.3125,3.89063q-1.3125,1.40625 -3.65625,1.40625q-1.46875,0 -2.59375,-0.64063q-1.10938,-0.65625 -1.71875,-1.84375q-0.59375,-1.20312 -0.59375,-2.8125q0,-2.5 1.29687,-3.875q1.29688,-1.39059 3.65625,-1.39059q1.46875,0 2.59375,0.64059q1.125,0.64063 1.71875,1.82813q0.60938,1.1875 0.60938,2.79687zm6.58209,3.07813q0.73438,0 1.75,-0.3125l0,2.0625q-1.04687,0.46875 -2.54687,0.46875q-1.67188,0 -2.4375,-0.84375q-0.75,-0.84375 -0.75,-2.53125l0,-4.90625l-1.34375,0l0,-1.1875l1.53125,-0.92184l0.8125,-2.15625l1.76562,0l0,2.17187l2.85938,0l0,2.09372l-2.85938,0l0,4.90625q0,0.59375 0.32813,0.875q0.34375,0.28125 0.89062,0.28125zm8.0202,-6.375q-0.875,0 -1.375,0.5625q-0.5,0.5625 -0.57812,1.59375l3.89062,0q-0.01562,-1.03125 -0.53125,-1.59375q-0.51562,-0.5625 -1.40625,-0.5625zm0.39063,8.59375q-2.45313,0 -3.84375,-1.35938q-1.375,-1.35937 -1.375,-3.84375q0,-2.5625 1.26562,-3.95312q1.28125,-1.40622 3.54688,-1.40622q2.15625,0 3.35937,1.23434q1.20313,1.21875 1.20313,3.39063l0,1.34375l-6.5625,0q0.04687,1.1875 0.70312,1.85937q0.65625,0.65625 1.82813,0.65625q0.92187,0 1.73437,-0.1875q0.82813,-0.1875 1.71875,-0.60937l0,2.15625q-0.71875,0.35937 -1.54687,0.53125q-0.82813,0.1875 -2.03125,0.1875zm10.55377,0q-4.75,0 -4.75,-5.21875q0,-2.60938 1.28125,-3.96875q1.29688,-1.37497 3.71875,-1.37497q1.76563,0 3.17188,0.68747l-0.82813,2.15625q-0.65625,-0.26563 -1.21875,-0.4375q-0.5625,-0.17188 -1.125,-0.17188q-2.17187,0 -2.17187,3.07813q0,3 2.17187,3q0.79688,0 1.46875,-0.21875q0.6875,-0.21875 1.375,-0.67188l0,2.375q-0.67187,0.4375 -1.35937,0.59375q-0.6875,0.17188 -1.73438,0.17188zm9.74854,-2.21875q0.73437,0 1.75,-0.3125l0,2.0625q-1.04688,0.46875 -2.54688,0.46875q-1.67187,0 -2.4375,-0.84375q-0.75,-0.84375 -0.75,-2.53125l0,-4.90625l-1.34375,0l0,-1.1875l1.53125,-0.92184l0.8125,-2.15625l1.76563,0l0,2.17187l2.85937,0l0,2.09372l-2.85937,0l0,4.90625q0,0.59375 0.32812,0.875q0.34375,0.28125 0.89063,0.28125zm3.69207,-10.78122q0,-1.35937 1.5,-1.35937q1.51563,0 1.51563,1.35937q0,0.64063 -0.375,1q-0.375,0.35938 -1.14063,0.35938q-1.5,0 -1.5,-1.35938zm2.89063,12.81247l-2.78125,0l0,-10.18747l2.78125,0l0,10.18747zm5.13098,-5.10938q0,1.51563 0.5,2.29688q0.5,0.76562 1.60938,0.76562q1.10937,0 1.59375,-0.76562q0.5,-0.78125 0.5,-2.29688q0,-1.51562 -0.5,-2.26562q-0.48438,-0.76563 -1.60938,-0.76563q-1.10937,0 -1.60937,0.76563q-0.48438,0.75 -0.48438,2.26562zm7.04688,0q0,2.48438 -1.3125,3.89063q-1.3125,1.40625 -3.65625,1.40625q-1.46875,0 -2.59375,-0.64063q-1.10938,-0.65625 -1.71875,-1.84375q-0.59375,-1.20312 -0.59375,-2.8125q0,-2.5 1.29687,-3.875q1.29688,-1.39059 3.65625,-1.39059q1.46875,0 2.59375,0.64059q1.125,0.64063 1.71875,1.82813q0.60938,1.1875 0.60938,2.79687zm11.6914,5.10938l-2.78125,0l0,-5.95313q0,-1.09375 -0.39062,-1.64062q-0.39063,-0.5625 -1.25,-0.5625q-1.15625,0 -1.6875,0.78125q-0.51563,0.78125 -0.51563,2.57812l0,4.79688l-2.78125,0l0,-10.18747l2.125,0l0.375,1.31247l0.15625,0q0.46875,-0.75 1.28125,-1.12497q0.8125,-0.375 1.84375,-0.375q1.78125,0 2.70313,0.96872q0.92187,0.95312 0.92187,2.76562l0,6.64063z" fill="#0b5394"/>
   <path stroke="null" id="svg_35" fill-rule="nonzero" d="m790.0867,535.90234l-2.40625,0l0,8.09375l-2.78125,0l0,-8.09375l-1.53125,0l0,-1.34375l1.53125,-0.75l0,-0.75q0,-1.73438 0.84375,-2.53125q0.85937,-0.8125 2.75,-0.8125q1.4375,0 2.5625,0.4375l-0.71875,2.03125q-0.82813,-0.25 -1.54688,-0.25q-0.59375,0 -0.85937,0.34375q-0.25,0.34375 -0.25,0.89062l0,0.64063l2.40625,0l0,2.09375zm1.25,-4.71875q0,-1.35938 1.5,-1.35938q1.51562,0 1.51562,1.35938q0,0.64062 -0.375,1q-0.375,0.35937 -1.14062,0.35937q-1.5,0 -1.5,-1.35937zm2.89062,12.8125l-2.78125,0l0,-10.1875l2.78125,0l0,10.1875zm8.8144,-10.375q0.5625,0 0.9375,0.07812l-0.20313,2.60938q-0.34375,-0.09375 -0.82812,-0.09375q-1.32813,0 -2.07813,0.6875q-0.73437,0.6875 -0.73437,1.90625l0,5.1875l-2.78125,0l0,-10.1875l2.10937,0l0.40625,1.71875l0.14063,0q0.46875,-0.85938 1.26562,-1.375q0.8125,-0.53125 1.76563,-0.53125zm9.89373,7.34375q0,1.57812 -1.09375,2.40625q-1.07812,0.8125 -3.25,0.8125q-1.10937,0 -1.89062,-0.15625q-0.78125,-0.15625 -1.46875,-0.4375l0,-2.29688q0.76562,0.35938 1.73437,0.60938q0.98438,0.25 1.71875,0.25q1.51563,0 1.51563,-0.875q0,-0.32813 -0.20313,-0.53125q-0.20312,-0.21875 -0.70312,-0.46875q-0.48438,-0.26563 -1.3125,-0.60938q-1.17188,-0.48437 -1.71875,-0.90625q-0.54688,-0.42187 -0.79688,-0.95312q-0.25,-0.54688 -0.25,-1.34375q0,-1.35938 1.04688,-2.09375q1.04687,-0.75 2.98437,-0.75q1.84375,0 3.57813,0.79687l-0.84375,2.01563q-0.76563,-0.32813 -1.4375,-0.53125q-0.65625,-0.21875 -1.34375,-0.21875q-1.23438,0 -1.23438,0.65625q0,0.375 0.39063,0.65625q0.40625,0.26562 1.75,0.8125q1.1875,0.46875 1.73437,0.89062q0.5625,0.42188 0.82813,0.96875q0.26562,0.54688 0.26562,1.29688zm6.46094,1q0.73438,0 1.75,-0.3125l0,2.0625q-1.04687,0.46875 -2.54687,0.46875q-1.67188,0 -2.4375,-0.84375q-0.75,-0.84375 -0.75,-2.53125l0,-4.90625l-1.34375,0l0,-1.1875l1.53125,-0.92188l0.8125,-2.15625l1.76562,0l0,2.17188l2.85938,0l0,2.09375l-2.85938,0l0,4.90625q0,0.59375 0.32813,0.875q0.34375,0.28125 0.89062,0.28125zm12.78833,2.21875q-4.75,0 -4.75,-5.21875q0,-2.60938 1.28125,-3.96875q1.29688,-1.375 3.71875,-1.375q1.76563,0 3.17188,0.6875l-0.82813,2.15625q-0.65625,-0.26563 -1.21875,-0.4375q-0.5625,-0.17188 -1.125,-0.17188q-2.17187,0 -2.17187,3.07813q0,3 2.17187,3q0.79688,0 1.46875,-0.21875q0.6875,-0.21875 1.375,-0.67188l0,2.375q-0.67187,0.4375 -1.35937,0.59375q-0.6875,0.17188 -1.73438,0.17188zm12.67041,-0.1875l-0.375,-1.29688l-0.14062,0q-0.45313,0.70313 -1.28125,1.09375q-0.8125,0.39063 -1.85938,0.39063q-1.79687,0 -2.70312,-0.95313q-0.90625,-0.96875 -0.90625,-2.78125l0,-6.64062l2.78125,0l0,5.95312q0,1.09375 0.39062,1.65625q0.39063,0.54688 1.25,0.54688q1.15625,0 1.67188,-0.78125q0.53125,-0.78125 0.53125,-2.57813l0,-4.79687l2.76562,0l0,10.1875l-2.125,0zm7.82392,0l-2.78125,0l0,-14.17188l2.78125,0l0,14.17188zm7.20904,-2.03125q0.73438,0 1.75,-0.3125l0,2.0625q-1.04687,0.46875 -2.54687,0.46875q-1.67188,0 -2.4375,-0.84375q-0.75,-0.84375 -0.75,-2.53125l0,-4.90625l-1.34375,0l0,-1.1875l1.53125,-0.92188l0.8125,-2.15625l1.76562,0l0,2.17188l2.85938,0l0,2.09375l-2.85938,0l0,4.90625q0,0.59375 0.32813,0.875q0.34375,0.28125 0.89062,0.28125zm11.02027,2.03125l-0.375,-1.29688l-0.14063,0q-0.45312,0.70313 -1.28125,1.09375q-0.8125,0.39063 -1.85937,0.39063q-1.79688,0 -2.70313,-0.95313q-0.90625,-0.96875 -0.90625,-2.78125l0,-6.64062l2.78125,0l0,5.95312q0,1.09375 0.39063,1.65625q0.39062,0.54688 1.25,0.54688q1.15625,0 1.67187,-0.78125q0.53125,-0.78125 0.53125,-2.57813l0,-4.79687l2.76563,0l0,10.1875l-2.125,0zm10.7301,-10.375q0.5625,0 0.9375,0.07812l-0.20313,2.60938q-0.34375,-0.09375 -0.82812,-0.09375q-1.32813,0 -2.07813,0.6875q-0.73437,0.6875 -0.73437,1.90625l0,5.1875l-2.78125,0l0,-10.1875l2.10937,0l0.40625,1.71875l0.14063,0q0.46875,-0.85938 1.26562,-1.375q0.8125,-0.53125 1.76563,-0.53125zm7.00305,1.96875q-0.875,0 -1.375,0.5625q-0.5,0.5625 -0.57812,1.59375l3.89062,0q-0.01562,-1.03125 -0.53125,-1.59375q-0.51562,-0.5625 -1.40625,-0.5625zm0.39063,8.59375q-2.45313,0 -3.84375,-1.35938q-1.375,-1.35937 -1.375,-3.84375q0,-2.5625 1.26562,-3.95312q1.28125,-1.40625 3.54688,-1.40625q2.15625,0 3.35937,1.23437q1.20313,1.21875 1.20313,3.39063l0,1.34375l-6.5625,0q0.04687,1.1875 0.70312,1.85937q0.65625,0.65625 1.82813,0.65625q0.92187,0 1.73437,-0.1875q0.82813,-0.1875 1.71875,-0.60937l0,2.15625q-0.71875,0.35937 -1.54687,0.53125q-0.82813,0.1875 -2.03125,0.1875z" fill="#0b5394"/>
   <path stroke="null" id="svg_36" fill-rule="evenodd" d="m0,63.07612l78.64567,0l0,68.40945l-78.64567,0l0,-68.40945z" fill-opacity="0" fill="#000000"/>
   <path stroke="null" id="svg_37" fill-rule="nonzero" d="m50.96346,133.51611l-3.3125,-10.87499l-16.65625,0l-3.3125,10.87499l-10.4375,0l16.125,-45.87499l11.84375,0l16.1875,45.87499l-10.4375,0zm-5.625,-18.99999q-4.59375,-14.78125 -5.17188,-16.71875q-0.57812,-1.9375 -0.82812,-3.0625q-1.03125,4 -5.90625,19.78125l11.90625,0z" fill="#0b5394"/>
   <path stroke="null" id="svg_38" fill-rule="evenodd" d="m0,215.07611l78.64567,0l0,68.40945l-78.64567,0l0,-68.40945z" fill-opacity="0" fill="#000000"/>
   <path stroke="null" id="svg_39" fill-rule="nonzero" d="m44.08846,247.23486q-5.46875,0 -8.46875,4.10937q-3,4.10938 -3,11.45313q0,15.28125 11.46875,15.28125q4.8125,0 11.65625,-2.40625l0,8.125q-5.625,2.34375 -12.5625,2.34375q-9.96875,0 -15.25,-6.04687q-5.28125,-6.04688 -5.28125,-17.35938q0,-7.125 2.59375,-12.48437q2.59375,-5.35938 7.45312,-8.21875q4.85938,-2.85938 11.39063,-2.85938q6.65625,0 13.375,3.21875l-3.125,7.875q-2.5625,-1.21875 -5.15625,-2.125q-2.59375,-0.90625 -5.09375,-0.90625z" fill="#0b5394"/>
   <path stroke="null" id="svg_40" fill-rule="evenodd" d="m0,351.0761l78.64567,0l0,68.40945l-78.64567,0l0,-68.40945z" fill-opacity="0" fill="#000000"/>
   <path stroke="null" id="svg_41" fill-rule="nonzero" d="m34.47908,421.5161l0,-45.6875l9.6875,0l0,45.6875l-9.6875,0z" fill="#0b5394"/>
   <path stroke="null" id="svg_42" fill-rule="evenodd" d="m0,495.0761l78.64567,0l0,68.40942l-78.64567,0l0,-68.40942z" fill-opacity="0" fill="#000000"/>
   <path stroke="null" id="svg_43" fill-rule="nonzero" d="m59.29158,542.23486q0,11.28125 -6.42187,17.28125q-6.42188,6 -18.54688,6l-12.9375,0l0,-45.6875l14.34375,0q11.1875,0 17.375,5.90625q6.1875,5.90625 6.1875,16.5zm-10.0625,0.25q0,-14.71875 -13,-14.71875l-5.15625,0l0,29.75l4.15625,0q14,0 14,-15.03125z" fill="#0b5394"/>
  </g>
 </g>
</svg>