<svg version="1.1" id="Layer_1" xmlns="http://www.w3.org/2000/svg" xmlns:xlink="http://www.w3.org/1999/xlink" x="0px" y="0px"
	 width="100%" viewBox="0 0 860 1100" enable-background="new 0 0 860 1100" xml:space="preserve">
<path fill="#FFFFFF" opacity="1.000000" stroke="none" 
	d="
M403.000000,1101.000000 
	C268.666656,1101.000000 134.833328,1101.000000 1.000000,1101.000000 
	C1.000000,734.333313 1.000000,367.666656 1.000000,1.000000 
	C287.666656,1.000000 574.333313,1.000000 861.000000,1.000000 
	C861.000000,367.666656 861.000000,734.333313 861.000000,1101.000000 
	C708.500000,1101.000000 556.000000,1101.000000 403.000000,1101.000000 
M607.516357,289.564026 
	C609.002869,288.055115 610.489380,286.546173 611.853271,285.693268 
	C611.912659,286.130737 611.972107,286.568237 611.771240,287.470947 
	C612.067749,288.464478 612.364258,289.458008 612.663940,291.188171 
	C613.877014,292.268188 615.090088,293.348206 616.145996,294.288300 
	C618.852844,287.075317 621.175842,280.885376 623.848267,273.764313 
	C620.723633,277.483765 618.124451,280.577698 614.991577,284.306915 
	C614.991577,281.278595 615.164795,279.163818 614.901001,277.105042 
	C614.803894,276.346741 613.675598,275.720581 612.452209,275.123413 
	C612.237305,275.800873 612.022400,276.478302 611.401611,277.691376 
	C611.134827,278.305145 610.868103,278.918915 610.029602,279.921997 
	C607.122131,284.958374 607.122131,284.958374 604.995972,284.193329 
	C604.192017,281.417725 606.766907,277.519623 601.930786,274.783081 
	C601.930786,280.424316 601.747131,284.894379 602.045776,289.331970 
	C602.132202,290.616058 603.602722,291.806976 604.438660,293.040588 
	C605.314148,292.055023 606.189636,291.069489 607.516357,289.564026 
M400.516388,340.564056 
	C402.002869,339.055145 403.489349,337.546204 404.853271,336.693329 
	C404.912689,337.130798 404.972076,337.568268 404.771240,338.470856 
	C405.067749,339.464386 405.364258,340.457916 405.663910,342.188049 
	C406.876953,343.268127 408.089966,344.348206 409.146027,345.288513 
	C411.852783,338.075745 414.175781,331.885620 416.848358,324.763947 
	C413.723389,328.483734 411.124237,331.577637 407.991547,335.306641 
	C407.991547,332.278625 408.164764,330.163910 407.901031,328.105133 
	C407.803864,327.346832 406.675598,326.720581 405.452179,326.123413 
	C405.237305,326.800842 405.022400,327.478271 404.401672,328.691315 
	C404.134888,329.305115 403.868103,329.918915 403.029602,330.922119 
	C400.121948,335.958496 400.121948,335.958496 397.995972,335.193176 
	C397.191803,332.417725 399.766968,328.519562 394.930298,325.783051 
	C394.930298,331.425903 394.746643,335.895233 395.045380,340.332062 
	C395.131836,341.616119 396.602570,342.807007 397.438690,344.040588 
	C398.314178,343.055054 399.189667,342.069489 400.516388,340.564056 
M577.837463,289.997498 
	C578.545166,289.465149 579.252869,288.932831 580.126587,288.275604 
	C581.418274,291.068939 581.248779,295.389923 585.970703,292.586212 
	C581.792603,286.603271 586.217957,281.016907 586.391724,274.805481 
	C584.863098,275.464569 583.581543,276.359436 582.765198,277.568481 
	C580.281006,281.247650 577.976440,285.048035 574.689575,289.070557 
	C572.332764,290.320251 571.999878,288.956909 572.468201,287.162354 
	C573.096802,284.753235 574.163208,282.453705 574.725281,280.033691 
	C575.059631,278.594208 574.786499,277.013641 574.786499,275.496490 
	C574.080750,275.365326 573.375061,275.234161 572.669312,275.102997 
	C571.358032,278.889465 569.620605,282.596924 568.898315,286.492615 
	C568.478333,288.757751 569.686646,291.324829 570.162231,293.756042 
	C572.450928,292.554016 574.739624,291.351990 577.837463,289.997498 
M327.689545,289.070557 
	C325.332611,290.320374 325.000031,288.956757 325.468262,287.162354 
	C326.096893,284.753265 327.163177,282.453705 327.725189,280.033661 
	C328.059509,278.594147 327.786469,277.013611 327.786469,275.496460 
	C327.080780,275.365326 326.375122,275.234161 325.669434,275.103027 
	C324.358093,278.889496 322.620697,282.596954 321.898315,286.492645 
	C321.478302,288.757782 322.686676,291.324860 323.162323,293.756042 
	C325.451019,292.554016 327.739746,291.351990 330.837555,289.997345 
	C331.540588,289.466125 332.243622,288.934875 333.048950,288.326355 
	C335.078156,294.016174 335.078156,294.016174 338.944733,292.219574 
	C336.765350,288.880280 337.430176,278.955292 340.180878,276.591187 
	C340.567383,276.259003 341.940399,277.074646 343.039551,277.894867 
	C343.661621,278.273407 344.283691,278.651978 345.363312,279.653870 
	C345.538086,281.117004 345.712860,282.580139 345.605377,284.453186 
	C345.489655,284.807861 345.564880,285.115906 345.393066,285.946808 
	C345.559387,288.390747 345.725708,290.834656 346.152405,293.970062 
	C350.727478,296.848022 352.457336,293.781036 354.540466,289.875305 
	C352.445435,290.211609 350.983032,290.446320 348.904144,290.780029 
	C349.259796,287.012604 349.565918,283.770203 349.828644,280.987396 
	C352.687561,279.572845 355.072357,278.392883 357.820099,277.033386 
	C354.741333,275.657410 352.469055,274.641846 350.700073,273.066711 
	C350.962830,270.562408 351.225555,268.058075 351.488281,265.553772 
	C351.032837,265.464539 350.577393,265.375275 350.121979,265.286041 
	C349.407715,267.860779 348.693451,270.435547 347.424835,273.662750 
	C345.957062,274.266418 344.489319,274.870117 342.120880,275.704926 
	C337.733521,274.170258 335.851868,276.349365 334.251587,280.224365 
	C332.968506,283.331177 330.528473,285.960205 327.689545,289.070557 
M192.966125,342.641663 
	C196.258789,346.602509 196.768204,343.031677 198.110672,340.884857 
	C200.586472,336.925598 203.162521,333.002258 206.076508,329.368469 
	C206.602127,328.712982 208.948898,329.517914 210.454865,329.648590 
	C210.494446,330.017120 210.534027,330.385651 210.573608,330.754211 
	C211.706390,330.503448 212.839157,330.252716 214.900070,330.358521 
	C214.387482,332.718414 213.500519,335.074493 213.476593,337.439331 
	C213.456146,339.459686 214.426376,341.490021 214.958420,343.515930 
	C216.701019,342.722137 218.443619,341.928314 221.242081,341.669281 
	C220.372009,343.367645 219.523697,345.077576 218.627121,346.761841 
	C216.998123,349.822021 215.190582,352.800171 213.783356,355.957733 
	C213.344574,356.942322 213.955597,358.394745 214.086044,359.633026 
	C215.449127,359.388550 217.503189,359.621002 218.057297,358.818146 
	C220.645264,355.068604 223.425385,351.253937 224.960861,347.034576 
	C226.333603,343.262329 227.727173,340.036774 231.419327,338.177887 
	C231.585266,338.094330 231.568283,337.647400 231.688980,337.156097 
	C230.327454,337.271515 229.033005,337.381226 227.263260,337.531250 
	C228.547043,333.632080 229.659073,330.254639 230.771088,326.877197 
	C230.373520,326.548553 229.975967,326.219940 229.578400,325.891296 
	C228.581741,326.929596 227.405502,327.848633 226.622116,329.028503 
	C224.257599,332.589752 222.045700,336.252319 218.933578,339.877960 
	C218.412643,339.396759 217.370865,338.785431 217.453415,338.455078 
	C218.095917,335.883850 219.118027,333.401855 219.674469,330.817261 
	C219.931839,329.621826 219.411499,328.258911 219.243729,326.971893 
	C218.256439,327.602203 217.286453,328.262085 216.276169,328.853058 
	C215.517593,329.296844 214.707184,329.652039 213.211166,329.683838 
	C213.572800,326.497070 211.720657,325.171143 209.047150,325.867432 
	C205.810135,326.710480 202.770187,328.310181 199.868622,329.491364 
	C198.340347,328.392212 196.688004,327.203796 194.414520,325.984528 
	C193.652924,326.302246 192.891327,326.619965 191.327606,326.893433 
	C189.613983,326.492218 187.900360,326.091003 185.906235,325.624146 
	C186.215240,322.744293 186.499390,320.096100 186.783020,317.454224 
	C182.438858,319.541046 185.071274,328.224640 176.575943,327.072662 
	C182.997452,329.939453 180.937119,334.709717 180.751297,338.959595 
	C180.700867,340.113159 180.483917,341.287903 180.629013,342.416199 
	C181.065475,345.810028 183.870117,347.239655 186.750565,345.427429 
	C188.115356,344.568726 189.150391,343.185913 190.920303,342.072296 
	C191.505600,342.061920 192.090912,342.051575 192.966125,342.641663 
M560.835144,327.925812 
	C564.324951,329.909790 565.250977,332.783691 564.212646,336.626007 
	C563.746887,338.349457 563.749329,340.270233 563.893494,342.073151 
	C564.206116,345.983185 567.428406,347.416992 570.593628,345.017914 
	C571.971313,343.973724 572.988586,342.454132 574.828491,340.422913 
	C572.004578,341.022461 570.236511,341.397858 567.781982,341.919006 
	C568.121216,337.995331 568.401245,334.756866 568.639099,332.005920 
	C571.516968,330.574738 573.881714,329.398712 577.362488,327.667694 
	C573.702698,326.718018 571.539001,326.156555 569.656738,325.668121 
	C569.820374,322.431030 569.967651,319.516693 570.114990,316.602356 
	C569.697571,316.472260 569.280151,316.342133 568.862732,316.212006 
	C567.714844,321.351074 566.405151,326.359375 560.476379,327.689178 
	C560.343994,327.718872 560.250854,327.923584 559.591125,328.851929 
	C558.528625,327.681061 557.466187,326.510193 556.193420,325.107544 
	C549.977112,324.992828 544.512085,331.403442 544.709229,338.955780 
	C544.746338,340.375854 544.248779,341.809845 543.163940,342.875275 
	C542.264404,341.094116 541.107849,339.387726 540.559570,337.504333 
	C540.219055,336.334381 541.156677,334.818451 540.890137,333.595215 
	C540.405579,331.371613 540.030762,328.465790 538.506042,327.339355 
	C537.326843,326.468231 534.442017,327.799347 532.357056,328.318604 
	C531.626160,328.500641 531.019287,329.180573 530.175110,329.756378 
	C529.525757,328.326202 528.967163,327.095917 528.408630,325.865662 
	C526.068420,331.948120 520.602722,336.993561 522.778320,344.764557 
	C528.507629,340.624695 528.818909,332.593994 536.710999,330.640839 
	C536.710999,333.561279 536.670105,336.097198 536.719482,338.631348 
	C536.820923,343.840973 539.130188,345.216309 544.820312,342.521057 
	C550.648804,346.042053 553.722839,345.322174 556.747925,339.179474 
	C557.940002,336.758850 558.195251,333.882660 558.932190,331.229187 
	C559.236816,330.132233 559.686096,329.075439 560.835144,327.925812 
M642.895203,290.933044 
	C643.836548,291.225525 645.186035,291.223083 645.647766,291.862061 
	C647.526611,294.462494 648.944824,293.572083 650.085205,291.420227 
	C650.935059,289.816650 651.326477,287.977325 652.064087,286.305695 
	C654.000549,281.917419 656.799316,278.416656 662.053650,277.012848 
	C662.257629,278.277283 662.398804,279.152496 662.784180,281.541779 
	C664.316833,279.177277 665.113892,277.947510 665.911011,276.717773 
	C664.522522,276.065369 662.922302,274.612091 661.785706,274.912567 
	C658.532715,275.772522 655.467773,277.344116 651.882324,278.819672 
	C651.138000,277.580658 650.085205,275.828064 649.032349,274.075500 
	C647.573120,278.005310 647.493408,280.757172 647.112549,283.466644 
	C646.677185,286.564423 646.362366,289.924042 641.148804,290.014374 
	C639.343872,290.249603 637.521973,290.759430 635.738281,290.649689 
	C633.568176,290.516205 630.052979,290.424927 629.593262,289.302429 
	C628.859436,287.510559 630.166138,284.883057 630.676086,282.270630 
	C632.665039,283.302185 633.880310,284.499664 634.909180,284.356659 
	C637.672180,283.972565 641.142944,283.764160 642.796814,282.025269 
	C643.920776,280.843536 643.221375,275.600769 641.977600,275.002930 
	C639.741272,273.927948 636.330078,274.487793 633.704163,275.307709 
	C631.851807,275.886017 630.209106,277.817505 628.960083,279.505402 
	C626.339478,283.046844 623.857605,287.376831 626.686951,291.355499 
	C629.547241,295.377594 634.321228,294.482422 638.559082,292.846710 
	C639.764160,292.381622 640.890930,291.713531 642.895203,290.933044 
M604.860596,341.936737 
	C608.166016,338.469879 607.672974,342.360840 608.348389,343.686401 
	C610.577759,341.111847 612.822571,338.519470 614.980103,336.027893 
	C617.511597,338.940460 619.489258,341.215820 620.965332,342.914093 
	C620.868896,342.550018 620.613281,341.452148 620.287170,340.375641 
	C618.982971,336.069672 616.948059,331.706757 621.925354,328.175415 
	C622.294617,327.913422 621.860840,326.519379 621.758118,325.044281 
	C619.335632,327.007538 617.452576,328.533691 615.676758,329.972900 
	C613.107666,328.381195 610.792053,326.946533 608.476379,325.511871 
	C608.196228,325.910706 607.916077,326.309570 607.635925,326.708405 
	C609.362976,328.792725 611.090088,330.877045 613.100647,333.303436 
	C609.465820,335.582642 609.468689,341.268188 603.148682,341.014343 
	C601.343750,341.249573 599.521912,341.759399 597.738220,341.649689 
	C595.568115,341.516174 592.053040,341.425018 591.593079,340.302307 
	C590.859131,338.510712 592.166077,335.882996 592.676086,333.270599 
	C594.662292,334.300751 595.878906,335.499542 596.909302,335.356537 
	C599.672363,334.973114 603.142944,334.764099 604.796814,333.025177 
	C605.920837,331.843475 605.221436,326.600677 603.977600,326.002838 
	C601.741272,324.927826 598.330078,325.487793 595.704163,326.307709 
	C593.851807,326.886108 592.209167,328.817474 590.960083,330.505371 
	C588.339417,334.046814 585.857666,338.376801 588.686951,342.355438 
	C591.547180,346.377625 596.321228,345.482391 600.559082,343.846802 
	C601.764160,343.381683 602.890869,342.713623 604.860596,341.936737 
M263.932373,288.085114 
	C260.102875,289.913971 260.927948,287.084351 261.374237,285.298462 
	C262.111603,282.347778 263.224884,279.490997 264.179718,276.594635 
	C263.789062,276.258484 263.398407,275.922302 263.007721,275.586121 
	C261.925140,276.347748 260.363251,276.875732 259.855286,277.917542 
	C258.630341,280.429962 257.704163,283.132935 257.008667,285.848999 
	C255.661163,291.111298 256.816040,292.615112 262.877838,293.337433 
	C260.995392,297.124115 258.960876,300.847046 257.328888,304.738739 
	C256.875732,305.819275 257.616241,307.400360 257.809113,308.751801 
	C259.159271,308.414520 261.180511,308.519775 261.744629,307.664215 
	C264.337189,303.732483 267.062225,299.732544 268.682617,295.364899 
	C269.964050,291.911011 271.271942,289.033752 274.673981,287.409851 
	C275.002319,287.253143 275.200775,286.824310 275.670654,286.274994 
	C273.933075,286.274994 272.609070,286.274994 270.825195,286.274994 
	C272.074219,282.515778 273.190155,279.157166 274.306061,275.798553 
	C273.904663,275.488983 273.503265,275.179443 273.101868,274.869873 
	C272.083160,275.935669 270.830902,276.861420 270.091614,278.094696 
	C268.230865,281.198914 266.601624,284.441925 263.932373,288.085114 
M489.708923,344.283966 
	C495.054810,343.839539 500.423187,343.555237 505.726746,342.809631 
	C506.735077,342.667908 508.159790,340.705353 508.168518,339.573395 
	C508.177399,338.428253 506.903046,336.728485 505.771667,336.237518 
	C503.692871,335.335449 501.129822,335.512604 499.100159,334.544678 
	C497.238678,333.656952 495.814240,331.852783 494.197235,330.452393 
	C496.422028,329.906067 498.626190,329.194550 500.884003,328.912231 
	C501.578217,328.825409 502.348663,330.134216 503.210022,330.407623 
	C504.399475,330.785126 505.708130,330.787079 507.508392,331.020203 
	C505.831329,325.527863 502.390442,325.447083 498.518890,325.697632 
	C494.657837,325.947479 491.251740,326.963806 491.002319,331.280701 
	C490.749908,335.649750 494.609070,336.259125 497.855194,337.056671 
	C499.762787,337.525299 501.690582,337.911774 503.609283,338.335175 
	C503.548523,338.991425 503.487793,339.647675 503.427032,340.303894 
	C498.618011,340.535889 493.809021,340.767883 488.258209,341.052063 
	C484.988953,341.265106 481.715424,341.684723 478.451904,341.617920 
	C476.306549,341.573975 472.805237,341.386444 472.350494,340.269836 
	C471.617737,338.470398 472.897980,335.851227 473.400513,333.194489 
	C475.254120,334.276794 476.295319,335.414276 477.200531,335.314850 
	C480.013092,335.005768 483.682190,335.067291 485.261932,333.359650 
	C486.481079,332.041809 485.945129,326.741150 484.594574,325.956451 
	C482.552307,324.769897 478.999908,325.543854 476.326721,326.311676 
	C474.613556,326.803741 473.070984,328.589142 471.901520,330.134918 
	C469.141846,333.782593 466.319122,338.193756 469.346191,342.373352 
	C472.371307,346.550232 477.319824,345.434052 481.705475,343.689392 
	C482.474762,343.383362 483.280945,342.832397 484.032898,342.888977 
	C485.719574,343.015839 487.382904,343.453583 489.708923,344.283966 
M197.070526,285.577148 
	C197.638657,281.422119 194.732391,280.086487 191.638077,278.986816 
	C188.644119,277.922760 185.608063,276.977173 182.710358,276.019135 
	C185.077103,267.623993 191.979568,274.784454 195.705933,271.393372 
	C191.111725,266.834778 185.822601,266.793762 181.263992,270.872833 
	C177.538757,274.206207 178.068573,277.384644 182.709747,279.061279 
	C184.420334,279.679230 186.329742,279.795624 187.976654,280.527435 
	C189.673553,281.281433 191.161179,282.506378 192.740372,283.525269 
	C191.299500,284.996094 190.040085,287.423920 188.380005,287.738708 
	C184.913452,288.396027 181.235367,287.937775 177.644165,287.937775 
	C177.408569,288.285736 177.172958,288.633698 176.937363,288.981659 
	C179.319916,290.363770 181.548233,292.364319 184.115799,293.004700 
	C190.256317,294.536102 194.157913,291.034729 198.034927,286.225586 
	C198.489319,287.258667 199.004807,288.269653 199.387741,289.328583 
	C201.279572,294.559845 204.626923,295.442780 208.741013,291.767731 
	C213.539673,287.481171 214.322876,281.041351 210.824265,273.812103 
	C204.691895,273.868103 202.158051,278.169861 199.890793,282.962158 
	C199.268967,284.276520 197.976974,285.273804 197.070526,285.577148 
M377.655701,290.789337 
	C376.938477,290.019318 375.612396,289.247589 375.614502,288.479553 
	C375.621704,285.836578 376.093292,283.194885 376.349854,280.894104 
	C379.005585,279.633118 381.433044,278.480499 385.085022,276.746460 
	C381.441681,275.762177 379.310120,275.186310 376.915009,274.539246 
	C377.212952,271.758942 377.494141,269.134796 377.775360,266.510651 
	C376.093048,268.308441 375.610535,270.719666 374.240234,272.412170 
	C372.822205,274.163605 370.542725,275.217529 368.352478,276.781982 
	C373.955933,279.369324 371.677399,284.261475 371.779327,288.684357 
	C371.826935,290.750488 373.055664,292.789398 373.749023,294.840668 
	C375.844452,293.940094 377.939880,293.039551 380.711395,291.690796 
	C384.392059,287.540161 383.156860,295.175720 385.939941,293.539764 
	C387.636841,290.466919 387.999939,285.769958 393.529419,284.989166 
	C394.130859,287.012756 394.342987,289.055145 395.318481,290.622406 
	C396.231567,292.089325 397.806244,293.487427 399.391785,294.024811 
	C400.030182,294.241211 401.472534,292.085602 403.327271,291.423706 
	C409.197754,295.350189 415.459259,294.715424 420.677368,289.640747 
	C418.017761,290.002686 415.388550,290.636169 412.760284,290.632141 
	C410.600311,290.628815 407.065643,290.439636 406.597687,289.312561 
	C405.855865,287.525757 407.165314,284.887360 407.569916,282.800018 
	C410.267365,283.541718 412.079163,284.380676 413.927399,284.470520 
	C416.911438,284.615540 420.150787,284.712097 420.466309,280.320953 
	C420.881378,274.543945 417.454407,272.058868 411.987518,274.602844 
	C405.001984,277.853424 402.273773,283.718079 402.066772,292.146088 
	C400.890045,290.413910 399.170074,288.834381 398.632721,286.922516 
	C396.555359,279.531464 396.695923,279.491974 389.150360,280.592804 
	C389.814026,277.266235 390.712952,274.126465 391.010345,270.930695 
	C391.398773,266.756866 389.293396,265.177216 385.731598,265.917816 
	C390.010773,274.163208 383.130859,281.425995 384.029236,288.956909 
	C381.766815,289.673981 380.117706,290.196655 377.655701,290.789337 
M513.650452,292.040833 
	C514.744995,291.434998 515.839600,290.829163 516.934143,290.223358 
	C516.865295,290.052185 516.796448,289.881012 516.727539,289.709869 
	C515.486328,289.898315 514.245056,290.086761 512.164001,290.153381 
	C511.178894,290.313385 510.178680,290.668884 509.211761,290.594025 
	C506.993286,290.422302 503.280457,290.619080 502.899109,289.623016 
	C502.123413,287.597046 503.150024,284.881073 503.536041,281.574982 
	C505.225708,282.944672 505.772369,283.576233 506.462646,283.916351 
	C510.501556,285.906464 515.859375,284.264862 516.437988,280.915222 
	C517.414551,275.262085 513.604248,271.756287 508.571198,274.480621 
	C504.560333,276.651611 501.488190,280.556885 498.094116,283.607117 
	C495.378540,283.607117 492.139465,283.607117 489.428497,283.607117 
	C488.186859,281.086060 486.971710,276.533386 485.741547,276.529327 
	C482.606201,276.518982 479.460358,278.530182 476.331146,279.763977 
	C476.046112,279.876404 475.748322,280.173035 475.629639,280.456573 
	C474.592346,282.934479 473.594543,285.428833 472.585052,287.918335 
	C474.979462,288.398132 477.375885,288.868256 479.765839,289.369385 
	C480.079529,289.435120 480.359955,289.659576 481.407227,290.193939 
	C477.656036,296.450165 470.264984,300.730042 470.175293,308.985016 
	C478.700684,310.755066 484.111542,307.216675 485.353882,299.184265 
	C485.557434,297.868042 485.681152,296.539398 485.837708,295.216003 
	C486.625702,288.555542 491.673828,284.832520 498.604279,285.802063 
	C498.863068,292.239838 501.479919,294.770599 507.407837,293.948090 
	C509.327087,293.681793 511.145752,292.690979 513.650452,292.040833 
M419.738251,130.204575 
	C409.732300,143.346497 408.791595,158.473007 416.953003,172.731934 
	C419.077576,176.443802 421.861755,178.032883 426.023438,176.554428 
	C433.655487,173.843094 438.670715,167.957642 441.058807,160.853638 
	C444.480103,150.676147 446.361938,139.982498 448.946320,129.520432 
	C449.233459,128.358078 449.488983,126.792244 450.315735,126.225479 
	C454.501862,123.355820 453.533051,119.620796 452.143280,115.989578 
	C450.660553,112.115585 447.087738,112.051765 443.727417,112.429253 
	C441.791840,112.646690 439.905884,113.504333 438.051941,114.215485 
	C430.243805,117.210579 425.251526,123.469933 419.738251,130.204575 
M382.435638,152.825043 
	C381.008972,161.323807 381.123566,169.629837 385.855011,178.788452 
	C388.695557,168.551743 391.009399,159.450089 393.853699,150.517319 
	C394.536255,148.373718 396.691956,146.345749 398.682220,145.052765 
	C401.860138,142.988266 405.466858,141.583832 408.892242,139.900299 
	C408.773926,139.565918 408.655579,139.231537 408.537231,138.897156 
	C404.994537,139.069336 401.451874,139.241501 397.942413,139.412048 
	C399.387634,130.273926 405.163879,121.767639 400.433960,110.924538 
	C398.390167,113.634804 396.836761,115.144005 395.947998,116.975700 
	C393.188538,122.662743 390.715424,128.487915 388.064972,134.228912 
	C386.192993,138.283737 385.474365,143.057480 379.682495,144.191376 
	C375.141968,145.080292 370.810913,147.039185 366.386810,148.522705 
	C366.045807,148.029877 365.704834,147.537048 365.363831,147.044205 
	C369.092499,142.006973 372.729614,136.898285 376.583832,131.959030 
	C378.925262,128.958450 382.175232,126.522942 383.908813,123.247108 
	C384.915192,121.345482 384.590912,117.665848 383.321564,115.889549 
	C381.493530,113.331398 378.863861,114.766197 377.179504,117.093468 
	C371.939087,124.334274 366.602844,131.510925 361.565094,138.890808 
	C359.427826,142.021667 357.428467,145.432312 356.283081,149.009308 
	C354.723358,153.880219 356.584930,156.418915 361.462280,155.910339 
	C366.512573,155.383743 371.430756,153.660110 376.436523,152.600800 
	C378.350189,152.195847 380.346405,152.181015 382.435638,152.825043 
M483.235901,173.168060 
	C483.892487,174.642075 484.549103,176.116074 485.588013,178.448288 
	C486.881927,174.412460 487.962830,171.336075 488.851807,168.205231 
	C490.576599,162.130737 491.977997,155.953415 493.981232,149.975464 
	C494.615723,148.082077 496.463837,146.236694 498.236755,145.160416 
	C501.610413,143.112366 505.329956,141.634186 508.905884,139.919373 
	C508.779938,139.576996 508.653961,139.234634 508.528015,138.892258 
	C504.988037,139.065598 501.448029,139.238937 497.938354,139.410797 
	C499.406921,130.267181 505.134186,121.766518 500.460571,110.914459 
	C498.404755,113.623978 496.844849,115.119041 495.965485,116.942345 
	C493.151459,122.777115 490.618561,128.746826 487.917542,134.637085 
	C486.678070,137.339966 485.972656,141.323792 483.852814,142.384903 
	C478.371460,145.128662 472.238251,146.570099 466.365326,148.531601 
	C466.003265,148.048355 465.641205,147.565109 465.279144,147.081863 
	C469.128296,141.952698 472.903534,136.765747 476.854462,131.716217 
	C479.197632,128.721527 482.342621,126.226212 484.103882,122.955376 
	C485.061462,121.177063 484.688843,117.661674 483.470276,115.973465 
	C481.677582,113.489799 479.014008,114.524956 477.303528,116.970695 
	C470.953461,126.050575 464.351532,134.975113 458.480835,144.356400 
	C456.791992,147.055161 457.244537,151.093964 456.715271,154.518372 
	C460.182129,154.794830 463.762390,155.747238 467.089294,155.189301 
	C472.077911,154.352707 476.888733,152.456085 481.410767,151.118088 
	C481.984344,158.402496 482.536224,165.411316 483.235901,173.168060 
M273.924072,343.184174 
	C269.035095,347.988068 263.920258,352.661652 263.529419,360.323181 
	C274.637909,360.830688 278.376312,357.885681 278.925751,347.294067 
	C279.215668,341.705322 281.818359,338.782166 286.657745,337.110596 
	C288.120300,336.605377 289.597717,336.143188 291.068329,335.661285 
	C290.988647,335.093597 290.908966,334.525940 290.829285,333.958252 
	C287.770599,334.317505 284.711914,334.676727 282.608521,334.923798 
	C281.477539,332.266357 280.632782,327.777802 279.278961,327.618591 
	C276.407898,327.281006 273.181213,328.996826 270.286560,330.288147 
	C269.053192,330.838348 267.969604,332.292328 267.386353,333.590881 
	C266.622833,335.290802 265.478271,338.051788 266.201935,338.896790 
	C267.270142,340.144043 269.817200,340.355927 271.777405,340.532959 
	C273.268616,340.667633 275.445374,339.130951 273.924072,343.184174 
M548.219666,287.205322 
	C548.378967,286.963989 548.563354,286.734039 548.681458,286.473969 
	C548.714478,286.401306 548.545349,286.131073 548.479797,286.134949 
	C547.123596,286.214661 545.768982,286.320984 543.884766,286.461456 
	C545.214355,282.535461 546.351746,279.176971 547.963440,274.417908 
	C540.545227,277.665466 542.204590,287.463470 533.727539,288.882355 
	C535.021606,284.375183 536.129822,280.515320 537.242188,276.640961 
	C533.429016,275.951477 531.053772,279.550690 529.824219,286.998779 
	C528.998352,292.002045 531.311890,293.582489 537.070312,292.378387 
	C535.794128,294.544525 535.049561,295.700806 534.411621,296.913177 
	C533.024658,299.549194 531.525696,302.147247 530.423645,304.901337 
	C530.014771,305.923126 530.588867,307.338257 530.714661,308.574005 
	C532.073425,308.358887 534.158020,308.623077 534.669495,307.848450 
	C537.359253,303.775208 540.187439,299.643127 541.903320,295.127106 
	C543.157898,291.825043 544.449951,289.128204 548.219666,287.205322 
M230.266388,274.892670 
	C227.711349,276.280243 225.156311,277.667786 222.627487,279.041138 
	C221.462250,277.290527 220.421539,275.727020 218.816467,273.315643 
	C217.767883,279.516876 216.891281,283.675751 216.437653,287.880310 
	C216.252167,289.599548 216.981689,291.417542 217.294952,293.190613 
	C218.580383,292.001312 220.103455,290.982758 221.104797,289.589264 
	C223.675125,286.012512 225.738831,282.039185 228.549667,278.680084 
	C230.201447,276.706146 232.803192,275.950867 233.273270,280.505096 
	C234.979630,279.172119 236.186768,278.229095 237.924759,276.871399 
	C238.170761,278.540009 238.613754,279.651123 238.428574,280.645264 
	C237.881989,283.580048 236.865662,286.440826 236.496140,289.388611 
	C236.345032,290.593994 237.383026,291.948425 237.880035,293.235046 
	C238.972839,292.474823 240.382233,291.929321 241.079742,290.901001 
	C241.987946,289.562012 242.040405,287.632507 242.974243,286.323029 
	C245.381912,282.946838 248.071823,279.771912 251.199005,275.821808 
	C252.601715,278.178467 253.180984,279.151642 254.369110,281.147766 
	C255.358429,278.999756 255.953873,277.706879 256.549316,276.414032 
	C255.269485,275.860291 253.791428,274.594299 252.746658,274.885071 
	C249.498581,275.789154 246.414871,277.283752 242.957062,278.674011 
	C240.775436,273.276184 235.143372,276.322357 230.266388,274.892670 
M444.580353,315.865417 
	C444.903290,320.051758 445.226257,324.238068 445.481720,327.549805 
	C441.323486,328.157318 437.362000,327.577454 436.075928,329.164978 
	C433.393066,332.476685 431.582397,336.786682 430.447632,340.967285 
	C429.561096,344.233276 431.722412,345.996979 435.215973,344.486328 
	C437.603210,343.454041 439.879395,342.164886 442.266937,340.959412 
	C443.139008,342.544800 444.034210,344.172272 444.929413,345.799774 
	C446.992798,336.953827 448.044342,329.727051 449.116608,322.503357 
	C449.598389,319.257660 448.964417,316.671387 444.580353,315.865417 
M309.555328,273.375732 
	C310.125519,266.648621 309.396454,265.602539 306.037323,266.256165 
	C305.298004,275.656281 304.584595,284.726776 303.841675,294.172272 
	C309.256653,294.489929 313.847107,293.526855 316.167816,289.324921 
	C317.778229,286.409088 317.547485,282.476410 318.139343,278.998047 
	C315.570190,278.653229 312.999878,278.316498 310.433441,277.952576 
	C310.135834,277.910370 309.859619,277.717133 309.194214,277.430573 
	C309.257111,276.480286 309.329987,275.378693 309.555328,273.375732 
M261.746094,338.389648 
	C261.969727,336.078094 262.373108,333.766907 262.377563,331.454956 
	C262.385529,327.317108 258.804993,325.230530 255.226135,327.217468 
	C253.941910,327.930420 252.800507,328.900665 251.576706,329.765656 
	C250.813309,328.339325 250.132874,327.068024 249.255676,325.429047 
	C242.464767,339.623016 242.276917,340.431274 245.005325,344.309967 
	C249.749084,340.438110 250.296356,332.596100 257.295868,330.830475 
	C260.181061,334.945496 254.083740,344.018951 264.937866,344.276001 
	C263.561096,342.089447 262.645020,340.634583 261.746094,338.389648 
M451.191864,278.275635 
	C451.582703,273.757904 448.712067,273.439911 445.402985,273.883118 
	C442.243347,274.306335 439.105743,274.893921 436.394775,275.337799 
	C435.441681,284.828583 434.459412,294.610168 433.477112,304.391754 
	C434.128296,304.480164 434.779480,304.568604 435.430664,304.657043 
	C435.893097,302.833191 436.687042,301.021362 436.753906,299.183136 
	C436.933228,294.252289 439.302551,291.204285 443.336700,288.358368 
	C446.533813,286.102936 448.545868,282.167603 451.191864,278.275635 
M665.904358,289.746460 
	C669.445374,295.309479 676.394714,295.565613 683.317200,289.808319 
	C680.227173,290.183075 677.845764,290.735901 675.479431,290.677765 
	C673.482544,290.628723 670.063538,290.263306 669.813110,289.345306 
	C669.278809,287.386597 670.391235,284.978760 670.693481,283.443146 
	C674.160339,283.902679 676.517029,284.463043 678.875793,284.471497 
	C682.733459,284.485352 683.856750,282.270050 683.606567,278.549530 
	C683.335144,274.513641 681.335632,273.435150 677.731079,273.838440 
	C671.568359,274.528015 666.318909,281.178314 665.904358,289.746460 
M390.707886,334.450714 
	C392.929901,329.843109 392.139832,325.702148 388.888489,324.914703 
	C384.514343,323.855316 378.634277,326.882568 376.231262,332.559875 
	C374.957489,335.569305 374.381439,339.793396 375.519073,342.665649 
	C376.865814,346.065857 383.400391,345.779297 388.636902,342.977997 
	C388.747345,342.918915 388.761902,342.680573 388.966217,342.147491 
	C387.155914,342.021851 385.416687,342.031250 383.725891,341.749817 
	C381.740936,341.419495 378.341492,341.180359 378.132019,340.293243 
	C377.656555,338.279694 378.759552,335.893402 378.972290,334.862823 
	C383.497955,334.862823 386.788544,334.862823 390.707886,334.450714 
M635.825317,340.698181 
	C635.157104,341.288879 634.488892,341.879578 633.820679,342.470306 
	C634.753296,343.278229 635.752563,344.844604 636.607544,344.769470 
	C641.669800,344.324432 646.846436,344.013611 651.687439,342.623169 
	C655.024170,341.664856 654.904968,337.861755 651.654419,336.302094 
	C649.631714,335.331543 647.008484,335.595673 645.010193,334.595642 
	C643.060242,333.619781 641.562317,331.740997 639.865906,330.258636 
	C642.304443,329.834076 644.732544,329.298462 647.189331,329.069397 
	C647.745789,329.017517 648.328430,330.305969 649.027893,330.491486 
	C650.220215,330.807709 651.514709,330.739014 653.258179,330.868591 
	C650.406006,325.545105 647.456970,324.201904 641.665466,326.065979 
	C639.680237,326.704956 637.205994,329.076508 636.969482,330.915558 
	C636.763062,332.520844 639.030029,335.145966 640.849121,336.138306 
	C643.307434,337.479370 646.382690,337.689453 649.193298,338.384827 
	C649.210571,338.962982 649.227844,339.541138 649.245117,340.119263 
	C645.016418,340.374573 640.787659,340.629883 635.825317,340.698181 
M466.160431,290.996033 
	C467.301544,292.054626 468.442627,293.113190 469.914062,294.478241 
	C469.562042,290.234131 468.789551,286.612061 469.061371,283.070129 
	C469.724609,274.426422 465.383606,270.940186 456.724457,274.864014 
	C459.397919,275.505280 462.071350,276.146576 465.486389,276.965698 
	C463.314667,278.146179 461.553467,278.621246 460.524323,279.758667 
	C458.033936,282.511017 455.268127,285.289551 453.758698,288.582520 
	C451.982513,292.457367 454.342255,294.793640 458.441132,293.713715 
	C460.815826,293.088043 463.038300,291.884613 466.160431,290.996033 
M659.969543,333.585724 
	C659.819702,335.411896 659.771851,337.253632 659.496826,339.060730 
	C659.050232,341.994965 658.647827,345.172913 662.360229,345.940216 
	C666.197754,346.733398 667.828003,343.806152 670.059265,340.347870 
	C667.211670,341.058746 665.534668,341.477386 663.130249,342.077637 
	C663.580566,338.006256 663.953369,334.636108 664.225952,332.171661 
	C667.206421,330.545197 669.426697,329.333618 672.766846,327.510864 
	C669.097534,326.653107 667.013611,326.165955 665.017761,325.699371 
	C665.328674,322.543213 665.626892,319.516266 665.925110,316.489349 
	C662.117676,319.957550 663.740417,327.360352 655.991699,326.782257 
	C657.576660,329.093445 658.807617,330.888458 659.969543,333.585724 
M314.528992,330.506622 
	C315.807678,329.633636 317.086365,328.760681 318.997375,327.456024 
	C315.895264,326.700714 313.717407,326.170441 311.801086,325.703827 
	C311.967407,322.461395 312.116913,319.547302 312.266388,316.633240 
	C308.971558,320.456512 310.282532,327.322021 302.161957,327.149841 
	C307.884247,330.005219 306.925507,334.325653 306.169617,338.605499 
	C306.026031,339.418518 305.736603,340.378082 306.019836,341.060150 
	C306.721863,342.750610 307.393005,345.226532 308.682678,345.686127 
	C310.011536,346.159698 312.157990,344.796844 313.744110,343.885071 
	C314.466156,343.469971 314.700653,342.206696 315.418274,340.823029 
	C313.320648,341.229340 311.967041,341.491547 310.060883,341.860779 
	C310.180206,339.512970 310.152893,337.550385 310.411682,335.626282 
	C310.698639,333.492798 310.168182,330.644165 314.528992,330.506622 
M319.756409,333.178284 
	C319.406738,334.625275 318.425842,336.291412 318.836517,337.474457 
	C319.739960,340.077087 320.839691,343.170380 322.882721,344.579285 
	C323.881958,345.268341 327.850403,343.188446 329.291992,341.405396 
	C333.292847,336.457001 334.382874,330.843445 330.484161,324.891266 
	C324.949493,324.515259 322.411530,328.395538 319.756409,333.178284 
M463.604218,340.180359 
	C464.436279,338.022491 465.977692,335.847931 465.927429,333.710846 
	C465.858978,330.800873 464.575562,327.919495 463.813110,325.025848 
	C461.111664,326.292542 458.120819,327.182526 455.809998,328.957672 
	C454.257690,330.150177 453.427948,332.508118 452.699890,334.499969 
	C451.353271,338.184021 451.264252,341.991699 455.058319,344.248352 
	C458.934631,346.554016 461.028534,343.230591 463.604218,340.180359 
M558.401123,274.941803 
	C553.906738,278.366882 550.953857,282.705261 551.797974,288.535675 
	C552.065735,290.385742 553.600830,292.701813 555.205078,293.499847 
	C556.449219,294.118683 559.027527,293.153412 560.450500,292.118896 
	C565.742798,288.271545 566.646240,281.780579 563.172729,273.659637 
	C561.836365,273.970795 560.428955,274.298492 558.401123,274.941803 
M353.763611,335.219727 
	C352.962433,334.297211 351.964050,333.479950 351.403259,332.429169 
	C350.396057,330.541779 349.651581,328.514160 348.797333,326.545135 
	C346.396271,337.057526 348.861664,344.130554 353.137726,344.745117 
	C355.930725,338.865234 358.632446,333.177490 361.334198,327.489716 
	C361.116241,327.260864 360.898285,327.031982 360.680359,326.803131 
	C358.547180,329.376953 356.414032,331.950745 353.763611,335.219727 
M365.619751,338.343872 
	C365.619751,340.364960 365.619751,342.386047 365.619751,345.341461 
	C371.017731,340.534515 371.984894,332.683289 368.156372,329.489227 
	C367.334198,332.306976 366.560669,334.958008 365.619751,338.343872 
M625.951355,336.864990 
	C625.754028,339.345642 625.556702,341.826263 625.255432,345.612885 
	C630.990967,340.630463 631.992737,332.754272 628.277649,329.537323 
	C627.538879,331.820099 626.841858,333.974030 625.951355,336.864990 
M235.890320,335.968506 
	C235.383347,338.821808 233.378189,341.769226 236.249252,344.559937 
	C240.674988,340.402954 241.615387,332.770233 237.933380,329.622681 
	C237.291962,331.571594 236.690002,333.400665 235.890320,335.968506 
M281.776733,293.541473 
	C281.147888,294.843079 280.519043,296.144684 279.890167,297.446289 
	C282.779388,296.195435 284.964539,294.322540 286.820618,292.166382 
	C286.969025,291.993958 284.846436,289.866577 283.195190,287.980682 
	C282.632812,290.386566 282.342010,291.630615 281.776733,293.541473 
z"/>
<path fill="#0A0A0A" opacity="1.000000" stroke="none" 
	d="
M419.990814,129.952377 
	C425.251526,123.469933 430.243805,117.210579 438.051941,114.215485 
	C439.905884,113.504333 441.791840,112.646690 443.727417,112.429253 
	C447.087738,112.051765 450.660553,112.115585 452.143280,115.989578 
	C453.533051,119.620796 454.501862,123.355820 450.315735,126.225479 
	C449.488983,126.792244 449.233459,128.358078 448.946320,129.520432 
	C446.361938,139.982498 444.480103,150.676147 441.058807,160.853638 
	C438.670715,167.957642 433.655487,173.843094 426.023438,176.554428 
	C421.861755,178.032883 419.077576,176.443802 416.953003,172.731934 
	C408.791595,158.473007 409.732300,143.346497 419.990814,129.952377 
M441.107880,127.317429 
	C437.486084,129.814468 433.393707,131.840683 430.333405,134.899490 
	C422.135254,143.093643 419.649872,153.372757 421.342072,164.637070 
	C421.989685,168.947906 424.351410,169.602982 427.333984,166.424820 
	C437.588013,155.498383 441.371887,142.086105 441.107880,127.317429 
z"/>
<path fill="#0A0A0A" opacity="1.000000" stroke="none" 
	d="
M382.370331,152.406723 
	C380.346405,152.181015 378.350189,152.195847 376.436523,152.600800 
	C371.430756,153.660110 366.512573,155.383743 361.462280,155.910339 
	C356.584930,156.418915 354.723358,153.880219 356.283081,149.009308 
	C357.428467,145.432312 359.427826,142.021667 361.565094,138.890808 
	C366.602844,131.510925 371.939087,124.334274 377.179504,117.093468 
	C378.863861,114.766197 381.493530,113.331398 383.321564,115.889549 
	C384.590912,117.665848 384.915192,121.345482 383.908813,123.247108 
	C382.175232,126.522942 378.925262,128.958450 376.583832,131.959030 
	C372.729614,136.898285 369.092499,142.006973 365.363831,147.044205 
	C365.704834,147.537048 366.045807,148.029877 366.386810,148.522705 
	C370.810913,147.039185 375.141968,145.080292 379.682495,144.191376 
	C385.474365,143.057480 386.192993,138.283737 388.064972,134.228912 
	C390.715424,128.487915 393.188538,122.662743 395.947998,116.975700 
	C396.836761,115.144005 398.390167,113.634804 400.433960,110.924538 
	C405.163879,121.767639 399.387634,130.273926 397.942413,139.412048 
	C401.451874,139.241501 404.994537,139.069336 408.537231,138.897156 
	C408.655579,139.231537 408.773926,139.565918 408.892242,139.900299 
	C405.466858,141.583832 401.860138,142.988266 398.682220,145.052765 
	C396.691956,146.345749 394.536255,148.373718 393.853699,150.517319 
	C391.009399,159.450089 388.695557,168.551743 385.855011,178.788452 
	C381.123566,169.629837 381.008972,161.323807 382.370331,152.406723 
z"/>
<path fill="#0A0A0A" opacity="1.000000" stroke="none" 
	d="
M483.161987,172.794098 
	C482.536224,165.411316 481.984344,158.402496 481.410767,151.118088 
	C476.888733,152.456085 472.077911,154.352707 467.089294,155.189301 
	C463.762390,155.747238 460.182129,154.794830 456.715271,154.518372 
	C457.244537,151.093964 456.791992,147.055161 458.480835,144.356400 
	C464.351532,134.975113 470.953461,126.050575 477.303528,116.970695 
	C479.014008,114.524956 481.677582,113.489799 483.470276,115.973465 
	C484.688843,117.661674 485.061462,121.177063 484.103882,122.955376 
	C482.342621,126.226212 479.197632,128.721527 476.854462,131.716217 
	C472.903534,136.765747 469.128296,141.952698 465.279144,147.081863 
	C465.641205,147.565109 466.003265,148.048355 466.365326,148.531601 
	C472.238251,146.570099 478.371460,145.128662 483.852814,142.384903 
	C485.972656,141.323792 486.678070,137.339966 487.917542,134.637085 
	C490.618561,128.746826 493.151459,122.777115 495.965485,116.942345 
	C496.844849,115.119041 498.404755,113.623978 500.460571,110.914459 
	C505.134186,121.766518 499.406921,130.267181 497.938354,139.410797 
	C501.448029,139.238937 504.988037,139.065598 508.528015,138.892258 
	C508.653961,139.234634 508.779938,139.576996 508.905884,139.919373 
	C505.329956,141.634186 501.610413,143.112366 498.236755,145.160416 
	C496.463837,146.236694 494.615723,148.082077 493.981232,149.975464 
	C491.977997,155.953415 490.576599,162.130737 488.851807,168.205231 
	C487.962830,171.336075 486.881927,174.412460 485.588013,178.448288 
	C484.549103,176.116074 483.892487,174.642075 483.161987,172.794098 
z"/>
<path fill="#202020" opacity="1.000000" stroke="none" 
	d="
M513.010437,292.031555 
	C511.145752,292.690979 509.327087,293.681793 507.407837,293.948090 
	C501.479919,294.770599 498.863068,292.239838 498.604279,285.802063 
	C491.673828,284.832520 486.625702,288.555542 485.837708,295.216003 
	C485.681152,296.539398 485.557434,297.868042 485.353882,299.184265 
	C484.111542,307.216675 478.700684,310.755066 470.175293,308.985016 
	C470.264984,300.730042 477.656036,296.450165 481.407227,290.193939 
	C480.359955,289.659576 480.079529,289.435120 479.765839,289.369385 
	C477.375885,288.868256 474.979462,288.398132 472.585052,287.918335 
	C473.594543,285.428833 474.592346,282.934479 475.629639,280.456573 
	C475.748322,280.173035 476.046112,279.876404 476.331146,279.763977 
	C479.460358,278.530182 482.606201,276.518982 485.741547,276.529327 
	C486.971710,276.533386 488.186859,281.086060 489.428497,283.607117 
	C492.139465,283.607117 495.378540,283.607117 498.094116,283.607117 
	C501.488190,280.556885 504.560333,276.651611 508.571198,274.480621 
	C513.604248,271.756287 517.414551,275.262085 516.437988,280.915222 
	C515.859375,284.264862 510.501556,285.906464 506.462646,283.916351 
	C505.772369,283.576233 505.225708,282.944672 503.536041,281.574982 
	C503.150024,284.881073 502.123413,287.597046 502.899109,289.623016 
	C503.280457,290.619080 506.993286,290.422302 509.211761,290.594025 
	C510.178680,290.668884 511.178894,290.313385 512.584900,290.507019 
	C513.007324,291.250977 513.008911,291.641266 513.010437,292.031555 
M477.788940,306.142487 
	C479.711975,302.853119 481.635010,299.563751 483.558044,296.274384 
	C482.872925,295.841278 482.187775,295.408203 481.502655,294.975098 
	C478.879883,298.435577 476.257080,301.896057 472.909851,306.312378 
	C475.295593,306.312378 476.191528,306.312378 477.788940,306.142487 
M476.663330,286.530731 
	C482.410889,286.312469 484.582764,284.216339 483.980652,277.672852 
	C481.068939,280.901001 478.886322,283.320801 476.663330,286.530731 
M481.000000,289.500000 
	C481.200012,289.633331 481.399994,289.766663 481.600037,289.899994 
	C481.566681,289.600006 481.533356,289.299988 481.000000,289.500000 
z"/>
<path fill="#202020" opacity="1.000000" stroke="none" 
	d="
M274.246826,342.829132 
	C275.445374,339.130951 273.268616,340.667633 271.777405,340.532959 
	C269.817200,340.355927 267.270142,340.144043 266.201935,338.896790 
	C265.478271,338.051788 266.622833,335.290802 267.386353,333.590881 
	C267.969604,332.292328 269.053192,330.838348 270.286560,330.288147 
	C273.181213,328.996826 276.407898,327.281006 279.278961,327.618591 
	C280.632782,327.777802 281.477539,332.266357 282.608521,334.923798 
	C284.711914,334.676727 287.770599,334.317505 290.829285,333.958252 
	C290.908966,334.525940 290.988647,335.093597 291.068329,335.661285 
	C289.597717,336.143188 288.120300,336.605377 286.657745,337.110596 
	C281.818359,338.782166 279.215668,341.705322 278.925751,347.294067 
	C278.376312,357.885681 274.637909,360.830688 263.529419,360.323181 
	C263.920258,352.661652 269.035095,347.988068 274.246826,342.829132 
M271.506409,357.033783 
	C273.260345,353.744507 275.014313,350.455231 276.768250,347.165955 
	C276.107941,346.767395 275.447601,346.368835 274.787292,345.970245 
	C272.188751,349.448364 269.590210,352.926483 266.991669,356.404633 
	C267.319275,356.748505 267.646912,357.092377 267.974518,357.436279 
	C268.907501,357.364807 269.840485,357.293335 271.506409,357.033783 
M272.816833,337.432495 
	C275.850281,336.017212 278.611145,334.427338 277.342712,328.848114 
	C274.569458,331.661224 272.463043,333.774567 270.459839,335.981537 
	C270.415405,336.030518 271.546967,337.146881 272.816833,337.432495 
z"/>
<path fill="#313131" opacity="1.000000" stroke="none" 
	d="
M547.937744,287.389465 
	C544.449951,289.128204 543.157898,291.825043 541.903320,295.127106 
	C540.187439,299.643127 537.359253,303.775208 534.669495,307.848450 
	C534.158020,308.623077 532.073425,308.358887 530.714661,308.574005 
	C530.588867,307.338257 530.014771,305.923126 530.423645,304.901337 
	C531.525696,302.147247 533.024658,299.549194 534.411621,296.913177 
	C535.049561,295.700806 535.794128,294.544525 537.070312,292.378387 
	C531.311890,293.582489 528.998352,292.002045 529.824219,286.998779 
	C531.053772,279.550690 533.429016,275.951477 537.242188,276.640961 
	C536.129822,280.515320 535.021606,284.375183 533.727539,288.882355 
	C542.204590,287.463470 540.545227,277.665466 547.963440,274.417908 
	C546.351746,279.176971 545.214355,282.535461 543.884766,286.461456 
	C545.768982,286.320984 547.123596,286.214661 548.479797,286.134949 
	C548.545349,286.131073 548.714478,286.401306 548.681458,286.473969 
	C548.563354,286.734039 548.378967,286.963989 547.937744,287.389465 
M536.013062,292.551453 
	C536.242249,292.632446 536.471497,292.713470 536.700684,292.794464 
	C536.629883,292.569489 536.559143,292.344543 536.013062,292.551453 
z"/>
<path fill="#222222" opacity="1.000000" stroke="none" 
	d="
M230.658066,274.853882 
	C235.143372,276.322357 240.775436,273.276184 242.957062,278.674011 
	C246.414871,277.283752 249.498581,275.789154 252.746658,274.885071 
	C253.791428,274.594299 255.269485,275.860291 256.549316,276.414032 
	C255.953873,277.706879 255.358429,278.999756 254.369110,281.147766 
	C253.180984,279.151642 252.601715,278.178467 251.199005,275.821808 
	C248.071823,279.771912 245.381912,282.946838 242.974243,286.323029 
	C242.040405,287.632507 241.987946,289.562012 241.079742,290.901001 
	C240.382233,291.929321 238.972839,292.474823 237.880035,293.235046 
	C237.383026,291.948425 236.345032,290.593994 236.496140,289.388611 
	C236.865662,286.440826 237.881989,283.580048 238.428574,280.645264 
	C238.613754,279.651123 238.170761,278.540009 237.924759,276.871399 
	C236.186768,278.229095 234.979630,279.172119 233.273270,280.505096 
	C232.803192,275.950867 230.201447,276.706146 228.549667,278.680084 
	C225.738831,282.039185 223.675125,286.012512 221.104797,289.589264 
	C220.103455,290.982758 218.580383,292.001312 217.294952,293.190613 
	C216.981689,291.417542 216.252167,289.599548 216.437653,287.880310 
	C216.891281,283.675751 217.767883,279.516876 218.816467,273.315643 
	C220.421539,275.727020 221.462250,277.290527 222.627487,279.041138 
	C225.156311,277.667786 227.711349,276.280243 230.658066,274.853882 
z"/>
<path fill="#202020" opacity="1.000000" stroke="none" 
	d="
M444.947327,315.819946 
	C448.964417,316.671387 449.598389,319.257660 449.116608,322.503357 
	C448.044342,329.727051 446.992798,336.953827 444.929413,345.799774 
	C444.034210,344.172272 443.139008,342.544800 442.266937,340.959412 
	C439.879395,342.164886 437.603210,343.454041 435.215973,344.486328 
	C431.722412,345.996979 429.561096,344.233276 430.447632,340.967285 
	C431.582397,336.786682 433.393066,332.476685 436.075928,329.164978 
	C437.362000,327.577454 441.323486,328.157318 445.481720,327.549805 
	C445.226257,324.238068 444.903290,320.051758 444.947327,315.819946 
M439.516510,330.456299 
	C435.489105,332.730164 434.525208,336.518433 434.068787,340.557526 
	C434.448181,340.957855 434.827576,341.358185 435.206970,341.758514 
	C438.361359,339.369141 441.515778,336.979767 445.231750,334.165009 
	C442.904083,332.543610 441.586029,331.625488 439.516510,330.456299 
z"/>
<path fill="#282828" opacity="1.000000" stroke="none" 
	d="
M402.549011,291.009552 
	C401.472534,292.085602 400.030182,294.241211 399.391785,294.024811 
	C397.806244,293.487427 396.231567,292.089325 395.318481,290.622406 
	C394.342987,289.055145 394.130859,287.012756 393.529419,284.989166 
	C387.999939,285.769958 387.636841,290.466919 385.939941,293.539764 
	C383.156860,295.175720 384.392059,287.540161 380.183716,291.607635 
	C379.260254,291.256104 378.864441,290.987701 378.468628,290.719299 
	C380.117706,290.196655 381.766815,289.673981 384.029236,288.956909 
	C383.130859,281.425995 390.010773,274.163208 385.731598,265.917816 
	C389.293396,265.177216 391.398773,266.756866 391.010345,270.930695 
	C390.712952,274.126465 389.814026,277.266235 389.150360,280.592804 
	C396.695923,279.491974 396.555359,279.531464 398.632721,286.922516 
	C399.170074,288.834381 400.890045,290.413910 402.360474,291.660400 
	C402.654144,291.174683 402.549011,291.009552 402.549011,291.009552 
z"/>
<path fill="#1B1B1B" opacity="1.000000" stroke="none" 
	d="
M197.044250,286.050903 
	C194.157913,291.034729 190.256317,294.536102 184.115799,293.004700 
	C181.548233,292.364319 179.319916,290.363770 176.937363,288.981659 
	C177.172958,288.633698 177.408569,288.285736 177.644165,287.937775 
	C181.235367,287.937775 184.913452,288.396027 188.380005,287.738708 
	C190.040085,287.423920 191.299500,284.996094 192.740372,283.525269 
	C191.161179,282.506378 189.673553,281.281433 187.976654,280.527435 
	C186.329742,279.795624 184.420334,279.679230 182.709747,279.061279 
	C178.068573,277.384644 177.538757,274.206207 181.263992,270.872833 
	C185.822601,266.793762 191.111725,266.834778 195.705933,271.393372 
	C191.979568,274.784454 185.077103,267.623993 182.710358,276.019135 
	C185.608063,276.977173 188.644119,277.922760 191.638077,278.986816 
	C194.732391,280.086487 197.638657,281.422119 197.080368,285.981720 
	C197.090210,286.386292 197.044250,286.050903 197.044250,286.050903 
z"/>
<path fill="#222222" opacity="1.000000" stroke="none" 
	d="
M489.055725,343.764771 
	C487.382904,343.453583 485.719574,343.015839 484.032898,342.888977 
	C483.280945,342.832397 482.474762,343.383362 481.705475,343.689392 
	C477.319824,345.434052 472.371307,346.550232 469.346191,342.373352 
	C466.319122,338.193756 469.141846,333.782593 471.901520,330.134918 
	C473.070984,328.589142 474.613556,326.803741 476.326721,326.311676 
	C478.999908,325.543854 482.552307,324.769897 484.594574,325.956451 
	C485.945129,326.741150 486.481079,332.041809 485.261932,333.359650 
	C483.682190,335.067291 480.013092,335.005768 477.200531,335.314850 
	C476.295319,335.414276 475.254120,334.276794 473.400513,333.194489 
	C472.897980,335.851227 471.617737,338.470398 472.350494,340.269836 
	C472.805237,341.386444 476.306549,341.573975 478.451904,341.617920 
	C481.715424,341.684723 484.988953,341.265106 488.641785,341.371460 
	C489.035492,342.382172 489.045624,343.073456 489.055725,343.764771 
z"/>
<path fill="#313131" opacity="1.000000" stroke="none" 
	d="
M264.879578,287.629303 
	C266.601624,284.441925 268.230865,281.198914 270.091614,278.094696 
	C270.830902,276.861420 272.083160,275.935669 273.101868,274.869873 
	C273.503265,275.179443 273.904663,275.488983 274.306061,275.798553 
	C273.190155,279.157166 272.074219,282.515778 270.825195,286.274994 
	C272.609070,286.274994 273.933075,286.274994 275.670654,286.274994 
	C275.200775,286.824310 275.002319,287.253143 274.673981,287.409851 
	C271.271942,289.033752 269.964050,291.911011 268.682617,295.364899 
	C267.062225,299.732544 264.337189,303.732483 261.744629,307.664215 
	C261.180511,308.519775 259.159271,308.414520 257.809113,308.751801 
	C257.616241,307.400360 256.875732,305.819275 257.328888,304.738739 
	C258.960876,300.847046 260.995392,297.124115 262.448303,293.158813 
	C262.018738,292.980225 261.970978,292.959747 262.199066,293.363953 
	C262.615631,293.074829 262.804108,292.381470 263.071289,291.363708 
	C263.726532,289.902618 264.303040,288.765961 264.879578,287.629303 
z"/>
<path fill="#333333" opacity="1.000000" stroke="none" 
	d="
M219.774323,339.875366 
	C222.045700,336.252319 224.257599,332.589752 226.622116,329.028503 
	C227.405502,327.848633 228.581741,326.929596 229.578400,325.891296 
	C229.975967,326.219940 230.373520,326.548553 230.771088,326.877197 
	C229.659073,330.254639 228.547043,333.632080 227.263260,337.531250 
	C229.033005,337.381226 230.327454,337.271515 231.688980,337.156097 
	C231.568283,337.647400 231.585266,338.094330 231.419327,338.177887 
	C227.727173,340.036774 226.333603,343.262329 224.960861,347.034576 
	C223.425385,351.253937 220.645264,355.068604 218.057297,358.818146 
	C217.503189,359.621002 215.449127,359.388550 214.086044,359.633026 
	C213.955597,358.394745 213.344574,356.942322 213.783356,355.957733 
	C215.190582,352.800171 216.998123,349.822021 218.627121,346.761841 
	C219.523697,345.077576 220.372009,343.367645 220.789093,341.269440 
	C220.148849,340.538177 219.961578,340.206787 219.774323,339.875366 
z"/>
<path fill="#282828" opacity="1.000000" stroke="none" 
	d="
M309.479126,273.826416 
	C309.329987,275.378693 309.257111,276.480286 309.194214,277.430573 
	C309.859619,277.717133 310.135834,277.910370 310.433441,277.952576 
	C312.999878,278.316498 315.570190,278.653229 318.139343,278.998047 
	C317.547485,282.476410 317.778229,286.409088 316.167816,289.324921 
	C313.847107,293.526855 309.256653,294.489929 303.841675,294.172272 
	C304.584595,284.726776 305.298004,275.656281 306.037323,266.256165 
	C309.396454,265.602539 310.125519,266.648621 309.479126,273.826416 
M308.237366,285.026947 
	C307.707855,287.188110 307.178345,289.349274 306.503906,292.101959 
	C313.873383,288.968872 315.375854,286.806763 314.885803,280.000092 
	C312.619171,281.748901 310.763092,283.180939 308.237366,285.026947 
z"/>
<path fill="#232323" opacity="1.000000" stroke="none" 
	d="
M261.737549,338.784668 
	C262.645020,340.634583 263.561096,342.089447 264.937866,344.276001 
	C254.083740,344.018951 260.181061,334.945496 257.295868,330.830475 
	C250.296356,332.596100 249.749084,340.438110 245.005325,344.309967 
	C242.276917,340.431274 242.464767,339.623016 249.255676,325.429047 
	C250.132874,327.068024 250.813309,328.339325 251.576706,329.765656 
	C252.800507,328.900665 253.941910,327.930420 255.226135,327.217468 
	C258.804993,325.230530 262.385529,327.317108 262.377563,331.454956 
	C262.373108,333.766907 261.969727,336.078094 261.737549,338.784668 
z"/>
<path fill="#232323" opacity="1.000000" stroke="none" 
	d="
M451.138000,278.626892 
	C448.545868,282.167603 446.533813,286.102936 443.336700,288.358368 
	C439.302551,291.204285 436.933228,294.252289 436.753906,299.183136 
	C436.687042,301.021362 435.893097,302.833191 435.430664,304.657043 
	C434.779480,304.568604 434.128296,304.480164 433.477112,304.391754 
	C434.459412,294.610168 435.441681,284.828583 436.394775,275.337799 
	C439.105743,274.893921 442.243347,274.306335 445.402985,273.883118 
	C448.712067,273.439911 451.582703,273.757904 451.138000,278.626892 
M444.946991,283.342102 
	C446.150055,281.313416 447.353149,279.284729 449.042175,276.436615 
	C441.643738,277.692780 440.606903,279.073517 439.329803,288.129791 
	C441.282806,286.476288 442.849670,285.149719 444.946991,283.342102 
z"/>
<path fill="#1B1B1B" opacity="1.000000" stroke="none" 
	d="
M402.938141,291.216614 
	C402.549011,291.009552 402.654144,291.174683 402.690125,291.204529 
	C402.273773,283.718079 405.001984,277.853424 411.987518,274.602844 
	C417.454407,272.058868 420.881378,274.543945 420.466309,280.320953 
	C420.150787,284.712097 416.911438,284.615540 413.927399,284.470520 
	C412.079163,284.380676 410.267365,283.541718 407.569916,282.800018 
	C407.165314,284.887360 405.855865,287.525757 406.597687,289.312561 
	C407.065643,290.439636 410.600311,290.628815 412.760284,290.632141 
	C415.388550,290.636169 418.017761,290.002686 420.677368,289.640747 
	C415.459259,294.715424 409.197754,295.350189 402.938141,291.216614 
z"/>
<path fill="#202020" opacity="1.000000" stroke="none" 
	d="
M665.879272,289.373596 
	C666.318909,281.178314 671.568359,274.528015 677.731079,273.838440 
	C681.335632,273.435150 683.335144,274.513641 683.606567,278.549530 
	C683.856750,282.270050 682.733459,284.485352 678.875793,284.471497 
	C676.517029,284.463043 674.160339,283.902679 670.693481,283.443146 
	C670.391235,284.978760 669.278809,287.386597 669.813110,289.345306 
	C670.063538,290.263306 673.482544,290.628723 675.479431,290.677765 
	C677.845764,290.735901 680.227173,290.183075 683.317200,289.808319 
	C676.394714,295.565613 669.445374,295.309479 665.879272,289.373596 
z"/>
<path fill="#202020" opacity="1.000000" stroke="none" 
	d="
M544.024841,343.026703 
	C539.130188,345.216309 536.820923,343.840973 536.719482,338.631348 
	C536.670105,336.097198 536.710999,333.561279 536.710999,330.640839 
	C528.818909,332.593994 528.507629,340.624695 522.778320,344.764557 
	C520.602722,336.993561 526.068420,331.948120 528.408630,325.865662 
	C528.967163,327.095917 529.525757,328.326202 530.175110,329.756378 
	C531.019287,329.180573 531.626160,328.500641 532.357056,328.318604 
	C534.442017,327.799347 537.326843,326.468231 538.506042,327.339355 
	C540.030762,328.465790 540.405579,331.371613 540.890137,333.595215 
	C541.156677,334.818451 540.219055,336.334381 540.559570,337.504333 
	C541.107849,339.387726 542.264404,341.094116 543.599792,343.012451 
	C544.035645,343.149628 544.024841,343.026703 544.024841,343.026703 
z"/>
<path fill="#1B1B1B" opacity="1.000000" stroke="none" 
	d="
M604.053528,342.138611 
	C602.890869,342.713623 601.764160,343.381683 600.559082,343.846802 
	C596.321228,345.482391 591.547180,346.377625 588.686951,342.355438 
	C585.857666,338.376801 588.339417,334.046814 590.960083,330.505371 
	C592.209167,328.817474 593.851807,326.886108 595.704163,326.307709 
	C598.330078,325.487793 601.741272,324.927826 603.977600,326.002838 
	C605.221436,326.600677 605.920837,331.843475 604.796814,333.025177 
	C603.142944,334.764099 599.672363,334.973114 596.909302,335.356537 
	C595.878906,335.499542 594.662292,334.300751 592.676086,333.270599 
	C592.166077,335.882996 590.859131,338.510712 591.593079,340.302307 
	C592.053040,341.425018 595.568115,341.516174 597.738220,341.649689 
	C599.521912,341.759399 601.343750,341.249573 603.588928,341.319458 
	C604.037354,341.795959 604.045471,341.967285 604.053528,342.138611 
z"/>
<path fill="#1B1B1B" opacity="1.000000" stroke="none" 
	d="
M642.053589,291.138550 
	C640.890930,291.713531 639.764160,292.381622 638.559082,292.846710 
	C634.321228,294.482422 629.547241,295.377594 626.686951,291.355499 
	C623.857605,287.376831 626.339478,283.046844 628.960083,279.505402 
	C630.209106,277.817505 631.851807,275.886017 633.704163,275.307709 
	C636.330078,274.487793 639.741272,273.927948 641.977600,275.002930 
	C643.221375,275.600769 643.920776,280.843536 642.796814,282.025269 
	C641.142944,283.764160 637.672180,283.972565 634.909180,284.356659 
	C633.880310,284.499664 632.665039,283.302185 630.676086,282.270630 
	C630.166138,284.883057 628.859436,287.510559 629.593262,289.302429 
	C630.052979,290.424927 633.568176,290.516205 635.738281,290.649689 
	C637.521973,290.759430 639.343872,290.249603 641.588989,290.319458 
	C642.037292,290.795929 642.045471,290.967255 642.053589,291.138550 
z"/>
<path fill="#202020" opacity="1.000000" stroke="none" 
	d="
M390.393494,334.656769 
	C386.788544,334.862823 383.497955,334.862823 378.972290,334.862823 
	C378.759552,335.893402 377.656555,338.279694 378.132019,340.293243 
	C378.341492,341.180359 381.740936,341.419495 383.725891,341.749817 
	C385.416687,342.031250 387.155914,342.021851 388.966217,342.147491 
	C388.761902,342.680573 388.747345,342.918915 388.636902,342.977997 
	C383.400391,345.779297 376.865814,346.065857 375.519073,342.665649 
	C374.381439,339.793396 374.957489,335.569305 376.231262,332.559875 
	C378.634277,326.882568 384.514343,323.855316 388.888489,324.914703 
	C392.139832,325.702148 392.929901,329.843109 390.393494,334.656769 
z"/>
<path fill="#1B1B1B" opacity="1.000000" stroke="none" 
	d="
M636.192139,340.791687 
	C640.787659,340.629883 645.016418,340.374573 649.245117,340.119263 
	C649.227844,339.541138 649.210571,338.962982 649.193298,338.384827 
	C646.382690,337.689453 643.307434,337.479370 640.849121,336.138306 
	C639.030029,335.145966 636.763062,332.520844 636.969482,330.915558 
	C637.205994,329.076508 639.680237,326.704956 641.665466,326.065979 
	C647.456970,324.201904 650.406006,325.545105 653.258179,330.868591 
	C651.514709,330.739014 650.220215,330.807709 649.027893,330.491486 
	C648.328430,330.305969 647.745789,329.017517 647.189331,329.069397 
	C644.732544,329.298462 642.304443,329.834076 639.865906,330.258636 
	C641.562317,331.740997 643.060242,333.619781 645.010193,334.595642 
	C647.008484,335.595673 649.631714,335.331543 651.654419,336.302094 
	C654.904968,337.861755 655.024170,341.664856 651.687439,342.623169 
	C646.846436,344.013611 641.669800,344.324432 636.607544,344.769470 
	C635.752563,344.844604 634.753296,343.278229 633.820679,342.470276 
	C634.488892,341.879578 635.157104,341.288879 636.192139,340.791687 
z"/>
<path fill="#202020" opacity="1.000000" stroke="none" 
	d="
M465.744873,290.968628 
	C463.038300,291.884613 460.815826,293.088043 458.441132,293.713715 
	C454.342255,294.793640 451.982513,292.457367 453.758698,288.582520 
	C455.268127,285.289551 458.033936,282.511017 460.524323,279.758667 
	C461.553467,278.621246 463.314667,278.146179 465.486389,276.965698 
	C462.071350,276.146576 459.397919,275.505280 456.724457,274.864014 
	C465.383606,270.940186 469.724609,274.426422 469.061371,283.070129 
	C468.789551,286.612061 469.562042,290.234131 469.914062,294.478241 
	C468.442627,293.113190 467.301544,292.054626 465.744873,290.968628 
M457.754669,288.937286 
	C459.944031,288.721375 462.431335,289.054413 464.213074,288.087463 
	C465.314423,287.489746 465.342194,284.913788 465.851929,283.225891 
	C465.240936,282.904266 464.629944,282.582611 464.018951,282.260956 
	C462.010468,284.226288 460.001984,286.191620 457.754669,288.937286 
z"/>
<path fill="#1B1B1B" opacity="1.000000" stroke="none" 
	d="
M489.382324,344.024353 
	C489.045624,343.073456 489.035492,342.382172 489.012695,341.345367 
	C493.809021,340.767883 498.618011,340.535889 503.427032,340.303894 
	C503.487793,339.647675 503.548523,338.991425 503.609283,338.335175 
	C501.690582,337.911774 499.762787,337.525299 497.855194,337.056671 
	C494.609070,336.259125 490.749908,335.649750 491.002319,331.280701 
	C491.251740,326.963806 494.657837,325.947479 498.518890,325.697632 
	C502.390442,325.447083 505.831329,325.527863 507.508392,331.020203 
	C505.708130,330.787079 504.399475,330.785126 503.210022,330.407623 
	C502.348663,330.134216 501.578217,328.825409 500.884003,328.912231 
	C498.626190,329.194550 496.422028,329.906067 494.197235,330.452393 
	C495.814240,331.852783 497.238678,333.656952 499.100159,334.544678 
	C501.129822,335.512604 503.692871,335.335449 505.771667,336.237518 
	C506.903046,336.728485 508.177399,338.428253 508.168518,339.573395 
	C508.159790,340.705353 506.735077,342.667908 505.726746,342.809631 
	C500.423187,343.555237 495.054810,343.839539 489.382324,344.024353 
z"/>
<path fill="#232323" opacity="1.000000" stroke="none" 
	d="
M560.139404,328.046631 
	C560.250854,327.923584 560.343994,327.718872 560.476379,327.689178 
	C566.405151,326.359375 567.714844,321.351074 568.862732,316.212006 
	C569.280151,316.342133 569.697571,316.472260 570.114990,316.602356 
	C569.967651,319.516693 569.820374,322.431030 569.656738,325.668121 
	C571.539001,326.156555 573.702698,326.718018 577.362488,327.667694 
	C573.881714,329.398712 571.516968,330.574738 568.639099,332.005920 
	C568.401245,334.756866 568.121216,337.995331 567.781982,341.919006 
	C570.236511,341.397858 572.004578,341.022461 574.828491,340.422913 
	C572.988586,342.454132 571.971313,343.973724 570.593628,345.017914 
	C567.428406,347.416992 564.206116,345.983185 563.893494,342.073151 
	C563.749329,340.270233 563.746887,338.349457 564.212646,336.626007 
	C565.250977,332.783691 564.324951,329.909790 560.461853,327.982910 
	C560.088562,328.039978 560.139404,328.046631 560.139404,328.046631 
z"/>
<path fill="#282828" opacity="1.000000" stroke="none" 
	d="
M660.004028,333.134583 
	C658.807617,330.888458 657.576660,329.093445 655.991699,326.782257 
	C663.740417,327.360352 662.117676,319.957550 665.925110,316.489349 
	C665.626892,319.516266 665.328674,322.543213 665.017761,325.699371 
	C667.013611,326.165955 669.097534,326.653107 672.766846,327.510864 
	C669.426697,329.333618 667.206421,330.545197 664.225952,332.171661 
	C663.953369,334.636108 663.580566,338.006256 663.130249,342.077637 
	C665.534668,341.477386 667.211670,341.058746 670.059265,340.347870 
	C667.828003,343.806152 666.197754,346.733398 662.360229,345.940216 
	C658.647827,345.172913 659.050232,341.994965 659.496826,339.060730 
	C659.771851,337.253632 659.819702,335.411896 660.004028,333.134583 
z"/>
<path fill="#222222" opacity="1.000000" stroke="none" 
	d="
M314.152161,330.621948 
	C310.168182,330.644165 310.698639,333.492798 310.411682,335.626282 
	C310.152893,337.550385 310.180206,339.512970 310.060883,341.860779 
	C311.967041,341.491547 313.320648,341.229340 315.418274,340.823029 
	C314.700653,342.206696 314.466156,343.469971 313.744110,343.885071 
	C312.157990,344.796844 310.011536,346.159698 308.682678,345.686127 
	C307.393005,345.226532 306.721863,342.750610 306.019836,341.060150 
	C305.736603,340.378082 306.026031,339.418518 306.169617,338.605499 
	C306.925507,334.325653 307.884247,330.005219 302.161957,327.149841 
	C310.282532,327.322021 308.971558,320.456512 312.266388,316.633240 
	C312.116913,319.547302 311.967407,322.461395 311.801086,325.703827 
	C313.717407,326.170441 315.895264,326.700714 318.997375,327.456024 
	C317.086365,328.760681 315.807678,329.633636 314.152161,330.621948 
z"/>
<path fill="#202020" opacity="1.000000" stroke="none" 
	d="
M378.062164,290.754333 
	C378.864441,290.987701 379.260254,291.256104 379.845703,291.831726 
	C377.939880,293.039551 375.844452,293.940094 373.749023,294.840668 
	C373.055664,292.789398 371.826935,290.750488 371.779327,288.684357 
	C371.677399,284.261475 373.955933,279.369324 368.352478,276.781982 
	C370.542725,275.217529 372.822205,274.163605 374.240234,272.412170 
	C375.610535,270.719666 376.093048,268.308441 377.775360,266.510651 
	C377.494141,269.134796 377.212952,271.758942 376.915009,274.539246 
	C379.310120,275.186310 381.441681,275.762177 385.085022,276.746460 
	C381.433044,278.480499 379.005585,279.633118 376.349854,280.894104 
	C376.093292,283.194885 375.621704,285.836578 375.614502,288.479553 
	C375.612396,289.247589 376.938477,290.019318 378.062164,290.754333 
z"/>
<path fill="#202020" opacity="1.000000" stroke="none" 
	d="
M190.334839,342.040588 
	C189.150391,343.185913 188.115356,344.568726 186.750565,345.427429 
	C183.870117,347.239655 181.065475,345.810028 180.629013,342.416199 
	C180.483917,341.287903 180.700867,340.113159 180.751297,338.959595 
	C180.937119,334.709717 182.997452,329.939453 176.575943,327.072662 
	C185.071274,328.224640 182.438858,319.541046 186.783264,317.451050 
	C186.499390,320.096100 186.215240,322.744293 185.906235,325.624146 
	C187.900360,326.091003 189.613983,326.492218 191.871307,327.285248 
	C190.158127,329.126892 187.901245,330.576691 185.115875,332.365997 
	C184.907669,335.047180 184.648392,338.385864 184.412003,341.430023 
	C186.874741,341.683899 188.604782,341.862244 190.334839,342.040588 
z"/>
<path fill="#232323" opacity="1.000000" stroke="none" 
	d="
M544.422607,342.773865 
	C544.024841,343.026703 544.035645,343.149628 544.016846,343.193542 
	C544.248779,341.809845 544.746338,340.375854 544.709229,338.955780 
	C544.512085,331.403442 549.977112,324.992828 556.193420,325.107544 
	C557.466187,326.510193 558.528625,327.681061 559.865234,328.449280 
	C560.139404,328.046631 560.088562,328.039978 560.079102,328.020203 
	C559.686096,329.075439 559.236816,330.132233 558.932190,331.229187 
	C558.195251,333.882660 557.940002,336.758850 556.747925,339.179474 
	C553.722839,345.322174 550.648804,346.042053 544.422607,342.773865 
M551.603149,341.086609 
	C554.442627,337.651276 556.208618,333.935760 554.861023,329.293182 
	C550.271790,330.772095 547.827148,334.140442 548.495850,338.507355 
	C548.668274,339.633423 550.149719,340.559052 551.603149,341.086609 
z"/>
<path fill="#202020" opacity="1.000000" stroke="none" 
	d="
M642.474365,291.035828 
	C642.045471,290.967255 642.037292,290.795929 642.028442,290.367310 
	C646.362366,289.924042 646.677185,286.564423 647.112549,283.466644 
	C647.493408,280.757172 647.573120,278.005310 649.032349,274.075500 
	C650.085205,275.828064 651.138000,277.580658 651.882324,278.819672 
	C655.467773,277.344116 658.532715,275.772522 661.785706,274.912567 
	C662.922302,274.612091 664.522522,276.065369 665.911011,276.717773 
	C665.113892,277.947510 664.316833,279.177277 662.784180,281.541779 
	C662.398804,279.152496 662.257629,278.277283 662.053650,277.012848 
	C656.799316,278.416656 654.000549,281.917419 652.064087,286.305695 
	C651.326477,287.977325 650.935059,289.816650 650.085205,291.420227 
	C648.944824,293.572083 647.526611,294.462494 645.647766,291.862061 
	C645.186035,291.223083 643.836548,291.225525 642.474365,291.035828 
z"/>
<path fill="#232323" opacity="1.000000" stroke="none" 
	d="
M319.889343,332.832916 
	C322.411530,328.395538 324.949493,324.515259 330.484161,324.891266 
	C334.382874,330.843445 333.292847,336.457001 329.291992,341.405396 
	C327.850403,343.188446 323.881958,345.268341 322.882721,344.579285 
	C320.839691,343.170380 319.739960,340.077087 318.836517,337.474457 
	C318.425842,336.291412 319.406738,334.625275 319.889343,332.832916 
M328.023590,329.218201 
	C322.190338,332.526764 320.757172,337.238525 324.518250,342.184875 
	C327.962769,338.470428 330.424652,334.685974 328.023590,329.218201 
z"/>
<path fill="#232323" opacity="1.000000" stroke="none" 
	d="
M197.539581,286.138245 
	C197.044250,286.050903 197.090210,286.386292 197.041367,286.401428 
	C197.976974,285.273804 199.268967,284.276520 199.890793,282.962158 
	C202.158051,278.169861 204.691895,273.868103 210.824265,273.812103 
	C214.322876,281.041351 213.539673,287.481171 208.741013,291.767731 
	C204.626923,295.442780 201.279572,294.559845 199.387741,289.328583 
	C199.004807,288.269653 198.489319,287.258667 197.539581,286.138245 
M205.784073,290.409241 
	C208.840271,286.927887 210.758270,283.122162 208.679367,277.855927 
	C206.436066,279.828796 204.133499,281.982513 203.316498,284.599945 
	C202.787033,286.296204 204.427521,288.669769 205.784073,290.409241 
z"/>
<path fill="#232323" opacity="1.000000" stroke="none" 
	d="
M463.416504,340.490417 
	C461.028534,343.230591 458.934631,346.554016 455.058319,344.248352 
	C451.264252,341.991699 451.353271,338.184021 452.699890,334.499969 
	C453.427948,332.508118 454.257690,330.150177 455.809998,328.957672 
	C458.120819,327.182526 461.111664,326.292542 463.813110,325.025848 
	C464.575562,327.919495 465.858978,330.800873 465.927429,333.710846 
	C465.977692,335.847931 464.436279,338.022491 463.416504,340.490417 
M455.772888,337.505463 
	C456.067596,338.974274 456.362305,340.443085 456.725220,342.251770 
	C462.036163,338.415375 463.501617,334.297516 461.800659,329.087219 
	C457.932495,330.190125 456.377106,333.048676 455.772888,337.505463 
z"/>
<path fill="#202020" opacity="1.000000" stroke="none" 
	d="
M604.457031,342.037659 
	C604.045471,341.967285 604.037354,341.795959 604.028442,341.367310 
	C609.468689,341.268188 609.465820,335.582642 613.100647,333.303436 
	C611.090088,330.877045 609.362976,328.792725 607.635925,326.708405 
	C607.916077,326.309570 608.196228,325.910706 608.476379,325.511871 
	C610.792053,326.946533 613.107666,328.381195 615.676758,329.972900 
	C617.452576,328.533691 619.335632,327.007538 621.758118,325.044281 
	C621.860840,326.519379 622.294617,327.913422 621.925354,328.175415 
	C616.948059,331.706757 618.982971,336.069672 620.287170,340.375641 
	C620.613281,341.452148 620.868896,342.550018 620.965332,342.914093 
	C619.489258,341.215820 617.511597,338.940460 614.980103,336.027893 
	C612.822571,338.519470 610.577759,341.111847 608.348389,343.686401 
	C607.672974,342.360840 608.166016,338.469879 604.457031,342.037659 
z"/>
<path fill="#222222" opacity="1.000000" stroke="none" 
	d="
M558.711304,274.783997 
	C560.428955,274.298492 561.836365,273.970795 563.172729,273.659637 
	C566.646240,281.780579 565.742798,288.271545 560.450500,292.118896 
	C559.027527,293.153412 556.449219,294.118683 555.205078,293.499847 
	C553.600830,292.701813 552.065735,290.385742 551.797974,288.535675 
	C550.953857,282.705261 553.906738,278.366882 558.711304,274.783997 
M562.154297,282.309296 
	C562.043457,280.945984 561.932617,279.582642 561.808289,278.053864 
	C555.200623,280.813232 553.375854,286.349579 557.844971,291.584320 
	C559.360535,288.515839 560.695496,285.813049 562.154297,282.309296 
z"/>
<path fill="#202020" opacity="1.000000" stroke="none" 
	d="
M195.035675,326.015411 
	C196.688004,327.203796 198.340347,328.392212 199.868622,329.491364 
	C202.770187,328.310181 205.810135,326.710480 209.047150,325.867432 
	C211.720657,325.171143 213.572800,326.497070 213.584137,329.857910 
	C213.957108,330.031952 213.971939,330.001984 213.971939,330.001984 
	C212.839157,330.252716 211.706390,330.503448 210.573608,330.754211 
	C210.534027,330.385651 210.494446,330.017120 210.454865,329.648590 
	C208.948898,329.517914 206.602127,328.712982 206.076508,329.368469 
	C203.162521,333.002258 200.586472,336.925598 198.110672,340.884857 
	C196.768204,343.031677 196.258789,346.602509 192.942657,341.950378 
	C193.624695,336.177856 194.330185,331.096649 195.035675,326.015411 
z"/>
<path fill="#232323" opacity="1.000000" stroke="none" 
	d="
M354.022217,334.872131 
	C356.414032,331.950745 358.547180,329.376953 360.680359,326.803131 
	C360.898285,327.031982 361.116241,327.260864 361.334198,327.489716 
	C358.632446,333.177490 355.930725,338.865234 353.137726,344.745117 
	C348.861664,344.130554 346.396271,337.057526 348.797333,326.545135 
	C349.651581,328.514160 350.396057,330.541779 351.403259,332.429169 
	C351.964050,333.479950 352.962433,334.297211 354.022217,334.872131 
z"/>
<path fill="#222222" opacity="1.000000" stroke="none" 
	d="
M343.021545,275.473785 
	C344.489319,274.870117 345.957062,274.266418 347.937744,273.194275 
	C348.823608,272.119720 349.196564,271.513611 349.787231,270.553711 
	C349.958405,271.838013 350.077576,272.732147 350.196747,273.626312 
	C352.469055,274.641846 354.741333,275.657410 357.820099,277.033386 
	C355.072357,278.392883 352.687561,279.572845 349.828644,280.987396 
	C349.565918,283.770203 349.259796,287.012604 348.904144,290.780029 
	C350.983032,290.446320 352.445435,290.211609 354.540466,289.875305 
	C352.457336,293.781036 350.727478,296.848022 346.058136,293.137390 
	C345.919617,289.995544 345.875366,287.686432 345.831116,285.377289 
	C345.564880,285.115906 345.489655,284.807861 346.027924,284.038391 
	C345.935577,282.092590 345.420685,280.561554 344.905762,279.030518 
	C344.283691,278.651978 343.661621,278.273407 342.990967,277.314178 
	C342.968750,276.313599 342.995148,275.893677 343.021545,275.473785 
z"/>
<path fill="#282828" opacity="1.000000" stroke="none" 
	d="
M406.017639,326.034119 
	C406.675598,326.720581 407.803864,327.346832 407.901031,328.105133 
	C408.164764,330.163910 407.991547,332.278625 407.991547,335.306641 
	C411.124237,331.577637 413.723389,328.483734 416.848358,324.763947 
	C414.175781,331.885620 411.852783,338.075745 409.146027,345.288513 
	C408.089966,344.348206 406.876953,343.268127 405.771362,341.458191 
	C405.596405,339.820831 405.313934,338.913269 405.031494,338.005737 
	C404.972076,337.568268 404.912689,337.130798 405.047424,336.034515 
	C404.694794,333.761383 404.148041,332.147034 403.601318,330.532715 
	C403.868103,329.918915 404.134888,329.305115 404.836609,328.307465 
	C405.520233,327.293793 405.768921,326.663940 406.017639,326.034119 
z"/>
<path fill="#282828" opacity="1.000000" stroke="none" 
	d="
M610.601318,279.532684 
	C610.868103,278.918915 611.134827,278.305145 611.836548,277.307495 
	C612.520203,276.293823 612.768860,275.663971 613.017578,275.034149 
	C613.675598,275.720581 614.803894,276.346741 614.901001,277.105042 
	C615.164795,279.163818 614.991577,281.278595 614.991577,284.306915 
	C618.124451,280.577698 620.723633,277.483765 623.848267,273.764313 
	C621.175842,280.885376 618.852844,287.075317 616.145996,294.288300 
	C615.090088,293.348206 613.877014,292.268188 612.771362,290.458313 
	C612.596375,288.820892 612.313904,287.913300 612.031494,287.005737 
	C611.972107,286.568237 611.912659,286.130737 612.047363,285.034424 
	C611.694763,282.761292 611.148010,281.147003 610.601318,279.532684 
z"/>
<path fill="#282828" opacity="1.000000" stroke="none" 
	d="
M342.571228,275.589355 
	C342.995148,275.893677 342.968750,276.313599 342.899597,277.046265 
	C341.940399,277.074646 340.567383,276.259003 340.180878,276.591187 
	C337.430176,278.955292 336.765350,288.880280 338.944733,292.219574 
	C335.078156,294.016174 335.078156,294.016174 333.048950,288.326355 
	C332.243622,288.934875 331.540588,289.466125 330.271301,289.777527 
	C329.337341,289.305542 328.969604,289.053375 328.601868,288.801239 
	C330.528473,285.960205 332.968506,283.331177 334.251587,280.224365 
	C335.851868,276.349365 337.733521,274.170258 342.571228,275.589355 
z"/>
<path fill="#282828" opacity="1.000000" stroke="none" 
	d="
M575.601929,288.801239 
	C577.976440,285.048035 580.281006,281.247650 582.765198,277.568481 
	C583.581543,276.359436 584.863098,275.464569 586.391724,274.805481 
	C586.217957,281.016907 581.792603,286.603271 585.970703,292.586212 
	C581.248779,295.389923 581.418274,291.068939 580.126587,288.275604 
	C579.252869,288.932831 578.545166,289.465149 577.271240,289.777618 
	C576.337341,289.305573 575.969666,289.053406 575.601929,288.801239 
z"/>
<path fill="#E7E7E7" opacity="1.000000" stroke="none" 
	d="
M194.725098,325.999969 
	C194.330185,331.096649 193.624695,336.177856 192.797699,341.650146 
	C192.090912,342.051575 191.505600,342.061920 190.627563,342.056458 
	C188.604782,341.862244 186.874741,341.683899 184.412003,341.430023 
	C184.648392,338.385864 184.907669,335.047180 185.115875,332.365997 
	C187.901245,330.576691 190.158127,329.126892 192.272369,327.307373 
	C192.891327,326.619965 193.652924,326.302246 194.725098,325.999969 
z"/>
<path fill="#232323" opacity="1.000000" stroke="none" 
	d="
M575.145752,288.935913 
	C575.969666,289.053406 576.337341,289.305573 576.866699,289.853851 
	C574.739624,291.351990 572.450928,292.554016 570.162231,293.756042 
	C569.686646,291.324829 568.478333,288.757751 568.898315,286.492615 
	C569.620605,282.596924 571.358032,278.889465 572.669312,275.102997 
	C573.375061,275.234161 574.080750,275.365326 574.786499,275.496490 
	C574.786499,277.013641 575.059631,278.594208 574.725281,280.033691 
	C574.163208,282.453705 573.096802,284.753235 572.468201,287.162354 
	C571.999878,288.956909 572.332764,290.320251 575.145752,288.935913 
z"/>
<path fill="#232323" opacity="1.000000" stroke="none" 
	d="
M328.145691,288.935913 
	C328.969604,289.053375 329.337341,289.305542 329.866760,289.853821 
	C327.739746,291.351990 325.451019,292.554016 323.162292,293.756042 
	C322.686676,291.324860 321.478302,288.757782 321.898315,286.492645 
	C322.620697,282.596954 324.358093,278.889496 325.669434,275.103027 
	C326.375122,275.234161 327.080780,275.365326 327.786469,275.496460 
	C327.786469,277.013611 328.059509,278.594147 327.725189,280.033661 
	C327.163177,282.453705 326.096893,284.753265 325.468262,287.162354 
	C325.000031,288.956757 325.332611,290.320374 328.145691,288.935913 
z"/>
<path fill="#282828" opacity="1.000000" stroke="none" 
	d="
M264.405945,287.857208 
	C264.303040,288.765961 263.726532,289.902618 262.727905,291.471497 
	C262.194153,292.255737 262.082550,292.607727 261.970978,292.959747 
	C261.970978,292.959747 262.018738,292.980225 262.022827,292.954895 
	C256.816040,292.615112 255.661163,291.111298 257.008667,285.848999 
	C257.704163,283.132935 258.630341,280.429962 259.855286,277.917542 
	C260.363251,276.875732 261.925140,276.347748 263.007721,275.586121 
	C263.398407,275.922302 263.789062,276.258484 264.179718,276.594635 
	C263.224884,279.490997 262.111603,282.347778 261.374237,285.298462 
	C260.927948,287.084351 260.102875,289.913971 264.405945,287.857208 
z"/>
<path fill="#202020" opacity="1.000000" stroke="none" 
	d="
M219.353943,339.876648 
	C219.961578,340.206787 220.148849,340.538177 220.261169,341.002045 
	C218.443619,341.928314 216.701019,342.722137 214.958420,343.515930 
	C214.426376,341.490021 213.456146,339.459686 213.476593,337.439331 
	C213.500519,335.074493 214.387482,332.718414 214.436005,330.180237 
	C213.971939,330.001984 213.957108,330.031952 213.938477,330.039307 
	C214.707184,329.652039 215.517593,329.296844 216.276169,328.853058 
	C217.286453,328.262085 218.256439,327.602203 219.243744,326.971924 
	C219.411499,328.258911 219.931839,329.621826 219.674469,330.817261 
	C219.118027,333.401855 218.095917,335.883850 217.453415,338.455078 
	C217.370865,338.785431 218.412643,339.396759 219.353943,339.876648 
z"/>
<path fill="#333333" opacity="1.000000" stroke="none" 
	d="
M365.703430,337.976440 
	C366.560669,334.958008 367.334198,332.306976 368.156372,329.489227 
	C371.984894,332.683289 371.017731,340.534515 365.619751,345.341461 
	C365.619751,342.386047 365.619751,340.364960 365.703430,337.976440 
z"/>
<path fill="#333333" opacity="1.000000" stroke="none" 
	d="
M626.048096,336.496460 
	C626.841858,333.974030 627.538879,331.820099 628.277649,329.537323 
	C631.992737,332.754272 630.990967,340.630463 625.255432,345.612885 
	C625.556702,341.826263 625.754028,339.345642 626.048096,336.496460 
z"/>
<path fill="#313131" opacity="1.000000" stroke="none" 
	d="
M235.989182,335.599121 
	C236.690002,333.400665 237.291962,331.571594 237.933380,329.622681 
	C241.615387,332.770233 240.674988,340.402954 236.249252,344.559937 
	C233.378189,341.769226 235.383347,338.821808 235.989182,335.599121 
z"/>
<path fill="#0A0A0A" opacity="1.000000" stroke="none" 
	d="
M400.065155,341.083923 
	C399.189667,342.069489 398.314178,343.055054 397.438690,344.040588 
	C396.602570,342.807007 395.131836,341.616119 395.045380,340.332062 
	C394.746643,335.895233 394.930298,331.425903 394.930298,325.783051 
	C399.766968,328.519562 397.191803,332.417725 397.899292,336.001740 
	C398.556793,338.234833 399.310974,339.659393 400.065155,341.083923 
z"/>
<path fill="#0A0A0A" opacity="1.000000" stroke="none" 
	d="
M607.065125,290.083923 
	C606.189636,291.069489 605.314148,292.055023 604.438660,293.040588 
	C603.602722,291.806976 602.132202,290.616058 602.045776,289.331970 
	C601.747131,284.894379 601.930786,280.424316 601.930786,274.783081 
	C606.766907,277.519623 604.192017,281.417725 604.899292,285.001892 
	C605.556763,287.234924 606.310974,288.659424 607.065125,290.083923 
z"/>
<path fill="#333333" opacity="1.000000" stroke="none" 
	d="
M281.913940,293.208069 
	C282.342010,291.630615 282.632812,290.386566 283.195190,287.980682 
	C284.846436,289.866577 286.969025,291.993958 286.820618,292.166382 
	C284.964539,294.322540 282.779388,296.195435 279.890167,297.446289 
	C280.519043,296.144684 281.147888,294.843079 281.913940,293.208069 
z"/>
<path fill="#5B5B5B" opacity="1.000000" stroke="none" 
	d="
M400.290771,340.823975 
	C399.310974,339.659393 398.556793,338.234833 397.888123,336.423096 
	C400.121948,335.958496 400.121948,335.958496 403.315430,330.727417 
	C404.148041,332.147034 404.694794,333.761383 405.108673,335.706482 
	C403.489349,337.546204 402.002869,339.055145 400.290771,340.823975 
z"/>
<path fill="#5B5B5B" opacity="1.000000" stroke="none" 
	d="
M607.290771,289.823975 
	C606.310974,288.659424 605.556763,287.234924 604.888184,285.423248 
	C607.122131,284.958374 607.122131,284.958374 610.315430,279.727356 
	C611.148010,281.147003 611.694763,282.761292 612.108643,284.706421 
	C610.489380,286.546173 609.002869,288.055115 607.290771,289.823975 
z"/>
<path fill="#282828" opacity="1.000000" stroke="none" 
	d="
M350.448425,273.346497 
	C350.077576,272.732147 349.958405,271.838013 349.787231,270.553711 
	C349.196564,271.513611 348.823608,272.119720 348.214935,272.868042 
	C348.693451,270.435547 349.407715,267.860779 350.121979,265.286041 
	C350.577393,265.375275 351.032837,265.464539 351.488281,265.553772 
	C351.225555,268.058075 350.962830,270.562408 350.448425,273.346497 
z"/>
<path fill="#282828" opacity="1.000000" stroke="none" 
	d="
M345.612091,285.662048 
	C345.875366,287.686432 345.919617,289.995544 345.927948,292.791626 
	C345.725708,290.834656 345.559387,288.390747 345.612091,285.662048 
z"/>
<path fill="#1B1B1B" opacity="1.000000" stroke="none" 
	d="
M513.330444,292.036194 
	C513.008911,291.641266 513.007324,291.250977 513.004822,290.567963 
	C514.245056,290.086761 515.486328,289.898315 516.727539,289.709869 
	C516.796448,289.881012 516.865295,290.052185 516.934143,290.223358 
	C515.839600,290.829163 514.744995,291.434998 513.330444,292.036194 
z"/>
<path fill="#282828" opacity="1.000000" stroke="none" 
	d="
M345.134521,279.342194 
	C345.420685,280.561554 345.935577,282.092590 346.169067,283.833435 
	C345.712860,282.580139 345.538086,281.117004 345.134521,279.342194 
z"/>
<path fill="#5B5B5B" opacity="1.000000" stroke="none" 
	d="
M404.901367,338.238281 
	C405.313934,338.913269 405.596405,339.820831 405.769806,341.089905 
	C405.364258,340.457916 405.067749,339.464386 404.901367,338.238281 
z"/>
<path fill="#5B5B5B" opacity="1.000000" stroke="none" 
	d="
M611.901367,287.238342 
	C612.313904,287.913300 612.596375,288.820892 612.769775,290.090027 
	C612.364258,289.458008 612.067749,288.464478 611.901367,287.238342 
z"/>
<path fill="#5B5B5B" opacity="1.000000" stroke="none" 
	d="
M405.734924,326.078766 
	C405.768921,326.663940 405.520233,327.293793 405.039490,328.039673 
	C405.022400,327.478271 405.237305,326.800842 405.734924,326.078766 
z"/>
<path fill="#5B5B5B" opacity="1.000000" stroke="none" 
	d="
M612.734863,275.078796 
	C612.768860,275.663971 612.520203,276.293823 612.039490,277.039673 
	C612.022400,276.478302 612.237305,275.800873 612.734863,275.078796 
z"/>
<path fill="#F6F6F6" opacity="1.000000" stroke="none" 
	d="
M441.505554,127.402473 
	C441.371887,142.086105 437.588013,155.498383 427.333984,166.424820 
	C424.351410,169.602982 421.989685,168.947906 421.342072,164.637070 
	C419.649872,153.372757 422.135254,143.093643 430.333405,134.899490 
	C433.393707,131.840683 437.486084,129.814468 441.505554,127.402473 
z"/>
<path fill="#D4D4D4" opacity="1.000000" stroke="none" 
	d="
M477.438202,306.227417 
	C476.191528,306.312378 475.295593,306.312378 472.909851,306.312378 
	C476.257080,301.896057 478.879883,298.435577 481.502655,294.975098 
	C482.187775,295.408203 482.872925,295.841278 483.558044,296.274384 
	C481.635010,299.563751 479.711975,302.853119 477.438202,306.227417 
z"/>
<path fill="#D4D4D4" opacity="1.000000" stroke="none" 
	d="
M476.683533,286.135651 
	C478.886322,283.320801 481.068939,280.901001 483.980652,277.672852 
	C484.582764,284.216339 482.410889,286.312469 476.683533,286.135651 
z"/>
<path fill="#FFFFFF" opacity="1.000000" stroke="none" 
	d="
M481.250000,289.250000 
	C481.533356,289.299988 481.566681,289.600006 481.600037,289.899994 
	C481.399994,289.766663 481.200012,289.633331 481.250000,289.250000 
z"/>
<path fill="#D4D4D4" opacity="1.000000" stroke="none" 
	d="
M271.139954,357.127808 
	C269.840485,357.293335 268.907501,357.364807 267.974518,357.436279 
	C267.646912,357.092377 267.319275,356.748505 266.991669,356.404633 
	C269.590210,352.926483 272.188751,349.448364 274.787292,345.970245 
	C275.447601,346.368835 276.107941,346.767395 276.768250,347.165955 
	C275.014313,350.455231 273.260345,353.744507 271.139954,357.127808 
z"/>
<path fill="#D4D4D4" opacity="1.000000" stroke="none" 
	d="
M272.473389,337.598938 
	C271.546967,337.146881 270.415405,336.030518 270.459839,335.981537 
	C272.463043,333.774567 274.569458,331.661224 277.342712,328.848114 
	C278.611145,334.427338 275.850281,336.017212 272.473389,337.598938 
z"/>
<path fill="#FFFFFF" opacity="1.000000" stroke="none" 
	d="
M536.250732,292.335510 
	C536.559143,292.344543 536.629883,292.569489 536.700684,292.794464 
	C536.471497,292.713470 536.242249,292.632446 536.250732,292.335510 
z"/>
<path fill="#E7E7E7" opacity="1.000000" stroke="none" 
	d="
M439.892242,330.581848 
	C441.586029,331.625488 442.904083,332.543610 445.231750,334.165009 
	C441.515778,336.979767 438.361359,339.369141 435.206970,341.758514 
	C434.827576,341.358185 434.448181,340.957855 434.068787,340.557526 
	C434.525208,336.518433 435.489105,332.730164 439.892242,330.581848 
z"/>
<path fill="#FFFFFF" opacity="1.000000" stroke="none" 
	d="
M262.199066,293.363953 
	C262.082550,292.607727 262.194153,292.255737 262.649170,291.795929 
	C262.804108,292.381470 262.615631,293.074829 262.199066,293.363953 
z"/>
<path fill="#E0E0E0" opacity="1.000000" stroke="none" 
	d="
M308.572205,284.819977 
	C310.763092,283.180939 312.619171,281.748901 314.885803,280.000092 
	C315.375854,286.806763 313.873383,288.968872 306.503906,292.101959 
	C307.178345,289.349274 307.707855,287.188110 308.572205,284.819977 
z"/>
<path fill="#D4D4D4" opacity="1.000000" stroke="none" 
	d="
M444.681763,283.582642 
	C442.849670,285.149719 441.282806,286.476288 439.329803,288.129791 
	C440.606903,279.073517 441.643738,277.692780 449.042175,276.436615 
	C447.353149,279.284729 446.150055,281.313416 444.681763,283.582642 
z"/>
<path fill="#E0E0E0" opacity="1.000000" stroke="none" 
	d="
M457.874084,288.547119 
	C460.001984,286.191620 462.010468,284.226288 464.018951,282.260956 
	C464.629944,282.582611 465.240936,282.904266 465.851929,283.225891 
	C465.342194,284.913788 465.314423,287.489746 464.213074,288.087463 
	C462.431335,289.054413 459.944031,288.721375 457.874084,288.547119 
z"/>
<path fill="#E0E0E0" opacity="1.000000" stroke="none" 
	d="
M551.316528,341.331665 
	C550.149719,340.559052 548.668274,339.633423 548.495850,338.507355 
	C547.827148,334.140442 550.271790,330.772095 554.861023,329.293182 
	C556.208618,333.935760 554.442627,337.651276 551.316528,341.331665 
z"/>
<path fill="#E0E0E0" opacity="1.000000" stroke="none" 
	d="
M328.418213,329.302124 
	C330.424652,334.685974 327.962769,338.470428 324.518250,342.184875 
	C320.757172,337.238525 322.190338,332.526764 328.418213,329.302124 
z"/>
<path fill="#E0E0E0" opacity="1.000000" stroke="none" 
	d="
M205.439880,290.574554 
	C204.427521,288.669769 202.787033,286.296204 203.316498,284.599945 
	C204.133499,281.982513 206.436066,279.828796 208.679367,277.855927 
	C210.758270,283.122162 208.840271,286.927887 205.439880,290.574554 
z"/>
<path fill="#E0E0E0" opacity="1.000000" stroke="none" 
	d="
M455.779694,337.101196 
	C456.377106,333.048676 457.932495,330.190125 461.800659,329.087219 
	C463.501617,334.297516 462.036163,338.415375 456.725220,342.251770 
	C456.362305,340.443085 456.067596,338.974274 455.779694,337.101196 
z"/>
<path fill="#E0E0E0" opacity="1.000000" stroke="none" 
	d="
M562.092346,282.709778 
	C560.695496,285.813049 559.360535,288.515839 557.844971,291.584320 
	C553.375854,286.349579 555.200623,280.813232 561.808289,278.053864 
	C561.932617,279.582642 562.043457,280.945984 562.092346,282.709778 
z"/>
</svg>