<?xml version="1.0" encoding="utf-8" standalone="no"?>
<!DOCTYPE svg PUBLIC "-//W3C//DTD SVG 1.1//EN"
  "http://www.w3.org/Graphics/SVG/1.1/DTD/svg11.dtd">
<!-- Created with matplotlib (http://matplotlib.org/) -->
<svg height="432pt" version="1.1" viewBox="0 0 720 432" width="720pt" xmlns="http://www.w3.org/2000/svg" xmlns:xlink="http://www.w3.org/1999/xlink">
 <defs>
  <style type="text/css">
*{stroke-linecap:butt;stroke-linejoin:round;}
  </style>
 </defs>
 <g id="figure_1">
  <g id="patch_1">
   <path d="M 0 432 
L 720 432 
L 720 0 
L 0 0 
z
" style="fill:#ffffff;"/>
  </g>
  <g id="axes_1">
   <g id="patch_2">
    <path d="M 90 378 
L 648 378 
L 648 51.84 
L 90 51.84 
z
" style="fill:#ffffff;"/>
   </g>
   <g id="matplotlib.axis_1">
    <g id="xtick_1">
     <g id="line2d_1">
      <path clip-path="url(#p5548dd9751)" d="M 115.363636 378 
L 115.363636 51.84 
" style="fill:none;stroke:#b0b0b0;stroke-linecap:square;stroke-width:0.8;"/>
     </g>
     <g id="line2d_2">
      <defs>
       <path d="M 0 0 
L 0 3.5 
" id="m138c45af7a" style="stroke:#000000;stroke-width:0.8;"/>
      </defs>
      <g>
       <use style="stroke:#000000;stroke-width:0.8;" x="115.363636" xlink:href="#m138c45af7a" y="378"/>
      </g>
     </g>
     <g id="text_1">
      <!-- 0 -->
      <defs>
       <path d="M 31.78125 66.40625 
Q 24.171875 66.40625 20.328125 58.90625 
Q 16.5 51.421875 16.5 36.375 
Q 16.5 21.390625 20.328125 13.890625 
Q 24.171875 6.390625 31.78125 6.390625 
Q 39.453125 6.390625 43.28125 13.890625 
Q 47.125 21.390625 47.125 36.375 
Q 47.125 51.421875 43.28125 58.90625 
Q 39.453125 66.40625 31.78125 66.40625 
M 31.78125 74.21875 
Q 44.046875 74.21875 50.515625 64.515625 
Q 56.984375 54.828125 56.984375 36.375 
Q 56.984375 17.96875 50.515625 8.265625 
Q 44.046875 -1.421875 31.78125 -1.421875 
Q 19.53125 -1.421875 13.0625 8.265625 
Q 6.59375 17.96875 6.59375 36.375 
Q 6.59375 54.828125 13.0625 64.515625 
Q 19.53125 74.21875 31.78125 74.21875 
" id="DejaVuSans-30"/>
      </defs>
      <g transform="translate(112.182386 392.598437)scale(0.1 -0.1)">
       <use xlink:href="#DejaVuSans-30"/>
      </g>
     </g>
    </g>
    <g id="xtick_2">
     <g id="line2d_3">
      <path clip-path="url(#p5548dd9751)" d="M 200.022168 378 
L 200.022168 51.84 
" style="fill:none;stroke:#b0b0b0;stroke-linecap:square;stroke-width:0.8;"/>
     </g>
     <g id="line2d_4">
      <g>
       <use style="stroke:#000000;stroke-width:0.8;" x="200.022168" xlink:href="#m138c45af7a" y="378"/>
      </g>
     </g>
     <g id="text_2">
      <!-- 1 -->
      <defs>
       <path d="M 12.40625 8.296875 
L 28.515625 8.296875 
L 28.515625 63.921875 
L 10.984375 60.40625 
L 10.984375 69.390625 
L 28.421875 72.90625 
L 38.28125 72.90625 
L 38.28125 8.296875 
L 54.390625 8.296875 
L 54.390625 0 
L 12.40625 0 
z
" id="DejaVuSans-31"/>
      </defs>
      <g transform="translate(196.840918 392.598437)scale(0.1 -0.1)">
       <use xlink:href="#DejaVuSans-31"/>
      </g>
     </g>
    </g>
    <g id="xtick_3">
     <g id="line2d_5">
      <path clip-path="url(#p5548dd9751)" d="M 284.6807 378 
L 284.6807 51.84 
" style="fill:none;stroke:#b0b0b0;stroke-linecap:square;stroke-width:0.8;"/>
     </g>
     <g id="line2d_6">
      <g>
       <use style="stroke:#000000;stroke-width:0.8;" x="284.6807" xlink:href="#m138c45af7a" y="378"/>
      </g>
     </g>
     <g id="text_3">
      <!-- 2 -->
      <defs>
       <path d="M 19.1875 8.296875 
L 53.609375 8.296875 
L 53.609375 0 
L 7.328125 0 
L 7.328125 8.296875 
Q 12.9375 14.109375 22.625 23.890625 
Q 32.328125 33.6875 34.8125 36.53125 
Q 39.546875 41.84375 41.421875 45.53125 
Q 43.3125 49.21875 43.3125 52.78125 
Q 43.3125 58.59375 39.234375 62.25 
Q 35.15625 65.921875 28.609375 65.921875 
Q 23.96875 65.921875 18.8125 64.3125 
Q 13.671875 62.703125 7.8125 59.421875 
L 7.8125 69.390625 
Q 13.765625 71.78125 18.9375 73 
Q 24.125 74.21875 28.421875 74.21875 
Q 39.75 74.21875 46.484375 68.546875 
Q 53.21875 62.890625 53.21875 53.421875 
Q 53.21875 48.921875 51.53125 44.890625 
Q 49.859375 40.875 45.40625 35.40625 
Q 44.1875 33.984375 37.640625 27.21875 
Q 31.109375 20.453125 19.1875 8.296875 
" id="DejaVuSans-32"/>
      </defs>
      <g transform="translate(281.49945 392.598437)scale(0.1 -0.1)">
       <use xlink:href="#DejaVuSans-32"/>
      </g>
     </g>
    </g>
    <g id="xtick_4">
     <g id="line2d_7">
      <path clip-path="url(#p5548dd9751)" d="M 369.339232 378 
L 369.339232 51.84 
" style="fill:none;stroke:#b0b0b0;stroke-linecap:square;stroke-width:0.8;"/>
     </g>
     <g id="line2d_8">
      <g>
       <use style="stroke:#000000;stroke-width:0.8;" x="369.339232" xlink:href="#m138c45af7a" y="378"/>
      </g>
     </g>
     <g id="text_4">
      <!-- 3 -->
      <defs>
       <path d="M 40.578125 39.3125 
Q 47.65625 37.796875 51.625 33 
Q 55.609375 28.21875 55.609375 21.1875 
Q 55.609375 10.40625 48.1875 4.484375 
Q 40.765625 -1.421875 27.09375 -1.421875 
Q 22.515625 -1.421875 17.65625 -0.515625 
Q 12.796875 0.390625 7.625 2.203125 
L 7.625 11.71875 
Q 11.71875 9.328125 16.59375 8.109375 
Q 21.484375 6.890625 26.8125 6.890625 
Q 36.078125 6.890625 40.9375 10.546875 
Q 45.796875 14.203125 45.796875 21.1875 
Q 45.796875 27.640625 41.28125 31.265625 
Q 36.765625 34.90625 28.71875 34.90625 
L 20.21875 34.90625 
L 20.21875 43.015625 
L 29.109375 43.015625 
Q 36.375 43.015625 40.234375 45.921875 
Q 44.09375 48.828125 44.09375 54.296875 
Q 44.09375 59.90625 40.109375 62.90625 
Q 36.140625 65.921875 28.71875 65.921875 
Q 24.65625 65.921875 20.015625 65.03125 
Q 15.375 64.15625 9.8125 62.3125 
L 9.8125 71.09375 
Q 15.4375 72.65625 20.34375 73.4375 
Q 25.25 74.21875 29.59375 74.21875 
Q 40.828125 74.21875 47.359375 69.109375 
Q 53.90625 64.015625 53.90625 55.328125 
Q 53.90625 49.265625 50.4375 45.09375 
Q 46.96875 40.921875 40.578125 39.3125 
" id="DejaVuSans-33"/>
      </defs>
      <g transform="translate(366.157982 392.598437)scale(0.1 -0.1)">
       <use xlink:href="#DejaVuSans-33"/>
      </g>
     </g>
    </g>
    <g id="xtick_5">
     <g id="line2d_9">
      <path clip-path="url(#p5548dd9751)" d="M 453.997764 378 
L 453.997764 51.84 
" style="fill:none;stroke:#b0b0b0;stroke-linecap:square;stroke-width:0.8;"/>
     </g>
     <g id="line2d_10">
      <g>
       <use style="stroke:#000000;stroke-width:0.8;" x="453.997764" xlink:href="#m138c45af7a" y="378"/>
      </g>
     </g>
     <g id="text_5">
      <!-- 4 -->
      <defs>
       <path d="M 37.796875 64.3125 
L 12.890625 25.390625 
L 37.796875 25.390625 
z
M 35.203125 72.90625 
L 47.609375 72.90625 
L 47.609375 25.390625 
L 58.015625 25.390625 
L 58.015625 17.1875 
L 47.609375 17.1875 
L 47.609375 0 
L 37.796875 0 
L 37.796875 17.1875 
L 4.890625 17.1875 
L 4.890625 26.703125 
z
" id="DejaVuSans-34"/>
      </defs>
      <g transform="translate(450.816514 392.598437)scale(0.1 -0.1)">
       <use xlink:href="#DejaVuSans-34"/>
      </g>
     </g>
    </g>
    <g id="xtick_6">
     <g id="line2d_11">
      <path clip-path="url(#p5548dd9751)" d="M 538.656296 378 
L 538.656296 51.84 
" style="fill:none;stroke:#b0b0b0;stroke-linecap:square;stroke-width:0.8;"/>
     </g>
     <g id="line2d_12">
      <g>
       <use style="stroke:#000000;stroke-width:0.8;" x="538.656296" xlink:href="#m138c45af7a" y="378"/>
      </g>
     </g>
     <g id="text_6">
      <!-- 5 -->
      <defs>
       <path d="M 10.796875 72.90625 
L 49.515625 72.90625 
L 49.515625 64.59375 
L 19.828125 64.59375 
L 19.828125 46.734375 
Q 21.96875 47.46875 24.109375 47.828125 
Q 26.265625 48.1875 28.421875 48.1875 
Q 40.625 48.1875 47.75 41.5 
Q 54.890625 34.8125 54.890625 23.390625 
Q 54.890625 11.625 47.5625 5.09375 
Q 40.234375 -1.421875 26.90625 -1.421875 
Q 22.3125 -1.421875 17.546875 -0.640625 
Q 12.796875 0.140625 7.71875 1.703125 
L 7.71875 11.625 
Q 12.109375 9.234375 16.796875 8.0625 
Q 21.484375 6.890625 26.703125 6.890625 
Q 35.15625 6.890625 40.078125 11.328125 
Q 45.015625 15.765625 45.015625 23.390625 
Q 45.015625 31 40.078125 35.4375 
Q 35.15625 39.890625 26.703125 39.890625 
Q 22.75 39.890625 18.8125 39.015625 
Q 14.890625 38.140625 10.796875 36.28125 
z
" id="DejaVuSans-35"/>
      </defs>
      <g transform="translate(535.475046 392.598437)scale(0.1 -0.1)">
       <use xlink:href="#DejaVuSans-35"/>
      </g>
     </g>
    </g>
    <g id="xtick_7">
     <g id="line2d_13">
      <path clip-path="url(#p5548dd9751)" d="M 623.314828 378 
L 623.314828 51.84 
" style="fill:none;stroke:#b0b0b0;stroke-linecap:square;stroke-width:0.8;"/>
     </g>
     <g id="line2d_14">
      <g>
       <use style="stroke:#000000;stroke-width:0.8;" x="623.314828" xlink:href="#m138c45af7a" y="378"/>
      </g>
     </g>
     <g id="text_7">
      <!-- 6 -->
      <defs>
       <path d="M 33.015625 40.375 
Q 26.375 40.375 22.484375 35.828125 
Q 18.609375 31.296875 18.609375 23.390625 
Q 18.609375 15.53125 22.484375 10.953125 
Q 26.375 6.390625 33.015625 6.390625 
Q 39.65625 6.390625 43.53125 10.953125 
Q 47.40625 15.53125 47.40625 23.390625 
Q 47.40625 31.296875 43.53125 35.828125 
Q 39.65625 40.375 33.015625 40.375 
M 52.59375 71.296875 
L 52.59375 62.3125 
Q 48.875 64.0625 45.09375 64.984375 
Q 41.3125 65.921875 37.59375 65.921875 
Q 27.828125 65.921875 22.671875 59.328125 
Q 17.53125 52.734375 16.796875 39.40625 
Q 19.671875 43.65625 24.015625 45.921875 
Q 28.375 48.1875 33.59375 48.1875 
Q 44.578125 48.1875 50.953125 41.515625 
Q 57.328125 34.859375 57.328125 23.390625 
Q 57.328125 12.15625 50.6875 5.359375 
Q 44.046875 -1.421875 33.015625 -1.421875 
Q 20.359375 -1.421875 13.671875 8.265625 
Q 6.984375 17.96875 6.984375 36.375 
Q 6.984375 53.65625 15.1875 63.9375 
Q 23.390625 74.21875 37.203125 74.21875 
Q 40.921875 74.21875 44.703125 73.484375 
Q 48.484375 72.75 52.59375 71.296875 
" id="DejaVuSans-36"/>
      </defs>
      <g transform="translate(620.133578 392.598437)scale(0.1 -0.1)">
       <use xlink:href="#DejaVuSans-36"/>
      </g>
     </g>
    </g>
    <g id="text_8">
     <!-- Log num tokens -->
     <defs>
      <path d="M 9.8125 72.90625 
L 19.671875 72.90625 
L 19.671875 8.296875 
L 55.171875 8.296875 
L 55.171875 0 
L 9.8125 0 
z
" id="DejaVuSans-4c"/>
      <path d="M 30.609375 48.390625 
Q 23.390625 48.390625 19.1875 42.75 
Q 14.984375 37.109375 14.984375 27.296875 
Q 14.984375 17.484375 19.15625 11.84375 
Q 23.34375 6.203125 30.609375 6.203125 
Q 37.796875 6.203125 41.984375 11.859375 
Q 46.1875 17.53125 46.1875 27.296875 
Q 46.1875 37.015625 41.984375 42.703125 
Q 37.796875 48.390625 30.609375 48.390625 
M 30.609375 56 
Q 42.328125 56 49.015625 48.375 
Q 55.71875 40.765625 55.71875 27.296875 
Q 55.71875 13.875 49.015625 6.21875 
Q 42.328125 -1.421875 30.609375 -1.421875 
Q 18.84375 -1.421875 12.171875 6.21875 
Q 5.515625 13.875 5.515625 27.296875 
Q 5.515625 40.765625 12.171875 48.375 
Q 18.84375 56 30.609375 56 
" id="DejaVuSans-6f"/>
      <path d="M 45.40625 27.984375 
Q 45.40625 37.75 41.375 43.109375 
Q 37.359375 48.484375 30.078125 48.484375 
Q 22.859375 48.484375 18.828125 43.109375 
Q 14.796875 37.75 14.796875 27.984375 
Q 14.796875 18.265625 18.828125 12.890625 
Q 22.859375 7.515625 30.078125 7.515625 
Q 37.359375 7.515625 41.375 12.890625 
Q 45.40625 18.265625 45.40625 27.984375 
M 54.390625 6.78125 
Q 54.390625 -7.171875 48.1875 -13.984375 
Q 42 -20.796875 29.203125 -20.796875 
Q 24.46875 -20.796875 20.265625 -20.09375 
Q 16.0625 -19.390625 12.109375 -17.921875 
L 12.109375 -9.1875 
Q 16.0625 -11.328125 19.921875 -12.34375 
Q 23.78125 -13.375 27.78125 -13.375 
Q 36.625 -13.375 41.015625 -8.765625 
Q 45.40625 -4.15625 45.40625 5.171875 
L 45.40625 9.625 
Q 42.625 4.78125 38.28125 2.390625 
Q 33.9375 0 27.875 0 
Q 17.828125 0 11.671875 7.65625 
Q 5.515625 15.328125 5.515625 27.984375 
Q 5.515625 40.671875 11.671875 48.328125 
Q 17.828125 56 27.875 56 
Q 33.9375 56 38.28125 53.609375 
Q 42.625 51.21875 45.40625 46.390625 
L 45.40625 54.6875 
L 54.390625 54.6875 
z
" id="DejaVuSans-67"/>
      <path id="DejaVuSans-20"/>
      <path d="M 54.890625 33.015625 
L 54.890625 0 
L 45.90625 0 
L 45.90625 32.71875 
Q 45.90625 40.484375 42.875 44.328125 
Q 39.84375 48.1875 33.796875 48.1875 
Q 26.515625 48.1875 22.3125 43.546875 
Q 18.109375 38.921875 18.109375 30.90625 
L 18.109375 0 
L 9.078125 0 
L 9.078125 54.6875 
L 18.109375 54.6875 
L 18.109375 46.1875 
Q 21.34375 51.125 25.703125 53.5625 
Q 30.078125 56 35.796875 56 
Q 45.21875 56 50.046875 50.171875 
Q 54.890625 44.34375 54.890625 33.015625 
" id="DejaVuSans-6e"/>
      <path d="M 8.5 21.578125 
L 8.5 54.6875 
L 17.484375 54.6875 
L 17.484375 21.921875 
Q 17.484375 14.15625 20.5 10.265625 
Q 23.53125 6.390625 29.59375 6.390625 
Q 36.859375 6.390625 41.078125 11.03125 
Q 45.3125 15.671875 45.3125 23.6875 
L 45.3125 54.6875 
L 54.296875 54.6875 
L 54.296875 0 
L 45.3125 0 
L 45.3125 8.40625 
Q 42.046875 3.421875 37.71875 1 
Q 33.40625 -1.421875 27.6875 -1.421875 
Q 18.265625 -1.421875 13.375 4.4375 
Q 8.5 10.296875 8.5 21.578125 
M 31.109375 56 
z
" id="DejaVuSans-75"/>
      <path d="M 52 44.1875 
Q 55.375 50.25 60.0625 53.125 
Q 64.75 56 71.09375 56 
Q 79.640625 56 84.28125 50.015625 
Q 88.921875 44.046875 88.921875 33.015625 
L 88.921875 0 
L 79.890625 0 
L 79.890625 32.71875 
Q 79.890625 40.578125 77.09375 44.375 
Q 74.3125 48.1875 68.609375 48.1875 
Q 61.625 48.1875 57.5625 43.546875 
Q 53.515625 38.921875 53.515625 30.90625 
L 53.515625 0 
L 44.484375 0 
L 44.484375 32.71875 
Q 44.484375 40.625 41.703125 44.40625 
Q 38.921875 48.1875 33.109375 48.1875 
Q 26.21875 48.1875 22.15625 43.53125 
Q 18.109375 38.875 18.109375 30.90625 
L 18.109375 0 
L 9.078125 0 
L 9.078125 54.6875 
L 18.109375 54.6875 
L 18.109375 46.1875 
Q 21.1875 51.21875 25.484375 53.609375 
Q 29.78125 56 35.6875 56 
Q 41.65625 56 45.828125 52.96875 
Q 50 49.953125 52 44.1875 
" id="DejaVuSans-6d"/>
      <path d="M 18.3125 70.21875 
L 18.3125 54.6875 
L 36.8125 54.6875 
L 36.8125 47.703125 
L 18.3125 47.703125 
L 18.3125 18.015625 
Q 18.3125 11.328125 20.140625 9.421875 
Q 21.96875 7.515625 27.59375 7.515625 
L 36.8125 7.515625 
L 36.8125 0 
L 27.59375 0 
Q 17.1875 0 13.234375 3.875 
Q 9.28125 7.765625 9.28125 18.015625 
L 9.28125 47.703125 
L 2.6875 47.703125 
L 2.6875 54.6875 
L 9.28125 54.6875 
L 9.28125 70.21875 
z
" id="DejaVuSans-74"/>
      <path d="M 9.078125 75.984375 
L 18.109375 75.984375 
L 18.109375 31.109375 
L 44.921875 54.6875 
L 56.390625 54.6875 
L 27.390625 29.109375 
L 57.625 0 
L 45.90625 0 
L 18.109375 26.703125 
L 18.109375 0 
L 9.078125 0 
z
" id="DejaVuSans-6b"/>
      <path d="M 56.203125 29.59375 
L 56.203125 25.203125 
L 14.890625 25.203125 
Q 15.484375 15.921875 20.484375 11.0625 
Q 25.484375 6.203125 34.421875 6.203125 
Q 39.59375 6.203125 44.453125 7.46875 
Q 49.3125 8.734375 54.109375 11.28125 
L 54.109375 2.78125 
Q 49.265625 0.734375 44.1875 -0.34375 
Q 39.109375 -1.421875 33.890625 -1.421875 
Q 20.796875 -1.421875 13.15625 6.1875 
Q 5.515625 13.8125 5.515625 26.8125 
Q 5.515625 40.234375 12.765625 48.109375 
Q 20.015625 56 32.328125 56 
Q 43.359375 56 49.78125 48.890625 
Q 56.203125 41.796875 56.203125 29.59375 
M 47.21875 32.234375 
Q 47.125 39.59375 43.09375 43.984375 
Q 39.0625 48.390625 32.421875 48.390625 
Q 24.90625 48.390625 20.390625 44.140625 
Q 15.875 39.890625 15.1875 32.171875 
z
" id="DejaVuSans-65"/>
      <path d="M 44.28125 53.078125 
L 44.28125 44.578125 
Q 40.484375 46.53125 36.375 47.5 
Q 32.28125 48.484375 27.875 48.484375 
Q 21.1875 48.484375 17.84375 46.4375 
Q 14.5 44.390625 14.5 40.28125 
Q 14.5 37.15625 16.890625 35.375 
Q 19.28125 33.59375 26.515625 31.984375 
L 29.59375 31.296875 
Q 39.15625 29.25 43.1875 25.515625 
Q 47.21875 21.78125 47.21875 15.09375 
Q 47.21875 7.46875 41.1875 3.015625 
Q 35.15625 -1.421875 24.609375 -1.421875 
Q 20.21875 -1.421875 15.453125 -0.5625 
Q 10.6875 0.296875 5.421875 2 
L 5.421875 11.28125 
Q 10.40625 8.6875 15.234375 7.390625 
Q 20.0625 6.109375 24.8125 6.109375 
Q 31.15625 6.109375 34.5625 8.28125 
Q 37.984375 10.453125 37.984375 14.40625 
Q 37.984375 18.0625 35.515625 20.015625 
Q 33.0625 21.96875 24.703125 23.78125 
L 21.578125 24.515625 
Q 13.234375 26.265625 9.515625 29.90625 
Q 5.8125 33.546875 5.8125 39.890625 
Q 5.8125 47.609375 11.28125 51.796875 
Q 16.75 56 26.8125 56 
Q 31.78125 56 36.171875 55.265625 
Q 40.578125 54.546875 44.28125 53.078125 
" id="DejaVuSans-73"/>
     </defs>
     <g transform="translate(328.832812 406.276563)scale(0.1 -0.1)">
      <use xlink:href="#DejaVuSans-4c"/>
      <use x="55.697266" xlink:href="#DejaVuSans-6f"/>
      <use x="116.878906" xlink:href="#DejaVuSans-67"/>
      <use x="180.355469" xlink:href="#DejaVuSans-20"/>
      <use x="212.142578" xlink:href="#DejaVuSans-6e"/>
      <use x="275.521484" xlink:href="#DejaVuSans-75"/>
      <use x="338.900391" xlink:href="#DejaVuSans-6d"/>
      <use x="436.3125" xlink:href="#DejaVuSans-20"/>
      <use x="468.099609" xlink:href="#DejaVuSans-74"/>
      <use x="507.308594" xlink:href="#DejaVuSans-6f"/>
      <use x="568.490234" xlink:href="#DejaVuSans-6b"/>
      <use x="626.353516" xlink:href="#DejaVuSans-65"/>
      <use x="687.876953" xlink:href="#DejaVuSans-6e"/>
      <use x="751.255859" xlink:href="#DejaVuSans-73"/>
     </g>
    </g>
   </g>
   <g id="matplotlib.axis_2">
    <g id="ytick_1">
     <g id="line2d_15">
      <path clip-path="url(#p5548dd9751)" d="M 90 363.174545 
L 648 363.174545 
" style="fill:none;stroke:#b0b0b0;stroke-linecap:square;stroke-width:0.8;"/>
     </g>
     <g id="line2d_16">
      <defs>
       <path d="M 0 0 
L -3.5 0 
" id="mc8df98f607" style="stroke:#000000;stroke-width:0.8;"/>
      </defs>
      <g>
       <use style="stroke:#000000;stroke-width:0.8;" x="90" xlink:href="#mc8df98f607" y="363.174545"/>
      </g>
     </g>
     <g id="text_9">
      <!-- 0 -->
      <g transform="translate(76.6375 366.973764)scale(0.1 -0.1)">
       <use xlink:href="#DejaVuSans-30"/>
      </g>
     </g>
    </g>
    <g id="ytick_2">
     <g id="line2d_17">
      <path clip-path="url(#p5548dd9751)" d="M 90 299.203386 
L 648 299.203386 
" style="fill:none;stroke:#b0b0b0;stroke-linecap:square;stroke-width:0.8;"/>
     </g>
     <g id="line2d_18">
      <g>
       <use style="stroke:#000000;stroke-width:0.8;" x="90" xlink:href="#mc8df98f607" y="299.203386"/>
      </g>
     </g>
     <g id="text_10">
      <!-- 1 -->
      <g transform="translate(76.6375 303.002605)scale(0.1 -0.1)">
       <use xlink:href="#DejaVuSans-31"/>
      </g>
     </g>
    </g>
    <g id="ytick_3">
     <g id="line2d_19">
      <path clip-path="url(#p5548dd9751)" d="M 90 235.232226 
L 648 235.232226 
" style="fill:none;stroke:#b0b0b0;stroke-linecap:square;stroke-width:0.8;"/>
     </g>
     <g id="line2d_20">
      <g>
       <use style="stroke:#000000;stroke-width:0.8;" x="90" xlink:href="#mc8df98f607" y="235.232226"/>
      </g>
     </g>
     <g id="text_11">
      <!-- 2 -->
      <g transform="translate(76.6375 239.031445)scale(0.1 -0.1)">
       <use xlink:href="#DejaVuSans-32"/>
      </g>
     </g>
    </g>
    <g id="ytick_4">
     <g id="line2d_21">
      <path clip-path="url(#p5548dd9751)" d="M 90 171.261067 
L 648 171.261067 
" style="fill:none;stroke:#b0b0b0;stroke-linecap:square;stroke-width:0.8;"/>
     </g>
     <g id="line2d_22">
      <g>
       <use style="stroke:#000000;stroke-width:0.8;" x="90" xlink:href="#mc8df98f607" y="171.261067"/>
      </g>
     </g>
     <g id="text_12">
      <!-- 3 -->
      <g transform="translate(76.6375 175.060286)scale(0.1 -0.1)">
       <use xlink:href="#DejaVuSans-33"/>
      </g>
     </g>
    </g>
    <g id="ytick_5">
     <g id="line2d_23">
      <path clip-path="url(#p5548dd9751)" d="M 90 107.289907 
L 648 107.289907 
" style="fill:none;stroke:#b0b0b0;stroke-linecap:square;stroke-width:0.8;"/>
     </g>
     <g id="line2d_24">
      <g>
       <use style="stroke:#000000;stroke-width:0.8;" x="90" xlink:href="#mc8df98f607" y="107.289907"/>
      </g>
     </g>
     <g id="text_13">
      <!-- 4 -->
      <g transform="translate(76.6375 111.089126)scale(0.1 -0.1)">
       <use xlink:href="#DejaVuSans-34"/>
      </g>
     </g>
    </g>
    <g id="text_14">
     <!-- Log num types -->
     <defs>
      <path d="M 32.171875 -5.078125 
Q 28.375 -14.84375 24.75 -17.8125 
Q 21.140625 -20.796875 15.09375 -20.796875 
L 7.90625 -20.796875 
L 7.90625 -13.28125 
L 13.1875 -13.28125 
Q 16.890625 -13.28125 18.9375 -11.515625 
Q 21 -9.765625 23.484375 -3.21875 
L 25.09375 0.875 
L 2.984375 54.6875 
L 12.5 54.6875 
L 29.59375 11.921875 
L 46.6875 54.6875 
L 56.203125 54.6875 
z
" id="DejaVuSans-79"/>
      <path d="M 18.109375 8.203125 
L 18.109375 -20.796875 
L 9.078125 -20.796875 
L 9.078125 54.6875 
L 18.109375 54.6875 
L 18.109375 46.390625 
Q 20.953125 51.265625 25.265625 53.625 
Q 29.59375 56 35.59375 56 
Q 45.5625 56 51.78125 48.09375 
Q 58.015625 40.1875 58.015625 27.296875 
Q 58.015625 14.40625 51.78125 6.484375 
Q 45.5625 -1.421875 35.59375 -1.421875 
Q 29.59375 -1.421875 25.265625 0.953125 
Q 20.953125 3.328125 18.109375 8.203125 
M 48.6875 27.296875 
Q 48.6875 37.203125 44.609375 42.84375 
Q 40.53125 48.484375 33.40625 48.484375 
Q 26.265625 48.484375 22.1875 42.84375 
Q 18.109375 37.203125 18.109375 27.296875 
Q 18.109375 17.390625 22.1875 11.75 
Q 26.265625 6.109375 33.40625 6.109375 
Q 40.53125 6.109375 44.609375 11.75 
Q 48.6875 17.390625 48.6875 27.296875 
" id="DejaVuSans-70"/>
     </defs>
     <g transform="translate(70.557812 252.099687)rotate(-90)scale(0.1 -0.1)">
      <use xlink:href="#DejaVuSans-4c"/>
      <use x="55.697266" xlink:href="#DejaVuSans-6f"/>
      <use x="116.878906" xlink:href="#DejaVuSans-67"/>
      <use x="180.355469" xlink:href="#DejaVuSans-20"/>
      <use x="212.142578" xlink:href="#DejaVuSans-6e"/>
      <use x="275.521484" xlink:href="#DejaVuSans-75"/>
      <use x="338.900391" xlink:href="#DejaVuSans-6d"/>
      <use x="436.3125" xlink:href="#DejaVuSans-20"/>
      <use x="468.099609" xlink:href="#DejaVuSans-74"/>
      <use x="507.308594" xlink:href="#DejaVuSans-79"/>
      <use x="566.488281" xlink:href="#DejaVuSans-70"/>
      <use x="629.964844" xlink:href="#DejaVuSans-65"/>
      <use x="691.488281" xlink:href="#DejaVuSans-73"/>
     </g>
    </g>
   </g>
   <g id="line2d_25">
    <path clip-path="url(#p5548dd9751)" d="M 115.363636 286.719659 
L 622.636364 66.665455 
L 622.636364 66.665455 
" style="fill:none;stroke:#1f77b4;stroke-linecap:square;stroke-width:1.5;"/>
   </g>
   <g id="line2d_26">
    <path clip-path="url(#p5548dd9751)" d="M 115.363636 363.174545 
L 227.300781 278.590644 
L 230.645516 278.590644 
L 232.210294 277.29821 
L 233.711185 277.29821 
L 236.540791 274.880832 
L 239.168104 274.880832 
L 246.08217 268.681386 
L 249.105796 268.681386 
L 250.06083 267.770409 
L 250.991683 267.770409 
L 253.650678 265.204063 
L 256.920986 265.204063 
L 258.453155 263.61607 
L 259.195943 263.61607 
L 259.924021 262.854863 
L 262.700187 262.854863 
L 264.013424 261.392298 
L 264.652862 261.392298 
L 265.281368 260.68891 
L 266.507039 260.68891 
L 268.272181 258.679674 
L 268.84222 258.679674 
L 273.109814 253.939301 
L 273.61005 253.939301 
L 274.10357 253.399822 
L 276.933176 253.399822 
L 277.384308 252.870619 
L 277.82997 252.870619 
L 280.396133 249.891089 
L 280.806938 249.891089 
L 281.213205 249.424148 
L 282.012513 249.424148 
L 282.405744 248.964926 
L 283.560815 248.964926 
L 283.937913 248.513171 
L 284.311182 248.513171 
L 285.046541 247.631118 
L 286.474555 247.631118 
L 286.823058 247.200376 
L 287.168288 247.200376 
L 287.510306 246.77621 
L 288.184944 246.77621 
L 288.517677 246.358423 
L 288.847426 246.358423 
L 289.174243 245.946825 
L 290.453215 245.946825 
L 291.384068 244.747402 
L 291.689188 244.747402 
L 291.991797 244.358832 
L 292.291935 244.358832 
L 292.589643 243.975621 
L 293.177923 243.975621 
L 294.608716 242.13506 
L 294.888312 242.13506 
L 295.441206 241.431672 
L 295.714566 241.431672 
L 295.985908 241.086546 
L 296.522658 241.086546 
L 297.051685 240.408895 
L 297.313371 240.408895 
L 297.831221 239.747379 
L 298.087436 239.747379 
L 298.341878 239.422436 
L 298.594572 239.422436 
L 298.84554 239.10125 
L 299.342396 239.10125 
L 299.588328 238.783734 
L 299.832626 238.783734 
L 300.075312 238.469806 
L 300.316406 238.469806 
L 300.793902 237.852396 
L 301.498718 237.852396 
L 301.961198 237.248409 
L 302.644191 237.248409 
L 303.314728 236.366356 
L 304.620193 236.366356 
L 305.045247 235.793504 
L 305.88089 235.793504 
L 306.291696 235.232226 
L 306.49539 235.232226 
L 307.299067 234.142584 
L 307.497271 234.142584 
L 307.694412 233.876722 
L 308.085551 233.876722 
L 308.279571 233.613381 
L 308.664566 233.613381 
L 309.609779 232.332863 
L 310.348833 232.332863 
L 310.531299 232.083692 
L 310.712863 232.083692 
L 311.607475 230.870298 
L 311.783815 230.870298 
L 312.307815 230.16691 
L 312.480835 230.16691 
L 312.653045 229.93635 
L 312.824452 229.93635 
L 312.995064 229.707688 
L 313.164887 229.707688 
L 313.33393 229.480892 
L 313.836445 229.480892 
L 314.002435 229.255933 
L 314.495955 229.255933 
L 314.821327 228.811406 
L 314.982939 228.811406 
L 315.622377 227.943138 
L 315.780513 227.943138 
L 315.937973 227.730246 
L 316.406345 227.730246 
L 316.561153 227.518972 
L 316.715311 227.518972 
L 316.868826 227.309293 
L 317.325561 227.309293 
L 317.62693 226.894624 
L 317.776693 226.894624 
L 317.925848 226.689588 
L 318.074401 226.689588 
L 318.369717 226.283999 
L 318.516491 226.283999 
L 318.953328 225.686507 
L 319.097795 225.686507 
L 319.241696 225.490164 
L 319.670052 225.490164 
L 319.811735 225.2952 
L 320.512075 225.2952 
L 321.199323 224.340387 
L 321.470666 224.340387 
L 322.007416 223.782863 
L 322.140388 223.782863 
L 322.404898 223.599481 
L 322.798129 223.599481 
L 323.187198 223.236308 
L 323.826636 223.236308 
L 324.579565 222.348619 
L 324.703567 222.348619 
L 325.073085 222.001335 
L 325.195437 222.001335 
L 325.560069 221.658339 
L 325.680814 221.658339 
L 326.040687 221.319526 
L 326.159866 221.319526 
L 326.397071 221.151657 
L 326.515103 221.151657 
L 326.86694 220.81893 
L 327.215443 220.81893 
L 327.675033 220.327195 
L 327.902691 220.327195 
L 328.128949 220.165198 
L 328.465746 220.165198 
L 329.020307 219.526496 
L 329.239811 219.526496 
L 329.458012 219.369089 
L 329.782904 219.369089 
L 330.10495 219.056925 
L 330.4242 219.056925 
L 330.740702 218.748229 
L 331.158511 218.748229 
L 331.46878 218.442926 
L 331.571624 218.442926 
L 331.878442 218.140941 
L 331.980148 218.140941 
L 332.4845 217.546644 
L 332.783824 217.546644 
L 333.080731 217.254196 
L 333.277345 217.254196 
L 333.95733 216.39488 
L 334.244946 216.39488 
L 334.435448 216.25421 
L 334.624967 216.25421 
L 335.001101 215.836423 
L 335.094536 215.836423 
L 335.280697 215.698545 
L 335.558183 215.698545 
L 335.833591 215.424825 
L 335.924937 215.424825 
L 336.197621 215.153776 
L 336.378293 215.153776 
L 336.647648 214.885346 
L 336.736996 214.885346 
L 336.915043 214.752097 
L 337.792573 214.752097 
L 338.137803 214.356143 
L 338.394615 214.356143 
L 338.734263 213.965753 
L 338.818688 213.965753 
L 338.986957 213.836832 
L 339.070803 213.836832 
L 339.321202 213.580772 
L 339.404291 213.580772 
L 339.734781 213.201053 
L 339.980713 213.201053 
L 340.143758 213.075625 
L 340.306084 213.075625 
L 340.708791 212.579499 
L 340.788805 212.579499 
L 340.948314 212.456839 
L 341.02781 212.456839 
L 341.265271 212.213133 
L 341.42273 212.213133 
L 341.657662 211.971546 
L 341.735641 211.971546 
L 341.968588 211.732042 
L 342.04591 211.732042 
L 342.276906 211.494585 
L 342.353583 211.494585 
L 342.58266 211.25914 
L 342.734589 211.25914 
L 342.885893 211.142162 
L 342.961312 211.142162 
L 343.26145 210.794153 
L 343.336103 210.794153 
L 343.63321 210.45045 
L 343.707113 210.45045 
L 343.927935 210.223654 
L 344.074416 210.223654 
L 344.365639 209.886895 
L 344.582553 209.886895 
L 344.726454 209.775543 
L 344.869794 209.664635 
L 345.012578 209.554168 
L 345.718295 209.444139 
L 345.927395 209.22538 
L 346.135313 209.116642 
L 346.273275 209.008329 
L 346.479252 208.900436 
L 346.615931 208.792961 
L 346.752104 208.6859 
L 346.887775 208.57925 
L 347.224778 208.473008 
L 347.358719 208.36717 
L 347.55872 208.261734 
L 348.0212 207.637386 
L 348.477936 207.534679 
L 348.800736 207.228815 
L 349.311394 207.127604 
L 349.62699 206.826166 
L 349.877531 206.726409 
L 350.126376 206.527963 
L 350.496514 206.429269 
L 350.802141 206.135273 
L 351.044827 206.037962 
L 351.285921 205.844356 
L 351.405878 205.748057 
L 351.704068 205.461146 
L 352.058734 205.366163 
L 352.234792 205.271505 
L 352.526362 205.177167 
L 353.102655 204.433783 
L 353.387449 204.342243 
L 354.062087 203.443061 
L 354.560064 203.354722 
L 354.88834 203.004152 
L 355.159683 202.917196 
L 355.429037 202.657951 
L 355.536229 202.57207 
L 355.696433 202.486454 
L 355.961898 202.401101 
L 356.277946 202.062288 
L 356.487146 201.978227 
L 356.695162 201.810863 
L 357.261211 201.727558 
L 357.464905 201.561692 
L 357.868939 201.47913 
L 358.069303 201.314737 
L 358.218863 201.232904 
L 358.417335 201.069957 
L 358.61474 200.988841 
L 358.908876 200.666723 
L 359.729704 200.586774 
L 360.062437 200.190443 
L 360.439052 200.111851 
L 360.579294 200.033481 
L 360.672492 199.955331 
L 360.858183 199.799687 
L 361.042941 199.722191 
L 361.226775 199.567844 
L 361.455282 199.490991 
L 361.637071 199.33792 
L 361.772826 199.2617 
L 362.177107 198.733933 
L 362.444178 198.659349 
L 362.841184 198.142797 
L 362.972572 198.069782 
L 363.363942 197.563978 
L 363.536556 197.492466 
L 363.836694 197.208246 
L 363.922 197.137642 
L 364.134402 196.996972 
L 364.429719 196.926903 
L 364.722683 196.648381 
L 364.80596 196.579185 
L 364.97195 196.510161 
L 365.260641 196.441307 
L 365.46547 196.30411 
L 365.669165 196.235765 
L 366.032995 195.829187 
L 366.153475 195.761999 
L 366.353404 195.628108 
L 366.433072 195.561404 
L 366.591892 195.494859 
L 366.789456 195.428474 
L 367.064276 195.164507 
L 367.18143 195.098905 
L 367.337056 195.033458 
L 367.530668 194.968164 
L 367.723265 194.838036 
L 367.838341 194.7732 
L 368.029337 194.64398 
L 368.332883 194.579594 
L 368.596445 194.323534 
L 368.746208 194.259886 
L 369.08096 193.88103 
L 369.265625 193.818387 
L 369.449367 193.693522 
L 369.632196 193.6313 
L 369.81412 193.507272 
L 370.06731 193.445464 
L 370.211211 193.383794 
L 370.318769 193.322261 
L 370.461691 193.260864 
L 370.639567 193.199602 
L 371.027889 192.714308 
L 371.168087 192.654239 
L 371.377385 192.474804 
L 371.620071 192.415249 
L 371.82682 192.237347 
L 371.998227 192.178298 
L 372.236862 191.943351 
L 372.473958 191.884924 
L 372.642381 191.768436 
L 372.810037 191.710375 
L 373.043477 191.479335 
L 373.275445 191.421874 
L 373.473116 191.250201 
L 373.571554 191.193212 
L 373.735035 191.079583 
L 373.962693 191.022942 
L 374.285494 190.629657 
L 374.381784 190.573925 
L 374.541709 190.518305 
L 374.700941 190.407397 
L 374.891115 190.29693 
L 375.048844 190.186901 
L 375.268535 190.02267 
L 375.486921 189.91372 
L 375.734927 189.697092 
L 375.889086 189.589409 
L 376.073227 189.482141 
L 376.378093 189.375286 
L 376.559807 189.26884 
L 376.770678 189.162801 
L 376.950467 189.057164 
L 377.099622 188.951928 
L 377.307428 188.794817 
L 377.39613 188.690568 
L 377.602271 188.534925 
L 378.184958 188.431645 
L 378.386736 188.277441 
L 378.900565 188.175112 
L 379.070258 188.073158 
L 379.182953 187.971577 
L 379.407312 187.769523 
L 379.741304 187.669045 
L 379.879577 187.618941 
L 380.291303 187.519005 
L 380.427527 187.469171 
L 380.536143 187.369771 
L 380.698469 187.270725 
L 380.96743 187.172031 
L 381.154538 187.024644 
L 381.393715 186.926819 
L 381.631347 186.683753 
L 381.841293 186.587118 
L 381.99797 186.490819 
L 382.128026 186.394852 
L 382.257623 186.346993 
L 382.489753 186.251521 
L 382.771492 185.919929 
L 382.975045 185.825911 
L 383.126974 185.73221 
L 383.653835 185.638824 
L 383.827791 185.545751 
L 384.099498 185.452989 
L 384.344774 185.222429 
L 384.491158 185.130738 
L 384.709647 184.948259 
L 384.926845 184.857467 
L 385.214461 184.542011 
L 385.452434 184.452535 
L 385.64171 184.318859 
L 386.226994 184.230097 
L 386.458523 184.009426 
L 386.734447 183.921646 
L 386.871637 183.87786 
L 387.121829 183.790494 
L 387.28016 183.703402 
L 387.347808 183.616583 
L 387.482732 183.573274 
L 387.706511 183.486859 
L 387.884558 183.357739 
L 387.951105 183.271991 
L 388.150023 183.101285 
L 388.303997 183.016324 
L 388.501021 182.847177 
L 388.675271 182.762988 
L 388.891929 182.553625 
L 389.214541 182.47032 
L 389.449336 182.221892 
L 389.534346 182.139574 
L 389.682642 182.057499 
L 390.040318 181.975666 
L 390.228277 181.812719 
L 390.373806 181.731603 
L 390.539422 181.650723 
L 390.683727 181.570077 
L 391.031841 181.130664 
L 391.113273 181.051512 
L 391.29584 180.933205 
L 391.638233 180.854613 
L 391.818217 180.73714 
L 392.017172 180.6591 
L 392.175564 180.581278 
L 392.451119 180.503674 
L 392.627177 180.387672 
L 392.744083 180.310606 
L 392.938103 180.157112 
L 393.07331 180.080682 
L 393.399616 179.664034 
L 393.552175 179.588947 
L 393.760916 179.402112 
L 393.949657 179.327728 
L 394.137435 179.179555 
L 394.342888 179.068942 
L 394.584226 178.812544 
L 394.676628 178.70338 
L 394.915792 178.450318 
L 395.298877 178.342565 
L 395.461843 178.235228 
L 395.713917 178.128305 
L 395.964275 177.84517 
L 396.195234 177.739734 
L 396.424751 177.530055 
L 396.565283 177.425806 
L 396.879531 177.046872 
L 397.156625 176.944418 
L 397.465879 176.571949 
L 397.772555 176.471228 
L 397.958716 176.337498 
L 398.160731 176.237621 
L 398.311518 176.171236 
L 398.4117 176.071954 
L 398.677524 175.77622 
L 398.892101 175.678337 
L 399.056312 175.580798 
L 399.415014 175.483601 
L 399.609205 175.322356 
L 399.898582 175.226057 
L 400.058368 175.13009 
L 400.439045 175.034454 
L 400.565067 175.002648 
L 400.674982 174.907449 
L 400.815821 174.844163 
L 401.018307 174.749505 
L 401.15784 174.686577 
L 401.281426 174.592453 
L 401.466029 174.467448 
L 401.64971 174.374062 
L 401.817282 174.280989 
L 402.089853 174.188226 
L 402.285462 174.034307 
L 402.494959 173.942364 
L 402.68843 173.789797 
L 402.866119 173.698657 
L 403.072343 173.517271 
L 403.218941 173.427019 
L 403.379526 173.33706 
L 403.61186 173.247392 
L 403.785152 173.128282 
L 403.842735 173.039283 
L 404.000625 172.950569 
L 404.2006 172.862137 
L 404.413659 172.656884 
L 404.526787 172.569381 
L 404.766036 172.308512 
L 404.975852 172.222097 
L 405.142848 172.107294 
L 405.322907 172.021502 
L 405.44705 171.992964 
L 405.63933 171.907523 
L 405.830611 171.765704 
L 406.007341 171.680959 
L 406.250652 171.428263 
L 406.465584 171.344539 
L 406.625962 171.261067 
L 406.812191 171.150159 
L 407.023875 170.95713 
L 407.247461 170.847427 
L 407.482727 170.602167 
L 407.65171 170.493853 
L 407.807008 170.412895 
L 408.000213 170.305315 
L 408.154049 170.224903 
L 408.358167 170.118048 
L 408.548504 169.958532 
L 408.813332 169.852694 
L 408.98883 169.720962 
L 409.188378 169.616024 
L 409.349718 169.511481 
L 409.707098 169.407329 
L 409.866182 169.329471 
L 410.121719 169.225999 
L 410.363447 168.968991 
L 410.675336 168.86685 
L 410.854076 168.7397 
L 411.373423 168.638397 
L 411.513798 168.587884 
L 411.73497 168.487132 
L 411.873975 168.436892 
L 412.115976 168.336685 
L 412.402011 167.964096 
L 412.843828 167.865577 
L 413.023562 167.718451 
L 413.146622 167.620797 
L 413.313769 167.499212 
L 413.535456 167.402325 
L 413.700849 167.305774 
L 413.865501 167.209558 
L 414.007605 167.161575 
L 414.333457 167.065856 
L 414.538346 166.875403 
L 414.774169 166.780663 
L 414.923454 166.70982 
L 415.103917 166.615643 
L 415.2835 166.474972 
L 415.493656 166.381586 
L 415.629616 166.335011 
L 415.858563 166.242093 
L 416.034506 166.103297 
L 416.20961 166.01115 
L 416.373656 165.896394 
L 416.618361 165.80493 
L 416.810937 165.645588 
L 416.952192 165.554944 
L 417.12299 165.442053 
L 417.312948 165.35207 
L 417.482082 165.239999 
L 417.601005 165.150667 
L 417.77867 165.017205 
L 418.160691 164.906474 
L 418.316276 164.818206 
L 418.451875 164.708264 
L 418.615862 164.598755 
L 418.731179 164.489676 
L 418.922573 164.316036 
L 419.150938 164.20806 
L 419.321286 164.079039 
L 419.650276 163.971978 
L 419.827646 163.822783 
L 419.920656 163.716703 
L 420.05973 163.674384 
L 420.189061 163.568868 
L 420.400549 163.35903 
L 420.546958 163.254703 
L 420.720064 163.130025 
L 420.910448 163.026553 
L 421.099851 162.861794 
L 421.252466 162.759314 
L 421.395528 162.698007 
L 421.50246 162.596128 
L 421.662277 162.494622 
L 421.891904 162.393485 
L 422.058806 162.272604 
L 422.338203 162.172271 
L 422.494436 162.072298 
L 422.632755 161.972684 
L 422.787743 161.893249 
L 423.001927 161.794274 
L 423.197881 161.617002 
L 423.418143 161.519005 
L 423.56145 161.460372 
L 423.821346 161.362924 
L 423.946446 161.343475 
L 424.671912 161.246436 
L 424.810424 161.188375 
L 425.005086 161.091875 
L 425.150409 161.014915 
L 425.311209 160.919015 
L 425.503244 160.747224 
L 425.931692 160.652242 
L 426.057686 160.633284 
L 426.4331 160.53869 
L 426.580648 160.463245 
L 426.966128 160.369227 
L 427.103917 160.312969 
L 427.529322 160.219457 
L 427.680068 160.126259 
L 428.024454 160.033373 
L 428.210277 159.866955 
L 428.681746 159.756562 
L 428.827849 159.683209 
L 428.937046 159.573542 
L 429.11109 159.427989 
L 429.413699 159.319323 
L 429.54263 159.283195 
L 429.742294 159.175093 
L 429.898416 159.067409 
L 430.565071 158.960141 
L 430.717745 158.871067 
L 430.966217 158.764553 
L 431.103534 158.711449 
L 431.532763 158.605544 
L 431.674732 158.535164 
L 431.930245 158.429928 
L 432.077365 158.342535 
L 432.237192 158.238024 
L 432.376473 158.168569 
L 432.574534 158.064709 
L 432.738774 157.944029 
L 432.86964 157.841004 
L 433.026067 157.73836 
L 433.240073 157.636094 
L 433.44641 157.398926 
L 433.517072 157.297899 
L 433.65799 157.230752 
L 433.785631 157.130333 
L 433.94456 157.013636 
L 434.128062 156.913998 
L 434.310653 156.732252 
L 434.398476 156.633616 
L 434.604663 156.404819 
L 434.760099 156.307337 
L 434.896341 156.258724 
L 435.075165 156.161753 
L 435.271484 155.952802 
L 435.375353 155.85689 
L 435.551868 155.69777 
L 435.661004 155.586925 
L 435.812047 155.492267 
L 435.956466 155.382238 
L 436.094338 155.319559 
L 436.237655 155.21021 
L 436.410087 155.070249 
L 436.676064 154.961875 
L 436.846458 154.823156 
L 436.975197 154.71574 
L 437.173275 154.502146 
L 437.295087 154.395962 
L 437.474169 154.229916 
L 437.606476 154.124766 
L 437.744029 154.064858 
L 437.881069 153.960328 
L 438.017601 153.900774 
L 438.187555 153.796859 
L 438.379225 153.604899 
L 438.609035 153.502083 
L 438.759593 153.414257 
L 439.097489 153.312143 
L 439.257046 153.195899 
L 439.437772 153.094583 
L 439.579539 153.022439 
L 439.747858 152.921753 
L 439.899228 152.82143 
L 440.22151 152.721467 
L 440.392246 152.579285 
L 440.572787 152.480189 
L 440.752447 152.311128 
L 440.894495 152.212982 
L 441.046456 152.115181 
L 441.192584 152.017724 
L 441.338133 151.93446 
L 441.472772 151.823828 
L 441.642953 151.686155 
L 441.766228 151.576506 
L 441.919743 151.480917 
L 442.082788 151.372073 
L 442.224863 151.304262 
L 442.416804 151.196107 
L 442.562614 151.115266 
L 442.652827 151.007842 
L 442.792719 150.940913 
L 442.991647 150.83416 
L 443.130259 150.767648 
L 443.322459 150.661558 
L 443.474519 150.56906 
L 443.684406 150.463724 
L 443.815586 150.424326 
L 444.081365 150.319536 
L 444.220733 150.254243 
L 444.402558 150.150091 
L 444.545471 150.072233 
L 444.994399 149.968761 
L 445.135034 149.904286 
L 445.410057 149.801436 
L 445.558367 149.711753 
L 445.802695 149.609612 
L 445.935701 149.558682 
L 446.218453 149.457102 
L 446.368068 149.368522 
L 446.692403 149.267633 
L 446.822234 149.229894 
L 446.964965 149.129506 
L 447.093839 149.091954 
L 447.385465 148.992062 
L 447.508489 148.967145 
L 447.722797 148.8677 
L 447.849046 148.842895 
L 448.05274 148.743893 
L 448.233815 148.559211 
L 448.482414 148.448987 
L 448.614599 148.400139 
L 448.831037 148.290544 
L 448.970409 148.21772 
L 449.197339 148.108841 
L 449.335332 148.048536 
L 449.680133 147.940317 
L 449.841038 147.808618 
L 450.099483 147.701328 
L 450.23821 147.63003 
L 450.546426 147.523425 
L 450.671408 147.499791 
L 451.035854 147.393684 
L 451.159186 147.370159 
L 451.510986 147.264545 
L 451.640577 147.217734 
L 452.014995 147.112697 
L 452.15829 147.031275 
L 452.335666 146.926939 
L 452.473886 146.857599 
L 452.691679 146.753912 
L 452.836161 146.662069 
L 453.044279 146.559108 
L 453.191142 146.467907 
L 453.371096 146.365661 
L 453.498033 146.331663 
L 453.794989 146.229917 
L 453.931524 146.162292 
L 454.13355 146.061163 
L 454.290728 145.926895 
L 454.577756 145.826618 
L 454.704208 145.793272 
L 454.998775 145.682409 
L 455.134485 145.616103 
L 455.269696 145.505943 
L 455.415027 145.407171 
L 455.616121 145.297834 
L 455.760091 145.210674 
L 455.938393 145.102107 
L 456.07416 145.03717 
L 456.357994 144.929277 
L 456.502528 144.83253 
L 456.667018 144.725428 
L 456.803532 144.661364 
L 456.932753 144.554918 
L 457.085193 144.438297 
L 457.297553 144.332701 
L 457.43175 144.269535 
L 457.75184 144.164578 
L 457.90754 144.039149 
L 458.200582 143.935056 
L 458.341332 143.852062 
L 458.640673 143.748667 
L 458.786208 143.655939 
L 459.03711 143.553269 
L 459.193857 143.420364 
L 459.438832 143.31856 
L 459.578088 143.237384 
L 459.902026 143.136247 
L 460.045781 143.045537 
L 460.188975 142.935071 
L 460.328519 142.855006 
L 460.504518 142.745293 
L 460.636734 142.685632 
L 460.8967 142.576584 
L 461.042697 142.47782 
L 461.212297 142.369583 
L 461.363067 142.251986 
L 461.543178 142.144624 
L 461.671718 142.09596 
L 462.104831 141.989198 
L 462.25493 141.873197 
L 462.489151 141.767286 
L 462.626063 141.690512 
L 462.961808 141.585294 
L 463.099845 141.509022 
L 463.325909 141.404487 
L 463.468273 141.309796 
L 463.734433 141.206008 
L 463.866794 141.149559 
L 464.180299 141.046366 
L 464.305513 141.008936 
L 464.513258 140.906263 
L 464.686862 140.711298 
L 464.985302 140.600501 
L 465.140407 140.462624 
L 465.354302 140.352812 
L 465.521301 140.179826 
L 465.698245 140.071124 
L 465.829064 140.016933 
L 466.062841 139.908865 
L 466.210839 139.792264 
L 466.484121 139.685066 
L 466.640864 139.542774 
L 466.846229 139.436532 
L 466.991113 139.330694 
L 467.289424 139.225259 
L 467.419817 139.17269 
L 467.666549 139.067851 
L 467.805716 138.980787 
L 467.964481 138.876668 
L 468.100022 138.807471 
L 468.357177 138.703999 
L 468.501195 138.60091 
L 468.772793 138.498203 
L 468.917645 138.395874 
L 469.431057 138.285441 
L 469.563715 138.2177 
L 469.834774 138.107972 
L 469.977891 138.007067 
L 470.186794 137.898166 
L 470.349766 137.723146 
L 470.59639 137.61535 
L 470.734246 137.532713 
L 470.962092 137.425652 
L 471.082418 137.401004 
L 471.425036 137.294448 
L 471.548422 137.261744 
L 471.771293 137.15572 
L 471.927405 137.001486 
L 472.136775 136.896449 
L 472.284639 136.775744 
L 472.436365 136.671555 
L 472.569723 136.599652 
L 472.771064 136.49612 
L 472.918603 136.377138 
L 473.069929 136.266546 
L 473.211915 136.164246 
L 473.349011 136.054496 
L 473.485598 135.976368 
L 473.725023 135.867357 
L 473.86879 135.758771 
L 474.144022 135.650608 
L 474.277692 135.581297 
L 474.535172 135.473822 
L 474.661143 135.427888 
L 475.065521 135.321003 
L 475.202085 135.23731 
L 475.430623 135.131155 
L 475.563795 135.063126 
L 475.82464 134.957633 
L 475.958418 134.882525 
L 476.262669 134.777714 
L 476.402862 134.680743 
L 476.494699 134.576689 
L 476.626066 134.510002 
L 476.818288 134.399213 
L 476.964258 134.281522 
L 477.283758 134.171638 
L 477.414285 134.11321 
L 477.579215 134.003988 
L 477.722201 133.895194 
L 477.998861 133.786825 
L 478.147853 133.657337 
L 478.256352 133.549889 
L 478.404307 133.421498 
L 478.485618 133.314957 
L 478.628892 133.201762 
L 478.814692 133.096059 
L 478.958557 132.98375 
L 479.150123 132.878871 
L 479.283443 132.809172 
L 479.506412 132.704949 
L 479.649431 132.594207 
L 479.830157 132.483905 
L 479.97918 132.353487 
L 480.100495 132.244135 
L 480.244827 132.128417 
L 480.433407 132.019946 
L 480.58893 131.864755 
L 480.713587 131.757306 
L 480.857308 131.643595 
L 481.019868 131.536996 
L 481.167667 131.410939 
L 481.318372 131.305227 
L 481.454526 131.219631 
L 481.631816 131.114644 
L 481.756449 131.075375 
L 482.151775 130.964416 
L 482.284883 130.892854 
L 482.547971 130.782619 
L 482.676284 130.730895 
L 482.859533 130.6213 
L 482.990108 130.557033 
L 483.294648 130.448121 
L 483.436898 130.339633 
L 483.68206 130.231568 
L 483.817921 130.149212 
L 484.057317 130.041883 
L 484.193419 129.953805 
L 484.443243 129.847227 
L 484.581126 129.753526 
L 484.712117 129.647713 
L 484.844231 129.579459 
L 485.004359 129.474305 
L 485.144886 129.369547 
L 485.347622 129.259056 
L 485.486846 129.161209 
L 485.763722 129.051542 
L 485.910644 128.924142 
L 486.115353 128.815405 
L 486.265465 128.671081 
L 486.422578 128.563327 
L 486.571444 128.426248 
L 486.751403 128.319439 
L 486.876401 128.278012 
L 487.042906 128.17177 
L 487.186304 128.054198 
L 487.42999 127.948806 
L 487.564513 127.86711 
L 487.833555 127.756621 
L 487.965152 127.687063 
L 488.166024 127.577286 
L 488.302224 127.490925 
L 488.5329 127.381918 
L 488.660589 127.324718 
L 488.813519 127.21636 
L 488.95303 127.114094 
L 489.069358 127.006553 
L 489.210725 126.899426 
L 489.352957 126.792712 
L 489.486238 126.714341 
L 489.678991 126.608334 
L 489.822201 126.491636 
L 490.160622 126.380949 
L 490.286902 126.331284 
L 490.468696 126.221233 
L 490.600718 126.149933 
L 490.803947 126.040596 
L 490.926694 126.00243 
L 491.203056 125.893672 
L 491.32448 125.861127 
L 491.605812 125.752919 
L 491.736455 125.682809 
L 492.019893 125.575293 
L 492.150378 125.505629 
L 492.350424 125.398794 
L 492.491359 125.287058 
L 492.643326 125.181059 
L 492.774182 125.112376 
L 492.931362 125.001784 
L 493.06374 124.923058 
L 493.24625 124.813215 
L 493.378761 124.735021 
L 493.50452 124.625918 
L 493.64486 124.517242 
L 493.810822 124.408989 
L 493.967361 124.229499 
L 494.104715 124.122359 
L 494.25386 123.97508 
L 494.370535 123.868916 
L 494.527156 123.692871 
L 494.652704 123.582782 
L 494.799648 123.448267 
L 494.927894 123.339141 
L 495.062915 123.250174 
L 495.222612 123.141823 
L 495.350588 123.0829 
L 495.450744 122.975197 
L 495.592166 122.863044 
L 495.772018 122.756188 
L 495.902804 122.688403 
L 496.118583 122.577399 
L 496.265617 122.438067 
L 496.417866 122.328056 
L 496.557934 122.21848 
L 496.700924 122.109334 
L 496.850237 121.9629 
L 497.032039 121.854752 
L 497.165246 121.775086 
L 497.407647 121.667665 
L 497.536127 121.607132 
L 497.705619 121.500357 
L 497.846454 121.389375 
L 498.034508 121.278835 
L 498.169668 121.191635 
L 498.258028 121.081878 
L 498.397865 120.972552 
L 498.56344 120.863655 
L 498.702122 120.759695 
L 498.838112 120.651627 
L 498.995233 120.472444 
L 499.253829 120.365486 
L 499.384587 120.294408 
L 499.741264 120.183713 
L 499.869248 120.126325 
L 500.133323 120.016296 
L 500.274575 119.902326 
L 500.594821 119.793179 
L 500.719873 119.745289 
L 500.931797 119.636756 
L 501.068998 119.537278 
L 501.209761 119.429553 
L 501.344916 119.339385 
L 501.566388 119.232423 
L 501.691199 119.18549 
L 501.945544 119.074871 
L 502.071065 119.023965 
L 502.291184 118.913986 
L 502.424399 118.829682 
L 502.57087 118.720468 
L 502.700145 118.653472 
L 502.911681 118.544947 
L 503.038796 118.486686 
L 503.356114 118.378809 
L 503.487446 118.30024 
L 503.665956 118.193084 
L 503.788596 118.15198 
L 504.029826 118.041301 
L 504.148441 118.020854 
L 504.38733 117.910695 
L 504.527131 117.796916 
L 504.771897 117.687641 
L 504.898277 117.631148 
L 505.191789 117.522521 
L 505.323108 117.442329 
L 505.615068 117.334437 
L 505.749386 117.242857 
L 506.044242 117.131776 
L 506.186787 117.001425 
L 506.352689 116.891303 
L 506.474641 116.852079 
L 506.742746 116.742545 
L 506.864286 116.70743 
L 507.133909 116.598464 
L 507.266255 116.513147 
L 507.421349 116.404939 
L 507.550096 116.335599 
L 507.754307 116.228079 
L 507.892932 116.113339 
L 508.099473 116.002873 
L 508.235965 115.900418 
L 508.430556 115.790793 
L 508.562492 115.707917 
L 508.882013 115.599047 
L 509.006578 115.546642 
L 509.164358 115.438401 
L 509.292057 115.371429 
L 509.611809 115.263868 
L 509.75895 115.108824 
L 509.91113 114.998605 
L 510.050678 114.877868 
L 510.219989 114.768561 
L 510.359959 114.648817 
L 510.507305 114.540405 
L 510.636734 114.468365 
L 511.035563 114.360653 
L 511.155383 114.332001 
L 511.465561 114.22125 
L 511.581687 114.206992 
L 511.842589 114.096737 
L 511.965891 114.050631 
L 512.231634 113.940994 
L 512.363413 113.852891 
L 512.428751 113.744031 
L 512.561322 113.653056 
L 512.773785 113.544973 
L 512.896972 113.499773 
L 513.089826 113.388824 
L 513.209756 113.3577 
L 513.538836 113.247315 
L 513.660216 113.209472 
L 513.950046 113.099673 
L 514.070078 113.06545 
L 514.370234 112.956219 
L 514.492451 112.911966 
L 514.789192 112.803335 
L 514.914235 112.745797 
L 515.206213 112.637813 
L 515.347179 112.50342 
L 515.506244 112.393033 
L 515.641254 112.286408 
L 515.822324 112.176879 
L 515.971856 112.001866 
L 516.103133 111.893451 
L 516.250177 111.729986 
L 516.424242 111.619377 
L 516.564646 111.486579 
L 516.771252 111.376933 
L 516.894395 111.328697 
L 517.289648 111.219671 
L 517.433996 111.066477 
L 517.567341 110.958473 
L 517.703455 110.84773 
L 517.84101 110.737426 
L 517.98902 110.568098 
L 518.114586 110.458896 
L 518.254457 110.328419 
L 518.42377 110.220154 
L 518.542145 110.195467 
L 518.905696 110.084645 
L 519.034445 110.007945 
L 519.155247 109.897867 
L 519.286241 109.80951 
L 519.382007 109.700214 
L 519.506627 109.642703 
L 519.729391 109.534061 
L 519.865714 109.419841 
L 520.068646 109.309077 
L 520.202505 109.207682 
L 520.352214 109.097758 
L 520.472387 109.062201 
L 520.831166 108.95285 
L 520.964662 108.852745 
L 521.305728 108.744214 
L 521.429292 108.691568 
L 521.742222 108.580754 
L 521.868974 108.510993 
L 522.259265 108.400895 
L 522.380816 108.357555 
L 522.66591 108.248062 
L 522.790655 108.187737 
L 523.056307 108.078911 
L 523.177496 108.03607 
L 523.521485 107.924991 
L 523.64779 107.856856 
L 523.962762 107.74649 
L 524.088655 107.678791 
L 524.299515 107.569129 
L 524.425887 107.49906 
L 524.689163 107.390104 
L 524.81099 107.342744 
L 525.07632 107.234398 
L 525.205885 107.148577 
L 525.409925 107.038231 
L 525.534119 106.977727 
L 525.833403 106.868057 
L 525.959293 106.799732 
L 526.265967 106.69076 
L 526.390387 106.628294 
L 526.702154 106.517289 
L 526.824602 106.465998 
L 527.132723 106.355638 
L 527.258761 106.285881 
L 527.576204 106.176233 
L 527.704696 106.090954 
L 527.874173 105.982071 
L 528.004577 105.886817 
L 528.219103 105.776099 
L 528.339531 105.734036 
L 528.535175 105.623924 
L 528.664225 105.535104 
L 528.900844 105.425776 
L 529.028619 105.345357 
L 529.286638 105.236771 
L 529.409772 105.180062 
L 529.726128 105.069555 
L 529.850137 105.008067 
L 530.102939 104.89824 
L 530.221061 104.867668 
L 530.676089 104.758393 
L 530.794664 104.725441 
L 531.094406 104.616724 
L 531.221544 104.536093 
L 531.564242 104.425607 
L 531.686213 104.373029 
L 532.057638 104.263188 
L 532.177986 104.218377 
L 532.448425 104.109145 
L 532.568371 104.067056 
L 532.756193 103.955951 
L 532.882454 103.877213 
L 533.131974 103.766863 
L 533.258231 103.688658 
L 533.623039 103.579053 
L 533.7409 103.54747 
L 534.023903 103.43842 
L 534.148801 103.365957 
L 534.380403 103.255213 
L 534.507391 103.171245 
L 534.752291 103.061273 
L 534.872706 103.015976 
L 535.138667 102.906616 
L 535.260244 102.854465 
L 535.651322 102.743378 
L 535.76923 102.710374 
L 536.108097 102.59986 
L 536.228872 102.550624 
L 536.541746 102.440743 
L 536.659555 102.408096 
L 537.029954 102.298776 
L 537.150809 102.247753 
L 537.507972 102.136753 
L 537.627646 102.092937 
L 537.974236 101.982553 
L 538.096884 101.920654 
L 538.366168 101.810951 
L 538.489734 101.742606 
L 538.797943 101.633602 
L 538.916053 101.597362 
L 539.247868 101.486671 
L 539.364183 101.461882 
L 539.698073 101.351728 
L 539.82188 101.280026 
L 540.012661 101.17059 
L 540.135415 101.106024 
L 540.394784 100.995054 
L 540.520815 100.908804 
L 540.804896 100.798618 
L 540.926421 100.739299 
L 541.15316 100.629782 
L 541.283812 100.511986 
L 541.435143 100.401191 
L 541.563779 100.297315 
L 541.734596 100.187372 
L 541.85781 100.118609 
L 542.126766 100.009369 
L 542.245007 99.970916 
L 542.604069 99.860127 
L 542.721774 99.826127 
L 543.114357 99.715913 
L 543.232715 99.675751 
L 543.651055 99.566131 
L 543.76962 99.524085 
L 544.128109 99.41506 
L 544.245464 99.3816 
L 544.583722 99.271051 
L 544.70057 99.239843 
L 544.997883 99.129855 
L 545.115891 99.090531 
L 545.40284 98.981131 
L 545.521998 98.93379 
L 545.745218 98.822956 
L 545.864785 98.773838 
L 546.071217 98.663639 
L 546.194223 98.590415 
L 546.389585 98.48094 
L 546.510641 98.420306 
L 546.816998 98.309487 
L 546.933135 98.281349 
L 547.256671 98.171082 
L 547.376651 98.11711 
L 547.586903 98.007492 
L 547.708399 97.941927 
L 547.956188 97.83102 
L 548.082162 97.734337 
L 548.182461 97.624254 
L 548.308229 97.530242 
L 548.43695 97.420963 
L 548.557639 97.362597 
L 548.877832 97.252037 
L 549.000693 97.176644 
L 549.354465 97.066821 
L 549.47328 97.020709 
L 549.776666 96.9115 
L 549.892773 96.882832 
L 550.103161 96.772259 
L 550.22737 96.686772 
L 550.330557 96.576975 
L 550.454268 96.495853 
L 550.53447 96.384931 
L 550.654845 96.326826 
L 550.815262 96.216575 
L 550.934459 96.166267 
L 551.147103 96.05665 
L 551.271492 95.969636 
L 551.488685 95.858949 
L 551.608566 95.803771 
L 551.804246 95.693742 
L 551.927461 95.615155 
L 552.111512 95.504051 
L 552.233703 95.431436 
L 552.360048 95.321063 
L 552.48268 95.245323 
L 552.645387 95.135685 
L 552.768074 95.060447 
L 552.989328 94.949754 
L 553.114844 94.853701 
L 553.297011 94.743826 
L 553.421483 94.655533 
L 553.52444 94.544682 
L 553.65108 94.441268 
L 553.849348 94.331266 
L 553.968574 94.280777 
L 554.180572 94.169675 
L 554.300652 94.112562 
L 554.52866 94.002129 
L 554.654036 93.90586 
L 554.844852 93.796244 
L 554.965381 93.734775 
L 555.154123 93.624133 
L 555.277622 93.541015 
L 555.446845 93.43114 
L 555.564955 93.387312 
L 555.868713 93.276364 
L 555.988461 93.219381 
L 556.241838 93.109101 
L 556.361515 93.05246 
L 556.54166 92.942838 
L 556.663746 92.868344 
L 556.811691 92.757799 
L 556.931543 92.700225 
L 557.084653 92.590346 
L 557.208948 92.500469 
L 557.315343 92.38975 
L 557.446803 92.247119 
L 557.753403 92.137403 
L 557.872409 92.085921 
L 558.001678 91.975238 
L 558.125514 91.888922 
L 558.358392 91.779019 
L 558.476746 91.732958 
L 558.828477 91.622088 
L 558.945753 91.582599 
L 559.247294 91.472326 
L 559.365966 91.422061 
L 559.709124 91.312423 
L 559.82797 91.260886 
L 560.092439 91.150327 
L 560.213941 91.078931 
L 560.440504 90.969091 
L 560.557418 90.932061 
L 561.038199 90.821264 
L 561.152434 90.804375 
L 561.430145 90.694085 
L 561.546326 90.661999 
L 562.047527 90.552272 
L 562.165851 90.502125 
L 562.474531 90.391514 
L 562.590532 90.359775 
L 562.932176 90.249728 
L 563.047881 90.219654 
L 563.50279 90.108663 
L 563.618767 90.075751 
L 563.872598 89.965332 
L 563.993876 89.889487 
L 564.198549 89.779804 
L 564.314733 89.744324 
L 564.739861 89.63374 
L 564.856694 89.592568 
L 565.142243 89.482585 
L 565.259055 89.441636 
L 565.526995 89.330793 
L 565.647533 89.259562 
L 566.018502 89.149441 
L 566.138661 89.080115 
L 566.487661 88.969265 
L 566.603721 88.933369 
L 566.92365 88.823102 
L 567.041741 88.770271 
L 567.476788 88.659227 
L 567.592617 88.625149 
L 567.803555 88.514683 
L 567.924829 88.434234 
L 568.143934 88.324522 
L 568.261135 88.278236 
L 568.368296 88.167741 
L 568.493768 88.050734 
L 568.650699 87.939754 
L 568.771485 87.863712 
L 568.972078 87.753475 
L 569.090368 87.698521 
L 569.32709 87.587569 
L 569.44886 87.501579 
L 569.684083 87.39141 
L 569.802157 87.337166 
L 570.091628 87.226296 
L 570.208403 87.18315 
L 570.47088 87.072892 
L 570.588001 87.025963 
L 570.825114 86.914992 
L 570.944322 86.849686 
L 571.258465 86.739414 
L 571.372654 86.718208 
L 571.694852 86.607136 
L 571.812023 86.55967 
L 572.089707 86.449229 
L 572.209172 86.381081 
L 572.594189 86.270043 
L 572.71363 86.201031 
L 572.953234 86.090709 
L 573.070363 86.042823 
L 573.264083 85.931838 
L 573.378797 85.904805 
L 573.946778 85.794369 
L 574.062193 85.761067 
L 574.506535 85.6512 
L 574.620623 85.629533 
L 575.06377 85.518915 
L 575.18091 85.468203 
L 575.507444 85.358224 
L 575.621835 85.333003 
L 575.904199 85.222302 
L 576.021756 85.167116 
L 576.239879 85.057072 
L 576.357293 85.003458 
L 576.651488 84.892819 
L 576.767205 84.854384 
L 576.938804 84.744336 
L 577.056081 84.691322 
L 577.399274 84.580689 
L 577.514455 84.54636 
L 577.831 84.436301 
L 577.946859 84.396056 
L 578.200319 84.285376 
L 578.318022 84.227173 
L 578.757935 84.117163 
L 578.871776 84.095454 
L 579.273982 83.984763 
L 579.390124 83.94037 
L 579.703032 83.830293 
L 579.820709 83.770652 
L 580.063166 83.660057 
L 580.18564 83.552266 
L 580.469599 83.441358 
L 580.592491 83.328546 
L 580.801311 83.218526 
L 580.916579 83.182338 
L 581.342649 83.071733 
L 581.459218 83.021814 
L 581.695019 82.911844 
L 581.812525 82.851834 
L 581.981294 82.741386 
L 582.098905 82.680597 
L 582.452739 82.569684 
L 582.569188 82.519519 
L 582.784715 82.409247 
L 582.901223 82.358238 
L 583.371007 82.247475 
L 583.484154 82.231688 
L 583.691698 82.121427 
L 583.809679 82.055256 
L 584.014756 81.944576 
L 584.130959 81.896639 
L 584.491863 81.786588 
L 584.608255 81.735601 
L 584.958579 81.625082 
L 585.07517 81.572188 
L 585.256251 81.461219 
L 585.371491 81.421773 
L 585.850167 81.311402 
L 585.965797 81.267812 
L 586.203337 81.156965 
L 586.319674 81.104954 
L 586.878074 80.994754 
L 586.991904 80.969965 
L 587.27421 80.859225 
L 587.390827 80.803484 
L 587.598876 80.693404 
L 587.716405 80.627352 
L 588.007347 80.516907 
L 588.124345 80.45656 
L 588.342386 80.345737 
L 588.457187 80.308894 
L 588.87702 80.198656 
L 588.991008 80.171427 
L 589.157187 80.06069 
L 589.274858 79.991964 
L 589.478726 79.880903 
L 589.594822 79.829157 
L 589.880182 79.718744 
L 589.995565 79.674495 
L 590.253906 79.563669 
L 590.368124 79.532963 
L 590.856965 79.422699 
L 590.97243 79.376885 
L 591.360617 79.266224 
L 591.475299 79.228761 
L 591.75967 79.11768 
L 591.874932 79.073371 
L 592.164647 78.962909 
L 592.280701 78.909842 
L 592.601682 78.79903 
L 592.717973 78.742298 
L 593.124289 78.632151 
L 593.238607 78.5985 
L 593.509545 78.487935 
L 593.624487 78.446586 
L 593.95492 78.335643 
L 594.068399 78.311158 
L 594.471824 78.200754 
L 594.586211 78.165673 
L 594.934413 78.054874 
L 595.049355 78.012227 
L 595.312988 77.902037 
L 595.431621 77.814391 
L 595.627403 77.704024 
L 595.740981 77.678175 
L 596.07862 77.567393 
L 596.192198 77.540719 
L 596.631792 77.430482 
L 596.748978 77.358495 
L 597.020893 77.248036 
L 597.135723 77.205668 
L 597.359845 77.094877 
L 597.482606 76.951878 
L 597.570466 76.841164 
L 597.685293 76.798485 
L 597.9273 76.687455 
L 598.042263 76.643167 
L 598.328325 76.532756 
L 598.442693 76.495132 
L 598.875135 76.384392 
L 598.992306 76.310507 
L 599.735527 76.199592 
L 599.848392 76.180545 
L 600.476135 76.070146 
L 600.592209 76.008803 
L 601.252669 75.898186 
L 601.366054 75.871273 
L 602.175337 75.760308 
L 602.287741 75.746022 
L 602.827654 75.635556 
L 602.940643 75.613337 
L 603.372404 75.502511 
L 603.486383 75.466256 
L 603.710966 75.356014 
L 603.82665 75.295347 
L 604.121063 75.184905 
L 604.23806 75.105413 
L 604.482666 74.994853 
L 604.599376 74.919368 
L 604.844757 74.808681 
L 604.967653 74.64519 
L 605.180384 74.534733 
L 605.293944 74.503133 
L 605.908284 74.392389 
L 606.021739 74.361799 
L 606.470638 74.250769 
L 606.583938 74.222025 
L 606.983037 74.111552 
L 607.097001 74.072863 
L 607.389816 73.962143 
L 607.503488 73.927843 
L 608.136264 73.816865 
L 608.24904 73.795222 
L 608.964892 73.684772 
L 609.078463 73.650812 
L 609.471665 73.540108 
L 609.5863 73.489036 
L 609.950611 73.378155 
L 610.064661 73.335563 
L 610.458413 73.224476 
L 610.573709 73.162591 
L 610.744218 73.052192 
L 610.859396 72.991497 
L 611.124855 72.88097 
L 611.242475 72.78211 
L 611.556306 72.671612 
L 611.670234 72.630089 
L 612.063927 72.519397 
L 612.178087 72.474133 
L 612.498132 72.363269 
L 612.61543 72.267019 
L 612.91683 72.156193 
L 613.032315 72.088814 
L 613.227004 71.977915 
L 613.340846 71.936637 
L 613.541155 71.825568 
L 613.656276 71.763625 
L 613.904636 71.653244 
L 614.019668 71.592452 
L 614.340477 71.481983 
L 614.453735 71.449845 
L 614.724985 71.339178 
L 614.838131 71.308726 
L 615.235089 71.197861 
L 615.348277 71.166807 
L 615.739884 71.055752 
L 615.853558 71.01582 
L 616.227054 70.905365 
L 616.339545 70.885126 
L 616.655451 70.774442 
L 616.768354 70.74684 
L 617.092546 70.635962 
L 617.206548 70.589213 
L 617.58428 70.478223 
L 617.697541 70.444275 
L 618.072662 70.333861 
L 618.186122 70.295686 
L 618.497306 70.185129 
L 618.611219 70.139132 
L 618.847792 70.028469 
L 618.961537 69.984907 
L 619.215034 69.874132 
L 619.328633 69.832976 
L 619.616392 69.722086 
L 619.731355 69.656767 
L 619.993221 69.545862 
L 620.107013 69.500911 
L 620.484471 69.389915 
L 620.597348 69.360817 
L 620.944036 69.250378 
L 621.057938 69.203081 
L 621.499311 69.092564 
L 621.611816 69.070092 
L 622.038637 68.959403 
L 622.153225 68.897943 
L 622.471884 68.787241 
L 622.589182 68.675595 
L 622.636364 68.613378 
L 622.636364 68.613378 
" style="fill:none;stroke:#ff7f0e;stroke-linecap:square;stroke-width:1.5;"/>
   </g>
   <g id="patch_3">
    <path d="M 90 378 
L 90 51.84 
" style="fill:none;stroke:#000000;stroke-linecap:square;stroke-linejoin:miter;stroke-width:0.8;"/>
   </g>
   <g id="patch_4">
    <path d="M 648 378 
L 648 51.84 
" style="fill:none;stroke:#000000;stroke-linecap:square;stroke-linejoin:miter;stroke-width:0.8;"/>
   </g>
   <g id="patch_5">
    <path d="M 90 378 
L 648 378 
" style="fill:none;stroke:#000000;stroke-linecap:square;stroke-linejoin:miter;stroke-width:0.8;"/>
   </g>
   <g id="patch_6">
    <path d="M 90 51.84 
L 648 51.84 
" style="fill:none;stroke:#000000;stroke-linecap:square;stroke-linejoin:miter;stroke-width:0.8;"/>
   </g>
   <g id="text_15">
    <!-- Heaps' law Brown Corpus, log scale with fit -->
    <defs>
     <path d="M 9.8125 72.90625 
L 19.671875 72.90625 
L 19.671875 43.015625 
L 55.515625 43.015625 
L 55.515625 72.90625 
L 65.375 72.90625 
L 65.375 0 
L 55.515625 0 
L 55.515625 34.71875 
L 19.671875 34.71875 
L 19.671875 0 
L 9.8125 0 
z
" id="DejaVuSans-48"/>
     <path d="M 34.28125 27.484375 
Q 23.390625 27.484375 19.1875 25 
Q 14.984375 22.515625 14.984375 16.5 
Q 14.984375 11.71875 18.140625 8.90625 
Q 21.296875 6.109375 26.703125 6.109375 
Q 34.1875 6.109375 38.703125 11.40625 
Q 43.21875 16.703125 43.21875 25.484375 
L 43.21875 27.484375 
z
M 52.203125 31.203125 
L 52.203125 0 
L 43.21875 0 
L 43.21875 8.296875 
Q 40.140625 3.328125 35.546875 0.953125 
Q 30.953125 -1.421875 24.3125 -1.421875 
Q 15.921875 -1.421875 10.953125 3.296875 
Q 6 8.015625 6 15.921875 
Q 6 25.140625 12.171875 29.828125 
Q 18.359375 34.515625 30.609375 34.515625 
L 43.21875 34.515625 
L 43.21875 35.40625 
Q 43.21875 41.609375 39.140625 45 
Q 35.0625 48.390625 27.6875 48.390625 
Q 23 48.390625 18.546875 47.265625 
Q 14.109375 46.140625 10.015625 43.890625 
L 10.015625 52.203125 
Q 14.9375 54.109375 19.578125 55.046875 
Q 24.21875 56 28.609375 56 
Q 40.484375 56 46.34375 49.84375 
Q 52.203125 43.703125 52.203125 31.203125 
" id="DejaVuSans-61"/>
     <path d="M 17.921875 72.90625 
L 17.921875 45.796875 
L 9.625 45.796875 
L 9.625 72.90625 
z
" id="DejaVuSans-27"/>
     <path d="M 9.421875 75.984375 
L 18.40625 75.984375 
L 18.40625 0 
L 9.421875 0 
z
" id="DejaVuSans-6c"/>
     <path d="M 4.203125 54.6875 
L 13.1875 54.6875 
L 24.421875 12.015625 
L 35.59375 54.6875 
L 46.1875 54.6875 
L 57.421875 12.015625 
L 68.609375 54.6875 
L 77.59375 54.6875 
L 63.28125 0 
L 52.6875 0 
L 40.921875 44.828125 
L 29.109375 0 
L 18.5 0 
z
" id="DejaVuSans-77"/>
     <path d="M 19.671875 34.8125 
L 19.671875 8.109375 
L 35.5 8.109375 
Q 43.453125 8.109375 47.28125 11.40625 
Q 51.125 14.703125 51.125 21.484375 
Q 51.125 28.328125 47.28125 31.5625 
Q 43.453125 34.8125 35.5 34.8125 
z
M 19.671875 64.796875 
L 19.671875 42.828125 
L 34.28125 42.828125 
Q 41.5 42.828125 45.03125 45.53125 
Q 48.578125 48.25 48.578125 53.8125 
Q 48.578125 59.328125 45.03125 62.0625 
Q 41.5 64.796875 34.28125 64.796875 
z
M 9.8125 72.90625 
L 35.015625 72.90625 
Q 46.296875 72.90625 52.390625 68.21875 
Q 58.5 63.53125 58.5 54.890625 
Q 58.5 48.1875 55.375 44.234375 
Q 52.25 40.28125 46.1875 39.3125 
Q 53.46875 37.75 57.5 32.78125 
Q 61.53125 27.828125 61.53125 20.40625 
Q 61.53125 10.640625 54.890625 5.3125 
Q 48.25 0 35.984375 0 
L 9.8125 0 
z
" id="DejaVuSans-42"/>
     <path d="M 41.109375 46.296875 
Q 39.59375 47.171875 37.8125 47.578125 
Q 36.03125 48 33.890625 48 
Q 26.265625 48 22.1875 43.046875 
Q 18.109375 38.09375 18.109375 28.8125 
L 18.109375 0 
L 9.078125 0 
L 9.078125 54.6875 
L 18.109375 54.6875 
L 18.109375 46.1875 
Q 20.953125 51.171875 25.484375 53.578125 
Q 30.03125 56 36.53125 56 
Q 37.453125 56 38.578125 55.875 
Q 39.703125 55.765625 41.0625 55.515625 
z
" id="DejaVuSans-72"/>
     <path d="M 64.40625 67.28125 
L 64.40625 56.890625 
Q 59.421875 61.53125 53.78125 63.8125 
Q 48.140625 66.109375 41.796875 66.109375 
Q 29.296875 66.109375 22.65625 58.46875 
Q 16.015625 50.828125 16.015625 36.375 
Q 16.015625 21.96875 22.65625 14.328125 
Q 29.296875 6.6875 41.796875 6.6875 
Q 48.140625 6.6875 53.78125 8.984375 
Q 59.421875 11.28125 64.40625 15.921875 
L 64.40625 5.609375 
Q 59.234375 2.09375 53.4375 0.328125 
Q 47.65625 -1.421875 41.21875 -1.421875 
Q 24.65625 -1.421875 15.125 8.703125 
Q 5.609375 18.84375 5.609375 36.375 
Q 5.609375 53.953125 15.125 64.078125 
Q 24.65625 74.21875 41.21875 74.21875 
Q 47.75 74.21875 53.53125 72.484375 
Q 59.328125 70.75 64.40625 67.28125 
" id="DejaVuSans-43"/>
     <path d="M 11.71875 12.40625 
L 22.015625 12.40625 
L 22.015625 4 
L 14.015625 -11.625 
L 7.71875 -11.625 
L 11.71875 4 
z
" id="DejaVuSans-2c"/>
     <path d="M 48.78125 52.59375 
L 48.78125 44.1875 
Q 44.96875 46.296875 41.140625 47.34375 
Q 37.3125 48.390625 33.40625 48.390625 
Q 24.65625 48.390625 19.8125 42.84375 
Q 14.984375 37.3125 14.984375 27.296875 
Q 14.984375 17.28125 19.8125 11.734375 
Q 24.65625 6.203125 33.40625 6.203125 
Q 37.3125 6.203125 41.140625 7.25 
Q 44.96875 8.296875 48.78125 10.40625 
L 48.78125 2.09375 
Q 45.015625 0.34375 40.984375 -0.53125 
Q 36.96875 -1.421875 32.421875 -1.421875 
Q 20.0625 -1.421875 12.78125 6.34375 
Q 5.515625 14.109375 5.515625 27.296875 
Q 5.515625 40.671875 12.859375 48.328125 
Q 20.21875 56 33.015625 56 
Q 37.15625 56 41.109375 55.140625 
Q 45.0625 54.296875 48.78125 52.59375 
" id="DejaVuSans-63"/>
     <path d="M 9.421875 54.6875 
L 18.40625 54.6875 
L 18.40625 0 
L 9.421875 0 
z
M 9.421875 75.984375 
L 18.40625 75.984375 
L 18.40625 64.59375 
L 9.421875 64.59375 
z
" id="DejaVuSans-69"/>
     <path d="M 54.890625 33.015625 
L 54.890625 0 
L 45.90625 0 
L 45.90625 32.71875 
Q 45.90625 40.484375 42.875 44.328125 
Q 39.84375 48.1875 33.796875 48.1875 
Q 26.515625 48.1875 22.3125 43.546875 
Q 18.109375 38.921875 18.109375 30.90625 
L 18.109375 0 
L 9.078125 0 
L 9.078125 75.984375 
L 18.109375 75.984375 
L 18.109375 46.1875 
Q 21.34375 51.125 25.703125 53.5625 
Q 30.078125 56 35.796875 56 
Q 45.21875 56 50.046875 50.171875 
Q 54.890625 44.34375 54.890625 33.015625 
" id="DejaVuSans-68"/>
     <path d="M 37.109375 75.984375 
L 37.109375 68.5 
L 28.515625 68.5 
Q 23.6875 68.5 21.796875 66.546875 
Q 19.921875 64.59375 19.921875 59.515625 
L 19.921875 54.6875 
L 34.71875 54.6875 
L 34.71875 47.703125 
L 19.921875 47.703125 
L 19.921875 0 
L 10.890625 0 
L 10.890625 47.703125 
L 2.296875 47.703125 
L 2.296875 54.6875 
L 10.890625 54.6875 
L 10.890625 58.5 
Q 10.890625 67.625 15.140625 71.796875 
Q 19.390625 75.984375 28.609375 75.984375 
z
" id="DejaVuSans-66"/>
    </defs>
    <g transform="translate(239.535938 45.84)scale(0.12 -0.12)">
     <use xlink:href="#DejaVuSans-48"/>
     <use x="75.195312" xlink:href="#DejaVuSans-65"/>
     <use x="136.71875" xlink:href="#DejaVuSans-61"/>
     <use x="197.998047" xlink:href="#DejaVuSans-70"/>
     <use x="261.474609" xlink:href="#DejaVuSans-73"/>
     <use x="313.574219" xlink:href="#DejaVuSans-27"/>
     <use x="341.064453" xlink:href="#DejaVuSans-20"/>
     <use x="372.851562" xlink:href="#DejaVuSans-6c"/>
     <use x="400.634766" xlink:href="#DejaVuSans-61"/>
     <use x="461.914062" xlink:href="#DejaVuSans-77"/>
     <use x="543.701172" xlink:href="#DejaVuSans-20"/>
     <use x="575.488281" xlink:href="#DejaVuSans-42"/>
     <use x="644.091797" xlink:href="#DejaVuSans-72"/>
     <use x="685.173828" xlink:href="#DejaVuSans-6f"/>
     <use x="746.355469" xlink:href="#DejaVuSans-77"/>
     <use x="828.142578" xlink:href="#DejaVuSans-6e"/>
     <use x="891.521484" xlink:href="#DejaVuSans-20"/>
     <use x="923.308594" xlink:href="#DejaVuSans-43"/>
     <use x="993.132812" xlink:href="#DejaVuSans-6f"/>
     <use x="1054.314453" xlink:href="#DejaVuSans-72"/>
     <use x="1095.427734" xlink:href="#DejaVuSans-70"/>
     <use x="1158.904297" xlink:href="#DejaVuSans-75"/>
     <use x="1222.283203" xlink:href="#DejaVuSans-73"/>
     <use x="1274.382812" xlink:href="#DejaVuSans-2c"/>
     <use x="1306.169922" xlink:href="#DejaVuSans-20"/>
     <use x="1337.957031" xlink:href="#DejaVuSans-6c"/>
     <use x="1365.740234" xlink:href="#DejaVuSans-6f"/>
     <use x="1426.921875" xlink:href="#DejaVuSans-67"/>
     <use x="1490.398438" xlink:href="#DejaVuSans-20"/>
     <use x="1522.185547" xlink:href="#DejaVuSans-73"/>
     <use x="1574.285156" xlink:href="#DejaVuSans-63"/>
     <use x="1629.265625" xlink:href="#DejaVuSans-61"/>
     <use x="1690.544922" xlink:href="#DejaVuSans-6c"/>
     <use x="1718.328125" xlink:href="#DejaVuSans-65"/>
     <use x="1779.851562" xlink:href="#DejaVuSans-20"/>
     <use x="1811.638672" xlink:href="#DejaVuSans-77"/>
     <use x="1893.425781" xlink:href="#DejaVuSans-69"/>
     <use x="1921.208984" xlink:href="#DejaVuSans-74"/>
     <use x="1960.417969" xlink:href="#DejaVuSans-68"/>
     <use x="2023.796875" xlink:href="#DejaVuSans-20"/>
     <use x="2055.583984" xlink:href="#DejaVuSans-66"/>
     <use x="2090.789062" xlink:href="#DejaVuSans-69"/>
     <use x="2118.572266" xlink:href="#DejaVuSans-74"/>
    </g>
   </g>
  </g>
 </g>
 <defs>
  <clipPath id="p5548dd9751">
   <rect height="326.16" width="558" x="90" y="51.84"/>
  </clipPath>
 </defs>
</svg>
