<?xml version="1.0" standalone="no"?>
<!DOCTYPE svg PUBLIC "-//W3C//DTD SVG 20010904//EN"
 "http://www.w3.org/TR/2001/REC-SVG-20010904/DTD/svg10.dtd">
<svg version="1.0" xmlns="http://www.w3.org/2000/svg"
 width="300.000000pt" height="300.000000pt" viewBox="0 0 300.000000 300.000000"
 preserveAspectRatio="xMidYMid meet">
<metadata>
Created by potrace 1.11, written by Peter Selinger 2001-2013
</metadata>
<g transform="translate(0.000000,300.000000) scale(0.100000,-0.100000)"
fill="#000000" stroke="none">
<path d="M0 2992 c0 -8 242 -5 265 3 6 2 -52 4 -127 4 -76 1 -138 -3 -138 -7z"/>
<path d="M408 2993 c7 -3 16 -2 19 1 4 3 -2 6 -13 5 -11 0 -14 -3 -6 -6z"/>
<path d="M1046 2778 c-3 -123 -6 -233 -6 -245 0 -13 -6 -23 -13 -23 -7 0 -22
-7 -33 -15 -16 -12 -17 -16 -4 -24 11 -8 5 -18 -30 -50 -38 -35 -43 -44 -34
-58 9 -14 8 -24 -2 -43 -7 -14 -16 -46 -19 -71 -10 -75 -17 -79 -105 -63 -41
7 -93 16 -115 19 -55 8 -74 14 -115 41 -19 12 -75 32 -123 43 -48 12 -97 25
-107 31 -10 5 -37 12 -60 15 -23 3 -58 13 -78 21 -38 17 -154 44 -184 44 -17
0 -18 -51 -18 -925 l0 -925 83 -1 c45 -1 72 -4 60 -6 -13 -2 -23 -8 -23 -13 0
-5 -27 -12 -60 -16 l-60 -7 0 -253 0 -254 1500 0 1500 0 -1 135 c-1 104 -5
139 -16 150 -17 17 -66 20 -94 5 -25 -14 -24 -3 2 18 l20 17 -23 1 c-13 0 -43
4 -68 8 -25 3 -49 7 -55 8 -5 0 -55 -2 -110 -5 -58 -3 -88 -2 -70 2 17 5 26
10 20 11 -5 1 15 7 45 13 42 9 55 16 54 29 -3 29 42 21 234 -40 l62 -20 0 93
0 93 -82 6 c-81 6 -483 26 -521 26 -17 0 -18 -2 -6 -17 10 -12 4 -11 -23 6
-21 12 -38 18 -38 13 0 -5 7 -12 15 -16 29 -11 15 -24 -24 -23 -26 2 -37 6
-34 14 3 7 12 13 20 13 12 0 12 3 -1 22 -9 12 -16 27 -16 32 0 9 319 3 588
-11 118 -6 122 -5 122 14 0 19 -10 21 -217 31 l-218 10 218 -4 217 -4 0 723 0
723 -351 2 c-333 2 -353 3 -377 22 -13 11 -33 20 -43 20 -15 0 -17 9 -16 68 2
60 -1 71 -27 108 -30 41 -118 113 -190 155 -27 15 -56 23 -93 24 -48 0 -55 3
-72 30 -10 17 -29 40 -42 51 -44 39 -144 103 -149 95 -3 -4 -36 0 -73 9 -142
35 -276 19 -392 -45 -34 -19 -67 -35 -73 -35 -9 0 -12 58 -12 210 0 199 -1
210 -19 210 -17 0 -19 -14 -25 -222z m785 -374 c14 -7 49 -38 77 -69 47 -53
73 -102 118 -228 11 -32 20 -44 25 -35 6 10 9 9 13 -2 5 -13 14 -83 15 -118 1
-8 6 -10 14 -6 9 5 9 3 -1 -7 -15 -16 -34 -19 -43 -5 -4 5 -14 6 -24 3 -19 -8
-12 -46 11 -60 23 -13 37 -77 49 -232 8 -88 13 -105 31 -105 28 0 40 24 42 80
0 31 8 69 16 85 9 17 16 35 16 41 0 22 27 36 48 25 39 -21 71 -160 52 -225
-39 -128 -53 -168 -73 -197 -30 -44 -42 -46 -45 -7 -2 18 -5 34 -7 36 -2 3 0
13 5 23 6 9 7 25 4 34 -7 18 -29 15 -29 -5 0 -22 -23 -23 -30 -1 -3 12 -11 21
-16 21 -13 0 -11 -24 4 -39 10 -10 9 -12 -3 -9 -10 2 -14 -3 -12 -14 1 -10 -5
-32 -14 -49 -10 -20 -14 -43 -10 -64 5 -24 2 -34 -9 -39 -12 -4 -13 -2 -6 12
7 14 6 18 -8 19 -14 1 -17 -4 -13 -23 3 -15 0 -24 -8 -24 -7 0 -10 -6 -7 -13
3 -8 1 -20 -4 -28 -5 -9 -9 -10 -9 -2 0 6 -9 11 -20 10 -11 -1 -20 -5 -20 -9
0 -4 -9 -8 -19 -8 -15 0 -21 8 -23 32 l-3 32 -20 -40 c-11 -21 -24 -42 -29
-46 -11 -8 -47 13 -40 24 3 4 0 8 -5 8 -6 0 -11 -7 -11 -15 0 -19 -5 -19 -35
1 -24 16 -25 16 -25 -10 0 -14 -4 -26 -9 -26 -5 0 -12 -11 -15 -25 -4 -14 -13
-25 -21 -25 -14 0 -19 -11 -16 -37 1 -6 -4 -15 -10 -19 -9 -5 -10 -2 -6 9 4
12 1 17 -9 17 -10 0 -14 -6 -11 -14 4 -9 0 -12 -13 -9 -12 3 -20 -2 -25 -16
-3 -12 -11 -19 -16 -16 -16 11 -10 -12 8 -26 9 -8 14 -9 11 -4 -3 6 -2 19 3
30 7 16 8 15 6 -10 -2 -24 -7 -31 -29 -33 -23 -3 -26 0 -22 20 4 22 4 22 -7
-2 -7 -14 -13 -29 -13 -35 -1 -5 -11 -11 -24 -11 -16 -1 -26 6 -33 22 -4 13
-11 24 -13 24 -5 0 0 -36 7 -48 3 -4 -2 -13 -10 -21 -13 -12 -14 -10 -13 10 5
53 2 60 -20 47 -11 -7 -15 -15 -9 -19 7 -4 5 -9 -5 -12 -22 -9 -28 7 -16 39 9
24 9 25 -5 14 -13 -11 -15 -8 -15 19 0 17 4 31 10 31 5 0 7 -7 4 -15 -4 -9 0
-15 10 -15 9 0 16 5 16 11 0 5 5 7 10 4 14 -9 32 43 24 69 -4 11 -3 18 1 14
11 -11 55 34 54 56 0 12 -3 15 -6 9 -7 -19 -21 -16 -28 7 -4 12 -14 20 -23 19
-9 -1 -20 0 -24 1 -5 1 -14 3 -20 4 -11 1 -13 34 -3 44 3 3 53 9 140 16 39 4
89 9 111 12 34 5 44 2 54 -13 9 -14 10 -15 6 -1 -3 9 0 19 7 21 7 2 9 8 5 12
-11 12 -72 14 -85 3 -10 -8 -13 -1 -13 31 0 26 -5 41 -12 42 -40 2 -79 13
-105 27 -18 10 -24 9 -30 -1 -4 -8 -24 -22 -43 -33 -19 -10 -39 -23 -43 -29
-4 -5 -5 1 -3 15 11 56 9 66 -22 100 -36 38 -38 57 -17 115 8 22 14 76 15 121
0 73 -2 83 -25 104 -14 13 -25 35 -25 49 0 19 -3 22 -11 14 -9 -9 -16 -7 -28
6 -17 19 -17 19 -218 -3 l-31 -4 -8 62 c-10 78 -8 144 6 161 6 7 9 19 8 26 -2
7 4 13 12 14 10 0 16 12 18 34 2 19 10 44 18 56 8 12 12 30 8 39 -10 27 16 75
50 91 74 33 108 44 123 38 12 -5 14 -3 8 7 -6 9 -4 11 5 5 7 -4 15 -3 19 4 4
6 27 13 51 15 25 3 45 5 45 6 0 1 63 3 140 5 77 1 151 7 165 13 28 12 71 7
111 -14z m-639 -625 c-24 -11 -55 -19 -70 -17 l-27 4 35 16 c19 9 51 16 70 16
l35 0 -43 -19z m105 -65 c-3 -3 -12 -4 -19 -1 -8 3 -5 6 6 6 11 1 17 -2 13 -5z
m-15 -30 c11 -11 -4 -43 -18 -37 -8 3 -14 -1 -14 -11 0 -12 6 -15 24 -10 22 5
23 2 30 -51 3 -32 2 -64 -4 -75 -5 -10 -10 -36 -10 -56 0 -21 -7 -46 -17 -56
-16 -18 -16 -19 3 -12 15 5 16 4 4 -4 -8 -6 -17 -9 -22 -6 -17 11 -91 -52
-114 -97 -28 -57 -40 -66 -49 -39 -3 11 -9 20 -13 20 -4 0 -18 10 -32 21 -14
11 -20 18 -13 15 9 -5 11 15 8 76 -3 74 0 88 22 128 l25 45 -38 -39 -39 -38
-12 28 c-6 16 -10 38 -7 49 2 11 6 43 8 70 2 42 6 50 24 53 27 4 28 -12 2 -45
-11 -14 -20 -30 -20 -34 0 -5 9 -4 20 3 11 7 20 18 20 25 0 7 9 17 19 23 26
14 31 13 25 -5 -6 -15 7 -21 20 -8 4 4 32 8 63 8 34 0 58 5 60 12 3 8 -8 10
-36 6 -34 -5 -39 -3 -38 13 1 11 11 22 22 26 26 8 90 10 97 2z m-412 -94 c3
-23 0 -64 -4 -59 -2 2 -6 13 -8 24 -1 11 -7 23 -11 26 -4 3 -5 13 -1 23 7 19
21 11 24 -14z m770 -279 c0 -24 -26 -34 -52 -20 -21 11 -21 12 3 25 34 19 49
17 49 -5z m407 -113 c-3 -8 -6 -5 -6 6 -1 11 2 17 5 13 3 -3 4 -12 1 -19z
m-814 -15 c-10 -15 -12 -24 -5 -19 8 5 15 -1 20 -15 8 -20 9 -20 15 -4 4 9 3
23 -2 29 -19 23 4 34 67 34 34 -1 62 -2 62 -4 0 -14 -15 -34 -26 -34 -8 0 -14
-4 -14 -9 0 -5 -3 -16 -6 -25 -4 -10 2 -17 20 -22 27 -6 36 -24 13 -24 -7 0
-18 -9 -25 -20 -6 -11 -17 -18 -24 -16 -7 3 -26 7 -41 11 -21 4 -27 10 -23 21
9 23 -3 37 -19 24 -14 -11 -54 1 -47 14 1 4 0 17 -4 31 -7 30 10 55 37 55 19
0 19 -1 2 -27z m-81 -25 c-7 -7 -12 -8 -12 -2 0 14 12 26 19 19 2 -3 -1 -11
-7 -17z m228 -103 c0 -14 -4 -25 -10 -25 -11 0 -14 33 -3 43 11 11 13 8 13
-18z m8 -65 c-1 -37 -22 -34 -25 3 -1 17 3 27 12 27 9 0 13 -11 13 -30z m660
-173 c-3 -93 14 -136 55 -138 l22 -1 -23 -6 -22 -7 25 -37 c14 -21 37 -44 51
-51 25 -13 23 -14 -58 -39 -303 -95 -576 -102 -851 -21 -41 11 -64 25 -78 45
-20 27 -18 55 3 42 6 -4 13 -1 17 5 5 8 24 5 67 -10 62 -22 118 -26 138 -10
13 11 81 14 134 7 41 -5 100 12 129 37 12 11 32 21 45 23 13 1 50 14 83 28 32
13 63 22 67 20 21 -13 97 60 168 160 14 20 26 36 28 36 2 0 2 -37 0 -83z
m-1381 -159 c-2 -29 -3 -8 -3 47 0 55 1 79 3 53 2 -26 2 -71 0 -100z m1556 5
c-7 -2 -21 -2 -30 0 -10 3 -4 5 12 5 17 0 24 -2 18 -5z m67 -13 c0 -12 -8 -12
-35 0 -18 8 -17 9 8 9 15 1 27 -3 27 -9z m158 -7 c-21 -2 -57 -2 -80 0 -24 2
-7 4 37 4 44 0 63 -2 43 -4z m-1071 -49 c-3 -3 -12 -4 -19 -1 -8 3 -5 6 6 6
11 1 17 -2 13 -5z m1197 -139 c69 -32 69 -32 35 -36 -19 -2 -99 -1 -179 2
l-145 5 145 2 c80 0 152 1 160 2 38 2 -99 49 -145 50 -37 0 -46 3 -35 10 23
15 87 2 164 -35z m-377 18 c0 -8 -14 -13 -39 -13 -39 0 -52 15 -20 23 31 8 59
3 59 -10z m190 11 c-3 -3 -12 -4 -19 -1 -8 3 -5 6 6 6 11 1 17 -2 13 -5z
m-2134 -21 c-7 -2 -21 -2 -30 0 -10 3 -4 5 12 5 17 0 24 -2 18 -5z m2600 -198
c-3 -9 -8 -14 -10 -11 -3 3 -2 9 2 15 9 16 15 13 8 -4z"/>
<path d="M1594 1865 c-13 -32 13 -40 139 -40 67 -1 126 1 131 3 14 7 -17 22
-47 22 -16 0 -36 4 -45 9 -9 5 -52 12 -94 16 -68 6 -79 5 -84 -10z"/>
<path d="M1581 1792 c-36 -17 -59 -51 -27 -39 25 10 49 -2 36 -18 -14 -17 4
-23 60 -17 25 2 87 4 139 3 87 -1 93 0 80 15 -19 23 -66 41 -150 59 -89 19
-97 19 -138 -3z m147 -19 c-10 -2 -26 -2 -35 0 -10 3 -2 5 17 5 19 0 27 -2 18
-5z m-63 -33 c3 -5 -1 -10 -10 -10 -9 0 -13 5 -10 10 3 6 8 10 10 10 2 0 7 -4
10 -10z"/>
<path d="M1494 1454 c-18 -14 -18 -15 6 -8 14 3 32 10 40 15 12 7 11 8 -6 9
-11 0 -29 -7 -40 -16z"/>
<path d="M1757 1263 c-4 -3 -7 -12 -7 -20 0 -15 26 -18 34 -4 7 11 -18 33 -27
24z"/>
<path d="M1944 1206 c-10 -8 -16 -17 -13 -20 3 -3 14 3 24 14 21 23 17 26 -11
6z"/>
<path d="M1296 1118 c3 -5 10 -6 15 -3 13 9 11 12 -6 12 -8 0 -12 -4 -9 -9z"/>
</g>
</svg>
