<?xml version="1.0" encoding="utf-8"?>
<!-- Generator: Adobe Illustrator 17.0.0, SVG Export Plug-In . SVG Version: 6.00 Build 0)  -->
<!DOCTYPE svg PUBLIC "-//W3C//DTD SVG 1.1//EN" "http://www.w3.org/Graphics/SVG/1.1/DTD/svg11.dtd">
<svg version="1.1" id="Layer_1" xmlns="http://www.w3.org/2000/svg" xmlns:xlink="http://www.w3.org/1999/xlink" x="0px" y="0px"
	 width="20px" height="20px" viewBox="0 0 20 20" enable-background="new 0 0 20 20" xml:space="preserve">
<polygon fill="#E8762E" points="13.054,9.463 10.506,9.463 10.506,6.701 9.524,6.701 9.524,9.463 6.977,9.463 6.977,10.445 
	9.524,10.445 9.524,13.207 10.506,13.207 10.506,10.445 13.054,10.445 "/>
<polygon fill="#C72038" points="7.959,13.974 5.657,13.974 5.657,11.519 4.798,11.519 4.798,13.974 2.527,13.974 2.527,14.742 
	4.798,14.742 4.798,17.228 5.657,17.228 5.657,14.742 7.959,14.742 "/>
<polygon fill="#5C879B" points="17.504,5.136 15.233,5.136 15.233,2.65 14.373,2.65 14.373,5.136 12.102,5.136 12.102,5.903 
	14.373,5.903 14.373,8.358 15.233,8.358 15.233,5.903 17.504,5.903 "/>
<polygon fill="#5D6692" points="11.949,16.737 10.414,16.737 10.414,15.018 9.678,15.018 9.678,16.737 8.113,16.737 8.113,17.412 
	9.678,17.412 9.678,19.13 10.414,19.13 10.414,17.412 11.949,17.412 "/>
<polygon fill="#EB9126" points="7.959,5.136 5.657,5.136 5.657,2.65 4.829,2.65 4.829,5.136 2.527,5.136 2.527,5.872 4.829,5.872 
	4.829,8.358 5.657,8.358 5.657,5.872 7.959,5.872 "/>
<polygon fill="#5D6692" points="19.253,9.647 17.719,9.647 17.719,7.898 16.982,7.898 16.982,9.647 15.448,9.647 15.448,10.292 
	16.982,10.292 16.982,12.041 17.719,12.041 17.719,10.292 19.253,10.292 "/>
<polygon fill="#1F467F" points="17.504,13.974 15.233,13.974 15.233,11.519 14.373,11.519 14.373,13.974 12.102,13.974 
	12.102,14.742 14.373,14.742 14.373,17.228 15.233,17.228 15.233,14.742 17.504,14.742 "/>
<polygon fill="#7299A6" points="9.77,0.87 9.77,2.588 8.235,2.588 8.235,3.079 9.77,3.079 9.77,4.798 10.322,4.798 10.322,3.079 
	11.826,3.079 11.826,2.588 10.322,2.588 10.322,0.87 "/>
<polygon fill="#7299A6" points="4.368,9.708 2.834,9.708 2.834,8.051 2.312,8.051 2.312,9.708 0.747,9.708 0.747,10.23 2.312,10.23 
	2.312,11.887 2.834,11.887 2.834,10.23 4.368,10.199 "/>
</svg>
