<?xml version="1.0" encoding="utf-8"?>
<!-- Generator: Adobe Illustrator 16.0.0, SVG Export Plug-In . SVG Version: 6.00 Build 0)  -->
<!DOCTYPE svg PUBLIC "-//W3C//DTD SVG 1.1//EN" "http://www.w3.org/Graphics/SVG/1.1/DTD/svg11.dtd">
<svg version="1.1" id="Layer_1" xmlns="http://www.w3.org/2000/svg" xmlns:xlink="http://www.w3.org/1999/xlink" x="0px" y="0px"
	 width="376.271px" height="81.924px" viewBox="0 0 376.271 81.924" enable-background="new 0 0 376.271 81.924"
	 xml:space="preserve">
<circle fill="#F15A22" cx="180.551" cy="9.796" r="4.87"/>
<path fill="#F15A22" d="M49.377,78.338C22.151,78.338,0,61.571,0,40.961c0-7.356,2.767-14.392,8.023-20.468L2.95,4.927
	c-0.469-1.434-0.034-3.006,1.1-3.998c1.135-0.992,2.752-1.21,4.11-0.554l16.765,8.093c7.424-3.196,15.838-4.881,24.452-4.881
	c27.228,0,49.378,16.767,49.378,37.374C98.755,61.571,76.604,78.338,49.377,78.338z M12.834,10.983l3.021,9.265
	c0.433,1.327,0.094,2.784-0.88,3.788C10.1,29.052,7.521,34.905,7.521,40.961c0,16.461,18.777,29.854,41.856,29.854
	s41.857-13.394,41.857-29.854c0-16.46-18.778-29.854-41.857-29.854c-8.163,0-16.083,1.699-22.903,4.911
	c-1.027,0.484-2.218,0.477-3.239-0.015L12.834,10.983z"/>
<path fill="#0086C2" d="M117.35,81.924c-0.556,0-1.114-0.122-1.634-0.373l-16.767-8.096c-7.424,3.199-15.835,4.883-24.451,4.883
	c-27.226,0-49.377-16.767-49.377-37.374c0-20.609,22.151-37.377,49.377-37.377c27.228,0,49.376,16.768,49.376,37.377
	c0,7.357-2.765,14.39-8.022,20.47l5.075,15.565c0.465,1.432,0.033,3.005-1.103,3.996C119.124,81.605,118.241,81.924,117.35,81.924z
	 M99.004,65.546c0.56,0,1.119,0.126,1.636,0.376l10.403,5.021l-3.022-9.267c-0.433-1.326-0.094-2.786,0.877-3.785
	c4.88-5.019,7.458-10.871,7.458-16.927c0-16.463-18.777-29.856-41.857-29.856c-23.079,0-41.857,13.394-41.857,29.856
	c0,16.462,18.778,29.852,41.857,29.852c8.162,0,16.083-1.696,22.904-4.909C97.909,65.666,98.458,65.546,99.004,65.546z"/>
<path fill="#0086C2" d="M78.352,31.569c0,3.166-2.566,5.736-5.733,5.736c-3.166,0-5.733-2.57-5.733-5.736
	c0-3.165,2.567-5.732,5.733-5.732C75.785,25.837,78.352,28.404,78.352,31.569z"/>
<path fill="#0086C2" d="M45.523,31.569c0,3.166,2.567,5.736,5.732,5.736c3.168,0,5.733-2.57,5.733-5.736
	c0-3.165-2.565-5.732-5.733-5.732C48.091,25.837,45.523,28.404,45.523,31.569z"/>
<path fill="#F68B1F" d="M61.937,58.378c-7.018,0-13.514-3.286-17.381-8.788c-1.195-1.697-0.785-4.044,0.914-5.238
	c1.698-1.195,4.045-0.784,5.237,0.914c2.462,3.502,6.657,5.592,11.229,5.592s8.77-2.09,11.229-5.592
	c1.192-1.698,3.538-2.107,5.237-0.914c1.7,1.192,2.11,3.538,0.917,5.236C75.453,55.092,68.954,58.378,61.937,58.378z"/>
<g>
	<path fill="#F15A22" d="M167.619,57.255h-20.792l22.429-30.392c1.22-1.638,1.671-2.695,1.671-3.903
		c0-0.685-0.302-2.916-4.194-2.916H140.51c-2.722,0-4.284,1.271-4.284,3.489c0,2.216,1.562,3.485,4.284,3.485h18.555l-22.054,30.391
		c-1.218,1.64-1.67,2.696-1.67,3.901c0,0.686,0.302,2.916,4.196,2.916h28.082c2.723,0,4.283-1.27,4.283-3.483
		C171.902,58.524,170.342,57.255,167.619,57.255z"/>
	<path fill="#F15A22" d="M180.551,19.554c-2.602,0-4.285,1.658-4.285,4.223v36.721c0,2.562,1.684,4.22,4.285,4.22
		c2.604,0,4.283-1.657,4.283-4.22V23.776C184.834,21.212,183.154,19.554,180.551,19.554z"/>
	<path fill="#F15A22" d="M240.167,19.554c-6.103,0-10.567,2.184-14.41,7.066c-3.167-4.689-7.525-7.066-12.963-7.066
		c-6.833,0-9.936,2.888-11.658,4.848v-0.625c0-2.564-1.679-4.223-4.283-4.223s-4.285,1.658-4.285,4.223v36.721
		c0,2.562,1.681,4.22,4.285,4.22s4.283-1.657,4.283-4.22V36.179c0-6.041,3.599-9.65,9.624-9.65c6.082,0,9.713,3.609,9.713,9.65
		v24.318c0,2.562,1.68,4.22,4.283,4.22c2.602,0,4.282-1.657,4.282-4.22V36.179c0-6.041,3.598-9.65,9.625-9.65
		c6.082,0,9.712,3.609,9.712,9.65v24.318c0,2.562,1.681,4.22,4.282,4.22c2.605,0,4.288-1.657,4.288-4.22V36.425
		C256.945,24.771,248.519,19.554,240.167,19.554z"/>
	<path fill="#F15A22" d="M285.972,19.554c-5.689,0-10.013,2.678-12.374,5.391V9.088c0-2.563-1.683-4.221-4.285-4.221
		c-2.602,0-4.284,1.657-4.284,4.221v51.409c0,2.562,1.683,4.22,4.284,4.22c2.603,0,4.285-1.657,4.285-4.22v-1.058
		c2.416,3.503,6.574,5.277,12.374,5.277c13.453,0,20.49-11.359,20.49-22.579C306.462,30.914,299.425,19.554,285.972,19.554z
		 M285.348,26.528c9.261,0,12.546,8.409,12.546,15.609c0,7.198-3.285,15.605-12.546,15.605c-9.26,0-12.546-8.407-12.546-15.605
		C272.802,34.938,276.088,26.528,285.348,26.528z"/>
	<path fill="#F15A22" d="M335.875,23.614c0-2.392-1.942-4.061-4.726-4.061c-4.1,0-8.235,3.336-10.422,6.771v-2.549
		c0-2.564-1.684-4.223-4.286-4.223c-2.602,0-4.284,1.658-4.284,4.223v36.721c0,2.562,1.683,4.22,4.284,4.22
		c2.603,0,4.286-1.657,4.286-4.22V39.853c0-9.607,7.613-11.569,9.954-11.941C334.127,27.311,335.875,25.864,335.875,23.614z"/>
	<path fill="#F15A22" d="M372.251,19.554c-1.936,0-4.018,1.221-4.018,3.896v1.534c-3.924-3.8-7.738-5.431-12.639-5.431
		c-13.86,0-21.114,11.36-21.114,22.584c0,11.22,7.254,22.579,21.114,22.579c5.001,0,9.354-2.083,12.639-6.032v2.138
		c0,2.676,2.082,3.895,4.018,3.895c1.615,0,4.021-1.037,4.021-3.895V23.45C376.271,20.593,373.866,19.554,372.251,19.554z
		 M355.595,57.743c-9.26,0-12.546-8.407-12.546-15.605c0-7.2,3.286-15.609,12.546-15.609c9.264,0,12.55,8.409,12.55,15.609
		C368.145,49.336,364.858,57.743,355.595,57.743z"/>
</g>
</svg>
