<?xml version="1.0" standalone="no"?>
<!DOCTYPE svg PUBLIC "-//W3C//DTD SVG 20010904//EN"
 "http://www.w3.org/TR/2001/REC-SVG-20010904/DTD/svg10.dtd">
<svg version="1.0" xmlns="http://www.w3.org/2000/svg"
 width="163.000000pt" height="163.000000pt" viewBox="0 0 163.000000 163.000000"
 preserveAspectRatio="xMidYMid meet">
<metadata>
Created by potrace 1.14, written by Peter Selinger 2001-2017
</metadata>
<g transform="translate(0.000000,163.000000) scale(0.100000,-0.100000)"
fill="#000000" stroke="none">
<path d="M610 1410 c-158 -92 -185 -112 -188 -134 -3 -24 -1 -26 38 -26 45 0
106 33 131 71 18 27 49 20 49 -10 0 -14 -9 -23 -27 -27 -16 -4 -46 -17 -69
-30 -25 -15 -57 -24 -82 -24 l-42 0 0 -70 0 -70 43 0 c24 0 48 5 55 12 8 8 15
8 27 -2 32 -27 3 -60 -35 -40 -10 6 -35 10 -55 10 l-36 0 3 -111 3 -112 103
-59 c84 -50 105 -58 117 -48 8 7 15 22 15 34 0 32 19 47 42 35 25 -14 23 -38
-6 -48 -13 -5 -26 -18 -30 -28 -8 -19 0 -27 86 -76 l48 -27 0 104 0 104 -40
32 c-37 29 -43 31 -74 20 -19 -6 -37 -18 -40 -26 -9 -23 -51 -14 -51 11 0 14
8 21 25 23 14 1 43 7 64 13 33 9 43 8 65 -8 14 -11 32 -23 39 -27 9 -6 12 53
12 278 l0 286 -45 -28 -45 -27 0 -102 c0 -92 -2 -103 -20 -113 -11 -6 -20 -17
-20 -24 0 -19 -30 -29 -46 -15 -25 20 -15 38 26 49 l40 11 0 104 0 104 55 31
c47 27 55 36 55 61 0 16 -1 29 -2 28 -2 0 -86 -49 -188 -109z m130 -325 c17
-21 5 -45 -22 -45 -32 0 -152 -69 -178 -103 -12 -15 -25 -40 -29 -55 -5 -17
-14 -27 -27 -27 -26 0 -32 41 -7 49 10 3 29 22 42 41 15 22 49 49 92 71 37 20
75 47 84 60 18 28 28 30 45 9z"/>
<path d="M820 1411 l0 -110 43 -29 c36 -25 46 -28 71 -19 16 5 37 18 47 28 23
23 51 14 47 -15 -2 -16 -10 -21 -35 -22 -17 -1 -45 -7 -62 -13 -26 -12 -33
-10 -68 13 l-38 26 -3 -276 c-1 -153 0 -279 2 -281 2 -3 23 7 45 21 l41 26 0
100 c0 89 2 101 20 112 11 7 20 18 20 24 0 15 26 25 45 18 8 -4 15 -12 15 -19
0 -15 -28 -40 -37 -32 -3 4 -14 2 -24 -4 -17 -8 -19 -22 -19 -112 l0 -103 -52
-30 c-41 -23 -54 -36 -56 -57 -2 -15 -1 -27 1 -27 3 0 91 50 196 111 143 83
191 115 191 130 0 16 -7 19 -47 19 -52 0 -92 -20 -127 -65 -15 -18 -26 -24
-39 -19 -27 10 -18 48 12 52 13 2 41 14 62 27 22 15 56 25 85 27 l49 3 3 69 3
68 -73 -3 c-63 -4 -73 -2 -76 14 -5 23 24 33 52 18 12 -7 38 -11 57 -9 l34 3
3 110 3 111 -112 63 c-119 68 -126 68 -138 9 -5 -24 -13 -34 -29 -36 -37 -6
-40 27 -3 55 40 31 39 46 -4 72 -19 12 -51 30 -70 42 l-35 21 0 -111z m340
-143 c0 -6 -18 -28 -40 -50 -22 -22 -40 -44 -40 -47 0 -4 -34 -25 -74 -47 -41
-21 -77 -47 -80 -56 -5 -23 -45 -23 -53 -2 -6 17 23 48 38 39 4 -3 40 12 79
34 73 39 120 90 120 130 0 10 6 21 13 24 14 5 37 -11 37 -25z"/>
<path d="M260 1119 c-69 -39 -129 -74 -133 -78 -4 -4 27 -29 70 -55 l77 -48
54 28 c30 16 56 34 58 40 3 6 4 50 2 97 l-3 87 -125 -71z"/>
<path d="M1232 1095 l3 -96 56 -31 55 -31 70 43 c38 24 73 46 77 50 6 5 -148
100 -256 157 -4 3 -6 -39 -5 -92z"/>
<path d="M343 948 c-18 -11 -33 -23 -33 -26 0 -4 18 -17 40 -30 l40 -23 0 51
c0 27 -3 50 -7 49 -5 0 -23 -10 -40 -21z"/>
<path d="M1230 919 c0 -28 3 -49 8 -47 49 24 82 43 82 48 0 7 -73 50 -84 50
-3 0 -6 -23 -6 -51z"/>
<path d="M172 838 c-92 -54 -101 -62 -85 -73 35 -23 472 -275 478 -275 13 0
205 112 205 120 0 6 -484 291 -492 289 -2 0 -49 -28 -106 -61z"/>
<path d="M1097 757 c-135 -78 -246 -144 -247 -147 0 -5 203 -120 213 -120 5 0
485 277 495 285 2 2 -156 93 -208 121 -3 1 -117 -61 -253 -139z"/>
<path d="M280 503 l0 -119 255 -147 c140 -81 257 -147 260 -147 3 0 5 110 5
245 0 135 -3 245 -8 245 -4 0 -56 -29 -116 -64 l-110 -63 -110 64 c-61 36
-126 74 -143 85 l-33 20 0 -119z"/>
<path d="M1200 535 c-69 -41 -131 -75 -138 -75 -7 0 -64 29 -125 65 l-112 65
-3 -246 c-1 -136 0 -249 2 -251 2 -3 119 62 260 143 l256 147 0 113 c0 63 -3
114 -7 114 -5 -1 -64 -34 -133 -75z"/>
</g>
</svg>
