<?xml version="1.0" standalone="no"?>
<!DOCTYPE svg PUBLIC "-//W3C//DTD SVG 20010904//EN"
 "http://www.w3.org/TR/2001/REC-SVG-20010904/DTD/svg10.dtd">
<svg version="1.0" xmlns="http://www.w3.org/2000/svg"
 width="676.000000pt" height="676.000000pt" viewBox="0 0 676.000000 676.000000"
 preserveAspectRatio="xMidYMid meet">
<metadata>
Created by potrace 1.14, written by Peter Selinger 2001-2017
</metadata>
<g transform="translate(0.000000,676.000000) scale(0.100000,-0.100000)"
fill="#000000" stroke="none">
<path d="M2540 5925 l-805 -465 -3 -100 -3 -100 169 0 170 0 143 86 c230 138
227 136 231 191 3 46 5 48 59 80 l56 34 57 -33 56 -32 0 -67 0 -68 -56 -32
c-55 -31 -57 -31 -85 -15 -28 17 -30 16 -61 -7 -18 -14 -109 -70 -202 -126
l-168 -101 -184 0 -184 0 0 -290 0 -290 184 0 c143 0 185 3 189 13 3 8 29 26
59 42 l53 28 53 -33 52 -32 0 -68 0 -68 -55 -31 -56 -32 -54 33 c-30 18 -55
36 -55 40 0 5 -83 8 -185 8 l-185 0 2 -447 3 -448 450 -262 c248 -144 455
-262 461 -262 6 -1 35 34 64 76 l54 77 -3 77 -2 77 59 36 60 36 56 -32 56 -33
0 -67 0 -66 -50 -31 c-28 -17 -59 -31 -70 -31 -24 0 -139 -166 -124 -179 17
-16 584 -341 594 -341 7 0 10 149 10 434 l0 434 -174 126 c-96 69 -181 126
-188 126 -7 0 -74 -25 -148 -54 -128 -50 -135 -55 -138 -83 -2 -23 -13 -34
-60 -60 l-56 -31 -58 31 -58 32 0 67 0 66 58 33 57 32 46 -26 47 -26 165 65
165 65 167 -121 c92 -67 169 -120 171 -117 2 2 3 540 2 1195 l-3 1192 -192
-117 -193 -116 0 -421 0 -421 -80 -52 c-76 -50 -79 -54 -82 -95 -3 -40 -6 -44
-60 -76 l-56 -33 -56 31 -56 32 0 68 0 69 54 31 c53 30 55 30 89 14 l34 -16
62 41 61 42 2 421 3 422 238 144 237 144 0 114 c0 63 -1 114 -2 114 -2 0 -365
-210 -808 -465z m526 -1336 l54 -30 0 -67 0 -67 -57 -32 c-55 -29 -60 -30 -88
-16 -31 15 -33 13 -332 -149 l-301 -163 -106 -145 c-69 -94 -102 -148 -96
-154 6 -6 10 -37 10 -71 l0 -60 -58 -34 -57 -34 -55 31 -55 30 -3 69 -3 68 55
33 c30 18 60 31 65 30 6 -2 62 67 124 152 l114 155 304 165 304 165 5 48 c5
45 8 49 55 77 28 16 54 29 59 29 5 1 33 -13 62 -30z"/>
<path d="M3440 5932 l0 -461 171 -122 171 -121 137 53 c75 29 141 57 148 62 6
4 13 20 15 35 2 19 16 34 53 55 l50 30 55 -30 55 -30 3 -69 3 -69 -56 -33 -57
-32 -44 26 -45 27 -157 -62 c-86 -34 -163 -61 -171 -61 -7 0 -83 50 -170 111
l-156 111 -3 -1178 c-1 -647 0 -1179 2 -1182 3 -2 86 45 185 105 l181 108 0
420 0 420 85 55 c83 54 84 56 87 99 3 43 5 46 59 75 l55 30 57 -33 58 -33 -3
-66 -3 -66 -55 -32 -55 -33 -31 19 -32 18 -66 -44 -66 -44 -2 -422 -3 -422
-227 -135 -228 -135 0 -113 0 -112 133 77 c73 42 435 252 805 467 l672 390 0
87 0 88 -175 0 -175 0 -142 -87 c-234 -142 -228 -136 -228 -191 0 -47 0 -47
-55 -77 l-56 -30 -54 30 -55 29 0 71 0 71 54 29 c47 26 56 27 83 16 28 -11 35
-8 139 57 60 37 153 94 206 125 l97 57 180 0 181 0 0 290 0 290 -185 0 c-141
0 -185 -3 -185 -12 0 -7 -26 -27 -58 -45 l-57 -31 -57 31 -58 32 0 67 0 67 57
32 56 32 55 -29 c30 -16 57 -35 59 -41 4 -10 51 -13 189 -13 l184 0 -2 466 -3
467 -455 263 c-250 145 -459 264 -465 264 -5 0 -34 -43 -64 -94 -54 -93 -55
-96 -55 -177 l-1 -82 -55 -30 -55 -30 -58 33 -58 32 3 66 3 66 55 32 c30 17
59 30 65 28 8 -3 139 206 132 212 -1 0 -126 72 -277 159 -151 87 -285 165
-297 173 l-23 14 0 -460z m1418 -606 l3 -65 -58 -33 c-32 -18 -63 -33 -69 -33
-6 0 -63 -69 -125 -154 l-114 -155 -295 -160 c-163 -89 -301 -165 -308 -169
-7 -5 -12 -27 -12 -50 0 -41 -2 -44 -56 -75 l-56 -32 -54 32 -55 33 3 69 3 70
50 29 c47 28 50 28 81 13 l33 -15 303 164 303 165 100 137 100 138 0 79 0 79
54 32 55 32 55 -32 56 -33 3 -66z"/>
<path d="M1055 4699 c-314 -181 -571 -333 -572 -337 -1 -4 146 -100 327 -213
l329 -207 248 143 248 143 3 401 c1 220 -1 401 -5 400 -5 0 -264 -148 -578
-330z"/>
<path d="M5152 4619 l3 -401 239 -138 238 -138 329 207 c181 113 329 209 329
212 0 7 -1124 659 -1135 659 -3 0 -4 -181 -3 -401z"/>
<path d="M1445 4004 c-99 -58 -186 -108 -193 -113 -8 -4 59 -48 181 -119 107
-62 197 -112 200 -112 4 0 7 101 7 225 0 124 -3 225 -7 224 -5 0 -89 -47 -188
-105z"/>
<path d="M5150 3880 c0 -136 4 -230 9 -228 36 13 388 224 383 230 -4 3 -74 45
-157 93 -82 48 -169 98 -192 111 l-43 25 0 -231z"/>
<path d="M825 3612 c-187 -109 -395 -229 -462 -268 l-123 -71 1054 -611 c580
-336 1059 -613 1065 -614 15 -4 931 526 923 534 -7 7 -2112 1228 -2115 1227
-1 0 -155 -89 -342 -197z"/>
<path d="M4572 3193 l-1062 -615 465 -269 464 -268 1053 611 c579 335 1056
613 1060 617 6 5 -454 276 -862 508 l-57 32 -1061 -616z"/>
<path d="M1170 2119 l0 -494 1081 -623 c594 -343 1083 -622 1085 -619 2 2 3
476 2 1053 l-3 1050 -480 -278 c-264 -153 -487 -276 -496 -274 -9 2 -274 153
-588 335 -315 183 -579 335 -587 338 -12 4 -14 -66 -14 -488z"/>
<path d="M5020 2263 c-316 -184 -581 -332 -590 -330 -8 3 -233 131 -500 285
l-485 281 -3 -1056 c-1 -581 -1 -1058 1 -1060 2 -2 488 277 1080 618 l1077
622 0 488 c0 269 -1 489 -2 488 -2 0 -262 -152 -578 -336z"/>
</g>
</svg>
