<svg version="1.1" xmlns="http://www.w3.org/2000/svg" xmlns:xlink="http://www.w3.org/1999/xlink" width="1445" height="680"><defs/><g transform="translate(0,0)"><g><rect fill="#FFFFFF" stroke="none" x="0" y="0" width="1445" height="680"/></g><g transform="translate(0,0) matrix(1,0,0,1,647.8869752962444,390)"><g><g transform="translate(0,0) scale(7.658848983914257,2.727272727272727)"><g transform="translate(-0.5,-0.5)"><g><path fill="#cccccc" stroke="none" d="M 99 50 A 49 49 0 1 0 98.99997550000202 50.04899999183335 Z" opacity="0.5"/><g transform="scale(0.13056792242545612,0.3666666666666667)"><path fill="none" stroke="rbga(0,0,0,0)" d="M 382.9424491957128 2.7272727272727195 C 590.2058397536059 2.7272727272727195 758.2260494075114 62.55831736363636 758.2260494075114 136.36363636363635 C 758.2260494075114 210.16895536363631 590.2058397536059 270 382.9424491957128 270 C 175.67905863781974 270 7.658848983914254 210.16895536363631 7.658848983914254 136.36363636363635 C 7.658848983914254 62.55831736363636 175.67905863781974 2.7272727272727195 382.9424491957128 2.7272727272727195 Z" stroke-miterlimit="10" stroke-width="3" opacity="0.5"/></g></g><g><path fill="rgb(0,0,0)" stroke="none" d="M 99 50 A 49 49 0 1 0 98.99997550000202 50.04899999183335 Z" fill-opacity="0"/><g transform="scale(0.13056792242545612,0.3666666666666667)"><path fill="none" stroke="#999999" d="M 382.9424491957128 2.7272727272727195 M 382.9424491957128 2.7272727272727195 C 590.2058397536059 2.7272727272727195 758.2260494075114 62.55831736363636 758.2260494075114 136.36363636363635 C 758.2260494075114 210.16895536363631 590.2058397536059 270 382.9424491957128 270 C 175.67905863781974 270 7.658848983914254 210.16895536363631 7.658848983914254 136.36363636363635 C 7.658848983914254 62.55831736363636 175.67905863781974 2.7272727272727195 382.9424491957128 2.7272727272727195 Z" stroke-miterlimit="10" stroke-width="3"/></g></g></g></g></g></g><g transform="scale(1,1) matrix(1,0,0,1,366,568.1933701657458) translate(2,0.5)"/><g transform="translate(0,0) matrix(1,0,0,1,663.9281984334202,480)"><g><g transform="translate(0,0) scale(5.707795975419998,1.4141414141414141)"><g transform="translate(-0.5,-0.5)"><g><path fill="#ffffff" stroke="none" d="M 99 50 A 49 49 0 1 0 98.99997550000202 50.04899999183335 Z" opacity="0.5"/><g transform="scale(0.1751989742286499,0.7071428571428572)"><path fill="none" stroke="rbga(0,0,0,0)" d="M 285.3897987709999 1.414141414141426 C 439.8538897803559 1.414141414141426 565.0718015665798 32.437646040404054 565.0718015665798 70.70707070707071 C 565.0718015665798 108.97649537373738 439.8538897803559 140 285.3897987709999 140 C 130.92570776164388 140 5.70779597541997 108.97649537373738 5.70779597541997 70.70707070707071 C 5.70779597541997 32.437646040404054 130.92570776164388 1.414141414141426 285.3897987709999 1.414141414141426 Z" stroke-miterlimit="10" stroke-width="3" opacity="0.5"/></g></g><g><path fill="rgb(0,0,0)" stroke="none" d="M 99 50 A 49 49 0 1 0 98.99997550000202 50.04899999183335 Z" fill-opacity="0"/><g transform="scale(0.1751989742286499,0.7071428571428572)"><path fill="none" stroke="#cccccc" d="M 285.3897987709999 1.414141414141426 M 285.3897987709999 1.414141414141426 C 439.8538897803559 1.414141414141426 565.0718015665798 32.437646040404054 565.0718015665798 70.70707070707071 C 565.0718015665798 108.97649537373738 439.8538897803559 140 285.3897987709999 140 C 130.92570776164388 140 5.70779597541997 108.97649537373738 5.70779597541997 70.70707070707071 C 5.70779597541997 32.437646040404054 130.92570776164388 1.414141414141426 285.3897987709999 1.414141414141426 Z" stroke-miterlimit="10" stroke-width="3"/></g></g></g></g></g></g><g transform="scale(1,1) matrix(1,0,0,1,922,390) translate(2,0)"><text fill="#000000" stroke="none" font-family="Arial" font-size="24px" font-style="normal" font-weight="bold" text-decoration="underline" x="38.341796875" y="21">Any-to-Any</text><text fill="#000000" stroke="none" font-family="Arial" font-size="14px" font-style="normal" font-weight="normal" text-decoration="underline" x="40.75537109375" y="41">Full communication&#160;</text></g><g transform="scale(1,1) matrix(1,0,0,1,900.618347057642,449.50000000000006) translate(2,0)"><text fill="#000000" stroke="none" font-family="Arial" font-size="14px" font-style="normal" font-weight="normal" text-decoration="none" x="53.162109375" y="14">AODV</text></g><g transform="scale(1,1) matrix(1,0,0,1,800,449.49999999999994) translate(2,0)"><text fill="#000000" stroke="none" font-family="Arial" font-size="14px" font-style="normal" font-weight="normal" text-decoration="none" x="58.220703125" y="14">DSR</text></g><g transform="scale(1,1) matrix(1,0,0,1,1000,449.5) translate(2,0)"><text fill="#000000" stroke="none" font-family="Arial" font-size="14px" font-style="normal" font-weight="normal" text-decoration="none" x="54.32763671875" y="14">Hydro</text></g><g transform="scale(1,1) matrix(1,0,0,1,1100,449.5) translate(2,0)"><text fill="#000000" stroke="none" font-family="Arial" font-size="14px" font-style="normal" font-weight="normal" text-decoration="none" x="54.720703125" y="14">Dymo</text></g><g transform="translate(0,0) matrix(1,0,0,1,857.0359007832899,480)"><g><g transform="translate(0,0) scale(5.353535353535354,1.4141414141414141)"><g transform="translate(-0.5,-0.5)"><g><path fill="#b7b7b7" stroke="none" d="M 99 50 A 49 49 0 1 0 98.99997550000202 50.04899999183335 Z" opacity="0.5"/><g transform="scale(0.18679245283018867,0.7071428571428572)"><path fill="none" stroke="rbga(0,0,0,0)" d="M 267.67676767676767 1.414141414141426 C 412.55387534343436 1.414141414141426 530 32.437646040404054 530 70.70707070707071 C 530 108.97649537373738 412.55387534343436 140 267.67676767676767 140 C 122.79966001010101 140 5.353535353535335 108.97649537373738 5.353535353535335 70.70707070707071 C 5.353535353535335 32.437646040404054 122.79966001010101 1.414141414141426 267.67676767676767 1.414141414141426 Z" stroke-miterlimit="10" stroke-width="3" opacity="0.5"/></g></g><g><path fill="rgb(0,0,0)" stroke="none" d="M 99 50 A 49 49 0 1 0 98.99997550000202 50.04899999183335 Z" fill-opacity="0"/><g transform="scale(0.18679245283018867,0.7071428571428572)"><path fill="none" stroke="#999999" d="M 267.67676767676767 1.414141414141426 M 267.67676767676767 1.414141414141426 C 412.55387534343436 1.414141414141426 530 32.437646040404054 530 70.70707070707071 C 530 108.97649537373738 412.55387534343436 140 267.67676767676767 140 C 122.79966001010101 140 5.353535353535335 108.97649537373738 5.353535353535335 70.70707070707071 C 5.353535353535335 32.437646040404054 122.79966001010101 1.414141414141426 267.67676767676767 1.414141414141426 Z" stroke-miterlimit="10" stroke-width="3"/></g></g></g></g></g></g><g transform="scale(1,1) matrix(1,0,0,1,707.0359007832899,490) translate(2,0)"><text fill="#000000" stroke="none" font-family="Arial" font-size="24px" font-style="normal" font-weight="bold" text-decoration="underline" x="23.0078125" y="21">Many-to-</text><text fill="#000000" stroke="none" font-family="Arial" font-size="24px" font-style="normal" font-weight="bold" text-decoration="underline" x="49.662109375" y="48">O</text><text fill="#000000" stroke="none" font-family="Arial" font-size="24px" font-style="normal" font-weight="bold" text-decoration="underline" x="68.330078125" y="48">ne</text><text fill="#000000" stroke="none" font-family="Arial" font-size="14px" font-style="normal" font-weight="normal" text-decoration="underline" x="8.80029296875" y="68">Unreliable Collection</text></g><g transform="scale(1,1) matrix(1,0,0,1,1200,480) translate(2,0)"><text fill="#000000" stroke="none" font-family="Arial" font-size="24px" font-style="normal" font-weight="bold" text-decoration="underline" x="30.34375" y="21">One-to-</text><text fill="#000000" stroke="none" font-family="Arial" font-size="24px" font-style="normal" font-weight="bold" text-decoration="underline" x="42.326171875" y="48">Many</text><text fill="#000000" stroke="none" font-family="Arial" font-size="14px" font-style="normal" font-weight="normal" text-decoration="underline" x="16.9658203125" y="68">Unreliable Update</text></g><g transform="scale(1,1) matrix(1,0,0,1,902.618347057642,495) translate(2,3)"><text fill="#000000" stroke="none" font-family="Arial" font-size="18px" font-style="normal" font-weight="bold" text-decoration="underline" x="4.4905273437500455" y="15">Root-to-node &amp; Node-to-Root</text><text fill="#000000" stroke="none" font-family="Arial" font-size="12px" font-style="normal" font-weight="normal" text-decoration="underline" x="47.564257812500045" y="32">Reliable Collection and Update</text></g><g transform="scale(1,1) matrix(1,0,0,1,634.03590078329,550) translate(2,0)"><text fill="#000000" stroke="none" font-family="Arial" font-size="14px" font-style="normal" font-weight="normal" text-decoration="none" x="59" y="14">CTP</text></g><g transform="scale(1,1) matrix(1,0,0,1,709.03590078329,549.9999999999999) translate(2,0)"><text fill="#000000" stroke="none" font-family="Arial" font-size="14px" font-style="normal" font-weight="normal" text-decoration="none" x="35.65185546875" y="14">MultHopLQI</text></g><g transform="scale(1,1) matrix(1,0,0,1,727,580) translate(2,0)"><text fill="#000000" stroke="none" font-family="Arial" font-size="14px" font-style="normal" font-weight="normal" text-decoration="none" x="44.98974609375" y="14">MintRout</text></g><g transform="scale(1,1) matrix(1,0,0,1,1177,539.7) translate(2,0)"><text fill="#000000" stroke="none" font-family="Arial" font-size="14px" font-style="normal" font-weight="normal" text-decoration="none" x="61.3310546875" y="14">DIP</text></g><g transform="scale(1,1) matrix(1,0,0,1,1277,539.7000000000002) translate(2,0)"><text fill="#000000" stroke="none" font-family="Arial" font-size="14px" font-style="normal" font-weight="normal" text-decoration="none" x="56.27587890625" y="14">DRIP</text></g><g transform="scale(1,1) matrix(1,0,0,1,1237.03590078329,549.9999999999999) translate(2,0)"><text fill="#000000" stroke="none" font-family="Arial" font-size="14px" font-style="normal" font-weight="normal" text-decoration="none" x="58.220703125" y="14">DSR</text></g><g transform="scale(1,1) matrix(1,0,0,1,1178.9999999999998,570.4999999999999) translate(2,0)"><text fill="#000000" stroke="none" font-family="Arial" font-size="14px" font-style="normal" font-weight="normal" text-decoration="none" x="35.27587890625" y="14">DIRECTED </text><text fill="#000000" stroke="none" font-family="Arial" font-size="14px" font-style="normal" font-weight="normal" text-decoration="none" x="35.279296875" y="30">DIFFUSION</text></g><g transform="scale(1,1) matrix(1,0,0,1,952,549.9999999999999) translate(2,0)"><text fill="#000000" stroke="none" font-family="Arial" font-size="36px" font-style="normal" font-weight="bold" text-decoration="none" x="24.994140625" y="33">XCTP</text></g></g></svg>