<?xml version="1.0" encoding="utf-8"?>
<!-- Generator: Adobe Illustrator 16.0.0, SVG Export Plug-In . SVG Version: 6.00 Build 0)  -->
<!DOCTYPE svg PUBLIC "-//W3C//DTD SVG 1.1//EN" "http://www.w3.org/Graphics/SVG/1.1/DTD/svg11.dtd">
<svg version="1.1" id="Calque_1" xmlns="http://www.w3.org/2000/svg" xmlns:xlink="http://www.w3.org/1999/xlink" x="0px" y="0px"
	 width="260px" height="66px" viewBox="0 0 260 66" enable-background="new 0 0 260 66" xml:space="preserve">
<g>
	<g>
		<circle fill="#1A171B" cx="32.455" cy="32.665" r="32.455"/>
		<path fill="#FFFFFF" d="M46.644,12.219c-3.297,0.115-6.175,1.932-8.317,4.446c-2.372,2.756-3.95,6.025-5.087,9.362
			c-2.034-1.667-3.603-3.825-6.866-4.766c-2.522-0.724-5.171-0.425-7.607,1.39c-1.154,0.862-1.949,2.165-2.327,3.39
			c-0.979,3.183,1.029,6.016,1.941,7.033l1.994,2.137c0.411,0.419,1.401,1.512,0.917,3.079c-0.523,1.704-2.577,2.807-4.684,2.157
			c-0.941-0.287-2.293-0.988-1.99-1.975c0.125-0.404,0.414-0.706,0.569-1.055c0.142-0.3,0.21-0.525,0.253-0.657
			c0.385-1.257-0.141-2.892-1.487-3.307c-1.256-0.385-2.541-0.08-3.039,1.537c-0.565,1.837,0.314,5.171,5.023,6.623
			c5.517,1.695,10.184-1.309,10.846-5.227c0.417-2.454-0.691-4.277-2.721-6.622l-1.654-1.829c-1.002-1.001-1.346-2.707-0.309-4.018
			c0.875-1.106,2.121-1.578,4.162-1.023c2.979,0.809,4.307,2.876,6.523,4.543c-0.915,3.001-1.513,6.013-2.054,8.714L30.4,38.165
			c-1.584,8.308-2.793,12.87-5.935,15.489c-0.633,0.45-1.538,1.124-2.902,1.171c-0.715,0.022-0.946-0.47-0.956-0.684
			c-0.017-0.502,0.406-0.732,0.687-0.958c0.42-0.229,1.055-0.609,1.012-1.826c-0.046-1.438-1.237-2.685-2.959-2.628
			c-1.29,0.044-3.256,1.258-3.182,3.48c0.077,2.295,2.216,4.015,5.441,3.906c1.724-0.059,5.574-0.761,9.368-5.271
			c4.416-5.17,5.651-11.097,6.58-15.435l1.037-5.727c0.576,0.069,1.192,0.115,1.862,0.131c5.5,0.116,8.251-2.733,8.292-4.805
			c0.027-1.254-0.823-2.488-2.013-2.46c-0.852,0.024-1.922,0.591-2.179,1.769c-0.251,1.156,1.75,2.199,0.186,3.212
			c-1.111,0.719-3.103,1.226-5.908,0.814l0.51-2.819c1.041-5.346,2.325-11.922,7.196-12.082c0.355-0.018,1.654,0.016,1.684,0.875
			c0.009,0.287-0.062,0.36-0.398,1.017c-0.342,0.512-0.471,0.948-0.455,1.449c0.047,1.365,1.085,2.262,2.586,2.208
			c2.01-0.065,2.588-2.022,2.555-3.027C52.428,13.603,49.939,12.111,46.644,12.219z"/>
	</g>
	<g>
		<g>
			<path fill="#1A171B" d="M196.782,23.534c7.48,0,12.499,5.407,12.499,12.887c0,7.048-5.116,12.886-12.499,12.886
				c-7.435,0-12.55-5.838-12.55-12.886C184.232,28.941,189.25,23.534,196.782,23.534z M196.782,45.643
				c5.306,0,7.671-4.827,7.671-9.222c0-4.68-2.847-9.217-7.671-9.217c-4.877,0-7.724,4.537-7.724,9.217
				C189.059,40.815,191.423,45.643,196.782,45.643z"/>
		</g>
		<path fill="#1A171B" d="M183.61,25.825v-1.713h-6.518v-2.341c0-3.33,0.483-5.842,4.391-5.842c0.072,0,0.149,0.005,0.224,0.008
			c0.008,0,0.007-0.012,0.016-0.012c1.085,0.08,1.987-0.804,2.048-1.887l0.08-1.486c-0.915-0.146-1.884-0.29-3.039-0.29
			c-6.709,0-8.255,3.91-8.255,9.896v1.955h-5.795v1.913c0.149,0.99,0.996,1.752,2.031,1.752c0.006,0,0.009,0.005,0.016,0.005h3.748
			v20.947h2.5c0.004,0,0.003-0.001,0.006-0.001c1.04,0,1.892-0.779,2.03-1.779V27.783h4.538
			C182.701,27.748,183.56,26.893,183.61,25.825z"/>
		<path fill="#1A171B" d="M123.175,24.112c-0.008,0-0.013,0.006-0.024,0.006c-0.956,0-1.882,0.657-2.286,1.545l-6.244,18.82h-0.096
			l-6.106-18.81c-0.399-0.893-1.329-1.555-2.291-1.555c-0.011,0-0.015-0.006-0.024-0.006h-3.164l8.351,22.977
			c0.291,0.821,0.871,2.077,0.871,2.606c0,0.483-1.353,6.08-5.409,6.08c-0.1,0-0.201-0.009-0.3-0.017
			c-1.034-0.057-1.815,0.665-1.989,1.779l-0.124,1.57c0.82,0.145,1.645,0.338,3.092,0.338c5.984,0,7.769-5.455,9.46-10.185
			l9.073-25.149H123.175z"/>
		<path fill="#1A171B" d="M94.332,29.112c-3.747-1.917-7.847-3.218-7.918-7.076c0.012-4.097,3.776-5.172,6.677-5.169
			c0.012-0.002,0.024-0.002,0.031-0.002c1.26,0,2.268,0.125,3.251,0.34c0.013,0,0.011-0.016,0.027-0.016
			c1.039,0.076,1.911-0.737,2.034-1.762l0.083-1.488c-1.902-0.473-3.889-0.712-5.619-0.712c-6.309,0.039-10.992,3.213-11.007,9.268
			c0.009,5.296,3.578,7.349,7.416,9.207c3.764,1.81,7.888,3.305,7.924,7.674c-0.023,4.56-4.423,6.241-7.455,6.247
			c-1.773-0.006-3.698-0.449-5.32-0.96c-1.017-0.168-1.851,0.729-1.982,1.917l-0.138,1.327c2.23,0.72,4.517,1.348,6.815,1.348
			c0,0,0.002,0,0.006,0c0.005,0,0.012,0,0.021,0c7.065-0.051,12.557-2.869,12.578-10.185
			C101.745,33.425,98.152,31.054,94.332,29.112z"/>
		<path fill="#1A171B" d="M162.955,48.729c0.002,0,0.002-0.001,0.006-0.001c0.98,0,1.796-0.687,2.004-1.604V32.947
			c0-5.358-2.267-9.413-8.546-9.413c-2.219,0-5.934,1.257-7.623,4.779c-1.306-3.331-4.15-4.779-7-4.779
			c-3.619,0-6.082,1.303-7.816,4.152h-0.099v-1.532c-0.015-1.126-0.926-2.036-2.055-2.036c-0.008,0-0.014-0.006-0.022-0.006h-2.169
			v24.617h2.456c0.004,0,0.004-0.001,0.006-0.001c1.137,0,2.059-0.922,2.059-2.059c0-0.03,0.011-0.042,0.016-0.063V36.326
			c0-4.585,1.834-9.122,6.467-9.122c3.669,0,4.396,3.811,4.396,6.853v14.673h2.49c0.002,0,0.002-0.001,0.007-0.001
			c1.073,0,1.939-0.824,2.037-1.873V36.326c0-4.585,1.835-9.122,6.468-9.122c3.667,0,4.393,3.811,4.393,6.853v14.673H162.955z"/>
		<path fill="#1A171B" d="M233.068,48.729c0.005,0,0.005-0.001,0.008-0.001c1.105,0,1.998-0.872,2.049-1.964v-12.66
			c0-6.611-2.85-10.571-9.222-10.571c-3.426,0-6.705,1.691-8.059,4.491h-0.097v-1.839c0-0.001-0.004-0.001-0.004-0.006
			c0-1.141-0.921-2.061-2.058-2.061c-0.011,0-0.015-0.006-0.022-0.006h-2.311v24.617h2.493c0.001,0,0.001-0.001,0.007-0.001
			c1.078,0,1.954-0.837,2.038-1.895v-9.495c0-5.984,2.319-10.135,7.482-10.135c3.96,0.24,5.211,3.038,5.211,8.783v12.742H233.068z"
			/>
		<path fill="#1A171B" d="M257.496,24.112c-0.011,0-0.014,0.006-0.026,0.006c-0.954,0-1.883,0.657-2.283,1.545l-6.242,18.82h-0.102
			l-6.104-18.81c-0.401-0.893-1.331-1.555-2.293-1.555c-0.007,0-0.015-0.006-0.021-0.006h-3.164l8.351,22.977
			c0.291,0.821,0.873,2.077,0.873,2.606c0,0.483-1.355,6.08-5.41,6.08c-0.102,0-0.201-0.009-0.301-0.017
			c-1.033-0.057-1.815,0.665-1.99,1.779l-0.122,1.57c0.82,0.145,1.645,0.338,3.091,0.338c5.984,0,7.772-5.455,9.462-10.185
			l9.074-25.149H257.496z"/>
	</g>
</g>
</svg>
