<?xml version="1.0" encoding="UTF-8" standalone="no"?>
<!DOCTYPE svg PUBLIC "-//W3C//DTD SVG 1.1//EN" "http://www.w3.org/Graphics/SVG/1.1/DTD/svg11.dtd">
<!-- Generated by Microsoft Visio, SVG Export open-id-connect-flows-v2.svg Page-2 -->
<svg xmlns="http://www.w3.org/2000/svg" xmlns:xlink="http://www.w3.org/1999/xlink" xmlns:ev="http://www.w3.org/2001/xml-events"
		xmlns:v="http://schemas.microsoft.com/visio/2003/SVGExtensions/" width="12.4803in" height="12.7165in"
		viewBox="0 0 898.583 915.591" xml:space="preserve" color-interpolation-filters="sRGB" class="st15">
	<v:documentProperties v:langID="1033" v:metric="true" v:viewMarkup="false">
		<v:userDefs>
			<v:ud v:nameU="msvSubprocessMaster" v:prompt="" v:val="VT4(Rectangle)"/>
			<v:ud v:nameU="msvNoAutoConnect" v:val="VT0(1):26"/>
		</v:userDefs>
	</v:documentProperties>

	<style type="text/css">
	<![CDATA[
		.st1 {fill:#f2f2f2;stroke:#7f7f7f;stroke-dasharray:1.75,1.25;stroke-width:0.25}
		.st2 {fill:#7f7f7f;font-family:Calibri;font-size:1.5em;font-style:italic}
		.st3 {fill:none;stroke:none;stroke-width:0.25}
		.st4 {fill:#4672c4;font-family:Calibri;font-size:1.5em}
		.st5 {font-size:1em}
		.st6 {fill:#7030a0;font-family:Calibri;font-size:1.5em;font-weight:bold}
		.st7 {fill:#bf9000;font-family:Calibri;font-size:1.5em;font-weight:bold}
		.st8 {fill:#ffc000;font-family:Calibri;font-size:1.5em;font-weight:bold}
		.st9 {fill:#ed7d31;font-family:Calibri;font-size:1.5em;font-weight:bold}
		.st10 {fill:#00b050;font-family:Calibri;font-size:1.5em;font-weight:bold}
		.st11 {fill:#ff0000;font-family:Calibri;font-size:1.5em;font-weight:bold}
		.st12 {fill:url(#grad0-60);stroke:#c7c8c8;stroke-width:0.25}
		.st13 {fill:#bdd0e9;stroke:#c7c8c8;stroke-width:0.25}
		.st14 {fill:#feffff;font-family:Calibri;font-size:2.50001em}
		.st15 {fill:none;fill-rule:evenodd;font-size:12px;overflow:visible;stroke-linecap:square;stroke-miterlimit:3}
	]]>
	</style>

	<defs id="Patterns_And_Gradients">
		<linearGradient id="grad0-60" x1="0" y1="0" x2="1" y2="0" gradientTransform="rotate(270 0.5 0.5)">
			<stop offset="0" stop-color="#2b4b87" stop-opacity="1"/>
			<stop offset="0.48" stop-color="#4b76c5" stop-opacity="1"/>
			<stop offset="1" stop-color="#90aadb" stop-opacity="1"/>
		</linearGradient>
	</defs>
	<g v:mID="4" v:index="2" v:groupContext="foregroundPage">
		<v:userDefs>
			<v:ud v:nameU="msvThemeOrder" v:val="VT0(0):26"/>
			<v:ud v:nameU="visNavType" v:val="VT0(1):26"/>
		</v:userDefs>
		<title>Page-2</title>
		<v:pageProperties v:drawingScale="0.0393701" v:pageScale="0.0393701" v:drawingUnits="24" v:shadowOffsetX="8.50394"
				v:shadowOffsetY="-8.50394"/>
		<g id="shape1-1" v:mID="1" v:groupContext="shape" transform="translate(17.0079,-164.409)">
			<title>Sheet.1</title>
			<desc>safer zone</desc>
			<v:userDefs>
				<v:ud v:nameU="visNavOrder" v:val="VT0(14000):26"/>
			</v:userDefs>
			<v:textBlock v:margins="rect(0,0,0,0)" v:tabSpace="42.5197" v:verticalAlign="2"/>
			<v:textRect cx="428.729" cy="731.339" width="857.46" height="368.504"/>
			<ellipse cx="428.729" cy="731.339" rx="428.729" ry="184.252" class="st1"/>
			<text x="391.34" y="888.59" class="st2" v:langID="1040"><v:paragraph v:horizAlign="1"/><v:tabList/><v:newlineChar/><v:newlineChar/><v:newlineChar/>safer zone<v:newlineChar/></text>		</g>
		<g id="shape2-4" v:mID="2" v:groupContext="shape" transform="translate(51.5591,-281.969)">
			<title>Sheet.2</title>
			<desc>client credential flow</desc>
			<v:userDefs>
				<v:ud v:nameU="visNavOrder" v:prompt="" v:val="VT0(1000):26"/>
			</v:userDefs>
			<v:textBlock v:margins="rect(4,4,4,4)" v:tabSpace="42.5197"/>
			<v:textRect cx="76" cy="905.591" width="152" height="20"/>
			<rect x="0" y="895.591" width="152" height="20" class="st3"/>
			<text x="16.99" y="900.19" class="st4" v:langID="1040"><v:paragraph v:horizAlign="1"/><v:tabList/>client credential<v:newlineChar/><tspan
						x="60.01" dy="1.2em" class="st5">flow</tspan></text>		</g>
		<g id="shape3-8" v:mID="3" v:groupContext="shape" transform="translate(203.322,-391.181)">
			<title>Sheet.3</title>
			<desc>on-behalf-of flow</desc>
			<v:userDefs>
				<v:ud v:nameU="visNavOrder" v:prompt="" v:val="VT0(2000):26"/>
			</v:userDefs>
			<v:textBlock v:margins="rect(4,4,4,4)" v:tabSpace="42.5197"/>
			<v:textRect cx="94.3158" cy="905.591" width="188.64" height="20"/>
			<rect x="0" y="895.591" width="188.632" height="20" class="st3"/>
			<text x="48.78" y="900.19" class="st4" v:langID="1040"><v:paragraph v:horizAlign="1"/><v:tabList/>on-behalf-of<v:newlineChar/><tspan
						x="78.32" dy="1.2em" class="st5">flow</tspan></text>		</g>
		<g id="shape4-12" v:mID="4" v:groupContext="shape" transform="translate(394.253,-330.109)">
			<title>Sheet.4</title>
			<desc>device-code flow</desc>
			<v:userDefs>
				<v:ud v:nameU="visNavOrder" v:prompt="" v:val="VT0(3000):26"/>
			</v:userDefs>
			<v:textBlock v:margins="rect(4,4,4,4)" v:tabSpace="42.5197"/>
			<v:textRect cx="51.0236" cy="897.038" width="102.05" height="37.1055"/>
			<rect x="0" y="878.485" width="102.047" height="37.1055" class="st3"/>
			<text x="6.89" y="891.64" class="st4" v:langID="1040"><v:paragraph v:horizAlign="1"/><v:tabList/>device-code<v:newlineChar/><tspan
						x="35.03" dy="1.2em" class="st5">flow</tspan></text>		</g>
		<g id="shape5-16" v:mID="5" v:groupContext="shape" transform="translate(608.694,-354.076)">
			<title>Sheet.5</title>
			<desc>authorization code grant flow</desc>
			<v:userDefs>
				<v:ud v:nameU="visNavOrder" v:prompt="" v:val="VT0(4000):26"/>
			</v:userDefs>
			<v:textBlock v:margins="rect(4,4,4,4)" v:tabSpace="42.5197"/>
			<v:textRect cx="76" cy="897.038" width="152" height="37.1055"/>
			<rect x="0" y="878.485" width="152" height="37.1055" class="st3"/>
			<text x="7.05" y="891.64" class="st4" v:langID="1040"><v:paragraph v:horizAlign="1"/><v:tabList/>authorization code<v:newlineChar/><tspan
						x="38.55" dy="1.2em" class="st5">grant flow</tspan></text>		</g>
		<g id="shape6-20" v:mID="6" v:groupContext="shape" transform="translate(726.74,-281.969)">
			<title>Sheet.6</title>
			<desc>implicit grant flow</desc>
			<v:userDefs>
				<v:ud v:nameU="visNavOrder" v:prompt="" v:val="VT0(5000):26"/>
			</v:userDefs>
			<v:textBlock v:margins="rect(4,4,4,4)" v:tabSpace="42.5197"/>
			<v:textRect cx="76" cy="905.591" width="152" height="20"/>
			<rect x="0" y="895.591" width="152" height="20" class="st3"/>
			<text x="27.54" y="900.19" class="st4" v:langID="1040"><v:paragraph v:horizAlign="1"/><v:tabList/>implicit grant<v:newlineChar/><tspan
						x="60.01" dy="1.2em" class="st5">flow</tspan></text>		</g>
		<g id="shape7-24" v:mID="7" v:groupContext="shape" transform="translate(311.811,-32.2158)">
			<title>Sheet.7</title>
			<desc>resource owner password credential flow</desc>
			<v:userDefs>
				<v:ud v:nameU="visNavOrder" v:prompt="" v:val="VT0(6000):26"/>
			</v:userDefs>
			<v:textBlock v:margins="rect(4,4,4,4)" v:tabSpace="42.5197"/>
			<v:textRect cx="269.291" cy="905.591" width="538.59" height="20"/>
			<rect x="0" y="895.591" width="538.583" height="20" class="st3"/>
			<text x="117.67" y="910.99" class="st4" v:langID="1040"><v:paragraph v:horizAlign="1"/><v:tabList/>resource owner password credential flow</text>		</g>
		<g id="shape8-27" v:mID="8" v:groupContext="shape" transform="translate(215.969,-824.724)">
			<title>Sheet.8</title>
			<desc>Server</desc>
			<v:userDefs>
				<v:ud v:nameU="visNavOrder" v:prompt="" v:val="VT0(7000):26"/>
			</v:userDefs>
			<v:textBlock v:margins="rect(4,4,4,4)" v:tabSpace="42.5197"/>
			<v:textRect cx="76" cy="905.591" width="152" height="20"/>
			<rect x="0" y="895.591" width="152" height="20" class="st3"/>
			<text x="52.57" y="910.99" class="st4" v:langID="1040"><v:paragraph v:horizAlign="1"/><v:tabList/>Server</text>		</g>
		<g id="shape9-30" v:mID="9" v:groupContext="shape" transform="translate(505.102,-810.551)">
			<title>Sheet.9</title>
			<desc>Client</desc>
			<v:userDefs>
				<v:ud v:nameU="visNavOrder" v:prompt="" v:val="VT0(8000):26"/>
			</v:userDefs>
			<v:textBlock v:margins="rect(4,4,4,4)" v:tabSpace="42.5197"/>
			<v:textRect cx="76" cy="905.591" width="152" height="20"/>
			<rect x="0" y="895.591" width="152" height="20" class="st3"/>
			<text x="54.85" y="910.99" class="st4" v:langID="1040"><v:paragraph v:horizAlign="1"/><v:tabList/>Client</text>		</g>
		<g id="shape10-33" v:mID="10" v:groupContext="shape" transform="translate(223.659,-407.672)">
			<title>Sheet.10</title>
			<desc>WebAPI2WebAPI</desc>
			<v:userDefs>
				<v:ud v:nameU="visNavOrder" v:prompt="" v:val="VT0(9000):26"/>
			</v:userDefs>
			<v:textBlock v:margins="rect(4,4,4,4)" v:tabSpace="42.5197"/>
			<v:textRect cx="76" cy="889.561" width="152" height="52.0583"/>
			<rect x="0" y="863.532" width="152" height="52.0583" class="st3"/>
			<text x="11.12" y="894.96" class="st6" v:langID="1040"><v:paragraph v:horizAlign="1"/><v:tabList/>WebAPI2WebAPI</text>		</g>
		<g id="shape11-36" v:mID="11" v:groupContext="shape" transform="translate(63.1437,-310.776)">
			<title>Sheet.11</title>
			<desc>batch server 2 server</desc>
			<v:userDefs>
				<v:ud v:nameU="visNavOrder" v:prompt="" v:val="VT0(10000):26"/>
			</v:userDefs>
			<v:textBlock v:margins="rect(4,4,4,4)" v:tabSpace="42.5197"/>
			<v:textRect cx="63.1256" cy="889.561" width="126.26" height="52.0583"/>
			<rect x="0" y="863.532" width="126.251" height="52.0583" class="st3"/>
			<text x="42.14" y="884.16" class="st7" v:langID="1040"><v:paragraph v:horizAlign="1"/><v:tabList/>batch<v:lf/><tspan
						x="7.88" dy="1.2em" class="st5">server 2 server</tspan></text>		</g>
		<g id="shape12-40" v:mID="12" v:groupContext="shape" transform="translate(724.863,-315.553)">
			<title>Sheet.12</title>
			<desc>web SPA no CORS support</desc>
			<v:userDefs>
				<v:ud v:nameU="visNavOrder" v:prompt="" v:val="VT0(11000):26"/>
			</v:userDefs>
			<v:textBlock v:margins="rect(4,4,4,4)" v:tabSpace="42.5197"/>
			<v:textRect cx="76" cy="897.038" width="152" height="37.1055"/>
			<rect x="0" y="878.485" width="152" height="37.1055" class="st3"/>
			<text x="45.44" y="891.64" class="st8" v:langID="1040"><v:paragraph v:horizAlign="1"/><v:tabList/>web SPA<v:newlineChar/><tspan
						x="12.86" dy="1.2em" class="st5">no CORS support</tspan></text>		</g>
		<g id="shape13-44" v:mID="13" v:groupContext="shape" transform="translate(349.951,-395.354)">
			<title>Sheet.13</title>
			<desc>app on input-constrained devices</desc>
			<v:userDefs>
				<v:ud v:nameU="visNavOrder" v:prompt="" v:val="VT0(12000):26"/>
			</v:userDefs>
			<v:textBlock v:margins="rect(4,4,4,4)" v:tabSpace="42.5197"/>
			<v:textRect cx="94.3158" cy="905.591" width="188.64" height="20"/>
			<rect x="0" y="895.591" width="188.632" height="20" class="st3"/>
			<text x="68.51" y="889.39" class="st9" v:langID="1040"><v:paragraph v:horizAlign="1"/><v:tabList/>app on  <v:newlineChar/><tspan
						x="27.55" dy="1.2em" class="st5">input</tspan>-constrained<v:newlineChar/><tspan x="66.6" dy="1.2em"
						class="st5">devices</tspan></text>		</g>
		<g id="shape14-49" v:mID="14" v:groupContext="shape" transform="translate(590.896,-405.354)">
			<title>Sheet.14</title>
			<desc>mobile|desktop app</desc>
			<v:userDefs>
				<v:ud v:nameU="visNavOrder" v:prompt="" v:val="VT0(13000):26"/>
			</v:userDefs>
			<v:textBlock v:margins="rect(4,4,4,4)" v:tabSpace="42.5197"/>
			<v:textRect cx="94.3158" cy="905.591" width="188.64" height="20"/>
			<rect x="0" y="895.591" width="188.632" height="20" class="st3"/>
			<text x="34.04" y="900.19" class="st10" v:langID="1040"><v:paragraph v:horizAlign="1"/><v:tabList/>mobile|desktop<v:newlineChar/><tspan
						x="80.21" dy="1.2em" class="st5">app</tspan></text>		</g>
		<g id="shape15-53" v:mID="15" v:groupContext="shape" transform="translate(520.285,-65.1969)">
			<title>Sheet.15</title>
			<desc>High TRUST App</desc>
			<v:userDefs>
				<v:ud v:nameU="visNavOrder" v:prompt="" v:val="VT0(15000):26"/>
			</v:userDefs>
			<v:textBlock v:margins="rect(4,4,4,4)" v:tabSpace="42.5197"/>
			<v:textRect cx="51.0236" cy="905.591" width="102.05" height="20"/>
			<rect x="0" y="895.591" width="102.047" height="20" class="st3"/>
			<text x="7.9" y="900.19" class="st11" v:langID="1040"><v:paragraph v:horizAlign="1"/><v:tabList/>High TRUST <tspan
						x="35.91" dy="1.2em" class="st5">App</tspan></text>		</g>
		<g id="shape16-57" v:mID="16" v:groupContext="shape" transform="translate(95.0882,-98.178)">
			<title>Sheet.16</title>
			<v:userDefs>
				<v:ud v:nameU="visNavOrder" v:val="VT0(16000):26"/>
			</v:userDefs>
			<path d="M726.84 393.56 A18.5528 18.5528 -180 0 0 726.96 391.44 A18.5528 18.5528 -180 0 0 708.41 372.88 L576.72 372.88
						 L576.72 288.35 L576.72 273.93 L576.72 234.24 A22.6772 22.6772 -180 0 0 554.05 211.56 L395.31 211.56 L395.31
						 154.87 L287.59 154.87 L287.59 194.56 L123.18 194.56 L106.17 194.56 A22.6772 22.6772 -180 0 0 83.49 217.23
						 L83.49 234.24 L83.49 330.62 A22.6772 22.6772 -180 0 0 83.87 334.74 L31.18 334.74 A18.5528 18.5528 -180 0
						 0 12.63 353.3 L12.63 597.46 L0 597.46 L31.89 649.52 L62.36 597.46 L49.73 597.46 L49.73 388.36 A18.5528 18.5528
						 0 0 1 66.02 371.85 L96.12 371.85 A18.5528 18.5528 -180 0 0 114.68 353.3 L115.18 353.3 A18.5528 18.5528 -180
						 0 0 133.73 371.85 L168.91 371.85 A18.5528 18.5528 0 0 1 186.02 388.52 L186.02 497.35 L173.39 497.35 L205.28
						 549.4 L235.75 497.35 L223.12 497.35 L223.12 353.3 A18.5528 18.5528 -180 0 0 204.57 334.74 L204.46 334.74
						 L204.34 334.74 L145.48 334.74 A22.6772 22.6772 -180 0 0 145.86 330.62 L145.86 256.92 L307.43 256.92 A22.6772
						 22.6772 -180 0 0 329.39 239.91 L330.11 239.91 L330.11 288.35 A22.6772 22.6772 -180 0 0 330.15 289.64 A18.5528
						 18.5528 -180 0 0 330.11 290.81 L330.11 504.82 A18.5528 18.5528 -180 0 0 330.25 507.12 L317.48 507.12 L349.37
						 559.17 L379.84 507.12 L367.07 507.12 A18.5528 18.5528 -180 0 0 367.21 504.82 L367.21 326.77 A18.5528 18.5528
						 0 0 1 382.52 311.03 L498.7 311.03 A18.5528 18.5528 0 0 1 514.36 327.21 L514.36 372.88 L476.22 372.88 A18.5528
						 18.5528 -180 0 0 457.67 391.44 A18.5528 18.5528 -180 0 0 457.79 393.56 A18.5528 18.5528 -180 0 0 457.67
						 395.69 L457.67 859.15 A18.5528 18.5528 -180 0 0 458.19 863.53 L445.04 863.53 L476.93 915.59 L507.4 863.53
						 L494.25 863.53 A18.5528 18.5528 -180 0 0 494.77 859.15 L494.77 427.51 A18.5528 18.5528 0 0 1 512.88 409.99
						 L537.02 409.99 L537.04 409.99 L554.05 409.99 L554.07 409.99 L571.05 409.99 L571.05 499.66 L558.43 499.66
						 L590.32 551.72 L620.79 499.66 L608.16 499.66 L608.16 409.99 L671.38 409.99 A18.5528 18.5528 0 0 1 689.85
						 426.84 L689.85 601.39 L677.23 601.39 L709.12 653.45 L739.59 601.39 L726.96 601.39 L726.96 395.69 A18.5528
						 18.5528 -180 0 0 726.84 393.56 Z" class="st12"/>
		</g>
		<g id="shape17-61" v:mID="17" v:groupContext="shape" transform="translate(364.252,-844.724)">
			<title>Ellipse</title>
			<desc>Azure AD</desc>
			<v:userDefs>
				<v:ud v:nameU="visVersion" v:val="VT0(15):26"/>
				<v:ud v:nameU="visNavOrder" v:val="VT0(17000):26"/>
			</v:userDefs>
			<v:textBlock v:margins="rect(4,4,4,4)" v:tabSpace="42.5197"/>
			<v:textRect cx="72.2835" cy="873.071" width="126.5" height="74.4094"/>
			<path d="M0 873.07 A72.2835 42.5197 0 0 1 144.57 873.07 A72.2835 42.5197 0 1 1 0 873.07 Z" class="st13"/>
			<text x="15.81" y="882.07" class="st14" v:langID="1040"><v:paragraph v:horizAlign="1"/><v:tabList/>Azure AD</text>		</g>
		<g id="shape18-64" v:mID="18" v:groupContext="shape" transform="translate(728.583,-226.517)">
			<title>Sheet.18</title>
			<desc>auth code PKCE grant flow</desc>
			<v:userDefs>
				<v:ud v:nameU="visNavOrder" v:prompt="" v:val="VT0(18000):26"/>
			</v:userDefs>
			<v:textBlock v:margins="rect(4,4,4,4)" v:tabSpace="42.5197"/>
			<v:textRect cx="76" cy="897.038" width="152" height="37.1055"/>
			<rect x="0" y="878.485" width="152" height="37.1055" class="st3"/>
			<text x="18.87" y="891.64" class="st4" v:langID="1040"><v:paragraph v:horizAlign="1"/><v:tabList/>auth code PKCE<v:newlineChar/><tspan
						x="38.55" dy="1.2em" class="st5">grant flow</tspan></text>		</g>
	</g>
</svg>
