<?xml version="1.0" standalone="no"?>
<!DOCTYPE svg PUBLIC "-//W3C//DTD SVG 20010904//EN"
 "http://www.w3.org/TR/2001/REC-SVG-20010904/DTD/svg10.dtd">
<svg version="1.0" xmlns="http://www.w3.org/2000/svg"
 width="700.000000pt" height="700.000000pt" viewBox="0 0 700.000000 700.000000"
 preserveAspectRatio="xMidYMid meet">
<metadata>
Created by potrace 1.14, written by Peter Selinger 2001-2017
</metadata>
<g transform="translate(0.000000,700.000000) scale(0.100000,-0.100000)"
fill="#000000" stroke="none">
<path d="M2196 6871 c-15 -24 45 -167 127 -303 124 -204 249 -494 307 -713 12
-44 34 -120 50 -170 15 -49 47 -155 70 -235 64 -221 109 -303 175 -316 66 -12
109 41 107 136 -2 59 -2 62 -21 130 -7 25 -15 56 -17 70 -12 71 -79 319 -113
415 -157 448 -202 530 -416 754 -98 103 -262 244 -269 232z"/>
<path d="M4834 6133 c-27 -142 -175 -323 -408 -497 -197 -148 -267 -259 -216
-344 19 -31 30 -36 80 -34 62 3 208 92 304 186 147 145 266 437 266 656 0 75
-15 94 -26 33z"/>
<path d="M780 5192 c0 -5 24 -31 53 -58 57 -52 158 -160 242 -258 28 -32 57
-66 65 -76 100 -115 131 -151 166 -191 101 -114 158 -212 199 -339 26 -80 57
-117 113 -134 86 -25 131 0 139 77 7 63 -12 135 -67 253 -69 147 -110 205
-219 313 -180 178 -203 195 -427 322 -94 52 -264 111 -264 91z"/>
<path d="M6070 4920 c-36 -27 -170 -69 -275 -84 -94 -14 -258 -14 -360 -2 -53
7 -62 6 -82 -13 -85 -80 71 -208 261 -215 122 -5 227 34 335 124 112 93 224
270 121 190z"/>
<path d="M3515 4868 c-140 -13 -182 -18 -265 -33 -47 -8 -116 -24 -155 -35
-38 -11 -77 -22 -85 -24 -77 -20 -309 -127 -425 -196 -136 -82 -382 -306 -505
-460 -24 -30 -64 -86 -89 -125 -26 -38 -65 -94 -86 -124 -22 -30 -49 -69 -60
-88 -77 -127 -128 -218 -149 -264 -42 -95 -115 -328 -129 -409 -3 -14 -12 -64
-21 -112 -20 -106 -26 -178 -30 -373 -5 -197 15 -329 94 -620 11 -38 21 -82
24 -96 6 -37 98 -219 144 -287 21 -31 41 -62 43 -69 9 -25 177 -222 260 -304
113 -112 163 -149 359 -260 175 -99 223 -118 401 -154 101 -21 132 -23 184
-16 6 1 -35 21 -90 45 -304 132 -531 296 -750 541 -122 137 -255 326 -255 362
0 10 26 12 123 9 67 -2 136 -5 154 -5 l31 -1 -5 -50 c-5 -49 2 -61 24 -39 17
17 31 3 26 -25 -5 -26 7 -39 30 -31 10 4 13 18 11 46 l-3 39 52 1 c65 2 161
-1 207 -5 19 -2 47 -4 61 -5 14 0 35 -9 47 -19 23 -20 63 -22 86 -3 12 10 15
8 21 -8 8 -27 35 -27 42 0 5 19 12 20 106 18 138 -2 137 -2 137 -59 0 -67 4
-69 145 -85 32 -4 66 -8 75 -10 8 -1 38 -6 65 -9 28 -4 68 -9 90 -12 22 -3 51
-8 65 -10 171 -23 437 -23 645 1 17 2 97 6 179 10 83 3 152 8 155 10 6 3 73
11 175 21 52 5 629 5 676 0 19 -2 71 -9 115 -15 44 -6 105 -13 135 -16 30 -3
71 -7 90 -10 57 -7 131 -14 200 -20 36 -3 86 -8 112 -11 108 -12 193 -15 561
-20 345 -5 387 -4 387 10 0 9 -10 18 -22 20 -34 8 -160 15 -269 17 l-97 1 -7
57 c-3 31 -8 68 -11 83 -5 34 28 68 60 62 26 -5 153 -14 259 -18 65 -2 77 0
75 12 -5 25 -77 38 -272 48 -106 6 -146 16 -147 36 0 7 -2 22 -4 33 -2 11 -9
74 -15 140 -7 66 -16 127 -20 135 -5 9 -5 31 -1 50 4 19 3 60 -1 90 -5 30 -11
98 -13 150 -8 174 -16 284 -25 340 -5 30 -12 93 -15 140 -4 47 -8 105 -10 130
-3 25 -7 99 -10 165 -7 161 -15 285 -20 315 -2 14 -7 61 -11 105 -3 44 -8 94
-10 110 -1 17 -5 68 -8 115 -4 47 -8 103 -11 125 -14 110 -26 355 -17 355 14
0 105 -61 157 -105 28 -23 93 -72 145 -109 109 -77 115 -82 192 -147 57 -50
82 -59 91 -36 7 18 -161 168 -263 235 -30 20 -91 67 -134 104 -43 37 -83 68
-88 68 -5 0 -29 13 -53 30 -73 50 -87 53 -142 23 -26 -14 -88 -43 -138 -65
-49 -22 -124 -57 -166 -78 -42 -22 -119 -58 -170 -81 -52 -22 -112 -49 -134
-59 -22 -10 -87 -39 -144 -64 -57 -26 -151 -71 -210 -100 l-106 -54 -75 33
c-41 19 -115 48 -165 65 -49 18 -123 48 -163 66 -39 19 -151 68 -248 109 -178
76 -222 96 -354 158 -79 37 -181 81 -267 116 -35 14 -62 19 -80 15 -41 -10
-108 -62 -189 -146 -39 -40 -104 -102 -144 -138 -147 -131 -202 -186 -216
-212 -17 -33 -23 -101 -29 -351 -2 -109 -6 -201 -9 -205 -5 -9 -14 -124 -22
-282 -2 -63 -7 -128 -9 -145 -2 -16 -7 -59 -10 -95 -12 -123 15 -110 -223
-108 -217 2 -310 -1 -317 -12 -5 -9 -13 -51 -25 -145 -8 -60 -16 -84 -31 -97
-27 -23 -37 -16 -31 23 6 40 -18 36 -29 -4 -12 -46 -1 -67 37 -67 32 0 34 -2
29 -27 -2 -16 -7 -62 -10 -103 -3 -41 -7 -106 -10 -145 -8 -107 -24 -214 -35
-234 -5 -10 -7 -21 -3 -24 9 -10 9 -128 0 -134 -14 -8 -187 -15 -205 -8 -13 5
-14 8 -3 14 19 12 5 48 -22 57 -22 7 -22 8 3 14 14 3 60 6 103 5 68 -1 77 1
77 17 0 20 -3 21 -74 18 -60 -2 -59 17 2 36 72 21 81 38 52 109 -9 23 -9 38 1
68 15 47 3 91 -27 95 -16 2 -23 16 -33 63 -17 73 -31 89 -81 89 -57 0 -90 -16
-103 -49 -6 -17 -22 -36 -35 -43 -31 -16 -44 -48 -27 -68 27 -33 27 -57 -3
-92 -43 -50 -56 -88 -41 -124 7 -16 19 -36 27 -46 7 -9 12 -31 10 -50 l-3 -33
-115 3 c-63 2 -123 6 -132 8 -34 10 -66 86 -123 289 -43 159 -49 186 -60 308
l-5 57 53 0 c54 0 54 0 55 -32 2 -66 64 -82 140 -37 34 19 34 19 68 -1 27 -18
39 -19 68 -12 27 8 38 7 47 -4 19 -23 46 -16 69 16 12 16 32 33 46 36 13 3 25
11 25 18 1 6 2 16 4 21 1 6 3 16 3 23 3 17 52 15 95 -3 53 -22 69 -12 62 40
-6 49 4 53 49 17 56 -43 85 -17 37 32 -29 29 -38 33 -83 32 -57 -1 -65 -10
-49 -57 10 -28 9 -30 -7 -24 -24 11 -92 21 -127 20 -31 -1 -32 -2 -21 -47 5
-23 0 -30 -38 -56 -27 -18 -48 -26 -53 -21 -15 15 -69 27 -83 19 -7 -4 -25 -3
-41 4 -25 9 -36 7 -72 -12 -48 -25 -84 -34 -91 -23 -3 4 -7 19 -10 34 -12 68
-14 70 -65 64 -25 -3 -53 -8 -62 -12 -22 -8 -26 13 -23 110 9 246 32 406 88
603 26 89 61 190 80 225 18 34 47 87 63 117 49 92 155 272 192 325 54 79 213
265 273 320 124 114 171 149 283 210 39 21 81 46 95 55 47 32 235 104 350 135
42 11 235 50 300 61 19 3 53 9 75 13 111 20 440 19 561 -3 191 -34 608 -161
763 -232 42 -20 99 -49 126 -67 105 -65 212 -138 263 -178 29 -23 54 -40 56
-38 9 9 -132 184 -214 266 -88 89 -350 231 -540 291 -185 59 -420 113 -562
128 -81 9 -370 10 -453 2z m391 -538 c32 -11 73 -27 89 -34 17 -8 73 -34 125
-58 52 -25 122 -57 155 -71 33 -14 112 -48 175 -75 520 -225 686 -305 694
-336 7 -24 8 -66 2 -66 -2 0 -44 15 -92 34 -48 19 -93 32 -100 29 -9 -3 -13
-43 -13 -143 l0 -138 99 -33 c91 -30 100 -36 101 -59 1 -14 2 -49 3 -78 2 -49
18 -83 32 -69 3 3 7 41 9 83 1 59 6 80 19 89 9 7 64 29 121 50 96 34 105 39
106 64 4 77 4 238 1 253 -5 23 -30 17 -145 -34 -48 -22 -91 -37 -95 -34 -5 3
-9 22 -10 43 -2 38 -1 39 76 80 42 23 111 55 152 71 41 17 107 45 145 62 39
18 90 41 115 52 25 11 77 35 115 53 39 18 135 62 215 98 80 36 163 74 185 85
22 11 52 22 68 26 l27 6 1 -107 c1 -124 3 -140 24 -352 3 -25 7 -77 10 -115 7
-92 13 -152 25 -256 5 -47 12 -152 15 -235 3 -82 8 -166 9 -185 2 -19 7 -91
10 -160 6 -123 13 -211 22 -260 2 -14 6 -59 9 -100 24 -367 30 -442 40 -510 9
-65 16 -221 10 -240 -6 -20 23 -20 -455 -5 -444 14 -756 30 -766 39 -9 8 -9
98 0 104 6 4 70 9 141 12 l130 5 0 135 c1 74 -2 149 -5 165 -6 29 -7 30 -65
29 -66 -1 -180 -12 -207 -20 -13 -4 -18 0 -18 15 0 21 -17 37 -28 27 -8 -9
-10 -286 -2 -368 6 -56 4 -65 -16 -85 -13 -13 -32 -24 -44 -24 -68 -4 -89 -4
-127 3 -60 10 -99 11 -288 3 -339 -13 -974 -19 -984 -9 -3 3 -6 54 -6 112 0
85 -3 107 -14 107 -16 0 -20 -13 -31 -109 -6 -59 -12 -74 -35 -94 -23 -19 -37
-23 -84 -21 -31 1 -70 6 -88 11 -17 5 -96 10 -175 11 l-143 2 0 90 c0 50 3
108 8 130 5 22 10 65 12 95 2 30 7 80 10 110 3 30 8 100 10 155 3 55 7 111 10
125 3 14 7 41 10 60 3 19 7 46 10 60 2 14 7 59 10 100 7 82 14 130 20 140 6
10 14 134 20 315 3 83 8 186 11 230 3 44 7 157 8 250 1 105 7 178 14 191 6 12
28 34 48 50 20 16 58 49 83 74 213 205 301 289 330 315 l33 30 -6 -195 c-14
-412 -17 -473 -32 -630 -1 -19 -6 -104 -9 -189 -6 -157 -8 -173 -20 -271 -8
-71 -13 -164 -20 -380 -12 -396 -14 -456 -19 -476 -2 -12 -7 -44 -11 -72 -6
-50 -6 -52 18 -52 24 0 25 2 30 93 3 50 8 103 11 117 3 14 8 126 11 250 9 368
14 464 30 534 10 42 17 136 20 263 4 195 10 284 21 333 3 14 8 97 10 185 2 88
6 228 9 310 2 83 4 162 5 178 0 15 2 27 3 27 2 0 30 -9 63 -20z m1504 -614 c0
-28 -25 -54 -33 -34 -6 17 10 58 23 58 5 0 10 -11 10 -24z m-339 -47 c46 -20
49 -23 43 -52 -3 -17 -6 -32 -7 -34 -1 -1 -21 7 -44 17 -35 15 -73 59 -73 85
0 11 33 4 81 -16z m253 12 c12 -19 -7 -40 -54 -59 -51 -21 -60 -20 -60 8 0 11
18 25 48 38 54 24 59 25 66 13z m82 -97 c4 -20 2 -40 -4 -46 -16 -16 -29 -2
-26 29 1 15 2 34 3 41 2 26 20 10 27 -24z m-86 -34 c4 -50 0 -58 -40 -74 -62
-25 -70 -22 -70 24 0 37 3 41 48 64 51 26 59 24 62 -14z m-240 -13 c30 -10 35
-17 36 -45 1 -33 1 -34 -35 -27 -52 9 -81 31 -81 60 0 29 22 32 80 12z m-2259
-914 c-6 -33 -13 -82 -16 -109 -3 -27 -9 -71 -14 -99 -6 -27 -13 -77 -16 -110
-3 -33 -8 -73 -11 -90 -9 -62 -14 -113 -20 -240 -3 -71 -7 -131 -9 -133 -6 -7
-133 -5 -144 2 -13 8 -7 124 14 252 2 12 6 61 10 110 4 49 9 98 11 109 3 11 7
52 9 90 3 39 7 81 10 95 2 14 7 52 11 85 11 99 13 101 85 104 35 1 66 4 68 7
3 2 9 0 14 -5 5 -5 4 -33 -2 -68z m195 66 c106 -1 160 -11 151 -26 -3 -5 -8
-46 -11 -93 -4 -47 -9 -94 -11 -105 -3 -11 -9 -72 -15 -135 -6 -63 -12 -128
-14 -145 -3 -16 -7 -66 -11 -110 -4 -44 -8 -87 -10 -95 -2 -8 -6 -44 -10 -80
-4 -36 -12 -69 -19 -73 -13 -9 -188 -2 -288 12 -9 1 4 200 18 275 2 10 6 53 9
95 5 67 11 123 20 171 2 8 6 42 9 75 10 96 17 149 21 170 2 11 4 25 4 32 1 16
31 44 40 39 4 -3 57 -6 117 -7z m-670 -406 c3 -10 12 -31 19 -48 8 -16 16 -42
19 -56 4 -18 14 -29 31 -33 28 -7 33 -32 10 -62 -19 -25 -19 -48 1 -64 25 -22
14 -63 -21 -74 -16 -5 -40 -13 -51 -18 -14 -7 -28 -7 -40 0 -11 5 -41 12 -69
15 -97 10 -109 27 -60 89 42 52 56 121 32 146 -15 14 -14 17 13 34 17 10 30
26 30 37 0 40 75 69 86 34z m3029 -102 c8 -14 -10 -22 -65 -28 -41 -4 -50 -2
-50 10 0 9 10 17 23 19 55 8 86 7 92 -1z m85 -6 c0 -8 -7 -15 -15 -15 -16 0
-20 12 -8 23 11 12 23 8 23 -8z m13 -157 c5 -62 4 -68 -14 -68 -22 0 -21 -3
-25 70 -3 52 11 90 27 73 4 -4 9 -38 12 -75z m-105 -1 l3 -67 -57 0 -57 0 6
61 c6 69 16 80 67 76 l35 -2 3 -68z m-3053 -148 c-10 -15 -25 -10 -19 6 4 8
10 12 15 9 5 -3 7 -10 4 -15z m-63 -24 c-2 -14 -8 -25 -13 -25 -5 0 -7 10 -5
23 3 12 5 26 5 30 1 5 5 6 10 3 4 -3 6 -17 3 -31z m462 -41 c21 -8 21 -24 0
-24 -9 0 -27 -11 -39 -24 -39 -43 -108 -12 -88 40 5 15 95 20 127 8z m362 -35
c7 -6 10 -17 7 -25 -4 -11 -27 -14 -99 -14 -54 0 -94 4 -94 10 0 14 -33 29
-77 36 -73 11 -45 14 102 9 84 -3 153 -9 161 -16z m344 -14 c47 -3 120 -7 162
-9 43 -3 82 -7 86 -10 5 -3 6 -27 2 -53 -4 -26 -11 -70 -15 -98 -3 -27 -8 -51
-10 -53 -1 -2 -29 1 -61 7 -33 5 -84 13 -114 16 -85 10 -156 21 -192 31 -16 5
-16 8 -4 27 22 34 31 97 15 98 -91 8 -122 5 -140 -15 -21 -22 -24 -13 -13 44
l7 32 96 -6 c53 -3 134 -8 181 -11z m1610 -10 c80 -4 149 -9 153 -12 5 -3 7
-33 5 -68 l-2 -62 -161 -2 c-216 -3 -359 -8 -420 -15 -27 -3 -81 -8 -120 -11
-38 -3 -86 -8 -105 -10 -72 -10 -118 -14 -240 -20 -69 -3 -138 -8 -155 -11
-16 -2 -87 -6 -156 -9 l-126 -4 4 57 c1 31 6 82 10 112 l8 54 383 2 c211 1
385 4 387 6 6 6 379 1 535 -7z m655 -10 c182 -10 337 -16 520 -20 212 -5 267
-9 285 -20 6 -3 10 -53 10 -110 l0 -104 -70 2 c-38 2 -71 5 -74 8 -3 2 -6 34
-7 69 -1 36 -6 80 -11 98 -8 32 -9 32 -71 33 -199 3 -200 2 -195 -104 l3 -82
-30 1 c-16 0 -59 4 -95 7 -36 4 -99 9 -140 12 -41 3 -106 10 -145 16 -38 6
-92 12 -120 15 -27 3 -61 7 -75 10 -28 4 -167 19 -217 23 -7 1 -14 28 -18 66
-11 101 -17 99 210 90 104 -4 213 -8 240 -10z m-2452 -62 c3 -5 -8 -9 -24 -10
-17 -1 -27 2 -24 7 7 12 42 13 48 3z m3071 -32 c4 -5 9 -41 12 -80 l7 -71 -98
4 c-53 2 -101 8 -105 13 -10 9 -20 129 -12 137 9 10 190 7 196 -3z m-3089 -41
c-3 -5 -17 -10 -31 -10 -13 0 -24 5 -24 10 0 6 14 10 31 10 17 0 28 -4 24 -10z"/>
<path d="M3911 4192 c-5 -10 -11 -88 -13 -173 l-3 -154 150 -51 c83 -28 162
-56 177 -62 15 -6 30 -8 32 -3 3 4 4 79 3 166 l-2 159 -125 51 c-224 92 -208
87 -219 67z m54 -112 c-5 -8 -11 -8 -17 -2 -6 6 -7 16 -3 22 5 8 11 8 17 2 6
-6 7 -16 3 -22z m152 -29 c63 -28 68 -31 65 -58 -2 -15 -5 -29 -5 -29 -1 -1
-33 11 -72 26 -64 25 -70 30 -73 59 -2 17 1 31 6 31 6 0 41 -13 79 -29z m-153
-102 c4 -38 -6 -65 -21 -56 -11 7 -16 84 -7 99 10 16 23 -4 28 -43z m169 -28
c45 -19 58 -42 49 -84 -3 -16 -10 -18 -38 -12 -19 3 -55 15 -80 25 -42 18 -44
21 -39 51 10 57 18 59 108 20z"/>
<path d="M6185 4152 c-6 -5 -41 -21 -80 -37 -38 -16 -116 -51 -173 -77 l-103
-49 4 -159 c3 -87 8 -163 11 -169 6 -10 104 19 131 39 6 4 62 27 125 50 63 24
117 45 118 46 5 3 2 271 -4 314 -5 39 -15 54 -29 42z m-7 -96 c4 -20 -21 -46
-45 -46 -16 0 -17 42 -1 58 17 17 42 11 46 -12z m-128 -62 c0 -12 -113 -74
-135 -74 -3 0 -5 13 -5 29 0 24 6 31 43 44 76 28 97 28 97 1z m124 -42 c3 -5
8 -29 11 -54 6 -40 4 -47 -19 -61 -29 -20 -34 -15 -31 34 4 72 22 108 39 81z
m-123 -92 c1 -16 2 -40 2 -52 1 -18 -11 -27 -66 -49 -74 -31 -80 -28 -79 33 1
48 21 73 70 86 64 17 72 15 73 -18z"/>
<path d="M4286 4016 c-3 -14 -7 -84 -7 -157 -1 -119 0 -133 17 -142 35 -20
296 -107 305 -102 4 3 6 22 4 43 -5 34 -13 173 -14 233 -1 20 -9 29 -38 42
-93 40 -255 107 -258 107 -2 0 -6 -11 -9 -24z m59 -96 c-5 -8 -11 -8 -17 -2
-6 6 -7 16 -3 22 5 8 11 8 17 2 6 -6 7 -16 3 -22z m120 -14 c53 -24 60 -33 55
-66 -3 -24 -7 -24 -65 1 -54 23 -76 52 -60 78 8 14 6 15 70 -13z m-113 -99 c6
-30 -9 -70 -22 -62 -11 7 -14 68 -3 78 12 13 21 7 25 -16z m168 -88 c0 -32 -3
-40 -14 -36 -8 3 -33 11 -55 17 -46 12 -52 19 -53 61 -2 45 18 51 74 23 46
-23 48 -26 48 -65z"/>
<path d="M5715 3926 c-22 -12 -78 -39 -125 -59 -47 -20 -93 -46 -102 -59 -13
-18 -17 -50 -20 -148 -3 -115 -2 -125 16 -128 16 -4 236 55 293 78 24 10 24
-2 8 253 -4 67 -10 88 -23 86 -4 -1 -25 -11 -47 -23z m34 -78 c-13 -24 -51
-25 -42 0 3 9 13 23 21 29 21 17 35 -3 21 -29z m-101 -35 c-4 -21 -70 -56 -98
-51 -18 3 -19 5 -8 21 11 15 76 45 101 47 5 0 7 -7 5 -17z m113 -65 c4 -78 -6
-108 -30 -94 -13 8 -11 96 2 114 16 21 27 13 28 -20z m-103 -52 c6 -53 -4 -70
-56 -88 -28 -10 -52 -18 -56 -18 -3 0 -6 23 -6 50 0 50 1 51 43 70 55 24 71
21 75 -14z"/>
<path d="M4635 3764 c7 -144 10 -168 20 -184 9 -14 226 -82 242 -75 12 4 14
28 11 134 -3 119 -5 131 -26 154 -13 14 -36 27 -52 30 -15 4 -57 19 -92 36
-34 16 -74 32 -87 36 l-23 7 7 -138z m203 -18 c21 -20 8 -46 -24 -46 -14 0
-44 10 -65 22 -30 17 -39 28 -39 48 0 15 3 29 6 32 7 8 102 -36 122 -56z m-39
-84 c31 -15 36 -22 39 -55 2 -26 -1 -39 -11 -43 -15 -5 -116 33 -118 45 -12
89 -1 95 90 53z"/>
<path d="M3897 3617 c-20 -14 -27 -72 -30 -219 -2 -134 2 -139 128 -169 50
-11 121 -29 160 -39 49 -13 72 -15 77 -7 3 6 7 74 7 151 1 87 6 145 13 153 6
7 9 15 7 16 -2 2 -65 23 -139 48 -74 25 -151 53 -171 62 -29 13 -40 14 -52 4z
m62 -93 c2 -2 1 -10 -3 -19 -4 -13 -10 -14 -26 -5 -29 15 -27 43 3 34 12 -3
24 -8 26 -10z m163 -47 c70 -29 51 -50 -23 -26 -41 14 -61 28 -54 40 7 10 30
6 77 -14z m-186 -114 c-7 -62 -10 -68 -24 -59 -10 6 -7 89 3 107 4 5 11 9 17
9 7 0 9 -19 4 -57z m162 25 l63 -22 -3 -61 -3 -60 -45 3 c-25 2 -60 10 -77 17
-30 13 -33 18 -33 57 0 55 9 88 24 88 6 0 39 -10 74 -22z"/>
<path d="M6045 3512 c-88 -29 -164 -58 -170 -63 -11 -11 -16 -321 -5 -338 4
-7 22 -6 55 4 69 20 228 61 299 76 l58 13 -7 80 c-9 96 -14 185 -15 243 0 40
-2 43 -27 41 -16 -1 -100 -26 -188 -56z m170 -31 c2 -23 -28 -47 -45 -36 -16
10 -11 43 8 54 24 14 35 9 37 -18z m-130 -46 c0 -16 -12 -23 -60 -37 -78 -21
-92 -22 -99 -1 -9 23 4 33 65 48 71 17 94 15 94 -10z m135 -49 c0 0 3 -31 6
-68 l7 -68 -27 0 c-20 0 -26 5 -27 23 0 12 -3 42 -5 66 -5 45 6 64 33 54 7 -3
13 -6 13 -7z m-125 -48 c8 -25 13 -106 6 -116 -3 -6 -29 -16 -56 -23 -28 -6
-62 -18 -77 -25 -16 -8 -29 -10 -33 -4 -11 18 -13 104 -3 125 14 27 12 25 55
40 48 18 102 19 108 3z"/>
<path d="M4291 3471 c-6 -10 -10 -82 -10 -159 l0 -141 54 -20 c30 -11 65 -22
77 -25 13 -2 51 -12 86 -22 46 -13 66 -14 74 -6 6 6 12 56 14 113 2 55 8 116
13 135 12 43 7 46 -104 78 -49 14 -114 35 -142 46 -51 19 -53 19 -62 1z m45
-98 c-10 -10 -19 5 -10 18 6 11 8 11 12 0 2 -7 1 -15 -2 -18z m192 -38 c16
-16 -24 -22 -60 -9 -50 17 -60 23 -53 34 5 8 101 -13 113 -25z m-197 -42 c3
-32 -1 -78 -8 -93 -8 -19 -20 44 -14 83 4 30 20 37 22 10z m143 -37 c47 -16
53 -26 48 -72 -4 -35 -5 -36 -39 -29 -75 14 -83 21 -83 70 0 51 8 54 74 31z"/>
<path d="M5637 3371 c-70 -26 -133 -53 -139 -59 -12 -12 -14 -265 -2 -284 8
-13 92 -5 164 15 30 9 74 21 97 27 31 8 43 17 51 38 11 32 10 281 -1 300 -12
19 -32 14 -170 -37z m143 -26 c0 -31 -36 -54 -43 -27 -4 17 19 52 35 52 4 0 8
-11 8 -25z m-110 -41 c0 -21 -60 -54 -98 -54 -29 0 -33 3 -30 23 2 17 15 26
53 38 52 18 75 16 75 -7z m114 -98 c11 -43 -2 -91 -24 -91 -11 0 -15 13 -15
50 0 28 1 58 4 68 6 28 25 14 35 -27z m-107 -46 l-2 -60 -44 -15 c-78 -26 -82
-24 -79 47 l3 62 40 12 c79 24 84 22 82 -46z"/>
<path d="M4639 3363 c0 -5 -2 -44 -4 -88 -1 -44 -4 -106 -6 -138 -1 -32 2 -62
7 -67 14 -14 185 -61 229 -63 l40 -2 -2 70 c-1 39 -2 102 -2 140 -1 79 -7 94
-42 100 -13 3 -57 16 -98 30 -74 25 -120 32 -122 18z m174 -110 c40 -20 35
-37 -9 -28 -44 8 -74 25 -74 43 0 14 38 8 83 -15z m18 -105 c16 -30 7 -83 -13
-82 -10 1 -27 2 -38 3 -28 1 -70 48 -70 77 0 13 7 27 16 32 24 13 93 -7 105
-30z"/>
<path d="M5395 3290 c-11 -5 -66 -23 -122 -41 -94 -29 -108 -37 -104 -62 1 -5
-3 -6 -9 -2 -6 3 -8 10 -5 15 3 5 0 12 -7 17 -22 14 -203 71 -210 66 -12 -7
-9 -236 3 -271 9 -26 17 -32 52 -37 23 -3 64 -13 90 -22 26 -8 54 -12 62 -9 8
3 17 1 20 -3 11 -19 271 36 286 60 8 14 3 227 -6 271 -7 29 -16 33 -50 18z
m25 -65 c0 -8 -9 -19 -20 -25 -17 -9 -20 -8 -20 8 0 21 19 44 32 36 4 -3 8
-12 8 -19z m-335 -40 c18 -7 35 -22 38 -34 6 -24 -7 -25 -90 -2 -43 12 -43 13
-34 60 1 5 50 -8 86 -24z m249 3 c-3 -13 -7 -24 -8 -25 -1 -1 -29 -5 -62 -9
-50 -6 -57 -4 -46 7 11 12 88 44 115 48 5 0 5 -9 1 -21z m83 -107 c2 -63 -19
-66 -27 -4 -7 47 -3 66 14 60 6 -2 12 -27 13 -56z m-349 14 c46 -14 52 -19 52
-43 0 -49 -11 -56 -69 -42 l-51 12 0 44 c0 24 4 44 8 44 5 0 32 -7 60 -15z
m268 -40 c1 -47 1 -48 -80 -60 -30 -5 -36 -3 -37 12 -1 10 -3 28 -4 40 -1 13
3 28 10 33 14 11 97 29 105 23 3 -3 5 -24 6 -48z"/>
<path d="M3858 3011 c0 -3 -2 -37 -3 -76 -1 -38 -3 -101 -4 -140 -5 -107 -3
-110 49 -120 3 0 21 -4 40 -8 19 -3 58 -9 85 -12 28 -3 83 -13 123 -21 74 -16
100 -12 71 9 -12 10 -14 33 -11 140 5 158 5 158 -122 187 -135 32 -226 49
-228 41z m72 -82 c0 -10 -4 -19 -8 -19 -15 0 -31 22 -25 36 7 18 33 5 33 -17z
m140 -14 c8 -2 25 -4 37 -4 25 -1 46 -31 34 -49 -5 -8 -17 -9 -41 -2 -19 5
-46 11 -60 14 -36 7 -65 31 -55 45 7 12 18 12 85 -4z m-140 -121 c0 -58 -2
-64 -21 -64 -18 0 -20 5 -18 53 5 105 39 115 39 11z m175 12 c35 -15 36 -17
34 -65 -2 -28 -5 -55 -9 -60 -3 -6 -32 -3 -75 8 -53 13 -70 21 -69 34 0 9 1
38 2 63 l2 46 39 -6 c22 -3 56 -12 76 -20z"/>
<path d="M6210 2954 c-207 -43 -274 -59 -288 -70 -17 -12 -17 -15 -12 -212 3
-128 10 -140 79 -127 20 4 45 9 56 10 11 2 61 9 110 15 50 7 97 14 105 15 8 2
20 4 27 4 15 1 44 31 39 39 -4 7 -9 62 -21 227 -7 84 -13 115 -23 114 -4 -1
-36 -7 -72 -15z m59 -62 c12 -23 -3 -42 -35 -42 -26 0 -39 27 -23 46 16 20 47
17 58 -4z m-139 -43 c-10 -18 -27 -24 -103 -35 -47 -6 -49 -6 -45 17 3 20 13
26 73 39 73 17 92 11 75 -21z m141 -81 c0 -13 2 -32 4 -43 8 -44 9 -71 2 -83
-9 -14 -53 -16 -61 -3 -12 18 -8 121 4 136 19 23 50 19 51 -7z m-131 -39 c4
-13 6 -44 6 -68 -1 -36 -5 -45 -21 -47 -11 -2 -36 -6 -55 -10 -19 -4 -42 -8
-50 -10 -24 -5 -40 17 -40 55 0 69 7 77 73 94 74 18 79 18 87 -14z"/>
<path d="M4280 2926 c-9 -11 -13 -52 -13 -134 1 -195 -3 -180 46 -193 23 -6
56 -13 72 -16 17 -3 50 -9 75 -15 25 -5 61 -12 80 -15 l36 -5 -1 151 c0 99 -4
154 -12 162 -6 6 -60 24 -120 40 -59 16 -117 31 -129 35 -12 3 -26 -1 -34 -10z
m60 -81 c0 -19 -20 -29 -32 -17 -15 15 -2 43 17 36 8 -3 15 -12 15 -19z m129
-24 c37 -10 38 -31 2 -31 -37 0 -81 16 -81 30 0 11 41 12 79 1z m-139 -114 c0
-52 -18 -104 -21 -62 -5 61 -6 111 -2 118 11 19 23 -9 23 -56z m143 21 c13 -7
17 -22 17 -69 l0 -60 -37 7 c-63 11 -71 19 -68 66 5 86 2 80 38 73 17 -4 40
-11 50 -17z"/>
<path d="M5159 2878 c-1 -24 -1 -54 0 -68 1 -14 3 -131 5 -261 1 -129 6 -240
10 -247 4 -7 13 -12 21 -12 10 0 15 18 17 67 3 75 4 75 112 88 28 3 74 10 102
16 l50 10 -2 77 c-1 42 -3 109 -3 147 -2 103 1 102 -129 70 -61 -15 -118 -25
-127 -22 -11 5 -15 22 -16 62 -1 30 -3 60 -4 65 -1 6 -3 19 -4 30 0 11 -8 20
-16 20 -11 0 -15 -12 -16 -42z m287 -165 c-3 -8 -6 -17 -6 -20 0 -3 -6 0 -14
7 -18 14 -10 41 10 33 9 -3 13 -12 10 -20z m-98 -15 c-3 -25 -35 -44 -85 -51
-27 -4 -33 -2 -33 13 0 21 19 39 57 50 50 15 65 12 61 -12z m12 -99 c5 -7 5
-24 1 -91 -1 -12 -15 -18 -56 -23 -31 -4 -58 -5 -60 -3 -9 9 -22 97 -16 106
16 25 117 33 131 11z m90 -43 c0 -33 -14 -64 -23 -50 -6 10 -11 69 -8 99 2 20
2 20 16 1 8 -11 15 -34 15 -50z"/>
<path d="M5710 2844 c-36 -8 -81 -17 -100 -20 -19 -3 -49 -12 -67 -19 l-32
-14 3 -145 c2 -79 7 -150 11 -156 12 -19 296 17 319 40 9 9 8 150 -3 313 -1
21 -38 22 -131 1z m104 -41 c7 -18 -20 -47 -35 -37 -13 8 -11 42 4 47 21 9 25
8 31 -10z m-98 -35 c2 -19 -40 -35 -106 -40 -30 -3 -35 0 -38 19 -3 18 4 24
30 32 52 15 111 9 114 -11z m99 -142 c0 -57 -3 -70 -17 -72 -20 -2 -24 7 -27
64 -3 57 7 84 27 80 14 -3 17 -16 17 -72z m-110 41 c2 -7 6 -38 9 -69 l6 -57
-32 -5 c-18 -3 -50 -7 -70 -10 l-38 -4 0 69 0 68 43 8 c63 13 78 13 82 0z"/>
<path d="M4629 2834 c-1 -5 -3 -61 -4 -124 -2 -63 -6 -127 -10 -141 -6 -26 -6
-27 107 -55 62 -15 129 -28 148 -28 l35 -1 -1 133 c0 102 -3 136 -15 147 -31
30 -257 90 -260 69z m71 -83 c14 -26 3 -50 -20 -44 -24 6 -34 32 -19 49 16 19
26 18 39 -5z m148 -40 c3 -21 1 -23 -22 -17 -50 12 -76 26 -76 39 0 23 10 26
53 13 32 -9 43 -17 45 -35z m-12 -72 c8 -6 12 -22 9 -35 -3 -13 -7 -36 -10
-50 -5 -20 -10 -24 -25 -19 -11 4 -31 8 -45 9 -14 2 -27 5 -29 7 -7 7 -13 99
-7 105 9 9 92 -4 107 -17z"/>
<path d="M4927 2773 c-9 -15 7 -265 18 -283 5 -7 95 -34 152 -44 24 -4 33 -1
38 12 6 15 7 115 2 234 l-2 37 -90 21 c-49 12 -95 24 -102 26 -6 3 -13 1 -16
-3z m141 -79 c22 -4 32 -12 32 -25 0 -22 -9 -23 -64 -7 -42 12 -59 26 -50 40
5 8 12 7 82 -8z m36 -123 c4 -14 3 -41 -3 -73 -1 -9 -53 -10 -75 -2 -20 8 -23
100 -4 106 21 7 77 -14 82 -31z"/>
<path d="M3846 2418 c-4 -13 -9 -115 -12 -228 -3 -113 -10 -209 -15 -214 -26
-28 1 -34 184 -41 71 -2 132 -7 135 -9 4 -2 19 4 32 14 25 19 25 21 23 152 -3
173 -8 272 -16 285 -4 5 -48 16 -99 23 -51 7 -110 19 -132 27 -59 20 -92 17
-100 -9z m65 -83 c5 -54 1 -65 -21 -65 -15 0 -20 7 -20 28 0 40 38 74 41 37z
m191 -21 c4 -3 8 -16 8 -30 0 -25 -12 -29 -70 -24 -55 5 -82 47 -44 68 15 9
84 -1 106 -14z m-190 -127 c4 -10 3 -129 -1 -179 0 -11 -9 -18 -21 -18 -19 0
-20 7 -20 94 0 52 3 101 6 110 6 16 30 12 36 -7z m182 -23 c9 -8 16 -25 17
-37 8 -163 9 -161 -75 -152 -34 4 -63 9 -65 11 -6 6 -2 175 5 185 9 16 101 10
118 -7z"/>
<path d="M4290 2370 c-11 -11 -23 -32 -27 -47 -10 -34 -9 -308 0 -346 9 -34
22 -37 172 -40 l120 -2 -1 188 c-1 148 -4 191 -15 201 -11 11 -105 38 -212 61
-10 2 -27 -5 -37 -15z m39 -79 c8 -14 7 -22 -3 -30 -16 -14 -26 -4 -26 26 0
28 15 30 29 4z m133 -13 c20 -7 27 -16 24 -32 -3 -23 -5 -24 -58 -13 -34 7
-38 11 -38 38 0 33 5 33 72 7z m-132 -185 c0 -59 -4 -89 -14 -98 -12 -12 -15
-11 -20 8 -7 28 -8 151 0 171 3 8 12 12 20 9 11 -4 14 -26 14 -90z m138 62 c2
-2 4 -32 4 -67 1 -118 1 -118 -28 -118 -54 0 -63 13 -62 97 1 102 3 106 47 98
20 -4 38 -8 39 -10z"/>
<path d="M4587 2308 c-8 -22 7 -365 16 -374 3 -3 30 -7 59 -9 29 -1 90 -6 136
-10 65 -5 82 -4 83 7 1 7 0 51 -1 98 -2 47 -4 121 -5 165 -2 44 -3 83 -4 86
-1 8 -215 49 -252 49 -15 0 -29 -6 -32 -12z m66 -72 c6 -15 -1 -26 -15 -26 -4
0 -8 9 -8 20 0 23 15 27 23 6z m145 -27 c28 -11 20 -29 -13 -29 -27 0 -75 19
-75 30 0 21 28 21 88 -1z m-138 -155 c0 -48 -4 -84 -10 -84 -19 0 -34 119 -19
158 17 43 29 11 29 -74z m129 52 c24 -25 35 -110 16 -126 -6 -5 -30 -12 -53
-14 -37 -3 -42 -1 -43 18 -1 11 -3 49 -5 83 -2 52 0 62 14 65 27 6 49 -2 71
-26z"/>
<path d="M6209 2306 c-2 -2 -35 -7 -74 -10 -147 -13 -180 -18 -189 -26 -6 -6
-4 -50 4 -112 8 -57 14 -136 14 -175 l0 -73 213 0 c116 0 214 4 217 8 3 4 1
26 -4 48 -12 52 -22 167 -29 317 -1 27 -1 27 -74 27 -41 0 -76 -2 -78 -4z
m-21 -77 c4 -33 -14 -39 -115 -39 -66 0 -73 2 -73 19 0 26 4 28 75 36 33 3 62
9 65 11 2 3 13 4 25 2 13 -2 21 -12 23 -29z m129 1 c14 -29 9 -40 -21 -40 -26
0 -46 17 -46 41 0 36 49 35 67 -1z m-115 -123 c12 -18 6 -147 -7 -148 -53 -6
-150 -3 -160 6 -8 6 -14 32 -15 65 -3 89 -3 88 33 92 57 5 141 -3 149 -15z
m123 12 c3 -4 8 -35 11 -70 3 -35 7 -70 9 -76 3 -7 1 -13 -3 -14 -4 0 -14 -2
-23 -4 -33 -6 -42 12 -45 92 -3 79 -3 80 21 79 13 -1 27 -4 30 -7z"/>
<path d="M4922 2273 c-10 -4 -12 -46 -12 -184 l2 -179 86 -1 c48 -1 101 -3
117 -4 38 -2 49 3 36 19 -6 7 -12 79 -13 161 l-3 149 -74 13 c-41 7 -86 16
-100 21 -14 5 -32 7 -39 5z m166 -108 c10 -10 -8 -18 -38 -17 -36 1 -53 10
-44 24 6 10 71 5 82 -7z m-4 -95 c15 -15 12 -100 -4 -110 -24 -15 -67 -12 -74
6 -11 27 -6 100 6 112 13 13 55 8 72 -8z"/>
<path d="M5868 2276 c-1 -2 -50 -7 -108 -10 -156 -10 -192 -15 -207 -27 -10
-9 -11 -35 -7 -113 4 -55 6 -129 6 -164 l0 -62 160 6 c88 3 167 7 176 8 15 3
17 19 16 142 -2 175 -5 212 -20 218 -7 3 -14 3 -16 2z m-3 -76 c0 -8 -8 -16
-17 -18 -13 -2 -18 3 -18 18 0 15 5 20 18 18 9 -2 17 -10 17 -18z m-131 4 c19
-7 21 -33 4 -36 -55 -6 -124 -4 -130 5 -15 24 5 37 57 37 29 0 60 -3 69 -6z
m136 -180 c0 -68 -2 -74 -21 -74 -19 0 -20 5 -18 73 2 82 4 88 24 80 11 -4 15
-23 15 -79z m-119 64 c10 -155 15 -145 -83 -146 l-58 -1 0 73 c0 40 3 76 7 79
12 13 133 8 134 -5z"/>
<path d="M5274 1715 c-3 -8 -1 -29 5 -48 l12 -34 69 -2 c80 -2 110 10 110 44
0 43 -24 55 -111 55 -61 0 -81 -3 -85 -15z m139 -24 c9 0 17 -5 17 -11 0 -6
-27 -10 -60 -10 -54 0 -70 7 -55 22 4 4 40 4 98 -1z"/>
<path d="M5672 1702 c-29 -4 -36 -22 -28 -68 l7 -35 94 4 c51 3 98 8 104 12
15 9 14 72 -1 81 -13 8 -135 12 -176 6z m151 -31 c4 -1 7 -8 7 -16 0 -15 -1
-15 -139 -6 -25 2 2 19 34 23 25 3 68 2 98 -1z"/>
<path d="M310 3301 c-94 -19 -201 -59 -207 -78 -3 -8 12 -11 49 -9 29 2 81 -3
115 -10 110 -23 495 -156 634 -220 129 -59 196 -57 218 8 16 45 -20 102 -99
161 -55 41 -197 107 -260 122 -8 2 -46 11 -85 20 -100 24 -261 26 -365 6z"/>
<path d="M858 2004 c-2 -1 -30 -5 -63 -8 -33 -4 -71 -9 -85 -11 -14 -2 -38 -6
-55 -9 -16 -3 -50 -8 -75 -11 -212 -28 -428 -86 -532 -143 l-48 -25 0 -108 0
-107 48 15 c66 22 294 81 339 88 81 13 178 26 232 31 117 11 139 13 246 29
145 21 203 42 226 80 57 91 -34 189 -170 184 -34 -1 -62 -3 -63 -5z"/>
<path d="M5572 1440 c-43 -20 -48 -26 -33 -48 4 -7 4 -36 -1 -65 -22 -133 -24
-154 -20 -214 2 -27 43 -40 77 -25 20 9 23 16 18 49 -3 21 2 79 11 128 19 109
20 169 3 183 -9 8 -24 6 -55 -8z"/>
<path d="M4083 1437 c-43 -16 -47 -22 -33 -47 14 -27 11 -30 -35 -36 -65 -8
-120 -45 -149 -103 -33 -63 -24 -121 23 -158 25 -19 76 -15 105 8 l27 22 15
-22 c17 -23 68 -29 81 -8 4 6 8 39 9 72 1 33 5 74 8 90 26 130 30 164 17 179
-15 18 -24 19 -68 3z m-37 -144 c-3 -16 -8 -48 -11 -73 -10 -70 -69 -96 -89
-39 -18 51 23 122 77 132 12 2 23 5 25 6 1 0 0 -11 -2 -26z"/>
<path d="M4863 1443 c-31 -6 -46 -28 -37 -55 4 -13 7 -27 5 -33 -1 -5 -5 -28
-7 -50 -3 -22 -7 -46 -9 -53 -3 -8 -8 -42 -11 -76 -7 -67 7 -96 46 -96 41 0
50 11 50 58 0 56 31 124 66 142 21 12 27 12 34 0 9 -14 8 -23 -9 -87 -19 -71
-3 -113 44 -113 34 0 42 13 49 78 3 34 9 88 12 120 5 47 3 61 -11 75 -32 33
-98 12 -148 -47 l-18 -21 6 25 c11 46 12 105 3 123 -9 17 -21 19 -65 10z"/>
<path d="M2694 1409 c-110 -41 -160 -161 -108 -260 24 -47 64 -66 140 -68 26
-1 32 -6 37 -30 7 -31 35 -45 69 -32 18 6 22 19 26 77 10 149 9 159 -16 162
-13 2 -37 -2 -54 -9 -26 -11 -29 -16 -24 -42 7 -36 -8 -57 -40 -57 -31 0 -54
36 -54 83 0 66 43 124 70 93 26 -33 103 -22 115 16 22 68 -63 103 -161 67z"/>
<path d="M2954 1359 c-29 -8 -31 -12 -31 -56 0 -27 -3 -80 -8 -119 -8 -78 4
-104 49 -104 33 0 45 19 39 62 -7 57 20 105 69 120 69 21 86 85 27 103 -22 7
-64 -23 -80 -60 -8 -16 -9 -13 -5 11 3 17 0 36 -7 43 -12 12 -11 12 -53 0z"/>
<path d="M3198 1358 c-23 -8 -27 -15 -27 -46 1 -20 -2 -72 -6 -115 -7 -67 -5
-80 10 -97 23 -26 80 -26 121 -1 31 19 32 19 48 0 18 -21 71 -26 82 -7 4 7 8
35 9 63 1 27 7 80 15 117 11 55 11 70 1 82 -14 17 -57 14 -92 -5 -22 -11 -22
-14 -9 -39 12 -21 -10 -131 -31 -156 -7 -8 -24 -14 -38 -12 -23 3 -26 7 -25
43 1 22 5 63 11 91 16 84 -3 107 -69 82z"/>
<path d="M3549 1358 c-23 -8 -26 -14 -26 -51 1 -23 -2 -69 -7 -102 -15 -110
-10 -125 46 -125 34 0 40 10 42 69 1 33 10 60 28 89 26 38 62 61 75 48 4 -3
-1 -41 -9 -83 -12 -63 -13 -82 -3 -98 24 -39 103 -26 92 15 -2 10 0 42 5 71
20 122 20 144 -1 164 -27 24 -74 14 -125 -27 -34 -27 -39 -29 -34 -11 11 42
-27 60 -83 41z"/>
<path d="M4272 1353 c-37 -20 -62 -53 -62 -83 0 -35 43 -78 86 -86 44 -8 51
-21 20 -35 -20 -10 -32 -8 -65 9 l-39 21 -10 -28 c-11 -32 -6 -43 25 -60 47
-24 184 0 206 36 32 52 -1 104 -77 125 -50 13 -54 19 -31 38 13 10 19 10 33
-4 41 -36 115 0 92 45 -20 37 -124 50 -178 22z"/>
<path d="M4623 1360 c-122 -28 -171 -179 -82 -254 38 -32 103 -35 158 -6 49
25 58 55 24 77 -25 17 -26 16 -47 -10 -12 -15 -31 -27 -42 -27 -45 0 -57 88
-17 132 18 20 48 24 58 8 9 -15 61 -12 75 5 19 22 4 61 -27 73 -33 11 -56 12
-100 2z"/>
<path d="M5198 1359 c-23 -9 -26 -16 -26 -52 0 -23 -5 -73 -10 -110 -8 -61 -6
-71 10 -93 24 -30 73 -32 128 -4 32 16 40 17 40 6 0 -16 21 -26 55 -26 32 0
36 9 40 88 2 37 9 83 14 102 26 83 9 108 -60 90 -45 -12 -54 -23 -39 -50 8
-15 7 -36 -5 -82 -17 -67 -34 -88 -73 -88 -24 0 -25 1 -17 53 4 28 8 79 9 112
1 53 -1 60 -19 62 -11 1 -32 -3 -47 -8z"/>
<path d="M5785 1354 c-43 -22 -64 -44 -86 -86 -34 -67 -21 -134 33 -169 64
-39 188 -8 196 50 2 15 -4 24 -20 30 -29 11 -46 4 -53 -20 -8 -23 -47 -25 -65
-4 -18 21 -5 45 25 45 63 0 135 57 135 106 0 52 -101 81 -165 48z m82 -59 c5
-17 -20 -43 -49 -51 -35 -8 -38 12 -7 45 21 22 49 25 56 6z"/>
<path d="M6255 1363 c-23 -6 -74 -40 -93 -63 -33 -39 -46 -114 -30 -163 22
-61 92 -76 137 -28 l27 29 16 -29 c11 -19 25 -29 40 -29 41 0 50 14 52 81 1
35 6 92 11 127 9 67 8 68 -52 63 -12 -1 -24 3 -28 9 -6 10 -44 12 -80 3z m61
-95 c-8 -60 -26 -93 -56 -101 -23 -6 -50 16 -50 40 0 28 30 78 58 95 47 30 55
24 48 -34z"/>
<path d="M6525 1363 c-33 -8 -46 -23 -35 -42 6 -12 4 -47 -5 -98 -19 -110 -11
-142 37 -143 38 0 48 11 48 57 0 68 47 152 87 153 19 0 20 -22 5 -93 -19 -83
-8 -117 35 -117 43 0 52 12 51 61 -1 68 45 149 85 149 18 0 19 -4 12 -47 -22
-129 -10 -175 40 -165 32 6 40 18 41 67 1 36 10 110 20 160 5 27 -22 65 -48
65 -27 0 -104 -45 -117 -68 -9 -14 -10 -11 -11 16 0 63 -69 68 -135 11 l-35
-31 0 26 c0 15 -8 30 -19 36 -21 11 -24 11 -56 3z"/>
<path d="M1550 941 c-168 -53 -399 -288 -505 -513 -19 -40 -38 -89 -42 -108
l-6 -35 44 36 c68 55 308 223 368 258 126 75 285 194 335 253 43 50 45 79 10
107 -34 27 -125 28 -204 2z"/>
<path d="M4507 685 c-49 -17 -51 -19 -37 -45 14 -26 11 -29 -26 -36 -87 -15
-149 -64 -174 -138 -31 -96 52 -167 141 -120 27 14 33 14 47 1 21 -19 41 -23
67 -14 18 6 21 16 22 79 1 40 9 106 17 146 9 40 16 84 16 97 0 35 -27 46 -73
30z m-41 -152 c-3 -16 -8 -46 -12 -68 -8 -49 -20 -65 -49 -65 -41 0 -58 44
-37 95 14 33 55 64 85 65 15 0 18 -5 13 -27z"/>
<path d="M5840 684 c-44 -19 -44 -19 -30 -44 14 -26 11 -30 -32 -36 -93 -14
-157 -77 -166 -162 -4 -41 0 -52 24 -81 25 -30 31 -33 72 -28 24 3 51 12 59
20 13 13 17 13 35 -5 13 -13 30 -18 51 -16 29 3 32 6 33 38 2 52 15 174 20
181 8 14 15 110 9 129 -7 24 -27 25 -75 4z m-37 -176 c-7 -73 -22 -102 -55
-106 -58 -7 -62 86 -7 132 17 14 39 26 49 26 16 0 18 -6 13 -52z"/>
<path d="M3042 657 c-19 -9 -22 -16 -17 -36 8 -35 8 -50 -6 -163 -10 -75 -10
-100 -1 -111 18 -21 195 -21 240 0 68 32 82 94 31 137 l-31 26 31 29 c73 69 5
149 -105 124 -25 -6 -47 -6 -50 -2 -7 12 -64 10 -92 -4z m167 -65 c13 -25 -9
-57 -49 -70 -28 -10 -30 -9 -30 13 0 45 18 75 44 75 14 0 30 -8 35 -18z m-15
-131 c23 -19 20 -38 -9 -57 -33 -22 -75 -12 -75 18 0 46 48 68 84 39z"/>
<path d="M3493 585 l-34 -34 3 27 c2 22 -1 28 -20 30 -13 2 -37 -2 -53 -8 -25
-11 -27 -15 -18 -32 8 -15 8 -36 0 -77 -25 -129 -20 -161 26 -161 45 0 54 12
58 80 5 68 24 100 59 100 66 0 91 82 33 103 -14 5 -29 -3 -54 -28z"/>
<path d="M3682 600 c-20 -10 -47 -28 -59 -41 -23 -25 -49 -93 -47 -119 1 -8 2
-26 3 -38 0 -13 15 -37 31 -52 27 -25 35 -27 62 -19 17 5 45 21 61 36 17 16
27 23 24 17 -11 -19 22 -54 51 -54 40 0 47 10 48 70 1 30 5 86 9 123 9 76 0
92 -41 77 -15 -6 -24 -5 -26 2 -6 17 -76 16 -116 -2z m90 -42 c6 -18 -12 -100
-25 -119 -32 -44 -90 -24 -81 28 8 40 22 62 57 83 37 23 44 24 49 8z"/>
<path d="M4005 615 c-5 -2 -23 -6 -38 -9 -25 -6 -28 -10 -22 -36 4 -16 1 -54
-5 -84 -16 -77 -15 -137 1 -147 19 -12 67 -11 74 2 4 5 9 33 11 60 5 58 24
101 56 123 40 28 51 21 44 -26 -24 -157 -22 -168 36 -168 32 0 42 14 44 60 0
19 7 67 13 107 14 78 7 107 -27 115 -29 8 -94 -18 -119 -47 l-23 -26 0 30 c0
29 -22 52 -45 46z"/>
<path d="M4642 609 c-17 -7 -22 -14 -17 -28 11 -36 14 -61 16 -142 1 -54 7
-85 16 -95 19 -18 73 -18 109 1 25 13 30 13 44 0 33 -30 160 -3 160 34 0 10
12 46 26 81 34 83 37 139 8 150 -36 14 -68 -10 -75 -56 -10 -54 -54 -157 -69
-162 -13 -5 -10 75 5 145 10 42 -7 63 -50 63 -38 0 -45 -12 -33 -55 4 -16 5
-46 2 -65 -7 -38 -34 -90 -46 -90 -4 0 -8 37 -8 83 0 115 -28 158 -88 136z"/>
<path d="M5181 604 c-54 -16 -86 -45 -107 -99 -24 -63 -9 -127 38 -159 31 -22
115 -20 158 3 28 14 35 25 35 47 0 25 -4 29 -32 32 -24 2 -33 -1 -33 -12 0
-26 -34 -37 -58 -20 -43 30 -29 45 49 58 70 12 110 65 90 119 -15 38 -73 51
-140 31z m69 -63 c0 -22 -15 -36 -53 -50 -36 -14 -37 10 -2 44 29 30 55 32 55
6z"/>
<path d="M5533 609 c-12 -4 -29 -22 -38 -38 -20 -40 -25 -39 -18 4 6 34 5 35
-29 35 -44 0 -77 -22 -61 -41 8 -10 6 -37 -4 -99 -18 -104 -9 -140 34 -140 43
0 51 11 50 67 0 66 19 95 77 117 48 18 64 43 47 74 -13 25 -31 31 -58 21z"/>
<path d="M6081 608 c-91 -33 -145 -136 -113 -214 26 -62 115 -84 189 -47 47
23 61 46 44 67 -14 17 -61 22 -61 7 0 -19 -30 -39 -49 -34 -21 5 -37 36 -27
52 3 4 28 11 55 15 40 5 55 13 80 42 17 19 31 43 31 54 0 24 -37 60 -64 61
-12 1 -30 3 -41 4 -11 1 -31 -2 -44 -7z m67 -70 c4 -21 -40 -51 -69 -46 -22 3
-22 3 6 36 29 34 57 39 63 10z"/>
<path d="M6426 608 c-10 -5 -26 -24 -36 -41 l-19 -31 2 35 c2 30 -1 34 -25 37
-37 4 -71 -15 -63 -36 3 -8 0 -60 -6 -113 -13 -110 -8 -129 41 -129 37 0 48
17 45 67 -4 53 27 103 71 115 17 4 39 17 49 28 34 37 -15 93 -59 68z"/>
</g>
</svg>
