<?xml version="1.0" standalone="no"?>
<!DOCTYPE svg PUBLIC "-//W3C//DTD SVG 20010904//EN"
 "http://www.w3.org/TR/2001/REC-SVG-20010904/DTD/svg10.dtd">
<svg version="1.0" xmlns="http://www.w3.org/2000/svg"
 width="16.000000pt" height="16.000000pt" viewBox="0 0 16.000000 16.000000"
 preserveAspectRatio="xMidYMid meet">
<metadata>
Created by potrace 1.11, written by Peter Selinger 2001-2013
</metadata>
<g transform="translate(0.000000,16.000000) scale(0.016000,-0.016000)"
fill="#000000" stroke="none">
<path d="M481 978 c-27 -13 -48 -32 -55 -50 -7 -15 -16 -25 -21 -21 -4 5 -3
-1 2 -12 13 -28 10 -50 -7 -51 -43 -1 -49 48 -12 110 25 42 20 45 -24 11 -29
-22 -79 -126 -53 -109 7 4 9 -1 7 -12 -2 -11 -10 -18 -17 -16 -7 1 -10 -2 -6
-8 5 -8 11 -8 20 0 9 8 15 8 20 0 9 -15 -25 -25 -44 -13 -19 12 -26 74 -12
114 13 38 1 37 -29 -3 -17 -23 -24 -45 -23 -73 2 -57 5 -75 14 -70 3 3 12 -2
19 -10 10 -12 10 -15 -1 -16 -8 0 -22 -2 -31 -4 -26 -5 -42 23 -49 84 l-5 56
-17 -37 c-27 -60 -22 -96 18 -134 34 -32 35 -33 15 -44 -11 -6 -30 -8 -41 -5
-22 7 -49 60 -49 95 0 31 -17 24 -23 -10 -9 -41 2 -86 24 -106 10 -9 16 -20
14 -24 -3 -4 7 -8 21 -8 32 0 40 -8 25 -26 -27 -33 -102 7 -115 60 -10 39 -25
28 -19 -13 7 -47 29 -92 48 -100 8 -3 13 -8 11 -12 -3 -4 11 -5 30 -3 36 4 46
-12 22 -36 -22 -22 -59 -13 -95 23 -20 20 -38 34 -40 31 -9 -9 32 -80 57 -98
27 -20 64 -25 95 -13 11 4 16 3 10 -2 -5 -4 -10 -14 -11 -20 -1 -7 -2 -17 -2
-23 -3 -19 -69 -10 -106 15 -25 17 -36 20 -36 11 0 -16 74 -85 93 -87 26 -3
53 3 73 16 19 12 20 11 19 -18 -2 -18 -7 -31 -14 -29 -6 1 -11 -3 -11 -9 0
-12 -65 -8 -105 6 -13 4 -8 -4 15 -25 30 -27 41 -31 85 -29 41 2 53 7 69 28
10 14 16 18 12 9 -3 -10 -1 -18 5 -18 6 0 9 -10 7 -22 -4 -31 -44 -50 -95 -45
-51 5 -56 -5 -12 -24 65 -26 149 -9 149 31 0 8 6 8 20 0 11 -6 20 -17 20 -25
0 -20 -51 -57 -72 -52 -10 3 -16 1 -12 -4 3 -5 -7 -9 -22 -9 -20 0 -25 -3 -17
-11 7 -7 33 -9 69 -5 80 7 83 8 81 20 -1 6 3 10 9 9 6 -1 11 5 12 13 1 8 3 21
4 29 2 18 6 19 21 2 30 -32 10 -74 -50 -103 -33 -16 -35 -19 -15 -22 32 -5 82
14 117 44 17 15 24 23 16 19 -10 -6 -12 -4 -5 6 4 8 7 24 5 37 -1 12 2 22 8
22 6 0 7 -8 4 -17 -6 -16 -5 -16 10 -4 9 7 17 10 18 5 0 -5 2 -19 5 -31 2 -15
-7 -34 -27 -58 -29 -32 -29 -35 -10 -35 25 0 84 34 75 43 -4 4 1 9 10 13 9 3
13 10 10 16 -3 5 -3 26 1 45 4 24 9 32 14 24 5 -7 12 -11 17 -9 19 7 15 -63
-6 -97 -26 -43 -10 -46 30 -6 16 16 31 27 32 25 2 -2 5 7 5 19 1 12 5 36 8 54
3 17 1 34 -5 38 -6 4 -7 -1 -3 -12 7 -19 5 -18 -16 9 -11 15 -9 16 19 13 55
-7 68 -33 28 -54 l-23 -11 24 6 c21 6 23 4 18 -17 -4 -13 -7 -28 -7 -32 0 -5
-4 -6 -9 -3 -5 4 -7 -3 -4 -14 3 -11 7 -20 8 -20 13 0 50 71 55 106 6 37 3 47
-16 65 -28 26 -25 35 13 34 37 0 56 -36 49 -92 -10 -77 18 -45 43 50 5 20 6
35 1 32 -7 -5 -24 32 -21 48 1 5 -3 6 -9 2 -5 -3 -13 1 -16 9 -3 9 -10 13 -15
10 -5 -3 -9 -1 -9 5 0 5 14 13 32 16 24 6 35 3 44 -10 8 -10 11 -22 8 -26 -3
-5 -1 -9 5 -9 6 0 13 -16 17 -36 8 -45 22 -32 26 26 3 42 0 51 -29 84 -7 8 -9
16 -6 20 4 3 -3 7 -15 7 -34 2 -40 4 -48 12 -4 4 0 7 10 7 9 0 15 4 12 9 -3 5
0 11 8 14 23 9 76 -31 93 -71 13 -28 18 -33 21 -19 7 33 -8 84 -32 110 -13 14
-22 28 -19 31 3 2 -5 2 -18 -1 -16 -4 -20 -3 -15 6 6 9 0 10 -21 6 -27 -6 -27
-6 -9 9 11 9 16 16 10 16 -5 0 -1 5 8 11 22 12 68 -10 97 -47 16 -20 21 -23
21 -10 0 23 -24 67 -47 89 -23 20 -100 30 -107 13 -2 -6 -5 -3 -5 8 -1 14 4
17 22 13 22 -6 22 -6 2 9 -16 12 -17 17 -7 23 21 13 74 3 105 -20 44 -32 43
-15 -3 34 -35 38 -46 45 -73 42 -46 -4 -61 -9 -69 -20 -11 -14 -10 37 1 54 9
14 89 12 124 -3 29 -14 19 8 -16 31 -33 23 -121 48 -111 32 5 -8 -9 -13 -28
-10 -5 0 -8 -4 -8 -9 0 -6 -7 -10 -15 -10 -11 0 -15 8 -12 25 4 35 12 39 80
46 l62 5 -38 18 c-38 17 -140 20 -130 3 2 -4 -3 -10 -11 -13 -9 -3 -13 -10
-10 -15 3 -5 0 -9 -6 -9 -6 0 -8 -5 -4 -12 4 -7 3 -8 -4 -4 -7 4 -12 14 -12
22 0 8 -6 14 -12 14 -10 0 -10 2 0 9 8 4 13 12 12 16 -3 14 54 45 83 45 41 0
33 17 -13 24 -26 4 -53 1 -79 -10 -33 -13 -42 -22 -47 -50 -7 -39 -14 -42 -40
-13 -17 18 -17 23 -4 46 8 15 34 37 58 49 50 27 43 37 -18 23 -63 -14 -95 -45
-95 -91 0 -21 -1 -38 -3 -38 -1 0 -14 7 -28 17 -33 21 -26 55 24 106 41 42 35
46 -27 15z"/>
<path d="M870 616 c0 -2 8 -10 18 -17 15 -13 16 -12 3 4 -13 16 -21 21 -21 13z"/>
<path d="M115 500 c3 -5 8 -10 11 -10 2 0 4 5 4 10 0 6 -5 10 -11 10 -5 0 -7
-4 -4 -10z"/>
<path d="M825 320 c-3 -6 1 -7 9 -4 18 7 21 14 7 14 -6 0 -13 -4 -16 -10z"/>
<path d="M776 235 c-9 -26 -7 -32 5 -12 6 10 9 21 6 23 -2 3 -7 -2 -11 -11z"/>
<path d="M233 225 c0 -8 4 -12 9 -9 5 3 6 10 3 15 -9 13 -12 11 -12 -6z"/>
<path d="M590 123 c0 -6 8 -17 18 -24 16 -13 16 -13 2 6 -8 11 -16 22 -17 24
-2 2 -3 0 -3 -6z"/>
</g>
</svg>
