<svg version="1" xmlns="http://www.w3.org/2000/svg" width="682.667" height="682.667" viewBox="0 0 512.000000 512.000000"><path d="M173.7 5.5c-.8 5.2.1 16.6 1.3 18.2.2.2.3.6.4 1 .1.5 1.4 3.5 3 6.8 4.1 8.4 15.1 18.9 32.3 30.9 17.7 12.3 25.5 19.8 29.8 28.8 2.8 5.9 3.2 7.7 3.1 13.7-.2 4-.8 7.7-1.6 8.6-.7.8-3.8 2.8-6.9 4.3-6.5 3.2-15.3 9-19.6 12.9-3.6 3.3-10.5 11.7-10.5 12.7 0 .5-.8 2-1.8 3.4-4.4 6.4-6.9 23.2-5.3 35.2 1.3 9.1 5.7 23.1 10.6 33.2 1.4 2.8 2.3 5.3 2.1 5.6-.9.9-66.4-.3-67.4-1.2-.2-.3-1.2-.1-2.2.4-1 .5-2 .6-2.4.3-.4-.4-4.8-.8-9.9-.9-5.1-.1-14.8-.6-21.7-1-23.1-1.4-26.1-1.2-30.8 1.9-2.4 1.5-5.1 4.5-6.3 7-2.2 4.2-2.2 4.4-2.2 69.2.1 35.7.3 67 .6 69.5 4.6 35.4 22 63.6 51.2 82.6 4.6 3 10.9 6.6 13.9 7.9 5.5 2.4 20.3 7.5 21.5 7.3.3 0 .8.1 1.1.2.6.2 3.4.7 9 1.6 6 1 82.9 1 90.3.1 3.2-.5 9-1.7 13-2.7 3.9-1.1 7.9-2.2 8.8-2.4 6.4-1.7 25.6-12.2 32.9-18.1 9.7-7.8 28-29.6 28-33.3 0-.6.3-1.2.8-1.4 2.2-.9 10.6-23.6 11.8-31.8 1.1-7.3 1.1-7.3 4.8-5.2 8.7 5.2 22.8 8.6 34.1 8.3 21.1-.5 39.4-9.7 52.4-26.1 6.7-8.5 12.4-20.9 13.7-30 3.5-23.7-3.5-45.4-19.8-61.2-5.3-5.1-14-11.2-18.4-12.9-1.6-.5-4.2-1.6-5.9-2.4-7.9-3.5-23-4.9-34.5-3.2-5.2.8-17.3 5-20.8 7.3-1.3.9-2.6 1.4-2.8 1.1-.2-.2-.5-5.1-.7-10.8-.3-11.3-1.8-15.6-6.5-19.4-4.5-3.6-8.1-4.2-20.2-3.7-6.3.3-16 .6-21.5.6l-10 .1-7-4.9c-8.8-6.1-20.4-18.1-24.9-25.7-4.2-7-7.6-14.5-8.2-17.9-.3-1.4-1.1-5-1.7-8-2-8.8-1.2-25.4 1.7-34 1-3 2.1-3.8 10.2-7.5 17.1-7.6 28.6-15.9 36.9-26.5 7.1-9 10.4-23.3 8.1-35.5-.8-3.8-5-13.6-7.8-18C299.9 37.6 287 25 285.9 25c-.5 0-2.8-1.2-5-2.6-3.6-2.3-14.6-6.9-18.9-8-6.9-1.7-10.8-2.6-12.5-3-8.3-1.6-11.5-2.1-11.1-1.7.3.3 5.6 2.7 11.8 5.4 20.3 8.9 32.3 17.5 39.9 28.7 4.3 6.4 6 11.7 6.4 20.3.4 6.7.1 8.2-2.4 13.5-2.9 6.1-8.8 13-15.2 17.7-3.8 2.8-17.7 10.7-18.9 10.7-.4 0-1-3-1.3-6.6-1.1-11.8-8.7-23.8-22.3-35.4-2.8-2.5-15.9-11-16.8-11-.9 0-20.1-11.4-21.4-12.7-.7-.7-1.7-1.3-2.1-1.3-.9 0-10.8-9.5-13.1-12.5-4.1-5.6-8.9-18.2-7.7-20.3.3-.4.1-1.6-.3-2.7-.5-1.5-.8-1.1-1.3 2zm64 137.2c0 11.9.7 17.3 2.8 23.3.8 2.2 1.2 4 1 4-.2 0 1 2.8 2.7 6.2 6.9 14.4 16.4 25.4 28.6 33.2 7 4.4 16 8.6 18.6 8.6.8 0 1.7.3 1.9.8.6.8-1.5.9-45.3 1.7-17.9.3-33.3.8-34.2.9-1.6.4-2.3-1.1-3.4-7.4-.3-1.4-1.2-5.7-2.1-9.5-2.1-9.8-2.5-32-.7-38.2 4.5-14.9 11.2-22.9 27.9-33 1.1-.6 2-1.2 2.1-1.2 0-.1.1 4.7.1 10.6zm164.6 123.8c6 1.7 15.5 7.5 19.9 12.2 7.3 7.7 12.8 21.7 12.8 32.5 0 5.9-2.5 15.2-5.8 21.7-5.2 10.3-17.4 19.9-29.2 23.1-11.4 3.1-27 .4-37.3-6.4-10.5-7-9.9-4.5-9.9-38.8v-30l3.1-3.2c11.1-11.4 29.8-15.9 46.4-11.1z"/><path d="M126 23.9c0 .5.8 1.2 1.8 1.5 3 1 6.8 5.7 8.7 10.9 2.4 6.3 1.6 15.2-1.9 23.2-2.8 6.1-11 19.9-13.3 22.3-2.2 2.3-9.3 17.5-10.8 23.1-1.3 5-1.5 21.9-.3 26.1 2.9 10.3 7.7 18.5 15.8 27 14.5 15.2 18.2 22.7 17.6 35.1-.3 4.1-.6 8.1-.8 8.9-.9 3.2-3.8 9.2-5.9 12.2-2.1 2.9-2.1 3-.2 2 3.6-2 9.2-8.5 11.7-13.7 3.2-6.6 3.7-8.5 4.2-15.3.8-10.9-2.8-20.2-12.8-33.7-2.9-3.9-6-7.8-6.9-8.8-1.6-1.7-4.2-6.8-6.9-13.2-.7-1.7-1.4-7.1-1.6-12.1-.4-10.9.3-13 11.6-35.9 9-18.1 11-24.6 10.6-34.3-.4-8.2-3.2-15-8.1-19.8-4.6-4.4-12.5-7.9-12.5-5.5zM56.8 475.7c-2.9 3.3-1.1 6.4 10.8 17.9 11.2 11 17.6 15.4 24.9 17 1.7.4 55.2.7 119.1.8l116 .1 7.5-3.7c5.9-3 9.7-6 18.7-14.9 11.5-11.6 12.9-14 9.6-17.3-1.4-1.4-16.7-1.6-153.3-1.6-143.3 0-151.9.1-153.3 1.7z"/></svg>