<svg version="1" xmlns="http://www.w3.org/2000/svg" width="133.333" height="133.333" viewBox="0 0 100.000000 100.000000"><path d="M48.1 2.2c-2.7 1.3-4.8 3.2-5.5 5-.7 1.5-1.6 2.5-2.1 2.1-.4-.5-.3.1.2 1.2 1.3 2.8 1 5-.7 5.1-4.3.1-4.9-4.8-1.2-11 2.5-4.2 2-4.5-2.4-1.1-1.9 1.5-3.8 4.2-4.7 7-.9 2.5-1.3 4.3-.8 4.1.4-.3 1.2.8 1.8 2.5 1 2.7.9 2.9-1.1 2.9-1.2 0-2.7-.5-3.4-1.2-1.4-1.4-1.6-7.7-.2-11.2 1.3-3.6-.1-3.2-3 .6-1.7 2.3-2.4 4.5-2.3 7.3.2 5.7.5 7.5 1.4 7 .3-.3 1.2.2 1.9 1 1 1.2 1 1.5-.1 1.6-.8 0-2.2.2-3.1.4-2.6.5-4.2-2.3-4.9-8.4l-.5-5.6-1.7 3.7c-2.7 6-2.2 9.6 1.8 13.4 3.4 3.2 3.5 3.3 1.5 4.4-1.1.6-3 .8-4.1.5-2.2-.7-4.9-6-4.9-9.5 0-3.1-1.7-2.4-2.3 1-.9 4.1.2 8.6 2.4 10.6 1 .9 1.6 2 1.4 2.4-.3.4.7.8 2.1.8 3.2 0 4 .8 2.5 2.6-2.7 3.3-10.2-.7-11.5-6-.9-3.6-2.6-2.9-2 .8 1.4 8.2 4.9 12.5 9.7 12 2.9-.4 3.7 1.4 1.5 3.6s-5.9 1.3-9.5-2.3c-2-2-3.8-3.4-4-3.1-.9.9 3.2 8 5.7 9.8 2.7 2 6.4 2.5 9.5 1.3 1.1-.4 1.6-.3 1 .2-.5.4-1 1.4-1.1 2-.1.7-.2 1.7-.2 2.3-.3 1.9-6.9 1-10.6-1.5-2.5-1.7-3.6-2-3.6-1.1 0 1.6 7.4 8.5 9.3 8.7 2.6.3 5.3-.3 7.3-1.6 1.9-1.2 2-1.1 1.9 1.8-.2 1.8-.7 3.1-1.4 2.9-.6-.1-1.1.3-1.1.9 0 1.2-6.5.8-10.5-.6-1.3-.4-.8.4 1.5 2.5 3 2.7 4.1 3.1 8.5 2.9 4.1-.2 5.3-.7 6.9-2.8 1-1.4 1.6-1.8 1.2-.9-.3 1-.1 1.8.5 1.8s.9 1 .7 2.2c-.4 3.1-4.4 5-9.5 4.5s-5.6.5-1.2 2.4C21.6 86.7 30 85 30 81c0-.8.6-.8 2 0 1.1.6 2 1.7 2 2.5 0 2-5.1 5.7-7.2 5.2-1-.3-1.6-.1-1.2.4.3.5-.7.9-2.2.9-2 0-2.5.3-1.7 1.1.7.7 3.3.9 6.9.5 8-.7 8.3-.8 8.1-2-.1-.6.3-1 .9-.9.6.1 1.1-.5 1.2-1.3.1-.8.3-2.1.4-2.9.2-1.8.6-1.9 2.1-.2 3 3.2 1 7.4-5 10.3-3.3 1.6-3.5 1.9-1.5 2.2 3.2.5 8.2-1.4 11.7-4.4 1.7-1.5 2.4-2.3 1.6-1.9-1 .6-1.2.4-.5-.6.4-.8.7-2.4.5-3.7-.1-1.2.2-2.2.8-2.2.6 0 .7.8.4 1.7-.6 1.6-.5 1.6 1 .4.9-.7 1.7-1 1.8-.5 0 .5.2 1.9.5 3.1.2 1.5-.7 3.4-2.7 5.8-2.9 3.2-2.9 3.5-1 3.5 2.5 0 8.4-3.4 7.5-4.3-.4-.4.1-.9 1-1.3.9-.3 1.3-1 1-1.6-.3-.5-.3-2.6.1-4.5.4-2.4.9-3.2 1.4-2.4.5.7 1.2 1.1 1.7.9 1.9-.7 1.5 6.3-.6 9.7-2.6 4.3-1 4.6 3 .6 1.6-1.6 3.1-2.7 3.2-2.5.2.2.5-.7.5-1.9.1-1.2.5-3.6.8-5.4.3-1.7.1-3.4-.5-3.8-.6-.4-.7.1-.3 1.2.7 1.9.5 1.8-1.5-.8-1-1.4-.8-1.6 1.5-1.5 5.4.3 7.1 3.4 3.1 5.5L68.5 87l2.4-.6c2.1-.6 2.3-.4 1.8 1.7-.4 1.3-.7 2.8-.7 3.2 0 .5-.4.6-.9.2-.5-.3-1.3 0-1.7.6-.4.7-.3.9.4.5.6-.3 1.2.2 1.4 1.1.5 2.9 5.1-4.3 5.8-9.3.6-3.7.3-4.7-1.6-6.5-2.8-2.6-2.5-3.5 1.3-3.4 3.7 0 5.6 3.6 4.9 9.2-1 7.7 1.8 4.5 4.3-5 .5-2 .6-3.5.1-3.2-.7.5-2.4-3.2-2.1-4.8.1-.5-.3-.6-.9-.2-.5.3-1.3-.1-1.6-.9-.3-.9-1-1.3-1.5-1-.5.3-.9.1-.9-.5 0-.5 1.4-1.3 3.2-1.6 2.4-.6 3.5-.3 4.4 1 .8 1 1.1 2.2.8 2.6-.3.5-.1.9.5.9s1.3 1.6 1.7 3.6c.3 1.9 1 3.2 1.5 2.7 1.2-1.2 1.6-9.6.4-11.1-2.6-3.3-5-5.2-6.6-5.2-2.5 0-3-1.3-1.1-3 1.4-1.3 1.5-1.2.9.4s-.5 1.7.8.6c.8-.7 1.2-1.6.9-2.1-.9-1.5.7-1 3.8 1.2 1.7 1.2 3.7 3.8 4.6 5.8 1.2 2.8 1.7 3.2 2 1.8.7-3.3-.8-8.4-3.2-11-1.3-1.4-2.2-2.8-1.9-3.1.3-.2-.5-.2-1.8.1-1.6.4-2 .3-1.5-.6.6-.9 0-1-2.1-.6-2.7.6-2.7.6-.9-.9 1.1-.9 1.6-1.6 1-1.6-.5 0-.1-.5.8-1.1 2.2-1.2 6.8 1 9.7 4.7 1.6 2 2.1 2.3 2.1 1 0-2.4-2.4-6.7-4.9-9-2.3-2.1-9.2-2.9-10.3-1.2-.5.7-.8.3-.8-.8 0-1.4.5-1.7 2.3-1.3 2.2.6 2.2.6.2-.9-1.6-1.2-1.7-1.7-.7-2.3 2.1-1.3 7.4-.3 10.5 2 4.4 3.2 4.3 1.5-.3-3.4-3.5-3.8-4.6-4.5-7.3-4.2-4.6.4-6.1.9-6.9 2-1.1 1.4-1-3.7.1-5.4.9-1.4 8.9-1.2 12.4.3 2.9 1.4 1.9-.8-1.6-3.1-3.3-2.3-12.1-4.8-11.1-3.2.5.8-.9 1.3-2.8 1-.5 0-.8.4-.8.9 0 .6-.7 1-1.5 1-1.1 0-1.5-.8-1.2-2.5.4-3.5 1.2-3.9 8-4.6l6.2-.5-3.8-1.8c-3.8-1.7-14-2-13-.3.2.4-.3 1-1.1 1.3-.9.3-1.3 1-1 1.5.3.5 0 .9-.6.9s-.8.5-.4 1.2.3.8-.4.4-1.2-1.4-1.2-2.2c0-.8-.6-1.4-1.2-1.4-1 0-1-.2 0-.9.8-.4 1.3-1.2 1.2-1.6-.3-1.4 5.4-4.5 8.3-4.5 4.1 0 3.3-1.7-1.3-2.4-2.6-.4-5.3-.1-7.9 1-3.3 1.3-4.2 2.2-4.7 5-.7 3.9-1.4 4.2-4 1.3-1.7-1.8-1.7-2.3-.4-4.6.8-1.5 3.4-3.7 5.8-4.9 5-2.7 4.3-3.7-1.8-2.3-6.2 1.4-9.5 4.5-9.5 9v3.7l-2.8-1.5c-2.4-1.2-2.8-1.9-2.2-4.1.9-3.5 2.4-5.3 3.9-4.5.6.3.8.2.3-.2-.4-.5.3-1.9 1.5-3.2 2.7-2.9 1.6-2.9-4.1-.1z"/><path d="M29.6 18.2c.3.5 1 .6 1.5.3 1.3-.9 1.1-1.2-.6-1.2-.8 0-1.2.4-.9.9zM11.5 50c.3.5.8 1 1.1 1 .2 0 .4-.5.4-1 0-.6-.5-1-1.1-1-.5 0-.7.4-.4 1zM87 59.9c0 .6.4 1.3 1 1.6.6.3.7-.1.4-.9-.7-1.8-1.4-2.1-1.4-.7zM82.5 68c-.3.6.1.7.9.4 1.8-.7 2.1-1.4.7-1.4-.6 0-1.3.4-1.6 1zM23.3 77.5c0 .8.4 1.2.9.9.5-.3.6-1 .3-1.5-.9-1.3-1.2-1.1-1.2.6zM59 87.7c0 .6.8 1.7 1.8 2.4 1.6 1.3 1.6 1.3.2-.6-.8-1.1-1.6-2.2-1.7-2.4-.2-.2-.3 0-.3.6z"/></svg>