<svg version="1" xmlns="http://www.w3.org/2000/svg" width="933.333" height="933.333" viewBox="0 0 700.000000 700.000000"><path d="M360 8.5c-10.6 3.1-15.7 5-25 9.3-5 2.3-16.8 10.4-21.6 14.9-4.9 4.5-13.4 15.9-13.4 17.9 0 .8-.4 1.4-1 1.4-.5 0-1 .9-1 1.9 0 1.1-.6 2.6-1.3 3.3-.8.7-1.2 1.9-.9 2.7.3.9 0 1.1-.8.6-.8-.5-1.1-.4-.6.3 1 1.6-1.2 6.4-2.6 5.6-.7-.4-.8-.3-.4.5.4.6 1.1.9 1.6.6.5-.3.5.9 0 2.6-.5 1.8-.7 3.5-.5 4 .3.4.1 1-.5 1.4-.6.4-.7 1.1-.4 1.7.9 1.4.9 10.3 0 11.7-.4.6-.1 1.1.6 1.1.9 0 .9.3-.2 1-1 .6-1.1 1-.2 1 .6 0 1.2 1.1 1.2 2.4 0 1.3.7 4.2 1.5 6.5.8 2.2 1.1 4.1.7 4.1-.4 0-.2.4.4.8 1.9 1.3 6.4 9.8 5.6 10.7-.4.4-.2.5.4.2 1.5-.8 7.7 6 6.8 7.4-.4.7-.3 1 .2.6.5-.3 2.3.6 3.9 1.9l3 2.5-5-1.9c-2.7-1-5.9-2.2-7-2.7-1.1-.4-2.6-.9-3.4-1.1-2.3-.4-12.5-4.7-13.5-5.6-.6-.4-1.8-.8-2.8-.8-2 0-5.9-1.9-7-3.5-.4-.6-.8-.7-.8-.3 0 .4-1.8-.2-4-1.3-2.2-1.2-3.7-2.6-3.3-3.2.3-.6.1-.7-.5-.3-1.7 1-9-6.8-11.5-12.2-1.7-3.8-2.1-6.5-2.1-14.6.1-6.7.5-10.1 1.3-10.4.6-.2.8-.8.5-1.3-1.1-1.8 9.2-24.3 10.7-23.3.5.3.6-.2.3-1s.3-2.3 1.3-3.3 2.4-3.1 3-4.6c.7-1.5 1.7-2.7 2.3-2.7.5 0 1-.6 1-1.3 0-.6 3.6-5.9 8-11.7 4.4-5.7 8-11.1 8-11.9 0-4.9-29.4 12-42.6 24.6-11.8 11.2-21.2 27.2-22.9 38.8-.3 2.2-.8 5.3-1.1 7-.8 3.9-.8 3.8 0 12.9.4 4.4 1.2 9 1.7 10.3.5 1.3 1.1 3.4 1.3 4.8.2 1.3 1.2 4 2.1 5.9.9 1.9 1.3 4 .9 4.7-.4.7-.3.9.3.6.6-.4 2.5 1.5 4.4 4.1 1.8 2.6 4.1 5.3 5.1 6 1 .7 1.5 1.8 1.2 2.4-.4.6-.2.8.4.4.6-.3 1.6 0 2.4.7 2.2 2.2 10 7.3 15.6 10.2 5.5 2.9 6.3 3.5 3.5 3-1-.2-3.5-.4-5.5-.4-2.8-.1-3.6-.5-3.2-1.5.3-.8.1-1.7-.4-2-.5-.3-.9.2-.8 1.2.1 1.3-.6 1.7-2.9 1.6-5-.2-19.8-1.4-23-1.9-1.6-.3-4.5-.6-6.3-.7-2.3-.1-3.1-.5-2.8-1.4.4-1.1.1-1.1-1.3-.2-2.2 1.3-12.5-1.7-11.5-3.4.4-.7.2-.8-.4-.4-1.6 1-5.4-1.2-4.6-2.6.5-.7.2-.8-.5-.3-2.3 1.4-8.4-6.6-10.8-14.1-2.4-7.8-2.4-7.8-2.4-19.1.1-12.1 4.7-29.5 14.3-53.6 2.7-6.8 2.9-8 1.7-9.3-1.3-1.2-2.8-.1-11.6 8.8C176 62.8 170.6 70 164.9 82.6c-3.4 7.4-7.2 22.4-6.3 24.7.3.8 0 1.8-.5 2.2-.6.3-.9.9-.7 1.3.2.4.7 3.9 1 7.7.3 3.9 1.2 9.3 2 12 .9 2.7 1.3 5.1 1.1 5.3-.2.3.3 1.1 1.1 1.9.8.9 1.3 2.2 1 3-.3.8-.2 1.2.3.9.5-.3 1.1.2 1.3 1.2.8 3.1 1.2 3.7 3 5.7 1 1.1 2.1 3 2.4 4.2.4 1.3.9 2.1 1.4 1.8.4-.2 1.3.7 2 2 .7 1.4 1.7 2.5 2.2 2.5.5 0 .6.5.2 1.2-.4.6-.3.8.3.5 1.3-.8 3.6 1.7 2.5 2.8-.4.5-.1.5.6.1.6-.4 1.2-.2 1.2.4 0 .6.4.9.9.6.5-.4 1.1-.3 1.3.1.4 1 11 6.3 12.6 6.3.6 0 1.2.4 1.2.8s.8.8 1.9.9c1 .1 3.8.7 6.2 1.4 3.6.9 4 1.3 2.4 1.9-1.1.4-2.2.3-2.3-.2-.3-.5-.9-.5-1.5 0-1.4 1.1-5.3 2.1-11 2.8-2.3.3-5.7.9-7.5 1.4-2.1.5-3 .5-2.6-.2.3-.5-.4-.4-1.5.4-1.8 1.1-2.3 1.1-3.1-.2-.8-1.3-1-1.2-1 .4s-.2 1.7-1.7.5c-1.1-1-1.4-1-.9-.2.7 1.3.1 1.4-11.4 1.7-5 .2-12.2-1.3-11.6-2.3.3-.4-.8-.7-2.2-.6-1.6 0-2.6-.5-2.5-1.2.2-.7-.3-1-1-.8-1.4.6-9.7-7.1-9.7-9 0-.7-.4-1.5-.8-1.7-1-.4-5.2-8.5-5.2-9.9 0-.6.5-.7 1.2-.3.7.4.8.3.4-.5-.4-.6-1.1-.9-1.5-.6-1.5.9-3.5-14.8-3.5-27 0-10.7.4-16.8 1.8-27 .2-1.7.7-6 1.1-9.8.6-6.1.5-6.7-1.1-6.7-4.7 0-22.3 34-24.9 47.9-1.5 8.1-1.9 11.6-2 17.6 0 3.8.5 9.9 1.2 13.3.7 3.5 1 6.9.6 7.4-.3.7-.1.8.5.4.8-.5 1.2 0 1.2 1.3 0 1.1.5 2.3 1 2.6.5.3 1 1.7 1 3s.5 2.7 1.1 3c.9.6 3.2 5.5 2.9 6.3 0 .1 1 1.3 2.2 2.6 4.9 5 6.8 7.7 6.2 8.8-.4.7-.3.8.5.4 1.2-.8 7.8 5.2 7.3 6.7-.1.4.2.6.7.3.5-.4 1.6.1 2.5.9.8.9 1.9 1.6 2.3 1.5.4 0 .8.7.8 1.4 0 .8.4 1.8.8 2.3.5.4.8.3.7-.2-.5-2.3.1-2.6 2.3-1.3 1.2.8 5 2 8.4 2.8 4.1.8 6 1.7 5.6 2.4-.4.6 0 .5.9-.2 1.3-1 1.7-1 2.1 0 .4 1 .6 1 .6-.1.1-1.1.4-1.1 1.8 0 1.4 1.2 1.6 1.2.8 0-.6-1-.4-1.2.5-.6.7.4 4.3.7 7.9.6l6.6-.2-6 3.1c-3.3 1.6-6.1 3-6.2 3-.1 0 0-.8.3-1.8.3-.9-.2-.5-1.1 1-1.4 2.6-2.7 3.2-6.2 3.1-.7-.1-1.1.3-.8.7.7 1.1-2.4 2.2-3.7 1.3-.6-.3-.8-.2-.5.3.6 1-10.1 6.1-11.5 5.7-.5-.2-.8.2-.8.9 0 .6-.3.8-.7.5-.3-.4-1.6-.1-2.8.7-2.9 1.9-9.7 3.8-8.9 2.4.4-.5-.5-.2-2 .7-1.6 1.1-2.6 1.3-2.6.6 0-.8-.6-.9-1.7-.3-4.1 2.1-20.3-3.6-20.3-7 0-.6-.3-.8-.7-.5-.9 1-6.5-5.2-5.8-6.4.4-.5.1-.8-.5-.7-.7.2-1.7-.6-2.3-1.7-.7-1.1-1.9-3.1-2.8-4.5-3-4.5-8.7-21.3-10.8-31.7-1.2-5.7-2.1-10.6-2-11 .1-.5 0-1.1-.1-1.6-.1-.4-.3-1-.4-1.5-.3-.9-1.6-9.9-2.1-14.1-.5-3.6-2.2-6.4-3.5-5.6-1.5.9-7.3 20.9-9.6 33-1.3 6.8-1.1 25.2.2 31.7.8 3.5 1.2 6.9.9 7.6-.3.7-.1 1.1.4.8.5-.3 1.2.6 1.6 2.1 1 4.1 6.1 14.5 8.3 17.1 1.1 1.2 3 3.7 4.2 5.5 1.2 1.7 4.2 4.8 6.5 6.6 2.4 1.9 4.1 4 3.8 4.5-.4.6-.3.8.2.4.4-.4 2.1 0 3.6.9 2.3 1.4 2.6 1.9 1.6 3.2-1 1.4-1 1.4.5.3 1.3-1 2.2-1.1 3.8-.2 1.1.6 1.9 1.4 1.6 1.8-.2.4.6.8 1.7.8 3.2.3 12.1 3.6 12.9 4.8.5.7.8.7.8.1s3.3-1.1 7.7-1.1c9.3-.2 15.6-.7 16.3-1.4.3-.3 2.3-1 4.5-1.6 2.2-.6 4.9-1.5 6-1.9 1.1-.5-.4 1.4-3.4 4.1-3 2.7-5.8 4.8-6.3 4.7-.4-.2-.8.4-.8 1.2 0 1.6-2.9 3.4-4.7 2.8-.6-.2-1.4.1-1.8.6-.3.7 0 .8 1 .5 1.1-.5 1.4-.2.9 1-.6 1.5-1.8 2-3.7 1.7-.5-.1-.6.3-.3.7.3.5-1.8 2.9-4.7 5.3-2.8 2.4-5.4 4.7-5.5 5.2-.2.4-1 .3-1.8-.4-1.2-.9-1.3-.9-.9.3.7 1.8-11 10.2-13.1 9.4-.7-.3-1.4-.1-1.6.4-.2.5-1.4 1.1-2.8 1.4-1.4.2-2.5.5-2.5.6 0 .1-1.9.3-4.2.4-2.7.2-4-.1-3.6-.7.3-.6.1-.7-.6-.3-1.7 1.1-7.3-.3-6.5-1.6.4-.6.2-.8-.4-.4-1.4.9-8.3-2.5-7.5-3.7.3-.6.1-.7-.5-.3-1.1.6-7-4-11.9-9.4-3.6-3.9-16.3-23.2-16.9-25.7-.4-1.3-1-2.3-1.5-2.3s-.9-.4-.9-.9-2.2-5.6-5-11.3c-2.7-5.6-5-10.8-5-11.4 0-1.5-2.8-2.6-4.2-1.8-1.1.7-.5 30.8.6 36.4 3.2 15.4 8.2 28.2 14.4 37.2 4 5.7 16.8 18 19.3 18.6.8.2 1.6.7 1.9 1.1.5.6 4.6 2.6 6.2 3 .4.1 2.5.9 4.5 1.8 9.2 3.8 25.8 5.6 31.6 3.4 2-.8 2.7-.7 2.7.2 0 .9.2.9.8 0 1-1.7 11.1-5.5 12.4-4.7.6.4.8.2.5-.3-.7-1.1 11.2-8.8 12.1-7.8.3.3 0 .5-.7.5s-1 .4-.6.9c.3.6-.3 1.4-1.2 2-1 .6-1.5 1.1-1.1 1.1.4 0-1.4 3.3-4 7.2-2.6 4-5.4 8.5-6.1 10-.8 1.5-1.9 2.5-2.4 2.1-.6-.3-.7-.2-.4.4.6.9-3.2 7.3-6 10.1-.7.8-1.8 2.2-2.4 3.3-.5 1.1-1.4 1.7-1.9 1.4-.6-.3-.7 0-.5.7.3.8-.5 2.3-1.7 3.4-2.3 2-4.5 2.6-4 1.1.1-.5-.2-.6-.7-.2-.6.3-.8 1.2-.5 1.9.6 1.7-2.2 4-3.7 3-.7-.4-.9-.3-.6.3.8 1.3-5 3.6-6.6 2.6-.6-.3-.7-.1-.3.5 1.1 1.9-10.2 1.9-16.4.1-5.4-1.6-15.8-6.4-17-7.8-.3-.4-1.7-1.4-3.1-2.3-4.8-3-11.8-9.6-11.1-10.4.4-.4.2-.4-.4-.1-.9.5-13.4-11.3-13.4-12.7 0-.3-1.7-2.2-3.8-4.3-2-2.1-5.4-6-7.6-8.6-6.9-8.5-8-5.6-3.6 10.1 1.8 6.4 3.6 12.1 4 12.7.4.5 1.2 2.6 1.9 4.5 2.1 5.7 5.5 12.3 7.4 14.4.9 1.1 1.7 2.4 1.7 2.9 0 2.3 13.6 17 19.2 20.9 2.1 1.3 3.6 2.8 3.3 3.1-.3.4-.2.5.1.2.4-.2 2.8.6 5.3 1.9 6.9 3.6 15.2 6.4 21.3 7.1 11.1 1.3 22.2.7 28-1.7 1.5-.5 3.5-.8 4.3-.4.9.3 1.3.2 1-.4-.3-.5 1-1.6 2.9-2.4 3.9-1.6 4-1.7 11.1-8 3.7-3.3 5.3-4.2 6.3-3.4.9.8 1.1.7.6-.5-.3-.9.1-2.6 1-3.9 2.2-3.2 2-.9-1 8.8-1.7 5.7-2.9 8.2-3.7 7.8-.9-.5-.9-.4-.1.5 1.3 1.4.7 5.1-.8 5.1-.5 0-.7.4-.4.9.8 1.2-2.8 11.4-3.7 10.4-.5-.4-.5 0-.2.9.7 1.8-2.7 9.6-6.4 14.8-2.2 3.1-4 4.9-8.8 9-2 1.6-6.5 3.2-10.1 3.5-1.8.2-3.6.5-3.9.9-.3.3-1.5.1-2.6-.5-1.3-.8-1.7-.8-1.3 0 .7 1-1.2.9-10.4-.4-5.7-.9-18-5.7-17.3-6.8.3-.6.1-.7-.5-.3-1.6 1-15.6-6.6-30.1-16.3-19.3-13-19.8-11.1-3.3 13.7C36.1 461 57.6 477 74.5 479.5c2.5.4 4.5 1 4.5 1.4 0 .8 15.3.5 21-.4 2.5-.4 5.3-.8 6.3-.8.9-.1 1.7-.5 1.7-1s.9-.7 2.1-.4c1.2.3 1.8.3 1.5 0-.9-.9 6.5-3.3 7.7-2.6.6.4.7.1.2-.7-.6-1-.4-1.2 1.1-.6 1 .4 1.5.4 1.1 0-1-1 6.1-5.6 7.5-4.8.7.4.8.3.4-.5-.4-.6 0-1.4.8-1.7.9-.3 1.4-1 1.1-1.4-.3-.5.3-1.1 1.2-1.4 1-.3 2.4-1.9 3.1-3.6.8-1.6 2-3 2.7-3 .8 0 1.7-.5 2.1-1.2.4-.7.3-.8-.5-.4-.6.4-.2-1 1-3.1 1.3-2.1 3.1-5.5 4.1-7.6 2.1-4.3 2.3-4.4 2.5-1.7.1 1.3-.2 1.8-1 1.3-.9-.5-.9-.3 0 .8 1.3 1.6 1.2 11.7-.2 13.9-.5.9-.4 1.1.3.6.7-.4 1.2-.3 1.2.3 0 .5-.5 1.3-1 1.6-.8.5-.8 1.1-.1 1.9.6.7.9 1.5.6 1.7-.2.3-.5 4.6-.6 9.7-.1 5.1-.5 9.5-.9 9.7-.5.3-.6 1.9-.3 3.6.2 1.8.1 2.9-.5 2.5-.5-.3-.7.6-.4 2.1.3 1.7.1 2.4-.6 1.9-.6-.3-.8.1-.5 1.2.2 1.1-.2 2.6-1 3.3-.8.8-1.7 2.4-2.1 3.5-.7 2.3-7.3 9.3-9 9.5-.6.1-1.4.1-1.8 0-.5 0-.8.3-.8.8 0 .9-6.3 3.2-12.5 4.6-3.6.8-15.5.8-21-.1-6.9-1-7.9-1.1-10.3-1.3-1.3 0-2.1-.4-1.9-.9.3-.4-1.1-.8-3.2-.9-2 0-10.1-2.2-18.1-4.8-19.5-6.2-19-6.1-19-3.8 0 2 5.6 7.7 17 17.3 3.6 3 6.7 5.8 6.8 6.2.2.5.8.8 1.3.8s3.2 1.5 6.1 3.3c18.4 11.6 39.7 15.7 57.8 11.1 1.4-.4 3.5-.7 4.8-.8 1.2 0 2.2-.4 2.2-.7 0-.3 1.9-1.3 4.3-2.4 2.3-1 5.4-2.6 6.8-3.6 1.4-1 3.1-1.9 3.8-2.1.8-.2 2.4-1.3 3.7-2.6 1.3-1.3 2.9-2 3.6-1.6.6.4.8.3.5-.3-.4-.6.8-2.4 2.6-4 1.7-1.6 4-4.3 4.9-5.9 1-1.6 2.2-2.8 2.7-2.7.6.2.8-.4.5-1.2-.4-.8-.1-1.5.6-1.5.6 0 .9-.4.5-1-.3-.5.3-2.8 1.4-5.2 1-2.4 2.2-5.5 2.5-7.1.4-1.5 1.1-2.7 1.7-2.7.6 0 .8.7.5 1.6-.3.8-.2 1.2.4.9.5-.3.9.3.9 1.2 0 4.4 1.2 9.7 2.9 12.7.3.5-.1.6-.9.1-1.2-.8-1.2-.6-.1.8.8.9 1.1 2 .8 2.6-.3.5-.2 1.1.3 1.3.5.1 1.1 1.9 1.4 3.9.2 2 .8 4.3 1.2 4.9.6.9.4 1.1-.6.5-1.1-.7-1.2-.6-.3.6 1.6 1.9 2.2 8.8.9 9.3-.6.3-.6.5.1.5 1.3.1.9 9.1-.4 10.1-.4.3-.7 1.1-.8 1.7-.3 3.9-.5 4.4-1.3 3.9-.5-.4-.7.2-.4 1.3.5 2-8.7 12.1-11.2 12.1-.7 0-1.5.4-1.7.8-.6 1.4-10 5.3-11.5 4.8-.8-.3-1.2-.2-.9.3.3.5-3.1 1.5-7.7 2.2-9.2 1.6-44.1 1.6-51.9.1-3.6-.7-5.2-.6-6.5.4-2.8 2-1.3 3.2 16.2 12.2 12.5 6.4 22.8 10.2 32 11.8 8.8 1.5 22.9 1.2 30.8-.7 4.4-1.1 8.4-1.6 9-1.2.7.3.9.2.4-.2-.4-.5 2.5-2.5 6.4-4.4 7.2-3.6 19.5-13.8 23.6-19.6 1.2-1.7 3.2-5 4.5-7.5 1.3-2.5 2.6-4.6 3-4.8.4-.2.5-.9.2-1.6-.3-.8.2-2.1 1.1-3 .9-.9 1.1-1.6.5-1.6-.7 0-.8-.5-.2-1.6.5-.9.7-2.6.4-3.7-.3-1.1-.1-1.8.4-1.4.5.3.8-2.9.7-7.6-.2-6.5 0-7.7.8-5.7.6 1.4 1.1 2.9 1.2 3.5.1.5.8 1.6 1.5 2.4.7.7 1 2.1.7 2.9-.3.9-.3 1.3.1.9 1-.9 5.6 8.4 4.9 10.1-.2.7-.1 1 .5.7 1.1-.7 3.2 2.9 2.3 3.9-.3.3-.2.6.4.6 1.2 0 3.6 7.7 2.8 9-.4.6-.1.9.6.8 2.4-.6 4.3 14.7 2.7 22.2-1.1 5-7.5 14.3-9.1 13.3-.6-.3-.7-.1-.3.6.4.7-.2 1.5-1.6 2-1.3.6-1.9 1-1.4 1 1.2.1-4 4.1-5.3 4.1-.6 0-1.1.4-1.1 1 0 .5-1.2 1.3-2.7 1.6-1.6.4-3.7 1.3-4.8 2-2.5 1.6-19.2 7.1-23.7 7.9-1.8.3-4 .8-4.8 1-.8.2-3.1.7-5 1-1.9.3-4.6.8-6 1-5.8 1.2-7.6 1.5-12.4 2-2.8.3-5.5 1-6 1.5-1.4 1.4 0 3.7 2.6 4.2 1.3.3 6.6 1.7 11.8 3.1 5.2 1.4 12.4 3.1 16 3.7 6.5 1.2 26.3 1.6 31 .6 1.4-.3 3.9-.8 5.5-1.1 5.8-1.2 20.5-7.5 23.1-10 .6-.5 3.3-2.8 6-4.9 4.9-3.9 13.4-13.7 13.4-15.4 0-.4.9-1.8 2-3s2-2.4 2-2.7c0-.3.7-2.1 1.5-4.1.8-2 1.5-4.3 1.5-5.1 0-.8.3-1.2.8-1 .4.3.8-1.6 1-4.2.3-6.8.8-8.6 2.2-8.3.6.1.9-.2.5-.8-.3-.6-1-.8-1.4-.6-.4.3-.8-.7-.9-2.2-.2-4.3-1.1-10.2-1.7-11.2-.3-.6 0-1 .7-1 .9 0 .9-.3-.2-1-.8-.5-1.1-1-.6-1 .5 0 .4-.6-.2-1.3-.6-.7-1.3-2.5-1.6-4-.2-1.5-.8-3.2-1.2-3.9-.8-1.5 4.1 3.7 9.9 10.6 2.3 2.6 4.1 5.3 3.9 5.8-.1.5.2.7.7.4.5-.3 2.2 1 3.7 3 1.6 1.9 3.9 4.6 5.2 5.9 1.2 1.3 2.2 2.9 2.2 3.5 0 .5.5 1 1.1 1 .6 0 .8.7.5 1.6-.3.8-.2 1.3.3 1 .5-.3 1.4.1 2.1.9.7.8.9 1.5.4 1.5-.4 0 0 .6 1.1 1.3 1.1.9 1.5 1.9 1 2.7-.6.9-.4 1.1.5.5 1-.6 1.2-.3.8 1.3-.4 1.2-.1 2 .4 1.9.6-.1 1.7 2 2.4 4.8 1.5 5.5 1.8 11.9.7 11.2-.5-.3-.8 1-.9 2.9-.1 3.8-1.4 6.7-6.3 13.8-4.8 7-11.5 13.1-13.3 12-.7-.4-.8-.3-.4.4s-2.4 3.1-6.8 6.2c-4.1 2.7-7.8 5-8.1 5-.3 0-2.4 1.2-4.8 2.7-2.3 1.4-4.3 2.6-4.5 2.5-.1-.1-4.8 2-10.5 4.7-5.6 2.6-11.2 5.1-12.4 5.5-3.3 1.1-3 4.3.5 4.8 5.8.8 30.1-.2 38.2-1.7 6.8-1.2 19.3-5.7 26-9.2 6.9-3.7 19.7-13.7 19.9-15.6.1-.4 1.3-2 2.7-3.5 3-3.2 7.8-12.2 10-18.9.8-2.7 1.8-5.5 2.1-6.3.3-.8.8-3.5 1-6 .3-2.5.9-5.1 1.5-5.8.6-.7.7-1.2.1-1.2-.5 0-.9-1.7-.8-3.8 0-2-.2-4.4-.6-5.2-.4-.8-.9-2.9-1.2-4.6-.2-1.6-1.4-4.9-2.6-7.2-1.2-2.3-1.9-4.2-1.5-4.2.3 0-.2-.7-1.1-1.6-1.3-1.4-1.4-1.9-.3-2.5 1-.7.9-.9-.3-.9-1.6 0-2.6-1.3-2.7-3.3 0-.5-.9-1.5-1.9-2.2-1-.7-1.5-1.7-1-2.1.4-.4.7-.2.7.4 0 .7.5 1.2 1.1 1.2 1.2 0 10.2 6.1 10.7 7.2.2.5.8.8 1.3.8.8 0 15.1 9.9 20.3 14 5.7 4.5 11.7 11.2 11.2 12.5-.3.8 0 1.4.6 1.2 1.7-.3 4.7 8.2 4.7 13.7.1 6.1-2.7 16.8-4.2 15.9-.5-.3-.7-.1-.3.5.3.6.1 2.3-.6 3.9-1.5 3.4-8.6 13.2-12.5 17.3-1.5 1.6-3.3 3.5-3.9 4.2-2.3 2.5-13.1 12.4-16.8 15.3-2.1 1.6-4.4 3.4-5 4-.6.5-3.2 2.7-5.9 4.8-8.4 6.8-5.9 8.2 7.9 4.6 23.3-6.1 34.7-11.6 50.5-24.4 7.8-6.3 18.1-23.8 20.2-34.5.6-3 1.6-5.8 2.2-6.2.6-.5.5-.8-.3-.8-.7 0-1.1-.4-.8-.9 1.8-2.8.4-22.5-1.8-26-.7-1.1-.6-1.2.5-.6 1.2.7 1.2.6 0-.9-1.3-1.5-1.3-1.9 0-2.8 1.1-.8 1.1-.9-.4-.4-1.3.4-2.1-.4-3.5-3.4-.9-2.2-2-4-2.4-4-.5 0-.8-.5-.8-1 0-1-5-6.9-9.4-11.1-1-.9-1.5-2.2-1.2-2.8.4-.5.1-1.3-.5-1.7-.8-.4-.9-.3-.5.4s.2 1.2-.4 1.2c-.6 0-1.3-.7-1.6-1.5-.4-.8-1.3-1.5-2.2-1.5-.8 0-1.2-.3-.9-.7.8-.7 8.7 1.7 8.7 2.6 0 .3 1.4.7 3.1.8 1.7.1 3.7.8 4.5 1.4.8.6 1.4.9 1.4.5 0-.3 1.6 0 3.5.8s3.5 1.3 3.5 1c0-.3 1 .1 2.3.8 1.2.7 2.4 1.3 2.7 1.3 2.8.3 10 3 10 3.6 0 .5.3.8.8.8 2.4-.4 4.2.2 3.6 1.3-.4.7-.3.8.4.4 2.6-1.6 18.2 9.7 18.2 13.1 0 .7.4 1.3.9 1.3 3.4 0 4.9 20.5 2.3 29.9-.9 3.1-1.8 5.8-2.1 6.1-.3.3-.7 1.4-.9 2.5-.9 5.5-10.5 22.3-22.9 39.9-6.6 9.4-7.5 11.6-4.5 11.6 3.1 0 26.6-14.8 34.7-21.9 2.6-2.2 12.3-12.9 14.2-15.6 6.4-9.3 11.3-21.9 12.9-33.5.3-2.5.6-4.7.7-5 .4-1.8-1.6-16.6-2.7-19.7-.7-2.1-1.2-4.8-1.1-6 .1-1.2-.2-2-.6-1.8-1 .7-3.2-5.2-2.4-6.5.3-.6.1-.9-.6-.8-.6.2-1.4-.3-1.7-1.1-.3-.9 0-1.1.9-.6.8.5 1.1.4.6-.1-.5-.5-1.3-.9-1.8-.9s-1-.4-1.1-.9c-.5-1.5-9.7-10.6-10.8-10.6-.6 0-1.3-.7-1.6-1.5-.4-.8-1.2-1.5-2-1.5s-1.4-.5-1.4-1c0-.6-.5-1-1.1-1-.6 0-2.3-.8-3.7-1.8-1.5-1-4.5-2.6-6.7-3.4l-4-1.6 5.5.4c3 .2 9.3.4 14 .5 4.7.1 9.1.6 9.8 1.2.8.6 1.2.6 1.2-.2 0-.7.5-.9 1.1-.5.6.3 3.7.8 6.9.9 3.2.2 7.8.6 10.2 1 5.4.9 15.9 5.5 15.2 6.6-.3.5.1.6.9.3 1.3-.5 8 6.6 7.7 8.2-.1.4.4 1 1 1.4.7.4 1.3 1.9 1.3 3.3.1 1.4.5 2.3 1 2 .4-.2.8.5.8 1.6.2 2.8.3 3.4 1 4.6 2.2 3.5-.1 28.1-3.6 38.7-.8 2.6-1.5 5.1-1.5 5.7 0 .5-.5 2.2-1.2 3.8-.6 1.5-1.2 3.3-1.3 3.9-.2.6-2 5.6-4 11.2-3.9 10.3-4.1 14.1-.8 12.3 4.2-2.2 21.5-21.6 27.5-30.6 5.6-8.4 11.8-22.7 11.8-27.1 0-.8.3-1.3.8-1.1 1.6 1.1 1.6-21.6-.1-29.3-.8-3.6-1.3-6.8-1-7.3.2-.4-.1-.7-.6-.7-.6 0-1.1-.5-1.1-1.2 0-1.1-4.8-11.5-6.2-13.3-.4-.6-1.9-2.5-3.4-4.2-1.4-1.8-2.3-3.7-1.9-4.3.4-.6.3-.9-.2-.8-1.2.4-5.4-2.8-4.6-3.5.3-.4 0-.7-.8-.7-.9 0-2.4-.8-3.5-1.8-3.1-2.9-16.2-8.4-23-9.7-1-.2-2-.4-2.1-.5-.4-.3-2-.7-4-1-1.3-.1-1.1-.4.7-.9 1.4-.5 3.1-.3 3.9.3 1.1.8 1.3.8.8 0-.6-1.1 4-2.7 11.3-4 2.5-.5 4.3-.9 8.1-2 1.6-.5 2-.3 1.5.7-.5.9-.2.8.6-.1.7-.9 2.2-1.5 3.3-1.5 1.1 0 2.5-.3 3-.6 2.1-1.4 5.3-1.4 7.1.1 1.8 1.4 1.8 1.4.4-.4-1.4-1.8-1.3-1.9.7-1.4 1.3.4 2.5.2 2.8-.2.6-1 15.2-.6 17.7.5 1 .4 1.5 1.1 1.2 1.6-.3.5.1.6.9.3 3.4-1.3 15.6 9.8 16 14.5 0 1.1.4 1.8.8 1.5 1-.6 2 2.6 1.2 3.8-.3.6-.1.8.4.5 1.3-.8 4.3 9.7 4.8 16.9.1 1.7.5 3.5.8 4.1.5.8.1 36.9-.5 46.8-.3 3.3 0 4 1.6 4 2.1 0 11.6-17 16.6-29.8 7.2-18.4 8.6-39.5 3.6-53.8-1.5-4.1-2.8-7.9-2.9-8.4-.2-.6-1.1-2.5-2-4.2-1-1.8-1.7-3.5-1.8-3.8 0-.4-6.3-7.7-10.9-12.5-5.5-5.7-16.5-13-19.6-13-.8 0-1.3-.3-1.1-.8.3-.4-1.1-.8-3.1-.9-1.9-.1-3.9-.8-4.3-1.5-.5-.8-.9-.9-.9-.2 0 .8-1.3.9-3.7.5-2.1-.4-6.7-.6-10.3-.5-4 .2-5.9 0-5-.6.8-.5 1.8-.6 2.2-.4.4.3.8 0 .8-.6 0-.7.7-.9 1.6-.6.8.3 1.3.2 1-.2-.5-.9 15.3-8.8 16.7-8.4.4.1.7-.2.7-.7 0-.8 2.8-2.1 7.5-3.7.6-.2 3.6-1.3 6.8-2.4 3.2-1.1 6.3-1.7 6.9-1.4.7.4.8.3.4-.4s-.2-1.2.3-1.2c.6 0 1.1.6 1.1 1.2 0 .9.3.9.9-.1.7-1.1 2.2-1.2 6.3-.8 9.2 1.1 12.3 2.5 18.9 8.5 5.9 5.3 12.4 15.5 11.5 17.9-.3.7-.1 1.2.5 1 1.8-.4 9 22.1 10.4 32.3.5 3.8 1.5 9.3 2 11 .2.8.7 3.7 1 6.5.9 7.3 1.5 8.7 3.3 8.3 1.9-.4 4.8-9.4 8.3-25.8 5.2-23.8 1.8-46.9-9.4-64.1-1.9-3-4.4-6.4-5.6-7.6-1.1-1.2-2.1-2.8-2.1-3.4 0-.7-.3-.9-.7-.6-.3.4-1.9-.6-3.4-2.2s-3-2.7-3.3-2.3c-.3.3-.6 0-.6-.6 0-.7-.7-1.2-1.6-1.2-1 0-1.4-.6-1.1-1.4.4-1 .1-1.3-.8-1-.7.3-3.1-.6-5.3-2-6.7-4.2-15.3-6.6-24.7-6.8-4.6-.1-8.7.1-9.1.5-.4.4-1.3-.1-2.1-1.1-1.2-1.6-1.3-1.6-.7 0 .6 1.8.2 2-5.3 2.2-1 .1-2 .4-2.3.8-.3.4-1.8.9-3.4 1.2-2.4.4-2.6.3-1.5-1 .7-.8 1.8-1.3 2.6-1 .8.3 1.1.1.8-.5-.7-1.1 4.4-5.6 5.8-5.1.5.1.6-.2.3-.7-.6-1 6.4-6.8 7.7-6.3.5.1.6-.2.3-.6-.7-1.1 8.3-8.8 10.1-8.6.7.1 1.1-.1.9-.5-.5-.8 5-5.4 5.8-4.9.3.2 1.1-.5 1.8-1.5s2.3-1.9 3.6-2c1.2 0 2.2-.4 2.2-.8 0-1.1 9.6-3.1 13.7-2.8 2.1.2 4.4.8 5.2 1.3.8.6 1.6 1 1.8.8.8-.6 3.4-.1 2.9.6-.2.4.5.9 1.7.9 1.2.1 2.3.7 2.5 1.3.2.5 1 1 1.7 1s4.4 2.9 8.2 6.5c3.7 3.6 6.5 6.5 6.2 6.5-.4 0 .8 1.5 2.5 3.3 1.7 1.8 3.8 4.7 4.6 6.3.8 1.6 1.8 3.1 2.1 3.4 1.1.9 10.4 19.2 15 29.3 6.3 14.1 7.4 13.3 7.6-5.8.2-21.5-2.4-35.1-9.6-49.4-2.2-4.3-4.7-8.8-5.8-10-1-1.2-1.8-2.5-1.8-2.9 0-1.3-10.1-10.3-16.5-14.6-6.2-4.1-16.7-8.6-20.3-8.6-.9 0-1.7-.3-1.7-.8 0-.4-2.1-.8-4.7-1-2.5-.1-5.2-.7-5.8-1.2-.7-.5-1.5-.7-1.9-.3-1.1 1.2-5.6 1.1-5.6-.1 0-.6-.4-.5-.9.3s-1.6 1.1-2.6.8c-1-.5-1.4-.3-.9.4.4.7.1 1-.7.7-.8-.3-2.9.1-4.8.8-1.8.8-3.8 1.1-4.4.7-.6-.4-.7-.1-.2.7.6 1 .4 1.2-.8.7-1-.3-1.7-.2-1.7.3 0 .8-2.5 2-4.3 2-.4 0-1.6.8-2.6 1.7-1.1 1-3.4 2.7-5.2 3.7l-3.3 1.9 2.4-3.9c1.3-2.1 2.7-4.1 3-4.4.4-.3 1-1.4 1.4-2.5.7-2 .8-2 2.2-.1.8 1.1 1.4 1.5 1.4 1 0-.6-.5-1.5-1.1-2.1-1.4-1.4 11.1-20.1 18.7-28 3.1-3.2 5.3-5.1 4.9-4.3-.4.8.2.5 1.2-.6 2.4-2.9 10.5-6.5 11.8-5.3.5.5 1.4.9 2 .9.5 0 .4-.4-.4-.9-2.1-1.3 5.4-1.3 11.4.1 7.9 1.7 15.9 5.8 25 12.8 5.2 3.9 23.5 23.2 23 24-.4.6-.2.9.3.8 1.1-.3 3.4 2.2 8.5 8.8 3.1 4.2 6.2 6.2 7.4 5 1.7-1.7-7.9-32.4-12.9-41.5-4.5-8.3-9.3-15.1-14-20.1-2.4-2.5-4.1-5-4-5.5.2-.6.1-.7-.3-.3-.4.4-3-1-5.9-3.1-8.9-6.6-21.8-11.8-31.3-12.4-2.3-.2-4.5-.6-4.8-.9-.3-.3-2.2-.2-4.1.2-1.9.4-3.7.4-4-.1-.3-.5-1.3-.5-2.4.1-2.6 1.4-5.7 1.3-6.3-.3-.4-.7-.6-.6-.6.4-.1 1.5-4.6 3-9.8 3.3-.6.1-1.5.5-2 1s-.2.6.7.2c.8-.4.6-.1-.4.8-1 .8-2.3 1.3-2.7 1-.5-.3-.9 0-.9.7s-.2 1-.5.7c-.6-.6-3.9 2.2-11.6 9.5-2.8 2.7-5.3 4.6-5.6 4.3-.4-.3-.1-.6.5-.6.7 0 1.1-.3 1-.8-.3-1.7 1.6-6.8 3-8 .9-.6 1.1-1.2.5-1.2-.6 0-.9-.9-.6-2 .3-1.1 1-2 1.6-2 .6 0 .8-.3.4-.6-.3-.3-.1-1.8.5-3.3.5-1.4 1.1-3.3 1.3-4.1.8-3.1 3-8.5 3.8-9.1.5-.3.8-.9.7-1.3-.4-1.4 2.3-6.6 3.1-6 .5.3.6-.2.3-1-.5-1.4 3.1-7 7.3-11.4 1.5-1.5 2.7-1.6 1.7 0-.4.7-.3.8.5.4.6-.4.9-1.1.6-1.6-.6-1 2.3-3.5 3.2-2.7.3.4 1.1 0 1.7-.8.6-.8 2.9-1.8 5.1-2.3 5-1.1 19.1-.7 21.9.6 1.2.5 3.9 1.5 6.1 2.2 10 3.1 26.3 12.7 45.4 26.8 6.2 4.6 7.5 5.2 8.7 4.1 1.1-1.2.3-3.2-5.2-12.9-3.6-6.3-9-14.7-12-18.6-5.4-7.1-16.6-18.4-18.3-18.4-.5 0-1.1-.4-1.3-.8-1.3-3.1-20.3-11.6-28.3-12.7-10.7-1.4-11.8-1.5-12.6-2.1-.5-.3-.9 0-.9.7 0 1-.3 1-1.1.2s-2-.8-4-.1c-1.6.6-3.8.8-4.9.5-1.1-.3-1.8-.1-1.4.4.3.5-.6.9-2 .9-3.7 0-17.9 5-19.6 6.9-1.4 1.6-10.5 8.6-11.1 8.6-.4 0-1.1.4-1.6.9s-.3.6.5.2c1.4-.8 1.7 1 .3 1.8-1.3.8-8.6 11.6-9.5 14.1-.6 1.6-.9 1.7-1.6.5-.5-.8-.6-1.9-.2-2.5.4-.5.5-1.8.3-2.9-.1-1 .2-1.5.7-1.2.6.4 1.4.2 1.7-.4.4-.6.1-.9-.6-.8-.9.2-1.3-1-1.4-3.5 0-2 .2-3.7.5-3.7.4 0 .5-1.4.2-3-.2-1.7.2-3.8.9-4.7 1-1.2 1-1.4.2-.9-.7.4-1.3.3-1.3-.3 0-.5.5-1.3 1-1.6.6-.3 1-1.2 1-1.8 0-.7-.4-.6-1 .3-.9 1.4-.7-2.8.5-8.5.2-1.1.4-3.1.4-4.4.1-1.9.4-2.1 1.5-1.2 1.1.9 1.6.9 2.2 0 .4-.7.3-.9-.3-.6-1.2.8-3.6-1.7-2.6-2.6.3-.4.7-1.8.9-3.1.5-4.4 4.4-11.6 8.9-16 6.2-6.2 13.4-8.8 26-9.2 9.5-.3 11.4-.1 30.8 4.1.9.2 2.2.7 2.7 1 .5.3 1.8.8 2.7 1 1.9.3 8.2 2.6 21.7 7.7 7.5 2.8 10.6 3.1 10.6.8 0-1.5-19.7-20.6-26.7-25.8-3.4-2.6-8.4-5.8-11-7.2-2.6-1.3-5-2.7-5.3-3-.3-.3-1.2-.7-2-.9-.8-.3-4.6-1.5-8.5-2.8-7.3-2.5-14.1-3.6-21-3.6-8.7.1-17.2 1.2-21 2.8-8.8 3.6-19.1 9.1-21.9 11.7-2.4 2.3-3.2 2.6-4.5 1.5-1.4-1-1.4-1-.4.4 1.1 1.3.8 2-1.7 4.4-1.7 1.6-3 3.5-3 4.2 0 .7-.4 1.3-.9 1.3s-1.5 1.6-2.2 3.4c-.7 1.9-1.7 3.2-2.2 2.9-.6-.3-.7-.1-.3.6.4.6.3 1.7-.2 2.4-1 1.2-1.2 1.8-1.2 3.7 0 .5-.8 1-1.7 1-1.4 0-1.5.2-.4.9.9.6 1.1 1.6.5 3.2-.5 1.3-.9 2.8-1 3.4-.1.9-.3 1.6-1.8 5.5-.3.8-.4.3-.2-1.3.2-1.5-.1-2.7-.5-2.7-.5 0-.8-.3-.7-.8.1-.4-.1-2.1-.5-3.7-.4-1.7-.9-4.2-1.2-5.8-.6-3.2-1.3-6.6-2.1-10.5-.3-1.5-.7-4-1-5.5-.2-1.6-.6-3.2-.9-3.7-.3-.5-.8-5-1.2-10.1-.5-7.7-.4-9.1.8-8.4 1.1.7 1.2.6.2-.6s-.9-2.7.4-7.2c2.4-8.7 10.4-16.4 21.4-20.7 7.5-3 19.4-5 21-3.6.9.8 1 .8.5-.2-.6-1 .2-1.3 3.1-1.2 2.1 0 7.2 0 11.4.1 9.9 0 25.7 1.1 33.4 2.3 2 .3 4.5-1 4.5-2.5 0-2.3-27.8-16.6-39.8-20.3-14.9-4.7-30.4-5.3-44.2-1.8-8.1 2.1-22 9.7-26.1 14.4-.9 1-2.1 1.8-2.7 1.8-.6 0-1.4.9-1.7 2.1-.4 1.1-1.3 1.8-2 1.6-.7-.3-1.2.1-1.1 1.1 0 .9-.5 1.6-1.2 1.4-.8-.1-1.1.2-.7.8.3.5.1 1-.4 1-.6 0-1.1.4-1.1.9 0 .6-1.3 3-3 5.4-1.6 2.5-3 5.5-3 6.7 0 1.1-.4 1.8-1 1.5-.6-.4-.9.4-.7 1.7.1 1.5-.3 2.2-1.2 2-1.1-.2-1.2 0-.3 1.1.6.7.9 2.6.6 4.3-.4 1.6-.6 3.6-.6 4.4-.1.8-.8 2.4-1.7 3.5-1.2 1.5-1.2 1.7-.1.8 1.3-1 1.5-.2 1.7 5.8l.1 6.8-2.9-5.5c-1.6-3-2.7-6-2.3-6.6.4-.6.3-.8-.3-.5-.6.4-1.9-1.3-2.9-3.6s-2.2-4.5-2.7-4.8c-.5-.3-.8-.9-.8-1.3.1-.3-1.1-3-2.5-5.9-3.8-7.7-7.4-17.4-6.7-18.1.4-.3.1-.6-.6-.6s-1.1-.6-.8-1.3c.2-.6.1-2.4-.4-3.8-.4-1.5-.3-3.1.3-3.7.6-.6.6-1.2 0-1.6-.6-.3-.8-1.5-.5-2.6.3-1.1 1-1.7 1.7-1.3.8.5.8.3 0-.8-1.4-1.9-1.1-4.5.5-4.1.7.1.9-.2.6-.9-.8-1.2 2.4-7.9 3.8-7.9.4 0 .5.5.1 1.2s-.3.8.5.4c.6-.4.8-1.2.5-1.8-1.7-2.6 18.8-16.7 22.3-15.4.8.3 1.1.2.8-.4-.5-.8 15-6.3 21.2-7.5 1.5-.2 3.9-.7 5.3-1 7.8-1.7 18-3.5 21.7-3.9 7.9-.7 8.7-3.7 1.6-6-16.2-5.1-31-7.5-44.8-7-16 .5-19.5 1.2-30.7 6.3-6.6 3-18.4 11.1-20.6 14.3-.7 1-1.8 1.6-2.3 1.2-.5-.3-.8-.2-.7.3.2.4-1.8 3.9-4.3 7.8-2.6 3.8-5 8-5.4 9.3-.3 1.2-1.1 1.9-1.7 1.6-.7-.4-.8-.2-.4.5.4.6.3 1.7-.2 2.4-.6.7-1.2 1.6-1.4 2.2-.1.5-.7.9-1.3.7-.5-.2-.5.2.2.8.8.9.8 2.1.1 4.4-.5 1.7-.9 4.8-.9 6.9.1 2.8-.2 3.6-1.2 3.1-.8-.5-.7-.2.2.9.7.9 1.4 3.7 1.5 6.2 0 2.5.4 4.5.7 4.5.4 0 .9 1.5 1.2 3.2.2 1.8 1 4.9 1.6 6.8 1 3.2.5 3-5.9-3.9-3.8-4.1-6.6-7.9-6.3-8.5.3-.5.2-.6-.4-.3-1.3.8-6.6-5-5.8-6.4.4-.5.1-.8-.7-.7-.7.2-1.2-.3-1-1 .1-.8-.1-1.1-.6-.8-1.2.7-5.4-4.2-4.7-5.5.4-.5.2-.8-.3-.7-1.7.6-8.9-10.1-8.4-12.5.1-.4-.2-.7-.7-.7-1 0-2.4-5.8-2.6-11-.3-5.8 3.9-18 6.2-18 .7 0 1-.6.7-1.3-.4-1.3 6-8.5 12.4-14 6.5-5.6 19-13 35-20.9 8.9-4.4 16.2-8.2 16.2-8.4 0-.1-.6-.9-1.3-1.6-1-.9-3.9-1.3-9.8-1.2-25.7.6-37.9 3-53.9 10.7-7.2 3.5-7 3.4-12.1 7.6-2 1.7-4 2.7-4.4 2.3-.5-.4-.5-.2-.1.5.3.6.1 1.5-.7 2-4.8 3-16.7 21.3-16.7 25.7 0 1-.4 1.5-.8 1.2-.5-.3-.8.5-.7 1.7.1 1.2-.3 3.8-1 5.7-.6 1.9-1.3 5.7-1.4 8.5-.2 2.7-.8 5.6-1.4 6.4-.9 1.2-.9 1.3.1.7.8-.5 1.2.2 1.4 2.6.2 5.1.3 5.6 1.1 6.4 1.2 1.2.8 2.6-.5 1.8-.7-.4-.5.2.5 1.4 1.1 1.2 1.6 2.6 1.1 3.3-.4.8-.3 1 .4.5.7-.4 1.2-.1 1.2.8 0 2.4.2 2.9 2.2 5 1.7 1.8 1.9 2.5 1.7 4.2 0 .4.3 1 .8 1.3.5.3 1.9 2.1 3.2 3.9l2.3 3.2-3.6-2.1c-2-1.1-3.3-2.6-2.9-3.2.3-.6.1-.7-.5-.3-1.3.8-5.6-1.7-4.6-2.6.3-.3-.3-.5-1.3-.5-1 .1-1.7-.3-1.6-.9.1-.7-.5-1.1-1.5-1-1.1.1-1.6-.6-1.5-1.8.1-1.2-.2-1.5-.9-.8s-2.7-.1-6.2-2.5c-8.5-6-12-8.7-13.8-10.6-.9-1-1.9-1.7-2.1-1.5-.3.2-1.6-1.1-2.8-2.7-1.3-1.7-2.7-3.3-3.2-3.6-.5-.4-.6-1.2-.2-1.9.5-.8.4-1.1-.3-.6-1.3.8-4.7-7.8-3.7-9.5.6-.8.4-1-.5-.4-1 .6-1.2-.6-.8-6.1.6-7.3 3.9-18.2 6-19.6.7-.4.9-.8.5-.8-1.7 0 7.9-12.3 16.2-20.9 4.7-4.9 12.2-11.9 16.6-15.5 4.4-3.7 9.2-7.8 10.8-9.1 3.3-2.9 3.6-5.5.5-5.4-1.3 0-7.5 1.5-13.8 3.4zM179.5 498c.3.5.1 1-.4 1-.6 0-1.1-.5-1.1-1 0-.6.2-1 .4-1 .3 0 .8.4 1.1 1z"/><path d="M263 58.4c0 .2.8 1 1.8 1.7 1.5 1.3 1.6 1.2.3-.4s-2.1-2.1-2.1-1.3zM343.5 74.9c-.3.5-.2 1.2.3 1.5.5.3.9-.1.9-.9 0-1.7-.3-1.9-1.2-.6zM335.3 79.5c0 .8.4 1.2.9.9.5-.3.6-1 .3-1.5-.9-1.3-1.2-1.1-1.2.6zM275.6 80.2c.3.5 1 .6 1.5.3 1.3-.9 1.1-1.2-.6-1.2-.8 0-1.2.4-.9.9zM327.5 79.9c-.3.5-.2 1.2.3 1.5.5.3.9-.1.9-.9 0-1.7-.3-1.9-1.2-.6zM347.5 84.9c-.3.5-.2 1.2.3 1.5.5.3.9-.1.9-.9 0-1.7-.3-1.9-1.2-.6zM335 86c0 .5.5 1 1.1 1 .5 0 .7-.5.4-1-.3-.6-.8-1-1.1-1-.2 0-.4.4-.4 1zM287.3 87.5c0 .8.4 1.2.9.9.5-.3.6-1 .3-1.5-.9-1.3-1.2-1.1-1.2.6zM218 87.4c0 .2.8 1 1.8 1.7 1.5 1.3 1.6 1.2.3-.4s-2.1-2.1-2.1-1.3zM345.5 88.9c-.3.5-.2 1.2.3 1.5.5.3.9-.1.9-.9 0-1.7-.3-1.9-1.2-.6zM341.3 91.1c-.2 2.3.3 2.5 1 .4.4-.8.3-1.6-.1-1.9-.4-.3-.9.4-.9 1.5zM403 89.9c0 .6.4 1.3 1 1.6.6.3.7-.1.4-.9-.7-1.8-1.4-2.1-1.4-.7zM331.5 90.9c-.3.5-.2 1.2.3 1.5.5.3.9-.1.9-.9 0-1.7-.3-1.9-1.2-.6zM487 91.9c0 .6.4 1.3 1 1.6.6.3.7-.1.4-.9-.7-1.8-1.4-2.1-1.4-.7zM335.5 94c.3.5.8 1 1.1 1 .2 0 .4-.5.4-1 0-.6-.5-1-1.1-1-.5 0-.7.4-.4 1zM347.5 94.1c-.3.4.2.6 1 .5 2.1-.3 2.8-1.3 1-1.3-.9 0-1.8.4-2 .8zM337.5 98c-.3.5-.1 1 .4 1 .6 0 1.1-.5 1.1-1 0-.6-.2-1-.4-1-.3 0-.8.4-1.1 1zM349.6 97.8c-.3.4.4.9 1.5.9 2.3.2 2.5-.3.4-1-.8-.4-1.6-.3-1.9.1zM423.6 98.7c-.6 1.4-.5 1.5.5.6.7-.7 1-1.5.7-1.8-.3-.3-.9.2-1.2 1.2zM355.3 99.5c0 .8.4 1.2.9.9.5-.3.6-1 .3-1.5-.9-1.3-1.2-1.1-1.2.6zM342.7 100.1c.7.7 1.5 1 1.8.7.3-.3-.2-.9-1.2-1.2-1.4-.6-1.5-.5-.6.5zM401.4 100.4c.1.8.5 1.8.8 2.2.4.3.5-.1.4-1-.1-.8-.5-1.8-.8-2.2-.4-.3-.5.1-.4 1zM285.5 100.9c-.3.5-.2 1.2.3 1.5.5.3.9-.1.9-.9 0-1.7-.3-1.9-1.2-.6zM268.6 101.8c-.3.5.1.9.9.9s1.2-.4.9-.9c-.3-.4-.7-.8-.9-.8-.2 0-.6.4-.9.8zM411.4 101.8c.4.3 1.4.7 2.2.8.9.1 1.3 0 1-.4-.4-.3-1.4-.7-2.2-.8-.9-.1-1.3 0-1 .4zM276.9 104.3c.6.8.7 1.8.3 2.2-.4.5-.1.5.6.1 1-.6 1-1.1.1-2.2-.6-.8-1.4-1.4-1.6-1.4-.3 0 0 .6.6 1.3zM407.3 104.5c0 .8.4 1.2.9.9.5-.3.6-1 .3-1.5-.9-1.3-1.2-1.1-1.2.6zM411 105.5c0 .7 3 1.3 3.4.7.3-.4-.4-.9-1.5-.9-1-.1-1.9 0-1.9.2zM271 107.9c0 .6.4 1.2.8 1.5.5.3.9-.1.9-.9s-.4-1.5-.9-1.5c-.4 0-.8.4-.8.9zM277.3 110.5c0 .8.4 1.2.9.9.5-.3.6-1 .3-1.5-.9-1.3-1.2-1.1-1.2.6zM281 110.1c0 .5.5.7 1 .4.6-.3 1-.8 1-1.1 0-.2-.4-.4-1-.4-.5 0-1 .5-1 1.1zM417.6 110.2c.3.5 1 .6 1.5.3 1.3-.9 1.1-1.2-.6-1.2-.8 0-1.2.4-.9.9zM421.6 109.8c-.2.4-.1 1.4.4 2.2.7 1.1.9.9.7-.8-.1-2.4-.3-2.6-1.1-1.4zM211.5 116c.3.5.8 1 1.1 1 .2 0 .4-.5.4-1 0-.6-.5-1-1.1-1-.5 0-.7.4-.4 1zM474 116c-.9.6-1 1-.3 1 .6 0 1.5-.5 1.8-1 .8-1.2.4-1.2-1.5 0zM219.6 117.3c.3 1 .9 1.5 1.2 1.2.3-.3 0-1.1-.7-1.8-1-.9-1.1-.8-.5.6zM479.5 116.9c-.3.5-.2 1.2.3 1.5.5.3.9-.1.9-.9 0-1.7-.3-1.9-1.2-.6zM414.6 119.8c-.3.5.1.9.9.9s1.2-.4.9-.9c-.3-.4-.7-.8-.9-.8-.2 0-.6.4-.9.8zM225.4 121.8c.4.3 1.4.7 2.2.8.9.1 1.3 0 1-.4-.4-.3-1.4-.7-2.2-.8-.9-.1-1.3 0-1 .4zM415 122.4c0 .2.8 1 1.8 1.7 1.5 1.3 1.6 1.2.3-.4s-2.1-2.1-2.1-1.3zM479.6 123.3c.3 1 .9 1.5 1.2 1.2.3-.3 0-1.1-.7-1.8-1-.9-1.1-.8-.5.6zM423.9 125.2c-.5 1.6-.4 4.6.2 4.2.4-.2.7-1.3.6-2.4-.1-1.7-.5-2.6-.8-1.8zM465.5 126.1c-.3.4.2.6 1 .5 2.1-.3 2.8-1.3 1-1.3-.9 0-1.8.4-2 .8zM223.5 130.1c-.3.4.2.6 1 .5 2.1-.3 2.8-1.3 1-1.3-.9 0-1.8.4-2 .8zM465.5 130c-.3.5-.1 1 .4 1 .6 0 1.1-.5 1.1-1 0-.6-.2-1-.4-1-.3 0-.8.4-1.1 1zM477.4 129.8c.4.3 1.4.7 2.2.8.9.1 1.3 0 1-.4-.4-.3-1.4-.7-2.2-.8-.9-.1-1.3 0-1 .4zM235 132c0 .5.5 1 1.1 1 .5 0 .7-.5.4-1-.3-.6-.8-1-1.1-1-.2 0-.4.4-.4 1zM225.5 132.9c-.3.5-.2 1.2.3 1.5.5.3.9-.1.9-.9 0-1.7-.3-1.9-1.2-.6zM209.4 134.4c.1.8.5 1.8.8 2.2.4.3.5-.1.4-1-.1-.8-.5-1.8-.8-2.2-.4-.3-.5.1-.4 1zM217.5 134c.3.5.8 1 1.1 1 .2 0 .4-.5.4-1 0-.6-.5-1-1.1-1-.5 0-.7.4-.4 1zM230.7 136.1c.7.7 1.5 1 1.8.7.3-.3-.2-.9-1.2-1.2-1.4-.6-1.5-.5-.6.5zM217 138.1c0 .5.5.7 1 .4.6-.3 1-.8 1-1.1 0-.2-.4-.4-1-.4-.5 0-1 .5-1 1.1zM473 138c0 .5.5 1 1.1 1 .5 0 .7-.5.4-1-.3-.6-.8-1-1.1-1-.2 0-.4.4-.4 1zM477.5 138c-.3.5-.1 1 .4 1 .6 0 1.1-.5 1.1-1 0-.6-.2-1-.4-1-.3 0-.8.4-1.1 1zM239 138.4c0 .2.8 1 1.8 1.7 1.5 1.3 1.6 1.2.3-.4s-2.1-2.1-2.1-1.3zM586.9 139.7c-1.3 1.6-1.2 1.7.4.4.9-.7 1.7-1.5 1.7-1.7 0-.8-.8-.3-2.1 1.3zM473 142c0 .5.5 1 1.1 1 .5 0 .7-.5.4-1-.3-.6-.8-1-1.1-1-.2 0-.4.4-.4 1zM481 142.1c0 .5.5.7 1 .4.6-.3 1-.8 1-1.1 0-.2-.4-.4-1-.4-.5 0-1 .5-1 1.1zM550.6 147.8c-.2.4.4.8 1.4.8 1 0 1.6-.4 1.4-.8-.3-.4-.9-.8-1.4-.8-.5 0-1.1.4-1.4.8zM151.5 152c.3.5.8 1 1.1 1 .2 0 .4-.5.4-1 0-.6-.5-1-1.1-1-.5 0-.7.4-.4 1zM531 156c0 .5.5 1 1.1 1 .5 0 .7-.5.4-1-.3-.6-.8-1-1.1-1-.2 0-.4.4-.4 1zM159.9 164.7c-1.3 1.6-1.2 1.7.4.4 1.6-1.3 2.1-2.1 1.3-2.1-.2 0-1 .8-1.7 1.7zM525.9 163.2c-.5 1.8-.6 3.8-.1 3.4.7-.8 1.2-3.6.6-3.6-.2 0-.4.1-.5.2zM543.5 164.9c-.3.5-.2 1.2.3 1.5.5.3.9-.1.9-.9 0-1.7-.3-1.9-1.2-.6zM173.4 166.4c.1.8.5 1.8.8 2.2.4.3.5-.1.4-1-.1-.8-.5-1.8-.8-2.2-.4-.3-.5.1-.4 1zM531 165.5c0 .7 3 1.3 3.4.7.3-.4-.4-.9-1.5-.9-1-.1-1.9 0-1.9.2zM165.4 170.2c-.4.7-.4 1 .1.6.4-.4 1.5-.2 2.4.5 1.4 1.1 1.4 1 .2-.6-1.6-2-1.8-2.1-2.7-.5zM188 170c.8.5 2 1 2.5 1 .6 0 .3-.5-.5-1s-1.9-1-2.5-1c-.5 0-.3.5.5 1zM525 170c0 .5.5 1 1.1 1 .5 0 .7-.5.4-1-.3-.6-.8-1-1.1-1-.2 0-.4.4-.4 1zM159 171.9c0 .6.4 1.3 1 1.6.6.3.7-.1.4-.9-.7-1.8-1.4-2.1-1.4-.7zM529.4 172.4c.1.8.5 1.8.8 2.2.4.3.5-.1.4-1-.1-.8-.5-1.8-.8-2.2-.4-.3-.5.1-.4 1zM167.3 175.5c0 .8.4 1.5.9 1.5.4 0 .8-.4.8-.9 0-.6-.4-1.2-.8-1.5-.5-.3-.9.1-.9.9zM193.6 175.3c.3 1 .9 1.5 1.2 1.2.3-.3 0-1.1-.7-1.8-1-.9-1.1-.8-.5.6zM172 176c-.9.6-1 1-.3 1 .6 0 1.5-.5 1.8-1 .8-1.2.4-1.2-1.5 0zM152.6 178.2c.3.5 1 .6 1.5.3 1.3-.9 1.1-1.2-.6-1.2-.8 0-1.2.4-.9.9zM161.9 177.2c-.5 1.8-.6 3.8-.1 3.4.7-.8 1.2-3.6.6-3.6-.2 0-.4.1-.5.2zM533.5 182c-.3.5-.1 1 .4 1 .6 0 1.1-.5 1.1-1 0-.6-.2-1-.4-1-.3 0-.8.4-1.1 1zM106.9 199.7c-1.3 1.6-1.2 1.7.4.4 1.6-1.3 2.1-2.1 1.3-2.1-.2 0-1 .8-1.7 1.7zM567.6 205.3c.3 1 .9 1.5 1.2 1.2.3-.3 0-1.1-.7-1.8-1-.9-1.1-.8-.5.6zM563.5 210c-.3.5-.1 1 .4 1 .6 0 1.1-.5 1.1-1 0-.6-.2-1-.4-1-.3 0-.8.4-1.1 1zM124.5 212c-.3.6.1.7.9.4 1.8-.7 2.1-1.4.7-1.4-.6 0-1.3.4-1.6 1zM94 215.5c0 .2.6.8 1.3 1.4 1 .8 1.4.7 1.4-.2 0-.8-.6-1.4-1.4-1.4-.7 0-1.3.1-1.3.2zM125.3 216.9c0 1.1.5 1.8.9 1.5.4-.3.5-1.1.1-1.9-.7-2.1-1.2-1.9-1 .4zM138.6 216.2c.3.5 1 .6 1.5.3 1.3-.9 1.1-1.2-.6-1.2-.8 0-1.2.4-.9.9zM573.6 218.2c.3.5 1 .6 1.5.3 1.3-.9 1.1-1.2-.6-1.2-.8 0-1.2.4-.9.9zM102.5 220c-.3.6.1.7.9.4 1.8-.7 2.1-1.4.7-1.4-.6 0-1.3.4-1.6 1zM615.6 220.2c.3.5 1 .6 1.5.3 1.3-.9 1.1-1.2-.6-1.2-.8 0-1.2.4-.9.9zM129.4 222.4c.1.8.5 1.8.8 2.2.4.3.5-.1.4-1-.1-.8-.5-1.8-.8-2.2-.4-.3-.5.1-.4 1zM152 222c-.9.6-1 1-.3 1 .6 0 1.5-.5 1.8-1 .8-1.2.4-1.2-1.5 0zM155.5 222c-.3.5-.1 1 .4 1 .6 0 1.1-.5 1.1-1 0-.6-.2-1-.4-1-.3 0-.8.4-1.1 1zM561.5 222c.3.5.8 1 1.1 1 .2 0 .4-.5.4-1 0-.6-.5-1-1.1-1-.5 0-.7.4-.4 1zM120 226c-1.2.7-1 .9.7.7 1.2 0 1.9-.5 1.7-.9-.6-1-.6-1-2.4.2zM125.6 226.2c.3.5 1 .6 1.5.3 1.3-.9 1.1-1.2-.6-1.2-.8 0-1.2.4-.9.9zM569.9 225.2c-.5 1.8-.6 3.8-.1 3.4.7-.8 1.2-3.6.6-3.6-.2 0-.4.1-.5.2zM142.6 228.2c.3.5 1 .6 1.5.3 1.3-.9 1.1-1.2-.6-1.2-.8 0-1.2.4-.9.9zM563 227.9c0 .6.4 1.3 1 1.6.6.3.7-.1.4-.9-.7-1.8-1.4-2.1-1.4-.7zM125.5 233.9c-.3.5-.2 1.2.3 1.5.5.3.9-.1.9-.9 0-1.7-.3-1.9-1.2-.6zM569.5 234c-.3.5-.1 1 .4 1 .6 0 1.1-.5 1.1-1 0-.6-.2-1-.4-1-.3 0-.8.4-1.1 1zM559.6 236.7c-.6 1.4-.5 1.5.5.6.7-.7 1-1.5.7-1.8-.3-.3-.9.2-1.2 1.2zM563 236c0 .5.5 1 1.1 1 .5 0 .7-.5.4-1-.3-.6-.8-1-1.1-1-.2 0-.4.4-.4 1zM603 268.1c0 .5.5.7 1 .4.6-.3 1-.8 1-1.1 0-.2-.4-.4-1-.4-.5 0-1 .5-1 1.1zM591.1 271.3c-1.3 2.1-1.2 2.1.5.5 1-1 1.6-2 1.3-2.2-.3-.3-1.1.5-1.8 1.7zM101.4 273.8c.4.3 1.4.7 2.2.8.9.1 1.3 0 1-.4-.4-.3-1.4-.7-2.2-.8-.9-.1-1.3 0-1 .4zM113.5 274c-.3.5-.1 1 .4 1 .6 0 1.1-.5 1.1-1 0-.6-.2-1-.4-1-.3 0-.8.4-1.1 1zM117.5 274c.3.5.8 1 1.1 1 .2 0 .4-.5.4-1 0-.6-.5-1-1.1-1-.5 0-.7.4-.4 1zM129 275.9c0 .6.4 1.3 1 1.6.6.3.7-.1.4-.9-.7-1.8-1.4-2.1-1.4-.7zM105.3 278.5c0 .8.4 1.2.9.9.5-.3.6-1 .3-1.5-.9-1.3-1.2-1.1-1.2.6zM113.5 278c-.3.5-.1 1 .4 1 .6 0 1.1-.5 1.1-1 0-.6-.2-1-.4-1-.3 0-.8.4-1.1 1zM123.4 280c0 1.3.4 1.6 1 1 .7-.7.7-1.3 0-2-.6-.6-1-.3-1 1zM121 283.9c0 .6.4 1.3 1 1.6.6.3.7-.1.4-.9-.7-1.8-1.4-2.1-1.4-.7zM635.6 284.2c.3.5 1 .6 1.5.3 1.3-.9 1.1-1.2-.6-1.2-.8 0-1.2.4-.9.9zM603.6 285.3c.3 1 .9 1.5 1.2 1.2.3-.3 0-1.1-.7-1.8-1-.9-1.1-.8-.5.6zM101.4 285.8c.4.3 1.4.7 2.2.8.9.1 1.3 0 1-.4-.4-.3-1.4-.7-2.2-.8-.9-.1-1.3 0-1 .4zM592 286c-1.2.7-1 .9.7.7 1.2 0 1.9-.5 1.7-.9-.6-1-.6-1-2.4.2zM599 286.1c0 .5.5.7 1 .4.6-.3 1-.8 1-1.1 0-.2-.4-.4-1-.4-.5 0-1 .5-1 1.1zM97.4 289.8c.4.3 1.4.7 2.2.8.9.1 1.3 0 1-.4-.4-.3-1.4-.7-2.2-.8-.9-.1-1.3 0-1 .4zM585 290.1c0 .5.5.7 1 .4.6-.3 1-.8 1-1.1 0-.2-.4-.4-1-.4-.5 0-1 .5-1 1.1zM589 290c0 .5.5 1 1.1 1 .5 0 .7-.5.4-1-.3-.6-.8-1-1.1-1-.2 0-.4.4-.4 1zM595.9 292.7c-1.3 1.6-1.2 1.7.4.4.9-.7 1.7-1.5 1.7-1.7 0-.8-.8-.3-2.1 1.3zM101.5 296.9c-.3.5-.2 1.2.3 1.5.5.3.9-.1.9-.9 0-1.7-.3-1.9-1.2-.6zM92.6 298.2c.3.5 1 .6 1.5.3 1.3-.9 1.1-1.2-.6-1.2-.8 0-1.2.4-.9.9zM123.3 330.5c0 .8.4 1.2.9.9.5-.3.6-1 .3-1.5-.9-1.3-1.2-1.1-1.2.6zM121 331.9c0 .6.4 1.3 1 1.6.6.3.7-.1.4-.9-.7-1.8-1.4-2.1-1.4-.7zM615.5 334.9c-.3.5-.2 1.2.3 1.5.5.3.9-.1.9-.9 0-1.7-.3-1.9-1.2-.6zM609.5 336c.3.5.8 1 1.1 1 .2 0 .4-.5.4-1 0-.6-.5-1-1.1-1-.5 0-.7.4-.4 1zM601.4 340.4c.1.8.5 1.8.8 2.2.4.3.5-.1.4-1-.1-.8-.5-1.8-.8-2.2-.4-.3-.5.1-.4 1zM609.5 340c-.3.5-.1 1 .4 1 .6 0 1.1-.5 1.1-1 0-.6-.2-1-.4-1-.3 0-.8.4-1.1 1zM93.6 341.8c-.3.4.4.9 1.5.9 2.3.2 2.5-.3.4-1-.8-.4-1.6-.3-1.9.1zM97 346.1c0 .5.5.7 1 .4.6-.3 1-.8 1-1.1 0-.2-.4-.4-1-.4-.5 0-1 .5-1 1.1zM597 346.1c0 .5.5.7 1 .4.6-.3 1-.8 1-1.1 0-.2-.4-.4-1-.4-.5 0-1 .5-1 1.1zM605.4 346.4c.1.8.5 1.8.8 2.2.4.3.5-.1.4-1-.1-.8-.5-1.8-.8-2.2-.4-.3-.5.1-.4 1zM62.9 347.7c-1.3 1.6-1.2 1.7.4.4.9-.7 1.7-1.5 1.7-1.7 0-.8-.8-.3-2.1 1.3zM107.4 351.1c-.3.6-.2 1.5.3 2s.9.1.9-1.1c0-2.3-.2-2.4-1.2-.9zM102.7 352.1c.7.7 1.5 1 1.8.7.3-.3-.2-.9-1.2-1.2-1.4-.6-1.5-.5-.6.5zM93.5 352.9c-.3.5-.2 1.2.3 1.5.5.3.9-.1.9-.9 0-1.7-.3-1.9-1.2-.6zM83.6 354.7c-.6 1.4-.5 1.5.5.6.7-.7 1-1.5.7-1.8-.3-.3-.9.2-1.2 1.2zM593 354c0 .5.5 1 1.1 1 .5 0 .7-.5.4-1-.3-.6-.8-1-1.1-1-.2 0-.4.4-.4 1zM96.6 358.2c.3.5 1 .6 1.5.3 1.3-.9 1.1-1.2-.6-1.2-.8 0-1.2.4-.9.9zM589 358c0 .5.5 1 1.1 1 .5 0 .7-.5.4-1-.3-.6-.8-1-1.1-1-.2 0-.4.4-.4 1zM593.5 358c.3.5.8 1 1.1 1 .2 0 .4-.5.4-1 0-.6-.5-1-1.1-1-.5 0-.7.4-.4 1zM63.6 360.2c.3.5 1 .6 1.5.3 1.3-.9 1.1-1.2-.6-1.2-.8 0-1.2.4-.9.9zM97.5 360.9c-.3.5-.2 1.2.3 1.5.5.3.9-.1.9-.9 0-1.7-.3-1.9-1.2-.6zM62 371.4c0 .2.8 1 1.8 1.7 1.5 1.3 1.6 1.2.3-.4s-2.1-2.1-2.1-1.3zM118.9 399.7c-1.3 1.6-1.2 1.7.4.4.9-.7 1.7-1.5 1.7-1.7 0-.8-.8-.3-2.1 1.3zM597.9 403.2c-.5 1.8-.6 3.8-.1 3.4.7-.8 1.2-3.6.6-3.6-.2 0-.4.1-.5.2zM113.5 410c-.3.5-.1 1 .4 1 .6 0 1.1-.5 1.1-1 0-.6-.2-1-.4-1-.3 0-.8.4-1.1 1zM585.5 410c-.3.5-.1 1 .4 1 .6 0 1.1-.5 1.1-1 0-.6-.2-1-.4-1-.3 0-.8.4-1.1 1zM589 410.1c0 .5.5.7 1 .4.6-.3 1-.8 1-1.1 0-.2-.4-.4-1-.4-.5 0-1 .5-1 1.1zM597.4 410.4c.1.8.5 1.8.8 2.2.4.3.5-.1.4-1-.1-.8-.5-1.8-.8-2.2-.4-.3-.5.1-.4 1zM109.5 414c-.3.5-.1 1 .4 1 .6 0 1.1-.5 1.1-1 0-.6-.2-1-.4-1-.3 0-.8.4-1.1 1zM585.5 414c-.3.5-.1 1 .4 1 .6 0 1.1-.5 1.1-1 0-.6-.2-1-.4-1-.3 0-.8.4-1.1 1zM99.5 418.1c-.3.4.2.6 1 .5 2.1-.3 2.8-1.3 1-1.3-.9 0-1.8.4-2 .8zM593.4 417.8c.4.3 1.4.7 2.2.8.9.1 1.3 0 1-.4-.4-.3-1.4-.7-2.2-.8-.9-.1-1.3 0-1 .4zM599.5 418c-.3.5-.1 1 .4 1 .6 0 1.1-.5 1.1-1 0-.6-.2-1-.4-1-.3 0-.8.4-1.1 1zM92.5 420c-.3.6.1.7.9.4 1.8-.7 2.1-1.4.7-1.4-.6 0-1.3.4-1.6 1zM585 422c0 .5.5 1 1.1 1 .5 0 .7-.5.4-1-.3-.6-.8-1-1.1-1-.2 0-.4.4-.4 1zM588.6 422.2c.3.5 1 .6 1.5.3 1.3-.9 1.1-1.2-.6-1.2-.8 0-1.2.4-.9.9zM580.2 423.6c1 1 2 1.6 2.2 1.3.3-.3-.5-1.1-1.7-1.8-2.1-1.3-2.1-1.2-.5.5zM103.9 426.7c-1.2 1.6-1.2 1.7.2.6.9-.7 2-.9 2.4-.5.5.4.5.1.1-.6-.9-1.6-1.1-1.5-2.7.5zM109.5 426c-.3.5-.1 1 .4 1 .6 0 1.1-.5 1.1-1 0-.6-.2-1-.4-1-.3 0-.8.4-1.1 1zM106.5 432.1c-.3.4.2.6 1 .5 2.1-.3 2.8-1.3 1-1.3-.9 0-1.8.4-2 .8zM91.5 434.9c-.3.5-.2 1.2.3 1.5.5.3.9-.1.9-.9 0-1.7-.3-1.9-1.2-.6zM99 440.1c0 .5.5.7 1 .4.6-.3 1-.8 1-1.1 0-.2-.4-.4-1-.4-.5 0-1 .5-1 1.1zM103.5 439.9c-.3.5-.2 1.2.3 1.5.5.3.9-.1.9-.9 0-1.7-.3-1.9-1.2-.6zM145 454c0 .5.5 1 1.1 1 .5 0 .7-.5.4-1-.3-.6-.8-1-1.1-1-.2 0-.4.4-.4 1zM573.7 464.5c-.4.8-.3 1.6.1 1.9.4.3.9-.4.9-1.5.2-2.3-.3-2.5-1-.4zM600 466.5c-.7.9-1.1 1.7-.9 2 .3.2 1-.5 1.7-1.5 1.4-2.4 1-2.6-.8-.5zM133 470c0 .5.5 1 1.1 1 .5 0 .7-.5.4-1-.3-.6-.8-1-1.1-1-.2 0-.4.4-.4 1zM124.6 474.2c.3.5 1 .6 1.5.3 1.3-.9 1.1-1.2-.6-1.2-.8 0-1.2.4-.9.9zM133.5 474c.3.5.8 1 1.1 1 .2 0 .4-.5.4-1 0-.6-.5-1-1.1-1-.5 0-.7.4-.4 1zM567.5 474.1c-.3.4.2.6 1 .5 2.1-.3 2.8-1.3 1-1.3-.9 0-1.8.4-2 .8zM573.6 474.2c.3.5 1 .6 1.5.3 1.3-.9 1.1-1.2-.6-1.2-.8 0-1.2.4-.9.9zM577.6 473.8c-.2.4-.1 1.4.4 2.2.7 1.1.9.9.7-.8-.1-2.4-.3-2.6-1.1-1.4zM143.5 476c-.3.5-.1 1 .4 1 .6 0 1.1-.5 1.1-1 0-.6-.2-1-.4-1-.3 0-.8.4-1.1 1zM544.6 475.8c-.3.5.1.9.9.9s1.2-.4.9-.9c-.3-.4-.7-.8-.9-.8-.2 0-.6.4-.9.8zM578.6 479.5c-1.1.8-1.5 1.5-.9 1.5s1.6-.7 2.3-1.5c1.6-1.9 1.1-1.9-1.4 0zM563 479.4c0 .2.7.7 1.6 1 .8.3 1.2.2.9-.4-.6-1-2.5-1.4-2.5-.6zM570.4 479.8c.4.3 1.4.7 2.2.8.9.1 1.3 0 1-.4-.4-.3-1.4-.7-2.2-.8-.9-.1-1.3 0-1 .4zM115.5 484c.3.5.8 1 1.1 1 .2 0 .4-.5.4-1 0-.6-.5-1-1.1-1-.5 0-.7.4-.4 1zM137.3 484.9c0 1.1.5 1.8.9 1.5.4-.3.5-1.1.1-1.9-.7-2.1-1.2-1.9-1 .4zM129.5 486.1c-.3.4.2.6 1 .5 2.1-.3 2.8-1.3 1-1.3-.9 0-1.8.4-2 .8zM141.5 486c.3.5.8 1 1.1 1 .2 0 .4-.5.4-1 0-.6-.5-1-1.1-1-.5 0-.7.4-.4 1zM591.6 488.2c.3.5 1 .6 1.5.3 1.3-.9 1.1-1.2-.6-1.2-.8 0-1.2.4-.9.9zM137.4 490.4c.1.8.5 1.8.8 2.2.4.3.5-.1.4-1-.1-.8-.5-1.8-.8-2.2-.4-.3-.5.1-.4 1zM141.6 489.8c-.2.4-.1 1.4.4 2.2.7 1.1.9.9.7-.8-.1-2.4-.3-2.6-1.1-1.4zM115.6 492.7c-.6 1.4-.5 1.5.5.6.7-.7 1-1.5.7-1.8-.3-.3-.9.2-1.2 1.2zM177 510.4c0 .2.8 1 1.8 1.7 1.5 1.3 1.6 1.2.3-.4s-2.1-2.1-2.1-1.3zM175.5 515.9c-.3.5-.2 1.2.3 1.5.5.3.9-.1.9-.9 0-1.7-.3-1.9-1.2-.6zM178.5 516c-.3.6.1.7.9.4 1.8-.7 2.1-1.4.7-1.4-.6 0-1.3.4-1.6 1zM541.4 516.4c.1.8.5 1.8.8 2.2.4.3.5-.1.4-1-.1-.8-.5-1.8-.8-2.2-.4-.3-.5.1-.4 1zM174.7 520.1c.7.7 1.5 1 1.8.7.3-.3-.2-.9-1.2-1.2-1.4-.6-1.5-.5-.6.5zM179 520.4c.7.7 1.3.7 2 0 .6-.6.3-1-1-1s-1.6.4-1 1zM521.6 520.2c.3.5 1 .6 1.5.3 1.3-.9 1.1-1.2-.6-1.2-.8 0-1.2.4-.9.9zM529.5 522c.3.5.8 1 1.1 1 .2 0 .4-.5.4-1 0-.6-.5-1-1.1-1-.5 0-.7.4-.4 1zM543.5 522c.3.5.8 1 1.1 1 .2 0 .4-.5.4-1 0-.6-.5-1-1.1-1-.5 0-.7.4-.4 1zM169.4 523.8c.4.3 1.4.7 2.2.8.9.1 1.3 0 1-.4-.4-.3-1.4-.7-2.2-.8-.9-.1-1.3 0-1 .4zM179.5 524c.3.5.8 1 1.1 1 .2 0 .4-.5.4-1 0-.6-.5-1-1.1-1-.5 0-.7.4-.4 1zM498.6 523.8c-.3.5.1.9.9.9s1.2-.4.9-.9c-.3-.4-.7-.8-.9-.8-.2 0-.6.4-.9.8zM508 524c-.9.6-1 1-.3 1 .6 0 1.5-.5 1.8-1 .8-1.2.4-1.2-1.5 0zM513 526c0 .5.5 1 1.1 1 .5 0 .7-.5.4-1-.3-.6-.8-1-1.1-1-.2 0-.4.4-.4 1zM543 525.5c0 .5.5 1.7 1 2.5s1 1 1 .5c0-.6-.5-1.7-1-2.5s-1-1.1-1-.5zM170.6 527.8c-.3.5.1.9.9.9s1.5-.4 1.5-.9c0-.4-.4-.8-.9-.8-.6 0-1.2.4-1.5.8zM175.5 528c-.3.5-.1 1 .4 1 .6 0 1.1-.5 1.1-1 0-.6-.2-1-.4-1-.3 0-.8.4-1.1 1zM179 527.4c0 .2.7.7 1.6 1 .8.3 1.2.2.9-.4-.6-1-2.5-1.4-2.5-.6zM529.3 529.5c0 .8.4 1.2.9.9.5-.3.6-1 .3-1.5-.9-1.3-1.2-1.1-1.2.6zM173.4 532.4c.1.8.5 1.8.8 2.2.4.3.5-.1.4-1-.1-.8-.5-1.8-.8-2.2-.4-.3-.5.1-.4 1zM179.5 531.9c-.3.5-.2 1.2.3 1.5.5.3.9-.1.9-.9 0-1.7-.3-1.9-1.2-.6zM523.9 531.2c-.5 1.8-.6 3.8-.1 3.4.7-.8 1.2-3.6.6-3.6-.2 0-.4.1-.5.2zM163.5 533.1c-.4.6-.5 1.2-.2 1.5.2.3.7-.2 1-1.1.7-1.7.1-2-.8-.4zM183.6 534.2c.3.5 1 .6 1.5.3 1.3-.9 1.1-1.2-.6-1.2-.8 0-1.2.4-.9.9zM169.6 537.8c-.2.4-.1 1.4.4 2.2.7 1.1.9.9.7-.8-.1-2.4-.3-2.6-1.1-1.4zM181 538c0 .5.5 1 1.1 1 .5 0 .7-.5.4-1-.3-.6-.8-1-1.1-1-.2 0-.4.4-.4 1zM173.6 542.2c.3.4 1.1.5 1.9.1 2.1-.7 1.9-1.2-.4-1-1.1 0-1.8.5-1.5.9zM159.5 543.1c-.4.6-.5 1.2-.2 1.5.2.3.7-.2 1-1.1.7-1.7.1-2-.8-.4zM163.9 544.7c-1.3 1.7-1.3 1.7.6.3 1.1-.8 2.2-1.6 2.4-1.7.2-.2 0-.3-.6-.3s-1.7.8-2.4 1.7zM170 544c-.9.6-1 1-.3 1 .6 0 1.5-.5 1.8-1 .8-1.2.4-1.2-1.5 0zM467.3 559.5c0 .8.4 1.5.9 1.5.4 0 .8-.4.8-.9 0-.6-.4-1.2-.8-1.5-.5-.3-.9.1-.9.9zM459.9 560.7c-1.3 1.6-1.2 1.7.4.4.9-.7 1.7-1.5 1.7-1.7 0-.8-.8-.3-2.1 1.3zM464 560c-.9.6-1 1-.3 1 .6 0 1.5-.5 1.8-1 .8-1.2.4-1.2-1.5 0zM489.3 560.9c0 1.1.5 1.8.9 1.5.4-.3.5-1.1.1-1.9-.7-2.1-1.2-1.9-1 .4zM560 562c-.9.6-1 1-.3 1 .6 0 1.5-.5 1.8-1 .8-1.2.4-1.2-1.5 0zM458.6 564.2c.3.5 1 .6 1.5.3 1.3-.9 1.1-1.2-.6-1.2-.8 0-1.2.4-.9.9zM481.4 564.4c.1.8.5 1.8.8 2.2.4.3.5-.1.4-1-.1-.8-.5-1.8-.8-2.2-.4-.3-.5.1-.4 1zM477.5 566c.3.5.8 1 1.1 1 .2 0 .4-.5.4-1 0-.6-.5-1-1.1-1-.5 0-.7.4-.4 1zM489.3 566.5c0 .8.4 1.2.9.9.5-.3.6-1 .3-1.5-.9-1.3-1.2-1.1-1.2.6zM467 568.1c0 .5.5.7 1 .4.6-.3 1-.8 1-1.1 0-.2-.4-.4-1-.4-.5 0-1 .5-1 1.1zM471.5 568c-.3.5-.1 1 .4 1 .6 0 1.1-.5 1.1-1 0-.6-.2-1-.4-1-.3 0-.8.4-1.1 1zM503.6 567.8c-.3.5.1.9.9.9s1.2-.4.9-.9c-.3-.4-.7-.8-.9-.8-.2 0-.6.4-.9.8zM225.5 570c.3.5.8 1 1.1 1 .2 0 .4-.5.4-1 0-.6-.5-1-1.1-1-.5 0-.7.4-.4 1zM481.9 569.2c-.5 1.8-.6 3.8-.1 3.4.7-.8 1.2-3.6.6-3.6-.2 0-.4.1-.5.2zM487.6 572.5c-.9 2.6-.7 3.2.5 1.2.6-1 .9-2.1.6-2.3-.2-.3-.7.2-1.1 1.1zM221.4 573.8c.4.3 1.4.7 2.2.8.9.1 1.3 0 1-.4-.4-.3-1.4-.7-2.2-.8-.9-.1-1.3 0-1 .4zM545 574.4c0 .2.8 1 1.8 1.7 1.5 1.3 1.6 1.2.3-.4s-2.1-2.1-2.1-1.3zM226 576c-.9.6-1 1-.3 1 .6 0 1.5-.5 1.8-1 .8-1.2.4-1.2-1.5 0zM230.5 576c-.3.6.1.7.9.4 1.8-.7 2.1-1.4.7-1.4-.6 0-1.3.4-1.6 1zM475.5 578c-.3.5-.1 1 .4 1 .6 0 1.1-.5 1.1-1 0-.6-.2-1-.4-1-.3 0-.8.4-1.1 1zM231.9 578.2c-.5 1.8-.6 3.8-.1 3.4.7-.8 1.2-3.6.6-3.6-.2 0-.4.1-.5.2zM220.6 579.8c-.3.5.1.9.9.9s1.2-.4.9-.9c-.3-.4-.7-.8-.9-.8-.2 0-.6.4-.9.8zM237.5 581.9c-.3.5-.2 1.2.3 1.5.5.3.9-.1.9-.9 0-1.7-.3-1.9-1.2-.6zM407.3 583.5c0 .8.4 1.2.9.9.5-.3.6-1 .3-1.5-.9-1.3-1.2-1.1-1.2.6zM234.7 584.1c.7.7 1.5 1 1.8.7.3-.3-.2-.9-1.2-1.2-1.4-.6-1.5-.5-.6.5zM404 584c-.9.6-1 1-.3 1 .6 0 1.5-.5 1.8-1 .8-1.2.4-1.2-1.5 0zM340 586c.8.5 2 1 2.5 1 .6 0 .3-.5-.5-1s-1.9-1-2.5-1c-.5 0-.3.5.5 1zM407.5 586.9c-.3.5-.2 1.2.3 1.5.5.3.9-.1.9-.9 0-1.7-.3-1.9-1.2-.6zM219.5 588c-.3.5-.1 1 .4 1 .6 0 1.1-.5 1.1-1 0-.6-.2-1-.4-1-.3 0-.8.4-1.1 1zM236.6 587.8c-.3.5.1.9.9.9s1.2-.4.9-.9c-.3-.4-.7-.8-.9-.8-.2 0-.6.4-.9.8zM410.6 588.2c.3.5 1 .6 1.5.3 1.3-.9 1.1-1.2-.6-1.2-.8 0-1.2.4-.9.9zM417.5 590c.3.5.8 1 1.1 1 .2 0 .4-.5.4-1 0-.6-.5-1-1.1-1-.5 0-.7.4-.4 1zM275.3 591.3c0 .8.6 1.4 1.4 1.4.9 0 1-.4.2-1.4-.6-.7-1.2-1.3-1.4-1.3-.1 0-.2.6-.2 1.3zM347.6 591.8c-.3.5.1.9.9.9s1.2-.4.9-.9c-.3-.4-.7-.8-.9-.8-.2 0-.6.4-.9.8zM415 591.9c0 .6.4 1.3 1 1.6.6.3.7-.1.4-.9-.7-1.8-1.4-2.1-1.4-.7zM285.6 593.8c-.2.4-.1 1.4.4 2.2.7 1.1.9.9.7-.8-.1-2.4-.3-2.6-1.1-1.4zM293 594.1c0 .5.5.7 1 .4.6-.3 1-.8 1-1.1 0-.2-.4-.4-1-.4-.5 0-1 .5-1 1.1zM347.5 594.9c-.3.5-.2 1.2.3 1.5.5.3.9-.1.9-.9 0-1.7-.3-1.9-1.2-.6zM277.6 597.8c-.3.5.1.9.9.9s1.2-.4.9-.9c-.3-.4-.7-.8-.9-.8-.2 0-.6.4-.9.8zM411.5 598.1c-.3.4.2.6 1 .5 2.1-.3 2.8-1.3 1-1.3-.9 0-1.8.4-2 .8zM417.6 597.8c-.3.5.1.9.9.9s1.2-.4.9-.9c-.3-.4-.7-.8-.9-.8-.2 0-.6.4-.9.8zM431.5 598c.3.5.8 1 1.1 1 .2 0 .4-.5.4-1 0-.6-.5-1-1.1-1-.5 0-.7.4-.4 1zM287 600.3c0 .2.6 1 1.4 1.6 1.1.9 1.6.9 2.2-.1.4-.7.4-1-.1-.6-.4.4-1.4.3-2.2-.3-.7-.6-1.3-.9-1.3-.6zM361.3 601.5c0 .8.4 1.2.9.9.5-.3.6-1 .3-1.5-.9-1.3-1.2-1.1-1.2.6zM349.3 602.5c0 .8.4 1.2.9.9.5-.3.6-1 .3-1.5-.9-1.3-1.2-1.1-1.2.6zM357.5 602c-.3.5-.1 1 .4 1 .6 0 1.1-.5 1.1-1 0-.6-.2-1-.4-1-.3 0-.8.4-1.1 1zM293 604c0 .5.5 1 1.1 1 .5 0 .7-.5.4-1-.3-.6-.8-1-1.1-1-.2 0-.4.4-.4 1zM425.6 604.2c.3.5 1 .6 1.5.3 1.3-.9 1.1-1.2-.6-1.2-.8 0-1.2.4-.9.9zM341.9 605.2c-.5 1.8-.6 3.8-.1 3.4.7-.8 1.2-3.6.6-3.6-.2 0-.4.1-.5.2zM349.6 605.8c-.3.5.1.9.9.9s1.2-.4.9-.9c-.3-.4-.7-.8-.9-.8-.2 0-.6.4-.9.8zM363.5 606c.3.5.8 1 1.1 1 .2 0 .4-.5.4-1 0-.6-.5-1-1.1-1-.5 0-.7.4-.4 1zM345.5 608c-.3.5-.1 1 .4 1 .6 0 1.1-.5 1.1-1 0-.6-.2-1-.4-1-.3 0-.8.4-1.1 1zM419 607.9c0 .6.4 1.3 1 1.6.6.3.7-.1.4-.9-.7-1.8-1.4-2.1-1.4-.7zM426.6 608.2c.3.5 1 .6 1.5.3 1.3-.9 1.1-1.2-.6-1.2-.8 0-1.2.4-.9.9zM367 610c0 .5.5 1 1.1 1 .5 0 .7-.5.4-1-.3-.6-.8-1-1.1-1-.2 0-.4.4-.4 1zM292.5 612c-.3.6.1.7.9.4 1.8-.7 2.1-1.4.7-1.4-.6 0-1.3.4-1.6 1zM347.6 613.3c.3 1 .9 1.5 1.2 1.2.3-.3 0-1.1-.7-1.8-1-.9-1.1-.8-.5.6zM500.6 616.2c.3.5 1 .6 1.5.3 1.3-.9 1.1-1.2-.6-1.2-.8 0-1.2.4-.9.9zM423 618.4c0 .2.8 1 1.8 1.7 1.5 1.3 1.6 1.2.3-.4s-2.1-2.1-2.1-1.3zM347 620.1c0 .5.5.7 1 .4.6-.3 1-.8 1-1.1 0-.2-.4-.4-1-.4-.5 0-1 .5-1 1.1zM362.6 647.8c-.3.5.1.9.9.9s1.5-.4 1.5-.9c0-.4-.4-.8-.9-.8-.6 0-1.2.4-1.5.8z"/></svg>