<svg width="234" height="68" viewBox="0 0 234 68" fill="none" xmlns="http://www.w3.org/2000/svg">
<path d="M27.8902 5.78492C31.7454 -0.994727 41.3833 -0.994708 45.2385 5.78494L71.7718 52.446C75.627 59.2256 70.808 67.7002 63.0977 67.7002L10.031 67.7002C2.32062 67.7002 -2.49834 59.2256 1.35684 52.446L27.8902 5.78492Z" fill="#4C49E4"/>
<path d="M35.4856 17.2435C39.1105 10.8531 48.173 10.8531 51.798 17.2435L72.2636 53.3216C75.8886 59.712 71.3573 67.6999 64.1074 67.6999H23.1762C15.9262 67.6999 11.395 59.712 15.02 53.3216L35.4856 17.2435Z" fill="#3376E7"/>
<path d="M46.7255 28.5641C49.4115 23.8471 56.1265 23.8471 58.8126 28.5641L75.0546 57.087C77.7406 61.804 74.3831 67.7002 69.011 67.7002H36.527C31.1549 67.7002 27.7974 61.804 30.4834 57.087L46.7255 28.5641Z" fill="#26F3A8"/>
<path d="M98.0091 52.5807C107.712 52.5807 112.019 48.4687 112.019 42.4919C112.019 36.3717 107.564 33.6462 101.128 32.3552L96.4249 31.399C93.0585 30.6817 91.9693 29.4386 91.9693 27.7173C91.9693 25.6612 93.801 24.1312 97.9595 24.1312C102.415 24.1312 104.346 26.2828 104.544 28.8648H111.425C111.376 22.6011 105.831 18.25 98.0586 18.25C90.0386 18.25 84.989 22.0752 84.989 27.7173C84.989 33.7897 89.2465 36.2282 95.2367 37.4714L100.286 38.5233C103.554 39.1927 105.039 40.3881 105.039 42.6353C105.039 45.1695 102.96 46.7474 98.0091 46.7474C93.7515 46.7474 91.0287 44.8826 90.7317 41.1053H83.8503C84.1969 48.0384 88.999 52.5807 98.0091 52.5807Z" fill="white"/>
<path d="M114.76 63.0999H121.394V49.4728H121.592C122.879 51.0985 125.008 52.5807 128.721 52.5807C135.404 52.5807 139.265 47.1299 139.265 39.7665C139.265 32.1162 135.206 26.8566 128.721 26.8566C125.008 26.8566 122.879 28.3388 121.592 29.9645H121.394L120.701 27.2869H114.76V63.0999ZM126.839 46.9386C122.631 46.9386 121.146 43.6395 121.146 39.7665C121.146 35.8457 122.73 32.4987 126.839 32.4987C131.047 32.4987 132.533 35.8457 132.533 39.7665C132.533 43.6395 131.097 46.9386 126.839 46.9386Z" fill="white"/>
<path d="M141.91 52.1504H148.197V39.9577C148.197 35.4632 150.474 32.8334 154.435 32.8334H156.762V26.9044H154.881C151.613 26.9044 149.336 28.7214 148.197 31.0643H147.999L147.504 27.2869H141.91V52.1504Z" fill="white"/>
<path d="M175.287 27.2869V41.4878C175.287 44.6436 173.901 46.6039 170.534 46.6039C167.118 46.6039 165.732 44.6436 165.732 41.4878V27.2869H159.098V42.4919C159.098 47.8471 162.663 52.5807 170.485 52.5807H170.534C178.307 52.5807 181.921 47.8471 181.921 42.4919V27.2869H175.287Z" fill="white"/>
<path d="M197.051 52.5807C204.328 52.5807 208.091 48.3731 208.487 42.7788H201.804C201.507 45.2651 199.774 46.9386 196.902 46.9386C193.14 46.9386 191.259 44.4045 191.259 39.7187C191.259 35.0807 193.14 32.4987 196.902 32.4987C199.724 32.4987 201.507 34.22 201.754 36.7542H208.437C208.091 31.2077 204.328 26.8566 196.902 26.8566C188.833 26.8566 184.476 32.164 184.476 39.7187C184.476 47.369 188.982 52.5807 197.051 52.5807Z" fill="white"/>
<path d="M222.119 52.5807C228.752 52.5807 232.96 48.899 233.653 44.4045H227.168C226.673 45.9345 225.089 47.2733 222.119 47.2733C218.307 47.2733 216.524 44.8826 216.475 41.4878H234V39.0015C234 32.2118 229.693 26.8566 222.02 26.8566C213.752 26.8566 209.693 32.69 209.693 39.7665C209.693 46.9386 214.148 52.5807 222.119 52.5807ZM216.524 37.2323C216.673 34.4113 218.307 32.2118 222.02 32.2118C225.485 32.2118 227.119 34.4113 227.218 37.2323H216.524Z" fill="white"/>
</svg>
