<?xml version="1.0" encoding="UTF-8"?>
<!DOCTYPE svg PUBLIC "-//W3C//DTD SVG 1.1//EN" "http://www.w3.org/Graphics/SVG/1.1/DTD/svg11.dtd">
<svg version="1.2" width="110mm" height="75mm" viewBox="0 0 11000 7500" preserveAspectRatio="xMidYMid" fill-rule="evenodd" stroke-width="28.222" stroke-linejoin="round" xmlns="http://www.w3.org/2000/svg" xmlns:ooo="http://xml.openoffice.org/svg/export" xmlns:xlink="http://www.w3.org/1999/xlink" xmlns:presentation="http://sun.com/xmlns/staroffice/presentation" xmlns:smil="http://www.w3.org/2001/SMIL20/" xmlns:anim="urn:oasis:names:tc:opendocument:xmlns:animation:1.0" xml:space="preserve">
 <defs class="ClipPathGroup">
  <clipPath id="presentation_clip_path" clipPathUnits="userSpaceOnUse">
   <rect x="0" y="0" width="11000" height="7500"/>
  </clipPath>
  <clipPath id="presentation_clip_path_shrink" clipPathUnits="userSpaceOnUse">
   <rect x="11" y="7" width="10978" height="7485"/>
  </clipPath>
 </defs>
 <defs class="TextShapeIndex">
  <g ooo:slide="id1" ooo:id-list="id3 id4 id5 id6 id7 id8 id9 id10 id11 id12 id13 id14 id15 id16 id17 id18 id19 id20 id21 id22 id23 id24 id25 id26 id27 id28 id29 id30 id31 id32 id33 id34 id35 id36 id37 id38 id39 id40 id41 id42 id43 id44 id45 id46 id47 id48 id49 id50 id51 id52 id53"/>
 </defs>
 <defs class="EmbeddedBulletChars">
  <g id="bullet-char-template-57356" transform="scale(0.00048828125,-0.00048828125)">
   <path d="M 580,1141 L 1163,571 580,0 -4,571 580,1141 Z"/>
  </g>
  <g id="bullet-char-template-57354" transform="scale(0.00048828125,-0.00048828125)">
   <path d="M 8,1128 L 1137,1128 1137,0 8,0 8,1128 Z"/>
  </g>
  <g id="bullet-char-template-10146" transform="scale(0.00048828125,-0.00048828125)">
   <path d="M 174,0 L 602,739 174,1481 1456,739 174,0 Z M 1358,739 L 309,1346 659,739 1358,739 Z"/>
  </g>
  <g id="bullet-char-template-10132" transform="scale(0.00048828125,-0.00048828125)">
   <path d="M 2015,739 L 1276,0 717,0 1260,543 174,543 174,936 1260,936 717,1481 1274,1481 2015,739 Z"/>
  </g>
  <g id="bullet-char-template-10007" transform="scale(0.00048828125,-0.00048828125)">
   <path d="M 0,-2 C -7,14 -16,27 -25,37 L 356,567 C 262,823 215,952 215,954 215,979 228,992 255,992 264,992 276,990 289,987 310,991 331,999 354,1012 L 381,999 492,748 772,1049 836,1024 860,1049 C 881,1039 901,1025 922,1006 886,937 835,863 770,784 769,783 710,716 594,584 L 774,223 C 774,196 753,168 711,139 L 727,119 C 717,90 699,76 672,76 641,76 570,178 457,381 L 164,-76 C 142,-110 111,-127 72,-127 30,-127 9,-110 8,-76 1,-67 -2,-52 -2,-32 -2,-23 -1,-13 0,-2 Z"/>
  </g>
  <g id="bullet-char-template-10004" transform="scale(0.00048828125,-0.00048828125)">
   <path d="M 285,-33 C 182,-33 111,30 74,156 52,228 41,333 41,471 41,549 55,616 82,672 116,743 169,778 240,778 293,778 328,747 346,684 L 369,508 C 377,444 397,411 428,410 L 1163,1116 C 1174,1127 1196,1133 1229,1133 1271,1133 1292,1118 1292,1087 L 1292,965 C 1292,929 1282,901 1262,881 L 442,47 C 390,-6 338,-33 285,-33 Z"/>
  </g>
  <g id="bullet-char-template-9679" transform="scale(0.00048828125,-0.00048828125)">
   <path d="M 813,0 C 632,0 489,54 383,161 276,268 223,411 223,592 223,773 276,916 383,1023 489,1130 632,1184 813,1184 992,1184 1136,1130 1245,1023 1353,916 1407,772 1407,592 1407,412 1353,268 1245,161 1136,54 992,0 813,0 Z"/>
  </g>
  <g id="bullet-char-template-8226" transform="scale(0.00048828125,-0.00048828125)">
   <path d="M 346,457 C 273,457 209,483 155,535 101,586 74,649 74,723 74,796 101,859 155,911 209,963 273,989 346,989 419,989 480,963 531,910 582,859 608,796 608,723 608,648 583,586 532,535 482,483 420,457 346,457 Z"/>
  </g>
  <g id="bullet-char-template-8211" transform="scale(0.00048828125,-0.00048828125)">
   <path d="M -4,459 L 1135,459 1135,606 -4,606 -4,459 Z"/>
  </g>
  <g id="bullet-char-template-61548" transform="scale(0.00048828125,-0.00048828125)">
   <path d="M 173,740 C 173,903 231,1043 346,1159 462,1274 601,1332 765,1332 928,1332 1067,1274 1183,1159 1299,1043 1357,903 1357,740 1357,577 1299,437 1183,322 1067,206 928,148 765,148 601,148 462,206 346,322 231,437 173,577 173,740 Z"/>
  </g>
 </defs>
 <g>
  <g id="id2" class="Master_Slide">
   <g id="bg-id2" class="Background"/>
   <g id="bo-id2" class="BackgroundObjects"/>
  </g>
 </g>
 <g class="SlideGroup">
  <g>
   <g id="container-id1">
    <g id="id1" class="Slide" clip-path="url(#presentation_clip_path)">
     <g class="Page">
      <g class="Group">
       <g class="Graphic">
        <g id="id3">
         <rect class="BoundingBox" stroke="none" fill="none" x="428" y="6613" width="418" height="336"/>
         <defs>
          <clipPath id="clip_path_1" clipPathUnits="userSpaceOnUse">
           <path d="M 428,6613 L 845,6613 845,6948 428,6948 428,6613 Z"/>
          </clipPath>
         </defs>
         <g clip-path="url(#clip_path_1)">
          <path fill="rgb(0,0,0)" stroke="none" d="M 666,6746 L 624,6649 C 623,6645 622,6643 622,6642 622,6639 630,6630 651,6628 656,6628 661,6627 661,6619 661,6613 655,6613 653,6613 633,6613 612,6614 592,6614 579,6614 549,6613 537,6613 534,6613 528,6613 528,6623 528,6628 533,6628 539,6628 569,6628 572,6633 576,6644 L 634,6781 530,6892 524,6897 C 500,6923 477,6931 452,6933 446,6933 441,6933 441,6943 441,6943 441,6948 448,6948 462,6948 478,6947 494,6947 512,6947 531,6948 549,6948 551,6948 557,6948 557,6938 557,6933 552,6933 551,6933 547,6932 532,6931 532,6918 532,6910 539,6902 545,6896 L 595,6843 639,6794 689,6912 C 691,6917 691,6918 691,6919 691,6922 682,6931 663,6933 657,6933 653,6934 653,6942 653,6948 658,6948 660,6948 674,6948 708,6947 722,6947 734,6947 764,6948 776,6948 780,6948 786,6948 786,6939 786,6933 781,6933 777,6933 744,6932 743,6931 735,6911 716,6866 683,6789 672,6760 705,6725 756,6667 772,6653 786,6641 805,6630 834,6628 841,6628 845,6628 845,6618 845,6618 845,6613 839,6613 824,6613 808,6614 793,6614 774,6614 756,6613 738,6613 735,6613 729,6613 729,6623 729,6626 731,6628 735,6628 739,6629 754,6630 754,6643 754,6650 749,6657 745,6661 L 666,6746 666,6746 Z"/>
         </g>
        </g>
       </g>
      </g>
      <g class="Group">
       <g class="Graphic">
        <g id="id4">
         <rect class="BoundingBox" stroke="none" fill="none" x="430" y="515" width="418" height="466"/>
         <defs>
          <clipPath id="clip_path_2" clipPathUnits="userSpaceOnUse">
           <path d="M 430,515 L 847,515 847,980 430,980 430,515 Z"/>
          </clipPath>
         </defs>
         <g clip-path="url(#clip_path_2)">
          <path fill="rgb(0,0,0)" stroke="none" d="M 693,515 L 627,582 636,591 693,541 749,591 758,582 693,515 693,515 Z"/>
          <path fill="rgb(0,0,0)" stroke="none" d="M 668,778 L 626,680 C 625,676 624,675 624,674 624,671 632,662 653,660 658,659 663,659 663,650 663,645 657,645 655,645 635,645 614,646 594,646 581,646 551,645 539,645 536,645 530,645 530,654 530,660 535,660 541,660 571,660 574,665 578,675 L 636,813 532,924 526,929 C 502,955 479,963 454,965 448,965 443,965 443,975 443,975 443,980 450,980 464,980 480,979 496,979 514,979 533,980 551,980 553,980 559,980 559,970 559,965 554,965 553,965 549,964 534,963 534,950 534,942 541,934 547,927 L 597,874 641,826 691,944 C 693,949 693,950 693,951 693,954 684,963 665,965 659,965 655,966 655,974 655,980 660,980 662,980 676,980 710,979 724,979 736,979 766,980 778,980 782,980 788,980 788,971 788,965 783,965 779,965 746,964 745,963 737,943 718,897 685,821 674,791 707,757 758,699 774,685 788,673 807,661 836,660 843,659 847,659 847,650 847,649 847,645 841,645 826,645 810,646 795,646 776,646 758,645 740,645 737,645 731,645 731,654 731,658 733,659 737,660 741,660 756,661 756,675 756,682 751,688 747,693 L 668,778 668,778 Z"/>
         </g>
        </g>
       </g>
      </g>
      <g class="Group">
       <g class="Graphic">
        <g id="id5">
         <rect class="BoundingBox" stroke="none" fill="none" x="432" y="3717" width="434" height="336"/>
         <defs>
          <clipPath id="clip_path_3" clipPathUnits="userSpaceOnUse">
           <path d="M 432,3717 L 865,3717 865,4052 432,4052 432,3717 Z"/>
          </clipPath>
         </defs>
         <g clip-path="url(#clip_path_3)">
          <path fill="rgb(0,0,0)" stroke="none" d="M 807,3755 C 811,3737 812,3732 848,3732 861,3732 865,3732 865,3722 865,3717 860,3717 858,3717 844,3717 809,3718 795,3718 781,3718 746,3717 732,3717 728,3717 722,3717 722,3727 722,3732 727,3732 736,3732 737,3732 747,3732 755,3733 764,3734 768,3735 768,3741 768,3743 768,3744 766,3750 L 737,3870 587,3870 616,3755 C 620,3737 622,3732 657,3732 670,3732 674,3732 674,3722 674,3717 668,3717 667,3717 653,3717 618,3718 604,3718 590,3718 555,3717 541,3717 537,3717 531,3717 531,3727 531,3732 536,3732 545,3732 546,3732 555,3732 564,3733 573,3734 577,3735 577,3741 577,3743 576,3744 575,3750 L 509,4014 C 504,4033 503,4037 464,4037 456,4037 451,4037 451,4047 451,4052 457,4052 458,4052 472,4052 507,4051 520,4051 531,4051 542,4051 552,4051 563,4051 574,4052 584,4052 588,4052 594,4052 594,4042 594,4037 589,4037 580,4037 562,4037 548,4037 548,4028 548,4025 549,4023 549,4020 L 583,3885 733,3885 C 712,3967 701,4013 699,4021 694,4036 685,4037 654,4037 647,4037 642,4037 642,4047 642,4052 648,4052 649,4052 663,4052 698,4051 712,4051 722,4051 733,4051 743,4051 754,4051 765,4052 775,4052 779,4052 785,4052 785,4042 785,4037 780,4037 771,4037 753,4037 739,4037 739,4028 739,4025 740,4023 741,4020 L 807,3755 807,3755 Z"/>
         </g>
        </g>
       </g>
      </g>
      <g class="Group">
       <g class="Graphic">
        <g id="id6">
         <rect class="BoundingBox" stroke="none" fill="none" x="1914" y="3556" width="483" height="452"/>
         <path fill="rgb(0,0,0)" stroke="none" d="M 2073,3580 C 2073,3579 2073,3574 2067,3574 2056,3574 2020,3578 2007,3579 2003,3580 1998,3580 1998,3589 1998,3595 2002,3595 2009,3595 2033,3595 2034,3599 2034,3603 L 2033,3613 1961,3896 C 1959,3903 1959,3904 1959,3907 1959,3918 1969,3920 1974,3920 1982,3920 1989,3914 1992,3908 L 2001,3870 2012,3826 C 2015,3815 2018,3805 2020,3793 2021,3790 2025,3774 2026,3771 2027,3767 2042,3739 2059,3726 2070,3718 2085,3709 2106,3709 2127,3709 2133,3726 2133,3743 2133,3770 2114,3823 2102,3853 2098,3864 2096,3870 2096,3880 2096,3903 2113,3920 2136,3920 2182,3920 2200,3849 2200,3845 2200,3840 2196,3840 2194,3840 2190,3840 2190,3841 2187,3849 2180,3875 2164,3910 2137,3910 2129,3910 2125,3905 2125,3893 2125,3881 2130,3869 2134,3859 2142,3837 2164,3779 2164,3751 2164,3719 2144,3698 2108,3698 2077,3698 2053,3713 2035,3736 L 2073,3580 2073,3580 Z"/>
         <path fill="rgb(0,0,0)" stroke="none" d="M 2330,3770 C 2330,3761 2329,3761 2320,3761 2298,3782 2267,3782 2253,3782 L 2253,3795 C 2261,3795 2283,3795 2302,3785 L 2302,3960 C 2302,3972 2302,3976 2268,3976 L 2255,3976 2255,3989 C 2261,3988 2303,3987 2316,3987 2327,3987 2370,3988 2378,3989 L 2378,3976 2364,3976 C 2330,3976 2330,3972 2330,3960 L 2330,3770 2330,3770 Z"/>
        </g>
       </g>
      </g>
      <g class="Group">
       <g class="Graphic">
        <g id="id7">
         <rect class="BoundingBox" stroke="none" fill="none" x="3926" y="3593" width="457" height="415"/>
         <defs>
          <clipPath id="clip_path_4" clipPathUnits="userSpaceOnUse">
           <path d="M 3926,3593 L 4382,3593 4382,4007 3926,4007 3926,3593 Z"/>
          </clipPath>
         </defs>
         <g clip-path="url(#clip_path_4)">
          <path fill="rgb(0,0,0)" stroke="none" d="M 4067,3598 C 4067,3598 4067,3593 4060,3593 4049,3593 4013,3597 4001,3598 3997,3598 3991,3599 3991,3608 3991,3614 3996,3614 4003,3614 4027,3614 4028,3617 4028,3622 L 4026,3632 3955,3914 C 3953,3921 3953,3922 3953,3925 3953,3936 3963,3939 3967,3939 3975,3939 3983,3933 3985,3926 L 3995,3889 4005,3845 C 4008,3834 4011,3823 4014,3812 4015,3809 4019,3793 4019,3790 4021,3785 4036,3758 4053,3745 4063,3737 4079,3727 4100,3727 4121,3727 4126,3744 4126,3762 4126,3788 4107,3842 4096,3872 4092,3883 4089,3889 4089,3899 4089,3922 4107,3939 4130,3939 4176,3939 4194,3867 4194,3863 4194,3858 4189,3858 4188,3858 4183,3858 4183,3860 4181,3867 4173,3893 4158,3928 4131,3928 4122,3928 4119,3923 4119,3912 4119,3900 4123,3888 4128,3877 4135,3856 4158,3798 4158,3769 4158,3737 4138,3717 4101,3717 4070,3717 4047,3732 4029,3754 L 4067,3598 4067,3598 Z"/>
          <path fill="rgb(0,0,0)" stroke="none" d="M 4382,3945 L 4370,3945 C 4369,3952 4366,3972 4361,3976 4359,3978 4332,3978 4327,3978 L 4264,3978 C 4300,3946 4312,3936 4333,3920 4358,3900 4382,3879 4382,3846 4382,3804 4346,3779 4302,3779 4259,3779 4230,3809 4230,3840 4230,3858 4245,3860 4248,3860 4257,3860 4267,3854 4267,3841 4267,3835 4264,3823 4246,3823 4257,3799 4280,3791 4297,3791 4331,3791 4349,3818 4349,3846 4349,3876 4327,3900 4316,3912 L 4234,3994 C 4230,3997 4230,3997 4230,4007 L 4372,4007 4382,3945 4382,3945 Z"/>
         </g>
        </g>
       </g>
      </g>
      <g class="Group">
       <g class="Graphic">
        <g id="id8">
         <rect class="BoundingBox" stroke="none" fill="none" x="5933" y="3549" width="497" height="459"/>
         <path fill="rgb(0,0,0)" stroke="none" d="M 6092,3573 C 6092,3572 6092,3567 6086,3567 6075,3567 6039,3571 6026,3572 6022,3573 6017,3573 6017,3582 6017,3588 6021,3588 6028,3588 6052,3588 6053,3592 6053,3596 L 6052,3606 5980,3889 C 5978,3896 5978,3897 5978,3900 5978,3911 5988,3913 5993,3913 6001,3913 6008,3908 6011,3901 L 6020,3863 6031,3819 C 6034,3808 6037,3798 6039,3786 6040,3783 6044,3767 6045,3764 6046,3760 6061,3732 6078,3719 6089,3711 6104,3702 6125,3702 6146,3702 6152,3719 6152,3736 6152,3763 6133,3816 6121,3846 6117,3858 6115,3863 6115,3873 6115,3896 6132,3913 6155,3913 6201,3913 6219,3842 6219,3838 6219,3833 6215,3833 6213,3833 6208,3833 6208,3834 6206,3842 6199,3868 6183,3903 6156,3903 6148,3903 6144,3898 6144,3886 6144,3874 6149,3862 6153,3852 6161,3831 6183,3772 6183,3744 6183,3712 6163,3691 6127,3691 6096,3691 6072,3706 6054,3729 L 6092,3573 6092,3573 Z"/>
         <path fill="rgb(0,0,0)" stroke="none" d="M 6328,3867 C 6355,3867 6374,3885 6374,3922 6374,3965 6349,3978 6329,3978 6315,3978 6285,3974 6271,3953 6287,3953 6291,3941 6291,3934 6291,3923 6282,3915 6272,3915 6262,3915 6253,3921 6253,3935 6253,3968 6288,3989 6330,3989 6378,3989 6411,3957 6411,3922 6411,3895 6389,3869 6351,3861 6387,3848 6400,3822 6400,3801 6400,3774 6369,3754 6331,3754 6292,3754 6263,3772 6263,3800 6263,3811 6271,3818 6281,3818 6292,3818 6299,3810 6299,3800 6299,3790 6292,3783 6281,3782 6293,3767 6317,3764 6330,3764 6345,3764 6367,3771 6367,3801 6367,3815 6362,3831 6353,3842 6342,3855 6332,3856 6315,3857 6306,3857 6305,3857 6304,3858 6303,3858 6300,3858 6300,3862 6300,3867 6303,3867 6309,3867 L 6328,3867 6328,3867 Z"/>
        </g>
       </g>
      </g>
      <g class="Group">
       <g class="Graphic">
        <g id="id9">
         <rect class="BoundingBox" stroke="none" fill="none" x="7928" y="3577" width="466" height="415"/>
         <defs>
          <clipPath id="clip_path_5" clipPathUnits="userSpaceOnUse">
           <path d="M 7928,3577 L 8393,3577 8393,3991 7928,3991 7928,3577 Z"/>
          </clipPath>
         </defs>
         <g clip-path="url(#clip_path_5)">
          <path fill="rgb(0,0,0)" stroke="none" d="M 8069,3582 C 8069,3582 8069,3577 8063,3577 8051,3577 8015,3581 8003,3582 7999,3582 7993,3583 7993,3592 7993,3598 7998,3598 8005,3598 8029,3598 8030,3601 8030,3606 L 8028,3616 7957,3898 C 7955,3905 7955,3906 7955,3909 7955,3920 7965,3923 7969,3923 7977,3923 7985,3917 7987,3910 L 7997,3873 8008,3829 C 8011,3818 8013,3807 8016,3796 8017,3793 8021,3777 8021,3774 8023,3769 8038,3742 8055,3729 8066,3721 8081,3711 8102,3711 8123,3711 8128,3728 8128,3746 8128,3772 8110,3826 8098,3856 8094,3867 8092,3873 8092,3883 8092,3906 8109,3923 8132,3923 8178,3923 8196,3851 8196,3847 8196,3842 8192,3842 8190,3842 8185,3842 8185,3844 8183,3851 8176,3877 8160,3912 8133,3912 8125,3912 8121,3907 8121,3896 8121,3884 8126,3872 8130,3861 8138,3840 8160,3782 8160,3753 8160,3721 8140,3701 8103,3701 8072,3701 8049,3716 8031,3738 L 8069,3582 8069,3582 Z"/>
          <path fill="rgb(0,0,0)" stroke="none" d="M 8393,3935 L 8393,3922 8355,3922 8355,3769 C 8355,3762 8355,3760 8347,3760 8343,3760 8342,3760 8338,3764 L 8224,3922 8224,3935 8326,3935 8326,3963 C 8326,3975 8326,3979 8298,3979 L 8288,3979 8288,3991 C 8306,3990 8328,3990 8340,3990 8353,3990 8375,3990 8392,3991 L 8392,3979 8383,3979 C 8355,3979 8355,3975 8355,3963 L 8355,3935 8393,3935 8393,3935 Z M 8328,3797 L 8328,3922 8237,3922 8328,3797 8328,3797 Z"/>
         </g>
        </g>
       </g>
      </g>
      <g class="com.sun.star.drawing.ConnectorShape">
       <g id="id10">
        <rect class="BoundingBox" stroke="none" fill="none" x="2137" y="4256" width="1015" height="2015"/>
        <path fill="none" stroke="rgb(51,51,51)" stroke-width="14" stroke-linejoin="round" d="M 3144,6263 L 2144,4263"/>
       </g>
      </g>
      <g class="com.sun.star.drawing.ConnectorShape">
       <g id="id11">
        <rect class="BoundingBox" stroke="none" fill="none" x="2137" y="4256" width="3016" height="2016"/>
        <path fill="none" stroke="rgb(51,51,51)" stroke-width="14" stroke-linejoin="round" d="M 5145,6264 L 2144,4263"/>
       </g>
      </g>
      <g class="com.sun.star.drawing.ConnectorShape">
       <g id="id12">
        <rect class="BoundingBox" stroke="none" fill="none" x="2138" y="4257" width="5016" height="2016"/>
        <path fill="none" stroke="rgb(51,51,51)" stroke-width="14" stroke-linejoin="round" d="M 7146,6265 L 2145,4264"/>
       </g>
      </g>
      <g class="com.sun.star.drawing.ConnectorShape">
       <g id="id13">
        <rect class="BoundingBox" stroke="none" fill="none" x="4138" y="4257" width="3017" height="2017"/>
        <path fill="none" stroke="rgb(51,51,51)" stroke-width="14" stroke-linejoin="round" d="M 7147,6266 L 4145,4264"/>
       </g>
      </g>
      <g class="com.sun.star.drawing.ConnectorShape">
       <g id="id14">
        <rect class="BoundingBox" stroke="none" fill="none" x="4138" y="4257" width="1015" height="2015"/>
        <path fill="none" stroke="rgb(51,51,51)" stroke-width="14" stroke-linejoin="round" d="M 5145,6264 L 4145,4264"/>
       </g>
      </g>
      <g class="com.sun.star.drawing.ConnectorShape">
       <g id="id15">
        <rect class="BoundingBox" stroke="none" fill="none" x="3137" y="4257" width="1016" height="2014"/>
        <path fill="none" stroke="rgb(51,51,51)" stroke-width="14" stroke-linejoin="round" d="M 3144,6263 L 4145,4264"/>
       </g>
      </g>
      <g class="com.sun.star.drawing.ConnectorShape">
       <g id="id16">
        <rect class="BoundingBox" stroke="none" fill="none" x="3138" y="4258" width="3016" height="2014"/>
        <path fill="none" stroke="rgb(51,51,51)" stroke-width="14" stroke-linejoin="round" d="M 3145,6264 L 6146,4265"/>
       </g>
      </g>
      <g class="com.sun.star.drawing.ConnectorShape">
       <g id="id17">
        <rect class="BoundingBox" stroke="none" fill="none" x="5138" y="4259" width="1017" height="2013"/>
        <path fill="none" stroke="rgb(51,51,51)" stroke-width="14" stroke-linejoin="round" d="M 5145,6264 L 6147,4266"/>
       </g>
      </g>
      <g class="com.sun.star.drawing.ConnectorShape">
       <g id="id18">
        <rect class="BoundingBox" stroke="none" fill="none" x="6140" y="4259" width="1015" height="2015"/>
        <path fill="none" stroke="rgb(51,51,51)" stroke-width="14" stroke-linejoin="round" d="M 7147,6266 L 6147,4266"/>
       </g>
      </g>
      <g class="com.sun.star.drawing.ConnectorShape">
       <g id="id19">
        <rect class="BoundingBox" stroke="none" fill="none" x="7140" y="4259" width="1015" height="2015"/>
        <path fill="none" stroke="rgb(51,51,51)" stroke-width="14" stroke-linejoin="round" d="M 7147,6266 L 8147,4266"/>
       </g>
      </g>
      <g class="com.sun.star.drawing.ConnectorShape">
       <g id="id20">
        <rect class="BoundingBox" stroke="none" fill="none" x="5138" y="4259" width="3017" height="2013"/>
        <path fill="none" stroke="rgb(51,51,51)" stroke-width="14" stroke-linejoin="round" d="M 5145,6264 L 8147,4266"/>
       </g>
      </g>
      <g class="com.sun.star.drawing.ConnectorShape">
       <g id="id21">
        <rect class="BoundingBox" stroke="none" fill="none" x="3138" y="4259" width="5017" height="2013"/>
        <path fill="none" stroke="rgb(51,51,51)" stroke-width="14" stroke-linejoin="round" d="M 3145,6264 L 8147,4266"/>
       </g>
      </g>
      <g class="com.sun.star.drawing.ConnectorShape">
       <g id="id22">
        <rect class="BoundingBox" stroke="none" fill="none" x="3136" y="1255" width="5019" height="2019"/>
        <path fill="none" stroke="rgb(51,51,51)" stroke-width="14" stroke-linejoin="round" d="M 8147,3266 L 3143,1262"/>
       </g>
      </g>
      <g class="com.sun.star.drawing.ConnectorShape">
       <g id="id23">
        <rect class="BoundingBox" stroke="none" fill="none" x="3137" y="1256" width="1016" height="2016"/>
        <path fill="none" stroke="rgb(51,51,51)" stroke-width="14" stroke-linejoin="round" d="M 4145,3264 L 3144,1263"/>
       </g>
      </g>
      <g class="com.sun.star.drawing.ConnectorShape">
       <g id="id24">
        <rect class="BoundingBox" stroke="none" fill="none" x="3138" y="1257" width="3016" height="2016"/>
        <path fill="none" stroke="rgb(51,51,51)" stroke-width="14" stroke-linejoin="round" d="M 6146,3265 L 3145,1264"/>
       </g>
      </g>
      <g class="com.sun.star.drawing.ConnectorShape">
       <g id="id25">
        <rect class="BoundingBox" stroke="none" fill="none" x="2137" y="1255" width="1014" height="2016"/>
        <path fill="none" stroke="rgb(51,51,51)" stroke-width="14" stroke-linejoin="round" d="M 2144,3263 L 3143,1262"/>
       </g>
      </g>
      <g class="com.sun.star.drawing.ConnectorShape">
       <g id="id26">
        <rect class="BoundingBox" stroke="none" fill="none" x="2138" y="1256" width="3014" height="2016"/>
        <path fill="none" stroke="rgb(51,51,51)" stroke-width="14" stroke-linejoin="round" d="M 2145,3264 L 5144,1263"/>
       </g>
      </g>
      <g class="com.sun.star.drawing.ConnectorShape">
       <g id="id27">
        <rect class="BoundingBox" stroke="none" fill="none" x="4138" y="1257" width="1015" height="2015"/>
        <path fill="none" stroke="rgb(51,51,51)" stroke-width="14" stroke-linejoin="round" d="M 4145,3264 L 5145,1264"/>
       </g>
      </g>
      <g class="com.sun.star.drawing.ConnectorShape">
       <g id="id28">
        <rect class="BoundingBox" stroke="none" fill="none" x="5138" y="1257" width="1016" height="2016"/>
        <path fill="none" stroke="rgb(51,51,51)" stroke-width="14" stroke-linejoin="round" d="M 6146,3265 L 5145,1264"/>
       </g>
      </g>
      <g class="com.sun.star.drawing.ConnectorShape">
       <g id="id29">
        <rect class="BoundingBox" stroke="none" fill="none" x="5139" y="1258" width="3016" height="2016"/>
        <path fill="none" stroke="rgb(51,51,51)" stroke-width="14" stroke-linejoin="round" d="M 8147,3266 L 5146,1265"/>
       </g>
      </g>
      <g class="com.sun.star.drawing.ConnectorShape">
       <g id="id30">
        <rect class="BoundingBox" stroke="none" fill="none" x="7138" y="1257" width="1018" height="2018"/>
        <path fill="none" stroke="rgb(51,51,51)" stroke-width="14" stroke-linejoin="round" d="M 8148,3267 L 7145,1264"/>
       </g>
      </g>
      <g class="com.sun.star.drawing.ConnectorShape">
       <g id="id31">
        <rect class="BoundingBox" stroke="none" fill="none" x="6139" y="1258" width="1015" height="2015"/>
        <path fill="none" stroke="rgb(51,51,51)" stroke-width="14" stroke-linejoin="round" d="M 6146,3265 L 7146,1265"/>
       </g>
      </g>
      <g class="com.sun.star.drawing.ConnectorShape">
       <g id="id32">
        <rect class="BoundingBox" stroke="none" fill="none" x="4138" y="1258" width="3016" height="2014"/>
        <path fill="none" stroke="rgb(51,51,51)" stroke-width="14" stroke-linejoin="round" d="M 4145,3264 L 7146,1265"/>
       </g>
      </g>
      <g class="com.sun.star.drawing.ConnectorShape">
       <g id="id33">
        <rect class="BoundingBox" stroke="none" fill="none" x="2138" y="1259" width="5017" height="2013"/>
        <path fill="none" stroke="rgb(51,51,51)" stroke-width="14" stroke-linejoin="round" d="M 2145,3264 L 7147,1266"/>
       </g>
      </g>
      <g class="com.sun.star.drawing.CustomShape">
       <g id="id34">
        <rect class="BoundingBox" stroke="none" fill="none" x="8955" y="1128" width="284" height="2189"/>
        <path fill="none" stroke="rgb(51,51,51)" stroke-width="28" stroke-linejoin="round" d="M 8969,1142 C 9032,1142 9096,1215 9096,1288 L 9096,2091 C 9096,2164 9160,2237 9224,2237 9160,2237 9096,2310 9096,2383 L 9096,3156 C 9096,3229 9032,3302 8969,3302"/>
       </g>
      </g>
      <g class="com.sun.star.drawing.CustomShape">
       <g id="id35">
        <rect class="BoundingBox" stroke="none" fill="none" x="8956" y="4228" width="284" height="2189"/>
        <path fill="none" stroke="rgb(51,51,51)" stroke-width="28" stroke-linejoin="round" d="M 8970,4242 C 9033,4242 9097,4315 9097,4388 L 9097,5191 C 9097,5264 9161,5337 9225,5337 9161,5337 9097,5410 9097,5483 L 9097,6256 C 9097,6329 9033,6402 8970,6402"/>
       </g>
      </g>
      <g class="Group">
       <g class="Graphic">
        <g id="id36">
         <rect class="BoundingBox" stroke="none" fill="none" x="9533" y="2119" width="943" height="478"/>
         <path fill="rgb(0,0,0)" stroke="none" d="M 9860,2204 C 9884,2166 9904,2164 9923,2163 9929,2163 9929,2155 9929,2154 9929,2150 9927,2148 9923,2148 9910,2148 9896,2150 9882,2150 9866,2150 9850,2148 9834,2148 9831,2148 9824,2148 9824,2158 9824,2163 9829,2163 9832,2163 9846,2164 9855,2169 9855,2180 9855,2187 9848,2198 9848,2198 L 9697,2437 9663,2178 C 9663,2170 9675,2163 9697,2163 9704,2163 9710,2163 9710,2154 9710,2149 9706,2148 9703,2148 9683,2148 9662,2150 9642,2150 9633,2150 9624,2149 9615,2149 9606,2149 9597,2148 9588,2148 9585,2148 9579,2148 9579,2158 9579,2163 9583,2163 9591,2163 9619,2163 9619,2168 9621,2180 L 9659,2482 C 9661,2492 9663,2494 9669,2494 9677,2494 9679,2491 9683,2485 L 9860,2204 9860,2204 Z"/>
         <path fill="rgb(0,0,0)" stroke="none" d="M 9965,2482 C 9965,2450 9953,2431 9933,2431 9917,2431 9907,2443 9907,2457 9907,2470 9917,2483 9933,2483 9939,2483 9946,2481 9951,2477 9952,2476 9953,2475 9953,2475 9954,2475 9954,2476 9954,2482 9954,2519 9937,2548 9921,2564 9915,2570 9915,2571 9915,2572 9915,2576 9918,2578 9920,2578 9926,2578 9965,2540 9965,2482 L 9965,2482 Z"/>
         <path fill="rgb(0,0,0)" stroke="none" d="M 10457,2142 C 10457,2141 10456,2137 10451,2137 10450,2137 10449,2138 10444,2143 L 10409,2181 C 10405,2174 10382,2137 10328,2137 10218,2137 10108,2246 10108,2359 10108,2440 10166,2494 10241,2494 10284,2494 10321,2474 10347,2452 10393,2411 10401,2367 10401,2365 10401,2360 10396,2360 10395,2360 10392,2360 10390,2361 10389,2365 10384,2380 10373,2414 10339,2443 10305,2470 10274,2479 10249,2479 10205,2479 10153,2453 10153,2377 10153,2349 10163,2269 10212,2212 10242,2177 10288,2153 10332,2153 10382,2153 10411,2190 10411,2247 10411,2267 10409,2267 10409,2272 10409,2277 10415,2277 10417,2277 10423,2277 10423,2276 10426,2267 L 10457,2142 10457,2142 Z"/>
        </g>
       </g>
      </g>
      <g class="Group">
       <g class="Graphic">
        <g id="id37">
         <rect class="BoundingBox" stroke="none" fill="none" x="9533" y="5120" width="1041" height="431"/>
         <defs>
          <clipPath id="clip_path_6" clipPathUnits="userSpaceOnUse">
           <path d="M 9533,5120 L 10573,5120 10573,5550 9533,5550 9533,5120 Z"/>
          </clipPath>
         </defs>
         <g clip-path="url(#clip_path_6)">
          <path fill="rgb(0,0,0)" stroke="none" d="M 9983,5177 C 9996,5155 10008,5138 10038,5135 10043,5135 10048,5135 10048,5125 10048,5123 10046,5120 10042,5120 10030,5120 10016,5121 10004,5121 9987,5121 9969,5120 9953,5120 9950,5120 9944,5120 9944,5129 9944,5135 9948,5135 9951,5135 9963,5136 9980,5140 9980,5154 9980,5160 9978,5164 9974,5171 L 9841,5402 9823,5158 C 9822,5148 9821,5136 9857,5135 9866,5135 9870,5135 9870,5125 9870,5120 9865,5120 9863,5120 9843,5120 9823,5121 9803,5121 9792,5121 9763,5120 9752,5120 9749,5120 9742,5120 9742,5130 9742,5135 9747,5135 9754,5135 9776,5135 9779,5138 9780,5147 L 9783,5185 9659,5402 9640,5153 C 9640,5147 9640,5136 9677,5135 9682,5135 9688,5135 9688,5125 9688,5120 9682,5120 9681,5120 9661,5120 9641,5121 9620,5121 9603,5121 9586,5120 9569,5120 9566,5120 9560,5120 9560,5129 9560,5135 9564,5135 9572,5135 9597,5135 9597,5140 9598,5153 L 9620,5453 C 9621,5462 9621,5466 9628,5466 9634,5466 9636,5463 9640,5456 L 9785,5205 9803,5453 C 9804,5464 9805,5466 9811,5466 9817,5466 9820,5461 9822,5457 L 9983,5177 9983,5177 Z"/>
          <path fill="rgb(0,0,0)" stroke="none" d="M 10083,5455 C 10083,5422 10071,5403 10052,5403 10035,5403 10026,5416 10026,5429 10026,5443 10035,5455 10052,5455 10057,5455 10064,5453 10069,5449 10070,5448 10071,5447 10071,5447 10072,5447 10072,5448 10072,5455 10072,5491 10055,5521 10039,5537 10033,5542 10033,5543 10033,5545 10033,5548 10036,5550 10038,5550 10044,5550 10083,5512 10083,5455 L 10083,5455 Z"/>
          <path fill="rgb(0,0,0)" stroke="none" d="M 10280,5417 C 10275,5436 10274,5440 10236,5440 10227,5440 10222,5440 10222,5450 10222,5455 10227,5455 10236,5455 L 10411,5455 C 10489,5455 10546,5397 10546,5349 10546,5314 10518,5285 10470,5280 10521,5271 10573,5234 10573,5188 10573,5151 10541,5120 10482,5120 L 10317,5120 C 10307,5120 10302,5120 10302,5130 10302,5135 10307,5135 10316,5135 10317,5135 10326,5135 10335,5136 10344,5137 10348,5138 10348,5144 10348,5146 10348,5147 10346,5153 L 10280,5417 10280,5417 Z M 10354,5276 L 10385,5154 C 10389,5137 10390,5135 10411,5135 L 10475,5135 C 10518,5135 10528,5164 10528,5186 10528,5229 10486,5276 10426,5276 L 10354,5276 10354,5276 Z M 10332,5440 C 10325,5440 10324,5440 10321,5440 10317,5439 10315,5439 10315,5435 10315,5433 10315,5432 10318,5423 L 10351,5286 10444,5286 C 10491,5286 10501,5323 10501,5344 10501,5392 10457,5440 10399,5440 L 10332,5440 10332,5440 Z"/>
         </g>
        </g>
       </g>
      </g>
      <g class="com.sun.star.drawing.CustomShape">
       <g id="id38">
        <rect class="BoundingBox" stroke="none" fill="none" x="1630" y="3249" width="1030" height="1030"/>
        <path fill="none" stroke="rgb(17,17,17)" stroke-width="28" stroke-linejoin="round" d="M 2645,3764 C 2645,3851 2622,3938 2578,4014 2534,4090 2471,4153 2395,4197 2319,4241 2232,4264 2145,4264 2057,4264 1970,4241 1894,4197 1818,4153 1755,4090 1711,4014 1667,3938 1644,3851 1644,3764 1644,3676 1667,3589 1711,3513 1755,3437 1818,3374 1894,3330 1970,3286 2057,3263 2144,3263 2232,3263 2319,3286 2395,3330 2471,3374 2534,3437 2578,3513 2622,3589 2645,3676 2645,3763 L 2645,3764 Z"/>
       </g>
      </g>
      <g class="com.sun.star.drawing.CustomShape">
       <g id="id39">
        <rect class="BoundingBox" stroke="none" fill="none" x="3631" y="3250" width="1030" height="1030"/>
        <path fill="none" stroke="rgb(17,17,17)" stroke-width="28" stroke-linejoin="round" d="M 4646,3765 C 4646,3852 4623,3939 4579,4015 4535,4091 4472,4154 4396,4198 4320,4242 4233,4265 4146,4265 4058,4265 3971,4242 3895,4198 3819,4154 3756,4091 3712,4015 3668,3939 3645,3852 3645,3765 3645,3677 3668,3590 3712,3514 3756,3438 3819,3375 3895,3331 3971,3287 4058,3264 4146,3264 4233,3264 4320,3287 4396,3331 4472,3375 4535,3438 4579,3514 4623,3590 4646,3677 4646,3764 L 4646,3765 Z"/>
       </g>
      </g>
      <g class="com.sun.star.drawing.CustomShape">
       <g id="id40">
        <rect class="BoundingBox" stroke="none" fill="none" x="5632" y="3251" width="1030" height="1030"/>
        <path fill="none" stroke="rgb(17,17,17)" stroke-width="28" stroke-linejoin="round" d="M 6647,3766 C 6647,3853 6624,3940 6580,4016 6536,4092 6473,4155 6397,4199 6321,4243 6234,4266 6147,4266 6059,4266 5972,4243 5896,4199 5820,4155 5757,4092 5713,4016 5669,3940 5646,3853 5646,3766 5646,3678 5669,3591 5713,3515 5757,3439 5820,3376 5896,3332 5972,3288 6059,3265 6147,3265 6234,3265 6321,3288 6397,3332 6473,3376 6536,3439 6580,3515 6624,3591 6647,3678 6647,3765 L 6647,3766 Z"/>
       </g>
      </g>
      <g class="com.sun.star.drawing.CustomShape">
       <g id="id41">
        <rect class="BoundingBox" stroke="none" fill="none" x="7633" y="3252" width="1030" height="1030"/>
        <path fill="none" stroke="rgb(17,17,17)" stroke-width="28" stroke-linejoin="round" d="M 8648,3767 C 8648,3854 8625,3941 8581,4017 8537,4093 8474,4156 8398,4200 8322,4244 8235,4267 8148,4267 8060,4267 7973,4244 7897,4200 7821,4156 7758,4093 7714,4017 7670,3941 7647,3854 7647,3767 7647,3679 7670,3592 7714,3516 7758,3440 7821,3377 7897,3333 7973,3289 8060,3266 8148,3266 8235,3266 8322,3289 8398,3333 8474,3377 8537,3440 8581,3516 8625,3592 8648,3679 8648,3766 L 8648,3767 Z"/>
       </g>
      </g>
      <g class="com.sun.star.drawing.CustomShape">
       <g id="id42">
        <rect class="BoundingBox" stroke="none" fill="none" x="2630" y="6249" width="1030" height="1030"/>
        <path fill="none" stroke="rgb(17,17,17)" stroke-width="28" stroke-linejoin="round" d="M 3645,6764 C 3645,6851 3622,6938 3578,7014 3534,7090 3471,7153 3395,7197 3319,7241 3232,7264 3145,7264 3057,7264 2970,7241 2894,7197 2818,7153 2755,7090 2711,7014 2667,6938 2644,6851 2644,6764 2644,6676 2667,6589 2711,6513 2755,6437 2818,6374 2894,6330 2970,6286 3057,6263 3144,6263 3232,6263 3319,6286 3395,6330 3471,6374 3534,6437 3578,6513 3622,6589 3645,6676 3645,6763 L 3645,6764 Z"/>
       </g>
      </g>
      <g class="com.sun.star.drawing.CustomShape">
       <g id="id43">
        <rect class="BoundingBox" stroke="none" fill="none" x="4631" y="6250" width="1030" height="1030"/>
        <path fill="none" stroke="rgb(17,17,17)" stroke-width="28" stroke-linejoin="round" d="M 5646,6765 C 5646,6852 5623,6939 5579,7015 5535,7091 5472,7154 5396,7198 5320,7242 5233,7265 5146,7265 5058,7265 4971,7242 4895,7198 4819,7154 4756,7091 4712,7015 4668,6939 4645,6852 4645,6765 4645,6677 4668,6590 4712,6514 4756,6438 4819,6375 4895,6331 4971,6287 5058,6264 5146,6264 5233,6264 5320,6287 5396,6331 5472,6375 5535,6438 5579,6514 5623,6590 5646,6677 5646,6764 L 5646,6765 Z"/>
       </g>
      </g>
      <g class="com.sun.star.drawing.CustomShape">
       <g id="id44">
        <rect class="BoundingBox" stroke="none" fill="none" x="6632" y="6251" width="1030" height="1030"/>
        <path fill="none" stroke="rgb(17,17,17)" stroke-width="28" stroke-linejoin="round" d="M 7647,6766 C 7647,6853 7624,6940 7580,7016 7536,7092 7473,7155 7397,7199 7321,7243 7234,7266 7147,7266 7059,7266 6972,7243 6896,7199 6820,7155 6757,7092 6713,7016 6669,6940 6646,6853 6646,6766 6646,6678 6669,6591 6713,6515 6757,6439 6820,6376 6896,6332 6972,6288 7059,6265 7147,6265 7234,6265 7321,6288 7397,6332 7473,6376 7536,6439 7580,6515 7624,6591 7647,6678 7647,6765 L 7647,6766 Z"/>
       </g>
      </g>
      <g class="Group">
       <g class="Graphic">
        <g id="id45">
         <rect class="BoundingBox" stroke="none" fill="none" x="2927" y="6612" width="481" height="329"/>
         <path fill="rgb(0,0,0)" stroke="none" d="M 3109,6699 C 3112,6687 3124,6641 3158,6641 3160,6641 3172,6641 3183,6648 3169,6650 3159,6662 3159,6674 3159,6682 3164,6691 3178,6691 3188,6691 3204,6683 3204,6663 3204,6637 3175,6631 3159,6631 3130,6631 3113,6657 3107,6668 3095,6635 3068,6631 3054,6631 3003,6631 2975,6694 2975,6706 2975,6711 2980,6711 2981,6711 2985,6711 2986,6710 2987,6706 3004,6654 3036,6641 3053,6641 3062,6641 3079,6646 3079,6674 3079,6689 3071,6722 3053,6791 3045,6822 3028,6842 3006,6842 3003,6842 2992,6842 2982,6836 2994,6834 3005,6823 3005,6809 3005,6796 2994,6792 2987,6792 2972,6792 2960,6805 2960,6821 2960,6843 2984,6853 3006,6853 3038,6853 3056,6819 3057,6816 3063,6834 3081,6853 3110,6853 3161,6853 3189,6790 3189,6777 3189,6773 3185,6773 3183,6773 3179,6773 3178,6775 3177,6778 3160,6831 3127,6842 3111,6842 3092,6842 3084,6827 3084,6810 3084,6799 3087,6788 3093,6767 L 3109,6699 3109,6699 Z"/>
         <path fill="rgb(0,0,0)" stroke="none" d="M 3341,6703 C 3341,6693 3340,6693 3331,6693 3309,6715 3278,6715 3263,6715 L 3263,6727 C 3272,6727 3294,6727 3313,6718 L 3313,6893 C 3313,6905 3313,6909 3279,6909 L 3266,6909 3266,6921 C 3272,6921 3314,6920 3327,6920 3338,6920 3381,6921 3389,6921 L 3389,6909 3375,6909 C 3341,6909 3341,6905 3341,6893 L 3341,6703 3341,6703 Z"/>
        </g>
       </g>
      </g>
      <g class="Group">
       <g class="Graphic">
        <g id="id46">
         <rect class="BoundingBox" stroke="none" fill="none" x="4928" y="6612" width="492" height="329"/>
         <path fill="rgb(0,0,0)" stroke="none" d="M 5110,6699 C 5113,6687 5125,6641 5159,6641 5161,6641 5173,6641 5184,6648 5170,6650 5160,6662 5160,6674 5160,6682 5165,6691 5179,6691 5189,6691 5205,6683 5205,6663 5205,6637 5176,6631 5160,6631 5131,6631 5114,6657 5108,6668 5096,6635 5069,6631 5055,6631 5004,6631 4976,6694 4976,6706 4976,6711 4981,6711 4982,6711 4986,6711 4987,6710 4988,6706 5005,6654 5037,6641 5054,6641 5063,6641 5080,6646 5080,6674 5080,6689 5072,6722 5054,6791 5046,6822 5029,6842 5007,6842 5004,6842 4993,6842 4983,6836 4995,6834 5006,6823 5006,6809 5006,6796 4995,6792 4988,6792 4973,6792 4961,6805 4961,6821 4961,6843 4985,6853 5007,6853 5039,6853 5057,6819 5058,6816 5064,6834 5082,6853 5111,6853 5162,6853 5190,6790 5190,6777 5190,6773 5186,6773 5184,6773 5180,6773 5179,6775 5178,6778 5161,6831 5128,6842 5112,6842 5093,6842 5085,6827 5085,6810 5085,6799 5088,6788 5094,6767 L 5110,6699 5110,6699 Z"/>
         <path fill="rgb(0,0,0)" stroke="none" d="M 5401,6859 L 5389,6859 C 5388,6866 5384,6887 5380,6890 5377,6892 5351,6892 5346,6892 L 5283,6892 C 5319,6860 5331,6851 5351,6834 5377,6814 5401,6793 5401,6760 5401,6718 5364,6693 5320,6693 5278,6693 5249,6723 5249,6755 5249,6772 5263,6774 5267,6774 5275,6774 5285,6768 5285,6756 5285,6749 5283,6737 5265,6737 5275,6713 5299,6705 5315,6705 5349,6705 5367,6732 5367,6760 5367,6790 5346,6814 5335,6826 L 5252,6908 C 5249,6911 5249,6912 5249,6921 L 5390,6921 5401,6859 5401,6859 Z"/>
        </g>
       </g>
      </g>
      <g class="Group">
       <g class="Graphic">
        <g id="id47">
         <rect class="BoundingBox" stroke="none" fill="none" x="6927" y="6613" width="457" height="298"/>
         <defs>
          <clipPath id="clip_path_7" clipPathUnits="userSpaceOnUse">
           <path d="M 6927,6613 L 7383,6613 7383,6910 6927,6910 6927,6613 Z"/>
          </clipPath>
         </defs>
         <g clip-path="url(#clip_path_7)">
          <path fill="rgb(0,0,0)" stroke="none" d="M 7091,6682 C 7093,6669 7105,6624 7139,6624 7141,6624 7153,6624 7163,6630 7150,6633 7140,6645 7140,6657 7140,6664 7145,6674 7159,6674 7169,6674 7185,6665 7185,6645 7185,6620 7156,6613 7139,6613 7111,6613 7094,6639 7088,6650 7076,6618 7049,6613 7035,6613 6984,6613 6956,6676 6956,6688 6956,6693 6961,6693 6962,6693 6966,6693 6968,6692 6969,6688 6985,6636 7018,6624 7034,6624 7044,6624 7061,6628 7061,6657 7061,6672 7052,6705 7034,6773 7026,6804 7009,6824 6988,6824 6985,6824 6974,6824 6963,6818 6975,6815 6986,6805 6986,6791 6986,6778 6975,6774 6968,6774 6953,6774 6941,6787 6941,6803 6941,6825 6966,6835 6987,6835 7020,6835 7037,6801 7039,6798 7045,6816 7062,6835 7092,6835 7142,6835 7170,6772 7170,6760 7170,6755 7165,6755 7164,6755 7160,6755 7159,6757 7158,6760 7141,6812 7108,6824 7092,6824 7073,6824 7066,6809 7066,6792 7066,6781 7069,6770 7074,6749 L 7091,6682 7091,6682 Z"/>
          <path fill="rgb(0,0,0)" stroke="none" d="M 7300,6789 C 7327,6789 7346,6807 7346,6844 7346,6886 7322,6899 7302,6899 7288,6899 7258,6895 7244,6875 7260,6874 7263,6863 7263,6856 7263,6845 7255,6837 7245,6837 7235,6837 7225,6843 7225,6857 7225,6889 7261,6910 7302,6910 7350,6910 7383,6878 7383,6844 7383,6817 7361,6790 7323,6782 7359,6769 7372,6744 7372,6723 7372,6696 7341,6675 7303,6675 7265,6675 7236,6694 7236,6721 7236,6733 7244,6739 7254,6739 7264,6739 7271,6732 7271,6722 7271,6712 7264,6705 7254,6704 7266,6689 7289,6685 7302,6685 7318,6685 7339,6693 7339,6723 7339,6737 7334,6753 7325,6764 7314,6777 7305,6777 7287,6778 7279,6779 7278,6779 7276,6779 7276,6779 7273,6780 7273,6784 7273,6789 7276,6789 7282,6789 L 7300,6789 7300,6789 Z"/>
         </g>
        </g>
       </g>
      </g>
      <g class="com.sun.star.drawing.CustomShape">
       <g id="id48">
        <rect class="BoundingBox" stroke="none" fill="none" x="2629" y="248" width="1030" height="1030"/>
        <path fill="none" stroke="rgb(17,17,17)" stroke-width="28" stroke-linejoin="round" d="M 3644,763 C 3644,850 3621,937 3577,1013 3533,1089 3470,1152 3394,1196 3318,1240 3231,1263 3144,1263 3056,1263 2969,1240 2893,1196 2817,1152 2754,1089 2710,1013 2666,937 2643,850 2643,763 2643,675 2666,588 2710,512 2754,436 2817,373 2893,329 2969,285 3056,262 3143,262 3231,262 3318,285 3394,329 3470,373 3533,436 3577,512 3621,588 3644,675 3644,762 L 3644,763 Z"/>
       </g>
      </g>
      <g class="com.sun.star.drawing.CustomShape">
       <g id="id49">
        <rect class="BoundingBox" stroke="none" fill="none" x="4630" y="249" width="1030" height="1030"/>
        <path fill="none" stroke="rgb(17,17,17)" stroke-width="28" stroke-linejoin="round" d="M 5645,764 C 5645,851 5622,938 5578,1014 5534,1090 5471,1153 5395,1197 5319,1241 5232,1264 5145,1264 5057,1264 4970,1241 4894,1197 4818,1153 4755,1090 4711,1014 4667,938 4644,851 4644,764 4644,676 4667,589 4711,513 4755,437 4818,374 4894,330 4970,286 5057,263 5145,263 5232,263 5319,286 5395,330 5471,374 5534,437 5578,513 5622,589 5645,676 5645,763 L 5645,764 Z"/>
       </g>
      </g>
      <g class="com.sun.star.drawing.CustomShape">
       <g id="id50">
        <rect class="BoundingBox" stroke="none" fill="none" x="6631" y="250" width="1030" height="1030"/>
        <path fill="none" stroke="rgb(17,17,17)" stroke-width="28" stroke-linejoin="round" d="M 7646,765 C 7646,852 7623,939 7579,1015 7535,1091 7472,1154 7396,1198 7320,1242 7233,1265 7146,1265 7058,1265 6971,1242 6895,1198 6819,1154 6756,1091 6712,1015 6668,939 6645,852 6645,765 6645,677 6668,590 6712,514 6756,438 6819,375 6895,331 6971,287 7058,264 7146,264 7233,264 7320,287 7396,331 7472,375 7535,438 7579,514 7623,590 7646,677 7646,764 L 7646,765 Z"/>
       </g>
      </g>
      <g class="Group">
       <g class="Graphic">
        <g id="id51">
         <rect class="BoundingBox" stroke="none" fill="none" x="4929" y="513" width="492" height="452"/>
         <path fill="rgb(0,0,0)" stroke="none" d="M 5101,531 L 5036,598 5044,607 5101,557 5158,607 5167,598 5101,531 5101,531 Z"/>
         <path fill="rgb(0,0,0)" stroke="none" d="M 5111,724 C 5114,711 5126,666 5160,666 5162,666 5174,666 5185,672 5171,675 5161,687 5161,699 5161,707 5166,716 5180,716 5190,716 5206,707 5206,687 5206,662 5177,655 5161,655 5132,655 5115,681 5109,692 5097,660 5070,655 5056,655 5005,655 4977,718 4977,731 4977,736 4982,736 4983,736 4987,736 4988,735 4989,730 5006,678 5038,666 5055,666 5064,666 5081,670 5081,699 5081,714 5073,747 5055,816 5047,846 5030,867 5008,867 5005,867 4994,867 4984,860 4996,858 5007,847 5007,834 5007,820 4996,817 4989,817 4974,817 4962,829 4962,845 4962,868 4986,877 5008,877 5040,877 5058,843 5059,840 5065,858 5083,877 5112,877 5163,877 5191,814 5191,802 5191,797 5187,797 5185,797 5181,797 5180,799 5179,802 5162,855 5129,867 5113,867 5094,867 5086,851 5086,834 5086,823 5089,813 5095,791 L 5111,724 5111,724 Z"/>
         <path fill="rgb(0,0,0)" stroke="none" d="M 5402,883 L 5390,883 C 5389,891 5385,911 5381,914 5378,916 5352,916 5347,916 L 5284,916 C 5320,884 5332,875 5352,859 5378,838 5402,817 5402,784 5402,743 5365,718 5321,718 5279,718 5250,747 5250,779 5250,796 5264,798 5268,798 5276,798 5286,792 5286,780 5286,774 5284,762 5266,762 5276,737 5300,730 5316,730 5350,730 5368,757 5368,784 5368,814 5347,838 5336,850 L 5253,932 C 5250,935 5250,936 5250,946 L 5391,946 5402,883 5402,883 Z"/>
        </g>
       </g>
      </g>
      <g class="Group">
       <g class="Graphic">
        <g id="id52">
         <rect class="BoundingBox" stroke="none" fill="none" x="6927" y="513" width="495" height="459"/>
         <path fill="rgb(0,0,0)" stroke="none" d="M 7099,531 L 7034,598 7042,607 7099,557 7156,607 7165,598 7099,531 7099,531 Z"/>
         <path fill="rgb(0,0,0)" stroke="none" d="M 7109,724 C 7112,711 7124,666 7158,666 7160,666 7172,666 7183,672 7169,675 7159,687 7159,699 7159,707 7164,716 7178,716 7188,716 7204,707 7204,688 7204,662 7175,655 7158,655 7130,655 7113,681 7107,692 7095,660 7068,655 7054,655 7003,655 6975,718 6975,731 6975,736 6980,736 6981,736 6985,736 6986,735 6987,730 7004,678 7036,666 7053,666 7062,666 7079,670 7079,699 7079,714 7071,747 7053,816 7045,846 7028,867 7006,867 7003,867 6992,867 6982,860 6994,858 7005,848 7005,834 7005,821 6994,817 6987,817 6972,817 6960,829 6960,845 6960,868 6984,877 7006,877 7038,877 7056,843 7057,840 7063,858 7081,877 7110,877 7161,877 7189,814 7189,802 7189,797 7184,797 7183,797 7179,797 7178,799 7177,802 7160,855 7127,867 7111,867 7092,867 7084,851 7084,834 7084,823 7087,813 7093,791 L 7109,724 7109,724 Z"/>
         <path fill="rgb(0,0,0)" stroke="none" d="M 7320,831 C 7347,831 7366,849 7366,886 7366,929 7341,942 7321,942 7307,942 7277,938 7263,917 7279,917 7283,905 7283,898 7283,887 7274,879 7264,879 7254,879 7245,885 7245,899 7245,932 7280,953 7322,953 7370,953 7403,921 7403,886 7403,859 7381,833 7343,825 7379,812 7392,786 7392,765 7392,738 7361,718 7322,718 7284,718 7255,736 7255,764 7255,775 7263,782 7273,782 7284,782 7291,774 7291,764 7291,754 7284,747 7273,746 7285,731 7309,728 7321,728 7337,728 7359,735 7359,765 7359,779 7354,795 7345,806 7333,819 7324,820 7307,821 7298,821 7297,821 7296,822 7295,822 7292,822 7292,826 7292,831 7295,831 7301,831 L 7320,831 7320,831 Z"/>
        </g>
       </g>
      </g>
      <g class="Group">
       <g class="Graphic">
        <g id="id53">
         <rect class="BoundingBox" stroke="none" fill="none" x="2927" y="514" width="481" height="452"/>
         <path fill="rgb(0,0,0)" stroke="none" d="M 3099,532 L 3034,599 3042,608 3099,558 3156,608 3165,599 3099,532 3099,532 Z"/>
         <path fill="rgb(0,0,0)" stroke="none" d="M 3109,725 C 3112,712 3124,667 3158,667 3160,667 3172,667 3183,673 3169,676 3159,688 3159,700 3159,708 3164,717 3178,717 3188,717 3204,708 3204,688 3204,663 3175,656 3159,656 3130,656 3113,682 3107,693 3095,661 3068,656 3054,656 3003,656 2975,719 2975,732 2975,737 2980,737 2981,737 2985,737 2986,736 2987,731 3004,679 3036,667 3053,667 3062,667 3079,671 3079,700 3079,715 3071,748 3053,817 3045,847 3028,868 3006,868 3003,868 2992,868 2982,861 2994,859 3005,848 3005,835 3005,821 2994,818 2987,818 2972,818 2960,830 2960,846 2960,869 2984,878 3006,878 3038,878 3056,844 3057,841 3063,859 3081,878 3110,878 3161,878 3189,815 3189,803 3189,798 3185,798 3183,798 3179,798 3178,800 3177,803 3160,856 3127,868 3111,868 3092,868 3084,852 3084,835 3084,824 3087,814 3093,792 L 3109,725 3109,725 Z"/>
         <path fill="rgb(0,0,0)" stroke="none" d="M 3341,728 C 3341,719 3340,719 3331,719 3309,740 3278,740 3263,740 L 3263,753 C 3272,753 3294,753 3313,743 L 3313,918 C 3313,930 3313,934 3279,934 L 3266,934 3266,947 C 3272,946 3314,945 3327,945 3338,945 3381,946 3389,947 L 3389,934 3375,934 C 3341,934 3341,930 3341,918 L 3341,728 3341,728 Z"/>
        </g>
       </g>
      </g>
     </g>
    </g>
   </g>
  </g>
 </g>
</svg>