<?xml version="1.0" encoding="UTF-8"?>
<!DOCTYPE svg PUBLIC "-//W3C//DTD SVG 1.1//EN" "http://www.w3.org/Graphics/SVG/1.1/DTD/svg11.dtd">
<svg version="1.2" width="110mm" height="85mm" viewBox="0 0 11000 8500" preserveAspectRatio="xMidYMid" fill-rule="evenodd" stroke-width="28.222" stroke-linejoin="round" xmlns="http://www.w3.org/2000/svg" xmlns:ooo="http://xml.openoffice.org/svg/export" xmlns:xlink="http://www.w3.org/1999/xlink" xmlns:presentation="http://sun.com/xmlns/staroffice/presentation" xmlns:smil="http://www.w3.org/2001/SMIL20/" xmlns:anim="urn:oasis:names:tc:opendocument:xmlns:animation:1.0" xml:space="preserve">
 <defs class="ClipPathGroup">
  <clipPath id="presentation_clip_path" clipPathUnits="userSpaceOnUse">
   <rect x="0" y="0" width="11000" height="8500"/>
  </clipPath>
  <clipPath id="presentation_clip_path_shrink" clipPathUnits="userSpaceOnUse">
   <rect x="11" y="8" width="10978" height="8483"/>
  </clipPath>
 </defs>
 <defs class="TextShapeIndex">
  <g ooo:slide="id1" ooo:id-list="id3 id4 id5 id6 id7 id8 id9 id10 id11 id12 id13 id14 id15 id16 id17 id18 id19 id20 id21 id22 id23 id24 id25 id26 id27 id28 id29 id30 id31 id32 id33 id34 id35 id36 id37 id38 id39 id40 id41 id42 id43 id44 id45 id46 id47 id48 id49 id50 id51 id52 id53"/>
 </defs>
 <defs class="EmbeddedBulletChars">
  <g id="bullet-char-template-57356" transform="scale(0.00048828125,-0.00048828125)">
   <path d="M 580,1141 L 1163,571 580,0 -4,571 580,1141 Z"/>
  </g>
  <g id="bullet-char-template-57354" transform="scale(0.00048828125,-0.00048828125)">
   <path d="M 8,1128 L 1137,1128 1137,0 8,0 8,1128 Z"/>
  </g>
  <g id="bullet-char-template-10146" transform="scale(0.00048828125,-0.00048828125)">
   <path d="M 174,0 L 602,739 174,1481 1456,739 174,0 Z M 1358,739 L 309,1346 659,739 1358,739 Z"/>
  </g>
  <g id="bullet-char-template-10132" transform="scale(0.00048828125,-0.00048828125)">
   <path d="M 2015,739 L 1276,0 717,0 1260,543 174,543 174,936 1260,936 717,1481 1274,1481 2015,739 Z"/>
  </g>
  <g id="bullet-char-template-10007" transform="scale(0.00048828125,-0.00048828125)">
   <path d="M 0,-2 C -7,14 -16,27 -25,37 L 356,567 C 262,823 215,952 215,954 215,979 228,992 255,992 264,992 276,990 289,987 310,991 331,999 354,1012 L 381,999 492,748 772,1049 836,1024 860,1049 C 881,1039 901,1025 922,1006 886,937 835,863 770,784 769,783 710,716 594,584 L 774,223 C 774,196 753,168 711,139 L 727,119 C 717,90 699,76 672,76 641,76 570,178 457,381 L 164,-76 C 142,-110 111,-127 72,-127 30,-127 9,-110 8,-76 1,-67 -2,-52 -2,-32 -2,-23 -1,-13 0,-2 Z"/>
  </g>
  <g id="bullet-char-template-10004" transform="scale(0.00048828125,-0.00048828125)">
   <path d="M 285,-33 C 182,-33 111,30 74,156 52,228 41,333 41,471 41,549 55,616 82,672 116,743 169,778 240,778 293,778 328,747 346,684 L 369,508 C 377,444 397,411 428,410 L 1163,1116 C 1174,1127 1196,1133 1229,1133 1271,1133 1292,1118 1292,1087 L 1292,965 C 1292,929 1282,901 1262,881 L 442,47 C 390,-6 338,-33 285,-33 Z"/>
  </g>
  <g id="bullet-char-template-9679" transform="scale(0.00048828125,-0.00048828125)">
   <path d="M 813,0 C 632,0 489,54 383,161 276,268 223,411 223,592 223,773 276,916 383,1023 489,1130 632,1184 813,1184 992,1184 1136,1130 1245,1023 1353,916 1407,772 1407,592 1407,412 1353,268 1245,161 1136,54 992,0 813,0 Z"/>
  </g>
  <g id="bullet-char-template-8226" transform="scale(0.00048828125,-0.00048828125)">
   <path d="M 346,457 C 273,457 209,483 155,535 101,586 74,649 74,723 74,796 101,859 155,911 209,963 273,989 346,989 419,989 480,963 531,910 582,859 608,796 608,723 608,648 583,586 532,535 482,483 420,457 346,457 Z"/>
  </g>
  <g id="bullet-char-template-8211" transform="scale(0.00048828125,-0.00048828125)">
   <path d="M -4,459 L 1135,459 1135,606 -4,606 -4,459 Z"/>
  </g>
  <g id="bullet-char-template-61548" transform="scale(0.00048828125,-0.00048828125)">
   <path d="M 173,740 C 173,903 231,1043 346,1159 462,1274 601,1332 765,1332 928,1332 1067,1274 1183,1159 1299,1043 1357,903 1357,740 1357,577 1299,437 1183,322 1067,206 928,148 765,148 601,148 462,206 346,322 231,437 173,577 173,740 Z"/>
  </g>
 </defs>
 <g>
  <g id="id2" class="Master_Slide">
   <g id="bg-id2" class="Background"/>
   <g id="bo-id2" class="BackgroundObjects"/>
  </g>
 </g>
 <g class="SlideGroup">
  <g>
   <g id="container-id1">
    <g id="id1" class="Slide" clip-path="url(#presentation_clip_path)">
     <g class="Page">
      <g class="Group">
       <g class="Graphic">
        <g id="id3">
         <rect class="BoundingBox" stroke="none" fill="none" x="428" y="7113" width="418" height="336"/>
         <defs>
          <clipPath id="clip_path_1" clipPathUnits="userSpaceOnUse">
           <path d="M 428,7113 L 845,7113 845,7448 428,7448 428,7113 Z"/>
          </clipPath>
         </defs>
         <g clip-path="url(#clip_path_1)">
          <path fill="rgb(0,0,0)" stroke="none" d="M 666,7246 L 624,7149 C 623,7145 622,7143 622,7142 622,7139 630,7130 651,7128 656,7128 661,7127 661,7119 661,7113 655,7113 653,7113 633,7113 612,7114 592,7114 579,7114 549,7113 537,7113 534,7113 528,7113 528,7123 528,7128 533,7128 539,7128 569,7128 572,7133 576,7144 L 634,7281 530,7392 524,7397 C 500,7423 477,7431 452,7433 446,7433 441,7433 441,7443 441,7443 441,7448 448,7448 462,7448 478,7447 494,7447 512,7447 531,7448 549,7448 551,7448 557,7448 557,7438 557,7433 552,7433 551,7433 547,7432 532,7431 532,7418 532,7410 539,7402 545,7396 L 595,7343 639,7294 689,7412 C 691,7417 691,7418 691,7419 691,7422 682,7431 663,7433 657,7433 653,7434 653,7442 653,7448 658,7448 660,7448 674,7448 708,7447 722,7447 734,7447 764,7448 776,7448 780,7448 786,7448 786,7439 786,7433 781,7433 777,7433 744,7432 743,7431 735,7411 716,7366 683,7289 672,7260 705,7225 756,7167 772,7153 786,7141 805,7130 834,7128 841,7128 845,7128 845,7118 845,7118 845,7113 839,7113 824,7113 808,7114 793,7114 774,7114 756,7113 738,7113 735,7113 729,7113 729,7123 729,7126 731,7128 735,7128 739,7129 754,7130 754,7143 754,7150 749,7157 745,7161 L 666,7246 666,7246 Z"/>
         </g>
        </g>
       </g>
      </g>
      <g class="Group">
       <g class="Graphic">
        <g id="id4">
         <rect class="BoundingBox" stroke="none" fill="none" x="430" y="1015" width="418" height="466"/>
         <defs>
          <clipPath id="clip_path_2" clipPathUnits="userSpaceOnUse">
           <path d="M 430,1015 L 847,1015 847,1480 430,1480 430,1015 Z"/>
          </clipPath>
         </defs>
         <g clip-path="url(#clip_path_2)">
          <path fill="rgb(0,0,0)" stroke="none" d="M 693,1015 L 627,1082 636,1091 693,1041 749,1091 758,1082 693,1015 693,1015 Z"/>
          <path fill="rgb(0,0,0)" stroke="none" d="M 668,1278 L 626,1180 C 625,1176 624,1175 624,1174 624,1171 632,1162 653,1160 658,1159 663,1159 663,1150 663,1145 657,1145 655,1145 635,1145 614,1146 594,1146 581,1146 551,1145 539,1145 536,1145 530,1145 530,1154 530,1160 535,1160 541,1160 571,1160 574,1165 578,1175 L 636,1313 532,1424 526,1429 C 502,1455 479,1463 454,1465 448,1465 443,1465 443,1475 443,1475 443,1480 450,1480 464,1480 480,1479 496,1479 514,1479 533,1480 551,1480 553,1480 559,1480 559,1470 559,1465 554,1465 553,1465 549,1464 534,1463 534,1450 534,1442 541,1434 547,1427 L 597,1374 641,1326 691,1444 C 693,1449 693,1450 693,1451 693,1454 684,1463 665,1465 659,1465 655,1466 655,1474 655,1480 660,1480 662,1480 676,1480 710,1479 724,1479 736,1479 766,1480 778,1480 782,1480 788,1480 788,1471 788,1465 783,1465 779,1465 746,1464 745,1463 737,1443 718,1397 685,1321 674,1291 707,1257 758,1199 774,1185 788,1173 807,1161 836,1160 843,1159 847,1159 847,1150 847,1149 847,1145 841,1145 826,1145 810,1146 795,1146 776,1146 758,1145 740,1145 737,1145 731,1145 731,1154 731,1158 733,1159 737,1160 741,1160 756,1161 756,1175 756,1182 751,1188 747,1193 L 668,1278 668,1278 Z"/>
         </g>
        </g>
       </g>
      </g>
      <g class="Group">
       <g class="Graphic">
        <g id="id5">
         <rect class="BoundingBox" stroke="none" fill="none" x="432" y="4217" width="434" height="336"/>
         <defs>
          <clipPath id="clip_path_3" clipPathUnits="userSpaceOnUse">
           <path d="M 432,4217 L 865,4217 865,4552 432,4552 432,4217 Z"/>
          </clipPath>
         </defs>
         <g clip-path="url(#clip_path_3)">
          <path fill="rgb(0,0,0)" stroke="none" d="M 807,4255 C 811,4237 812,4232 848,4232 861,4232 865,4232 865,4222 865,4217 860,4217 858,4217 844,4217 809,4218 795,4218 781,4218 746,4217 732,4217 728,4217 722,4217 722,4227 722,4232 727,4232 736,4232 737,4232 747,4232 755,4233 764,4234 768,4235 768,4241 768,4243 768,4244 766,4250 L 737,4370 587,4370 616,4255 C 620,4237 622,4232 657,4232 670,4232 674,4232 674,4222 674,4217 668,4217 667,4217 653,4217 618,4218 604,4218 590,4218 555,4217 541,4217 537,4217 531,4217 531,4227 531,4232 536,4232 545,4232 546,4232 555,4232 564,4233 573,4234 577,4235 577,4241 577,4243 576,4244 575,4250 L 509,4514 C 504,4533 503,4537 464,4537 456,4537 451,4537 451,4547 451,4552 457,4552 458,4552 472,4552 507,4551 520,4551 531,4551 542,4551 552,4551 563,4551 574,4552 584,4552 588,4552 594,4552 594,4542 594,4537 589,4537 580,4537 562,4537 548,4537 548,4528 548,4525 549,4523 549,4520 L 583,4385 733,4385 C 712,4467 701,4513 699,4521 694,4536 685,4537 654,4537 647,4537 642,4537 642,4547 642,4552 648,4552 649,4552 663,4552 698,4551 712,4551 722,4551 733,4551 743,4551 754,4551 765,4552 775,4552 779,4552 785,4552 785,4542 785,4537 780,4537 771,4537 753,4537 739,4537 739,4528 739,4525 740,4523 741,4520 L 807,4255 807,4255 Z"/>
         </g>
        </g>
       </g>
      </g>
      <g class="Group">
       <g class="Graphic">
        <g id="id6">
         <rect class="BoundingBox" stroke="none" fill="none" x="2627" y="4056" width="483" height="452"/>
         <path fill="rgb(0,0,0)" stroke="none" d="M 2786,4080 C 2786,4079 2786,4074 2780,4074 2769,4074 2733,4078 2720,4079 2716,4080 2711,4080 2711,4089 2711,4095 2715,4095 2722,4095 2746,4095 2747,4099 2747,4103 L 2746,4113 2674,4396 C 2672,4403 2672,4404 2672,4407 2672,4418 2682,4420 2687,4420 2695,4420 2702,4414 2705,4408 L 2714,4370 2725,4326 C 2728,4315 2731,4305 2733,4293 2734,4290 2738,4274 2739,4271 2740,4267 2755,4239 2772,4226 2783,4218 2798,4209 2819,4209 2840,4209 2846,4226 2846,4243 2846,4270 2827,4323 2815,4353 2811,4364 2809,4370 2809,4380 2809,4403 2826,4420 2849,4420 2895,4420 2913,4349 2913,4345 2913,4340 2909,4340 2907,4340 2903,4340 2903,4341 2900,4349 2893,4375 2877,4410 2850,4410 2842,4410 2838,4405 2838,4393 2838,4381 2843,4369 2847,4359 2855,4337 2877,4279 2877,4251 2877,4219 2857,4198 2821,4198 2790,4198 2766,4213 2748,4236 L 2786,4080 2786,4080 Z"/>
         <path fill="rgb(0,0,0)" stroke="none" d="M 3043,4270 C 3043,4261 3042,4261 3033,4261 3011,4282 2980,4282 2966,4282 L 2966,4295 C 2974,4295 2996,4295 3015,4285 L 3015,4460 C 3015,4472 3015,4476 2981,4476 L 2968,4476 2968,4489 C 2974,4488 3016,4487 3029,4487 3040,4487 3083,4488 3091,4489 L 3091,4476 3077,4476 C 3043,4476 3043,4472 3043,4460 L 3043,4270 3043,4270 Z"/>
        </g>
       </g>
      </g>
      <g class="Group">
       <g class="Graphic">
        <g id="id7">
         <rect class="BoundingBox" stroke="none" fill="none" x="4639" y="4093" width="457" height="415"/>
         <defs>
          <clipPath id="clip_path_4" clipPathUnits="userSpaceOnUse">
           <path d="M 4639,4093 L 5095,4093 5095,4507 4639,4507 4639,4093 Z"/>
          </clipPath>
         </defs>
         <g clip-path="url(#clip_path_4)">
          <path fill="rgb(0,0,0)" stroke="none" d="M 4780,4098 C 4780,4098 4780,4093 4773,4093 4762,4093 4726,4097 4714,4098 4710,4098 4704,4099 4704,4108 4704,4114 4709,4114 4716,4114 4740,4114 4741,4117 4741,4122 L 4739,4132 4668,4414 C 4666,4421 4666,4422 4666,4425 4666,4436 4676,4439 4680,4439 4688,4439 4696,4433 4698,4426 L 4708,4389 4718,4345 C 4721,4334 4724,4323 4727,4312 4728,4309 4732,4293 4732,4290 4734,4285 4749,4258 4766,4245 4776,4237 4792,4227 4813,4227 4834,4227 4839,4244 4839,4262 4839,4288 4820,4342 4809,4372 4805,4383 4802,4389 4802,4399 4802,4422 4820,4439 4843,4439 4889,4439 4907,4367 4907,4363 4907,4358 4902,4358 4901,4358 4896,4358 4896,4360 4894,4367 4886,4393 4871,4428 4844,4428 4835,4428 4832,4423 4832,4412 4832,4400 4836,4388 4841,4377 4848,4356 4871,4298 4871,4269 4871,4237 4851,4217 4814,4217 4783,4217 4760,4232 4742,4254 L 4780,4098 4780,4098 Z"/>
          <path fill="rgb(0,0,0)" stroke="none" d="M 5095,4445 L 5083,4445 C 5082,4452 5079,4472 5074,4476 5072,4478 5045,4478 5040,4478 L 4977,4478 C 5013,4446 5025,4436 5046,4420 5071,4400 5095,4379 5095,4346 5095,4304 5059,4279 5015,4279 4972,4279 4943,4309 4943,4340 4943,4358 4958,4360 4961,4360 4970,4360 4980,4354 4980,4341 4980,4335 4977,4323 4959,4323 4970,4299 4993,4291 5010,4291 5044,4291 5062,4318 5062,4346 5062,4376 5040,4400 5029,4412 L 4947,4494 C 4943,4497 4943,4497 4943,4507 L 5085,4507 5095,4445 5095,4445 Z"/>
         </g>
        </g>
       </g>
      </g>
      <g class="Group">
       <g class="Graphic">
        <g id="id8">
         <rect class="BoundingBox" stroke="none" fill="none" x="6646" y="4049" width="497" height="459"/>
         <path fill="rgb(0,0,0)" stroke="none" d="M 6805,4073 C 6805,4072 6805,4067 6799,4067 6788,4067 6752,4071 6739,4072 6735,4073 6730,4073 6730,4082 6730,4088 6734,4088 6741,4088 6765,4088 6766,4092 6766,4096 L 6765,4106 6693,4389 C 6691,4396 6691,4397 6691,4400 6691,4411 6701,4413 6706,4413 6714,4413 6721,4408 6724,4401 L 6733,4363 6744,4319 C 6747,4308 6750,4298 6752,4286 6753,4283 6757,4267 6758,4264 6759,4260 6774,4232 6791,4219 6802,4211 6817,4202 6838,4202 6859,4202 6865,4219 6865,4236 6865,4263 6846,4316 6834,4346 6830,4358 6828,4363 6828,4373 6828,4396 6845,4413 6868,4413 6914,4413 6932,4342 6932,4338 6932,4333 6928,4333 6926,4333 6921,4333 6921,4334 6919,4342 6912,4368 6896,4403 6869,4403 6861,4403 6857,4398 6857,4386 6857,4374 6862,4362 6866,4352 6874,4331 6896,4272 6896,4244 6896,4212 6876,4191 6840,4191 6809,4191 6785,4206 6767,4229 L 6805,4073 6805,4073 Z"/>
         <path fill="rgb(0,0,0)" stroke="none" d="M 7041,4367 C 7068,4367 7087,4385 7087,4422 7087,4465 7062,4478 7042,4478 7028,4478 6998,4474 6984,4453 7000,4453 7004,4441 7004,4434 7004,4423 6995,4415 6985,4415 6975,4415 6966,4421 6966,4435 6966,4468 7001,4489 7043,4489 7091,4489 7124,4457 7124,4422 7124,4395 7102,4369 7064,4361 7100,4348 7113,4322 7113,4301 7113,4274 7082,4254 7044,4254 7005,4254 6976,4272 6976,4300 6976,4311 6984,4318 6994,4318 7005,4318 7012,4310 7012,4300 7012,4290 7005,4283 6994,4282 7006,4267 7030,4264 7043,4264 7058,4264 7080,4271 7080,4301 7080,4315 7075,4331 7066,4342 7055,4355 7045,4356 7028,4357 7019,4357 7018,4357 7017,4358 7016,4358 7013,4358 7013,4362 7013,4367 7016,4367 7022,4367 L 7041,4367 7041,4367 Z"/>
        </g>
       </g>
      </g>
      <g class="Group">
       <g class="Graphic">
        <g id="id9">
         <rect class="BoundingBox" stroke="none" fill="none" x="8658" y="4077" width="466" height="415"/>
         <defs>
          <clipPath id="clip_path_5" clipPathUnits="userSpaceOnUse">
           <path d="M 8658,4077 L 9123,4077 9123,4491 8658,4491 8658,4077 Z"/>
          </clipPath>
         </defs>
         <g clip-path="url(#clip_path_5)">
          <path fill="rgb(0,0,0)" stroke="none" d="M 8799,4082 C 8799,4082 8799,4077 8793,4077 8781,4077 8745,4081 8733,4082 8729,4082 8723,4083 8723,4092 8723,4098 8728,4098 8735,4098 8759,4098 8760,4101 8760,4106 L 8758,4116 8687,4398 C 8685,4405 8685,4406 8685,4409 8685,4420 8695,4423 8699,4423 8707,4423 8715,4417 8717,4410 L 8727,4373 8738,4329 C 8741,4318 8743,4307 8746,4296 8747,4293 8751,4277 8751,4274 8753,4269 8768,4242 8785,4229 8796,4221 8811,4211 8832,4211 8853,4211 8858,4228 8858,4246 8858,4272 8840,4326 8828,4356 8824,4367 8822,4373 8822,4383 8822,4406 8839,4423 8862,4423 8908,4423 8926,4351 8926,4347 8926,4342 8922,4342 8920,4342 8915,4342 8915,4344 8913,4351 8906,4377 8890,4412 8863,4412 8855,4412 8851,4407 8851,4396 8851,4384 8856,4372 8860,4361 8868,4340 8890,4282 8890,4253 8890,4221 8870,4201 8833,4201 8802,4201 8779,4216 8761,4238 L 8799,4082 8799,4082 Z"/>
          <path fill="rgb(0,0,0)" stroke="none" d="M 9123,4435 L 9123,4422 9085,4422 9085,4269 C 9085,4262 9085,4260 9077,4260 9073,4260 9072,4260 9068,4264 L 8954,4422 8954,4435 9056,4435 9056,4463 C 9056,4475 9056,4479 9028,4479 L 9018,4479 9018,4491 C 9036,4490 9058,4490 9070,4490 9083,4490 9105,4490 9122,4491 L 9122,4479 9113,4479 C 9085,4479 9085,4475 9085,4463 L 9085,4435 9123,4435 9123,4435 Z M 9058,4297 L 9058,4422 8967,4422 9058,4297 9058,4297 Z"/>
         </g>
        </g>
       </g>
      </g>
      <g class="com.sun.star.drawing.CustomShape">
       <g id="id10">
        <rect class="BoundingBox" stroke="none" fill="none" x="8755" y="1628" width="284" height="2189"/>
        <path fill="none" stroke="rgb(51,51,51)" stroke-width="28" stroke-linejoin="round" d="M 8769,1642 C 8832,1642 8896,1715 8896,1788 L 8896,2591 C 8896,2664 8960,2737 9024,2737 8960,2737 8896,2810 8896,2883 L 8896,3656 C 8896,3729 8832,3802 8769,3802"/>
       </g>
      </g>
      <g class="com.sun.star.drawing.CustomShape">
       <g id="id11">
        <rect class="BoundingBox" stroke="none" fill="none" x="8756" y="4728" width="284" height="2189"/>
        <path fill="none" stroke="rgb(51,51,51)" stroke-width="28" stroke-linejoin="round" d="M 8770,4742 C 8833,4742 8897,4815 8897,4888 L 8897,5691 C 8897,5764 8961,5837 9025,5837 8961,5837 8897,5910 8897,5983 L 8897,6756 C 8897,6829 8833,6902 8770,6902"/>
       </g>
      </g>
      <g class="Group">
       <g class="Graphic">
        <g id="id12">
         <rect class="BoundingBox" stroke="none" fill="none" x="9144" y="2180" width="1721" height="488"/>
         <path fill="rgb(0,0,0)" stroke="none" d="M 9425,2331 C 9445,2298 9463,2297 9479,2296 9484,2296 9484,2289 9484,2288 9484,2285 9482,2283 9479,2283 9468,2283 9455,2284 9444,2284 9430,2284 9416,2283 9402,2283 9400,2283 9394,2283 9394,2291 9394,2296 9398,2296 9401,2296 9412,2297 9420,2301 9420,2310 9420,2316 9414,2326 9414,2326 L 9285,2531 9256,2309 C 9256,2302 9266,2296 9285,2296 9291,2296 9296,2296 9296,2288 9296,2284 9292,2283 9290,2283 9273,2283 9255,2284 9237,2284 9230,2284 9222,2284 9214,2284 9207,2284 9199,2283 9191,2283 9189,2283 9183,2283 9183,2291 9183,2296 9187,2296 9194,2296 9218,2296 9218,2300 9219,2310 L 9253,2570 C 9254,2578 9256,2579 9261,2579 9268,2579 9269,2577 9273,2572 L 9425,2331 9425,2331 Z"/>
         <path fill="rgb(0,0,0)" stroke="none" d="M 9898,2465 C 9898,2388 9834,2325 9757,2325 9679,2325 9616,2389 9616,2465 9616,2542 9680,2605 9757,2605 9835,2605 9898,2542 9898,2465 L 9898,2465 Z M 9757,2594 C 9685,2594 9627,2536 9627,2465 9627,2393 9686,2336 9757,2336 9829,2336 9887,2394 9887,2465 9887,2537 9828,2594 9757,2594 L 9757,2594 Z M 9786,2465 C 9786,2449 9773,2436 9757,2436 9740,2436 9728,2450 9728,2465 9728,2481 9741,2494 9757,2494 9774,2494 9786,2480 9786,2465 L 9786,2465 Z"/>
         <path fill="rgb(0,0,0)" stroke="none" d="M 10405,2316 C 10409,2300 10410,2296 10441,2296 10451,2296 10455,2296 10455,2288 10455,2283 10451,2283 10444,2283 L 10388,2283 C 10377,2283 10377,2283 10371,2291 L 10218,2531 10185,2293 C 10183,2283 10183,2283 10172,2283 L 10114,2283 C 10106,2283 10101,2283 10101,2291 10101,2296 10105,2296 10113,2296 10119,2296 10127,2297 10132,2297 10138,2298 10141,2299 10141,2304 10141,2305 10140,2307 10139,2312 L 10086,2526 C 10081,2542 10074,2556 10040,2557 10038,2557 10032,2558 10032,2565 10032,2569 10035,2570 10038,2570 10052,2570 10067,2569 10081,2569 10095,2569 10110,2570 10124,2570 10126,2570 10132,2570 10132,2562 10132,2557 10127,2557 10124,2557 10100,2557 10095,2548 10095,2539 10095,2536 10096,2534 10097,2529 L 10154,2300 10155,2300 10191,2560 C 10192,2565 10192,2570 10197,2570 10202,2570 10205,2565 10207,2563 L 10377,2297 10377,2297 10317,2537 C 10313,2554 10312,2557 10279,2557 10272,2557 10267,2557 10267,2565 10267,2570 10272,2570 10273,2570 10285,2570 10314,2569 10326,2569 10343,2569 10361,2570 10378,2570 10381,2570 10386,2570 10386,2562 10386,2557 10382,2557 10374,2557 10359,2557 10347,2557 10347,2550 10347,2548 10347,2547 10349,2539 L 10405,2316 10405,2316 Z"/>
         <path fill="rgb(0,0,0)" stroke="none" d="M 10681,2231 C 10692,2215 10701,2208 10717,2206 10721,2206 10724,2206 10724,2200 10724,2199 10723,2196 10720,2196 10713,2196 10704,2197 10696,2197 10687,2197 10674,2196 10665,2196 10663,2196 10660,2197 10660,2202 10660,2206 10664,2206 10665,2206 10674,2207 10677,2211 10677,2215 10677,2219 10675,2222 10672,2227 L 10575,2369 10548,2219 C 10547,2216 10547,2216 10547,2214 10547,2206 10564,2206 10566,2206 10571,2206 10575,2206 10575,2200 10575,2200 10575,2196 10570,2196 10561,2196 10540,2197 10532,2197 10524,2197 10506,2196 10499,2196 10496,2196 10493,2197 10493,2202 10493,2206 10497,2206 10500,2206 10517,2206 10517,2208 10519,2216 L 10551,2395 C 10552,2401 10552,2403 10558,2403 10564,2403 10565,2400 10568,2396 L 10681,2231 10681,2231 Z"/>
         <path fill="rgb(0,0,0)" stroke="none" d="M 10848,2570 C 10848,2542 10838,2526 10821,2526 10807,2526 10799,2536 10799,2548 10799,2559 10807,2570 10821,2570 10826,2570 10832,2568 10836,2565 10837,2564 10838,2563 10838,2563 10838,2563 10839,2564 10839,2570 10839,2601 10824,2626 10810,2640 10806,2644 10806,2645 10806,2647 10806,2650 10808,2651 10810,2651 10814,2651 10848,2619 10848,2570 L 10848,2570 Z"/>
        </g>
       </g>
      </g>
      <g class="Group">
       <g class="Graphic">
        <g id="id13">
         <rect class="BoundingBox" stroke="none" fill="none" x="9038" y="5293" width="1928" height="488"/>
         <path fill="rgb(0,0,0)" stroke="none" d="M 9440,5445 C 9451,5426 9461,5411 9487,5409 9491,5409 9496,5409 9496,5401 9496,5399 9494,5396 9490,5396 9480,5396 9469,5397 9458,5397 9444,5397 9428,5396 9414,5396 9412,5396 9406,5396 9406,5404 9406,5409 9410,5409 9412,5409 9423,5410 9437,5413 9437,5426 9437,5430 9435,5434 9432,5439 L 9318,5637 9302,5429 C 9302,5421 9301,5410 9332,5409 9339,5409 9343,5409 9343,5401 9343,5397 9339,5396 9337,5396 9320,5396 9302,5397 9286,5397 9276,5397 9251,5396 9241,5396 9239,5396 9233,5396 9233,5405 9233,5409 9238,5409 9243,5409 9262,5409 9265,5412 9266,5420 L 9268,5452 9162,5637 9146,5424 C 9146,5419 9146,5410 9178,5409 9182,5409 9187,5409 9187,5401 9187,5396 9182,5396 9181,5396 9164,5396 9146,5397 9129,5397 9114,5397 9099,5396 9085,5396 9083,5396 9077,5396 9077,5404 9077,5409 9081,5409 9088,5409 9109,5409 9109,5413 9110,5425 L 9129,5681 C 9129,5689 9130,5692 9136,5692 9141,5692 9142,5690 9146,5684 L 9270,5469 9285,5681 C 9286,5690 9287,5692 9292,5692 9297,5692 9300,5688 9302,5684 L 9440,5445 9440,5445 Z"/>
         <path fill="rgb(0,0,0)" stroke="none" d="M 9908,5578 C 9908,5501 9845,5438 9768,5438 9690,5438 9627,5502 9627,5578 9627,5655 9690,5718 9768,5718 9846,5718 9908,5655 9908,5578 L 9908,5578 Z M 9768,5707 C 9695,5707 9638,5649 9638,5578 9638,5506 9697,5449 9768,5449 9840,5449 9898,5507 9898,5578 9898,5650 9839,5707 9768,5707 L 9768,5707 Z M 9797,5578 C 9797,5562 9784,5549 9768,5549 9751,5549 9739,5563 9739,5578 9739,5594 9752,5607 9768,5607 9784,5607 9797,5593 9797,5578 L 9797,5578 Z"/>
         <path fill="rgb(0,0,0)" stroke="none" d="M 10416,5429 C 10419,5413 10420,5409 10452,5409 10462,5409 10465,5409 10465,5401 10465,5396 10461,5396 10454,5396 L 10398,5396 C 10387,5396 10387,5396 10382,5404 L 10228,5644 10195,5406 C 10194,5396 10193,5396 10182,5396 L 10124,5396 C 10116,5396 10112,5396 10112,5404 10112,5409 10116,5409 10124,5409 10130,5409 10137,5410 10142,5410 10149,5411 10151,5412 10151,5417 10151,5418 10151,5420 10150,5425 L 10096,5639 C 10092,5655 10085,5669 10051,5670 10049,5670 10043,5671 10043,5678 10043,5682 10046,5683 10049,5683 10063,5683 10077,5682 10091,5682 10106,5682 10121,5683 10135,5683 10137,5683 10142,5683 10142,5675 10142,5670 10138,5670 10135,5670 10111,5670 10106,5661 10106,5652 10106,5649 10106,5647 10108,5642 L 10165,5413 10165,5413 10202,5673 C 10202,5678 10203,5683 10208,5683 10213,5683 10215,5678 10217,5676 L 10387,5410 10388,5410 10328,5650 C 10323,5667 10323,5670 10289,5670 10282,5670 10277,5670 10277,5678 10277,5683 10283,5683 10284,5683 10296,5683 10324,5682 10336,5682 10353,5682 10371,5683 10389,5683 10391,5683 10397,5683 10397,5675 10397,5670 10393,5670 10385,5670 10369,5670 10358,5670 10358,5663 10358,5661 10358,5660 10360,5652 L 10416,5429 10416,5429 Z"/>
         <path fill="rgb(0,0,0)" stroke="none" d="M 10786,5344 L 10791,5336 C 10797,5328 10804,5321 10819,5319 10822,5319 10826,5319 10826,5313 10826,5311 10824,5309 10822,5309 10815,5309 10806,5310 10799,5310 10789,5310 10776,5309 10766,5309 10765,5309 10760,5309 10760,5315 10760,5319 10764,5319 10765,5319 10772,5320 10782,5321 10782,5330 10782,5333 10778,5338 10777,5340 L 10694,5476 10678,5328 C 10678,5320 10695,5319 10699,5319 10702,5319 10706,5319 10706,5313 10706,5313 10706,5309 10701,5309 10696,5309 10689,5309 10683,5310 10677,5310 10670,5310 10664,5310 10657,5310 10640,5309 10633,5309 10631,5309 10627,5309 10627,5315 10627,5319 10631,5319 10635,5319 10647,5319 10649,5321 10650,5324 10650,5326 10650,5334 10652,5344 L 10570,5476 10555,5332 C 10555,5331 10554,5328 10554,5328 10554,5319 10573,5319 10575,5319 10579,5319 10583,5319 10583,5313 10583,5312 10582,5309 10578,5309 10570,5309 10549,5310 10540,5310 10530,5310 10518,5309 10509,5309 10506,5309 10503,5310 10503,5315 10503,5319 10507,5319 10511,5319 10525,5319 10525,5321 10526,5329 L 10546,5508 C 10547,5513 10547,5516 10552,5516 10557,5516 10559,5513 10561,5510 L 10653,5359 10669,5508 C 10670,5514 10671,5516 10676,5516 10681,5516 10683,5513 10685,5509 L 10786,5344 10786,5344 Z"/>
         <path fill="rgb(0,0,0)" stroke="none" d="M 10949,5683 C 10949,5655 10939,5639 10922,5639 10908,5639 10900,5649 10900,5661 10900,5672 10908,5683 10922,5683 10927,5683 10933,5681 10937,5678 10938,5677 10939,5676 10939,5676 10939,5676 10940,5677 10940,5683 10940,5714 10925,5739 10911,5753 10907,5757 10907,5758 10907,5760 10907,5763 10909,5764 10911,5764 10915,5764 10949,5732 10949,5683 L 10949,5683 Z"/>
        </g>
       </g>
      </g>
      <g class="com.sun.star.drawing.CustomShape">
       <g id="id14">
        <rect class="BoundingBox" stroke="none" fill="none" x="1630" y="3749" width="1030" height="1030"/>
        <path fill="none" stroke="rgb(17,17,17)" stroke-width="28" stroke-linejoin="round" d="M 2645,4264 C 2645,4351 2622,4438 2578,4514 2534,4590 2471,4653 2395,4697 2319,4741 2232,4764 2145,4764 2057,4764 1970,4741 1894,4697 1818,4653 1755,4590 1711,4514 1667,4438 1644,4351 1644,4264 1644,4176 1667,4089 1711,4013 1755,3937 1818,3874 1894,3830 1970,3786 2057,3763 2144,3763 2232,3763 2319,3786 2395,3830 2471,3874 2534,3937 2578,4013 2622,4089 2645,4176 2645,4263 L 2645,4264 Z"/>
       </g>
      </g>
      <g class="com.sun.star.drawing.CustomShape">
       <g id="id15">
        <rect class="BoundingBox" stroke="none" fill="none" x="3631" y="3750" width="1030" height="1030"/>
        <path fill="none" stroke="rgb(17,17,17)" stroke-width="28" stroke-linejoin="round" d="M 4646,4265 C 4646,4352 4623,4439 4579,4515 4535,4591 4472,4654 4396,4698 4320,4742 4233,4765 4146,4765 4058,4765 3971,4742 3895,4698 3819,4654 3756,4591 3712,4515 3668,4439 3645,4352 3645,4265 3645,4177 3668,4090 3712,4014 3756,3938 3819,3875 3895,3831 3971,3787 4058,3764 4146,3764 4233,3764 4320,3787 4396,3831 4472,3875 4535,3938 4579,4014 4623,4090 4646,4177 4646,4264 L 4646,4265 Z"/>
       </g>
      </g>
      <g class="com.sun.star.drawing.CustomShape">
       <g id="id16">
        <rect class="BoundingBox" stroke="none" fill="none" x="5632" y="3751" width="1030" height="1030"/>
        <path fill="none" stroke="rgb(17,17,17)" stroke-width="28" stroke-linejoin="round" d="M 6647,4266 C 6647,4353 6624,4440 6580,4516 6536,4592 6473,4655 6397,4699 6321,4743 6234,4766 6147,4766 6059,4766 5972,4743 5896,4699 5820,4655 5757,4592 5713,4516 5669,4440 5646,4353 5646,4266 5646,4178 5669,4091 5713,4015 5757,3939 5820,3876 5896,3832 5972,3788 6059,3765 6147,3765 6234,3765 6321,3788 6397,3832 6473,3876 6536,3939 6580,4015 6624,4091 6647,4178 6647,4265 L 6647,4266 Z"/>
       </g>
      </g>
      <g class="com.sun.star.drawing.CustomShape">
       <g id="id17">
        <rect class="BoundingBox" stroke="none" fill="none" x="7633" y="3752" width="1030" height="1030"/>
        <path fill="none" stroke="rgb(17,17,17)" stroke-width="28" stroke-linejoin="round" d="M 8648,4267 C 8648,4354 8625,4441 8581,4517 8537,4593 8474,4656 8398,4700 8322,4744 8235,4767 8148,4767 8060,4767 7973,4744 7897,4700 7821,4656 7758,4593 7714,4517 7670,4441 7647,4354 7647,4267 7647,4179 7670,4092 7714,4016 7758,3940 7821,3877 7897,3833 7973,3789 8060,3766 8148,3766 8235,3766 8322,3789 8398,3833 8474,3877 8537,3940 8581,4016 8625,4092 8648,4179 8648,4267 Z"/>
       </g>
      </g>
      <g class="com.sun.star.drawing.CustomShape">
       <g id="id18">
        <rect class="BoundingBox" stroke="none" fill="none" x="2630" y="6749" width="1030" height="1030"/>
        <path fill="none" stroke="rgb(17,17,17)" stroke-width="28" stroke-linejoin="round" d="M 3645,7264 C 3645,7351 3622,7438 3578,7514 3534,7590 3471,7653 3395,7697 3319,7741 3232,7764 3145,7764 3057,7764 2970,7741 2894,7697 2818,7653 2755,7590 2711,7514 2667,7438 2644,7351 2644,7264 2644,7176 2667,7089 2711,7013 2755,6937 2818,6874 2894,6830 2970,6786 3057,6763 3144,6763 3232,6763 3319,6786 3395,6830 3471,6874 3534,6937 3578,7013 3622,7089 3645,7176 3645,7263 L 3645,7264 Z"/>
       </g>
      </g>
      <g class="com.sun.star.drawing.CustomShape">
       <g id="id19">
        <rect class="BoundingBox" stroke="none" fill="none" x="4631" y="6750" width="1030" height="1030"/>
        <path fill="none" stroke="rgb(17,17,17)" stroke-width="28" stroke-linejoin="round" d="M 5646,7265 C 5646,7352 5623,7439 5579,7515 5535,7591 5472,7654 5396,7698 5320,7742 5233,7765 5146,7765 5058,7765 4971,7742 4895,7698 4819,7654 4756,7591 4712,7515 4668,7439 4645,7352 4645,7265 4645,7177 4668,7090 4712,7014 4756,6938 4819,6875 4895,6831 4971,6787 5058,6764 5146,6764 5233,6764 5320,6787 5396,6831 5472,6875 5535,6938 5579,7014 5623,7090 5646,7177 5646,7264 L 5646,7265 Z"/>
       </g>
      </g>
      <g class="com.sun.star.drawing.CustomShape">
       <g id="id20">
        <rect class="BoundingBox" stroke="none" fill="none" x="6632" y="6751" width="1030" height="1030"/>
        <path fill="none" stroke="rgb(17,17,17)" stroke-width="28" stroke-linejoin="round" d="M 7647,7266 C 7647,7353 7624,7440 7580,7516 7536,7592 7473,7655 7397,7699 7321,7743 7234,7766 7147,7766 7059,7766 6972,7743 6896,7699 6820,7655 6757,7592 6713,7516 6669,7440 6646,7353 6646,7266 6646,7178 6669,7091 6713,7015 6757,6939 6820,6876 6896,6832 6972,6788 7059,6765 7147,6765 7234,6765 7321,6788 7397,6832 7473,6876 7536,6939 7580,7015 7624,7091 7647,7178 7647,7265 L 7647,7266 Z"/>
       </g>
      </g>
      <g class="Group">
       <g class="Graphic">
        <g id="id21">
         <rect class="BoundingBox" stroke="none" fill="none" x="2927" y="7912" width="481" height="329"/>
         <path fill="rgb(8,145,209)" stroke="none" d="M 3109,7999 C 3112,7987 3124,7941 3158,7941 3160,7941 3172,7941 3183,7948 3169,7950 3159,7962 3159,7974 3159,7982 3164,7991 3178,7991 3188,7991 3204,7983 3204,7963 3204,7937 3175,7931 3159,7931 3130,7931 3113,7957 3107,7968 3095,7935 3068,7931 3054,7931 3003,7931 2975,7994 2975,8006 2975,8011 2980,8011 2981,8011 2985,8011 2986,8010 2987,8006 3004,7954 3036,7941 3053,7941 3062,7941 3079,7946 3079,7974 3079,7989 3071,8022 3053,8091 3045,8122 3028,8142 3006,8142 3003,8142 2992,8142 2982,8136 2994,8134 3005,8123 3005,8109 3005,8096 2994,8092 2987,8092 2972,8092 2960,8105 2960,8121 2960,8143 2984,8153 3006,8153 3038,8153 3056,8119 3057,8116 3063,8134 3081,8153 3110,8153 3161,8153 3189,8090 3189,8077 3189,8073 3185,8073 3183,8073 3179,8073 3178,8075 3177,8078 3160,8131 3127,8142 3111,8142 3092,8142 3084,8127 3084,8110 3084,8099 3087,8088 3093,8067 L 3109,7999 3109,7999 Z"/>
         <path fill="rgb(8,145,209)" stroke="none" d="M 3341,8003 C 3341,7993 3340,7993 3331,7993 3309,8015 3278,8015 3263,8015 L 3263,8027 C 3272,8027 3294,8027 3313,8018 L 3313,8193 C 3313,8205 3313,8209 3279,8209 L 3266,8209 3266,8221 C 3272,8221 3314,8220 3327,8220 3338,8220 3381,8221 3389,8221 L 3389,8209 3375,8209 C 3341,8209 3341,8205 3341,8193 L 3341,8003 3341,8003 Z"/>
        </g>
       </g>
      </g>
      <g class="Group">
       <g class="Graphic">
        <g id="id22">
         <rect class="BoundingBox" stroke="none" fill="none" x="4930" y="7912" width="492" height="329"/>
         <path fill="rgb(255,140,0)" stroke="none" d="M 5112,7999 C 5115,7987 5127,7941 5161,7941 5163,7941 5175,7941 5186,7948 5172,7950 5162,7962 5162,7974 5162,7982 5167,7991 5181,7991 5191,7991 5207,7983 5207,7963 5207,7937 5178,7931 5162,7931 5133,7931 5116,7957 5110,7968 5098,7935 5071,7931 5057,7931 5006,7931 4978,7994 4978,8006 4978,8011 4983,8011 4984,8011 4988,8011 4989,8010 4990,8006 5007,7954 5039,7941 5056,7941 5065,7941 5082,7946 5082,7974 5082,7989 5074,8022 5056,8091 5048,8122 5031,8142 5009,8142 5006,8142 4995,8142 4985,8136 4997,8134 5008,8123 5008,8109 5008,8096 4997,8092 4990,8092 4975,8092 4963,8105 4963,8121 4963,8143 4987,8153 5009,8153 5041,8153 5059,8119 5060,8116 5066,8134 5084,8153 5113,8153 5164,8153 5192,8090 5192,8077 5192,8073 5188,8073 5186,8073 5182,8073 5181,8075 5180,8078 5163,8131 5130,8142 5114,8142 5095,8142 5087,8127 5087,8110 5087,8099 5090,8088 5096,8067 L 5112,7999 5112,7999 Z"/>
         <path fill="rgb(255,140,0)" stroke="none" d="M 5403,8159 L 5391,8159 C 5390,8166 5386,8187 5382,8190 5379,8192 5353,8192 5348,8192 L 5285,8192 C 5321,8160 5333,8151 5353,8134 5379,8114 5403,8093 5403,8060 5403,8018 5366,7993 5322,7993 5280,7993 5251,8023 5251,8055 5251,8072 5265,8074 5269,8074 5277,8074 5287,8068 5287,8056 5287,8049 5285,8037 5267,8037 5277,8013 5301,8005 5317,8005 5351,8005 5369,8032 5369,8060 5369,8090 5348,8114 5337,8126 L 5254,8208 C 5251,8211 5251,8212 5251,8221 L 5392,8221 5403,8159 5403,8159 Z"/>
        </g>
       </g>
      </g>
      <g class="Group">
       <g class="Graphic">
        <g id="id23">
         <rect class="BoundingBox" stroke="none" fill="none" x="6927" y="7914" width="457" height="298"/>
         <defs>
          <clipPath id="clip_path_6" clipPathUnits="userSpaceOnUse">
           <path d="M 6927,7914 L 7383,7914 7383,8211 6927,8211 6927,7914 Z"/>
          </clipPath>
         </defs>
         <g clip-path="url(#clip_path_6)">
          <path fill="rgb(0,128,0)" stroke="none" d="M 7091,7983 C 7093,7970 7105,7925 7139,7925 7141,7925 7153,7925 7163,7931 7150,7934 7140,7946 7140,7958 7140,7965 7145,7975 7159,7975 7169,7975 7185,7966 7185,7946 7185,7921 7156,7914 7139,7914 7111,7914 7094,7940 7088,7951 7076,7919 7049,7914 7035,7914 6984,7914 6956,7977 6956,7989 6956,7994 6961,7994 6962,7994 6966,7994 6968,7993 6969,7989 6985,7937 7018,7925 7034,7925 7044,7925 7061,7929 7061,7958 7061,7973 7052,8006 7034,8074 7026,8105 7009,8125 6988,8125 6985,8125 6974,8125 6963,8119 6975,8116 6986,8106 6986,8092 6986,8079 6975,8075 6968,8075 6953,8075 6941,8088 6941,8104 6941,8126 6966,8136 6987,8136 7020,8136 7037,8102 7039,8099 7045,8117 7062,8136 7092,8136 7142,8136 7170,8073 7170,8061 7170,8056 7165,8056 7164,8056 7160,8056 7159,8058 7158,8061 7141,8113 7108,8125 7092,8125 7073,8125 7066,8110 7066,8093 7066,8082 7069,8071 7074,8050 L 7091,7983 7091,7983 Z"/>
          <path fill="rgb(0,128,0)" stroke="none" d="M 7300,8090 C 7327,8090 7346,8108 7346,8145 7346,8187 7322,8200 7302,8200 7288,8200 7258,8196 7244,8176 7260,8175 7263,8164 7263,8157 7263,8146 7255,8138 7245,8138 7235,8138 7225,8144 7225,8158 7225,8190 7261,8211 7302,8211 7350,8211 7383,8179 7383,8145 7383,8118 7361,8091 7323,8083 7359,8070 7372,8045 7372,8024 7372,7997 7341,7976 7303,7976 7265,7976 7236,7995 7236,8022 7236,8034 7244,8040 7254,8040 7264,8040 7271,8033 7271,8023 7271,8013 7264,8006 7254,8005 7266,7990 7289,7986 7302,7986 7318,7986 7339,7994 7339,8024 7339,8038 7334,8054 7325,8065 7314,8078 7305,8078 7287,8079 7279,8080 7278,8080 7276,8080 7276,8080 7273,8081 7273,8085 7273,8090 7276,8090 7282,8090 L 7300,8090 7300,8090 Z"/>
         </g>
        </g>
       </g>
      </g>
      <g class="com.sun.star.drawing.CustomShape">
       <g id="id24">
        <rect class="BoundingBox" stroke="none" fill="none" x="2629" y="748" width="1030" height="1030"/>
        <path fill="none" stroke="rgb(17,17,17)" stroke-width="28" stroke-linejoin="round" d="M 3644,1263 C 3644,1350 3621,1437 3577,1513 3533,1589 3470,1652 3394,1696 3318,1740 3231,1763 3144,1763 3056,1763 2969,1740 2893,1696 2817,1652 2754,1589 2710,1513 2666,1437 2643,1350 2643,1263 2643,1175 2666,1088 2710,1012 2754,936 2817,873 2893,829 2969,785 3056,762 3143,762 3231,762 3318,785 3394,829 3470,873 3533,936 3577,1012 3621,1088 3644,1175 3644,1262 L 3644,1263 Z"/>
       </g>
      </g>
      <g class="com.sun.star.drawing.CustomShape">
       <g id="id25">
        <rect class="BoundingBox" stroke="none" fill="none" x="4630" y="749" width="1030" height="1030"/>
        <path fill="none" stroke="rgb(17,17,17)" stroke-width="28" stroke-linejoin="round" d="M 5645,1264 C 5645,1351 5622,1438 5578,1514 5534,1590 5471,1653 5395,1697 5319,1741 5232,1764 5145,1764 5057,1764 4970,1741 4894,1697 4818,1653 4755,1590 4711,1514 4667,1438 4644,1351 4644,1264 4644,1176 4667,1089 4711,1013 4755,937 4818,874 4894,830 4970,786 5057,763 5145,763 5232,763 5319,786 5395,830 5471,874 5534,937 5578,1013 5622,1089 5645,1176 5645,1263 L 5645,1264 Z"/>
       </g>
      </g>
      <g class="com.sun.star.drawing.CustomShape">
       <g id="id26">
        <rect class="BoundingBox" stroke="none" fill="none" x="6631" y="750" width="1030" height="1030"/>
        <path fill="none" stroke="rgb(17,17,17)" stroke-width="28" stroke-linejoin="round" d="M 7646,1265 C 7646,1352 7623,1439 7579,1515 7535,1591 7472,1654 7396,1698 7320,1742 7233,1765 7146,1765 7058,1765 6971,1742 6895,1698 6819,1654 6756,1591 6712,1515 6668,1439 6645,1352 6645,1265 6645,1177 6668,1090 6712,1014 6756,938 6819,875 6895,831 6971,787 7058,764 7146,764 7233,764 7320,787 7396,831 7472,875 7535,938 7579,1014 7623,1090 7646,1177 7646,1264 L 7646,1265 Z"/>
       </g>
      </g>
      <g class="Group">
       <g class="Graphic">
        <g id="id27">
         <rect class="BoundingBox" stroke="none" fill="none" x="4929" y="213" width="492" height="452"/>
         <path fill="rgb(0,0,0)" stroke="none" d="M 5101,231 L 5036,298 5044,307 5101,257 5158,307 5167,298 5101,231 5101,231 Z"/>
         <path fill="rgb(0,0,0)" stroke="none" d="M 5111,424 C 5114,411 5126,366 5160,366 5162,366 5174,366 5185,372 5171,375 5161,387 5161,399 5161,407 5166,416 5180,416 5190,416 5206,407 5206,387 5206,362 5177,355 5161,355 5132,355 5115,381 5109,392 5097,360 5070,355 5056,355 5005,355 4977,418 4977,431 4977,436 4982,436 4983,436 4987,436 4988,435 4989,430 5006,378 5038,366 5055,366 5064,366 5081,370 5081,399 5081,414 5073,447 5055,516 5047,546 5030,567 5008,567 5005,567 4994,567 4984,560 4996,558 5007,547 5007,534 5007,520 4996,517 4989,517 4974,517 4962,529 4962,545 4962,568 4986,577 5008,577 5040,577 5058,543 5059,540 5065,558 5083,577 5112,577 5163,577 5191,514 5191,502 5191,497 5187,497 5185,497 5181,497 5180,499 5179,502 5162,555 5129,567 5113,567 5094,567 5086,551 5086,534 5086,523 5089,513 5095,491 L 5111,424 5111,424 Z"/>
         <path fill="rgb(0,0,0)" stroke="none" d="M 5402,583 L 5390,583 C 5389,591 5385,611 5381,614 5378,616 5352,616 5347,616 L 5284,616 C 5320,584 5332,575 5352,559 5378,538 5402,517 5402,484 5402,443 5365,418 5321,418 5279,418 5250,447 5250,479 5250,496 5264,498 5268,498 5276,498 5286,492 5286,480 5286,474 5284,462 5266,462 5276,437 5300,430 5316,430 5350,430 5368,457 5368,484 5368,514 5347,538 5336,550 L 5253,632 C 5250,635 5250,636 5250,646 L 5391,646 5402,583 5402,583 Z"/>
        </g>
       </g>
      </g>
      <g class="Group">
       <g class="Graphic">
        <g id="id28">
         <rect class="BoundingBox" stroke="none" fill="none" x="6927" y="213" width="495" height="459"/>
         <path fill="rgb(0,0,0)" stroke="none" d="M 7099,231 L 7034,298 7042,307 7099,257 7156,307 7165,298 7099,231 7099,231 Z"/>
         <path fill="rgb(0,0,0)" stroke="none" d="M 7109,424 C 7112,411 7124,366 7158,366 7160,366 7172,366 7183,372 7169,375 7159,387 7159,399 7159,407 7164,416 7178,416 7188,416 7204,407 7204,388 7204,362 7175,355 7158,355 7130,355 7113,381 7107,392 7095,360 7068,355 7054,355 7003,355 6975,418 6975,431 6975,436 6980,436 6981,436 6985,436 6986,435 6987,430 7004,378 7036,366 7053,366 7062,366 7079,370 7079,399 7079,414 7071,447 7053,516 7045,546 7028,567 7006,567 7003,567 6992,567 6982,560 6994,558 7005,548 7005,534 7005,521 6994,517 6987,517 6972,517 6960,529 6960,545 6960,568 6984,577 7006,577 7038,577 7056,543 7057,540 7063,558 7081,577 7110,577 7161,577 7189,514 7189,502 7189,497 7184,497 7183,497 7179,497 7178,499 7177,502 7160,555 7127,567 7111,567 7092,567 7084,551 7084,534 7084,523 7087,513 7093,491 L 7109,424 7109,424 Z"/>
         <path fill="rgb(0,0,0)" stroke="none" d="M 7320,531 C 7347,531 7366,549 7366,586 7366,629 7341,642 7321,642 7307,642 7277,638 7263,617 7279,617 7283,605 7283,598 7283,587 7274,579 7264,579 7254,579 7245,585 7245,599 7245,632 7280,653 7322,653 7370,653 7403,621 7403,586 7403,559 7381,533 7343,525 7379,512 7392,486 7392,465 7392,438 7361,418 7322,418 7284,418 7255,436 7255,464 7255,475 7263,482 7273,482 7284,482 7291,474 7291,464 7291,454 7284,447 7273,446 7285,431 7309,428 7321,428 7337,428 7359,435 7359,465 7359,479 7354,495 7345,506 7333,519 7324,520 7307,521 7298,521 7297,521 7296,522 7295,522 7292,522 7292,526 7292,531 7295,531 7301,531 L 7320,531 7320,531 Z"/>
        </g>
       </g>
      </g>
      <g class="Group">
       <g class="Graphic">
        <g id="id29">
         <rect class="BoundingBox" stroke="none" fill="none" x="2927" y="214" width="481" height="452"/>
         <path fill="rgb(0,0,0)" stroke="none" d="M 3099,232 L 3034,299 3042,308 3099,258 3156,308 3165,299 3099,232 3099,232 Z"/>
         <path fill="rgb(0,0,0)" stroke="none" d="M 3109,425 C 3112,412 3124,367 3158,367 3160,367 3172,367 3183,373 3169,376 3159,388 3159,400 3159,408 3164,417 3178,417 3188,417 3204,408 3204,388 3204,363 3175,356 3159,356 3130,356 3113,382 3107,393 3095,361 3068,356 3054,356 3003,356 2975,419 2975,432 2975,437 2980,437 2981,437 2985,437 2986,436 2987,431 3004,379 3036,367 3053,367 3062,367 3079,371 3079,400 3079,415 3071,448 3053,517 3045,547 3028,568 3006,568 3003,568 2992,568 2982,561 2994,559 3005,548 3005,535 3005,521 2994,518 2987,518 2972,518 2960,530 2960,546 2960,569 2984,578 3006,578 3038,578 3056,544 3057,541 3063,559 3081,578 3110,578 3161,578 3189,515 3189,503 3189,498 3185,498 3183,498 3179,498 3178,500 3177,503 3160,556 3127,568 3111,568 3092,568 3084,552 3084,535 3084,524 3087,514 3093,492 L 3109,425 3109,425 Z"/>
         <path fill="rgb(0,0,0)" stroke="none" d="M 3341,428 C 3341,419 3340,419 3331,419 3309,440 3278,440 3263,440 L 3263,453 C 3272,453 3294,453 3313,443 L 3313,618 C 3313,630 3313,634 3279,634 L 3266,634 3266,647 C 3272,646 3314,645 3327,645 3338,645 3381,646 3389,647 L 3389,634 3375,634 C 3341,634 3341,630 3341,618 L 3341,428 3341,428 Z"/>
        </g>
       </g>
      </g>
      <g class="Group">
       <g class="Graphic">
        <g id="id30">
         <rect class="BoundingBox" stroke="none" fill="none" x="2039" y="4101" width="205" height="327"/>
         <defs>
          <clipPath id="clip_path_7" clipPathUnits="userSpaceOnUse">
           <path d="M 2039,4101 L 2243,4101 2243,4427 2039,4427 2039,4101 Z"/>
          </clipPath>
         </defs>
         <g clip-path="url(#clip_path_7)">
          <path fill="rgb(0,0,0)" stroke="none" d="M 2182,4114 C 2182,4102 2182,4101 2171,4101 2141,4132 2098,4132 2082,4132 L 2082,4148 C 2092,4148 2121,4148 2146,4135 L 2146,4388 C 2146,4406 2145,4412 2101,4412 L 2085,4412 2085,4427 C 2102,4426 2145,4426 2164,4426 2184,4426 2226,4426 2243,4427 L 2243,4412 2227,4412 C 2184,4412 2182,4406 2182,4388 L 2182,4114 2182,4114 Z"/>
         </g>
        </g>
       </g>
      </g>
      <g class="Group">
       <g class="Graphic">
        <g id="id31">
         <rect class="BoundingBox" stroke="none" fill="none" x="4039" y="4101" width="221" height="327"/>
         <defs>
          <clipPath id="clip_path_8" clipPathUnits="userSpaceOnUse">
           <path d="M 4039,4101 L 4259,4101 4259,4427 4039,4427 4039,4101 Z"/>
          </clipPath>
         </defs>
         <g clip-path="url(#clip_path_8)">
          <path fill="rgb(0,0,0)" stroke="none" d="M 4101,4389 L 4153,4339 C 4230,4271 4259,4245 4259,4196 4259,4140 4215,4101 4155,4101 4100,4101 4063,4146 4063,4190 4063,4217 4088,4217 4089,4217 4098,4217 4115,4211 4115,4191 4115,4178 4106,4166 4089,4166 4085,4166 4084,4166 4083,4166 4094,4134 4120,4116 4149,4116 4193,4116 4214,4156 4214,4196 4214,4235 4190,4274 4163,4304 L 4069,4409 C 4063,4414 4063,4415 4063,4427 L 4245,4427 4259,4342 4247,4342 C 4244,4357 4241,4378 4236,4385 4233,4389 4200,4389 4189,4389 L 4101,4389 4101,4389 Z"/>
         </g>
        </g>
       </g>
      </g>
      <g class="Group">
       <g class="Graphic">
        <g id="id32">
         <rect class="BoundingBox" stroke="none" fill="none" x="6039" y="4101" width="205" height="327"/>
         <defs>
          <clipPath id="clip_path_9" clipPathUnits="userSpaceOnUse">
           <path d="M 6039,4101 L 6243,4101 6243,4427 6039,4427 6039,4101 Z"/>
          </clipPath>
         </defs>
         <g clip-path="url(#clip_path_9)">
          <path fill="rgb(0,0,0)" stroke="none" d="M 6182,4114 C 6182,4102 6182,4101 6171,4101 6141,4132 6098,4132 6082,4132 L 6082,4148 C 6092,4148 6121,4148 6146,4135 L 6146,4388 C 6146,4406 6145,4412 6101,4412 L 6085,4412 6085,4427 C 6102,4426 6145,4426 6164,4426 6184,4426 6226,4426 6243,4427 L 6243,4412 6227,4412 C 6184,4412 6182,4406 6182,4388 L 6182,4114 6182,4114 Z"/>
         </g>
        </g>
       </g>
      </g>
      <g class="Group">
       <g class="Graphic">
        <g id="id33">
         <rect class="BoundingBox" stroke="none" fill="none" x="8039" y="4101" width="221" height="327"/>
         <defs>
          <clipPath id="clip_path_10" clipPathUnits="userSpaceOnUse">
           <path d="M 8039,4101 L 8259,4101 8259,4427 8039,4427 8039,4101 Z"/>
          </clipPath>
         </defs>
         <g clip-path="url(#clip_path_10)">
          <path fill="rgb(0,0,0)" stroke="none" d="M 8101,4389 L 8153,4339 C 8230,4271 8259,4245 8259,4196 8259,4140 8215,4101 8155,4101 8100,4101 8063,4146 8063,4190 8063,4217 8088,4217 8089,4217 8098,4217 8115,4211 8115,4191 8115,4178 8106,4166 8089,4166 8085,4166 8084,4166 8083,4166 8094,4134 8120,4116 8149,4116 8193,4116 8214,4156 8214,4196 8214,4235 8190,4274 8163,4304 L 8069,4409 C 8063,4414 8063,4415 8063,4427 L 8245,4427 8259,4342 8247,4342 C 8244,4357 8241,4378 8236,4385 8233,4389 8200,4389 8189,4389 L 8101,4389 8101,4389 Z"/>
         </g>
        </g>
       </g>
      </g>
      <g class="Group">
       <g class="Graphic">
        <g id="id34">
         <rect class="BoundingBox" stroke="none" fill="none" x="3039" y="7101" width="205" height="327"/>
         <defs>
          <clipPath id="clip_path_11" clipPathUnits="userSpaceOnUse">
           <path d="M 3039,7101 L 3243,7101 3243,7427 3039,7427 3039,7101 Z"/>
          </clipPath>
         </defs>
         <g clip-path="url(#clip_path_11)">
          <path fill="rgb(0,0,0)" stroke="none" d="M 3182,7114 C 3182,7102 3182,7101 3171,7101 3141,7132 3098,7132 3082,7132 L 3082,7148 C 3092,7148 3121,7148 3146,7135 L 3146,7388 C 3146,7406 3145,7412 3101,7412 L 3085,7412 3085,7427 C 3102,7426 3145,7426 3164,7426 3184,7426 3226,7426 3243,7427 L 3243,7412 3227,7412 C 3184,7412 3182,7406 3182,7388 L 3182,7114 3182,7114 Z"/>
         </g>
        </g>
       </g>
      </g>
      <g class="Group">
       <g class="Graphic">
        <g id="id35">
         <rect class="BoundingBox" stroke="none" fill="none" x="5039" y="7101" width="221" height="327"/>
         <defs>
          <clipPath id="clip_path_12" clipPathUnits="userSpaceOnUse">
           <path d="M 5039,7101 L 5259,7101 5259,7427 5039,7427 5039,7101 Z"/>
          </clipPath>
         </defs>
         <g clip-path="url(#clip_path_12)">
          <path fill="rgb(0,0,0)" stroke="none" d="M 5101,7389 L 5153,7339 C 5230,7271 5259,7245 5259,7196 5259,7140 5215,7101 5155,7101 5100,7101 5063,7146 5063,7190 5063,7217 5088,7217 5089,7217 5098,7217 5115,7211 5115,7191 5115,7178 5106,7166 5089,7166 5085,7166 5084,7166 5083,7166 5094,7134 5120,7116 5149,7116 5193,7116 5214,7156 5214,7196 5214,7235 5190,7274 5163,7304 L 5069,7409 C 5063,7414 5063,7415 5063,7427 L 5245,7427 5259,7342 5247,7342 C 5244,7357 5241,7378 5236,7385 5233,7389 5200,7389 5189,7389 L 5101,7389 5101,7389 Z"/>
         </g>
        </g>
       </g>
      </g>
      <g class="Group">
       <g class="Graphic">
        <g id="id36">
         <rect class="BoundingBox" stroke="none" fill="none" x="7039" y="7102" width="225" height="338"/>
         <defs>
          <clipPath id="clip_path_13" clipPathUnits="userSpaceOnUse">
           <path d="M 7039,7102 L 7263,7102 7263,7439 7039,7439 7039,7102 Z"/>
          </clipPath>
         </defs>
         <g clip-path="url(#clip_path_13)">
          <path fill="rgb(0,0,0)" stroke="none" d="M 7181,7256 C 7221,7243 7250,7208 7250,7170 7250,7129 7207,7102 7160,7102 7110,7102 7073,7131 7073,7169 7073,7185 7084,7194 7098,7194 7113,7194 7123,7183 7123,7169 7123,7145 7100,7145 7092,7145 7108,7121 7140,7114 7158,7114 7178,7114 7205,7125 7205,7169 7205,7175 7204,7203 7191,7225 7176,7248 7160,7250 7147,7250 7143,7251 7132,7252 7128,7252 7124,7252 7121,7253 7121,7258 7121,7263 7124,7263 7133,7263 L 7154,7263 C 7194,7263 7213,7296 7213,7344 7213,7411 7179,7425 7157,7425 7136,7425 7099,7417 7082,7388 7099,7391 7114,7380 7114,7361 7114,7343 7101,7334 7087,7334 7075,7334 7060,7341 7060,7362 7060,7407 7105,7439 7159,7439 7218,7439 7263,7394 7263,7344 7263,7304 7232,7266 7181,7256 L 7181,7256 Z"/>
         </g>
        </g>
       </g>
      </g>
      <g class="Group">
       <g class="Graphic">
        <g id="id37">
         <rect class="BoundingBox" stroke="none" fill="none" x="3039" y="1101" width="205" height="327"/>
         <defs>
          <clipPath id="clip_path_14" clipPathUnits="userSpaceOnUse">
           <path d="M 3039,1101 L 3243,1101 3243,1427 3039,1427 3039,1101 Z"/>
          </clipPath>
         </defs>
         <g clip-path="url(#clip_path_14)">
          <path fill="rgb(0,0,0)" stroke="none" d="M 3182,1114 C 3182,1102 3182,1101 3171,1101 3141,1132 3098,1132 3082,1132 L 3082,1148 C 3092,1148 3121,1148 3146,1135 L 3146,1388 C 3146,1406 3145,1412 3101,1412 L 3085,1412 3085,1427 C 3102,1426 3145,1426 3164,1426 3184,1426 3226,1426 3243,1427 L 3243,1412 3227,1412 C 3184,1412 3182,1406 3182,1388 L 3182,1114 3182,1114 Z"/>
         </g>
        </g>
       </g>
      </g>
      <g class="Group">
       <g class="Graphic">
        <g id="id38">
         <rect class="BoundingBox" stroke="none" fill="none" x="5039" y="1101" width="221" height="327"/>
         <defs>
          <clipPath id="clip_path_15" clipPathUnits="userSpaceOnUse">
           <path d="M 5039,1101 L 5259,1101 5259,1427 5039,1427 5039,1101 Z"/>
          </clipPath>
         </defs>
         <g clip-path="url(#clip_path_15)">
          <path fill="rgb(0,0,0)" stroke="none" d="M 5101,1389 L 5153,1339 C 5230,1271 5259,1245 5259,1196 5259,1140 5215,1101 5155,1101 5100,1101 5063,1146 5063,1190 5063,1217 5088,1217 5089,1217 5098,1217 5115,1211 5115,1191 5115,1178 5106,1166 5089,1166 5085,1166 5084,1166 5083,1166 5094,1134 5120,1116 5149,1116 5193,1116 5214,1156 5214,1196 5214,1235 5190,1274 5163,1304 L 5069,1409 C 5063,1414 5063,1415 5063,1427 L 5245,1427 5259,1342 5247,1342 C 5244,1357 5241,1378 5236,1385 5233,1389 5200,1389 5189,1389 L 5101,1389 5101,1389 Z"/>
         </g>
        </g>
       </g>
      </g>
      <g class="Group">
       <g class="Graphic">
        <g id="id39">
         <rect class="BoundingBox" stroke="none" fill="none" x="7039" y="1102" width="225" height="338"/>
         <defs>
          <clipPath id="clip_path_16" clipPathUnits="userSpaceOnUse">
           <path d="M 7039,1102 L 7263,1102 7263,1439 7039,1439 7039,1102 Z"/>
          </clipPath>
         </defs>
         <g clip-path="url(#clip_path_16)">
          <path fill="rgb(0,0,0)" stroke="none" d="M 7181,1256 C 7221,1243 7250,1208 7250,1170 7250,1129 7207,1102 7160,1102 7110,1102 7073,1131 7073,1169 7073,1185 7084,1194 7098,1194 7113,1194 7123,1183 7123,1169 7123,1145 7100,1145 7092,1145 7108,1121 7140,1114 7158,1114 7178,1114 7205,1125 7205,1169 7205,1175 7204,1203 7191,1225 7176,1248 7160,1250 7147,1250 7143,1251 7132,1252 7128,1252 7124,1252 7121,1253 7121,1258 7121,1263 7124,1263 7133,1263 L 7154,1263 C 7194,1263 7213,1296 7213,1344 7213,1411 7179,1425 7157,1425 7136,1425 7099,1417 7082,1388 7099,1391 7114,1380 7114,1361 7114,1343 7101,1334 7087,1334 7075,1334 7060,1341 7060,1362 7060,1407 7105,1439 7159,1439 7218,1439 7263,1394 7263,1344 7263,1304 7232,1266 7181,1256 L 7181,1256 Z"/>
         </g>
        </g>
       </g>
      </g>
      <g class="com.sun.star.drawing.ConnectorShape">
       <g id="id40">
        <rect class="BoundingBox" stroke="none" fill="none" x="2130" y="4749" width="1029" height="2029"/>
        <path fill="none" stroke="rgb(8,146,208)" stroke-width="28" stroke-linejoin="round" d="M 3144,6763 L 2144,4763"/>
       </g>
      </g>
      <g class="com.sun.star.drawing.ConnectorShape">
       <g id="id41">
        <rect class="BoundingBox" stroke="none" fill="none" x="3130" y="4750" width="1030" height="2028"/>
        <path fill="none" stroke="rgb(8,146,208)" stroke-width="28" stroke-linejoin="round" d="M 3144,6763 L 4145,4764"/>
       </g>
      </g>
      <g class="com.sun.star.drawing.ConnectorShape">
       <g id="id42">
        <rect class="BoundingBox" stroke="none" fill="none" x="4132" y="4751" width="1028" height="2028"/>
        <path fill="none" stroke="rgb(255,140,0)" stroke-width="28" stroke-linejoin="round" d="M 5145,6764 L 4146,4765"/>
       </g>
      </g>
      <g class="com.sun.star.drawing.ConnectorShape">
       <g id="id43">
        <rect class="BoundingBox" stroke="none" fill="none" x="5132" y="4752" width="3030" height="2028"/>
        <path fill="none" stroke="rgb(255,140,0)" stroke-width="28" stroke-linejoin="round" d="M 5146,6765 L 8147,4766"/>
       </g>
      </g>
      <g class="com.sun.star.drawing.ConnectorShape">
       <g id="id44">
        <rect class="BoundingBox" stroke="none" fill="none" x="3130" y="4753" width="5033" height="2025"/>
        <path fill="none" stroke="rgb(8,146,208)" stroke-width="28" stroke-linejoin="round" d="M 3144,6763 L 8148,4767"/>
       </g>
      </g>
      <g class="com.sun.star.drawing.ConnectorShape">
       <g id="id45">
        <rect class="BoundingBox" stroke="none" fill="none" x="3130" y="4751" width="3031" height="2027"/>
        <path fill="none" stroke="rgb(8,146,208)" stroke-width="28" stroke-linejoin="round" d="M 3144,6763 L 6146,4765"/>
       </g>
      </g>
      <g class="com.sun.star.drawing.ConnectorShape">
       <g id="id46">
        <rect class="BoundingBox" stroke="none" fill="none" x="5130" y="1749" width="1031" height="2031"/>
        <path fill="none" stroke="rgb(8,146,208)" stroke-width="28" stroke-linejoin="round" d="M 5144,1763 L 6146,3765"/>
       </g>
      </g>
      <g class="com.sun.star.drawing.ConnectorShape">
       <g id="id47">
        <rect class="BoundingBox" stroke="none" fill="none" x="2130" y="1749" width="3029" height="2029"/>
        <path fill="none" stroke="rgb(8,146,208)" stroke-width="28" stroke-linejoin="round" d="M 5144,1763 L 2144,3763"/>
       </g>
      </g>
      <g class="com.sun.star.drawing.ConnectorShape">
       <g id="id48">
        <rect class="BoundingBox" stroke="none" fill="none" x="7132" y="1751" width="1030" height="2030"/>
        <path fill="none" stroke="rgb(191,0,255)" stroke-width="28" stroke-linejoin="round" d="M 7146,1765 L 8147,3766"/>
       </g>
      </g>
      <g class="com.sun.star.drawing.ConnectorShape">
       <g id="id49">
        <rect class="BoundingBox" stroke="none" fill="none" x="2130" y="1750" width="5030" height="2028"/>
        <path fill="none" stroke="rgb(8,146,208)" stroke-width="28" stroke-linejoin="round" d="M 7145,1764 L 2144,3763"/>
       </g>
      </g>
      <g class="Group">
       <g class="Graphic">
        <g id="id50">
         <rect class="BoundingBox" stroke="none" fill="none" x="9779" y="6063" width="319" height="288"/>
         <defs>
          <clipPath id="clip_path_17" clipPathUnits="userSpaceOnUse">
           <path d="M 9779,6063 L 10097,6063 10097,6350 9779,6350 9779,6063 Z"/>
          </clipPath>
         </defs>
         <g clip-path="url(#clip_path_17)">
          <path fill="rgb(0,0,0)" stroke="none" d="M 9846,6317 C 9842,6334 9841,6337 9808,6337 9801,6337 9797,6337 9797,6345 9797,6350 9800,6350 9808,6350 L 9958,6350 C 10025,6350 10074,6300 10074,6259 10074,6229 10050,6205 10009,6200 10053,6192 10097,6161 10097,6121 10097,6090 10069,6063 10019,6063 L 9877,6063 C 9869,6063 9865,6063 9865,6071 9865,6076 9869,6076 9877,6076 9878,6076 9886,6076 9893,6077 9901,6078 9904,6078 9904,6084 9904,6085 9904,6087 9903,6092 L 9846,6317 9846,6317 Z M 9910,6196 L 9936,6092 C 9940,6077 9941,6076 9959,6076 L 10013,6076 C 10050,6076 10059,6101 10059,6119 10059,6156 10023,6196 9971,6196 L 9910,6196 9910,6196 Z M 9891,6337 C 9885,6337 9884,6337 9882,6337 9877,6336 9876,6336 9876,6332 9876,6331 9876,6330 9878,6323 L 9907,6205 9987,6205 C 10027,6205 10035,6237 10035,6255 10035,6296 9998,6337 9948,6337 L 9891,6337 9891,6337 Z"/>
         </g>
        </g>
       </g>
      </g>
      <g class="Group">
       <g class="Graphic">
        <g id="id51">
         <rect class="BoundingBox" stroke="none" fill="none" x="9780" y="3064" width="320" height="307"/>
         <defs>
          <clipPath id="clip_path_18" clipPathUnits="userSpaceOnUse">
           <path d="M 9780,3064 L 10099,3064 10099,3370 9780,3370 9780,3064 Z"/>
          </clipPath>
         </defs>
         <g clip-path="url(#clip_path_18)">
          <path fill="rgb(0,0,0)" stroke="none" d="M 10099,3068 C 10099,3067 10098,3064 10094,3064 10093,3064 10093,3064 10088,3069 L 10059,3101 C 10055,3096 10036,3064 9989,3064 9895,3064 9801,3157 9801,3255 9801,3324 9851,3370 9915,3370 9951,3370 9983,3353 10005,3334 10044,3299 10052,3261 10052,3260 10052,3256 10047,3256 10047,3256 10044,3256 10042,3256 10041,3260 10037,3272 10028,3302 9999,3326 9970,3350 9943,3357 9921,3357 9884,3357 9839,3335 9839,3269 9839,3245 9848,3177 9890,3128 9916,3098 9955,3077 9992,3077 10035,3077 10060,3109 10060,3158 10060,3175 10059,3176 10059,3180 10059,3184 10063,3184 10065,3184 10070,3184 10070,3183 10073,3176 L 10099,3068 10099,3068 Z"/>
         </g>
        </g>
       </g>
      </g>
      <g class="com.sun.star.drawing.ConnectorShape">
       <g id="id52">
        <rect class="BoundingBox" stroke="none" fill="none" x="6132" y="1752" width="1030" height="2028"/>
        <path fill="none" stroke="rgb(8,146,208)" stroke-width="28" stroke-linejoin="round" d="M 7147,1766 L 6146,3765"/>
       </g>
      </g>
      <g class="com.sun.star.drawing.ConnectorShape">
       <g id="id53">
        <rect class="BoundingBox" stroke="none" fill="none" x="4131" y="1752" width="3031" height="2027"/>
        <path fill="none" stroke="rgb(191,0,255)" stroke-width="28" stroke-linejoin="round" d="M 7147,1766 L 4145,3764"/>
       </g>
      </g>
     </g>
    </g>
   </g>
  </g>
 </g>
</svg>